<svg xmlns="http://www.w3.org/2000/svg" width="591.797" height="927.944" viewBox="0 0 591.797 927.944">
  <g id="Group_1950" data-name="Group 1950" transform="translate(-79.102 -1306.725)">
    <g id="Group_1771" data-name="Group 1771" transform="translate(-928 -2.608)">
      <path id="Path_7436" data-name="Path 7436" d="M1071.915,1767.376v-21.547h6.254v1.84h-4.415v19.707Z" fill="#eb5a24"/>
      <path id="Path_7437" data-name="Path 7437" d="M1090.477,1746.1h1.931v3.358h8.6v16a1.7,1.7,0,0,1-1.909,1.955h-3.909l-.3-1.932,3.564.023c.3,0,.644-.023.644-.6v-13.659h-6.577c.253,1.909,1.127,5.565,6.37,9.014l-1.265,1.61c-4.553-3.472-5.656-6.462-6.162-7.864a15.14,15.14,0,0,1-6.347,7.772l-1.173-1.656a11.725,11.725,0,0,0,6.37-8.876h-6.6v16.166h-1.931v-17.959h8.692Z" fill="#eb5a24"/>
      <path id="Path_7438" data-name="Path 7438" d="M1110.9,1746.772v19.04c0,1.242-.736,1.656-1.725,1.656h-1.541l-.3-1.909,1.54.023c.253,0,.437-.069.437-.414v-5.381h-1.955A26.249,26.249,0,0,1,1106,1767.4l-1.4-1.15a23.493,23.493,0,0,0,1.173-7.726v-11.751Zm-1.587,1.679h-1.955v4h1.955Zm0,5.588h-1.955v4.139h1.955Zm4.369-.529v5.771c0,1.932,0,5.4-1.38,8.118l-1.356-1.4c.92-1.84,1.15-3.748,1.15-6.784v-7.174h8.416v-1.058h1.655c-.023.736-.023.828-.023,1.058h4v1.472h-3.978a52.1,52.1,0,0,0,.529,6.783,25.481,25.481,0,0,0,1.472-5.335l1.609.368a21.378,21.378,0,0,1-2.575,7.566c.138.529.621,2.368,1.15,2.368.483,0,.736-2.046.828-2.805l1.448,1.012c-.6,3.564-1.425,4-2.184,4-.782,0-1.748-1.173-2.369-2.967a14.526,14.526,0,0,1-3.311,3.013l-1.219-1.2a15.342,15.342,0,0,0,1.426-1.012H1114.6v-10.325h5.542v1.288h-1.564v1.633h1.564v4.231h-1.564v1.794h1.7v.137a10.286,10.286,0,0,0,1.242-1.586,48.19,48.19,0,0,1-.966-8.968Zm1.357-5.772v-1.61h1.7v1.61h3.772v-1.61h1.655v1.61h3.978v1.587h-3.978v1.149h-1.655v-1.149h-3.772v1.241h-1.7v-1.241h-3.358v-1.587Zm2.322,8.531h-1.425v1.633h1.425Zm1.495,2.828h-2.92v1.817h2.92Zm-1.495,3.036h-1.425v1.794h1.425Zm6.784-10.187a12.792,12.792,0,0,0-1.334-1.587l1.4-.735a6.509,6.509,0,0,1,1.356,1.609Z" fill="#eb5a24"/>
      <path id="Path_7439" data-name="Path 7439" d="M1136.707,1765.329c0,1.449-.23,2.139-2.161,2.139h-2.093l-.368-1.932h2.116c.713,0,.8-.322.8-.9v-4.92h-3.288c-.023.62-.207,4.966-1.54,7.726l-1.541-1.495a21.055,21.055,0,0,0,1.4-7.979V1746.8h6.668Zm-1.7-16.832h-3.2v3.955h3.2Zm0,5.588h-3.2v4.047h3.2Zm14.556-6.117a40.013,40.013,0,0,1-9.151,2.483v1.725c0,.552.137.782.942.782h5.749c.943,0,1.4-.138,1.495-2.967l1.908.6c-.368,3.955-1.4,4.14-3.15,4.14h-6.485c-1.057,0-2.3-.161-2.3-1.909v-6.761h1.84v2.691a38.742,38.742,0,0,0,8.163-2.369Zm-.253,19.063H1138.8v-10.394h10.508Zm-1.77-8.715h-6.968v2.667h6.968Zm0,4.162h-6.968v2.92h6.968Z" fill="#eb5a24"/>
      <path id="Path_7440" data-name="Path 7440" d="M1160.811,1746.8v18.695c0,.713,0,1.955-1.678,1.955h-2.6l-.414-1.932,2.369.046c.391,0,.621-.092.621-.621v-5.2h-3.289c-.275,3.863-.689,5.611-1.816,7.75l-1.357-1.748a17.654,17.654,0,0,0,1.472-8V1746.8Zm-1.7,1.656h-3.242v4h3.242Zm0,5.611h-3.242v4.047h3.242Zm14.487.62a90.042,90.042,0,0,1-.552,10.371c-.184.966-.414,2.392-2.484,2.392h-3.012l-.391-1.886h2.759c1.058,0,1.173-.6,1.311-1.38a58.335,58.335,0,0,0,.46-7.7h-5.243c-.437,7.266-2.851,9.842-3.932,11.015l-1.334-1.495a9.821,9.821,0,0,0,2.714-5.013,26.926,26.926,0,0,0,.667-5.841v-3.909h-2.99v-1.816h5.243v-3.289h1.955v3.289h5.7v1.816h-8v3.449Z" fill="#eb5a24"/>
      <path id="Path_7441" data-name="Path 7441" d="M1198.643,1748.681h-9.727a19.052,19.052,0,0,1-.85,2.828h9.588v15.453h-19.315v-15.453h7.841a15.809,15.809,0,0,0,.782-2.828h-9.681v-1.7h21.362Zm-15.291,4.484H1180.2v12.141h3.151Zm7.45,0h-5.657v2.851h5.657Zm0,4.438h-5.657v2.943h5.657Zm0,4.507h-5.657v3.2h5.657Zm5.013-8.945h-3.2v12.141h3.2Z" fill="#eb5a24"/>
      <path id="Path_7442" data-name="Path 7442" d="M1206.49,1751.969h2.161v1.725h-2.161v.552a14.377,14.377,0,0,0,3.15,4.668l-1.058,1.678a18.843,18.843,0,0,1-2.092-3.771v10.624H1204.7V1757.6a16.645,16.645,0,0,1-2.644,5.2l-.966-1.978a19.21,19.21,0,0,0,3.518-7.128h-3.035v-1.725h3.127v-3.242c-1.288.23-2.138.276-2.828.345l-.3-1.679a24.467,24.467,0,0,0,6.9-1.242l.621,1.518a9.194,9.194,0,0,1-2.6.736Zm1.747,13.958a18.035,18.035,0,0,0,4.9-2.07l1.2,1.173a17.639,17.639,0,0,1-5.174,2.415Zm8.531-19.776v1.242h5.542v1.4h-5.542v1.287h4.875v1.242h-4.875v1.311h5.979v1.426h-13.59v-1.426h5.772v-1.311h-4.76v-1.242h4.76V1748.8h-5.381v-1.4h5.381v-1.242Zm4.783,17.638h-11.382v-8.624h11.382Zm-1.747-7.382h-7.865v1.265h7.865Zm0,2.369h-7.865v1.264h7.865Zm0,2.368h-7.865v1.288h7.865Zm-1.357,2.713a15.854,15.854,0,0,0,4.553,2.07l-.943,1.518a17.873,17.873,0,0,1-4.737-2.346Z" fill="#eb5a24"/>
      <path id="Path_7443" data-name="Path 7443" d="M1229.49,1767.468h-1.817v-11.843a16.861,16.861,0,0,1-1.494,2.185l-1.012-2.277a20.535,20.535,0,0,0,3.817-9.382l1.909.184a39.689,39.689,0,0,1-1.4,5.243Zm10.486-21.363v1.955h7.013v1.61h-7.013v1.862h5.772v12.095h-10.486v-12.095h2.874v-1.862h-6.668v-1.61h6.668V1746.1Zm7.013,20.926h-15.36v-15.476h1.77V1765.4h13.59Zm-2.966-13.981h-7.06v1.886h7.06Zm0,3.426h-7.06v2h7.06Zm0,3.426h-7.06v2.208h7.06Z" fill="#eb5a24"/>
      <path id="Path_7444" data-name="Path 7444" d="M1260.332,1764.225c2.368-.253,7.956-.919,7.956-7.5,0-1.817-.552-6.875-6.876-7.083-.207,2.668-.667,8.325-3.035,12.119-1.357,2.139-2.828,2.667-3.863,2.667-2.254,0-4.139-2.667-4.139-6.461,0-6.255,4.553-10.256,10.623-10.256,7.451,0,9.451,5.151,9.451,9.037a9.267,9.267,0,0,1-3.081,7.2,11.945,11.945,0,0,1-6.347,2.277Zm-4.76-13.015a8.288,8.288,0,0,0-3.2,6.807c0,1.563.575,4.208,2.208,4.208.966,0,1.655-.851,2.253-1.863,1.932-3.311,2.3-7.979,2.53-10.623A8.654,8.654,0,0,0,1255.572,1751.21Z" fill="#eb5a24"/>
      <path id="Path_7445" data-name="Path 7445" d="M1281.791,1761.1a18.29,18.29,0,0,1-2.621-2.874v9.2h-1.863v-9.106a19.419,19.419,0,0,1-2.9,2.276l-.782-1.931a15.25,15.25,0,0,0,6.577-7.175H1274v-1.747h3.311v-3.611h1.863v3.611h2.966v1.747a18.65,18.65,0,0,1-2.851,4.691,19.727,19.727,0,0,0,3.587,3.449Zm6.163,6.324-.46-2,2.667.046c1.334.023,1.794-.276,2.047-1.4a112.338,112.338,0,0,0,.69-14.9h-4.231c-.138,8.945-.92,13.866-6.324,18.189l-1.357-1.518c5.082-4.162,5.726-8.485,5.772-16.671H1282.9v-1.794h11.888c0,2.254-.023,15.016-.8,17.729-.644,2.162-1.84,2.323-3.611,2.323Zm-6.9-10.67a11.281,11.281,0,0,0,1.909-2.69l1.449.965a12.7,12.7,0,0,1-2.024,2.691Z" fill="#eb5a24"/>
      <path id="Path_7446" data-name="Path 7446" d="M1318.381,1747.209v19.707h-19.223v-19.707Zm-17.338,1.748v16.119h15.43v-16.119Zm12.832,2.8v10.3h-10.3v-10.3Zm-8.486,1.656v6.967h6.646v-6.967Z" fill="#eb5a24"/>
      <path id="Path_7447" data-name="Path 7447" d="M1340.738,1754.521c-1.863.208-14.28,1.61-14.28,6.715,0,2.668,2.8,2.92,7.749,2.92a64.412,64.412,0,0,0,7.244-.344l.046,2.161c-1.495.092-3.519.23-6.83.23-3.978,0-10.348,0-10.348-4.9,0-3.932,4.737-5.91,6.347-6.6-.759-1.495-.805-2.829-.874-7.727h2.254c-.023.621-.046,1.265-.046,2.392,0,2.437.115,3.656.6,4.645a53.608,53.608,0,0,1,7.934-1.7Z" fill="#eb5a24"/>
      <path id="Path_7448" data-name="Path 7448" d="M1346.308,1764.547c.46,0,.828-.023,1.794-.092v-8.485h-1.7v-1.541h21.293v1.541h-11.175v11.5h-1.748v-2.231c-2.07.437-5.7.828-8.232,1.058Zm19.2-17.913v6.508h-16.925v-6.508Zm-10.739,9.336h-4.921v1.725h4.921Zm0,3.1h-4.921v1.748h4.921Zm-4.921,5.266c1.449-.115,3.541-.345,4.921-.551v-1.564h-4.921Zm13.8-16.3H1350.47v1.288h13.176Zm0,2.437H1350.47v1.357h13.176Zm3.15,16.994a14.917,14.917,0,0,1-4.576-2.438,15.079,15.079,0,0,1-4.53,2.438l-.827-1.679a13.806,13.806,0,0,0,4.024-1.955,11.781,11.781,0,0,1-2.622-3.863l1.633-.506a10.215,10.215,0,0,0,2.345,3.266,9.777,9.777,0,0,0,2.461-3.794h-7.5v-1.564h9.473v1.564a11.557,11.557,0,0,1-3.081,4.9,13.053,13.053,0,0,0,4.208,1.863Z" fill="#eb5a24"/>
      <path id="Path_7449" data-name="Path 7449" d="M1370.32,1765.076a17.342,17.342,0,0,0,.9-5.772l1.609.047c-.046,4.276-.621,5.863-.874,6.53Zm8.117-16.142a74.659,74.659,0,0,1-4.645,7.059c.713-.046,2.254-.092,3.311-.184-.184-.506-.391-.92-.666-1.54l1.4-.6a14.35,14.35,0,0,1,1.587,3.955,19.552,19.552,0,0,0,4.553-2.369,14.261,14.261,0,0,1-2.622-3.426,15.3,15.3,0,0,1-1.977,1.7l-1.15-1.334a13.244,13.244,0,0,0,4.737-6.232l1.932.3a8.6,8.6,0,0,1-.805,1.909h6.691v1.656a13.825,13.825,0,0,1-3.886,5.426,20.429,20.429,0,0,0,5.358,2.484l-.966,1.839a23.694,23.694,0,0,1-5.909-3.127,27.02,27.02,0,0,1-5.818,3.2l-.782-1.632-.92.368a11.031,11.031,0,0,0-.3-1.173c-.3.046-.713.092-1.816.184v10H1374v-9.888c-2.253.138-2.645.161-3.426.161l-.069-1.633c.667,0,.943.023,1.448,0,.345-.437.713-.966,1.4-2.023a24.469,24.469,0,0,0-2.966-2.76l.828-1.448c.437.3.529.368.62.436,1.1-1.885,1.633-2.966,2.231-4.208l1.748.6c-.851,1.679-2.461,4.277-2.737,4.668a14.9,14.9,0,0,1,1.265,1.2c1.357-2.116,2.07-3.4,2.483-4.162Zm-.9,15.705a23.848,23.848,0,0,0-.805-5.288l1.449-.254a26.884,26.884,0,0,1,1.035,5.22Zm11.8,2.944a33.078,33.078,0,0,0-9.428-2.99l.6-1.724a38.234,38.234,0,0,1,9.8,2.9Zm-1.426-4.99a22.189,22.189,0,0,0-5.68-2.53l.966-1.563a25.863,25.863,0,0,1,5.68,2.414Zm-4.875-12.762c-.207.275-.391.528-.621.8a12.682,12.682,0,0,0,2.967,3.519,12.816,12.816,0,0,0,3.4-4.323Z" fill="#eb5a24"/>
      <path id="Path_7450" data-name="Path 7450" d="M1413.188,1754.521c-1.863.208-14.28,1.61-14.28,6.715,0,2.668,2.805,2.92,7.749,2.92a64.41,64.41,0,0,0,7.244-.344l.046,2.161c-1.495.092-3.519.23-6.83.23-3.978,0-10.347,0-10.347-4.9,0-3.932,4.736-5.91,6.346-6.6-.759-1.495-.8-2.829-.874-7.727h2.254c-.023.621-.046,1.265-.046,2.392,0,2.437.115,3.656.6,4.645a53.564,53.564,0,0,1,7.933-1.7Z" fill="#eb5a24"/>
      <path id="Path_7451" data-name="Path 7451" d="M1429.382,1764.225c2.368-.253,7.956-.919,7.956-7.5,0-1.817-.552-6.875-6.876-7.083-.207,2.668-.667,8.325-3.035,12.119-1.357,2.139-2.828,2.667-3.863,2.667-2.254,0-4.139-2.667-4.139-6.461,0-6.255,4.553-10.256,10.623-10.256,7.451,0,9.451,5.151,9.451,9.037a9.266,9.266,0,0,1-3.081,7.2,11.945,11.945,0,0,1-6.347,2.277Zm-4.76-13.015a8.288,8.288,0,0,0-3.2,6.807c0,1.563.575,4.208,2.208,4.208.966,0,1.655-.851,2.253-1.863,1.932-3.311,2.3-7.979,2.53-10.623A8.654,8.654,0,0,0,1424.622,1751.21Z" fill="#eb5a24"/>
      <path id="Path_7452" data-name="Path 7452" d="M1442.655,1765.651a28.9,28.9,0,0,0,3.472-7.312l1.587.965a32.055,32.055,0,0,1-3.656,7.911Zm3.495-9.382a11.944,11.944,0,0,0-3.426-2.253l.943-1.472a10.954,10.954,0,0,1,3.633,2.207Zm1.127-6.14a14.877,14.877,0,0,0-3.587-2.3l1.08-1.518a15.258,15.258,0,0,1,3.634,2.139Zm14.211-4.139a12.059,12.059,0,0,1,2.874,1.978l-.966,1.265h.943v1.747h-4.461a60.271,60.271,0,0,0,.46,8.072,28.352,28.352,0,0,0,2.069-6.508l1.7.506a29.732,29.732,0,0,1-3.265,8.761c.46,1.886,1.1,3.334,1.518,3.334.46,0,.873-1.839,1.011-2.529l1.357,1.1a9.178,9.178,0,0,1-1.1,2.944,1.352,1.352,0,0,1-1.264.713c-1.794,0-2.691-3.082-2.875-3.725a14.891,14.891,0,0,1-4.806,3.794l-1.127-1.495a14.746,14.746,0,0,0,3.473-2.368H1451.6v-7.474h5.565v7.359a12.841,12.841,0,0,0,1.793-2.024c-.621-3.4-.666-4.668-.851-10.463h-7.5v6.508c0,4.484-1.012,7.772-2.437,9.911l-1.679-1.219a8.522,8.522,0,0,0,1.633-3.495,21.611,21.611,0,0,0,.666-4.9v-8.554h9.268c-.047-1.288-.093-2.76-.093-3.1h1.794c0,.483.069,2.668.069,3.1h3.288a18.15,18.15,0,0,0-2.644-1.955Zm-4.047,6.807v1.609h-6.14V1752.8Zm-1.955,4.783h-2.277v4.507h2.277Z" fill="#eb5a24"/>
      <path id="Path_7453" data-name="Path 7453" d="M1466.828,1756.8c.851-.851,3.012-2.989,4.668-8.9l1.909.6a22.945,22.945,0,0,1-5.128,9.911Zm.253,8.853c8.025-.736,12.141-3.127,15.959-9.635l1.678,1.15c-4.07,6.623-8.393,9.5-16.924,10.532Zm11.681-7.289c0,1.379-.873,1.862-2.092,1.862H1473.1l-.39-2.023,3.334.023c.3,0,.69,0,.69-.759V1746.1h2.023Zm4.622-10.486a21.54,21.54,0,0,0,5.4,8.692l-1.448,1.541c-1.035-.966-3.634-3.38-5.818-9.566Z" fill="#eb5a24"/>
      <path id="Path_7454" data-name="Path 7454" d="M1496.382,1767.445h-1.656v-15.729h-1.472v11.061h-1.609v-12.808h3.081v-3.91h1.656v3.91h3.173v10.692c0,.736,0,1.794-1.541,1.794H1497l-.344-1.84.689.023c.529.023.575-.23.575-.6v-8.324h-1.54Zm16.234-18.948h-12.67v-1.518h12.67Zm-.621,18.534h-11.566v-10.578h11.566Zm-.575-11.82h-10.3v-5.45h10.3Zm-6.093,2.691h-3.22v2.989h3.22Zm0,4.415h-3.22v3.265h3.22Zm4.415-11.061H1502.8v2.507h6.945Zm.529,6.646h-3.335v2.989h3.335Zm0,4.415h-3.335v3.265h3.335Z" fill="#eb5a24"/>
      <path id="Path_7455" data-name="Path 7455" d="M1516.025,1765.237a40.716,40.716,0,0,0,4.047-12.049l-3.817.023v-1.955h4.139c.207-1.54.3-2.483.437-4.323l2.184.207c-.207,1.771-.3,2.6-.552,4.116h2.622c3.081,0,4.622,1.012,4.622,5.68,0,9.037-2.9,9.244-4.806,9.244a14.759,14.759,0,0,1-2.828-.322l-.115-2.046a13.488,13.488,0,0,0,2.575.367c1.4,0,2.207-.643,2.621-2.345a22.657,22.657,0,0,0,.575-5.1c0-2.023-.138-3.587-2.506-3.564l-3.081.023a51.44,51.44,0,0,1-4.186,13.061Zm16.6-5.358c-.23-2.736-.989-6.369-3.495-8.83l1.495-1.15c.942.943,3.426,3.473,4.254,9.658Zm-.391-13.153a19.67,19.67,0,0,1,2.76,4.093l-1.472,1.058a19.027,19.027,0,0,0-2.644-4.185Zm2.806-1.632a19.435,19.435,0,0,1,2.736,4.093l-1.472,1.034a19.058,19.058,0,0,0-2.644-4.162Z" fill="#eb5a24"/>
      <path id="Path_7456" data-name="Path 7456" d="M1073.319,1781.128h2.047v5.634h9.8v1.909h-9.473c1.425,6.024,4.07,9.382,9.8,11.75l-1.288,1.932c-4.783-2.254-8.118-5.473-9.612-11.038a17.03,17.03,0,0,1-9.819,10.992l-1.1-1.978a14.211,14.211,0,0,0,9.543-11.658h-9.336v-1.909h9.451Z" fill="#eb5a24"/>
      <path id="Path_7457" data-name="Path 7457" d="M1108.093,1790.579a55.408,55.408,0,0,1-6.209.644,17.451,17.451,0,0,0,2.461,3.84l-1.794,1.242a20.183,20.183,0,0,1-2.9-4.99c-.621.046-2.392.069-3.2.069l-7.266-.046v-1.862l6.99.092c.69,0,1.449,0,2.806-.047a26.815,26.815,0,0,1-.759-2.736c-.828.023-1.633.046-2.46.046l-5.749-.023v-1.862l5.519.023c.735,0,.9,0,2.322-.023a27.441,27.441,0,0,1-.368-2.829l2.208-.023c.069,1.035.138,1.725.3,2.76a55.088,55.088,0,0,0,6.208-.644l.184,1.931a56.33,56.33,0,0,1-6.047.575,20.582,20.582,0,0,0,.8,2.737,38.862,38.862,0,0,0,6.715-.782Zm-13.705,4.116a3.279,3.279,0,0,0-1.15,2.07c0,2.369,4,2.6,7.312,2.6,2.645,0,4.14-.138,5.243-.229l.046,2.023c-1.126.092-2.023.161-4.668.161-4.461,0-6.139-.322-7.5-.92a3.87,3.87,0,0,1-2.552-3.334,4.614,4.614,0,0,1,1.7-3.4Z" fill="#eb5a24"/>
      <path id="Path_7458" data-name="Path 7458" d="M1116.077,1783.244a45.073,45.073,0,0,0-.483,6.577c0,3.564.276,8.6,2.852,8.6,1.035,0,2.23-.943,3.817-5.082l1.7.965a14.55,14.55,0,0,1-3.1,5.358,3.591,3.591,0,0,1-2.575,1.1c-3.725,0-4.76-5.151-4.76-11.13,0-2.506.23-5.012.368-6.576Zm14.073,15.338c.046-.6.092-1.288.092-2.346,0-6-1.793-9.313-4.185-11.267l1.587-1.219c2.736,2.3,5.1,5.542,4.783,14.74Z" fill="#eb5a24"/>
      <path id="Path_7459" data-name="Path 7459" d="M1147.586,1788.211h8.485v1.931h-8.485v9.543h9.979v1.909h-21.293v-1.909h9.313v-18.534h2Z" fill="#eb5a24"/>
      <path id="Path_7460" data-name="Path 7460" d="M1164.837,1802.4h-1.885v-11.866a11.836,11.836,0,0,1-1.932,2.346l-.966-2.139c.9-.966,3.243-3.449,4.622-9.681l1.932.276a34.049,34.049,0,0,1-1.771,5.565Zm16.878-2.645v1.794h-15.5v-1.794h8.646a53.577,53.577,0,0,0,2.621-11.7l2,.276a60.572,60.572,0,0,1-2.69,11.428Zm-6.875-18.626v3.7h6.393v1.816h-14.487v-1.816h6.139v-3.7Zm-5.082,7.014a51.2,51.2,0,0,1,2.231,9.819l-1.978.391a50.587,50.587,0,0,0-1.977-9.773Z" fill="#eb5a24"/>
      <path id="Path_7461" data-name="Path 7461" d="M1191.08,1782.393h1.931v18.12H1190.8v-15.7l-3.473,2.391-.3-2.046Z" fill="#eb5a24"/>
      <path id="Path_7462" data-name="Path 7462" d="M1201.385,1791.453c0-1.817,0-9.428,6.277-9.428s6.278,7.611,6.278,9.428,0,9.428-6.278,9.428S1201.385,1793.293,1201.385,1791.453Zm10.393,0c0-3.012-.46-7.45-4.116-7.45-3.61,0-4.116,4.323-4.116,7.45,0,3.242.552,7.451,4.116,7.451C1211.272,1798.9,1211.778,1794.557,1211.778,1791.453Z" fill="#eb5a24"/>
      <path id="Path_7463" data-name="Path 7463" d="M1217.668,1787.659a16.235,16.235,0,0,0,8.554-6.761l2.024.506c-.345.552-.529.851-1.081,1.61h8.577v1.725a21.923,21.923,0,0,1-7.68,7.818h9.52v9.405h-14.349v-6.9a34.562,34.562,0,0,1-5.5,1.817l-.713-1.955a28.679,28.679,0,0,0,9.428-3.518,29.983,29.983,0,0,0-4.438-3.748,17.583,17.583,0,0,1-3.426,1.725Zm7.957-2.92a27.741,27.741,0,0,1-2.116,1.862,29.678,29.678,0,0,1,4.6,3.748,18.766,18.766,0,0,0,5.358-5.61Zm10.025,9.542H1225.1v5.933h10.554Z" fill="#eb5a24"/>
      <path id="Path_7464" data-name="Path 7464" d="M1247.636,1793.8a14.606,14.606,0,0,1-1.495-2.921v11.567H1244.3v-10.969a16.774,16.774,0,0,1-2.507,5.749l-.805-2.323a18.12,18.12,0,0,0,3.266-7.588h-2.9v-1.7h2.944V1781.1h1.839v4.507h2.323v1.7h-2.323v.828a12.44,12.44,0,0,0,2.553,4.185Zm-.207,6.369a26.567,26.567,0,0,0,5.8-3.219l.414,1.633a37.345,37.345,0,0,1-5.5,3.2Zm14.6,1.495a13.705,13.705,0,0,1-5.358-5.128v4.024a1.611,1.611,0,0,1-1.771,1.863h-2.644l-.322-1.84,2.161.023c.437,0,.736-.046.736-.736v-7.335h-5.886v-1.656h5.886v-2.046h-4.967v-1.587h4.967v-1.863h-5.541v-1.609h3.1a17.3,17.3,0,0,0-1.035-2.415l1.725-.253a16.054,16.054,0,0,1,1.173,2.668h3.127a14.065,14.065,0,0,0,1.1-2.668l1.793.276a14.9,14.9,0,0,1-1.1,2.392h3.151v1.609h-5.657v1.863h5.1v1.587h-5.1v2.046h6.025v1.656h-6.025v.828a12.221,12.221,0,0,0,6.3,6.6Zm-11.774-8.646a13.273,13.273,0,0,1,2.829,2.414l-1.265,1.219a12.9,12.9,0,0,0-2.736-2.414Zm8.555,2.483a11.21,11.21,0,0,0,2.253-2.529l1.449,1.012a12.746,12.746,0,0,1-2.369,2.575Z" fill="#eb5a24"/>
      <path id="Path_7465" data-name="Path 7465" d="M1270.59,1782.554a44.218,44.218,0,0,0-1.034,10.417,34.2,34.2,0,0,0,.712,8.163l-2.23.184a45.9,45.9,0,0,1-.6-8.025,52.622,52.622,0,0,1,.966-10.923Zm5.864,9.865a5.549,5.549,0,0,0-1.15,3.1c0,2.093,2.346,2.369,4.806,2.369a49.352,49.352,0,0,0,5.266-.276v2.161c-.782.069-2.391.207-4.346.207-3.4,0-7.657-.322-7.657-4.277a7.7,7.7,0,0,1,1.219-3.863Zm8.439-8.186v2.023h-10.808v-2.023Z" fill="#eb5a24"/>
      <path id="Path_7466" data-name="Path 7466" d="M1294.188,1782.324a51.484,51.484,0,0,0-.989,10.555,36.068,36.068,0,0,0,.713,8.025l-2.069.276a43.446,43.446,0,0,1-.644-8.462,60.134,60.134,0,0,1,.851-10.555Zm15.522,3.771v1.978h-4.3l.069,6.071a17,17,0,0,1,4.622,3.357l-1.357,1.862a12.526,12.526,0,0,0-3.334-2.989v.851c0,1.311-.023,3.909-4.415,3.909-3.587,0-4.921-2.092-4.921-3.955,0-2.392,2.115-4.024,5.036-4.024a7.371,7.371,0,0,1,2.368.345l-.092-5.427h-6.944v-1.978h6.9l-.069-3.886h2.093l.046,3.886Zm-6.232,9.29a5.216,5.216,0,0,0-2.345-.506c-1.541,0-3.219.6-3.219,2.323,0,1.77,1.747,2.207,2.966,2.207,2.506,0,2.6-1.356,2.6-2.6Z" fill="#eb5a24"/>
      <path id="Path_7467" data-name="Path 7467" d="M1334.55,1802.537a26.48,26.48,0,0,1-7.5-2.024l.9-1.219h-7.059l.85,1.2a26.067,26.067,0,0,1-7.312,1.978l-.759-1.748a25.7,25.7,0,0,0,6.646-1.426h-4.208v-8.117h16.763v8.117h-4.323a29.081,29.081,0,0,0,6.577,1.472Zm-1.771-13.981v-3.518h-16.625v3.518h-1.771V1783.5h4.093a13.924,13.924,0,0,0-1.265-1.863l1.771-.621a23.166,23.166,0,0,1,1.518,2.484h3.035V1781.1h1.932v2.392h3.081a15.128,15.128,0,0,0,1.288-2.507l1.862.575a16.576,16.576,0,0,1-1.126,1.932h4.07v5.059Zm-1.242,1.517h-14.119v-3.886h14.119Zm-.436,2.277h-13.2v1.1h13.2Zm0,2.161h-13.2v1.15h13.2Zm0,2.208h-13.2v1.219h13.2Zm-1.357-9.336h-10.555v1.495h10.555Z" fill="#eb5a24"/>
      <path id="Path_7468" data-name="Path 7468" d="M1347.455,1791.982v10.026h-8.807v-10.026Zm-7.036,1.679v6.668h5.266v-6.668Zm15.958-11.82v8.071H1340.9v-8.071Zm-13.636,1.679v4.668h11.82v-4.668Zm15.821,8.462v10.026h-9.083v-10.026Zm-7.312,1.679v6.668h5.541v-6.668Z" fill="#eb5a24"/>
      <path id="Path_7469" data-name="Path 7469" d="M1380.8,1784.164V1786h-10.141a19.058,19.058,0,0,1-1.517,3.311,6.862,6.862,0,0,1,3.679-1.356,3.136,3.136,0,0,1,3.495,2.69c.529-.207,3.679-1.471,5.749-2.184l.552,2c-1.863.529-3.495,1.035-6.025,2,.069.805.092,1.794.092,2.621,0,.322,0,1.012-.069,1.748h-2c.046-.529.114-1.38.114-2.208,0-.39,0-.782-.045-1.379-1.771.827-4.553,2.3-4.553,4.185,0,2.023,2.552,2.023,5.081,2.023a56.87,56.87,0,0,0,6.071-.321l.069,1.977c-1.311.092-3.311.23-5.5.23-2.6,0-7.8,0-7.8-3.7,0-3.128,4.116-5.2,6.393-6.209-.253-1.357-.9-1.816-1.955-1.816a6.851,6.851,0,0,0-4.553,2.345c-1.058,1.449-2.575,3.472-3.311,4.231l-1.426-1.541a19.94,19.94,0,0,0,5.335-8.646h-4.737v-1.839h5.289a16.746,16.746,0,0,0,.483-2.576l2.207.092a21.094,21.094,0,0,1-.575,2.484Z" fill="#eb5a24"/>
      <path id="Path_7470" data-name="Path 7470" d="M1401.228,1783.911l2.553,2.9c-.69,3.633-1.4,6.324-3.656,9.037a15.484,15.484,0,0,1-9.911,5.427l-.989-1.955c7.4-1.1,11.451-5.128,12.463-13.406h-14.3v-2Zm7.405-.621a3.2,3.2,0,1,1-3.2-3.2A3.189,3.189,0,0,1,1408.633,1783.29Zm-4.967,0a1.771,1.771,0,1,0,1.77-1.771A1.786,1.786,0,0,0,1403.666,1783.29Z" fill="#eb5a24"/>
      <path id="Path_7471" data-name="Path 7471" d="M1416.088,1798.812c7.818-.9,10.877-4.691,12.992-11.245l1.84,1.1c-2.369,6.53-5.427,11.8-16.993,12.394v-18.741h2.161Z" fill="#eb5a24"/>
      <path id="Path_7472" data-name="Path 7472" d="M1442.676,1796.512c0,2.23.942,2.437,2.874,2.437h4.645a26.6,26.6,0,0,0,4.116-.345l.046,2.07a28.546,28.546,0,0,1-4.024.253h-4.921c-4,0-4.829-1.679-4.829-4.3v-7.5l-4.921.39-.092-2.023,5.013-.391v-5.128h2.093v4.99l12.049-.9c-.6,4.99-2.783,7.52-6.922,9.451l-1.218-1.655c3.955-1.587,4.944-3.634,5.541-5.7l-9.45.782ZM1451,1780.6a18.73,18.73,0,0,1,1.954,4.277l-1.632.736a17.982,17.982,0,0,0-1.84-4.3Zm3.748-.505a18.589,18.589,0,0,1,1.886,4.3l-1.633.759a17.989,17.989,0,0,0-1.794-4.37Z" fill="#eb5a24"/>
      <path id="Path_7473" data-name="Path 7473" d="M1467.515,1788.6a27.394,27.394,0,0,0-7.082-3.311l1.035-1.84a28.867,28.867,0,0,1,7.2,3.219Zm-6.6,9.98c11.635-.621,15.062-8.761,16.648-13.912l1.794,1.333c-1.1,3.266-4.783,14-18.028,14.878Z" fill="#eb5a24"/>
      <path id="Path_7474" data-name="Path 7474" d="M1501.53,1794.856a51,51,0,0,0-10.141-4.92v11.612h-2.23v-19.661h2.23v5.887a62.929,62.929,0,0,1,11.222,4.944Z" fill="#eb5a24"/>
      <path id="Path_7475" data-name="Path 7475" d="M1516.482,1797.961h2.438v2.552h-2.438Zm2.415-15.568-.276,13.13h-1.84l-.276-13.13Z" fill="#eb5a24"/>
      <path id="Path_7476" data-name="Path 7476" d="M1537.183,1781.174v21.547h-6.255v-1.84h4.416v-19.707Z" fill="#eb5a24"/>
    </g>
    <g id="Group_1777" data-name="Group 1777" transform="translate(-928 -2.608)">
      <path id="Path_7532" data-name="Path 7532" d="M1153.146,2183.424a25.735,25.735,0,0,1-4.171-7.115c-.981,4.592-2.383,8.447-6.554,12.128l-1.753-2.524c3.47-3.12,5.258-6.449,6.064-13.109h-5.608v-2.628h5.818c.035-.806.07-1.613.07-3.435v-2.594h-5.222v-2.734h5.222v-5.257h2.8v5.257h4.8v2.734h-4.8v2.559c0,1.016,0,2.278-.07,3.47h5.4v2.628h-5.082a21.676,21.676,0,0,0,5.292,8.658Zm18.962-6.343h-4.487v7.886c0,.315,0,.876.947.876h.876a.913.913,0,0,0,1.051-.806,22.229,22.229,0,0,0,.386-3.681l2.629.6c-.281,5.994-1.087,6.555-2.874,6.555h-3.4c-1.647,0-2.384-.666-2.384-2.349v-9.077h-2.523c-.946,6.484-4.522,9.743-9.5,11.566l-1.682-2.559c7.15-2.278,8.2-6.519,8.552-9.007h-3.365v-19.839h15.773Zm-2.769-17.35h-10.27v3.4h10.27Zm0,5.713h-10.27v3.33h10.27Zm0,5.643h-10.27v3.505h10.27Z" fill="#00532c"/>
      <path id="Path_7533" data-name="Path 7533" d="M1188.928,2160.642a77.889,77.889,0,0,1-6.73,10.3c2.664-.1,3.926-.28,4.942-.386a19.755,19.755,0,0,0-1.121-2.523l2.243-.877a39.991,39.991,0,0,1,2.874,6.625l-2.559.946c-.14-.525-.245-.841-.6-1.963-1.962.281-2.663.351-3.154.386v15.492h-2.8v-15.212c-3.435.246-4.311.316-5.748.386l-.14-2.7c.981,0,1.191,0,3.014-.035,1.086-1.437,1.542-2.068,1.928-2.7a31.658,31.658,0,0,0-5.083-4.837l1.472-2.138c.316.246.561.456,1.157.912a41.75,41.75,0,0,0,3.4-6.379l2.559.981a46.947,46.947,0,0,1-4.066,7.08c.14.175,1.051,1.087,2.033,2.208a74.58,74.58,0,0,0,3.96-6.729Zm-12.9,24.64a27.288,27.288,0,0,0,1.718-9.288l2.523.421a41.364,41.364,0,0,1-1.682,9.848Zm11.812-.876a54.657,54.657,0,0,0-1.472-8.062l2.313-.49a46.7,46.7,0,0,1,1.753,8.061Zm1.717-17.034a24.272,24.272,0,0,0,5.328-11.391l2.909.315a37.855,37.855,0,0,1-1.4,4.872h11.076c0,4.486-.035,21.766-1.3,24.955a3.979,3.979,0,0,1-4.136,2.524h-5.573l-.561-3.084,5.573.034c.842,0,1.788-.034,2.173-1.437.982-3.645.947-19.347.947-20.363h-9.253a22.5,22.5,0,0,1-3.681,5.748Zm7.957,11.426a43.934,43.934,0,0,0-4.031-8.517l2.489-1.192a34.946,34.946,0,0,1,4.171,8.447Z" fill="#00532c"/>
      <path id="Path_7534" data-name="Path 7534" d="M1218.856,2158.329a67.358,67.358,0,0,0-1.577,15.878c0,7.815.806,11.18,1.086,12.442l-3.4.28a69.875,69.875,0,0,1-.912-12.232,80.25,80.25,0,0,1,1.472-16.648Zm8.938,15.036a8.456,8.456,0,0,0-1.753,4.732c0,3.189,3.575,3.61,7.326,3.61a75.1,75.1,0,0,0,8.026-.421v3.3c-1.192.1-3.645.315-6.624.315-5.188,0-11.672-.49-11.672-6.519a11.738,11.738,0,0,1,1.858-5.888Zm12.863-12.477v3.084h-16.473v-3.084Z" fill="#00532c"/>
      <path id="Path_7535" data-name="Path 7535" d="M1277.315,2185.492c0,2.1-.841,3.12-3.54,3.12h-5.012l-.491-2.979,4.837.034c.736,0,1.227.036,1.227-1.121v-24.43h-23.764v28.5h-2.979v-31.229h29.722Zm-4.627-22.046V2166h-20.539v-2.559Zm-2.278,5.854v12.793h-16.087V2169.3Zm-2.734,2.558h-10.585v7.746h10.585Z" fill="#00532c"/>
      <path id="Path_7536" data-name="Path 7536" d="M1281.1,2186.263a12.948,12.948,0,0,0,3.961-6.133l2.594.6a16.736,16.736,0,0,1-4.487,7.64Zm32.561-20.013h-32.42V2163.9h8.411c-.42-1.753-.7-2.734-.876-3.225H1283.2v-2.313h12.758v-2.208h2.945v2.208h12.863v2.313h-5.328a27.4,27.4,0,0,1-.911,3.225h8.131Zm-3.645,12.408h-25.095v-10.585h25.095Zm-2.839-8.412h-19.452v2.1h19.452Zm0,4.066h-19.452v2.173h19.452Zm-14.826,6.554v4.066c0,.631.1.876.806.876h7.816c.947,0,1.192-.105,1.648-3.3l2.734.736c-.631,4.171-1.332,5.082-3.295,5.082h-9.639c-1.857,0-2.839-.665-2.839-2.383v-5.082Zm10.375-16.964a21.894,21.894,0,0,0,.841-3.225h-12.022a29.683,29.683,0,0,1,.911,3.225Zm-3.785,20.118a24.277,24.277,0,0,0-5.538-3.329l1.437-1.928a24.342,24.342,0,0,1,5.538,2.979Zm12.512,4.206a36.769,36.769,0,0,0-5.327-7.185l2.173-1.472a37.63,37.63,0,0,1,5.573,6.975Z" fill="#00532c"/>
      <path id="Path_7537" data-name="Path 7537" d="M1326.1,2157.733c-.315,9.464-.456,13.634-.456,16.964,0,4.486.211,9.183,6.8,9.183,9.078,0,10.235-6.309,11.216-11.636l2.944,1.086c-1.121,6.344-3.4,13.564-14.055,13.564-9.6,0-10.234-6.414-10.234-12.512,0-2.629.21-14.266.245-16.649Z" fill="#00532c"/>
      <path id="Path_7538" data-name="Path 7538" d="M1352.344,2186.369c3.681-7.08,5.608-18.577,6.029-21.38h-5.117v-2.98h5.5c.245-2.453.245-2.593.42-4.626l3.4.1c-.211,1.787-.281,2.313-.561,4.521h9.638v2.98H1361.6c-1.437,8.727-3.925,17.77-5.993,22.466Zm16.368-9.043a5.369,5.369,0,0,0-1.191,3.189c0,3.085,4.065,3.225,8.131,3.225,1.192,0,3.821-.07,6.73-.281l.035,3.19c-.876.035-5.468.1-6.59.1-4.135,0-11.285,0-11.285-5.958a8.52,8.52,0,0,1,1.647-4.627Zm12.9-7.431c-.947-.035-2-.1-3.575-.1a26.944,26.944,0,0,0-9.6,1.472l-1.016-2.7c2.663-1.016,5.993-2.067,14.195-1.822Z" fill="#00532c"/>
      <path id="Path_7539" data-name="Path 7539" d="M1403.618,2166.951h12.933v2.944h-12.933v14.546h15.211v2.909h-32.455v-2.909h14.195v-28.25h3.049Z" fill="#00532c"/>
      <path id="Path_7540" data-name="Path 7540" d="M1452.087,2162.57c-1.507-.1-2.593-.14-3.575-.14a9.857,9.857,0,0,0-3.54.42c-5.047,1.683-11.916,7.115-11.916,13.144,0,4.556,3.364,5.993,7.08,6.765a41.913,41.913,0,0,0,8.832.63l-.631,3.4c-6.905-.28-18.541-.771-18.541-10.585,0-6.659,6.134-11.251,10.27-13.669-1.017.035-13.144.771-16.964,1.227l-.281-3.435c1.718-.035,7.781-.316,9.569-.421,8.307-.455,11.6-.525,19.627-.561Zm-7.255,4.206a31.034,31.034,0,0,1,3.856,6.624l-2.454,1.542a29.79,29.79,0,0,0-3.68-6.764Zm5.188-2.243a30.45,30.45,0,0,1,3.855,6.624l-2.453,1.542a31.368,31.368,0,0,0-3.681-6.764Z" fill="#00532c"/>
      <path id="Path_7541" data-name="Path 7541" d="M1463.44,2187.56a50.91,50.91,0,0,0-5.818-7.255l2.663-1.963a55.276,55.276,0,0,1,6.239,7.045Z" fill="#00532c"/>
      <path id="Path_7542" data-name="Path 7542" d="M1077.062,2204.646h2.944v5.117h13.109v24.394a2.589,2.589,0,0,1-2.909,2.979h-5.959l-.455-2.944,5.432.035c.456,0,.982-.035.982-.911V2212.5h-10.024c.385,2.909,1.717,8.482,9.708,13.739l-1.928,2.453c-6.939-5.292-8.622-9.848-9.393-11.986a23.071,23.071,0,0,1-9.673,11.846l-1.788-2.523a17.877,17.877,0,0,0,9.709-13.529h-10.059v24.639h-2.945v-27.373h13.249Z" fill="#00532c"/>
      <path id="Path_7543" data-name="Path 7543" d="M1106.43,2205.662v29.021c0,1.893-1.122,2.524-2.629,2.524h-2.348l-.456-2.91,2.348.036c.386,0,.666-.106.666-.631v-8.2h-2.979c-.07,1.367-.35,7.36-2.068,11.6l-2.138-1.752c1.3-3.225,1.788-8.237,1.788-11.777v-17.91Zm-2.419,2.559h-2.979v6.1h2.979Zm0,8.517h-2.979v6.309h2.979Zm6.66-.807v8.8c0,2.944,0,8.237-2.1,12.372l-2.068-2.138c1.4-2.8,1.752-5.713,1.752-10.339v-10.936h12.828v-1.612h2.524c-.035,1.122-.035,1.262-.035,1.612h6.1v2.243H1123.6a79.524,79.524,0,0,0,.806,10.34,38.833,38.833,0,0,0,2.243-8.131l2.454.56a32.62,32.62,0,0,1-3.926,11.532c.21.806.947,3.61,1.753,3.61.736,0,1.121-3.12,1.261-4.276l2.209,1.542c-.912,5.433-2.174,6.1-3.33,6.1-1.192,0-2.664-1.788-3.61-4.522a22.142,22.142,0,0,1-5.047,4.592l-1.858-1.823a23.39,23.39,0,0,0,2.173-1.542h-6.659v-15.737h8.447v1.962h-2.384v2.489h2.384v6.449h-2.384v2.734h2.594v.21a15.721,15.721,0,0,0,1.893-2.418,73.515,73.515,0,0,1-1.472-13.67Zm2.068-8.8v-2.453h2.593v2.453h5.748v-2.453h2.524v2.453h6.063v2.418H1123.6v1.753h-2.524v-1.753h-5.748v1.893h-2.593v-1.893h-5.118v-2.418Zm3.54,13h-2.173v2.489h2.173Zm2.278,4.311h-4.451v2.769h4.451Zm-2.278,4.627h-2.173v2.734h2.173Zm10.339-15.527a19.448,19.448,0,0,0-2.033-2.418l2.138-1.122a9.987,9.987,0,0,1,2.068,2.454Z" fill="#00532c"/>
      <path id="Path_7544" data-name="Path 7544" d="M1144,2233.947c0,2.208-.351,3.26-3.3,3.26h-3.189l-.561-2.945h3.225c1.086,0,1.226-.49,1.226-1.366v-7.5h-5.012c-.035.946-.315,7.571-2.348,11.776l-2.348-2.278c1.857-4.171,2.138-9.428,2.138-12.162V2205.7H1144Zm-2.594-25.656h-4.872v6.028h4.872Zm0,8.517h-4.872v6.168h4.872Zm22.187-9.323c-3.54,1.752-10.691,3.294-13.95,3.785v2.629c0,.841.21,1.191,1.437,1.191h8.762c1.437,0,2.138-.21,2.279-4.521l2.909.911c-.561,6.029-2.138,6.309-4.8,6.309h-9.884c-1.612,0-3.505-.245-3.505-2.909v-10.3h2.8v4.1a59.034,59.034,0,0,0,12.442-3.61Zm-.386,29.056h-16.018V2220.7h16.018Zm-2.7-13.284h-10.62v4.066h10.62Zm0,6.344h-10.62v4.451h10.62Z" fill="#00532c"/>
      <path id="Path_7545" data-name="Path 7545" d="M1178.974,2205.7v28.495c0,1.087,0,2.979-2.558,2.979h-3.961l-.631-2.944,3.61.07c.6,0,.947-.14.947-.946v-7.921h-5.012c-.421,5.888-1.052,8.552-2.769,11.811l-2.068-2.663c1.752-3.33,2.243-7.746,2.243-12.2V2205.7Zm-2.593,2.524h-4.942v6.1h4.942Zm0,8.552h-4.942v6.168h4.942Zm22.081.946c0,.385-.035,11.286-.841,15.807-.28,1.472-.631,3.645-3.786,3.645h-4.591l-.6-2.874h4.206c1.612,0,1.788-.911,2-2.1a89.037,89.037,0,0,0,.7-11.741h-7.991c-.666,11.076-4.347,15-5.994,16.788l-2.033-2.278a14.972,14.972,0,0,0,4.136-7.64,41.076,41.076,0,0,0,1.017-8.9v-5.958h-4.557v-2.769h7.991v-5.012h2.98v5.012h8.692v2.769h-12.2v5.257Z" fill="#00532c"/>
      <path id="Path_7546" data-name="Path 7546" d="M1201.893,2234.438a44.083,44.083,0,0,0,5.293-11.146l2.418,1.472a48.793,48.793,0,0,1-5.573,12.057Zm5.328-14.3A18.211,18.211,0,0,0,1202,2216.7l1.437-2.244a16.681,16.681,0,0,1,5.538,3.365Zm1.717-9.358a22.662,22.662,0,0,0-5.468-3.505l1.648-2.313a23.245,23.245,0,0,1,5.538,3.26Zm21.661-6.309a18.38,18.38,0,0,1,4.381,3.015l-1.472,1.927h1.437v2.664h-6.8c.245,8.412.245,8.973.7,12.3a43.219,43.219,0,0,0,3.154-9.919l2.594.771a45.3,45.3,0,0,1-4.977,13.354c.7,2.874,1.683,5.083,2.313,5.083.7,0,1.332-2.8,1.543-3.856l2.068,1.682a13.982,13.982,0,0,1-1.683,4.487,2.062,2.062,0,0,1-1.928,1.086c-2.733,0-4.1-4.7-4.381-5.678a22.691,22.691,0,0,1-7.325,5.783l-1.717-2.278a22.435,22.435,0,0,0,5.292-3.61h-8.272v-11.391h8.482v11.216a19.424,19.424,0,0,0,2.734-3.085c-.946-5.187-1.016-7.115-1.3-15.947H1214.02V2222c0,6.835-1.542,11.847-3.715,15.106l-2.559-1.857a12.974,12.974,0,0,0,2.489-5.328,32.918,32.918,0,0,0,1.016-7.465v-13.039h14.125c-.07-1.963-.14-4.206-.14-4.731h2.734c0,.736.1,4.065.1,4.731h5.012a27.686,27.686,0,0,0-4.031-2.979Zm-6.169,10.375v2.453h-9.358v-2.453Zm-2.979,7.29h-3.47V2229h3.47Z" fill="#00532c"/>
      <path id="Path_7547" data-name="Path 7547" d="M1246.4,2211.375c-.806,2.664-1.086,4.7-1.086,9.849a18.756,18.756,0,0,1,12.057-4.311c8.131,0,9.638,5.222,9.638,8.131,0,8.412-8.1,10.305-15.6,10.305a43,43,0,0,1-6.729-.491l-.351-3.084a37.624,37.624,0,0,0,6.835.631c4.837,0,9.043-.947,11.145-3.26a6.2,6.2,0,0,0,1.367-4.136c0-2.734-1.857-5.257-6.484-5.257-4.7,0-9.393,2-11.706,5.047-.1.35-.14.456-.175.631l-3.12-.1c0-1.192.1-6.449.14-7.5a32.836,32.836,0,0,1,.912-7.01Zm15.177-.035a43.269,43.269,0,0,0-14.055-2.524l.56-3.014a56.217,56.217,0,0,1,14.371,2.208Z" fill="#00532c"/>
      <path id="Path_7548" data-name="Path 7548" d="M1297.711,2206.749v2.7a107.6,107.6,0,0,1-13.565,8.553,120.188,120.188,0,0,1,19.593-1.473l.035,3.155c-1.787-.14-3.084-.211-4.486-.211a12.02,12.02,0,0,0-6.309,1.4c-2.874,1.507-6.169,4.556-6.169,7.57,0,2.419,1.823,4.627,12.548,4.416l-.386,3.12c-5.187-.1-15.421-.246-15.421-6.905,0-5.4,5.783-8.447,7.6-9.393-9.218,1.262-11.5,1.647-17.419,2.8l-.351-3.155c2.909-.245,3.611-.35,5.608-1.3a87.272,87.272,0,0,0,13.95-8.517l-15,.211-.07-2.979Z" fill="#00532c"/>
      <path id="Path_7549" data-name="Path 7549" d="M1315.3,2232.93c6.414-.1,16.718-.42,16.718-9.5,0-5.432-3.364-6.1-6.2-6.1a123.149,123.149,0,0,0-13.7,1.788l-.385-3.435c2.243-.175,12.127-1.3,14.125-1.3,4.486,0,9.568.947,9.568,8.8,0,12.267-12.688,12.653-19.242,12.828Zm16.648-21.87a54.488,54.488,0,0,0-16.3-2.489l.386-2.944a61.709,61.709,0,0,1,16.754,2.348Z" fill="#00532c"/>
      <path id="Path_7550" data-name="Path 7550" d="M1371.027,2209.2v23.9h-24.921v-3.05H1367.7v-17.8h-21.275V2209.2Z" fill="#00532c"/>
      <path id="Path_7551" data-name="Path 7551" d="M1391,2216.072a41.822,41.822,0,0,0-10.795-5.047l1.577-2.8a43.982,43.982,0,0,1,10.97,4.906Zm-10.059,15.211c17.735-.946,22.957-13.354,25.376-21.205l2.734,2.033c-1.683,4.977-7.291,21.345-27.479,22.677Z" fill="#00532c"/>
      <path id="Path_7552" data-name="Path 7552" d="M1431.584,2219.752a21.8,21.8,0,0,1-1.787,8.412c-2.7,5.5-8.973,6.975-11.952,7.57l-1.332-2.874c7.991-1.4,11.847-4.311,11.847-12.933v-.806h-13.739v-2.944h28.53v2.944h-11.567Zm8.763-12.548v2.944h-22.888V2207.2Z" fill="#00532c"/>
      <path id="Path_7553" data-name="Path 7553" d="M1473.64,2207.835a37.814,37.814,0,0,1-6.694,14.405,137.558,137.558,0,0,1,11.916,10.515l-2.663,2.524a124.723,124.723,0,0,0-11.181-10.655,43.4,43.4,0,0,1-14.195,10.795l-1.893-2.594a36.826,36.826,0,0,0,13.109-9.463,36.064,36.064,0,0,0,7.465-12.548h-18.821v-2.979Z" fill="#00532c"/>
      <path id="Path_7554" data-name="Path 7554" d="M1511.174,2225.6a77.732,77.732,0,0,0-15.457-7.5v17.7h-3.4v-29.967h3.4v8.973a96.078,96.078,0,0,1,17.1,7.535Z" fill="#00532c"/>
      <path id="Path_7555" data-name="Path 7555" d="M1525.506,2206.854a67.33,67.33,0,0,0-1.578,15.877c0,7.816.807,11.181,1.087,12.443l-3.4.28a70.032,70.032,0,0,1-.911-12.232,80.192,80.192,0,0,1,1.472-16.649Zm8.937,15.036a8.457,8.457,0,0,0-1.752,4.732c0,3.189,3.575,3.61,7.325,3.61a75.07,75.07,0,0,0,8.026-.421v3.295c-1.191.1-3.645.315-6.624.315-5.187,0-11.671-.491-11.671-6.519a11.734,11.734,0,0,1,1.857-5.888Zm12.863-12.478v3.085h-16.473v-3.085Z" fill="#00532c"/>
    </g>
    <g id="Group_1948" data-name="Group 1948">
      <rect id="Rectangle_417" data-name="Rectangle 417" width="591.797" height="214.453" transform="translate(79.102 1493.112)" fill="#fcee21"/>
      <g id="Group_1779" data-name="Group 1779" transform="translate(-928 -2.608)">
        <path id="Path_7556" data-name="Path 7556" d="M1093.1,1547.492v45.166c0,4.994-2.5,6.022-7.124,6.022-3.892,0-7.711-.22-11.6-.514l-.808-5.728a86.259,86.259,0,0,0,11.6,1.028c1.836,0,2.57-1.028,2.57-2.864v-38.336h-18.948a66.941,66.941,0,0,1-1.028,8.592,149.793,149.793,0,0,1,18.36,17.038l-4.186,4.187a153.3,153.3,0,0,0-15.422-16.231c-2.865,8.813-8.813,15.129-16.965,19.462l-3.3-4.553c12.558-5.949,16.377-15.423,17.185-28.495H1045.22v47.3h-5.361v-52.07h23.721v-11.236h5.361v11.236Z" fill="#00532c" stroke="#00532c" stroke-miterlimit="10" stroke-width="0.978"/>
        <path id="Path_7557" data-name="Path 7557" d="M1122.627,1600a32.33,32.33,0,0,1-5.362-.367l-.881-4.994a28.46,28.46,0,0,0,4.921.441,1.537,1.537,0,0,0,1.689-1.763v-17.258h-6.977c-.147,8.078-1.175,17.772-4.921,25.116l-3.6-3.966c4.112-8,4.186-16.083,4.186-24.9v-34.15h15.643v57.064C1127.327,1598.386,1125.858,1600,1122.627,1600Zm-6.61-57.283v12.044h6.977v-12.044Zm0,16.377v12.558h6.977V1559.1Zm55.007,1.028h-10.869a153.811,153.811,0,0,0,1.1,17.479,81.893,81.893,0,0,0,4.113-13.66l4.186,2.276a106.83,106.83,0,0,1-6.757,18.434,26.522,26.522,0,0,0,2.277,5.8c0,.073,0,.147.074.147.293.44,1.248,2.276,1.542,2.276.073,0,.22-.44.293-.587.662-1.763.735-6.61.955-9.033l.074-.735,3.966,3.819c-.147,2.057-.661,12.926-4.113,12.926-1.542,0-3.378-1.983-4.26-3.011a23,23,0,0,1-3.672-6.683,76.9,76.9,0,0,1-9.106,11.31l-2.938-3.379c1.689-1.616,3.231-3.231,4.774-4.994h-11.237v3.966h-4.039v-31.946h17.479v3.745h-5.728v4.553h5.508v11.31h-5.508v4.627h6.315c.661-1.175,2.277-3.6,2.791-4.7-1.836-7.418-2.277-16.157-2.423-23.8h-20.564v12.7c0,9.4-.073,19.462-4.406,28.2l-3.525-4.259c3.157-6.022,3.451-17.185,3.451-23.942v-16.818h24.97v-4.039H1153.1v-6.243h-8.813V1553h-4.7v-7.124h-10.135v-4.406h10.135v-7.05h4.7v7.05h8.813v-7.05h4.7v7.05h13.219v4.406h-13.219v4.26h2.129l.147,5.875h10.943Zm-25.484,8.152h-4.113v4.553h4.113Zm5.361,8.005h-9.474v4.406h9.474Zm-5.361,7.858h-4.113v4.627h4.113Zm15.936-35.619,3.452-1.762a30.382,30.382,0,0,1,4.039,6.462l-3.671,2.13h-.147A37.8,37.8,0,0,0,1161.476,1548.52Z" fill="#00532c" stroke="#00532c" stroke-miterlimit="10" stroke-width="0.978"/>
        <path id="Path_7558" data-name="Path 7558" d="M1199.666,1599.929a41.038,41.038,0,0,1-6.1-.441l-.66-5.214a24.3,24.3,0,0,0,5.507.587,1.731,1.731,0,0,0,1.91-1.983v-16.817h-9.768c-.147,8.005-1.1,17.919-4.773,25.263l-4.113-4.039c3.6-7.271,4.333-16.965,4.333-24.97v-34.076h18.948v56.329C1204.954,1598.68,1203.852,1599.929,1199.666,1599.929Zm-9.107-57.21v12.044h9.768v-12.044Zm0,16.45v12.485h9.768v-12.485Zm45.9-18.58,4.113,4.112a102.269,102.269,0,0,1-24.823,6.1l-.734.073v3.819c0,1.176,0,2.5,1.175,3.158.734.588,8.813.514,9.988.514,1.909,0,11.089.074,12.264-1.983.735-1.4.808-5.287.808-6.9l4.994,1.322c-.073,2.5-.367,8.446-2.2,10.355-2.13,2.13-12.7,2.13-15.5,2.13-2.276,0-12.779,0-14.541-1.249-1.689-1.175-1.983-3.011-1.983-4.847v-21.591h4.994v11.163A93.839,93.839,0,0,0,1236.459,1540.589Zm-21.077,56.622v3.3h-4.847v-32.607h29.89v32.607h-4.847v-3.3Zm0-24.9v7.932h20.2v-7.932Zm0,12.191v8.3h20.2v-8.3Z" fill="#00532c" stroke="#00532c" stroke-miterlimit="10" stroke-width="0.978"/>
        <path id="Path_7559" data-name="Path 7559" d="M1273.107,1599.929a41.038,41.038,0,0,1-6.1-.441l-.661-5.214a23.461,23.461,0,0,0,5.508.587,1.731,1.731,0,0,0,1.91-1.983v-16.817H1264c-.147,7.931-1.1,17.919-4.847,25.263l-4.039-4.039c3.6-7.271,4.333-16.965,4.333-24.97v-34H1278.4v56.256C1278.4,1598.68,1277.293,1599.929,1273.107,1599.929ZM1264,1542.792v12.044h9.768v-12.044Zm0,16.377v12.485h9.768v-12.485Zm31.947,3.379h17.846c-.22,7.931-.294,15.789-1.1,23.647l-.147,1.4a37.83,37.83,0,0,1-1.028,6.536c-1.175,3.819-3.819,4.92-7.711,4.92a58.09,58.09,0,0,1-8.078-.587l-.662-5.361a37.529,37.529,0,0,0,7.932.881c2.424,0,3.378-1.248,3.892-3.525a52.527,52.527,0,0,0,.808-5.949l.147-1.322c.588-5.288.661-10.575.881-15.936h-13c-.735,11.75-4.113,25.116-13.293,33.268l-3.525-4.112a30.946,30.946,0,0,0,9.914-16.231c2.13-8.152,2.277-17.625,2.277-26v-2.35h-11.237v-4.773h14.762v-11.531h5.141v11.531h17.7v4.773H1296.02C1296.02,1555.424,1296.02,1558.949,1295.947,1562.548Z" fill="#00532c" stroke="#00532c" stroke-miterlimit="10" stroke-width="0.978"/>
        <path id="Path_7560" data-name="Path 7560" d="M1328.849,1557.994l3.157-4.039a67.245,67.245,0,0,1,10.135,9.768l-3.3,4.406h-.073A61.664,61.664,0,0,0,1328.849,1557.994Zm9.473,15.129,4.26,3.452a135.1,135.1,0,0,1-8.96,23.941l-4.333-3.965h-.073A110.663,110.663,0,0,0,1338.322,1573.123Zm-6.609-32.461,3.3-3.892a63.729,63.729,0,0,1,10.061,9.841l-3.378,4.333h-.147A68.573,68.573,0,0,0,1331.713,1540.662Zm42.816,41.2c-2.424-9.18-3.305-20.636-3.746-30.037h-18.8v14.1c0,11.677,0,24.676-6.315,35.1l-3.893-3.892c4.7-7.785,5.361-20.637,5.361-29.523v-20.123h23.5c-.22-4.259-.367-8.739-.44-13h4.92c.073,4.26.147,8.446.294,12.632h14.468v4.406H1375.63a216.546,216.546,0,0,0,2.277,23.942,88.7,88.7,0,0,0,5.8-17.479l4.627,2.13a113.847,113.847,0,0,1-8.592,22.1c.514,1.69,3.378,9.4,4.7,9.4,1.1,0,2.423-8.225,2.717-10.429v-.44l4.554,3.819c-.441,2.276-2.718,14.835-6.243,14.835-3.745,0-7.931-8.887-9.106-11.824a64.239,64.239,0,0,1-12.706,13.293l-3.6-3.893A51.7,51.7,0,0,0,1374.529,1581.862Zm-20.711-24.015H1369.9v4.26h-16.084Zm.882,31.727v-22.106h14.761v17.552h-10.5v4.554Zm4.259-18.14v9.62h6.169v-9.62Zm19.388-33.636,4.186-2.2a53.734,53.734,0,0,1,5.949,8.005l-4.259,2.644h-.147A58.727,58.727,0,0,0,1378.347,1537.8Z" fill="#00532c" stroke="#00532c" stroke-miterlimit="10" stroke-width="0.978"/>
        <path id="Path_7561" data-name="Path 7561" d="M1414.481,1573.417c6.022-3.232,11.823-4.921,17.185-4.774,8.372.22,14.981,2.2,17.111,8.886,2.13,6.83-1.468,13.881-8.739,17.039-7.638,3.158-15.276,2.937-22.473,1.248l.22-4.847c6.316,1.4,13.22,1.616,19.976-1.175,3.893-1.616,7.124-5.8,5.582-10.5-1.542-5.067-8.446-5.508-12.191-5.435-5.361.147-10.5.808-19.242,5.949l-5.214-2.2.073-.147a43.827,43.827,0,0,0,4.333-13.88,87.434,87.434,0,0,0,.735-13.881h5.655C1417.492,1560.785,1416.61,1566.807,1414.481,1573.417Zm13-26.806c-5.434-.808-10.208-3.085-14.687-5.214l2.57-4.921c4.48,2.2,8.446,4.113,12.852,4.921,3.525.587,6.756.661,13.733.661v5.214C1434.9,1547.272,1431.152,1547.2,1427.479,1546.611Z" fill="#00532c" stroke="#00532c" stroke-miterlimit="10" stroke-width="0.978"/>
        <path id="Path_7562" data-name="Path 7562" d="M1479.329,1583.258c-.514,6.9,4.333,9.841,11.163,9.841a54.334,54.334,0,0,0,6.536-.514v5.067a57.983,57.983,0,0,1-6.536.588c-10.062,0-17.259-4.994-16.524-15.349.44-6.39,5.875-12.118,11.6-17.479h-27.1v-4.407h12.558l16.965-16.6h-19.462v-4.627h28.2v3.378l-18.36,17.846H1506.8v4.407h-14.1C1485.424,1572.168,1479.769,1577.529,1479.329,1583.258Z" fill="#00532c" stroke="#00532c" stroke-miterlimit="10" stroke-width="0.978"/>
        <path id="Path_7563" data-name="Path 7563" d="M1532.647,1594.861c3.6-3.158,6.83-6.169,10.061-9.474,4.847-4.773,10.135-10.5,9.621-18.433-.367-5.361-3.672-8.3-9.474-8.3h-23.207v-5.214h23.207c8.152,0,13.513,4.112,14.835,11.016a22.973,22.973,0,0,1,.367,5.949c-.881,9.62-5.948,13.806-21.224,28.2Zm-5.949-55.888,3.452-4.406c7.638,4.7,10.943,5.655,20.563,5.655v5.581C1539.183,1545.8,1534.85,1544.334,1526.7,1538.973Z" fill="#00532c" stroke="#00532c" stroke-miterlimit="10" stroke-width="0.978"/>
        <path id="Path_7564" data-name="Path 7564" d="M1134.964,1668.093h34.958v-33.122h-34.958v-5.435h40.76v43.844h-40.76Z" fill="#00532c" stroke="#00532c" stroke-miterlimit="10" stroke-width="0.978"/>
        <path id="Path_7565" data-name="Path 7565" d="M1228.6,1626.893v5.581h-20.417v-5.581Zm-18.434,49.278v-5.434c22.767,0,27.1-8.079,40.025-31.873l5.214,2.864C1242.775,1665.155,1237.121,1676.171,1210.168,1676.171Z" fill="#00532c" stroke="#00532c" stroke-miterlimit="10" stroke-width="0.978"/>
        <path id="Path_7566" data-name="Path 7566" d="M1292.789,1678.888l-4.186-3.671c12.117-13.293,12.852-18.728,13-30.992h-24.676v-5.508h51.481v5.508H1307.33C1307.183,1657.591,1306.3,1664.274,1292.789,1678.888Zm-8-51.041v-5.508h35.692v5.508Z" fill="#00532c" stroke="#00532c" stroke-miterlimit="10" stroke-width="0.978"/>
        <path id="Path_7567" data-name="Path 7567" d="M1387.454,1630.2H1358.3v-5.288h35.031v5.581c0,8.813-2.864,15.5-9.914,23.428a199.166,199.166,0,0,1,18.213,19.829l-4.553,3.525a193.562,193.562,0,0,0-17.773-19.315c-5.141,4.994-11.824,10.649-22.693,18.727l-3.525-4.553C1382.827,1649.879,1387.454,1642.462,1387.454,1630.2Z" fill="#00532c" stroke="#00532c" stroke-miterlimit="10" stroke-width="0.978"/>
        <path id="Path_7568" data-name="Path 7568" d="M1471.1,1655.681l-3.231,4.774a211.147,211.147,0,0,0-24.236-14.909v32.9h-5.654v-60.074h5.654v21.591A235.165,235.165,0,0,1,1471.1,1655.681Z" fill="#00532c" stroke="#00532c" stroke-miterlimit="10" stroke-width="0.978"/>
      </g>
    </g>
    <g id="Group_1783" data-name="Group 1783" transform="translate(-928 -2.608)">
      <g id="Group_1781" data-name="Group 1781">
        <g id="Group_1780" data-name="Group 1780">
          <path id="Path_7569" data-name="Path 7569" d="M1158.12,2085.8a22.036,22.036,0,0,1-3.57-6.09c-.84,3.93-2.04,7.23-5.61,10.379l-1.5-2.159c2.969-2.67,4.5-5.52,5.189-11.22h-4.8v-2.25h4.98c.03-.69.06-1.38.06-2.94v-2.22H1148.4v-2.339h4.469v-4.5h2.4v4.5h4.11v2.339h-4.11v2.19c0,.87,0,1.95-.06,2.97h4.62v2.25h-4.35a18.55,18.55,0,0,0,4.53,7.41Zm16.229-5.43h-3.839v6.75c0,.27,0,.75.81.75h.749a.781.781,0,0,0,.9-.69,19.059,19.059,0,0,0,.33-3.15l2.25.51c-.24,5.13-.93,5.61-2.46,5.61h-2.909c-1.41,0-2.04-.571-2.04-2.011v-7.769h-2.16c-.81,5.55-3.87,8.34-8.13,9.9l-1.44-2.19c6.12-1.95,7.02-5.58,7.32-7.71h-2.88v-16.979h13.5Zm-2.37-14.849h-8.789v2.909h8.789Zm0,4.889h-8.789v2.85h8.789Zm0,4.83h-8.789v3h8.789Z" fill="#eb5a24"/>
          <path id="Path_7570" data-name="Path 7570" d="M1190.25,2066.3a66.647,66.647,0,0,1-5.76,8.82c2.28-.09,3.36-.24,4.23-.33a16.913,16.913,0,0,0-.96-2.16l1.92-.75a34.158,34.158,0,0,1,2.46,5.67l-2.19.81c-.12-.45-.21-.72-.51-1.68-1.68.24-2.28.3-2.7.33v13.26h-2.4v-13.02c-2.94.21-3.689.27-4.919.33l-.12-2.31c.84,0,1.019,0,2.579-.03.93-1.23,1.32-1.77,1.65-2.31a27.109,27.109,0,0,0-4.349-4.14l1.259-1.829c.27.21.48.389.99.779a35.737,35.737,0,0,0,2.91-5.459l2.19.84a40.147,40.147,0,0,1-3.48,6.059c.12.15.9.93,1.74,1.89a63.913,63.913,0,0,0,3.39-5.759Zm-11.039,21.09a23.412,23.412,0,0,0,1.469-7.95l2.16.36a35.422,35.422,0,0,1-1.44,8.43Zm10.109-.75a46.878,46.878,0,0,0-1.26-6.9l1.98-.42a39.962,39.962,0,0,1,1.5,6.9Zm1.47-14.58a20.777,20.777,0,0,0,4.56-9.749l2.49.27a32.491,32.491,0,0,1-1.2,4.17h9.48c0,3.839-.03,18.629-1.11,21.358a3.406,3.406,0,0,1-3.54,2.161h-4.77l-.48-2.641,4.77.031c.72,0,1.53-.031,1.86-1.23.84-3.12.81-16.56.81-17.43h-7.92a19.286,19.286,0,0,1-3.15,4.92Zm6.81,9.78a37.631,37.631,0,0,0-3.45-7.29l2.13-1.02a29.886,29.886,0,0,1,3.57,7.23Z" fill="#eb5a24"/>
          <path id="Path_7571" data-name="Path 7571" d="M1227.78,2076.346a3.09,3.09,0,1,1-3.09-3.09A3.1,3.1,0,0,1,1227.78,2076.346Z" fill="#eb5a24"/>
          <path id="Path_7572" data-name="Path 7572" d="M1249.77,2079.106a20.2,20.2,0,0,1-1.83-3.84v15h-2.309v-13.5a22.92,22.92,0,0,1-2.61,6.78l-1.11-2.85a27.475,27.475,0,0,0,3.6-10.2h-3.149v-2.22h3.27v-5.789h2.309v5.789h2.07v2.22h-2.07v.81a19.324,19.324,0,0,0,3.03,5.76Zm10.14-2.16v-2.25h1.11v-8.909h-.96v-2.25h9.809v2.25h-1.5a54.705,54.705,0,0,1-1.26,8.909h3.029v2.25h-3.629c-.06.15-.06.27-.12.45h.33v9.93c0,.33.03.66.48.66h.54c.36,0,.479-.21.57-.51a35.007,35.007,0,0,0,.24-3.72l2.01.51c-.24,4.56-.361,5.94-2.49,5.94h-1.77c-1.35,0-1.8-.871-1.8-2.1v-6.089a23.6,23.6,0,0,1-7.86,8.339l-1.47-1.919a15.982,15.982,0,0,0,3.06-2.13,16.825,16.825,0,0,0-.78-2.04,48.88,48.88,0,0,1-7.8,3.78l-.66-2.19c.84-.3,1.23-.42,2.01-.75v-21.569h7.92v13.5h-5.67v7.11a25.471,25.471,0,0,0,3.39-1.62,22.429,22.429,0,0,0-1.77-3.03l1.86-1.05a31.59,31.59,0,0,1,3.27,6.09,20.075,20.075,0,0,0,4.26-7.59Zm-3.21-11.4h-3.45v3.75h3.45Zm0,5.67h-3.45V2075h3.45Zm8.19,3.48a35.448,35.448,0,0,0,1.23-8.909h-2.97v8.909Z" fill="#eb5a24"/>
          <path id="Path_7573" data-name="Path 7573" d="M1301.58,2078.326v2.22h-5.73a13.071,13.071,0,0,1-3.36,4.83c3.84,1.14,6.66,2.22,8.07,2.759l-1.77,2.16a54.848,54.848,0,0,0-8.52-3.239c-2.91,1.77-9.03,2.819-15,3.059l-.84-2.339a39.894,39.894,0,0,0,12.6-1.65,64.082,64.082,0,0,0-10.11-1.98,40.385,40.385,0,0,0,3.48-3.6h-6.6v-2.22h8.369a21.306,21.306,0,0,0,1.68-2.61h-8.429v-7.89h7.289v-2.309H1273.8v-2.13h27.779v2.13h-9.27v2.309h7.649v7.89H1286.67a29.368,29.368,0,0,1-1.65,2.61Zm-23.789-8.49v3.9h4.919v-3.9Zm5.579,10.71c-1.14,1.41-1.32,1.62-1.92,2.34,2.04.36,4.92.84,8.34,1.77a9.2,9.2,0,0,0,3.3-4.11Zm1.62-15.029v2.309h5.04v-2.309Zm0,4.319v3.9h5.04v-3.9Zm7.32,0v3.9h5.28v-3.9Z" fill="#eb5a24"/>
          <path id="Path_7574" data-name="Path 7574" d="M1311.15,2064.017a67.146,67.146,0,0,0-1.29,13.769,47.069,47.069,0,0,0,.93,10.47l-2.7.359a56.68,56.68,0,0,1-.841-11.039,78.466,78.466,0,0,1,1.111-13.769Zm20.25,4.919v2.58h-5.61l.09,7.92a22.188,22.188,0,0,1,6.029,4.38l-1.769,2.43a16.331,16.331,0,0,0-4.35-3.9v1.11c0,1.71-.03,5.1-5.76,5.1-4.68,0-6.42-2.73-6.42-5.16,0-3.12,2.76-5.25,6.57-5.25a9.621,9.621,0,0,1,3.09.45l-.12-7.08h-9.06v-2.58h9l-.09-5.069h2.73l.06,5.069Zm-8.13,12.12a6.813,6.813,0,0,0-3.06-.66c-2.01,0-4.2.78-4.2,3.03,0,2.31,2.28,2.88,3.87,2.88,3.27,0,3.39-1.77,3.39-3.39Z" fill="#eb5a24"/>
          <path id="Path_7575" data-name="Path 7575" d="M1343.88,2077.4a6.537,6.537,0,0,0-1.47,3.9,3.792,3.792,0,0,0,1.95,3.33c1.47.84,3.03,1.14,6.66,1.14a89.128,89.128,0,0,0,10.89-.6l.12,2.82c-1.83.149-5.34.42-9.99.42-5.43,0-7.53-.54-9.33-1.56a6.08,6.08,0,0,1-3-5.4,8.98,8.98,0,0,1,1.98-5.4Zm16.29-9.42a27.152,27.152,0,0,0-9.93,3.72l-1.92-1.65a25.255,25.255,0,0,1,4.77-2.129c-1.2,0-11.4.209-11.85.239v-2.729c5.37.03,16.59.03,18.93,0Z" fill="#eb5a24"/>
          <path id="Path_7576" data-name="Path 7576" d="M1394.429,2067.046v2.52H1378.92a29.251,29.251,0,0,1-1.32,5.82,14.714,14.714,0,0,1,7.8-2.19c6.72,0,8.13,4.5,8.13,7.26,0,8.159-9.18,8.28-14.61,8.28-1.92,0-2.91-.06-3.9-.121l-.57-2.639c1.05.09,2.76.24,5.19.24,5.7,0,10.98-.6,10.98-5.67,0-3.69-2.52-4.92-5.64-4.92a11.437,11.437,0,0,0-8.19,3.27c-.12.24-.51,1.05-.6,1.23l-2.76-.81a35.814,35.814,0,0,0,2.73-9.75h-6.629v-2.52h6.959c.12-1.68.15-2.279.15-3.449l2.97.059c-.12,1.141-.15,1.651-.36,3.39Z" fill="#eb5a24"/>
          <path id="Path_7577" data-name="Path 7577" d="M1407.45,2068.187c-.69,2.279-.93,4.019-.93,8.429a16.056,16.056,0,0,1,10.32-3.69c6.96,0,8.25,4.47,8.25,6.96,0,7.2-6.93,8.82-13.35,8.82a36.789,36.789,0,0,1-5.76-.42l-.3-2.64a32.149,32.149,0,0,0,5.85.54c4.14,0,7.74-.81,9.54-2.79a5.31,5.31,0,0,0,1.17-3.54c0-2.34-1.59-4.5-5.55-4.5-4.02,0-8.04,1.71-10.02,4.32-.09.3-.12.39-.15.54l-2.67-.09c0-1.02.09-5.52.12-6.42a28.132,28.132,0,0,1,.78-6Zm12.99-.031a37.006,37.006,0,0,0-12.03-2.159l.48-2.58a48.113,48.113,0,0,1,12.3,1.89Z" fill="#eb5a24"/>
        </g>
      </g>
      <g id="Group_1782" data-name="Group 1782">
        <path id="Path_7578" data-name="Path 7578" d="M1442.121,2075.662a15.818,15.818,0,1,1,15.815,15.506A15.681,15.681,0,0,1,1442.121,2075.662Z" fill="none" stroke="#eb5a24" stroke-miterlimit="10" stroke-width="0.914"/>
        <path id="Path_7579" data-name="Path 7579" d="M1457.936,2084.792l7.625-13.207h-15.25Z" fill="#eb5a24"/>
      </g>
    </g>
    <g id="Group_1787" data-name="Group 1787" transform="translate(-928 -2.608)">
      <g id="Group_1784" data-name="Group 1784">
        <path id="Path_7580" data-name="Path 7580" d="M1142.657,1870.4a1.854,1.854,0,1,1-1.855-1.854A1.865,1.865,0,0,1,1142.657,1870.4Z" fill="#00532c"/>
        <path id="Path_7581" data-name="Path 7581" d="M1151.457,1862.495v14.584c0,.54,0,1.693-1.35,1.693h-1.836l-.253-1.531h1.531c.468,0,.612-.108.612-.738v-3.745h-2.2c-.2,3.907-.864,5.366-1.134,5.96l-1.116-1.135c.378-.99.99-2.611.99-7.364v-7.724Zm-1.3,1.3h-2.143v3.169h2.143Zm0,4.429h-2.143v3.3h2.143Zm12.064,10.552a13.043,13.043,0,0,1-4.97-1.675,16.636,16.636,0,0,1-4.861,1.729l-.613-1.279a13.739,13.739,0,0,0,4.2-1.278,8.6,8.6,0,0,1-1.819-1.765,10.39,10.39,0,0,1-1.782,1.315l-.775-1.243a7.84,7.84,0,0,0,3.4-3.187h-1.854V1865.5a11.656,11.656,0,0,1-.882.774l-.738-1.171a8.216,8.216,0,0,0,2.592-3.168l1.441.2a6.36,6.36,0,0,1-.505.99h7.563v1.242h-8.445a12.194,12.194,0,0,1-.954,1.063h8.391v5.959H1156.5a7.023,7.023,0,0,1-.63,1.135h5.419v1.116a10.748,10.748,0,0,1-2.773,2.683,14.972,14.972,0,0,0,4.268,1.116Zm-1.981-12.3H1154.5v1.35h5.744Zm0,2.377H1154.5v1.476h5.744Zm-5.294,4.843a8.247,8.247,0,0,0,2.215,1.945,7.1,7.1,0,0,0,2.4-2H1155Z" fill="#00532c"/>
        <path id="Path_7582" data-name="Path 7582" d="M1179.937,1862.675v15.682h-15.305v-15.682Zm-13.847,1.3v13.072h12.388v-13.072Zm3.151.883h1.387v2.07h3.421v-2.07h1.35v2.07h2.179v1.261H1175.4v2.862h2.413v1.279H1175.4v3.871h-1.35v-3.871h-3.763a8.662,8.662,0,0,1-2.305,3.871l-1.242-1.009a5.716,5.716,0,0,0,2.106-2.862h-2.106v-1.279h2.394a13.728,13.728,0,0,0,.108-1.512v-1.35h-2.232v-1.261h2.232Zm1.387,4.573a10.808,10.808,0,0,1-.108,1.62h3.529v-2.862h-3.421Z" fill="#00532c"/>
        <path id="Path_7583" data-name="Path 7583" d="M1196.568,1864.439v1.441h-7.94a14.985,14.985,0,0,1-1.189,2.593,5.369,5.369,0,0,1,2.881-1.063,2.456,2.456,0,0,1,2.737,2.107c.414-.162,2.881-1.152,4.5-1.711l.432,1.567c-1.458.414-2.736.81-4.717,1.566.054.631.072,1.405.072,2.053,0,.252,0,.792-.054,1.368h-1.566c.036-.414.09-1.08.09-1.728,0-.306,0-.612-.036-1.08-1.387.648-3.565,1.8-3.565,3.276,0,1.585,2,1.585,3.979,1.585a44.374,44.374,0,0,0,4.753-.252l.054,1.548c-1.026.072-2.593.18-4.3.18-2.035,0-6.1,0-6.1-2.9,0-2.448,3.223-4.069,5.006-4.861-.2-1.062-.7-1.422-1.531-1.422a5.366,5.366,0,0,0-3.565,1.836c-.828,1.134-2.016,2.719-2.593,3.313l-1.116-1.206a15.619,15.619,0,0,0,4.177-6.77h-3.709v-1.441h4.141a12.855,12.855,0,0,0,.378-2.016l1.729.072a16.539,16.539,0,0,1-.45,1.944Z" fill="#00532c"/>
        <path id="Path_7584" data-name="Path 7584" d="M1202.957,1878.7v-16.871h4.9v1.44H1204.4V1878.7Z" fill="#00532c"/>
        <path id="Path_7585" data-name="Path 7585" d="M1222.848,1866.1v1.386h-8.625c-.306,1.135-.36,1.333-.558,1.963h9.129c0,.09-.2,3.1-.216,3.421h3.025v1.422h-3.115c-.288,2.881-.648,3.493-1.225,3.925a3.227,3.227,0,0,1-1.6.469h-3.745l-.306-1.567,3.583.054c1.368.018,1.476-.81,1.71-2.881H1209v-1.422h12.045c.09-1.17.109-1.477.126-2.053h-9.7a36.61,36.61,0,0,0,1.98-6.716H1211v2.737h-1.512v-4.141h15.647v4.141H1223.6V1864.1H1215c-.109.54-.324,1.549-.433,2Z" fill="#00532c"/>
        <path id="Path_7586" data-name="Path 7586" d="M1243.585,1875.585h-16.6v-1.3h16.6Zm-16.547,1.854a13.13,13.13,0,0,0,4.933-1.818l1.135.918a13.752,13.752,0,0,1-5.33,2.269Zm16.475-12.874h-7.491v1.081h5.69v7.67h-12.856v-7.67h5.708v-1.081h-7.508v-1.314h7.508v-1.206h1.458v1.206h7.491Zm-3.259,2.179h-9.921v1.134h9.921Zm0,2.125h-9.921v1.152h9.921Zm0,2.124h-9.921v1.225h9.921Zm-1.693,4.61a12.688,12.688,0,0,0,5.006,1.818l-.721,1.405a15.1,15.1,0,0,1-5.473-2.269Z" fill="#00532c"/>
        <path id="Path_7587" data-name="Path 7587" d="M1260.7,1865.358c-.774-.054-1.332-.072-1.836-.072a5.066,5.066,0,0,0-1.819.216c-2.592.864-6.121,3.655-6.121,6.752,0,2.34,1.728,3.079,3.637,3.475a21.544,21.544,0,0,0,4.537.324l-.324,1.746c-3.547-.144-9.525-.4-9.525-5.437,0-3.421,3.151-5.78,5.276-7.022-.523.018-6.752.4-8.715.63l-.144-1.765c.882-.018,4-.162,4.915-.216,4.268-.234,5.96-.27,10.084-.288Zm-3.727,2.16a15.972,15.972,0,0,1,1.981,3.4l-1.26.793a15.344,15.344,0,0,0-1.891-3.475Zm2.665-1.152a15.677,15.677,0,0,1,1.981,3.4l-1.261.792a16.146,16.146,0,0,0-1.89-3.475Z" fill="#00532c"/>
        <path id="Path_7588" data-name="Path 7588" d="M1272.887,1868.563h5.852v1.494h-5.87c-.234,5.384-3.619,7-7.437,7.9l-.72-1.458c5.294-1.08,6.392-3.151,6.554-6.446h-7.382v-1.494h7.382v-2.953a49.559,49.559,0,0,1-6.338.468l-.306-1.477a36.492,36.492,0,0,0,11.9-1.8l.846,1.458a39.8,39.8,0,0,1-4.483,1.1Z" fill="#00532c"/>
        <path id="Path_7589" data-name="Path 7589" d="M1290,1875.657h5.42v1.4H1283.2v-1.4h5.294V1868.6h-4.555v-1.441h10.731v1.441H1290Z" fill="#00532c"/>
        <path id="Path_7590" data-name="Path 7590" d="M1302.873,1872.038a15.722,15.722,0,0,0-1.441-4.394l1.351-.378a18.47,18.47,0,0,1,1.53,4.411Zm-.108,4.843c5.581-1.152,8.1-3.6,9.129-10.065l1.566.324c-1.188,6.158-3.493,9.489-9.687,10.965Zm4.051-5.672a19.549,19.549,0,0,0-1.188-4.3l1.332-.306a24.649,24.649,0,0,1,1.3,4.267Z" fill="#00532c"/>
        <path id="Path_7591" data-name="Path 7591" d="M1319.036,1876.5c3.62-.792,9.8-2.881,11-11.326h-6.392a15.609,15.609,0,0,1-4.718,4.916l-1.026-1.224a13.486,13.486,0,0,0,4.663-5.186h9.363c-.792,9.129-5.887,12.928-12.208,14.35Z" fill="#00532c"/>
        <path id="Path_7592" data-name="Path 7592" d="M1350.846,1864.637v1.495h-4.717v3.619a9.277,9.277,0,0,1,.234,1.188,8.828,8.828,0,0,1,.108,1.387c0,4.753-4.213,5.617-7.346,5.743l-.5-1.512c4.807.054,6.14-1.6,6.374-3.745a2.837,2.837,0,0,1-2.845,1.728,3.321,3.321,0,0,1-3.349-3.529,3.536,3.536,0,0,1,3.727-3.655,2.6,2.6,0,0,1,2.017.72l-.018-1.944h-8.877v-1.495h8.859l-.036-2.016h1.656v2.016Zm-6.265,5.708a1.858,1.858,0,0,0-2.017-1.638,2.125,2.125,0,0,0-2.251,2.232,2.137,2.137,0,1,0,4.268.2Z" fill="#00532c"/>
        <path id="Path_7593" data-name="Path 7593" d="M1365.3,1864.529c-.4.288-.955.739-1.405,1.1-2.305,1.854-2.557,2.052-3.745,2.989a9.589,9.589,0,0,1,3.223-.613c2.647,0,4.771,1.459,4.771,4.52,0,3.529-3.025,5.347-6.392,5.347-2.863,0-4.645-1.278-4.645-2.988a2.767,2.767,0,0,1,3.043-2.539,4.4,4.4,0,0,1,4.3,3.529,3.471,3.471,0,0,0,2.089-3.313c0-.955-.288-3.205-3.745-3.205-3.187,0-5.528,1.782-7.995,4.123l-.936-1.35c1.386-1.081,5.51-4.394,8.9-7.437-3.061.216-4.124.253-7.058.307v-1.549c3.817,0,5.293-.018,9.6-.27Zm-5.2,9.129c-1.1,0-1.566.7-1.566,1.188,0,.883,1.152,1.747,3.168,1.747a5.255,5.255,0,0,0,1.405-.162C1362.707,1874.72,1361.662,1873.658,1360.1,1873.658Z" fill="#00532c"/>
        <path id="Path_7594" data-name="Path 7594" d="M1375.647,1862.1v16.871h-4.9v-1.441h3.457V1862.1Z" fill="#00532c"/>
        <path id="Path_7595" data-name="Path 7595" d="M1394.568,1864.439v1.441h-7.94a14.985,14.985,0,0,1-1.189,2.593,5.369,5.369,0,0,1,2.881-1.063,2.456,2.456,0,0,1,2.737,2.107c.414-.162,2.881-1.152,4.5-1.711l.432,1.567c-1.458.414-2.736.81-4.717,1.566.054.631.072,1.405.072,2.053,0,.252,0,.792-.054,1.368h-1.566c.036-.414.09-1.08.09-1.728,0-.306,0-.612-.036-1.08-1.387.648-3.565,1.8-3.565,3.276,0,1.585,2,1.585,3.979,1.585a44.374,44.374,0,0,0,4.753-.252l.054,1.548c-1.026.072-2.593.18-4.3.18-2.035,0-6.1,0-6.1-2.9,0-2.448,3.223-4.069,5.006-4.861-.2-1.062-.7-1.422-1.531-1.422a5.366,5.366,0,0,0-3.565,1.836c-.828,1.134-2.016,2.719-2.593,3.313l-1.116-1.206a15.619,15.619,0,0,0,4.177-6.77h-3.709v-1.441h4.141a12.855,12.855,0,0,0,.378-2.016l1.729.072a16.539,16.539,0,0,1-.45,1.944Z" fill="#00532c"/>
        <path id="Path_7596" data-name="Path 7596" d="M1401.477,1869.031v5.167c.324,1.693,1.44,2.755,4.807,2.755h8.553l-.306,1.387h-8.625c-.864,0-3.619-.109-4.825-2.071a13.509,13.509,0,0,1-2.539,2.521l-.792-1.495a10.936,10.936,0,0,0,2.25-1.854v-4.97h-2.016v-1.44Zm-.576-2.827a22.058,22.058,0,0,0-2.665-2.989l1.116-.936a17.64,17.64,0,0,1,2.7,2.971Zm6.536-3.745v3.115h-3.656v1.008c0,.288.037.378.361.378h2.052c.432,0,.45-.09.594-.972l1.261.2c-.162,1.476-.414,1.872-1.261,1.872h-3.079c-.45,0-1.224-.089-1.224-1.1v-2.413h3.673v-.99h-4v-1.1Zm6.734,8.264h-2.791v1.6h3.223v1.206h-12.316v-1.206h3.061v-1.6h-2.629v-1.188h2.629v-1.008h1.4v1.008h3.223v-1.008h1.405v1.008h2.791Zm-11.308,4.448a13.874,13.874,0,0,0,3.259-1.423l1.08.792a14.1,14.1,0,0,1-3.457,1.783Zm7.112-4.448h-3.223v1.6h3.223Zm3.709-5.149H1409.8v1.026c0,.36.2.36.414.36h2.377c.486,0,.5-.162.594-1.008l1.315.216c-.108,1.062-.2,1.89-1.261,1.89h-3.349c-.45,0-1.35-.036-1.35-1.08v-2.431h3.835v-.99h-4.033v-1.1h5.347Zm-2.97,8.138a12.817,12.817,0,0,0,3.745,1.6l-.757,1.17a12.367,12.367,0,0,1-3.979-1.891Z" fill="#00532c"/>
        <path id="Path_7597" data-name="Path 7597" d="M1422.214,1871.191c-.469.2-.739.324-2.2.883v5.275c0,.5-.018,1.423-1.476,1.423h-2.089l-.27-1.477,1.818.036c.505.018.559-.054.559-.45v-4.267c-1.477.522-2.017.684-2.521.846l-.27-1.494c.684-.18,1.422-.361,2.791-.829v-4.483h-2.683v-1.314h2.683v-3.277h1.458v3.277h2.089v1.314h-2.089v3.961c1.044-.378,1.548-.594,2.089-.81Zm9.849-1.224h-3.475a10.015,10.015,0,0,0,4.339,7.49l-.937,1.3a12.043,12.043,0,0,1-4.843-8.787h-2.863c-.018,1.585-.09,5.978-2.61,8.841l-1.153-1.243a7.421,7.421,0,0,0,1.585-2.682,16.028,16.028,0,0,0,.774-4.736v-7.436h9.183Zm-1.423-5.906H1424.3v4.538h6.338Z" fill="#00532c"/>
        <path id="Path_7598" data-name="Path 7598" d="M1438.989,1862.873c-.162,4.861-.234,7-.234,8.714,0,2.3.108,4.718,3.493,4.718,4.664,0,5.258-3.241,5.762-5.978l1.512.558c-.576,3.259-1.746,6.968-7.22,6.968-4.933,0-5.257-3.3-5.257-6.427,0-1.351.108-7.329.126-8.553Z" fill="#00532c"/>
        <path id="Path_7599" data-name="Path 7599" d="M1467.7,1865.358c-.612-.054-1.134-.072-1.836-.072a5.008,5.008,0,0,0-1.819.216c-2.592.864-6.121,3.655-6.121,6.752,0,2.34,1.728,3.079,3.637,3.475a20.087,20.087,0,0,0,4.537.324l-.324,1.746c-3.547-.144-9.525-.4-9.525-5.437,0-3.421,3.151-5.78,5.276-7.022-.523.018-6.752.4-8.715.63l-.144-1.765c1.08-.036,3.961-.162,4.879-.216,4.034-.216,5.69-.252,10.12-.288Z" fill="#00532c"/>
        <path id="Path_7600" data-name="Path 7600" d="M1479.887,1868.563h5.852v1.494h-5.87c-.234,5.384-3.619,7-7.437,7.9l-.72-1.458c5.294-1.08,6.392-3.151,6.554-6.446h-7.382v-1.494h7.382v-2.953a49.559,49.559,0,0,1-6.338.468l-.306-1.477a36.492,36.492,0,0,0,11.9-1.8l.846,1.458a39.8,39.8,0,0,1-4.483,1.1Z" fill="#00532c"/>
        <path id="Path_7601" data-name="Path 7601" d="M1497,1875.657h5.42v1.4H1490.2v-1.4h5.294V1868.6h-4.555v-1.441h10.731v1.441H1497Z" fill="#00532c"/>
        <path id="Path_7602" data-name="Path 7602" d="M1509.873,1872.038a15.722,15.722,0,0,0-1.441-4.394l1.351-.378a18.47,18.47,0,0,1,1.53,4.411Zm-.108,4.843c5.581-1.152,8.1-3.6,9.129-10.065l1.566.324c-1.188,6.158-3.493,9.489-9.687,10.965Zm4.051-5.672a19.549,19.549,0,0,0-1.188-4.3l1.332-.306a24.649,24.649,0,0,1,1.3,4.267Z" fill="#00532c"/>
        <path id="Path_7603" data-name="Path 7603" d="M1526.036,1876.5c3.62-.792,9.8-2.881,11-11.326h-6.392a15.609,15.609,0,0,1-4.718,4.916l-1.026-1.224a13.486,13.486,0,0,0,4.663-5.186h9.363c-.792,9.129-5.887,12.928-12.208,14.35Z" fill="#00532c"/>
        <path id="Path_7604" data-name="Path 7604" d="M1546.989,1862.873c-.162,4.861-.234,7-.234,8.714,0,2.3.108,4.718,3.493,4.718,4.664,0,5.258-3.241,5.762-5.978l1.512.558c-.576,3.259-1.746,6.968-7.22,6.968-4.933,0-5.257-3.3-5.257-6.427,0-1.351.108-7.329.126-8.553Z" fill="#00532c"/>
        <path id="Path_7605" data-name="Path 7605" d="M1560.47,1877.583c1.891-3.637,2.881-9.542,3.1-10.983h-2.629v-1.53h2.827c.126-1.261.126-1.333.216-2.377l1.747.054c-.109.918-.145,1.188-.289,2.323h4.952v1.53h-5.168a55.445,55.445,0,0,1-3.079,11.541Zm8.408-4.645a2.757,2.757,0,0,0-.612,1.638c0,1.585,2.089,1.657,4.178,1.657.612,0,1.962-.036,3.457-.144l.017,1.638c-.449.018-2.808.054-3.385.054-2.124,0-5.8,0-5.8-3.061a4.374,4.374,0,0,1,.846-2.376Zm6.626-3.817c-.486-.018-1.026-.054-1.836-.054a13.838,13.838,0,0,0-4.934.756l-.522-1.386c1.369-.523,3.079-1.063,7.292-.937Z" fill="#00532c"/>
        <path id="Path_7606" data-name="Path 7606" d="M1592.766,1868.8c-.108,3.8-.522,7.616-1.1,8.732-.378.739-.936,1.207-2.4,1.207h-3.421l-.288-1.531h3.511a1.373,1.373,0,0,0,1.351-.846c.522-1.152.72-5.888.738-6.158h-6.626c-.306,2.233-.955,5.6-5.816,8.589l-.99-1.387c4.879-2.755,5.509-6.194,5.545-11.4h-5.329v-1.441h7.544v-2.52h1.584v2.52h7.581v1.441h-9.831c-.018.684-.036,1.44-.144,2.791Z" fill="#00532c"/>
        <path id="Path_7607" data-name="Path 7607" d="M1142.657,1898.4a1.854,1.854,0,1,1-1.855-1.854A1.865,1.865,0,0,1,1142.657,1898.4Z" fill="#00532c"/>
        <path id="Path_7608" data-name="Path 7608" d="M1152.754,1905.241v-3.169h-6.608V1900.6l6.5-9.543h1.8v9.507h1.945v1.512h-1.945v3.169Zm-4.88-4.681h4.88v-7.22Z" fill="#00532c"/>
        <path id="Path_7609" data-name="Path 7609" d="M1174.645,1904.989l-.27,1.386H1166c-3.331,0-4.483-1.548-5.005-2.268a20.622,20.622,0,0,1-2.575,2.719l-.756-1.6a18.177,18.177,0,0,0,2.5-2.179v-4.573h-2.3v-1.386h3.745v5.023a2.709,2.709,0,0,0,1.62,2.341,7.88,7.88,0,0,0,2.809.54Zm-13.27-10.785a17.118,17.118,0,0,0-3.223-2.881l.972-1.08a17.463,17.463,0,0,1,3.313,2.809Zm12.477,8.336c0,1.243-.486,1.549-1.62,1.549h-1.638l-.253-1.422,1.6.017c.378,0,.5-.126.5-.522v-10.281h-3.241v1.333h2.485v1.134h-2.485v1.386h2.737v1.171h-6.734v-1.171h2.683v-1.386H1165.5v-1.134h2.395v-1.333h-3.187v5.51c0,4.1-.775,5.564-1.243,6.41l-1.152-1.027c.5-.882,1.026-2.088,1.026-5.527v-6.626h10.515Zm-2.43-.4h-5.906v-4.177h5.906Zm-1.261-3.061h-3.385v1.945h3.385Z" fill="#00532c"/>
        <path id="Path_7610" data-name="Path 7610" d="M1184.632,1901.946a68.2,68.2,0,0,1-8.66,3.4l-.288-1.476c.756-.216,1.242-.378,1.872-.594l-.144-12.91h1.513l.126,12.387c2.052-.738,3.421-1.242,5.293-2.106Zm-3.331,3.349c4.142-1.044,7.725-3.043,7.941-10.857l.108-4.033,1.566.018-.09,4.123a14.976,14.976,0,0,1-1.6,6.95,29.434,29.434,0,0,1,3.547,3.925l-1.261,1.243a22.473,22.473,0,0,0-3.079-3.944,11.967,11.967,0,0,1-6.337,4.034Zm3.493-8.264a24.816,24.816,0,0,0-3.421-4.88l1.171-.882a26.561,26.561,0,0,1,3.6,4.825Z" fill="#00532c"/>
        <path id="Path_7611" data-name="Path 7611" d="M1202.686,1895.608h6.644v1.513h-6.644v7.472h7.815v1.494h-16.673v-1.494h7.292v-14.512h1.566Z" fill="#00532c"/>
        <path id="Path_7612" data-name="Path 7612" d="M1221.767,1896.563h5.851v1.494h-5.869c-.235,5.384-3.619,7-7.437,7.9l-.72-1.458c5.294-1.08,6.392-3.151,6.554-6.446h-7.382v-1.494h7.382v-2.953a49.559,49.559,0,0,1-6.338.468l-.306-1.477a36.492,36.492,0,0,0,11.9-1.8l.846,1.458a39.8,39.8,0,0,1-4.483,1.1Z" fill="#00532c"/>
        <path id="Path_7613" data-name="Path 7613" d="M1238.884,1903.657h5.42v1.4h-12.226v-1.4h5.294V1896.6h-4.555v-1.441h10.731v1.441h-4.664Z" fill="#00532c"/>
        <path id="Path_7614" data-name="Path 7614" d="M1251.753,1900.038a15.722,15.722,0,0,0-1.441-4.394l1.351-.378a18.47,18.47,0,0,1,1.53,4.411Zm-.108,4.843c5.581-1.152,8.1-3.6,9.128-10.065l1.567.324c-1.188,6.158-3.493,9.489-9.687,10.965Zm4.051-5.672a19.549,19.549,0,0,0-1.188-4.3l1.332-.306a24.559,24.559,0,0,1,1.3,4.267Z" fill="#00532c"/>
        <path id="Path_7615" data-name="Path 7615" d="M1267.916,1904.5c3.619-.792,9.8-2.881,11-11.326h-6.391a15.609,15.609,0,0,1-4.718,4.916l-1.026-1.224a13.494,13.494,0,0,0,4.663-5.186h9.363c-.792,9.129-5.888,12.928-12.208,14.35Z" fill="#00532c"/>
        <path id="Path_7616" data-name="Path 7616" d="M1298.448,1892.439v1.441h-7.94a14.985,14.985,0,0,1-1.189,2.593,5.369,5.369,0,0,1,2.881-1.063,2.456,2.456,0,0,1,2.737,2.107c.414-.162,2.881-1.152,4.5-1.711l.432,1.567c-1.458.414-2.736.81-4.717,1.566.054.631.072,1.405.072,2.053,0,.252,0,.792-.054,1.368H1293.6c.037-.414.091-1.08.091-1.728,0-.306,0-.612-.037-1.08-1.386.648-3.564,1.8-3.564,3.276,0,1.585,2,1.585,3.979,1.585a44.375,44.375,0,0,0,4.753-.252l.054,1.548c-1.026.072-2.593.18-4.3.18-2.035,0-6.1,0-6.1-2.9,0-2.448,3.223-4.069,5.006-4.861-.2-1.062-.7-1.422-1.531-1.422a5.366,5.366,0,0,0-3.565,1.836c-.828,1.134-2.017,2.719-2.593,3.313l-1.116-1.206a15.619,15.619,0,0,0,4.177-6.77h-3.709v-1.441h4.141a13.093,13.093,0,0,0,.378-2.016l1.729.072a16.519,16.519,0,0,1-.45,1.944Z" fill="#00532c"/>
        <path id="Path_7617" data-name="Path 7617" d="M1306.869,1890.873c-.162,4.861-.234,7-.234,8.714,0,2.3.108,4.718,3.493,4.718,4.664,0,5.258-3.241,5.762-5.978l1.512.558c-.576,3.259-1.746,6.968-7.22,6.968-4.933,0-5.257-3.3-5.257-6.427,0-1.351.107-7.329.126-8.553Z" fill="#00532c"/>
        <path id="Path_7618" data-name="Path 7618" d="M1320.35,1905.583c1.89-3.637,2.881-9.542,3.1-10.983h-2.629v-1.53h2.827c.126-1.261.126-1.333.216-2.377l1.746.054c-.108.918-.144,1.188-.288,2.323h4.952v1.53H1325.1a55.445,55.445,0,0,1-3.079,11.541Zm8.408-4.645a2.757,2.757,0,0,0-.612,1.638c0,1.585,2.089,1.657,4.177,1.657.613,0,1.963-.036,3.458-.144l.017,1.638c-.45.018-2.808.054-3.385.054-2.124,0-5.8,0-5.8-3.061a4.374,4.374,0,0,1,.846-2.376Zm6.626-3.817c-.486-.018-1.026-.054-1.836-.054a13.838,13.838,0,0,0-4.934.756l-.522-1.386c1.368-.523,3.079-1.063,7.292-.937Z" fill="#00532c"/>
        <path id="Path_7619" data-name="Path 7619" d="M1352.646,1896.8c-.108,3.8-.522,7.616-1.1,8.732-.378.739-.936,1.207-2.4,1.207h-3.421l-.288-1.531h3.511a1.371,1.371,0,0,0,1.35-.846c.522-1.152.721-5.888.739-6.158h-6.626c-.306,2.233-.955,5.6-5.816,8.589l-.99-1.387c4.879-2.755,5.509-6.194,5.545-11.4h-5.329v-1.441h7.544v-2.52h1.584v2.52h7.581v1.441h-9.831c-.018.684-.036,1.44-.144,2.791Z" fill="#00532c"/>
        <path id="Path_7620" data-name="Path 7620" d="M1142.657,1926.4a1.854,1.854,0,1,1-1.855-1.854A1.865,1.865,0,0,1,1142.657,1926.4Z" fill="#00532c"/>
        <path id="Path_7621" data-name="Path 7621" d="M1152.16,1932.071a13.2,13.2,0,0,1-2.143-3.655,10.344,10.344,0,0,1-3.367,6.23l-.9-1.3c1.782-1.6,2.7-3.313,3.115-6.734h-2.881v-1.35h2.989c.018-.414.036-.828.036-1.765v-1.332h-2.683v-1.405h2.683v-2.7h1.44v2.7h2.467v1.405h-2.467v1.314c0,.522,0,1.171-.036,1.783h2.773v1.35h-2.611a11.14,11.14,0,0,0,2.719,4.448Zm9.741-3.259H1159.6v4.051c0,.162,0,.45.486.45h.45a.469.469,0,0,0,.54-.414,11.457,11.457,0,0,0,.2-1.89l1.351.306c-.144,3.079-.558,3.367-1.477,3.367H1159.4c-.846,0-1.225-.342-1.225-1.207v-4.663h-1.3a6.888,6.888,0,0,1-4.879,5.942l-.865-1.315c3.673-1.17,4.213-3.349,4.394-4.627H1153.8v-10.191h8.1Zm-1.423-8.913H1155.2v1.747h5.276Zm0,2.935H1155.2v1.711h5.276Zm0,2.9H1155.2v1.8h5.276Z" fill="#00532c"/>
        <path id="Path_7622" data-name="Path 7622" d="M1170.538,1920.367a40.078,40.078,0,0,1-3.457,5.294c1.368-.054,2.016-.144,2.538-.2a10.141,10.141,0,0,0-.576-1.3l1.153-.451a20.547,20.547,0,0,1,1.476,3.4l-1.314.486c-.072-.27-.126-.432-.306-1.008-1.009.144-1.369.18-1.621.2v7.959h-1.44v-7.815c-1.765.126-2.215.162-2.953.2l-.072-1.386c.5,0,.612,0,1.548-.018.559-.738.792-1.062.991-1.387a16.272,16.272,0,0,0-2.611-2.484l.756-1.1c.162.126.288.235.594.469a21.477,21.477,0,0,0,1.747-3.277l1.314.5a24.131,24.131,0,0,1-2.088,3.637c.071.09.54.558,1.044,1.134a38.183,38.183,0,0,0,2.034-3.457Zm-6.626,12.658a14.025,14.025,0,0,0,.882-4.771l1.3.216a21.258,21.258,0,0,1-.864,5.059Zm6.067-.45a28.136,28.136,0,0,0-.756-4.141l1.189-.252a23.981,23.981,0,0,1,.9,4.141Zm.883-8.751a12.472,12.472,0,0,0,2.737-5.851l1.494.162a19.492,19.492,0,0,1-.72,2.5h5.69c0,2.305-.018,11.182-.667,12.82a2.043,2.043,0,0,1-2.124,1.3h-2.863l-.288-1.585,2.863.018c.432,0,.918-.018,1.116-.738.5-1.873.486-9.939.486-10.461h-4.753a11.606,11.606,0,0,1-1.891,2.953Zm4.087,5.87a22.532,22.532,0,0,0-2.071-4.375l1.279-.612a17.985,17.985,0,0,1,2.143,4.339Z" fill="#00532c"/>
        <path id="Path_7623" data-name="Path 7623" d="M1185.909,1919.179a34.611,34.611,0,0,0-.81,8.156,26.759,26.759,0,0,0,.558,6.392l-1.747.144a35.939,35.939,0,0,1-.468-6.284,41.217,41.217,0,0,1,.756-8.552Zm4.591,7.724a4.348,4.348,0,0,0-.9,2.431c0,1.638,1.837,1.854,3.763,1.854a38.394,38.394,0,0,0,4.123-.216v1.693c-.612.054-1.872.162-3.4.162-2.664,0-5.995-.252-5.995-3.349a6.032,6.032,0,0,1,.954-3.025Zm6.608-6.41v1.585h-8.462v-1.585Z" fill="#00532c"/>
        <path id="Path_7624" data-name="Path 7624" d="M1215.937,1933.133c0,1.08-.433,1.6-1.819,1.6h-2.575l-.252-1.531,2.485.018c.378,0,.63.018.63-.576V1920.1H1202.2v14.639h-1.53v-16.043h15.269Zm-2.377-11.325v1.314h-10.551v-1.314Zm-1.171,3.007v6.572h-8.264v-6.572Zm-1.4,1.314h-5.438v3.979h5.438Z" fill="#00532c"/>
        <path id="Path_7625" data-name="Path 7625" d="M1217.876,1933.529a6.65,6.65,0,0,0,2.034-3.151l1.333.306a8.6,8.6,0,0,1-2.305,3.926Zm16.727-10.281h-16.655v-1.206h4.321c-.216-.9-.36-1.405-.45-1.657h-2.863V1919.2h6.554v-1.134h1.512v1.134h6.608v1.188h-2.736a14.312,14.312,0,0,1-.468,1.657h4.177Zm-1.873,6.374h-12.892v-5.437h12.892Zm-1.458-4.321h-9.993v1.08h9.993Zm0,2.088h-9.993v1.117h9.993Zm-7.616,3.367v2.089c0,.324.053.45.414.45h4.015c.486,0,.612-.054.846-1.692l1.4.378c-.324,2.143-.684,2.611-1.692,2.611h-4.952c-.954,0-1.458-.342-1.458-1.225v-2.611Zm5.329-8.714a11.276,11.276,0,0,0,.432-1.657h-6.176a15.345,15.345,0,0,1,.468,1.657Zm-1.944,10.335a12.5,12.5,0,0,0-2.845-1.71l.738-.991a12.489,12.489,0,0,1,2.845,1.531Zm6.428,2.161a18.957,18.957,0,0,0-2.737-3.692l1.116-.756a19.33,19.33,0,0,1,2.863,3.583Z" fill="#00532c"/>
        <path id="Path_7626" data-name="Path 7626" d="M1239.045,1919.719a35.325,35.325,0,0,0-.378,5.15c0,2.79.216,6.734,2.232,6.734.81,0,1.747-.738,2.989-3.979l1.332.756a11.414,11.414,0,0,1-2.43,4.195,2.815,2.815,0,0,1-2.017.864c-2.917,0-3.727-4.033-3.727-8.714,0-1.963.18-3.925.288-5.15Zm11.019,12.01c.036-.469.072-1.009.072-1.837,0-4.7-1.4-7.292-3.277-8.822l1.242-.955c2.143,1.8,4,4.34,3.745,11.542Z" fill="#00532c"/>
        <path id="Path_7627" data-name="Path 7627" d="M1254.47,1933.583c1.891-3.637,2.881-9.542,3.1-10.983h-2.629v-1.53h2.827c.126-1.261.126-1.333.216-2.377l1.747.054c-.109.918-.145,1.188-.289,2.323h4.952v1.53h-5.168a55.445,55.445,0,0,1-3.079,11.541Zm8.408-4.645a2.757,2.757,0,0,0-.612,1.638c0,1.585,2.089,1.657,4.178,1.657.612,0,1.962-.036,3.457-.144l.017,1.638c-.449.018-2.808.054-3.385.054-2.124,0-5.8,0-5.8-3.061a4.374,4.374,0,0,1,.846-2.376Zm6.626-3.817c-.486-.018-1.026-.054-1.836-.054a13.838,13.838,0,0,0-4.934.756l-.522-1.386c1.369-.523,3.079-1.063,7.292-.937Z" fill="#00532c"/>
        <path id="Path_7628" data-name="Path 7628" d="M1272.47,1933.583c1.836-3.511,2.863-9.344,3.1-10.983h-2.629v-1.53h2.827c.126-1.261.126-1.333.216-2.377l1.747.054c-.109.918-.145,1.188-.289,2.323h4.952v1.53h-5.168a55.445,55.445,0,0,1-3.079,11.541Zm8.408-4.645a2.757,2.757,0,0,0-.612,1.638c0,1.585,2.089,1.657,4.178,1.657.612,0,1.98-.036,3.474-.144v1.638c-.449.018-2.808.054-3.385.054-2.124,0-5.8,0-5.8-3.061a4.374,4.374,0,0,1,.846-2.376Zm6.626-3.817c-.486-.018-1.026-.054-1.836-.054a13.838,13.838,0,0,0-4.934.756l-.522-1.386a17.215,17.215,0,0,1,7.292-.937Zm-2.9-6.932a15.625,15.625,0,0,1,1.639,3.493l-1.3.666a15.325,15.325,0,0,0-1.549-3.547Zm2.665-.648a15.96,15.96,0,0,1,1.657,3.492l-1.3.667a14.187,14.187,0,0,0-1.566-3.547Z" fill="#00532c"/>
        <path id="Path_7629" data-name="Path 7629" d="M1293.495,1919.053a49.035,49.035,0,0,0-.63,7.814,30.067,30.067,0,0,0,.63,6.608l-1.693.216a32.506,32.506,0,0,1-.558-6.734,59.7,59.7,0,0,1,.54-8.012Zm1.656,4.951v-1.512h6.41c-.018-.81-.054-2.773-.072-3.709h1.657c0,.594.054,3.169.072,3.709l2.917-.018V1924h-2.9c.09,5.51-.216,9.381-6.23,10.137l-.594-1.476c4.357-.7,5.293-2.161,5.167-8.661Z" fill="#00532c"/>
        <path id="Path_7630" data-name="Path 7630" d="M1308.47,1933.583c1.891-3.637,2.881-9.542,3.1-10.983h-2.629v-1.53h2.827c.126-1.261.126-1.333.216-2.377l1.747.054c-.109.918-.145,1.188-.289,2.323h4.952v1.53h-5.168a55.445,55.445,0,0,1-3.079,11.541Zm8.408-4.645a2.757,2.757,0,0,0-.612,1.638c0,1.585,2.089,1.657,4.178,1.657.612,0,1.962-.036,3.457-.144l.017,1.638c-.449.018-2.808.054-3.385.054-2.124,0-5.8,0-5.8-3.061a4.374,4.374,0,0,1,.846-2.376Zm6.626-3.817c-.486-.018-1.026-.054-1.836-.054a13.838,13.838,0,0,0-4.934.756l-.522-1.386c1.369-.523,3.079-1.063,7.292-.937Z" fill="#00532c"/>
        <path id="Path_7631" data-name="Path 7631" d="M1340.766,1924.8c-.108,3.8-.522,7.616-1.1,8.732-.378.739-.936,1.207-2.4,1.207h-3.421l-.288-1.531h3.511a1.373,1.373,0,0,0,1.351-.846c.522-1.152.72-5.888.738-6.158h-6.626c-.306,2.233-.955,5.6-5.816,8.589l-.99-1.387c4.879-2.755,5.509-6.194,5.545-11.4h-5.329v-1.441h7.544v-2.52h1.584v2.52h7.581v1.441h-9.831c-.018.684-.036,1.44-.144,2.791Z" fill="#00532c"/>
      </g>
      <g id="Group_1786" data-name="Group 1786">
        <circle id="Ellipse_187" data-name="Ellipse 187" cx="50.504" cy="50.504" r="50.504" transform="translate(1023.476 1847.06)" fill="#fff" stroke="#00532c" stroke-miterlimit="10" stroke-width="2.344"/>
        <g id="Group_1785" data-name="Group 1785">
          <path id="Path_7632" data-name="Path 7632" d="M1049.744,1875c.378,0,.783-.027,1.188-.027.945,0,1.917,0,2.888-.027h-.027a35.782,35.782,0,0,0,3.563-5.1l2,.7c-1.053,1.485-2.268,2.97-3.428,4.346,2.618-.054,5.128-.324,7.747-.324h.62c-.89-.755-1.835-1.511-2.78-2.186l1.539-.837a41.673,41.673,0,0,1,5.641,4.562l-1.619,1.107c-.405-.432-.837-.891-1.269-1.3h-.135c-.054,0-.081.027-.108.027-2.159.216-4.4.432-6.559.54h.054c-.27.648-.594,1.376-.945,2.024h12.606v1.62h-6.749a19.93,19.93,0,0,0,7.261,4.778l-1.106,1.7a19.64,19.64,0,0,1-8.233-6.478h-4.751a24.108,24.108,0,0,1-8.233,7.126l-1.052-1.511a21.215,21.215,0,0,0,7.207-5.615h-6.748v-1.62h7.8c.35-.62.7-1.322,1-1.943l-6.586.27Zm9.961,6.317,1.592.944a18.7,18.7,0,0,1-8.5,5.507l-1.052-1.512h.027A16.393,16.393,0,0,0,1059.7,1881.313Zm6.1,4.669,1.7,1.08c-3.752,4.238-9.043,6.316-14.577,7.234l-1.052-1.727h.027C1057.086,1891.921,1062.377,1890.22,1065.805,1885.982Zm-3.158-2.348,1.565.972a18.821,18.821,0,0,1-11.31,6.235l-.944-1.646h.027A17.454,17.454,0,0,0,1062.647,1883.634Z" fill="#00532c" stroke="#00532c" stroke-linecap="round" stroke-linejoin="round" stroke-width="0.495"/>
          <path id="Path_7633" data-name="Path 7633" d="M1076.393,1894.161l-1.376-1.592c3.644-3.455,4.427-10.393,4.535-15.224h-4.022v-1.755h4.022v-4.966h1.862v4.75h5.1c-.027,3.509-.054,6.964-.243,10.5-.054,1.323-.162,2.592-.27,3.914,0,.108-.027.243-.027.351a6.534,6.534,0,0,1-.189,1.269,3.081,3.081,0,0,1-.918,1.754,3.348,3.348,0,0,1-1.7.378,13.5,13.5,0,0,1-2.781-.243l-.27-2.078a6.855,6.855,0,0,0,2.565.459c.944,0,1.214-.621,1.376-1.458.162-.81.189-2.186.3-3.185l.054-.54c.27-2.672.27-5.452.27-8.125v-1.241h-3.266C1081.36,1882.824,1080.469,1889.761,1076.393,1894.161Zm14.172-2.294v2h-1.836v-19.731h8.179v19.488h-1.835v-1.754Zm0-15.98v14.225h4.508v-14.225Z" fill="#00532c" stroke="#00532c" stroke-linecap="round" stroke-linejoin="round" stroke-width="0.495"/>
          <path id="Path_7634" data-name="Path 7634" d="M1070.907,1920.327l-1.215,1.862a22.252,22.252,0,0,1-9.313-7.018v8.044h-1.889v-7.8a21.278,21.278,0,0,1-9.124,7.315l-1.241-1.646a21.2,21.2,0,0,0,8.826-6.236h-8.232v-1.7h9.771v-3.158h1.889v3.158h9.988v1.7h-8.26A23.726,23.726,0,0,0,1070.907,1920.327Zm-12.228-13.307a15.906,15.906,0,0,1-3.266-3.456,22.3,22.3,0,0,1-4.481,3.617l-1.269-1.4a17.751,17.751,0,0,0,6.91-6.856l1.809.458c-.216.405-.486.81-.783,1.269h7.639l.945.918a22.183,22.183,0,0,1-4.508,5.344,31.942,31.942,0,0,0,8.827,2.727l-1.107,1.754a27.783,27.783,0,0,1-9.286-3.347,27.911,27.911,0,0,1-10.095,4.13l-1.107-1.674A28.6,28.6,0,0,0,1058.679,1907.02Zm1.43-1.026a17.5,17.5,0,0,0,3.4-3.779h-6.964l-.055.081h-.027A14.409,14.409,0,0,0,1060.109,1905.994Z" fill="#00532c" stroke="#00532c" stroke-linecap="round" stroke-linejoin="round" stroke-width="0.495"/>
          <path id="Path_7635" data-name="Path 7635" d="M1076.1,1913.525l-1.079-1.7a33.852,33.852,0,0,0,5.317-12.389l1.944.512a57.052,57.052,0,0,1-1.917,5.858v17.41h-1.943v-13.361C1077.743,1911.068,1076.96,1912.283,1076.1,1913.525Zm6.911-1.647-1.323-1.4a25.6,25.6,0,0,0,3.212-9.367l1.863.351c-.243,1.242-.513,2.456-.837,3.7h3.347v-5.965h1.862v5.965h5.453v1.728h-5.453v5.965h6.668v1.754h-6.668v8.611h-1.862V1914.6h-7.261v-1.754h7.261v-5.965h-3.887A23.536,23.536,0,0,1,1083.007,1911.878Z" fill="#00532c" stroke="#00532c" stroke-linecap="round" stroke-linejoin="round" stroke-width="0.495"/>
        </g>
      </g>
      <line id="Line_289" data-name="Line 289" x2="540.75" transform="translate(1034.036 1961.443)" stroke-dasharray="2.344 5.859" stroke="#00532c" stroke-linecap="round" stroke-linejoin="round" stroke-width="2.344" fill="none"/>
      <line id="Line_290" data-name="Line 290" x2="540.75" transform="translate(1034.036 1833.633)" stroke-dasharray="2.344 5.859" stroke="#00532c" stroke-linecap="round" stroke-linejoin="round" stroke-width="2.344" fill="none"/>
    </g>
    <g id="Group_1949" data-name="Group 1949">
      <rect id="Rectangle_418" data-name="Rectangle 418" width="591.797" height="58.594" transform="translate(79.102 1975.466)" fill="#00532c"/>
      <g id="Group_1788" data-name="Group 1788" transform="translate(-928 -2.608)">
        <path id="Path_7636" data-name="Path 7636" d="M1041.916,2021.764a17.065,17.065,0,0,0,4.388-5.821l2.164,1.067a20.369,20.369,0,0,1-4.876,6.612Zm5.089-26.42v3.139h6.338v-3.139h2.346v3.139h1.981v2.255h-1.981v12.432h1.981v2.195h-15.419v-2.195h2.438v-12.432h-1.981v-2.255h1.981v-3.139Zm6.338,5.394h-6.338v2.712h6.338Zm0,4.723h-6.338v2.8h6.338Zm0,4.784h-6.338v2.925h6.338Zm.792,11.153a28.12,28.12,0,0,0-3.047-4.053l1.676-1.31a19.032,19.032,0,0,1,3.139,3.809Zm15.328-.031c0,1.92-.975,2.255-2.408,2.255h-3.626l-.457-2.5,3.2.091c.579.031.883-.122.883-.884v-6.155h-6.094a19.293,19.293,0,0,1-3.717,9.324l-2.012-1.645c2.621-3.5,3.748-6.4,3.748-14.23v-11.336h10.483Zm-2.408-15.053h-5.7v1.311c0,1.066-.03,2.011-.122,4.3h5.82Zm0-7.77h-5.7v5.515h5.7Z" fill="#fff"/>
        <path id="Path_7637" data-name="Path 7637" d="M1085.214,1996.441v10.6h-8.868v16.546h-2.437v-27.151Zm-2.377,2.012h-6.491v2.316h6.491Zm0,4.083h-6.491V2005h6.491Zm10.909,17.735h-13.9v-11.123h13.9Zm-2.316-9.112h-9.294v2.56h9.294Zm0,4.3h-9.294v2.8h9.294Zm8.319,5.607c0,.609,0,2.529-2.133,2.529h-4.449l-.457-2.438,3.748.031c.548,0,.883-.092.883-.854v-13.285H1088.2v-10.6h11.549Zm-2.408-22.61h-6.764v2.316h6.764Zm0,4.083h-6.764V2005h6.764Z" fill="#fff"/>
        <path id="Path_7638" data-name="Path 7638" d="M1151.088,2018.412v2.62H1133.9c1.92-1.889,5.181-5.058,8.38-8.776,3.657-4.235,4.876-6.246,4.876-8.714a4.248,4.248,0,0,0-4.51-4.388c-3.779,0-5.546,3.169-6.095,4.144l-1.158-3.048a8.874,8.874,0,0,1,7.253-3.717c3.047,0,7.374,1.737,7.374,6.978,0,2.316-.7,4.236-3.139,7.374a91.889,91.889,0,0,1-6.642,7.527Z" fill="#fff"/>
        <path id="Path_7639" data-name="Path 7639" d="M1154.376,2009.026c0-2.407,0-12.493,8.319-12.493s8.319,10.086,8.319,12.493,0,12.494-8.319,12.494S1154.376,2011.464,1154.376,2009.026Zm13.774,0c0-3.992-.61-9.872-5.455-9.872-4.784,0-5.454,5.728-5.454,9.872,0,4.3.731,9.873,5.454,9.873C1167.479,2018.9,1168.15,2013.14,1168.15,2009.026Z" fill="#fff"/>
        <path id="Path_7640" data-name="Path 7640" d="M1191.306,2018.412v2.62H1174.12c1.919-1.889,5.18-5.058,8.379-8.776,3.657-4.235,4.876-6.246,4.876-8.714a4.248,4.248,0,0,0-4.51-4.388c-3.779,0-5.546,3.169-6.095,4.144l-1.158-3.048a8.874,8.874,0,0,1,7.253-3.717c3.047,0,7.374,1.737,7.374,6.978,0,2.316-.7,4.236-3.139,7.374a91.889,91.889,0,0,1-6.642,7.527Z" fill="#fff"/>
        <path id="Path_7641" data-name="Path 7641" d="M1194.594,2009.026c0-2.407,0-12.493,8.319-12.493s8.318,10.086,8.318,12.493,0,12.494-8.318,12.494S1194.594,2011.464,1194.594,2009.026Zm13.773,0c0-3.992-.609-9.872-5.454-9.872-4.784,0-5.455,5.728-5.455,9.872,0,4.3.731,9.873,5.455,9.873C1207.7,2018.9,1208.367,2013.14,1208.367,2009.026Z" fill="#fff"/>
        <path id="Path_7642" data-name="Path 7642" d="M1248.739,1998.331v2.377h-9.964v4.844h8.989v2.347h-8.989v6.216h11.213v2.377h-11.213v7.1h-2.56v-7.1h-14.566v-2.377h4.358v-8.563h10.208v-4.844h-7.435a24.076,24.076,0,0,1-5.729,6.582l-1.706-2.2a19.9,19.9,0,0,0,7.069-9.964l2.773.579c-.3.792-.487,1.311-1.1,2.621Zm-12.524,9.568H1228.6v6.216h7.618Z" fill="#fff"/>
        <path id="Path_7643" data-name="Path 7643" d="M1261.137,2017.01a11.732,11.732,0,0,0,6.643,1.92c4.723,0,6.338-2.743,6.338-4.906,0-2.56-2.194-4.449-6.338-4.449h-2.224v-2.59h2.255c3.534,0,4.906-2.225,4.906-4.083,0-2.347-1.859-3.748-4.51-3.748a7.55,7.55,0,0,0-5.851,2.742l-1.1-2.651a10.427,10.427,0,0,1,6.948-2.712c3.473,0,7.282,1.981,7.282,6.216a5.488,5.488,0,0,1-3.565,5.272c3.2,1.036,5.089,3.108,5.089,6.216,0,3.017-2.255,7.283-9.263,7.283a15.162,15.162,0,0,1-7.466-1.859Z" fill="#fff"/>
        <path id="Path_7644" data-name="Path 7644" d="M1312.387,2020.667a2.566,2.566,0,0,1-2.894,2.894h-5.577l-.426-2.681,5.3.03c.792,0,.975-.3.975-1.036v-6.582H1293.83a17.584,17.584,0,0,1-3.961,10.361l-2.316-1.8c1.432-1.8,3.779-4.723,3.779-12.067V1996.35h21.055Zm-18.435-21.94v4.815h15.815v-4.815Zm0,7.13v5.089h15.815v-5.089Z" fill="#fff"/>
        <path id="Path_7645" data-name="Path 7645" d="M1343.038,2018.412v2.62h-17.186c1.92-1.889,5.18-5.058,8.38-8.776,3.657-4.235,4.875-6.246,4.875-8.714a4.247,4.247,0,0,0-4.509-4.388c-3.779,0-5.546,3.169-6.095,4.144l-1.158-3.048a8.874,8.874,0,0,1,7.253-3.717c3.047,0,7.374,1.737,7.374,6.978,0,2.316-.7,4.236-3.139,7.374a91.964,91.964,0,0,1-6.643,7.527Z" fill="#fff"/>
        <path id="Path_7646" data-name="Path 7646" d="M1379.022,1996.777v26.144h-23.158v-26.144Zm-20.507,11.67h17.826v-9.2h-17.826Zm0,2.438v9.6h17.826v-9.6Z" fill="#fff"/>
        <path id="Path_7647" data-name="Path 7647" d="M1411.715,2008.782a10.206,10.206,0,0,1-7.77,3.871c-2.56,0-4.022-.854-6.978-2.56a9.244,9.244,0,0,0-5.119-1.585,7.347,7.347,0,0,0-6.095,2.987l-1.645-1.432a9.846,9.846,0,0,1,7.862-3.81c2.1,0,3.991.7,6.643,2.255,1.8,1.067,3.26,1.92,5.3,1.92a7.936,7.936,0,0,0,6.185-3.108Z" fill="#fff"/>
        <path id="Path_7648" data-name="Path 7648" d="M1435.3,1999.184c-7.374-.518-9.843,5.607-10.33,9.721a8.384,8.384,0,0,1,6.46-3.139,7.592,7.592,0,0,1,7.862,7.679,8,8,0,0,1-8.2,8.075c-3.444,0-8.807-2.133-8.807-10.787,0-6.46,3.6-14.718,13.012-14.17Zm-4.144,9.141c-2.56,0-5.79,1.615-5.79,5a5.558,5.558,0,0,0,5.668,5.576,5.122,5.122,0,0,0,5.363-5.241A4.976,4.976,0,0,0,1431.153,2008.325Z" fill="#fff"/>
        <path id="Path_7649" data-name="Path 7649" d="M1474.48,2020.667a2.567,2.567,0,0,1-2.9,2.894h-5.576l-.426-2.681,5.3.03c.792,0,.975-.3.975-1.036v-6.582h-15.937a17.585,17.585,0,0,1-3.961,10.361l-2.316-1.8c1.432-1.8,3.778-4.723,3.778-12.067V1996.35h21.056Zm-18.435-21.94v4.815h15.815v-4.815Zm0,7.13v5.089h15.815v-5.089Z" fill="#fff"/>
        <path id="Path_7650" data-name="Path 7650" d="M1489.042,2017.01a11.732,11.732,0,0,0,6.643,1.92c4.723,0,6.338-2.743,6.338-4.906,0-2.56-2.194-4.449-6.338-4.449h-2.225v-2.59h2.255c3.535,0,4.906-2.225,4.906-4.083,0-2.347-1.859-3.748-4.51-3.748a7.549,7.549,0,0,0-5.85,2.742l-1.1-2.651a10.427,10.427,0,0,1,6.947-2.712c3.474,0,7.283,1.981,7.283,6.216a5.49,5.49,0,0,1-3.565,5.272c3.2,1.036,5.089,3.108,5.089,6.216,0,3.017-2.255,7.283-9.264,7.283a15.156,15.156,0,0,1-7.465-1.859Z" fill="#fff"/>
        <path id="Path_7651" data-name="Path 7651" d="M1508.419,2009.026c0-2.407,0-12.493,8.319-12.493s8.319,10.086,8.319,12.493,0,12.494-8.319,12.494S1508.419,2011.464,1508.419,2009.026Zm13.774,0c0-3.992-.61-9.872-5.455-9.872-4.784,0-5.454,5.728-5.454,9.872,0,4.3.731,9.873,5.454,9.873C1521.522,2018.9,1522.193,2013.14,1522.193,2009.026Z" fill="#fff"/>
        <path id="Path_7652" data-name="Path 7652" d="M1561.224,1996.777v26.144h-23.159v-26.144Zm-20.508,11.67h17.826v-9.2h-17.826Zm0,2.438v9.6h17.826v-9.6Z" fill="#fff"/>
      </g>
    </g>
    <g id="Group_1831" data-name="Group 1831" transform="translate(-928 -2.608)">
      <g id="Group_1821" data-name="Group 1821">
        <path id="Path_7697" data-name="Path 7697" d="M1198.924,1434.436l.061,8.516a.726.726,0,0,0,.726.722h18.158a.726.726,0,0,1,.726.726v10.368a.726.726,0,0,1-.726.726h-18.148a.727.727,0,0,0-.727.731l.063,10.51a.726.726,0,0,0,.726.722h17.92a.727.727,0,0,1,.727.727v10.368a.727.727,0,0,1-.727.726h-28.955a.726.726,0,0,1-.726-.724l-.067-22.336a.726.726,0,0,0-.726-.724h-4.46a.726.726,0,0,1-.726-.726V1444.4a.726.726,0,0,1,.726-.726h4.452a.728.728,0,0,0,.727-.732l-.061-8.516a.726.726,0,0,0-.727-.721h-4.391a.726.726,0,0,1-.726-.727V1422.61a.726.726,0,0,1,.726-.726h31.3a.726.726,0,0,1,.726.726v10.368a.726.726,0,0,1-.726.727H1199.65A.726.726,0,0,0,1198.924,1434.436Z" fill="#80bf00"/>
        <path id="Path_7698" data-name="Path 7698" d="M1224.439,1468.126h36.6a.727.727,0,0,1,.727.727v9.584a.727.727,0,0,1-.727.726h-36.6a.727.727,0,0,1-.727-.726v-9.584A.727.727,0,0,1,1224.439,1468.126Zm5.076-40.6h25.465a.726.726,0,0,1,.726.726v9.585a.726.726,0,0,1-.726.726h-25.465a.726.726,0,0,1-.726-.726v-9.585A.726.726,0,0,1,1229.515,1427.524Z" fill="#80bf00"/>
        <path id="Path_7699" data-name="Path 7699" d="M1267.3,1421.812h27.733a2.179,2.179,0,0,1,2.179,2.179l-4.358,53.037a2.178,2.178,0,0,1-2.179,2.178h-6.685a2.179,2.179,0,0,1-2.179-2.173l2.277-23.282a2.178,2.178,0,0,0-2.178-2.173h-6.664a.744.744,0,0,0-.722.651l-1.152,11.088a.744.744,0,0,1-.722.651h-9.577a.713.713,0,0,1-.722-.8l4.226-40.7A.746.746,0,0,1,1267.3,1421.812Zm9.324,17.945h8.745a.726.726,0,0,0,.726-.734l-.054-4.672a.726.726,0,0,0-.726-.718h-8.205a.744.744,0,0,0-.723.651l-.485,4.672A.712.712,0,0,0,1276.625,1439.757Z" fill="#80bf00"/>
        <path id="Path_7700" data-name="Path 7700" d="M1302.581,1450.249v-28.384a.726.726,0,0,1,.726-.726h9.586a.726.726,0,0,1,.726.726v28.384a.726.726,0,0,1-.726.726h-9.586A.726.726,0,0,1,1302.581,1450.249Zm24.2-29.149h6.68a2.18,2.18,0,0,1,2.179,2.174l-4.227,53.82a2.179,2.179,0,0,1-2.179,2.184h-6.679a2.179,2.179,0,0,1-2.179-2.174l4.227-53.82A2.179,2.179,0,0,1,1326.783,1421.1Z" fill="#80bf00"/>
        <path id="Path_7701" data-name="Path 7701" d="M1375.805,1422.6l-4.511,56.084a.727.727,0,0,1-.724.668H1339.4a.726.726,0,0,1-.726-.726V1470.4a2.178,2.178,0,0,1,2.161-2.178l18.294-.109a2.178,2.178,0,0,0,2.154-2.005l3.49-43.628a.727.727,0,0,1,.724-.669h9.58A.727.727,0,0,1,1375.805,1422.6Zm-25.051,14.664h-6.025a1.453,1.453,0,0,1-1.452-1.453l-1.453-14.413a1.453,1.453,0,0,1,1.453-1.452h6.025a1.452,1.452,0,0,1,1.452,1.452l1.453,14.413A1.454,1.454,0,0,1,1350.754,1437.261Z" fill="#80bf00"/>
        <path id="Path_7702" data-name="Path 7702" d="M1416.67,1421.421l-4.358,54.047a1.674,1.674,0,0,1-1.673,1.674h-7.691a1.675,1.675,0,0,1-1.674-1.674l4.358-42.226a1.673,1.673,0,0,0-1.673-1.673H1396.4a1.453,1.453,0,0,0-1.453,1.452l-2.905,19.81a1.452,1.452,0,0,1-1.452,1.452h-8.133a1.452,1.452,0,0,1-1.452-1.452l3.631-31.631a1.452,1.452,0,0,1,1.452-1.452H1415A1.673,1.673,0,0,1,1416.67,1421.421Zm3.247-1.6H1423c.653,0,1.183.325,1.183.726v8.232c0,.4-.53.726-1.183.726h-3.086c-.653,0-1.183-.325-1.183-.726v-8.232C1418.734,1420.144,1419.264,1419.819,1419.917,1419.819Zm12.388.726v8.232c0,.4-.53.726-1.183.726h-3.085c-.654,0-1.183-.325-1.183-.726v-8.232c0-.4.529-.726,1.183-.726h3.085C1431.775,1419.819,1432.305,1420.144,1432.305,1420.545Z" fill="#80bf00"/>
      </g>
      <g id="Group_1822" data-name="Group 1822">
        <path id="Path_7703" data-name="Path 7703" d="M1358.083,1313.672c-.625,1.161-1.193,2.358-1.885,3.477a15.222,15.222,0,0,1-8.1,6.6,1.132,1.132,0,0,0-.68.663c-1.03,5.884-4.519,9.754-9.852,12.136a4.327,4.327,0,0,0-.457.27h-.362c-.532-.657-.445-1.1.262-1.677,3.968-3.257,5.769-7.6,6.057-12.632a20.927,20.927,0,0,0-.165-3.956,6.356,6.356,0,0,0-.86-2.031c-.271-.5-.167-.945.413-.942a7.72,7.72,0,0,1,5.661,2.379c.121.124.056.48.006.713-.17.809-.373,1.61-.589,2.522,1.93-.693,4.512-4.987,4.814-7.85-.718.043-1.419.079-2.12.127-3.3.228-6.608.443-9.908.706a3.5,3.5,0,0,0-1.524.492.742.742,0,0,1-1.086-.178,6.329,6.329,0,0,1-1.8-3.752,1.018,1.018,0,0,1,.287-.762c.1-.094.462.067.7.144a7.608,7.608,0,0,0,2.014.66c1.711.043,3.428-.061,5.139-.162,2.585-.152,5.17-.311,7.746-.56a8.053,8.053,0,0,0,1.956-.722h.362a14.367,14.367,0,0,1,3.977,3.977Z" fill="#00532c"/>
        <path id="Path_7704" data-name="Path 7704" d="M1277.808,1336.814c-1.7-3.808-3.291-7.668-5.122-11.411-1.556-3.181-3.383-6.228-5.1-9.332-.153-.277-.348-.531-.61-.928-2.222,3.7-3.532,7.627-5.016,11.677a12.492,12.492,0,0,1-5.129-6.278v-.361c.206-.113.461-.369.608-.317,1.022.361,1.628-.31,2.159-.92.885-1.019,1.672-2.125,2.471-3.217,1.314-1.8,2.584-3.628,3.914-5.414.68-.913,1.209-.884,1.918.018a180.868,180.868,0,0,1,12.252,18.513c.608,1,1.163,2.042,1.808,3.021a1.362,1.362,0,0,1,.061,1.505,7.587,7.587,0,0,1-3.675,3.444Z" fill="#00532c"/>
        <path id="Path_7705" data-name="Path 7705" d="M1299.143,1336.814c-.988-1.235-1.989-2.46-2.957-3.711a1.4,1.4,0,0,1-.116-1.512,5.572,5.572,0,0,0,.364-2.02q.044-7.631,0-15.263c-.011-1.468-.081-2.958-1.25-4.116-.116-.115.1-.565.16-.859h1.446a36.652,36.652,0,0,1,3.507,1.565c1.187.674,1.142.856.781,2.11a6.971,6.971,0,0,0-.257,1.868c-.02,4.911-.012,9.822-.009,14.733,0,.2.035.4.07.763.631-.393,1.178-.687,1.676-1.049a19.248,19.248,0,0,0,6-8c.128-.283.3-.645.548-.754.546-.24.969.213.863.932-.941,6.353-3.749,11.508-9.507,14.763a9,9,0,0,0-.777.55Z" fill="#00532c"/>
        <path id="Path_7706" data-name="Path 7706" d="M1317.584,1336.814a10.805,10.805,0,0,1-3.849-4.541,3.746,3.746,0,0,1-.3-.939c-.084-.589.317-.9.794-.59a3.736,3.736,0,0,0,3.219.2,19.016,19.016,0,0,0,10.912-7.84c1.679-2.435,2.949-5.151,4.393-7.747.209-.374.22-.891.916-.689.654.189.576.612.457,1.053a70.158,70.158,0,0,1-2.218,7.87,21.577,21.577,0,0,1-11.827,11.928,18.984,18.984,0,0,0-2.135,1.29Z" fill="#00532c"/>
        <path id="Path_7707" data-name="Path 7707" d="M1283.775,1336.814c-.524-.668-.4-1.112.278-1.695a15.505,15.505,0,0,0,5.315-11.37c.173-2.884.186-5.78.2-8.671.009-1.5-.04-3.024-1.227-4.216-.07-.07.242-.767.393-.773a7.391,7.391,0,0,1,5.676,2.291c.118.117.094.429.062.638-.158,1.029-.435,2.049-.5,3.082-.179,2.914-.09,5.855-.442,8.745-.661,5.428-3.735,9.194-8.612,11.55-.267.129-.524.279-.786.419Z" fill="#00532c"/>
        <path id="Path_7708" data-name="Path 7708" d="M1315.234,1309.333c1.447.365,2.927.636,4.333,1.122,1.552.537,3.032,1.284,4.553,1.916.6.25.7.634.513,1.218a6.286,6.286,0,0,1-2.6,3.45c-.588.39-.921.284-1.376-.324-1.217-1.626-2.528-3.185-3.875-4.706a4.509,4.509,0,0,0-1.637-1.088c-.912-.374-.919-.884-.452-1.588Z" fill="#00532c"/>
        <path id="Path_7709" data-name="Path 7709" d="M1322.894,1320.754a6.111,6.111,0,0,1-3.335,4.106c-.51.15-.671-.129-.9-.493a31.269,31.269,0,0,0-2.458-3.77,20.757,20.757,0,0,0-2.959-2.608c-.324-.263-.624-.4-.433-.917s.471-.515.909-.419a26,26,0,0,1,8.557,3.492A3.476,3.476,0,0,1,1322.894,1320.754Z" fill="#00532c"/>
      </g>
      <g id="Group_1823" data-name="Group 1823">
        <path id="Path_7710" data-name="Path 7710" d="M1160.214,1471.59a2.636,2.636,0,0,1-2.4-1.55l-24.867-54.915a2.636,2.636,0,1,1,4.8-2.174l24.867,54.915a2.638,2.638,0,0,1-2.4,3.724Z" fill="#eb6100"/>
        <path id="Path_7711" data-name="Path 7711" d="M1448.9,1471.59a2.638,2.638,0,0,1-2.4-3.724l24.867-54.915a2.636,2.636,0,0,1,4.8,2.174L1451.3,1470.04A2.637,2.637,0,0,1,1448.9,1471.59Z" fill="#eb6100"/>
      </g>
      <g id="Group_1830" data-name="Group 1830">
        <g id="Group_1824" data-name="Group 1824">
          <path id="Path_7712" data-name="Path 7712" d="M1419.263,1367.831a.725.725,0,0,0-.714-.857h-10.108a.725.725,0,0,0-.72.636l-3.363,32.595a.726.726,0,0,0,.726.727h9.492a.726.726,0,0,0,.726-.727Z" fill="#eb5a24"/>
          <path id="Path_7713" data-name="Path 7713" d="M1420,1378.785h5.1a.726.726,0,0,1,.721.814l-3.5,28.742a.726.726,0,0,0,.72.814h9.943a.727.727,0,0,0,.721-.638l4.244-34.836a.726.726,0,0,0-.721-.814h-16.7a.725.725,0,0,0-.721.642l-.521,4.466A.726.726,0,0,0,1420,1378.785Z" fill="#eb5a24"/>
          <path id="Path_7714" data-name="Path 7714" d="M1439.75,1363.809a.726.726,0,0,0,.726-.726v-8.405a.727.727,0,0,0-.726-.727h-14.7a.726.726,0,0,1-.726-.726v-3.592a.727.727,0,0,0-.726-.727h-5.65a.727.727,0,0,0-.726.727v3.592a.726.726,0,0,1-.726.726h-14.7a.727.727,0,0,0-.726.727v8.405a.726.726,0,0,0,.726.726h37.962Z" fill="#eb5a24"/>
          <path id="Path_7715" data-name="Path 7715" d="M1390.837,1349.854h-5.231a.727.727,0,0,0-.727.726v5.649a.727.727,0,0,0,.727.727h4.505a.726.726,0,0,1,.726.726v9.291a.726.726,0,0,1-.726.726h-5.689a.726.726,0,0,1-.726-.726V1350.58a.726.726,0,0,0-.727-.726h-4.511a.726.726,0,0,0-.726.726v57.731a.727.727,0,0,0,.726.727h4.511a.727.727,0,0,0,.727-.727v-17.4a.726.726,0,0,1,.726-.726h5.689a.726.726,0,0,1,.726.726v17.4a.728.728,0,0,0,.727.727h6.793a.728.728,0,0,0,.727-.727V1350.58a.727.727,0,0,0-.727-.726Zm-7.141,32.507v-6.833a.726.726,0,0,1,.726-.727h5.689a.726.726,0,0,1,.726.727v6.833a.726.726,0,0,1-.726.726h-5.689A.726.726,0,0,1,1383.7,1382.361Z" fill="#eb5a24"/>
        </g>
        <g id="Group_1826" data-name="Group 1826">
          <path id="Path_7716" data-name="Path 7716" d="M1247.751,1349.854h-5.232a.726.726,0,0,0-.726.726v5.649a.726.726,0,0,0,.726.727h4.506a.726.726,0,0,1,.726.726v9.291a.726.726,0,0,1-.726.726h-5.69a.726.726,0,0,1-.726-.726V1350.58a.726.726,0,0,0-.726-.726h-4.511a.726.726,0,0,0-.726.726v57.731a.727.727,0,0,0,.726.727h4.511a.727.727,0,0,0,.726-.727v-17.4a.726.726,0,0,1,.726-.726h5.69a.726.726,0,0,1,.726.726v17.4a.727.727,0,0,0,.726.727h6.794a.727.727,0,0,0,.726-.727V1350.58a.726.726,0,0,0-.726-.726Zm-7.142,32.507v-6.833a.726.726,0,0,1,.726-.727h5.69a.726.726,0,0,1,.726.727v6.833a.726.726,0,0,1-.726.726h-5.69A.726.726,0,0,1,1240.609,1382.361Z" fill="#eb5a24"/>
          <g id="Group_1825" data-name="Group 1825">
            <path id="Path_7717" data-name="Path 7717" d="M1266.564,1363.828h6.146a1.3,1.3,0,0,0,1.28-1.322h0a1.3,1.3,0,0,1,1.28-1.322h18.07a1.3,1.3,0,0,0,1.28-1.322v-6.9a1.3,1.3,0,0,0-1.28-1.322H1291.7a1.3,1.3,0,0,1-1.28-1.321v-1.742a1.3,1.3,0,0,0-1.28-1.322h-6.146a1.3,1.3,0,0,0-1.28,1.322v1.742a1.3,1.3,0,0,1-1.28,1.321h-5.161a1.3,1.3,0,0,1-1.28-1.321v-1.742a1.3,1.3,0,0,0-1.28-1.322h-6.146a1.3,1.3,0,0,0-1.279,1.322v1.742a1.3,1.3,0,0,1-1.28,1.321h-2.488a1.3,1.3,0,0,0-1.28,1.322v6.9a1.3,1.3,0,0,0,1.28,1.322h2.488a1.3,1.3,0,0,1,1.28,1.322h0A1.3,1.3,0,0,0,1266.564,1363.828Z" fill="#eb5a24"/>
            <path id="Path_7718" data-name="Path 7718" d="M1305.054,1405.72a.977.977,0,0,0,.475-1.262l-6.332-18.005a.727.727,0,0,1,.007-.474l2.6-7.159a.974.974,0,0,0-.5-1.22l-3.28-1.489a.645.645,0,0,0-.872.38h0a.645.645,0,0,1-1.227-.021l-.906-2.764a.96.96,0,0,1,.884-1.272h5.176a.949.949,0,0,0,.933-.964v-2.807a.949.949,0,0,0-.933-.964h-7.359a.934.934,0,0,1-.883-.655l-1.141-3.481a.928.928,0,0,0-1.146-.616l-7.326,2.22a.97.97,0,0,0-.617,1.247h0a.959.959,0,0,1-.88,1.285h-13.986v-.09h-7.718a.948.948,0,0,0-.933.963v38.287c0,1.2.117,2.237,1.282,2.237h5.986c1.165,0,1.383-1.034,1.383-2.237V1373.4a.949.949,0,0,1,.933-.964h15.34a.936.936,0,0,1,.88.642l6.476,18.866a.724.724,0,0,1,0,.484l-4.349,11.978a2.2,2.2,0,0,0,1.127,2.76l.85.385a2.088,2.088,0,0,0,2.824-1.229l1.6-4.421a.726.726,0,0,1,1.369.012l2.2,6.4a.924.924,0,0,0,1.261.557Z" fill="#eb5a24"/>
            <path id="Path_7719" data-name="Path 7719" d="M1269.743,1378.854v27.816a1.165,1.165,0,0,0,1.146,1.184H1283.5a1.165,1.165,0,0,0,1.146-1.184V1404.3a1.165,1.165,0,0,0-1.146-1.184h-8.023a1.165,1.165,0,0,1-1.146-1.183v-1.776a1.165,1.165,0,0,1,1.146-1.184h8.023a1.165,1.165,0,0,0,1.146-1.183h0v-11.837h0a1.165,1.165,0,0,0-1.146-1.184h-8.023a1.165,1.165,0,0,1-1.146-1.183v-1.776a1.165,1.165,0,0,1,1.146-1.184h8.023a1.165,1.165,0,0,0,1.146-1.183v-2.368a1.165,1.165,0,0,0-1.146-1.183h-12.607a1.165,1.165,0,0,0-1.146,1.183Zm10.315,11.836v2.368a1.165,1.165,0,0,1-1.146,1.184h-3.439a1.165,1.165,0,0,1-1.146-1.184v-2.368a1.165,1.165,0,0,1,1.146-1.183h3.439A1.165,1.165,0,0,1,1280.058,1390.69Z" fill="#eb5a24"/>
            <path id="Path_7720" data-name="Path 7720" d="M1301.292,1351.7h-2.549a.662.662,0,0,0-.651.673v8.524a.662.662,0,0,0,.651.673h2.549a.662.662,0,0,0,.651-.673v-8.524A.662.662,0,0,0,1301.292,1351.7Z" fill="#eb5a24"/>
          </g>
        </g>
        <g id="Group_1828" data-name="Group 1828">
          <path id="Path_7721" data-name="Path 7721" d="M1325.172,1349.854h-5.232a.726.726,0,0,0-.726.726v5.649a.726.726,0,0,0,.726.727h4.505a.727.727,0,0,1,.727.726v9.291a.727.727,0,0,1-.727.726h-5.689a.726.726,0,0,1-.726-.726V1350.58a.726.726,0,0,0-.726-.726h-4.511a.727.727,0,0,0-.727.726v57.731a.728.728,0,0,0,.727.727h4.511a.727.727,0,0,0,.726-.727v-17.4a.726.726,0,0,1,.726-.726h5.689a.727.727,0,0,1,.727.726v17.4a.727.727,0,0,0,.726.727h6.794a.727.727,0,0,0,.726-.727V1350.58a.726.726,0,0,0-.726-.726Zm-7.142,32.507v-6.833a.726.726,0,0,1,.726-.727h5.689a.727.727,0,0,1,.727.727v6.833a.727.727,0,0,1-.727.726h-5.689A.726.726,0,0,1,1318.03,1382.361Z" fill="#eb5a24"/>
          <g id="Group_1827" data-name="Group 1827">
            <path id="Path_7722" data-name="Path 7722" d="M1369.176,1356.256l-1.49-4.208a.726.726,0,0,0-.893-.453L1345.7,1357.9a.727.727,0,0,0-.477.939l1.49,4.208a.726.726,0,0,0,.893.453l21.089-6.305A.727.727,0,0,0,1369.176,1356.256Z" fill="#eb5a24"/>
            <path id="Path_7723" data-name="Path 7723" d="M1363.708,1363.3l.008,1.205a.727.727,0,0,1-.726.731h-18.675a.726.726,0,0,1-.726-.726v-16.526a.726.726,0,0,0-.726-.726h-5.65a.726.726,0,0,0-.726.726v25.44a.727.727,0,0,0,.726.727H1368.9a.727.727,0,0,0,.726-.727v-9.237a.726.726,0,0,0-.584-.712l-4.46-.892A.727.727,0,0,0,1363.708,1363.3Z" fill="#eb5a24"/>
          </g>
          <path id="Path_7724" data-name="Path 7724" d="M1337.671,1376.621v31.835a.727.727,0,0,0,.726.727h27.827a.727.727,0,0,0,.726-.727v-31.835a.726.726,0,0,0-.726-.726H1338.4A.726.726,0,0,0,1337.671,1376.621Zm19.456,4.735v8.209a.726.726,0,0,1-.726.726h-8.181a.726.726,0,0,1-.726-.726v-8.209a.726.726,0,0,1,.726-.727h8.181A.726.726,0,0,1,1357.127,1381.356Zm-9.633,22.063v-7.667a.726.726,0,0,1,.726-.726h8.181a.726.726,0,0,1,.726.726v7.667a.726.726,0,0,1-.726.726h-8.181A.726.726,0,0,1,1347.494,1403.419Z" fill="#eb5a24"/>
        </g>
        <g id="Group_1829" data-name="Group 1829">
          <path id="Path_7725" data-name="Path 7725" d="M1195.98,1383.111l7.135,16.191a.725.725,0,0,0,.864.405l6.866-1.962a.725.725,0,0,0,.462-1l-10.737-23.622a.726.726,0,0,0-1.347.063l-3.264,9.392A.728.728,0,0,0,1195.98,1383.111Z" fill="#eb5a24"/>
          <path id="Path_7726" data-name="Path 7726" d="M1205.131,1352.526l1.148-3.292a.727.727,0,0,0-.481-.936l-7.587-2.223a.725.725,0,0,0-.893.467l-2.15,6.453a.727.727,0,0,1-.689.5h-25.12a.726.726,0,0,0-.726.726v54.093a.727.727,0,0,0,.726.727h8.937a.727.727,0,0,0,.726-.727v-41.64a.726.726,0,0,1,.727-.726h10.1a.726.726,0,0,1,.689.955l-9.8,29.424a.726.726,0,0,0,.489.928l6.9,1.97a.725.725,0,0,0,.885-.459l11.279-32.331a.726.726,0,0,1,.686-.487h11.179a.727.727,0,0,1,.727.726v41.64a.727.727,0,0,0,.726.727h10.694a.728.728,0,0,0,.727-.727v-54.093a.727.727,0,0,0-.727-.726h-18.476A.726.726,0,0,1,1205.131,1352.526Z" fill="#eb5a24"/>
        </g>
      </g>
    </g>
  </g>
</svg>
