<svg xmlns="http://www.w3.org/2000/svg" width="95.596" height="66.166" viewBox="0 0 95.596 66.166">
  <g id="Group_1816" data-name="Group 1816" transform="translate(-1061.41 -622.494)">
    <path id="Path_7691" data-name="Path 7691" d="M1136.124,644.961l16.229,4.152-17.362,1.51" fill="none" stroke="#80bf00" stroke-linecap="round" stroke-linejoin="round" stroke-width="3"/>
    <path id="Path_7692" data-name="Path 7692" d="M1119.139,644.961s3.4-6.039,9.059-4.906,7.548,4.151,7.548,7.548-3.774,7.549-7.548,7.549-8.681-3.774-8.681-3.774-4.152,2.264-6.039,4.906-7.549,9.436-15.475,8.681-15.474-3.019-19.626-11.7c0,0-10.568-.378-12.455-.755s-5.284-5.662-.755-6.039,13.965-.377,13.965-.377-9.813-4.907-7.926-7.549l1.887-2.642s-3.02-3.02-1.51-5.284c0,0-1.51-4.907,1.51-6.416s4.529,3.019,8.681,6.793,16.984,10.946,19.626,13.21a12.289,12.289,0,0,1,3.4,4.152Z" fill="none" stroke="#80bf00" stroke-linecap="round" stroke-linejoin="round" stroke-width="3"/>
    <path id="Path_7693" data-name="Path 7693" d="M1139.52,651s-11.135,13.85-13.587,18.117c-3.9,6.789-.314,19.543,14.432,19.543,14.347,0,18.732-11.16,15.762-17.656-1.671-3.657-10.835-15.743-14.965-20.207C1139.81,649.336,1137.575,651,1139.52,651Z" fill="#80bf00"/>
    <path id="Path_7694" data-name="Path 7694" d="M1140.365,653.189s-5.136,9.787-5,12.531c.213,4.208,8.681,3.4,9.058.377S1140.365,653.189,1140.365,653.189Z" fill="#fff"/>
  </g>
</svg>
