<svg xmlns="http://www.w3.org/2000/svg" width="246.554" height="42.982" viewBox="0 0 246.554 42.982">
  <g id="Group_1461" data-name="Group 1461" transform="translate(-7188.723 -144.355)">
    <path id="Path_5020" data-name="Path 5020" d="M7435.166,161.984A10.445,10.445,0,0,0,7425,151.851a13.016,13.016,0,0,0-9.789,3.127c-1.11.985-1.653,1.192-2.935.026-4.195-3.817-9.287-4.276-14.267-1.582-1.026.554-1.615,1.3-3.083.17-2.431-1.866-4.469-.552-4.568,2.676-.091,3-.019,6-.02,9,0,2.751.014,5.5-.006,8.252-.014,1.938-.133,3.971,2.628,4.053,2.983.088,2.87-2,2.94-4.123.124-3.724-.664-7.523.666-11.159a7.593,7.593,0,0,1,7.905-5.1c3.057.441,4.762,2.814,4.858,6.985q.119,5.061,0,10.127c-.051,2.171.528,3.786,3,3.84s3.137-1.512,3.108-3.71a96.573,96.573,0,0,1,.131-10.12,7.9,7.9,0,0,1,8.171-7.211c3.665.224,5.354,2.486,5.466,7.519.078,3.5-.014,7,.049,10.5a2.767,2.767,0,0,0,3.06,3.04c2-.013,2.952-1.041,2.931-3.058C7435.2,170.734,7435.386,166.349,7435.166,161.984Z" fill="#fff"/>
    <path id="Path_5021" data-name="Path 5021" d="M7331.81,153.086c-1.874.958-3.116.53-4.765-.058a12.293,12.293,0,0,0-13.674,3.622c-3.422,4.223-3.81,11.358-.886,16.26,2.459,4.12,7.138,6.168,12.347,5.229a40.547,40.547,0,0,0,4.938-1.543c-1.173,5.485-6.527,7.294-11.69,4.014-1.888-1.2-3.749-2.152-5.137.183-1.3,2.184.622,3.4,2.2,4.449,4.336,2.871,11.837,2.772,16.107-.181,2.384-1.648,4.1-3.86,4.17-6.773.168-7.489.154-14.984.109-22.476C7335.516,153.435,7333.827,152.056,7331.81,153.086Zm-8.93,20.392c-4.034.043-6.915-3.349-6.949-8.178-.034-4.882,2.972-8.255,7.308-8.2,4.745.059,6.792,2.511,6.793,8.136C7330.033,170.96,7327.894,173.426,7322.88,173.478Z" fill="#fff"/>
    <path id="Path_5022" data-name="Path 5022" d="M7271.814,144.9c-1.956-.008-3.053.9-3.018,2.962.031,1.822.007,3.645.007,5.335-1.016.4-1.478-.111-2.032-.359-5.824-2.6-11.976-1.29-15.647,3.326-3.858,4.849-3.782,13.645.16,18.546,3.66,4.551,9.642,5.658,15.652,2.792,1.1-.524,1.592-.71,2.76.285,2.448,2.087,5.132.839,5.166-2.28.1-9.232.028-18.465.042-27.7C7274.907,145.725,7273.723,144.913,7271.814,144.9Zm-10.171,28.5c-3.985.015-6.885-3.45-6.912-8.258-.025-4.691,2.876-8,7.058-8.058,4.744-.064,6.977,2.492,6.98,7.989C7268.772,170.758,7266.521,173.389,7261.643,173.408Z" fill="#fff"/>
    <path id="Path_5023" data-name="Path 5023" d="M7201.386,151.016c-2.338.15-4.214,1.387-6.678,2.612,0-2.429.01-4.3,0-6.163-.014-2.172-1.146-3.176-3.313-3.107-2.137.067-2.68,1.292-2.669,3.218q.078,13.668.006,27.336c0,1.353.183,2.536,1.608,3.035,1.236.434,2.712.572,3.44-.621.985-1.613,1.767-.964,2.952-.36,5.484,2.795,10.585,2.273,14.272-1.332,4.165-4.071,5.383-12.086,2.711-17.835C7211.5,153.047,7207.045,150.651,7201.386,151.016Zm.037,21.84c-4.493.145-7.214-2.473-7.239-6.964-.036-6.5,2.016-9.348,6.749-9.358,4.121-.009,7.122,3.322,7.164,7.949C7208.141,169.334,7205.437,172.727,7201.423,172.856Z" fill="#fff"/>
    <path id="Path_5024" data-name="Path 5024" d="M7383.81,155.5c-.09-2.648-2.178-4.157-4.247-2.751-1.734,1.18-2.737.664-4.253.022a12.318,12.318,0,0,0-14.345,3.45c-3.769,4.715-3.911,13-.306,17.949,3.067,4.207,8.772,5.67,14.25,3.559,1.588-.611,2.784-1.373,4.654-.014,2,1.45,4.144-.072,4.24-2.725.117-3.245.028-6.5.03-9.745S7383.92,158.747,7383.81,155.5Zm-13.072,17.974c-4.1.043-6.756-3.159-6.774-8.158-.02-5.114,2.694-8.252,7.109-8.219,4.72.036,6.646,2.388,6.647,8.117C7377.721,171.047,7375.711,173.424,7370.738,173.476Z" fill="#fff"/>
    <path id="Path_5025" data-name="Path 5025" d="M7231.527,151.8c-8.077.045-13.469,5.378-13.5,13.35-.031,8.1,5.573,13.65,13.7,13.565,7.968-.083,13.562-5.59,13.607-13.394C7245.384,157.326,7239.689,151.751,7231.527,151.8Zm.031,21.741c-4.378-.034-7.432-3.374-7.453-8.149-.021-5.076,2.96-8.347,7.579-8.316,4.551.03,7.6,3.452,7.516,8.433C7239.12,170.174,7235.889,173.57,7231.558,173.537Z" fill="#fff"/>
    <path id="Path_5026" data-name="Path 5026" d="M7304.61,152.781c-2.375-1.288-3.673.337-4.671,2.293-2.322,4.55-4.678,9.083-7.282,14.129-2.741-5.26-5.161-9.9-7.573-14.54-.9-1.732-2.192-2.95-4.2-2-2.217,1.05-2,2.848-.99,4.749,2.055,3.856,3.754,7.935,6.149,11.566,2.894,4.388,3.653,8.394.229,12.81-1.294,1.669-1.872,3.89.618,5.091,2.474,1.192,3.654-.812,4.594-2.621,4.6-8.856,9.141-17.743,13.731-26.6C7306.149,155.847,7306.8,153.969,7304.61,152.781Z" fill="#fff"/>
    <path id="Path_5027" data-name="Path 5027" d="M7352.821,152.76c-2.58.009-5.159,3.751-7.412-.05-2.448.256-3.382,1.376-3.361,3.518.058,6,.045,12,.005,18-.013,1.884.559,3.281,2.646,3.346,2.32.072,2.912-1.428,2.918-3.459.012-3.5-.043-7.007.264-10.482.285-3.233,1.625-5.757,5.561-5.813,1.686-.024,2.962-.984,2.745-2.845C7355.967,153.092,7354.481,152.754,7352.821,152.76Z" fill="#fff"/>
  </g>
</svg>
