<svg xmlns="http://www.w3.org/2000/svg" width="154.72" height="322.404" viewBox="0 0 154.72 322.404">
  <g id="Group_1449" data-name="Group 1449" transform="translate(-8150.629 -751.24)">
    <path id="Path_4965" data-name="Path 4965" d="M8300.84,905.329c-4.6-7.894-7.894-23.025-9.868-28.945s-7.894-19.078-10.524-26.314-5.921-11.842-7.237-17.1-4.462-11.44-9.867-15.131a81.753,81.753,0,0,0-19.078-9.21c-5.921-1.973-6.579-3.779-7.235-8.139a19.528,19.528,0,0,1,0-6.991s5.262-4.513,5.92-10.479c.065-.595.123-1.26.174-1.958,1.384-.493,1.96-3.059,2.727-5.249.833-2.38.476-3.927-.834-4.879-.937-.683-1.443-.083-1.656.312a49.068,49.068,0,0,0-1.068-10.639c-1.246-4.362-8.219-8.717-13.786-9.166-.031-.01-.06-.044-.091-.044-.135,0-.277.015-.414.02s-.279-.02-.414-.02c-.031,0-.06.034-.091.044-5.567.449-12.54,4.8-13.786,9.166a49.04,49.04,0,0,0-1.068,10.643c-.212-.395-.718-1-1.659-.316-1.31.952-1.666,2.5-.833,4.879.767,2.192,1.343,4.759,2.728,5.25.052.7.109,1.362.175,1.957.658,5.966,5.92,10.479,5.92,10.479a19.528,19.528,0,0,1,0,6.991c-.656,4.36-1.315,6.166-7.235,8.139a81.753,81.753,0,0,0-19.078,9.21c-5.405,3.691-8.552,9.868-9.867,15.131s-4.6,9.867-7.237,17.1-8.552,20.393-10.525,26.314-5.263,21.051-9.868,28.945-4.6,19.078-3.947,24.34,7.236,5.921,9.21,5.263-4.6-9.21-2.631-13.815,2.631,1.316,2.631,6.579,3.289-.658,3.947-6.579-1.316-11.841,0-15.788,9.21-15.788,11.183-21.051,1.974-10.526,3.892-14.473,5.976-5.921,8.608-9.868,7.894-15.13,9.867-15.788,1.974,21.051,1.974,28.946a105.976,105.976,0,0,1-1.315,17.1c-.658,4.6-4.605,28.288-5.921,38.814s1.974,44.075,3.29,52.627-1.316,15.131-2.632,21.709,1.315,17.1,1.693,25.656,2.911,21.051,2.911,24.484-2.631,8.409-7.236,11.7-6.579,7.236-1.974,7.894,16.446.658,18.42-1.316-1.315-12.5-.658-21.051,3.947-18.419,6.579-28.945.658-25.656.658-30.919,3.946-15.13,5.262-21.709,4.605-19.077,5.264-29.6c.41-6.571,2.358-10.321,3.766-12.212,1.407,1.891,3.355,5.641,3.766,12.212.658,10.526,3.947,23.025,5.264,29.6s5.262,16.446,5.262,21.709-1.973,20.393.658,30.919,5.921,20.393,6.579,28.945-2.632,19.078-.658,21.051,13.814,1.974,18.42,1.316,2.631-4.6-1.974-7.894-7.236-8.265-7.236-11.7,2.532-15.932,2.911-24.484,3.01-19.077,1.693-25.656-3.946-13.157-2.632-21.709,4.605-42.1,3.29-52.627-5.263-34.209-5.921-38.814a105.976,105.976,0,0,1-1.315-17.1c0-7.895,0-29.6,1.974-28.946s7.236,11.841,9.867,15.788,6.688,5.921,8.607,9.868,1.918,9.21,3.893,14.473,9.867,17.1,11.183,21.051-.658,9.868,0,15.788,3.947,11.842,3.947,6.579.658-11.184,2.631-6.579-4.605,13.157-2.631,13.815,8.552,0,9.21-5.263S8305.445,913.223,8300.84,905.329Z" fill="#80bf00" stroke="#fff" stroke-miterlimit="10" stroke-width="0.306"/>
    <path id="Path_4966" data-name="Path 4966" d="M8263.3,945.722c0-6.333.634-21.534-.633-30.4s-5.7-22.168-5.7-22.168l-29.113.55-29.113-.55s-4.435,13.3-5.7,22.168-.633,24.067-.633,30.4-1.267,20.267-1.267,20.267h2.534l25.3,3.151s4.472-19.618,5.105-24.684c.616-4.929,2.065-16.5,3.779-17.1,1.713.6,3.163,12.174,3.779,17.1.633,5.066,5.1,24.684,5.1,24.684l25.3-3.151h2.533S8263.3,952.056,8263.3,945.722Z" fill="#70a423" stroke="#fff" stroke-miterlimit="10" stroke-width="0.306"/>
    <path id="Path_4967" data-name="Path 4967" d="M8263.3,853.887l16.468-12.034s-5.7-11.4-7.6-15.834-8.867-10.767-14.567-12.667-16.467-5.7-16.467-5.7c-1.526,3.056-10.012,5.291-13.279,6.05-3.268-.759-11.753-2.994-13.28-6.05,0,0-10.768,3.8-16.467,5.7s-12.667,8.234-14.567,12.667-7.6,15.834-7.6,15.834l16.467,12.034,5.512-9.738s2.088,28.738,1.455,35.705a92.707,92.707,0,0,1-2.534,13.934,105.3,105.3,0,0,0,22.322,5.809,25.554,25.554,0,0,0,4.636.441c.942.053,1.88.083,2.811.083q.647,0,1.246,0t1.246,0c.931,0,1.868-.03,2.811-.083a25.554,25.554,0,0,0,4.636-.441,105.28,105.28,0,0,0,22.321-5.809,92.774,92.774,0,0,1-2.533-13.934c-.634-6.967,1.454-35.705,1.454-35.705Z" fill="#bcdd78" stroke="#fff" stroke-miterlimit="10" stroke-width="0.227"/>
  </g>
</svg>
