<svg xmlns="http://www.w3.org/2000/svg" width="90.213" height="71.023" viewBox="0 0 90.213 71.023">
  <g id="Group_1361" data-name="Group 1361" transform="translate(-10194.434 -1591.7)">
    <path id="Path_4180" data-name="Path 4180" d="M10275.34,1662.723h-71.6a9.318,9.318,0,0,1-9.308-9.306v-41.865a9.318,9.318,0,0,1,9.308-9.306h.381v-2.484a2.792,2.792,0,0,1,2.789-2.789h4.358a2.792,2.792,0,0,1,2.789,2.789v2.484h6.5a12.572,12.572,0,0,1,12.368-10.546h13.222a12.57,12.57,0,0,1,12.367,10.546h16.821a9.318,9.318,0,0,1,9.307,9.306v41.865A9.318,9.318,0,0,1,10275.34,1662.723Zm-71.6-57.131a5.967,5.967,0,0,0-5.961,5.96v41.865a5.967,5.967,0,0,0,5.961,5.96h71.6a5.966,5.966,0,0,0,5.96-5.96v-41.865a5.966,5.966,0,0,0-5.96-5.96H10257a1.672,1.672,0,0,1-1.672-1.625,9.247,9.247,0,0,0-9.176-8.921h-13.222a9.246,9.246,0,0,0-9.176,8.921,1.673,1.673,0,0,1-1.672,1.625h-18.341Z" fill="#fff"/>
    <g id="Group_1360" data-name="Group 1360">
      <path id="Path_4181" data-name="Path 4181" d="M10229.4,1617.291s7.083-7.45,17.463-4.885c8.454,2.089,12.09,9.159,12.944,16.853l6.473-1.466-9.4,13.8-11.357-11.724h6.961s.608-7-3.053-10.38c-3.176-2.931-8.793-4.274-12.457-3.908a19.306,19.306,0,0,0-6.839,2.2S10228.786,1618.268,10229.4,1617.291Z" fill="#fff"/>
      <path id="Path_4182" data-name="Path 4182" d="M10252.722,1644.89s-7.083,7.45-17.464,4.885c-8.454-2.089-12.09-9.159-12.943-16.853l-6.474,1.466,9.4-13.8,11.357,11.724h-6.961s-.608,7,3.054,10.38c3.175,2.931,8.793,4.274,12.456,3.908a19.306,19.306,0,0,0,6.839-2.2S10253.332,1643.913,10252.722,1644.89Z" fill="#fff"/>
    </g>
  </g>
</svg>
