<svg xmlns="http://www.w3.org/2000/svg" width="555.127" height="297.108" viewBox="0 0 555.127 297.108">
  <g id="Group_1937" data-name="Group 1937" transform="translate(-73.636 -1220.947)">
    <g id="Group_1487" data-name="Group 1487" transform="translate(-6937 -2.44)">
      <path id="Path_5223" data-name="Path 5223" d="M7010.709,1428.99c.736-.024,1.3-.024,2.01-.049.294-.416.686-.931,1.348-1.911a22.226,22.226,0,0,0-3.431-3.308l1.25-1.887c.22.147.441.343.686.514a28.474,28.474,0,0,0,2.279-4.117l2.181.907a27.5,27.5,0,0,1-2.769,4.73c.172.171.612.637,1.127,1.2a34.108,34.108,0,0,0,2.475-4.19l2.181.956a48.741,48.741,0,0,1-4.631,6.959c.906-.049,1.837-.122,2.72-.2a12.829,12.829,0,0,0-.711-1.789l2.01-.686a38.305,38.305,0,0,1,1.936,4.656l-2.28.76c-.1-.392-.147-.539-.294-1-.539.074-1.151.147-1.739.221v10.611h-2.451V1431c-.539.049-3.284.269-3.9.318Zm3.137,3.823a36.939,36.939,0,0,1-.931,7.033l-2.279-.833a25.226,25.226,0,0,0,1-6.543Zm5.857-.49a31.094,31.094,0,0,1,1.128,5.636l-2.28.368a47.869,47.869,0,0,0-.808-5.636Zm6.788-13.8a25.7,25.7,0,0,1-.931,3.235h7.376c-.2,11.518-.269,15.586-.907,17.742a2.27,2.27,0,0,1-2.132,1.863h-5.366l-.49-2.622h4.435c.956,0,1.2-.221,1.373-1.152.416-2.3.539-11.1.514-13.429h-5.832a14.936,14.936,0,0,1-2.647,3.8l-1.813-2.034a16.406,16.406,0,0,0,3.8-7.621Zm-1.764,9.092a21.164,21.164,0,0,1,3.039,5.857l-2.28,1.2a28.462,28.462,0,0,0-2.965-5.931Z" fill="#80bf00"/>
      <path id="Path_5224" data-name="Path 5224" d="M7046.272,1422.031c-.564-.025-.612-.049-.857-.049-4.117,0-6.151,2.867-6.936,6.665a6.071,6.071,0,0,1,4.657-2.083,6.22,6.22,0,0,1,6.346,6.347,6.561,6.561,0,0,1-6.738,6.641c-3.113,0-7.23-1.985-7.23-8.773,0-5.366,2.99-11.444,9.778-11.444a7.062,7.062,0,0,1,.98.049Zm-3.528,7.131c-1.888,0-4.216,1.2-4.216,3.651a4.092,4.092,0,0,0,4.142,4.093,3.734,3.734,0,0,0,3.9-3.872A3.6,3.6,0,0,0,7042.744,1429.162Z" fill="#80bf00"/>
      <path id="Path_5225" data-name="Path 5225" d="M7051.813,1429.431c0-1.887,0-10.1,6.862-10.1s6.862,8.234,6.862,10.1c0,1.887,0,10.121-6.862,10.121S7051.813,1431.318,7051.813,1429.431Zm10.808,0c0-3.749-.711-7.449-3.946-7.449s-3.945,3.725-3.945,7.449c0,3.946.809,7.475,3.945,7.475C7061.91,1436.906,7062.621,1433.132,7062.621,1429.431Z" fill="#80bf00"/>
      <path id="Path_5226" data-name="Path 5226" d="M7074.043,1430.534v2.72h-6.616v-2.72Z" fill="#80bf00"/>
      <path id="Path_5227" data-name="Path 5227" d="M7089.7,1433.45c0,3.578-3.137,6.1-6.911,6.1s-6.91-2.524-6.91-6.1a5.632,5.632,0,0,1,3.21-5.121,4.58,4.58,0,0,1-2.132-3.946c0-2.891,2.279-5.048,5.832-5.048,3.529,0,5.833,2.157,5.833,5.048a4.582,4.582,0,0,1-2.132,3.946A5.632,5.632,0,0,1,7089.7,1433.45Zm-2.916-.049c0-1.421-.98-3.48-4-3.48-2.989,0-3.994,2.035-3.994,3.48a4.029,4.029,0,0,0,7.989,0Zm-.98-8.9a3.032,3.032,0,0,0-6.029-.025,3.032,3.032,0,0,0,6.029.025Z" fill="#80bf00"/>
      <path id="Path_5228" data-name="Path 5228" d="M7092.108,1429.431c0-1.887,0-10.1,6.862-10.1s6.862,8.234,6.862,10.1c0,1.887,0,10.121-6.862,10.121S7092.108,1431.318,7092.108,1429.431Zm10.808,0c0-3.749-.711-7.449-3.946-7.449s-3.945,3.725-3.945,7.449c0,3.946.808,7.475,3.945,7.475C7102.205,1436.906,7102.916,1433.132,7102.916,1429.431Z" fill="#80bf00"/>
      <path id="Path_5229" data-name="Path 5229" d="M7052.878,1460.724a9,9,0,0,1-4.338,1.005c-4.925,0-7.6-3.21-7.6-7.548,0-4.779,3.284-7.744,7.475-7.744a8.045,8.045,0,0,1,4.46,1.274l-.735,2.476a5.435,5.435,0,0,0-3.554-1.25c-2.671,0-4.9,1.74-4.9,5.146,0,2.794,1.52,5.122,4.975,5.122a7.79,7.79,0,0,0,4.215-1.275Z" fill="#80bf00"/>
      <path id="Path_5230" data-name="Path 5230" d="M7064.006,1461.337v-8.381c0-1.863-.2-4.019-2.426-4.019-1.274,0-3.333.833-3.333,3.921v8.479h-2.72v-14.508h2.671v1.765a4.641,4.641,0,0,1,3.994-2.157,4.067,4.067,0,0,1,3.921,2.475,5.038,5.038,0,0,1,4.534-2.475,4.3,4.3,0,0,1,4.019,2.255,8.481,8.481,0,0,1,.637,3.774v8.871h-2.745v-9.043c0-1.789-.563-3.357-2.524-3.357-1.127,0-3.284.612-3.284,4.288v8.112Z" fill="#80bf00"/>
    </g>
    <g id="Group_1488" data-name="Group 1488" transform="translate(-6937 -2.44)">
      <path id="Path_5231" data-name="Path 5231" d="M7290.645,1408.828c.735-.025,1.3-.025,2.009-.049.294-.417.686-.931,1.348-1.912a22.316,22.316,0,0,0-3.431-3.308l1.25-1.887c.22.147.441.343.686.515a28.421,28.421,0,0,0,2.279-4.117l2.181.907a27.431,27.431,0,0,1-2.769,4.729c.171.172.613.637,1.127,1.2a34.012,34.012,0,0,0,2.475-4.19l2.181.955a48.726,48.726,0,0,1-4.631,6.96c.907-.049,1.837-.123,2.72-.2a12.829,12.829,0,0,0-.711-1.789l2.009-.686a38.113,38.113,0,0,1,1.937,4.656l-2.28.759c-.1-.392-.146-.539-.294-1-.539.073-1.151.147-1.74.22V1421.2h-2.45v-10.366c-.539.049-3.284.27-3.9.319Zm3.136,3.823a36.944,36.944,0,0,1-.93,7.033l-2.28-.833a25.214,25.214,0,0,0,1.005-6.543Zm5.858-.49a31.085,31.085,0,0,1,1.127,5.636l-2.28.368a47.791,47.791,0,0,0-.808-5.637Zm6.787-13.8a25.776,25.776,0,0,1-.931,3.235h7.376c-.2,11.517-.269,15.585-.906,17.742a2.27,2.27,0,0,1-2.133,1.862h-5.366l-.49-2.622h4.435c.956,0,1.2-.22,1.372-1.152.417-2.3.539-11.1.515-13.429h-5.832a14.937,14.937,0,0,1-2.647,3.8l-1.813-2.034a16.417,16.417,0,0,0,3.8-7.621Zm-1.764,9.092a21.121,21.121,0,0,1,3.038,5.857l-2.278,1.2a28.536,28.536,0,0,0-2.966-5.93Z" fill="#80bf00"/>
      <path id="Path_5232" data-name="Path 5232" d="M7321.943,1399.565h2.574V1419h-2.941V1402.75l-3.627,2.5-.392-2.72Z" fill="#80bf00"/>
      <path id="Path_5233" data-name="Path 5233" d="M7343.83,1402.211h-8.111v4.975a7.39,7.39,0,0,1,2.794-.49c4.165,0,6.861,2.769,6.861,6.249,0,3.063-2.206,6.445-7.671,6.445a12.088,12.088,0,0,1-5.954-1.52l.809-2.671a8.865,8.865,0,0,0,5.121,1.544c3.75,0,4.779-2.205,4.779-3.823,0-2.279-1.862-3.651-4.142-3.651a4.238,4.238,0,0,0-2.794.931H7333v-10.635h10.832Z" fill="#80bf00"/>
      <path id="Path_5234" data-name="Path 5234" d="M7347.926,1409.269c0-1.887,0-10.1,6.861-10.1s6.861,8.233,6.861,10.1c0,1.887,0,10.121-6.861,10.121S7347.926,1411.156,7347.926,1409.269Zm10.806,0c0-3.749-.711-7.45-3.945-7.45s-3.945,3.725-3.945,7.45c0,3.945.808,7.474,3.945,7.474C7358.021,1416.743,7358.732,1412.969,7358.732,1409.269Z" fill="#80bf00"/>
      <path id="Path_5235" data-name="Path 5235" d="M7370.155,1410.372v2.72h-6.616v-2.72Z" fill="#80bf00"/>
      <path id="Path_5236" data-name="Path 5236" d="M7378.415,1399.565h2.573V1419h-2.94V1402.75l-3.627,2.5-.393-2.72Z" fill="#80bf00"/>
      <path id="Path_5237" data-name="Path 5237" d="M7390.132,1416.2a6.9,6.9,0,0,0,2.72.539c4,0,5.734-2.941,6.224-6.69a5.988,5.988,0,0,1-4.656,2.083,6.147,6.147,0,0,1-6.322-6.3,6.565,6.565,0,0,1,6.788-6.665c2.132,0,7.156.931,7.156,8.871,0,6.665-3.382,11.346-9.092,11.346a6.914,6.914,0,0,1-2.818-.49Zm4.705-6.641a3.948,3.948,0,0,0,4.142-3.823,3.885,3.885,0,0,0-4.044-3.921,3.835,3.835,0,0,0-3.921,3.921A3.629,3.629,0,0,0,7394.837,1409.563Z" fill="#80bf00"/>
      <path id="Path_5238" data-name="Path 5238" d="M7404.4,1409.269c0-1.887,0-10.1,6.862-10.1s6.861,8.233,6.861,10.1c0,1.887,0,10.121-6.861,10.121S7404.4,1411.156,7404.4,1409.269Zm10.807,0c0-3.749-.711-7.45-3.945-7.45s-3.946,3.725-3.946,7.45c0,3.945.809,7.474,3.946,7.474C7414.493,1416.743,7415.2,1412.969,7415.2,1409.269Z" fill="#80bf00"/>
      <path id="Path_5239" data-name="Path 5239" d="M7348.989,1440.562a8.994,8.994,0,0,1-4.337,1c-4.925,0-7.6-3.21-7.6-7.547,0-4.779,3.283-7.744,7.473-7.744a8.03,8.03,0,0,1,4.46,1.274l-.735,2.475a5.431,5.431,0,0,0-3.553-1.25c-2.671,0-4.9,1.74-4.9,5.147,0,2.793,1.519,5.121,4.974,5.121a7.784,7.784,0,0,0,4.215-1.274Z" fill="#80bf00"/>
      <path id="Path_5240" data-name="Path 5240" d="M7360.118,1441.174v-8.381c0-1.862-.2-4.019-2.426-4.019-1.274,0-3.333.834-3.333,3.921v8.479h-2.72v-14.507h2.672v1.764a4.643,4.643,0,0,1,3.994-2.156,4.067,4.067,0,0,1,3.921,2.475,5.036,5.036,0,0,1,4.533-2.475,4.3,4.3,0,0,1,4.019,2.254,8.472,8.472,0,0,1,.637,3.774v8.871h-2.744v-9.042c0-1.789-.565-3.358-2.525-3.358-1.126,0-3.284.613-3.284,4.289v8.111Z" fill="#80bf00"/>
    </g>
    <g id="Group_1493" data-name="Group 1493" transform="translate(-6937 -2.44)">
      <g id="Group_1491" data-name="Group 1491">
        <rect id="Rectangle_329" data-name="Rectangle 329" width="113.529" height="281.721" transform="translate(7437.652 1236.774)" fill="none" stroke-dasharray="0.1 12" stroke-linecap="round" stroke-linejoin="round" stroke-width="4" stroke="#80bf00"/>
        <g id="Group_1489" data-name="Group 1489">
          <path id="Path_5241" data-name="Path 5241" d="M7564.016,1226.881h-4.586a1.747,1.747,0,0,1-1.747-1.747,1.747,1.747,0,0,0-1.747-1.747h-8.954a1.748,1.748,0,0,0-1.748,1.747,1.747,1.747,0,0,1-1.747,1.747H7538.9a1.747,1.747,0,0,0-1.747,1.747v19a1.747,1.747,0,0,0,1.747,1.747h25.115a1.747,1.747,0,0,0,1.747-1.747v-19A1.747,1.747,0,0,0,7564.016,1226.881Zm-12.885,18.345a7.643,7.643,0,1,1,7.644-7.644A7.644,7.644,0,0,1,7551.131,1245.226Z" fill="#80bf00"/>
          <circle id="Ellipse_139" data-name="Ellipse 139" cx="7.644" cy="7.644" r="7.644" transform="translate(7543.488 1229.939)" fill="#fff"/>
        </g>
        <g id="Group_1490" data-name="Group 1490">
          <path id="Path_5242" data-name="Path 5242" d="M7487.257,1265.61s-2.673,3.118-2.673,4.9.445,4.9-1.782,6.236-3.118,2.672-1.781,4.009.891,4.454,1.336,6.681,1.336,5.345,3.563,4.9,3.564-.446,4.009,1.781a51.38,51.38,0,0,1,.891,7.127c0,1.336-8.961,10.69-11.188,17.817s-1.835,10.69-1.389,17.817,3.118,26.725,4.9,31.625,0,13.362.446,26.28,3.118,23.161,3.563,26.725-.445,8.463,1.782,10.69,4.454,13.808,4.9,18.262,2.647,22.271,3.092,25.835-4.454,9.8-6.681,10.69-8.018,4.454-11.136,4.009-7.127,1.781-3.118,4.008,5.791,3.118,10.245,2.228,11.581-3.564,15.144-2.673,7.572,0,8.018-2.227-4.454-7.572-4.009-12.917,2.227-15.59,2.673-20.044,1.362-12.472.471-19.6-2.672-11.581-2.672-17.817-.891-9.8.445-15.59,1.835-15.589,4.062-19.153,5.79-10.244,3.563-16.48-7.572-7.127-3.118-26.28c1.727-7.426,7.18-24.5,5.4-32.516s-8.463-11.135-10.245-15.144-1.781-8.018-.891-10.245,6.236-5.79,5.345-12.472-.445-8.908-3.117-11.135-5.346-2.673-8.909-2.673-6.236-1.336-9.354.446A3.869,3.869,0,0,0,7487.257,1265.61Z" fill="#80bf00"/>
          <path id="Path_5243" data-name="Path 5243" d="M7482.412,1363.291v12.195c0,3.626.33,25.71.989,30.654a85.5,85.5,0,0,1,.659,9.888s6.263,3.626,12.855,3.626a18.673,18.673,0,0,0,10.547-2.967s.66-14.832,1.978-18.458,4.944-13.843,5.6-17.469.66-9.888-2.307-14.5a27.916,27.916,0,0,1-3.626-7.251Z" fill="#70a423" stroke="#fff" stroke-miterlimit="10" stroke-width="0.227"/>
          <path id="Path_5244" data-name="Path 5244" d="M7480.434,1355.646l1.319,9.229s1.318,2.307,10.218.988a71.912,71.912,0,0,0,17.8-5.6s0-3.626.329-8.9,5.274-22.084,5.933-27.028,1.978-14.173-2.307-19.118a83.89,83.89,0,0,1-5.6-6.921s-2.967,4.285-9.889,5.6-9.229-1.978-9.229-1.978-11.536,12.526-11.866,22.084a129.047,129.047,0,0,0,.989,21.754A61.924,61.924,0,0,0,7480.434,1355.646Z" fill="#bcdd78" stroke="#fff" stroke-miterlimit="10" stroke-width="0.227"/>
          <path id="Path_5245" data-name="Path 5245" d="M7497.9,1330.659s.659,10.548.659,13.185-1.648,8.24-1.978,18.128.989,13.184,0,15.821-4.614,6.922-3.3,9.229,1.319-1.318,2.307-2.966,1.978-1.648,1.649,2.307-1.319,8.57,2.307,9.559,5.6-4.944,6.262-9.229-3.625-9.888-2.637-13.185,4.285-17.8,4.615-21.424-.659-6.592,0-8.9,3.3-14.832,3.3-14.832" fill="#80bf00" stroke="#fff" stroke-miterlimit="10" stroke-width="0.227"/>
          <path id="Path_5246" data-name="Path 5246" d="M7498.383,1311.984a27.6,27.6,0,0,0-2.9,9.481,51.406,51.406,0,0,0,.181,10.9,45.6,45.6,0,0,0,9.683,1.235,22.136,22.136,0,0,0,6.876-.862s1.69-8.065,1.334-12.666.781-7-1.369-9.151" fill="#bcdd78" stroke="#fff" stroke-miterlimit="10" stroke-width="0.227"/>
        </g>
      </g>
      <line id="Line_262" data-name="Line 262" x2="165.607" transform="translate(7266.668 1385.026)" fill="none" stroke="#80bf00" stroke-linecap="round" stroke-linejoin="round" stroke-width="3.502"/>
      <rect id="Rectangle_330" data-name="Rectangle 330" width="4.52" height="44.697" rx="2.26" transform="translate(7250.922 1347.842)" fill="#80bf00"/>
      <line id="Line_263" data-name="Line 263" y2="121.17" transform="translate(7120.069 1373.89)" fill="none" stroke="#80bf00" stroke-linecap="round" stroke-linejoin="round" stroke-width="3.502"/>
      <g id="Group_1492" data-name="Group 1492">
        <line id="Line_264" data-name="Line 264" y1="26.384" x2="1.954" transform="translate(7252.965 1302.556)" fill="none" stroke="#80bf00" stroke-linecap="round" stroke-linejoin="round" stroke-width="4.669"/>
        <line id="Line_265" data-name="Line 265" y1="24.193" x2="10.706" transform="translate(7267.841 1308.673)" fill="none" stroke="#80bf00" stroke-linecap="round" stroke-linejoin="round" stroke-width="4.669"/>
        <line id="Line_266" data-name="Line 266" y1="15.578" x2="21.383" transform="translate(7275.766 1325.873)" fill="none" stroke="#80bf00" stroke-linecap="round" stroke-linejoin="round" stroke-width="4.669"/>
      </g>
      <path id="Path_5247" data-name="Path 5247" d="M7218.433,1364.005s4.117,3.774,4.117,6.862-1.715,5.833-.343,7.892,2.745,4.117,1.373,4.8-.687-1.715-1.373.686-2.058,3.774-2.058,5.147a5.4,5.4,0,0,1-4.118,4.46c-2.4.343-3.774-1.715-5.832-.343a51.476,51.476,0,0,0-5.49,4.8,41.972,41.972,0,0,1,3.431,4.118c2.059,2.744,13.724,14.41,15.1,16.125s4.8.686,7.205-2.745,6.519-8.92,10.293-11.665,4.8-5.49,4.46-8.577-.343-7.892,1.372-10.293,2.4,4.46,2.4,4.46l3.431-6.176s3.774,4.46,3.088,8.921-4.117,4.8-4.8,7.548-9.607,15.439-12.352,19.556-10.636,10.98-14.41,10.293-12.695-4.8-15.783-6.518-6.862-4.118-6.862-4.118-8.577,13.724-9.95,16.812-.686,7.2-.686,7.2,15.1-7.2,18.527-8.577,9.95-3.774,12.009-2.059,5.49,9.607,4.117,12.352-32.594,28.477-35.339,32.251-1.716,8.578,2.4,9.95,9.949,2.745,8.92,4.46-10.979,2.745-14.41,1.716-3.088-3.774-7.548-4.117-9.95-3.431-5.49-7.892,7.205-4.117,9.264-7.548,9.95-16.469,9.95-16.469-16.812,20.586-26.762,19.9-19.214-9.607-20.586-15.439,1.029-16.812,6.519-26.419,12.352-26.762,18.527-31.908,23.331-13.038,25.047-16.469.343-5.49.343-10.979.343-12.352,6.519-14.753,9.263-1.03,12.008.343A15.692,15.692,0,0,1,7218.433,1364.005Z" fill="#80bf00" stroke="#80bf00" stroke-miterlimit="10" stroke-width="1.079"/>
    </g>
  </g>
</svg>
