<svg xmlns="http://www.w3.org/2000/svg" width="555.127" height="297.108" viewBox="0 0 555.127 297.108">
  <g id="Group_1936" data-name="Group 1936" transform="translate(-73.636 -435.448)">
    <rect id="Rectangle_325" data-name="Rectangle 325" width="113.529" height="281.721" transform="translate(500.652 448.835)" fill="none" stroke-dasharray="0.1 12" stroke-linecap="round" stroke-linejoin="round" stroke-width="4" stroke="#80bf00"/>
    <g id="Group_1465" data-name="Group 1465" transform="translate(-6937 -2.44)">
      <path id="Path_5028" data-name="Path 5028" d="M7564.016,441.383h-4.586a1.747,1.747,0,0,1-1.747-1.748,1.748,1.748,0,0,0-1.747-1.747h-8.954a1.748,1.748,0,0,0-1.748,1.747,1.747,1.747,0,0,1-1.747,1.748H7538.9a1.747,1.747,0,0,0-1.747,1.747v19a1.747,1.747,0,0,0,1.747,1.747h25.115a1.747,1.747,0,0,0,1.747-1.747v-19A1.747,1.747,0,0,0,7564.016,441.383Zm-12.885,18.344a7.643,7.643,0,1,1,7.644-7.643A7.643,7.643,0,0,1,7551.131,459.727Z" fill="#80bf00"/>
      <circle id="Ellipse_138" data-name="Ellipse 138" cx="7.644" cy="7.644" r="7.644" transform="translate(7543.488 444.44)" fill="#fff"/>
    </g>
    <g id="Group_1466" data-name="Group 1466" transform="translate(-6937 -2.44)">
      <path id="Path_5029" data-name="Path 5029" d="M7490.459,485.2s-2.672,3.118-2.672,4.9.445,4.9-1.782,6.236-3.118,2.672-1.781,4.009.89,4.454,1.336,6.681,1.336,5.345,3.563,4.9,3.564-.446,4.009,1.781a51.466,51.466,0,0,1,.891,7.127c0,1.336-8.961,10.69-11.188,17.817s-1.835,10.69-1.389,17.817,3.118,26.725,4.9,31.625,0,13.362.446,26.28,3.118,23.161,3.563,26.725-.445,8.463,1.782,10.69,4.454,13.808,4.9,18.262,2.646,22.271,3.092,25.835-4.454,9.8-6.681,10.69-8.018,4.454-11.136,4.009-7.127,1.781-3.118,4.008,5.791,3.118,10.245,2.228,11.581-3.564,15.144-2.673,7.572,0,8.018-2.227-4.455-7.572-4.009-12.917,2.227-15.59,2.672-20.044,1.363-12.472.472-19.6-2.672-11.581-2.672-17.817-.891-9.8.445-15.589,1.835-15.59,4.062-19.154,5.79-10.244,3.563-16.48-7.572-7.127-3.118-26.28c1.727-7.426,7.18-24.5,5.4-32.516s-8.463-11.135-10.245-15.144-1.782-8.018-.891-10.245,6.236-5.79,5.345-12.472-.445-8.908-3.118-11.135-5.345-2.673-8.908-2.673-6.236-1.336-9.354.446A3.87,3.87,0,0,0,7490.459,485.2Z" fill="#80bf00"/>
      <path id="Path_5030" data-name="Path 5030" d="M7485.615,582.886v12.2c0,3.626.33,25.71.989,30.654a85.5,85.5,0,0,1,.659,9.888s6.263,3.626,12.855,3.626a18.673,18.673,0,0,0,10.547-2.967s.66-14.832,1.978-18.458,4.944-13.843,5.6-17.469.66-9.888-2.307-14.5a27.916,27.916,0,0,1-3.626-7.251Z" fill="#70a423" stroke="#fff" stroke-miterlimit="10" stroke-width="0.227"/>
      <path id="Path_5031" data-name="Path 5031" d="M7483.637,575.241l1.319,9.229s1.318,2.307,10.218.988a71.912,71.912,0,0,0,17.8-5.6s0-3.626.329-8.9,5.274-22.084,5.933-27.028,1.978-14.173-2.307-19.117a83.965,83.965,0,0,1-5.6-6.922s-2.967,4.285-9.889,5.6-9.229-1.978-9.229-1.978-11.536,12.526-11.866,22.084a129.089,129.089,0,0,0,.989,21.754A61.865,61.865,0,0,0,7483.637,575.241Z" fill="#bcdd78" stroke="#fff" stroke-miterlimit="10" stroke-width="0.227"/>
      <path id="Path_5032" data-name="Path 5032" d="M7501.107,550.254s.659,10.548.659,13.185-1.648,8.24-1.978,18.128.989,13.185,0,15.821-4.614,6.922-3.3,9.229,1.319-1.318,2.307-2.966,1.978-1.648,1.648,2.307-1.318,8.57,2.308,9.559,5.6-4.944,6.262-9.229-3.625-9.888-2.637-13.185,4.285-17.8,4.615-21.424-.659-6.592,0-8.9,3.3-14.832,3.3-14.832" fill="#80bf00" stroke="#fff" stroke-miterlimit="10" stroke-width="0.227"/>
      <path id="Path_5033" data-name="Path 5033" d="M7501.586,531.579a27.6,27.6,0,0,0-2.9,9.481,51.424,51.424,0,0,0,.181,10.9,45.592,45.592,0,0,0,9.683,1.235,22.124,22.124,0,0,0,6.875-.862s1.691-8.065,1.335-12.666.781-7-1.369-9.151" fill="#bcdd78" stroke="#fff" stroke-miterlimit="10" stroke-width="0.227"/>
    </g>
    <line id="Line_257" data-name="Line 257" x2="165.607" transform="translate(329.668 600.978)" fill="none" stroke="#80bf00" stroke-linecap="round" stroke-linejoin="round" stroke-width="3.502"/>
    <path id="Path_5204" data-name="Path 5204" d="M7245.7,571.628l-6.259-6.529V562.99l1.856-.1v-7.913c.455-.455-2.3-.415-3.335-.385-1.932-.03-7.145-.07-6.69.385v7.913l1.856.1V565.1l-6.01,6.429-2.159,8.327v36.017h22.651V579.855Z" transform="translate(-6937 -2.44)" fill="none" stroke="#80bf00" stroke-linecap="round" stroke-linejoin="round" stroke-width="2.334"/>
    <rect id="Rectangle_326" data-name="Rectangle 326" width="4.52" height="44.697" rx="2.26" transform="translate(313.922 563.794)" fill="#80bf00"/>
    <line id="Line_258" data-name="Line 258" y2="121.17" transform="translate(183.069 608.701)" fill="none" stroke="#80bf00" stroke-linecap="round" stroke-linejoin="round" stroke-width="3.502"/>
    <g id="Group_1484" data-name="Group 1484" transform="translate(-6937 -2.44)">
      <line id="Line_259" data-name="Line 259" y1="26.384" x2="1.954" transform="translate(7252.965 520.948)" fill="none" stroke="#80bf00" stroke-linecap="round" stroke-linejoin="round" stroke-width="4.669"/>
      <line id="Line_260" data-name="Line 260" y1="24.193" x2="10.706" transform="translate(7267.841 527.066)" fill="none" stroke="#80bf00" stroke-linecap="round" stroke-linejoin="round" stroke-width="4.669"/>
      <line id="Line_261" data-name="Line 261" y1="15.578" x2="21.383" transform="translate(7275.766 544.265)" fill="none" stroke="#80bf00" stroke-linecap="round" stroke-linejoin="round" stroke-width="4.669"/>
    </g>
    <rect id="Rectangle_327" data-name="Rectangle 327" width="120.614" height="94.952" transform="translate(207.903 614.64)" fill="#80bf00"/>
    <g id="Group_1485" data-name="Group 1485" transform="translate(-6937 -2.44)">
      <path id="Path_5205" data-name="Path 5205" d="M7010.709,663.51c.736-.024,1.3-.024,2.01-.049.294-.416.686-.931,1.348-1.911a22.28,22.28,0,0,0-3.431-3.308l1.25-1.887c.22.147.441.343.686.515a28.519,28.519,0,0,0,2.279-4.117l2.181.906a27.494,27.494,0,0,1-2.769,4.73c.172.171.612.637,1.127,1.2a34.084,34.084,0,0,0,2.475-4.191l2.181.956a48.748,48.748,0,0,1-4.631,6.959c.906-.049,1.837-.122,2.72-.2a12.883,12.883,0,0,0-.711-1.789l2.01-.686a38.374,38.374,0,0,1,1.936,4.656l-2.28.76c-.1-.392-.147-.539-.294-1.005-.539.074-1.151.147-1.739.221v10.611h-2.451V665.52c-.539.049-3.284.269-3.9.319Zm3.137,3.823a36.94,36.94,0,0,1-.931,7.033l-2.279-.833a25.227,25.227,0,0,0,1-6.543Zm5.857-.49a31.092,31.092,0,0,1,1.128,5.636l-2.28.368a47.9,47.9,0,0,0-.808-5.636Zm6.788-13.8a25.742,25.742,0,0,1-.931,3.234h7.376c-.2,11.518-.269,15.586-.907,17.742a2.27,2.27,0,0,1-2.132,1.863h-5.366l-.49-2.622h4.435c.956,0,1.2-.221,1.373-1.152.416-2.3.539-11.1.514-13.429h-5.832a14.914,14.914,0,0,1-2.647,3.8l-1.813-2.034a16.406,16.406,0,0,0,3.8-7.621Zm-1.764,9.091a21.178,21.178,0,0,1,3.039,5.857l-2.28,1.2a28.463,28.463,0,0,0-2.965-5.931Z" fill="#80bf00"/>
      <path id="Path_5206" data-name="Path 5206" d="M7046.272,656.551c-.564-.025-.612-.049-.857-.049-4.117,0-6.151,2.867-6.936,6.665a6.071,6.071,0,0,1,4.657-2.083,6.22,6.22,0,0,1,6.346,6.347,6.561,6.561,0,0,1-6.738,6.641c-3.113,0-7.23-1.985-7.23-8.773,0-5.366,2.99-11.444,9.778-11.444a7.071,7.071,0,0,1,.98.049Zm-3.528,7.131c-1.888,0-4.216,1.2-4.216,3.651a4.092,4.092,0,0,0,4.142,4.093,3.734,3.734,0,0,0,3.9-3.872A3.6,3.6,0,0,0,7042.744,663.682Z" fill="#80bf00"/>
      <path id="Path_5207" data-name="Path 5207" d="M7051.813,663.952c0-1.887,0-10.1,6.862-10.1s6.862,8.234,6.862,10.1c0,1.887,0,10.12-6.862,10.12S7051.813,665.839,7051.813,663.952Zm10.808,0c0-3.75-.711-7.45-3.946-7.45s-3.945,3.725-3.945,7.45c0,3.945.809,7.474,3.945,7.474C7061.91,671.426,7062.621,667.652,7062.621,663.952Z" fill="#80bf00"/>
      <path id="Path_5208" data-name="Path 5208" d="M7074.043,665.054v2.72h-6.616v-2.72Z" fill="#80bf00"/>
      <path id="Path_5209" data-name="Path 5209" d="M7089.7,667.97c0,3.578-3.137,6.1-6.911,6.1s-6.91-2.524-6.91-6.1a5.633,5.633,0,0,1,3.21-5.121,4.58,4.58,0,0,1-2.132-3.946c0-2.891,2.279-5.048,5.832-5.048,3.529,0,5.833,2.157,5.833,5.048a4.582,4.582,0,0,1-2.132,3.946A5.633,5.633,0,0,1,7089.7,667.97Zm-2.916-.048c0-1.422-.98-3.48-4-3.48-2.989,0-3.994,2.034-3.994,3.48a4.029,4.029,0,0,0,7.989,0Zm-.98-8.9a3.032,3.032,0,0,0-6.029-.025,3.032,3.032,0,0,0,6.029.025Z" fill="#80bf00"/>
      <path id="Path_5210" data-name="Path 5210" d="M7092.108,663.952c0-1.887,0-10.1,6.862-10.1s6.862,8.234,6.862,10.1c0,1.887,0,10.12-6.862,10.12S7092.108,665.839,7092.108,663.952Zm10.808,0c0-3.75-.711-7.45-3.946-7.45s-3.945,3.725-3.945,7.45c0,3.945.808,7.474,3.945,7.474C7102.205,671.426,7102.916,667.652,7102.916,663.952Z" fill="#80bf00"/>
      <path id="Path_5211" data-name="Path 5211" d="M7052.878,695.244a9,9,0,0,1-4.338,1.005c-4.925,0-7.6-3.21-7.6-7.548,0-4.778,3.284-7.744,7.475-7.744a8.035,8.035,0,0,1,4.46,1.275l-.735,2.475a5.436,5.436,0,0,0-3.554-1.25c-2.671,0-4.9,1.74-4.9,5.146,0,2.794,1.52,5.122,4.975,5.122a7.79,7.79,0,0,0,4.215-1.274Z" fill="#80bf00"/>
      <path id="Path_5212" data-name="Path 5212" d="M7064.006,695.857v-8.381c0-1.863-.2-4.019-2.426-4.019-1.274,0-3.333.833-3.333,3.921v8.479h-2.72V681.349h2.671v1.765a4.641,4.641,0,0,1,3.994-2.157,4.067,4.067,0,0,1,3.921,2.475,5.04,5.04,0,0,1,4.534-2.475,4.3,4.3,0,0,1,4.019,2.255,8.481,8.481,0,0,1,.637,3.774v8.871h-2.745v-9.043c0-1.789-.563-3.357-2.524-3.357-1.127,0-3.284.613-3.284,4.288v8.112Z" fill="#80bf00"/>
    </g>
    <g id="Group_1486" data-name="Group 1486" transform="translate(-6937 -2.44)">
      <path id="Path_5213" data-name="Path 5213" d="M7290.645,624.131c.735-.025,1.3-.025,2.009-.049.294-.417.686-.931,1.348-1.911a22.252,22.252,0,0,0-3.431-3.309l1.25-1.887c.22.147.441.343.686.515a28.42,28.42,0,0,0,2.279-4.117l2.181.907a27.387,27.387,0,0,1-2.769,4.729c.171.172.613.637,1.127,1.2a34.011,34.011,0,0,0,2.475-4.19l2.181.955a48.66,48.66,0,0,1-4.631,6.96c.907-.049,1.837-.123,2.72-.2a12.831,12.831,0,0,0-.711-1.789l2.009-.686a38.11,38.11,0,0,1,1.937,4.656l-2.28.76c-.1-.393-.146-.54-.294-1.005-.539.073-1.151.147-1.74.22v10.611h-2.45V626.14c-.539.049-3.284.27-3.9.319Zm3.136,3.823a36.945,36.945,0,0,1-.93,7.033l-2.28-.833a25.215,25.215,0,0,0,1.005-6.543Zm5.858-.49a31.1,31.1,0,0,1,1.127,5.636l-2.28.368a47.818,47.818,0,0,0-.808-5.637Zm6.787-13.8a25.776,25.776,0,0,1-.931,3.235h7.376c-.2,11.517-.269,15.585-.906,17.742a2.27,2.27,0,0,1-2.133,1.862h-5.366l-.49-2.622h4.435c.956,0,1.2-.22,1.372-1.152.417-2.3.539-11.1.515-13.429h-5.832a14.936,14.936,0,0,1-2.647,3.8l-1.813-2.034a16.416,16.416,0,0,0,3.8-7.621Zm-1.764,9.092a21.144,21.144,0,0,1,3.038,5.856l-2.278,1.2a28.535,28.535,0,0,0-2.966-5.93Z" fill="#80bf00"/>
      <path id="Path_5214" data-name="Path 5214" d="M7321.943,614.868h2.574V634.3h-2.941V618.054l-3.627,2.5-.392-2.72Z" fill="#80bf00"/>
      <path id="Path_5215" data-name="Path 5215" d="M7343.83,617.514h-8.111v4.975a7.391,7.391,0,0,1,2.794-.49c4.165,0,6.861,2.769,6.861,6.249,0,3.063-2.206,6.445-7.671,6.445a12.088,12.088,0,0,1-5.954-1.52l.809-2.671a8.866,8.866,0,0,0,5.121,1.544c3.75,0,4.779-2.205,4.779-3.823,0-2.279-1.862-3.651-4.142-3.651a4.238,4.238,0,0,0-2.794.931H7333V614.868h10.832Z" fill="#80bf00"/>
      <path id="Path_5216" data-name="Path 5216" d="M7347.926,624.572c0-1.887,0-10.1,6.861-10.1s6.861,8.234,6.861,10.1c0,1.887,0,10.121-6.861,10.121S7347.926,626.459,7347.926,624.572Zm10.806,0c0-3.749-.711-7.45-3.945-7.45s-3.945,3.725-3.945,7.45c0,3.945.808,7.474,3.945,7.474C7358.021,632.046,7358.732,628.272,7358.732,624.572Z" fill="#80bf00"/>
      <path id="Path_5217" data-name="Path 5217" d="M7370.155,625.675v2.72h-6.616v-2.72Z" fill="#80bf00"/>
      <path id="Path_5218" data-name="Path 5218" d="M7378.415,614.868h2.573V634.3h-2.94V618.054l-3.627,2.5-.393-2.72Z" fill="#80bf00"/>
      <path id="Path_5219" data-name="Path 5219" d="M7390.132,631.507a6.9,6.9,0,0,0,2.72.539c4,0,5.734-2.94,6.224-6.69a5.988,5.988,0,0,1-4.656,2.083,6.147,6.147,0,0,1-6.322-6.3,6.565,6.565,0,0,1,6.788-6.665c2.132,0,7.156.931,7.156,8.871,0,6.665-3.382,11.346-9.092,11.346a6.914,6.914,0,0,1-2.818-.49Zm4.705-6.641a3.948,3.948,0,0,0,4.142-3.823,3.885,3.885,0,0,0-4.044-3.921,3.835,3.835,0,0,0-3.921,3.921A3.629,3.629,0,0,0,7394.837,624.866Z" fill="#80bf00"/>
      <path id="Path_5220" data-name="Path 5220" d="M7404.4,624.572c0-1.887,0-10.1,6.862-10.1s6.861,8.234,6.861,10.1c0,1.887,0,10.121-6.861,10.121S7404.4,626.459,7404.4,624.572Zm10.807,0c0-3.749-.711-7.45-3.945-7.45s-3.946,3.725-3.946,7.45c0,3.945.809,7.474,3.946,7.474C7414.493,632.046,7415.2,628.272,7415.2,624.572Z" fill="#80bf00"/>
      <path id="Path_5221" data-name="Path 5221" d="M7348.989,655.865a8.994,8.994,0,0,1-4.337,1c-4.925,0-7.6-3.21-7.6-7.547,0-4.779,3.283-7.744,7.473-7.744a8.038,8.038,0,0,1,4.46,1.274l-.735,2.475a5.432,5.432,0,0,0-3.553-1.249c-2.671,0-4.9,1.739-4.9,5.146,0,2.793,1.519,5.121,4.974,5.121a7.784,7.784,0,0,0,4.215-1.274Z" fill="#80bf00"/>
      <path id="Path_5222" data-name="Path 5222" d="M7360.118,656.477V648.1c0-1.862-.2-4.018-2.426-4.018-1.274,0-3.333.833-3.333,3.92v8.479h-2.72V641.97h2.672v1.764a4.643,4.643,0,0,1,3.994-2.156,4.067,4.067,0,0,1,3.921,2.475,5.036,5.036,0,0,1,4.533-2.475,4.3,4.3,0,0,1,4.019,2.254,8.473,8.473,0,0,1,.637,3.774v8.871h-2.744v-9.042c0-1.789-.565-3.357-2.525-3.357-1.126,0-3.284.612-3.284,4.288v8.111Z" fill="#80bf00"/>
    </g>
    <rect id="Rectangle_328" data-name="Rectangle 328" width="33.517" height="4.238" transform="translate(286.397 586.267)" fill="#fff" stroke="#80bf00" stroke-miterlimit="10" stroke-width="1.167"/>
  </g>
</svg>
