<svg xmlns="http://www.w3.org/2000/svg" width="57.52" height="321.585" viewBox="0 0 57.52 321.585">
  <g id="Group_1432" data-name="Group 1432" transform="translate(-8199.298 -1503.778)">
    <path id="Path_4721" data-name="Path 4721" d="M8216.813,1511.657s-3.615,4.217-3.615,6.626.6,6.627-2.409,8.434-4.217,3.614-2.41,5.421,1.205,6.024,1.807,9.036,1.808,7.229,4.819,6.627,4.82-.6,5.422,2.409a69.549,69.549,0,0,1,1.205,9.638c0,1.808-12.119,14.458-15.131,24.1s-2.481,14.458-1.879,24.1,4.217,36.143,6.626,42.77,0,18.072.6,35.541,4.218,31.324,4.819,36.144-.6,11.445,2.41,14.457,6.022,18.674,6.626,24.7,3.579,30.12,4.181,34.939-6.023,13.253-9.036,14.457-10.843,6.024-15.06,5.422-9.638,2.41-4.217,5.421,7.832,4.217,13.854,3.012,15.663-4.819,20.482-3.614,10.241,0,10.843-3.012-6.023-10.241-5.422-17.469,3.012-21.084,3.615-27.108,1.843-16.867.638-26.505-3.615-15.663-3.615-24.1-1.2-13.253.6-21.084,2.48-21.084,5.493-25.9,7.831-13.855,4.818-22.288-10.241-9.639-4.217-35.541c2.336-10.044,9.71-33.132,7.3-43.975s-11.444-15.06-13.854-20.482-2.409-10.843-1.205-13.855,8.434-7.831,7.229-16.867-.6-12.047-4.217-15.059-7.228-3.615-12.048-3.615-8.433-1.807-12.65.6A5.233,5.233,0,0,0,8216.813,1511.657Z" fill="#80bf00"/>
    <path id="Path_4722" data-name="Path 4722" d="M8210.261,1643.761v16.493c0,4.9.446,34.77,1.337,41.457a115.493,115.493,0,0,1,.893,13.373s8.469,4.9,17.385,4.9,14.264-4.012,14.264-4.012.893-20.059,2.676-24.963,6.686-18.722,7.577-23.625.892-13.373-3.12-19.614-4.9-9.807-4.9-9.807Z" fill="#70a423" stroke="#fff" stroke-miterlimit="10" stroke-width="0.306"/>
    <path id="Path_4723" data-name="Path 4723" d="M8207.586,1633.422l1.783,12.481s1.783,3.121,13.819,1.337,24.071-7.578,24.071-7.578,0-4.9.445-12.035,7.133-29.867,8.023-36.553,2.676-19.168-3.119-25.855a113.5,113.5,0,0,1-7.578-9.361s-4.013,5.795-13.373,7.578-12.482-2.674-12.482-2.674-15.6,16.939-16.047,29.866a174.405,174.405,0,0,0,1.337,29.421A83.751,83.751,0,0,0,8207.586,1633.422Z" fill="#bcdd78" stroke="#fff" stroke-miterlimit="10" stroke-width="0.227"/>
    <path id="Path_4724" data-name="Path 4724" d="M8231.212,1599.63s.891,14.265.891,17.831-2.228,11.144-2.674,24.517,1.337,17.831,0,21.4-6.24,9.361-4.458,12.481,1.783-1.783,3.121-4.012,2.674-2.229,2.229,3.121-1.783,11.589,3.121,12.927,7.577-6.687,8.469-12.482-4.9-13.373-3.566-17.83,5.795-24.072,6.241-28.975-.892-8.915,0-12.036,4.458-20.059,4.458-20.059" fill="#80bf00" stroke="#fff" stroke-miterlimit="10" stroke-width="0.306"/>
    <path id="Path_4725" data-name="Path 4725" d="M8231.86,1574.373a37.324,37.324,0,0,0-3.927,12.822,69.622,69.622,0,0,0,.245,14.735,61.631,61.631,0,0,0,13.1,1.67c6.256-.037,9.3-1.166,9.3-1.166s2.286-10.907,1.8-17.129,1.056-9.471-1.851-12.376" fill="#bcdd78" stroke="#fff" stroke-miterlimit="10" stroke-width="0.227"/>
  </g>
</svg>
