<svg xmlns="http://www.w3.org/2000/svg" width="257.374" height="35.745" viewBox="0 0 257.374 35.745">
  <g id="Group_1298" data-name="Group 1298" transform="translate(-11518.873 -253.886)">
    <g id="Group_1297" data-name="Group 1297">
      <path id="Path_4113" data-name="Path 4113" d="M11519.946,255.145h32.895v5.291h-13.024v7.7h11.249v5.218h-11.249v9.435h13.912v5.292h-34.855v-5.292h4.218V264.21h5.662v18.575h5.4V260.436h-14.209Z" fill="#00532c"/>
      <path id="Path_4114" data-name="Path 4114" d="M11598.2,260.214h-15.282a16.007,16.007,0,0,1-.666,2.442h14.394v25.532h-31.933V262.656h11.581a11.093,11.093,0,0,0,.666-2.442h-13.8v-5.069h35.042Zm-25.347,7.141h-2.85V283.34h2.85Zm10.73,0h-5.921v2.554h5.921Zm0,6.513h-5.921v2.627h5.921Zm0,6.623h-5.921v2.849h5.921Zm7.918-13.136h-2.923V283.34h2.923Z" fill="#00532c"/>
      <path id="Path_4115" data-name="Path 4115" d="M11637.756,269.317c0,1.628-.037,3.515-.3,6.956h5.069v4.81h-5.551c-.407,3.589-.925,5.4-2.072,6.587a6.414,6.414,0,0,1-3.737,1.406h-9.657l-1.185-5.254h8.178c2.294,0,2.405-.963,2.627-2.739h-23.5v-4.81h23.9c.074-.888.111-1.369.149-2.183h-18.872a69.107,69.107,0,0,0,4.181-13.839h-2.738v4.107h-5.7v-9.029h33.043v9.029h-5.4v2.812h-14.838c-.26.962-.443,1.554-.629,2.147Zm-14.838-9.066c-.111.518-.186,1.073-.444,2.183h13.432v-2.183Z" fill="#00532c"/>
      <path id="Path_4116" data-name="Path 4116" d="M11684.006,289.631a37.9,37.9,0,0,1-11.581-4.07l3.515-3h-12.729l3.034,2.924a34.852,34.852,0,0,1-11.175,4.144l-3-4.921c4.255-.555,6.253-.925,9.065-2.147h-9.065v-4.847h34.819v4.847h-8.918a32.063,32.063,0,0,0,8.918,2.147Zm2.7-29.047h-14.431v1.443h11.508v14.468h-28.565V262.027h11.434v-1.443h-14.395v-4.7h14.395v-1.777h5.624v1.777h14.431Zm-8.436,4.4h-17.54v1.332h17.54Zm0,3.589h-17.54v1.37h17.54Zm0,3.553h-17.54V273.5h17.54Z" fill="#00532c"/>
      <path id="Path_4117" data-name="Path 4117" d="M11722.115,254.4c-.074.333-.444,1.777-.518,2.073h9.25v7.807h-4.625c-.3.555-.333.666-.629,1.147h5.4v4.329h-5.81v1.962H11730v3.959h-4.811v1.924H11730v3.959h-4.811v2.479h6.217V288.6h-20.093v-13.8c-.333.259-.444.333-.74.592l-1.628-3.441V288.41h-10.583V276.458a11.825,11.825,0,0,1-1.184,1.184l-1.592-6.993a19.162,19.162,0,0,0,3.849-10.25h-3.146v-5.144h13.433v1.222h6.586c.259-1.185.37-1.592.556-2.591Zm-17.169,17.059h-2.109V283.3h2.109Zm4-1.925a17.619,17.619,0,0,0,5.957-8.251h-2.294v3.478h-4.515V260.4h-3.589a42.491,42.491,0,0,1-1.258,6.179h5.7Zm11.434.112h-3.959v2.072h3.959Zm0,5.846h-3.959v2.109h3.959Zm0,5.92h-3.959v2.627h3.959Zm-.259-20.129a41.756,41.756,0,0,1-1.665,4.144h2a19.259,19.259,0,0,0,1.295-3.256l4.182.518v-1.406Z" fill="#00532c"/>
      <path id="Path_4118" data-name="Path 4118" d="M11754.453,260.473v4.44h-13.729v-4.44Zm-1-5.477v4.33h-11.8V255Zm3.219,5.847c1.48.333,2.221.518,3.553.925.185-.777.259-1.221.37-1.961h-5.255v-4.625h19.464c0,5.587-.074,11.47-.74,13.949-.481,1.74-1.443,2.887-4.07,2.887h-3.627l-.666-3.4-.223.408a26.86,26.86,0,0,0-2.848-1.592,22.325,22.325,0,0,1-6.291,6.106l-2.886-3.515v.37h-11.8v-4.33h11.8v3.478a15.024,15.024,0,0,0,4.736-3.922c-1.11-.37-1.443-.444-3.22-.962Zm-3.219,10.768v4.255h-11.8v-4.255Zm5.92,5.587a34.8,34.8,0,0,1-3,10.953l-2.923-1.85v2.442h-11.8V277.087h11.8v6.364a23.163,23.163,0,0,0,1.665-7.03Zm-9.88,4h-3.071v3.145h3.071Zm23.349-5.661a38.847,38.847,0,0,1,3.4,10.694l-4.7,1.961a50.556,50.556,0,0,0-1.073-5.773c-.185,2.332-.333,3.849-1,5.033a3.037,3.037,0,0,1-2.627,1.443h-4.515a2.546,2.546,0,0,1-2.774-2.627v-9.658h4.477v6.29c0,.74.111,1.036.481,1.036h1.184c.7,0,.814-.629.963-3.219l3.626,1.11a36.755,36.755,0,0,0-1.555-4.7Zm-6.4,2.7a28.248,28.248,0,0,0-6.809-4.625l2.7-3.293a27.586,27.586,0,0,1,6.883,4.4Zm1.7-10.879c1.147,0,1.7-.148,1.665-7.548h-4.255a21.553,21.553,0,0,1-.888,3.552,18.108,18.108,0,0,1,3.182,1.554l-1.406,2.442Z" fill="#00532c"/>
    </g>
  </g>
</svg>
