<svg xmlns="http://www.w3.org/2000/svg" width="258.04" height="35.744" viewBox="0 0 258.04 35.744">
  <g id="Group_1296" data-name="Group 1296" transform="translate(-11518.207 -1412.791)">
    <g id="Group_1295" data-name="Group 1295">
      <path id="Path_4107" data-name="Path 4107" d="M11525.9,1445.353v2.738h-5v-16.429c-.444.629-.777,1.036-1.406,1.85l-1.295-8.1a29.028,29.028,0,0,0,4.478-12.359l4.884.37a48.206,48.206,0,0,1-1.665,7.326v24.422a19.707,19.707,0,0,0,3.293-5.957h-1.369v-25.125h12.1v25.125h-1.665a37.867,37.867,0,0,1,3.663,6.142l-4.44,2.368a28.761,28.761,0,0,0-3.146-6.438l3.479-2.072h-8.4l3.959,1.924a31.808,31.808,0,0,1-3.441,7.1Zm6.254-26.568v2.664h3.4v-2.664Zm0,6.439v2.7h3.4v-2.7Zm0,6.549v2.775h3.4v-2.775Zm9.4-16.614h4.366v24.533h-4.366Zm6.068-2.109h5.032v31.378c0,1.147,0,3.663-3.7,3.663h-5l-1.259-5.661h4.107c.777,0,.814-.222.814-1.036Z" fill="#00532c"/>
      <path id="Path_4108" data-name="Path 4108" d="M11598.2,1419.118h-15.282a16.06,16.06,0,0,1-.666,2.443h14.394v25.531h-31.933v-25.531h11.581a11.118,11.118,0,0,0,.666-2.443h-13.8v-5.069h35.042Zm-25.347,7.142h-2.85v15.985h2.85Zm10.73,0h-5.921v2.553h5.921Zm0,6.512h-5.921v2.627h5.921Zm0,6.624h-5.921v2.849h5.921Zm7.918-13.136h-2.923v15.985h2.923Z" fill="#00532c"/>
      <path id="Path_4109" data-name="Path 4109" d="M11637.756,1428.221c0,1.628-.037,3.515-.3,6.956h5.069v4.811h-5.551c-.407,3.589-.925,5.4-2.072,6.586a6.414,6.414,0,0,1-3.737,1.406h-9.657l-1.185-5.254h8.178c2.294,0,2.405-.962,2.627-2.738h-23.5v-4.811h23.9c.074-.888.111-1.369.149-2.183h-18.872a69.069,69.069,0,0,0,4.181-13.839h-2.738v4.107h-5.7v-9.028h33.043v9.028h-5.4v2.813h-14.838c-.26.962-.443,1.554-.629,2.146Zm-14.838-9.066c-.111.518-.186,1.073-.444,2.183h13.432v-2.183Z" fill="#00532c"/>
      <path id="Path_4110" data-name="Path 4110" d="M11684.006,1448.535a37.9,37.9,0,0,1-11.581-4.07l3.515-3h-12.729l3.034,2.923a34.85,34.85,0,0,1-11.175,4.144l-3-4.921c4.255-.555,6.253-.925,9.065-2.146h-9.065v-4.848h34.819v4.848h-8.918a32.063,32.063,0,0,0,8.918,2.146Zm2.7-29.047h-14.431v1.443h11.508V1435.4h-28.565v-14.468h11.434v-1.443h-14.395v-4.7h14.395v-1.776h5.624v1.776h14.431Zm-8.436,4.4h-17.54v1.332h17.54Zm0,3.589h-17.54v1.369h17.54Zm0,3.552h-17.54v1.369h17.54Z" fill="#00532c"/>
      <path id="Path_4111" data-name="Path 4111" d="M11722.115,1413.309c-.074.333-.444,1.776-.518,2.072h9.25v7.807h-4.625c-.3.556-.333.666-.629,1.148h5.4v4.329h-5.81v1.961H11730v3.959h-4.811v1.925H11730v3.959h-4.811v2.479h6.217v4.551h-20.093v-13.8c-.333.259-.444.333-.74.592l-1.628-3.441v16.466h-10.583v-11.952a11.838,11.838,0,0,1-1.184,1.184l-1.592-6.993a19.156,19.156,0,0,0,3.849-10.25h-3.146v-5.143h13.433v1.221h6.586c.259-1.184.37-1.591.556-2.59Zm-17.169,17.058h-2.109v11.841h2.109Zm4-1.924a17.617,17.617,0,0,0,5.957-8.252h-2.294v3.479h-4.515V1419.3h-3.589a42.514,42.514,0,0,1-1.258,6.18h5.7Zm11.434.111h-3.959v2.072h3.959Zm0,5.846h-3.959v2.11h3.959Zm0,5.921h-3.959v2.627h3.959Zm-.259-20.13a41.783,41.783,0,0,1-1.665,4.145h2a19.284,19.284,0,0,0,1.295-3.257l4.182.518v-1.406Z" fill="#00532c"/>
      <path id="Path_4112" data-name="Path 4112" d="M11754.453,1419.377v4.441h-13.729v-4.441Zm-1-5.476v4.329h-11.8V1413.9Zm3.219,5.846c1.48.333,2.221.518,3.553.925.185-.777.259-1.221.37-1.961h-5.255v-4.625h19.464c0,5.587-.074,11.471-.74,13.95-.481,1.739-1.443,2.886-4.07,2.886h-3.627l-.666-3.4-.223.407a27.042,27.042,0,0,0-2.848-1.591,22.325,22.325,0,0,1-6.291,6.1l-2.886-3.515v.37h-11.8v-4.329h11.8v3.478a15.024,15.024,0,0,0,4.736-3.922c-1.11-.37-1.443-.444-3.22-.962Zm-3.219,10.768v4.255h-11.8v-4.255Zm5.92,5.588a34.792,34.792,0,0,1-3,10.952l-2.923-1.85v2.442h-11.8v-11.656h11.8v6.365a23.161,23.161,0,0,0,1.665-7.031Zm-9.88,4h-3.071v3.145h3.071Zm23.349-5.662a38.857,38.857,0,0,1,3.4,10.694l-4.7,1.961a50.5,50.5,0,0,0-1.073-5.772c-.185,2.331-.333,3.848-1,5.032a3.038,3.038,0,0,1-2.627,1.443h-4.515a2.546,2.546,0,0,1-2.774-2.627v-9.658h4.477v6.291c0,.74.111,1.036.481,1.036h1.184c.7,0,.814-.629.963-3.219l3.626,1.11a36.748,36.748,0,0,0-1.555-4.7Zm-6.4,2.7a28.253,28.253,0,0,0-6.809-4.625l2.7-3.293a27.588,27.588,0,0,1,6.883,4.4Zm1.7-10.878c1.147,0,1.7-.148,1.665-7.549h-4.255a21.552,21.552,0,0,1-.888,3.552,18.177,18.177,0,0,1,3.182,1.555l-1.406,2.442Z" fill="#00532c"/>
    </g>
  </g>
</svg>
