<svg xmlns="http://www.w3.org/2000/svg" width="665" height="920.621" viewBox="0 0 665 920.621">
  <g id="Group_1946" data-name="Group 1946" transform="translate(-42.5 -252.732)">
    <rect id="Rectangle_260" data-name="Rectangle 260" width="665" height="825" rx="10" transform="translate(42.5 348.353)" fill="#fff"/>
    <g id="Group_1206" data-name="Group 1206" transform="translate(-13004 -1.593)">
      <g id="Group_1205" data-name="Group 1205">
        <path id="Path_3871" data-name="Path 3871" d="M13208.356,289.625l-1.072-5.069a20.736,20.736,0,0,1-1.443,5.069l-4.145-3.811c1.222-3.293,1.851-5.884,1.851-14.838V255.287h11.285v4.662a19.724,19.724,0,0,0,4.107-5.624l5.365.444c-.407.888-.555,1.147-.776,1.554h13.839v4.366h-16.726a14.324,14.324,0,0,1-1.221,1.406h16.354v12.47h-9.99a16.565,16.565,0,0,1-.852,1.443h10.361v3.7a14.716,14.716,0,0,1-4.106,4.071,47.734,47.734,0,0,0,6.733.851l-2.22,5.032a35.2,35.2,0,0,1-9.77-2.812,37.815,37.815,0,0,1-9.176,2.886l-1.925-4.033c0,1.11,0,3.922-2.811,3.922Zm1.036-5.4c.852,0,1.11-.148,1.11-1.406v-4.7h-2.553a53.957,53.957,0,0,1-.593,6.106Zm-1.295-23.793v4.07h2.405v-4.07Zm0,8.733v4.144h2.405v-4.144Zm6.734,9.435a12.544,12.544,0,0,0,5.7-4.033h-3.367V264.278c-.222.185-.3.259-.629.555l-1.7-2.516Zm0,6.439a42.455,42.455,0,0,0,6.18-1.221,16.136,16.136,0,0,1-2.22-2.22,22.946,22.946,0,0,1-2.442,1.295l-1.518-2.516Zm7.216-5.329a12.335,12.335,0,0,0,3.516,2.406,13.316,13.316,0,0,0,3.478-2.406Zm.111-14.505v1.74h8.362V265.2Zm0,4.515v1.776h8.362v-1.776Z" fill="#00532c"/>
        <path id="Path_3872" data-name="Path 3872" d="M13280.509,255.583v32.969h-32.414V255.583Zm-27.049,5V283.52h21.758V260.578Zm4.107,1.036h4.922v2.4h4v-2.4h4.884v2.4h2.775v4.589h-2.775V271.9h2.887v4.588h-2.887v6.032h-4.884v-6.032h-4.625a14.134,14.134,0,0,1-3.4,6.661l-4.293-3.182a9.341,9.341,0,0,0,2.517-3.479h-2.257V271.9h3.145v-3.293h-3.034v-4.589h3.034Zm4.922,10.287h4v-3.293h-4Z" fill="#00532c"/>
        <path id="Path_3873" data-name="Path 3873" d="M13312.92,267.72h11.175v5.365h-11.286c-.888,8.622-5.328,12.581-16.244,14.838l-2.442-5.254c10.4-1.665,12.434-4.922,12.84-9.584h-13.653V267.72h13.728v-3.479a106.791,106.791,0,0,1-11.359.519l-1.11-5.292c13.1,0,19.833-1.665,24.162-3.034l2.924,5.328a84.72,84.72,0,0,1-8.732,1.739Z" fill="#00532c"/>
        <path id="Path_3874" data-name="Path 3874" d="M13355.8,281.226h10.25v5.18h-25.791v-5.18h10.1V269.311h-8.917v-5.144h23.274v5.144h-8.918Z" fill="#00532c"/>
        <path id="Path_3875" data-name="Path 3875" d="M13386.992,275.342a38.215,38.215,0,0,0-2.923-9.324l4.662-1.258a40.214,40.214,0,0,1,3.257,9.4Zm-.443,8.511c12.654-2.849,16.317-7.623,18.686-20.389l5.735,1.369c-1.887,8.252-4.662,19.538-20.646,23.46Zm8.7-10.324a44.637,44.637,0,0,0-2.59-9.251l4.662-.925a35.208,35.208,0,0,1,2.738,9.1Z" fill="#00532c"/>
        <path id="Path_3876" data-name="Path 3876" d="M13428.025,282.817c7.031-1.147,19.205-4.959,21.609-19.76h-10.619a29.019,29.019,0,0,1-9.177,9.251l-3.774-4.329a22.664,22.664,0,0,0,9.1-10.361h21.276c-1.442,22.386-15.43,28.6-26.013,30.638Z" fill="#00532c"/>
        <path id="Path_3877" data-name="Path 3877" d="M13468.245,285.333a39.532,39.532,0,0,0,1.295-9.214l3.7.481c-.333,6.254-.481,8.215-1.295,11.138Zm15.171-25.791a87.778,87.778,0,0,1-7.437,10.324c.518-.037,2.813-.148,3.293-.185-.3-1.147-.444-1.591-.7-2.368l3.516-1.11a40.881,40.881,0,0,1,2.405,7.733l-4.182,1.443-.222-1.554-1.48.185v15.541h-4.366V274.565c-3.071.3-3.812.333-5.254.407l-.26-4.958a19.32,19.32,0,0,0,2.221,0c.629-.777.7-.888,1.739-2.183a22.56,22.56,0,0,0-4.4-4.441l2.294-4.7c.185.148.776.592,1,.814a39.148,39.148,0,0,0,2.183-4.958l4.626.814a52.673,52.673,0,0,1-3.923,6.882c.186.259.777.962,1.186,1.443a49.127,49.127,0,0,0,3.4-5.846Zm-3.257,25.606a56.381,56.381,0,0,0-.666-8.548l3.367-.629a45.554,45.554,0,0,1,1,8.511Zm16.244-30.6v3.4h7.327v5.069h-7.327v3.367h6.513v5.033h-18.353v-5.033h6.4V263.02h-7.4v-5.069h7.4v-3.4Zm6.4,34.3h-18.021V273.6h18.021Zm-5.329-10.361H13490v5.477h7.475Z" fill="#00532c"/>
        <path id="Path_3878" data-name="Path 3878" d="M13545.613,289.181c-3.108-1.406-8.251-3.885-12.284-8.659v9.029h-5.366v-9.065a37.789,37.789,0,0,1-12.4,8.621l-2.85-5.55a29.571,29.571,0,0,0,10.546-5.144h-10.027v-5.032h14.727v-1.628h-12.1V255.435h29.75v16.318h-12.284v1.628h14.838v5.032h-10.213c3.293,2.775,6.364,3.96,10.693,5.255Zm-24.458-29.269v1.924h6.808v-1.924Zm0,5.55v2.073h6.808v-2.073Zm12.174-5.55v1.924h6.956v-1.924Zm0,5.55v2.073h6.956v-2.073Z" fill="#00532c"/>
      </g>
    </g>
    <g id="Group_1945" data-name="Group 1945">
      <line id="Line_233" data-name="Line 233" x2="379.586" transform="translate(185.207 493.546)" stroke-dasharray="1.172 11.719" stroke="#80b900" stroke-linecap="round" stroke-linejoin="round" stroke-width="6.409" fill="#fff"/>
      <g id="Group_1208" data-name="Group 1208" transform="translate(-13004 -1.593)">
        <g id="Group_1207" data-name="Group 1207">
          <path id="Path_3879" data-name="Path 3879" d="M13205.457,438.315a28.572,28.572,0,0,1,6.013-.551c12.025,0,17.074,6.334,17.074,13.494,0,11.842-12.852,12.714-16.8,12.944l-1.377-4.636c4.59-.184,12.989-1.01,12.989-8.813,0-5.783-4.36-7.206-7.39-8.215-3.442,13.31-11.612,19.415-18.313,19.415-4.728,0-7.8-3.626-7.8-8.629,0-7.115,5.416-11.8,10.786-13.678-.046-1.928-.092-3.534-.092-5.1v-.505h-9.271v-4.681h9.271l.046-4.315,5,.092-.046,4.223h21.48v4.681H13205.5Zm-4.59,5.921c-3.029,1.56-6.38,4.59-6.38,8.721,0,1.973.826,4.452,3.672,4.452a8.593,8.593,0,0,0,4.773-1.607A49.617,49.617,0,0,1,13200.867,444.236Zm10.786-2.295a20.645,20.645,0,0,0-6.15.642,45.937,45.937,0,0,0,1.285,9.685C13209.037,449.422,13210.506,445.383,13211.653,441.941Z" fill="#00532c"/>
          <path id="Path_3880" data-name="Path 3880" d="M13266.961,430.7v4.819H13257a111.334,111.334,0,0,1-7.619,23.546l-5.232-2.065c4.131-7.115,6.1-14.321,7.665-21.481h-7.114V430.7h8.032a57.642,57.642,0,0,0,.688-5.738l5.416.184c-.413,2.892-.551,3.856-.872,5.554Zm8.583,18.4a33.841,33.841,0,0,1,9.317,6.655l-3.029,4.682a24.766,24.766,0,0,0-6.609-5.737v1.423c0,5.875-4.636,8.032-9.317,8.032-7.022,0-10.511-3.856-10.511-8.308,0-3.809,2.983-8.766,10.878-8.766a19.823,19.823,0,0,1,4.177.413l-.229-9.364h5.095Zm-4.957,3.075a11.584,11.584,0,0,0-4.314-.78c-3.993,0-6.15,1.882-6.15,4.314,0,.827.275,4.04,5.783,4.04,3.672,0,4.682-1.7,4.682-4.774Zm11.429-13.31a63.755,63.755,0,0,0-12.576-6.013l2.111-4.314a66.92,66.92,0,0,1,12.806,5.783Z" fill="#00532c"/>
          <path id="Path_3881" data-name="Path 3881" d="M13299.365,462.962c4.314-9.087,6.885-22.26,7.573-27.263h-6.38v-4.82h7.022c.321-3.167.367-3.809.5-5.783l5.462.184c-.321,2.845-.459,3.718-.734,5.6h11.842v4.82h-12.53c-2.295,12.438-4.911,22.719-7.527,28.962Zm22.261-11.566a7.179,7.179,0,0,0-1.469,3.81c0,3.35,4.406,3.717,9.96,3.717,1.469,0,5.6-.091,8.583-.367l.046,5.141c-2.893.046-5.783.092-8.675.092-5.968,0-8.721-.505-11.062-1.745a6.807,6.807,0,0,1-3.672-6.058,11.771,11.771,0,0,1,2.249-6.334Zm16.156-9.042c-1.285-.046-2.662-.138-4.911-.138a33.407,33.407,0,0,0-12.209,1.928l-1.744-4.36c4.59-1.79,8.445-2.708,18.864-2.525Z" fill="#00532c"/>
          <path id="Path_3882" data-name="Path 3882" d="M13374.042,458.923c4.865-.459,15.1-2.111,15.1-14.412,0-5.094-2.111-12.668-12.393-13.173-1.423,20.425-7.527,28.916-13.861,28.916-5.324,0-8.721-6.1-8.721-13.172,0-12.9,9.547-20.609,21.343-20.609,14.274,0,19.048,9.547,19.048,18.176,0,17.35-15.56,18.91-18.818,19.231Zm-14.917-11.7c0,2.662.964,7.528,3.947,7.528,1.744,0,3.029-1.561,4.131-3.58,3.121-5.692,3.993-12.714,4.544-19.6C13363.485,433.083,13359.125,439.646,13359.125,447.219Z" fill="#00532c"/>
          <path id="Path_3883" data-name="Path 3883" d="M13422.878,462.549a42.839,42.839,0,0,0,9.914-2.937,20.667,20.667,0,0,1-3.9-3.672,28.106,28.106,0,0,1-4.039,2.937l-2.479-3.763a20.4,20.4,0,0,0,8.308-7.252h-4.406V432.9c-.551.459-1.01.826-1.882,1.469l-2.065-3.626v30.293c0,1.7,0,5.324-3.672,5.324h-4.773l-.643-4.819h3.351c1.469,0,1.744-.368,1.744-2.525v-7.481h-4.773c-.413,8.032-1.606,12.071-2.8,14.825l-3.4-3.672c1.744-5.462,2.295-8.583,2.295-20.562V424.591h12.668v5.967a20.337,20.337,0,0,0,6.655-7.435l4.865.459c-.413.78-.826,1.422-1.423,2.386h18.727v3.764h-21.664c-1.1,1.193-1.744,1.79-2.341,2.387h21.389v15.743h-13.127a17.686,17.686,0,0,1-1.606,2.708h13.815v3.35a28.36,28.36,0,0,1-6.563,5.83,51.123,51.123,0,0,0,10.419,2.386l-1.79,4.315a38.458,38.458,0,0,1-12.852-4.223,46.67,46.67,0,0,1-11.979,4.269Zm-9.134-33.781v7.114h4.59v-7.114Zm0,11.062v7.756h4.59V439.83Zm16.8-4.544v2.937h13.632v-2.937Zm0,6.058V444.7h13.632v-3.351Zm1.193,12.576a16.387,16.387,0,0,0,4.819,3.9c3.672-2.02,4.773-3.213,5.37-3.9Z" fill="#00532c"/>
          <path id="Path_3884" data-name="Path 3884" d="M13504.256,424.775V465.12h-39.335V424.775Zm-34.7,4.177v32.037h30.109V428.952Zm7.252,1.927h4.314v4.728h7.436v-4.728h4.223v4.728h4.957V439.6h-4.957v6.426h5.416v4.039h-5.416V459.2h-4.223v-9.134h-8.354a22.523,22.523,0,0,1-5.508,9.134l-3.855-3.167a14.754,14.754,0,0,0,4.819-5.967h-4.636v-4.039h5.6a16.331,16.331,0,0,0,.184-2.616V439.6h-5.232v-3.993h5.232Zm4.314,12.118c0,1.009,0,1.79-.092,3.029h7.527V439.6h-7.436Z" fill="#00532c"/>
          <path id="Path_3885" data-name="Path 3885" d="M13528.032,425.968a97.178,97.178,0,0,0-1.929,20.517,77.851,77.851,0,0,0,1.424,16.661l-5.095.643a94.7,94.7,0,0,1-1.331-17.3,121.25,121.25,0,0,1,1.652-20.93Zm30.385,7.206v4.911h-8.17l.092,11.337a32.789,32.789,0,0,1,9.042,6.518l-3.259,4.544a26.244,26.244,0,0,0-6.013-5.462l-.046,1.331c-.184,4.773-2.754,7.39-9,7.39-7.16,0-10.052-4.177-10.052-8.17,0-4.865,4.131-8.216,10.144-8.216a15.6,15.6,0,0,1,4.131.551l-.138-9.823h-13.311v-4.911h13.173l-.046-7.435h5.187l.046,7.435Zm-13.081,19.324a9.225,9.225,0,0,0-4.131-.873c-2.754,0-5.737,1.056-5.737,3.994,0,2.845,2.616,3.9,5.324,3.9,4.36,0,4.636-2.57,4.59-4.452Z" fill="#00532c"/>
        </g>
      </g>
      <path id="Path_3886" data-name="Path 3886" d="M13351.984,605.863c-4.189-5.236-9.136-23.077-7.04-30.408s1.324-4.654,1.324-11.985,3.411-14.966,9.694-22.3,20.831-9.077,29.128-3.991c11.979,7.342,13.006,11.644,14.721,17.932a34.642,34.642,0,0,1-.534,19.271,77.637,77.637,0,0,1-7.5,16.817c-4.68,8.114-5.326,18.094-4.279,23.33s12.312,10.706,21.035,12.276c8.31,1.5,18.309,2.98,30.354,11.545,11.856,8.432,22.01,25.109,29.339,33.487s23.04,36.654,39.8,50.268,27.241,37.3,40.855,48.82,29.311,30.771,31.4,41.244-4.189,17.8-18.851,4.189-16.756-19.9-16.756-19.9,4.189,20.945,0,17.8-3.142-11.52-6.284-23.039-9.425-19.9-24.086-33.512-39.062-32.308-52.677-45.922-37.808-38.777-37.808-38.777-8.647,60.373-9.694,69.8-.545,27.257,6.786,38.777,8.455,60.752,4.266,78.556-4.254,54.874-2.791,74.232c1.378,18.238-6.881,78.7-9.142,105.839-.61,7.326,9.157,14.041,3.665,25.388-6.965,14.388-31.569,39.066-37.853,33.829s3.293-23.357,11.672-40.113,2.094-37.7,3.142-54.457-10.473-64.93-10.473-79.591-2.095-68.071-5.236-75.4-12.567-8.378-12.567-1.048-2.095,53.41-2.095,65.977,2.738,33.745,2.738,51.548-5.584,55.287-2.442,64.712,2.273,20.225-6.1,31.745-25.373,28.782-34.8,25.641-1.283-17.6,7.095-27.03,16.277-17.535,16.277-24.866-5.815-41.332-5.815-59.135-1.037-28.055-4.178-43.764-3.143-16.756-6.284-25.134-10.13-56.888-6.988-86.211,9.616-28.687,10.664-60.1-5.739-48.74-6.786-58.166-4.848-31.021-4.848-31.021-8.8,16.627-20.318,27.1-20.945,17.8-38.748,33.512-28.275,19.9-41.89,27.228-16.756,20.945-26.181,25.134-25.07,10.961-12.416-14.347c7.762-15.524,15.557-11.834,30.219-21.259s13.977-14.893,31.779-33.744,34.448-30.749,39.434-36.422c10.446-11.888,17.955-28.877,28.427-37.255s27.753-14.606,38.226-18.795,9.8-13.069,9.8-13.069Z" transform="translate(-13004 -1.593)" fill="#80b900"/>
    </g>
  </g>
</svg>
