<svg xmlns="http://www.w3.org/2000/svg" width="130.279" height="102.568" viewBox="0 0 130.279 102.568">
  <g id="Group_1469" data-name="Group 1469" transform="translate(-7451.65 -1707.376)">
    <path id="Path_5100" data-name="Path 5100" d="M7568.49,1809.944h-103.4a13.455,13.455,0,0,1-13.44-13.44v-60.459a13.456,13.456,0,0,1,13.44-13.44h.55v-3.587a4.032,4.032,0,0,1,4.028-4.027h6.3a4.032,4.032,0,0,1,4.027,4.027v3.587h9.39a18.156,18.156,0,0,1,17.862-15.229h19.093A18.156,18.156,0,0,1,7544.2,1722.6h24.292a13.456,13.456,0,0,1,13.439,13.44V1796.5A13.455,13.455,0,0,1,7568.49,1809.944Zm-103.4-82.507a8.618,8.618,0,0,0-8.608,8.608V1796.5a8.618,8.618,0,0,0,8.608,8.608h103.4a8.618,8.618,0,0,0,8.607-8.608v-60.459a8.618,8.618,0,0,0-8.607-8.608H7542a2.415,2.415,0,0,1-2.414-2.347,13.353,13.353,0,0,0-13.252-12.882h-19.093a13.352,13.352,0,0,0-13.251,12.882,2.417,2.417,0,0,1-2.415,2.347H7465.09Z" fill="#00532c"/>
    <g id="Group_1468" data-name="Group 1468">
      <path id="Path_5101" data-name="Path 5101" d="M7502.14,1744.332s10.229-10.758,25.22-7.054c12.209,3.016,17.46,13.227,18.7,24.338l9.347-2.116-13.58,19.929-16.4-16.931h10.053s.879-10.11-4.409-14.991c-4.586-4.233-12.7-6.173-17.989-5.644a27.885,27.885,0,0,0-9.876,3.175S7501.259,1745.743,7502.14,1744.332Z" fill="#00532c"/>
      <path id="Path_5102" data-name="Path 5102" d="M7535.826,1784.19s-10.229,10.758-25.22,7.055c-12.209-3.017-17.46-13.227-18.695-24.338l-9.347,2.116,13.58-19.929,16.4,16.931h-10.053s-.879,10.11,4.409,14.991c4.586,4.232,12.7,6.172,17.989,5.643a27.9,27.9,0,0,0,9.876-3.174S7536.707,1782.779,7535.826,1784.19Z" fill="#00532c"/>
    </g>
  </g>
</svg>
