<svg xmlns="http://www.w3.org/2000/svg" width="89.441" height="46.157" viewBox="0 0 89.441 46.157">
  <g id="Group_1813" data-name="Group 1813" transform="translate(-1066.368 -317.59)">
    <path id="Path_7686" data-name="Path 7686" d="M1086.307,317.59c-16.434,0-19.515,17.689-19.515,17.689l.206.013a26.526,26.526,0,0,0-.63,5.674c0,12.562,8.667,22.781,19.322,22.781s19.321-10.219,19.321-22.781a26.665,26.665,0,0,0-.347-4.229,2.988,2.988,0,0,0,.474.14S1102.741,317.59,1086.307,317.59Zm16.025,23.376c0,11.084-7.466,20.1-16.642,20.1s-16.643-9.018-16.643-20.1a23.945,23.945,0,0,1,.671-5.608c5.808.02,18.718-.7,23.779-7.154a104.534,104.534,0,0,0,8.055,6.692A23.816,23.816,0,0,1,1102.332,340.966Z" fill="#80bf00"/>
    <path id="Path_7687" data-name="Path 7687" d="M1076.606,338.247a1.6,1.6,0,1,0,1.6,1.6A1.6,1.6,0,0,0,1076.606,338.247Z" fill="#80bf00"/>
    <path id="Path_7688" data-name="Path 7688" d="M1092.813,339.844a1.6,1.6,0,1,0,1.6-1.6A1.6,1.6,0,0,0,1092.813,339.844Z" fill="#80bf00"/>
    <path id="Path_7689" data-name="Path 7689" d="M1143.076,360.158h12.733a56.034,56.034,0,0,1-1.6-10.956A71.55,71.55,0,0,0,1152,335.309c.05-.011.113-.019.159-.03,0,0-2.4-17.689-18.831-17.689-.209,0-.392.035-.6.041-.187-.005-.35-.041-.541-.041-16.434,0-18.832,17.689-18.832,17.689.047.011.108.019.158.03A71.627,71.627,0,0,0,1111.3,349.2a56.137,56.137,0,0,1-1.6,10.956h12.638a16.769,16.769,0,0,0,20.735,0Zm-22.611-5.623a26.421,26.421,0,0,1-2.695-18.808c3.927.2,9.487.189,14.97.1,5.488.087,11.047.094,14.981-.1a26.52,26.52,0,0,1-2.427,18.351c-3.054,4.271-7.558,6.988-12.585,6.988A15.473,15.473,0,0,1,1120.465,354.535Z" fill="#80bf00"/>
    <path id="Path_7690" data-name="Path 7690" d="M1125.224,339.844a1.6,1.6,0,1,0,1.6,1.6A1.6,1.6,0,0,0,1125.224,339.844Z" fill="#80bf00"/>
    <circle id="Ellipse_196" data-name="Ellipse 196" cx="1.598" cy="1.598" r="1.598" transform="translate(1138.234 339.844)" fill="#80bf00"/>
  </g>
</svg>
