<svg xmlns="http://www.w3.org/2000/svg" width="90.559" height="60" viewBox="0 0 90.559 60">
  <g id="Group_704" data-name="Group 704" transform="translate(-955.563 -28.956)">
    <g id="Group_703" data-name="Group 703">
      <circle id="Ellipse_106" data-name="Ellipse 106" cx="30" cy="30" r="30" transform="translate(986.122 28.956)" fill="#07b53b"/>
      <g id="TYPE_A" data-name="TYPE A">
        <g id="Group_702" data-name="Group 702">
          <path id="Path_693" data-name="Path 693" d="M1036.077,57.155c0-8.929-8.952-16.194-19.955-16.194s-19.955,7.265-19.955,16.194c0,8.005,7.1,14.709,16.689,15.976.649.141,1.534.429,1.758.984a4.107,4.107,0,0,1,.064,1.805s-.234,1.408-.285,1.708c-.086.5-.4,1.973,1.729,1.076s11.492-6.767,15.678-11.586h0c2.892-3.171,4.278-6.389,4.278-9.963" fill="#fff"/>
          <g id="Group_701" data-name="Group 701">
            <path id="Path_694" data-name="Path 694" d="M1012.068,52.84h-1.4a.389.389,0,0,0-.389.388v8.695a.389.389,0,0,0,.389.388h1.4a.388.388,0,0,0,.388-.388V53.228a.388.388,0,0,0-.388-.388" fill="#07b53b"/>
            <path id="Path_695" data-name="Path 695" d="M1021.7,52.84h-1.4a.389.389,0,0,0-.389.388v5.166l-3.984-5.381c-.009-.014-.02-.027-.03-.04l0,0-.023-.024-.008-.007-.02-.017-.01-.008-.021-.014-.011-.007-.021-.011-.012-.006-.023-.01-.012,0-.023-.008-.014,0-.022-.005-.017,0-.02,0h-1.433a.389.389,0,0,0-.389.388v8.695a.389.389,0,0,0,.389.388h1.4a.389.389,0,0,0,.389-.388V56.759l3.99,5.388a.388.388,0,0,0,.1.1l0,0,.024.014.011.006.019.009.019.008.011,0,.027.008h.006a.354.354,0,0,0,.1.014h1.4a.388.388,0,0,0,.388-.388V53.228a.388.388,0,0,0-.388-.388" fill="#07b53b"/>
            <path id="Path_696" data-name="Path 696" d="M1008.694,60.134h-3.8V53.228a.388.388,0,0,0-.388-.388h-1.4a.389.389,0,0,0-.389.388v8.694h0a.385.385,0,0,0,.109.268l.005.006.006.005a.382.382,0,0,0,.268.109h5.593a.389.389,0,0,0,.388-.389v-1.4a.388.388,0,0,0-.388-.388" fill="#07b53b"/>
            <path id="Path_697" data-name="Path 697" d="M1029.431,55.017a.388.388,0,0,0,.388-.388v-1.4a.388.388,0,0,0-.388-.389h-5.592a.384.384,0,0,0-.269.11l-.005,0-.006.007a.381.381,0,0,0-.108.267h0v8.693h0a.385.385,0,0,0,.109.268l.005.006.006.005a.385.385,0,0,0,.268.109h5.592a.388.388,0,0,0,.388-.389v-1.4a.388.388,0,0,0-.388-.388h-3.8v-1.47h3.8a.388.388,0,0,0,.388-.389v-1.4a.388.388,0,0,0-.388-.389h-3.8v-1.47Z" fill="#07b53b"/>
          </g>
        </g>
      </g>
    </g>
    <path id="Path_698" data-name="Path 698" d="M975.206,40.934,956.563,59.578l18.644,17.4" fill="none" stroke="gray" stroke-linecap="round" stroke-linejoin="round" stroke-width="2"/>
  </g>
</svg>
