<svg xmlns="http://www.w3.org/2000/svg" width="249.394" height="60" viewBox="0 0 249.394 60">
  <g id="Group_1738" data-name="Group 1738" transform="translate(-2023.838 -1026.88)">
    <rect id="Rectangle_399" data-name="Rectangle 399" width="249.394" height="60" rx="12.856" transform="translate(2023.838 1026.88)" fill="#07b53b"/>
    <g id="Group_1736" data-name="Group 1736">
      <g id="Group_1735" data-name="Group 1735">
        <g id="TYPE_A" data-name="TYPE A">
          <g id="Group_1734" data-name="Group 1734">
            <path id="Path_7345" data-name="Path 7345" d="M2076.183,1054.67c0-9.946-9.972-18.038-22.229-18.038s-22.229,8.092-22.229,18.038c0,8.918,7.908,16.385,18.591,17.8.723.157,1.709.478,1.958,1.1a4.564,4.564,0,0,1,.072,2.01s-.261,1.568-.317,1.9c-.1.562-.447,2.2,1.925,1.2s12.8-7.538,17.465-12.906h0c3.221-3.533,4.765-7.118,4.765-11.1" fill="#fff"/>
            <g id="Group_1733" data-name="Group 1733">
              <path id="Path_7346" data-name="Path 7346" d="M2049.438,1049.864h-1.56a.433.433,0,0,0-.433.432v9.686a.433.433,0,0,0,.433.432h1.56a.433.433,0,0,0,.433-.432V1050.3a.433.433,0,0,0-.433-.432" fill="#00b900"/>
              <path id="Path_7347" data-name="Path 7347" d="M2060.17,1049.864h-1.559a.432.432,0,0,0-.433.432v5.754l-4.439-5.994a.482.482,0,0,0-.034-.044l0,0a.2.2,0,0,0-.026-.027l-.008-.008-.023-.019-.011-.009-.023-.015-.013-.008-.023-.013-.013-.006-.025-.011-.014-.005-.026-.008-.015,0-.025-.006-.018,0-.023,0h-1.6a.433.433,0,0,0-.433.432v9.686a.433.433,0,0,0,.433.432h1.559a.433.433,0,0,0,.434-.432v-5.753l4.444,6a.409.409,0,0,0,.11.107l0,0,.027.017.012.006.021.01.021.009.013,0,.029.01h.007a.448.448,0,0,0,.111.015h1.559a.432.432,0,0,0,.432-.432V1050.3a.432.432,0,0,0-.432-.432" fill="#00b900"/>
              <path id="Path_7348" data-name="Path 7348" d="M2045.679,1057.989h-4.237V1050.3a.431.431,0,0,0-.432-.432h-1.559a.432.432,0,0,0-.433.432v9.685h0a.429.429,0,0,0,.121.3l.006.006.006.006a.429.429,0,0,0,.3.121h6.229a.432.432,0,0,0,.432-.433v-1.559a.432.432,0,0,0-.432-.433" fill="#00b900"/>
              <path id="Path_7349" data-name="Path 7349" d="M2068.78,1052.289a.432.432,0,0,0,.432-.433V1050.3a.432.432,0,0,0-.432-.433h-6.229a.429.429,0,0,0-.3.122l0,0-.007.008a.433.433,0,0,0-.12.3h0v9.684h0a.434.434,0,0,0,.121.3l.006.006.007.006a.426.426,0,0,0,.3.121h6.229a.432.432,0,0,0,.432-.433v-1.559a.432.432,0,0,0-.432-.433h-4.236v-1.638h4.236a.432.432,0,0,0,.432-.433v-1.559a.432.432,0,0,0-.432-.433h-4.236v-1.637Z" fill="#00b900"/>
            </g>
          </g>
        </g>
      </g>
    </g>
    <line id="Line_288" data-name="Line 288" y2="59.167" transform="translate(2083.642 1027.712)" fill="none" stroke="#000" stroke-miterlimit="10" stroke-width="2.28" opacity="0.1"/>
    <g id="Group_1737" data-name="Group 1737">
      <path id="Path_7350" data-name="Path 7350" d="M2117.582,1051.82h1.477v9.127h5.45v1.4h-6.927Z" fill="#fff"/>
      <path id="Path_7351" data-name="Path 7351" d="M2126.347,1051.82h1.477v10.522h-1.477Z" fill="#fff"/>
      <path id="Path_7352" data-name="Path 7352" d="M2132.256,1054.233v8.109h-1.494V1051.82h1.609l5.827,8.158v-8.158h1.477v10.522h-1.609Z" fill="#fff"/>
      <path id="Path_7353" data-name="Path 7353" d="M2142.613,1051.82h6.68v1.4h-5.2v3.151h4.547v1.4h-4.547v3.185h5.2v1.4h-6.68Z" fill="#fff"/>
      <path id="Path_7354" data-name="Path 7354" d="M2165.021,1058.7a30.393,30.393,0,0,0-6.032-2.927v6.908h-1.327v-11.695h1.327v3.5a37.565,37.565,0,0,1,6.675,2.941Z" fill="#fff"/>
      <path id="Path_7355" data-name="Path 7355" d="M2179.834,1056.214v1.3h-11.763v-1.3Z" fill="#fff"/>
      <path id="Path_7356" data-name="Path 7356" d="M2182.871,1061.508c2.75-.6,7.441-2.189,8.358-8.6h-4.856a11.87,11.87,0,0,1-3.584,3.734l-.78-.93a10.238,10.238,0,0,0,3.543-3.94h7.113c-.6,6.935-4.473,9.822-9.274,10.9Z" fill="#fff"/>
      <path id="Path_7357" data-name="Path 7357" d="M2197.972,1051.385a26.334,26.334,0,0,0-.615,6.2,20.3,20.3,0,0,0,.424,4.856l-1.327.109a27.284,27.284,0,0,1-.356-4.774,31.284,31.284,0,0,1,.575-6.5Zm3.488,5.868a3.306,3.306,0,0,0-.684,1.847c0,1.245,1.4,1.409,2.859,1.409a29.3,29.3,0,0,0,3.133-.164v1.286c-.466.041-1.423.123-2.586.123-2.024,0-4.555-.192-4.555-2.545a4.586,4.586,0,0,1,.725-2.3Zm5.02-4.869v1.2h-6.429v-1.2Z" fill="#fff"/>
      <path id="Path_7358" data-name="Path 7358" d="M2220.843,1063.3a7.66,7.66,0,0,1-4.966-3.967,5.109,5.109,0,0,1-.7,1.313,8.542,8.542,0,0,1-3.871,2.654l-.616-1.04c1.368-.438,3.447-1.3,4.172-3.406H2210.9a9.379,9.379,0,0,1-1.518,4.418l-.944-.834a8.116,8.116,0,0,0,1.382-4.8v-4.623h10.546v3.486h-3.981a8.238,8.238,0,0,1-.123,1.384h4.966v.969h-4.514a6.842,6.842,0,0,0,4.719,3.338Zm.437-12.337v1.011H2208.7v-1.011Zm-10.327,5.538v1.123a1.474,1.474,0,0,1-.014.261h4.159a7.869,7.869,0,0,0,.15-1.384Zm8.289-2.571h-8.289v1.657h8.289Z" fill="#fff"/>
      <path id="Path_7359" data-name="Path 7359" d="M2231.7,1052.411c-.3.219-.725.561-1.067.835-1.751,1.409-1.942,1.559-2.845,2.27a7.315,7.315,0,0,1,2.449-.465c2.01,0,3.625,1.108,3.625,3.434,0,2.681-2.3,4.062-4.856,4.062-2.175,0-3.53-.971-3.53-2.271a2.1,2.1,0,0,1,2.312-1.928,3.341,3.341,0,0,1,3.269,2.681,2.638,2.638,0,0,0,1.587-2.517c0-.725-.219-2.435-2.845-2.435-2.421,0-4.2,1.354-6.073,3.132l-.712-1.025c1.054-.821,4.186-3.338,6.758-5.65-2.326.164-3.133.192-5.362.233v-1.176c2.9,0,4.021-.014,7.29-.206Zm-3.953,6.935c-.834,0-1.19.534-1.19.9,0,.67.876,1.327,2.408,1.327a3.964,3.964,0,0,0,1.066-.123A2.352,2.352,0,0,0,2227.75,1059.346Z" fill="#fff"/>
    </g>
  </g>
</svg>
