<svg xmlns="http://www.w3.org/2000/svg" width="48.729" height="78.54" viewBox="0 0 48.729 78.54">
  <g id="Group_1819" data-name="Group 1819" transform="translate(-1088.476 -981.215)">
    <path id="Path_7695" data-name="Path 7695" d="M1128.893,1011.885c-1.72-6.306-9.173-9.172-9.173-9.172l-.339-.057a6.671,6.671,0,1,0-5.054,0l-.34.057s-7.452,2.866-9.172,9.172-7.166,17.2-3.727,18.632,3.727-2.293,4.873-5.159,4.014-10.32,4.014-10.32,2.579,37.55,4.012,39.844a4.9,4.9,0,0,0,2.294,2.019v.274a1.867,1.867,0,0,1,1.146,0v-.274a4.894,4.894,0,0,0,2.293-2.019c1.433-2.294,4.013-39.844,4.013-39.844s2.866,7.453,4.013,10.32,1.434,6.593,4.873,5.159S1130.612,1018.192,1128.893,1011.885Z" fill="#80bf00"/>
    <path id="Path_7696" data-name="Path 7696" d="M1097.649,981.215l28.091,3.726v3.153h-32.964v-6.879Z" fill="#80bf00"/>
    <rect id="Rectangle_420" data-name="Rectangle 420" width="4.013" height="69.654" transform="translate(1093.636 989.241)" fill="#80bf00"/>
    <rect id="Rectangle_421" data-name="Rectangle 421" width="48.729" height="4.3" transform="translate(1088.476 1055.455)" fill="#80bf00"/>
  </g>
</svg>
