<svg xmlns="http://www.w3.org/2000/svg" width="167.112" height="45.359" viewBox="0 0 167.112 45.359">
  <g id="Group_700" data-name="Group 700" transform="translate(-1210.049 -39.331)">
    <path id="Path_686" data-name="Path 686" d="M1377.161,46.493c-1.031,1.917-1.97,3.891-3.112,5.739a25.124,25.124,0,0,1-13.366,10.887,1.867,1.867,0,0,0-1.122,1.093c-1.7,9.713-7.458,16.1-16.262,20.031a7.591,7.591,0,0,0-.754.447h-.6c-.878-1.086-.734-1.81.433-2.769,6.549-5.375,9.521-12.552,10-20.849a34.612,34.612,0,0,0-.273-6.53,10.482,10.482,0,0,0-1.419-3.351c-.448-.831-.275-1.561.682-1.555a12.734,12.734,0,0,1,9.343,3.926c.2.2.093.792.011,1.177-.282,1.335-.616,2.658-.972,4.163,3.185-1.144,7.447-8.231,7.945-12.957-1.185.071-2.343.13-3.5.21-5.452.376-10.906.731-16.354,1.165a5.779,5.779,0,0,0-2.516.812,1.224,1.224,0,0,1-1.792-.293,10.447,10.447,0,0,1-2.977-6.194,1.677,1.677,0,0,1,.474-1.258c.169-.155.763.111,1.148.239a12.666,12.666,0,0,0,3.324,1.089c2.824.071,5.658-.1,8.483-.268,4.266-.251,8.533-.514,12.785-.924A13.28,13.28,0,0,0,1370,39.331h.6a23.676,23.676,0,0,1,6.565,6.565Z" fill="#00532c"/>
    <path id="Path_687" data-name="Path 687" d="M1244.665,84.69c-2.8-6.287-5.432-12.656-8.455-18.835-2.568-5.25-5.584-10.28-8.411-15.4-.253-.457-.574-.877-1.007-1.531-3.666,6.108-5.829,12.588-8.279,19.274-4.21-2.515-6.7-6.136-8.464-10.362v-.6c.338-.187.76-.609,1-.523,1.687.6,2.687-.511,3.562-1.519,1.461-1.682,2.761-3.508,4.079-5.31,2.17-2.967,4.266-5.988,6.461-8.936,1.122-1.507,1.994-1.458,3.165.03,7.576,9.633,13.9,20.1,20.223,30.557,1,1.657,1.92,3.369,2.984,4.985a2.252,2.252,0,0,1,.1,2.485,12.522,12.522,0,0,1-6.066,5.685Z" fill="#00532c"/>
    <path id="Path_688" data-name="Path 688" d="M1279.878,84.69c-1.631-2.039-3.282-4.062-4.88-6.126a2.308,2.308,0,0,1-.192-2.5,9.212,9.212,0,0,0,.6-3.334c.046-8.4.062-16.8,0-25.193-.017-2.423-.133-4.882-2.063-6.793-.192-.19.163-.932.264-1.418H1276a60.882,60.882,0,0,1,5.789,2.583c1.959,1.113,1.884,1.413,1.289,3.483a11.5,11.5,0,0,0-.425,3.084c-.033,8.1-.02,16.21-.015,24.316,0,.329.059.659.116,1.259,1.042-.648,1.944-1.134,2.766-1.731,4.652-3.383,7.572-8.071,9.9-13.2.212-.467.5-1.065.905-1.244.9-.4,1.6.352,1.424,1.538-1.552,10.485-6.187,18.994-15.692,24.367a14.814,14.814,0,0,0-1.282.908Z" fill="#00532c"/>
    <path id="Path_689" data-name="Path 689" d="M1310.316,84.69a17.843,17.843,0,0,1-6.353-7.5,6.236,6.236,0,0,1-.5-1.55c-.137-.972.523-1.486,1.312-.973,1.734,1.129,3.521.821,5.312.338a31.384,31.384,0,0,0,18.01-12.94c2.772-4.018,4.869-8.5,7.252-12.786.344-.619.363-1.472,1.512-1.139,1.08.313.951,1.012.753,1.739-1.177,4.345-1.992,8.84-3.66,12.99-3.7,9.22-10.429,15.672-19.521,19.688a31.219,31.219,0,0,0-3.524,2.129Z" fill="#00532c"/>
    <path id="Path_690" data-name="Path 690" d="M1254.512,84.69c-.865-1.1-.664-1.836.46-2.8,5.737-4.908,8.329-11.394,8.772-18.767.286-4.76.307-9.54.334-14.311.015-2.479-.066-4.992-2.025-6.958-.115-.116.4-1.267.648-1.277a12.2,12.2,0,0,1,9.369,3.782c.2.192.155.707.1,1.053-.26,1.7-.716,3.381-.821,5.087-.295,4.809-.148,9.663-.729,14.432-1.091,8.959-6.166,15.176-14.215,19.064-.441.213-.865.461-1.3.693Z" fill="#00532c"/>
    <path id="Path_691" data-name="Path 691" d="M1306.437,39.331c2.388.6,4.831,1.049,7.151,1.852,2.563.887,5.005,2.119,7.515,3.163.992.412,1.15,1.046.847,2.01a10.371,10.371,0,0,1-4.295,5.694c-.97.644-1.519.469-2.271-.535-2.008-2.683-4.172-5.257-6.4-7.766a7.43,7.43,0,0,0-2.7-1.8c-1.5-.618-1.516-1.458-.745-2.621Z" fill="#00532c"/>
    <path id="Path_692" data-name="Path 692" d="M1319.081,58.183c-.331,2.632-3.4,6.153-5.506,6.776-.841.248-1.107-.213-1.476-.814a51.831,51.831,0,0,0-4.057-6.222,34.248,34.248,0,0,0-4.885-4.305c-.534-.434-1.03-.656-.715-1.513.308-.836.779-.851,1.5-.692a42.883,42.883,0,0,1,14.123,5.764A5.679,5.679,0,0,1,1319.081,58.183Z" fill="#00532c"/>
  </g>
</svg>
