<svg xmlns="http://www.w3.org/2000/svg" width="445.349" height="508.122" viewBox="0 0 445.349 508.122">
  <g id="Group_1951" data-name="Group 1951" transform="translate(-161.09 -489.295)">
    <g id="Group_1646" data-name="Group 1646" transform="translate(-2628 -1.604)">
      <rect id="Rectangle_376" data-name="Rectangle 376" width="199.581" height="354.423" transform="translate(2789.09 602.37)" fill="#ccc"/>
      <line id="Line_272" data-name="Line 272" y2="353.06" transform="translate(2888.485 602.223)" fill="none" stroke="#fcee21" stroke-miterlimit="10" stroke-width="8.831" stroke-dasharray="1.172 11.719"/>
      <line id="Line_273" data-name="Line 273" x2="199.581" transform="translate(2789.09 778.616)" fill="#fff" stroke="#fcee21" stroke-miterlimit="10" stroke-width="8.831" stroke-dasharray="1.172 11.719"/>
      <path id="Path_7161" data-name="Path 7161" d="M2958.118,771.9c-4.4-7.546-7.547-22.011-9.434-27.671s-7.546-18.237-10.062-25.155-5.66-11.32-6.917-16.351-4.266-10.936-9.433-14.464a78.142,78.142,0,0,0-18.238-8.8c-5.66-1.886-6.289-3.613-6.918-7.781a18.676,18.676,0,0,1,0-6.683s5.031-4.314,5.66-10.018.629-17.024-.629-21.426c-1.191-4.17-7.857-8.333-13.179-8.762-.03-.01-.058-.043-.088-.043-.129,0-.264.015-.395.02s-.267-.02-.4-.02c-.03,0-.058.033-.087.043-5.322.429-11.988,4.592-13.179,8.762-1.258,4.4-1.258,15.722-.629,21.426s5.66,10.018,5.66,10.018a18.676,18.676,0,0,1,0,6.683c-.629,4.168-1.258,5.895-6.918,7.781a78.124,78.124,0,0,0-18.238,8.8c-5.167,3.528-8.175,9.433-9.433,14.464s-4.4,9.433-6.918,16.351-8.175,19.495-10.062,25.155-5.031,20.125-9.433,27.671-4.4,18.238-3.773,23.269,6.917,5.66,8.8,5.031-4.4-8.8-2.515-13.207,2.515,1.258,2.515,6.289,3.144-.629,3.773-6.289-1.257-11.32,0-15.093,8.8-15.093,10.691-20.124,1.887-10.062,3.721-13.836,5.713-5.66,8.228-9.433,7.547-14.464,9.434-15.093,1.886,20.124,1.886,27.671a101.334,101.334,0,0,1-1.258,16.351c-.628,4.4-4.4,27.042-5.66,37.1s1.887,42.135,3.145,50.311-1.258,14.464-2.516,20.753,1.258,16.351,1.62,24.526,2.783,20.124,2.783,23.406-2.516,8.038-6.918,11.183-6.289,6.917-1.887,7.546,15.722.629,17.609-1.257-1.258-11.949-.629-20.125,3.773-17.608,6.289-27.671.629-24.526.629-29.557,3.773-14.464,5.031-20.753,4.4-18.238,5.031-28.3c.392-6.281,2.255-9.866,3.6-11.674,1.345,1.808,3.207,5.393,3.6,11.674.629,10.062,3.773,22.011,5.031,28.3s5.031,15.722,5.031,20.753-1.886,19.495.629,29.557,5.66,19.5,6.289,27.671-2.516,18.238-.629,20.125,13.206,1.886,17.609,1.257,2.515-4.4-1.887-7.546-6.918-7.9-6.918-11.183,2.421-15.23,2.783-23.406,2.877-18.237,1.619-24.526-3.773-12.578-2.515-20.753,4.4-40.249,3.145-50.311-5.032-32.7-5.661-37.1a101.355,101.355,0,0,1-1.257-16.351c0-7.547,0-28.3,1.886-27.671s6.918,11.32,9.433,15.093,6.4,5.66,8.229,9.433,1.834,8.8,3.72,13.836,9.434,16.351,10.691,20.124-.629,9.433,0,15.093,3.774,11.32,3.774,6.289.629-10.691,2.515-6.289-4.4,12.578-2.515,13.207,8.175,0,8.8-5.031S2962.52,779.448,2958.118,771.9Z" fill="none" stroke="#00532c" stroke-miterlimit="10" stroke-width="1.172"/>
      <g id="Group_1644" data-name="Group 1644">
        <line id="Line_274" data-name="Line 274" y2="354.57" transform="translate(2934.095 602.223)" fill="none" stroke="#e4007f" stroke-miterlimit="10" stroke-width="2.344"/>
        <line id="Line_275" data-name="Line 275" x2="198.303" transform="translate(2789.09 726.621)" fill="none" stroke="#e4007f" stroke-miterlimit="10" stroke-width="2.344"/>
        <circle id="Ellipse_164" data-name="Ellipse 164" cx="4.717" cy="4.717" r="4.717" transform="translate(2929.378 721.59)" fill="#e4007f"/>
      </g>
      <line id="Line_276" data-name="Line 276" y2="353.06" transform="translate(2888.485 602.223)" fill="none" stroke="#fff" stroke-miterlimit="10" stroke-width="2.344"/>
      <line id="Line_277" data-name="Line 277" x2="199.581" transform="translate(2789.09 778.753)" fill="none" stroke="#fff" stroke-miterlimit="10" stroke-width="2.344"/>
      <rect id="Rectangle_377" data-name="Rectangle 377" width="199.581" height="34.709" transform="translate(2789.09 567.514)" fill="#00532c"/>
      <rect id="Rectangle_378" data-name="Rectangle 378" width="199.581" height="41.671" transform="translate(2789.09 957.351)" fill="#00532c"/>
      <g id="Group_1645" data-name="Group 1645">
        <circle id="Ellipse_165" data-name="Ellipse 165" cx="17.294" cy="17.294" r="17.294" transform="translate(2872.307 960.461)" fill="#80bf00"/>
        <circle id="Ellipse_166" data-name="Ellipse 166" cx="14.305" cy="14.305" r="14.305" transform="translate(2875.296 963.45)" fill="#80bf00" stroke="#fff" stroke-miterlimit="10" stroke-width="1.172"/>
      </g>
    </g>
    <rect id="Rectangle_379" data-name="Rectangle 379" width="199.581" height="354.423" transform="translate(406.858 600.766)" fill="#ccc"/>
    <line id="Line_278" data-name="Line 278" y2="353.06" transform="translate(506.253 600.619)" fill="none" stroke="#fcee21" stroke-miterlimit="10" stroke-width="8.831" stroke-dasharray="1.172 11.719"/>
    <line id="Line_279" data-name="Line 279" x2="199.581" transform="translate(406.858 777.012)" fill="#fff" stroke="#fcee21" stroke-miterlimit="10" stroke-width="8.831" stroke-dasharray="1.172 11.719"/>
    <g id="Group_1651" data-name="Group 1651" transform="translate(-2627 -1.604)">
      <line id="Line_280" data-name="Line 280" y2="354.57" transform="translate(3097.223 602.223)" fill="none" stroke="#e4007f" stroke-miterlimit="10" stroke-width="2.344"/>
      <line id="Line_281" data-name="Line 281" x2="198.303" transform="translate(3033.858 803.545)" fill="none" stroke="#e4007f" stroke-miterlimit="10" stroke-width="2.344"/>
      <circle id="Ellipse_167" data-name="Ellipse 167" cx="4.717" cy="4.717" r="4.717" transform="translate(3092.507 797.976)" fill="#e4007f"/>
    </g>
    <line id="Line_282" data-name="Line 282" y2="353.06" transform="translate(506.253 600.619)" fill="none" stroke="#fff" stroke-miterlimit="10" stroke-width="2.344"/>
    <line id="Line_283" data-name="Line 283" x2="199.581" transform="translate(406.858 777.149)" fill="none" stroke="#fff" stroke-miterlimit="10" stroke-width="2.344"/>
    <rect id="Rectangle_382" data-name="Rectangle 382" width="199.581" height="34.709" transform="translate(406.858 565.91)" fill="#00532c"/>
    <rect id="Rectangle_383" data-name="Rectangle 383" width="199.581" height="41.671" transform="translate(406.858 955.747)" fill="#00532c"/>
    <g id="Group_1652" data-name="Group 1652" transform="translate(-2627 -1.604)">
      <circle id="Ellipse_168" data-name="Ellipse 168" cx="17.294" cy="17.294" r="17.294" transform="translate(3117.075 960.461)" fill="#80bf00"/>
      <circle id="Ellipse_169" data-name="Ellipse 169" cx="14.305" cy="14.305" r="14.305" transform="translate(3120.064 963.45)" fill="#80bf00" stroke="#fff" stroke-miterlimit="10" stroke-width="1.172"/>
    </g>
    <path id="Path_7162" data-name="Path 7162" d="M3129.363,624.742c-4.362.594-8.8,3.145-11.948,8.8s-1.258,8.175-1.887,11.32-4.4,8.175-4.4,8.175c-.232.63.473,1.335,1.413,1.57s1.88.117,2.233.705a3.588,3.588,0,0,1,0,2.7c-.353.47.705.822.705.822s-1.058,1.528-.353,1.646,1.175.117,1.41.705.705,3.643,2.468,4.113,3.761-.118,5.171-.353,2.7.823,2.7,1.645.235,9.989-.118,10.812-4.936,4.818-7.4,8.7a150.743,150.743,0,0,0-8.109,16.334c-1.763,4.113-2.82,12.575-2.82,16.8s1.527,19.86,1.88,22.563,1.767,21.116.9,25.912-.276,27.907,1.824,33.14,6.9,29.9,6.9,35.662,0,14.919,1.744,20.152,2.844,6.1,4.038,9.593,5.119,37.936,4.247,40.988-4.36,12.645-8.285,15.262-8.721,5.232-11.337,4.8-5.232-1.776-6.54.638,1.468,5.9,9.236,5.9,14.746-3.053,18.67-1.744,9.195,2.18,11.356-.436-.018-10.03-.89-15.7-1.745-10.636,0-15.347,4.8-23.025,3.052-34.8-3.451-17.878-2.162-23.547,3.906-35.32,3.906-40.116,2.616-9.157,3.488-12.645,3.925-13.082,1.309-22.675-3.925-13.081-3.053-17.442,3.383-41.86,4.09-50.145-5.4-16.134-7.578-20.494-4.8-7.849-4.361-12.209,4.8-9.157,6.541-13.082,2.616-12.209.872-17.877S3141.857,623.043,3129.363,624.742Z" transform="translate(-2627 -1.604)" fill="none" stroke="#00532c" stroke-miterlimit="10" stroke-width="1.172"/>
    <g id="Group_1654" data-name="Group 1654" transform="translate(-2628 -1.604)">
      <path id="Path_7163" data-name="Path 7163" d="M3169.462,512.841a13,13,0,0,0-12.651-12.611,16.2,16.2,0,0,0-12.182,3.891c-1.382,1.227-2.058,1.484-3.654.033-5.221-4.751-11.558-5.322-17.756-1.969-1.277.69-2.01,1.615-3.838.211-3.025-2.322-5.562-.686-5.684,3.331-.115,3.731-.025,7.469-.026,11.2,0,3.424.018,6.847-.007,10.271-.017,2.412-.166,4.942,3.271,5.044,3.713.11,3.572-2.495,3.659-5.131.154-4.636-.827-9.364.829-13.889,1.56-4.26,5.8-6.925,9.838-6.344,3.8.549,5.927,3.5,6.047,8.694q.145,6.3.006,12.6c-.064,2.7.657,4.712,3.728,4.779s3.906-1.881,3.869-4.617a119.954,119.954,0,0,1,.163-12.6,9.829,9.829,0,0,1,10.17-8.975c4.561.279,6.664,3.094,6.8,9.358.1,4.355-.018,8.715.061,13.071.043,2.381,1.308,3.8,3.808,3.784,2.483-.016,3.674-1.3,3.649-3.806C3169.509,523.732,3169.736,518.275,3169.462,512.841Z" fill="#231815"/>
      <path id="Path_7164" data-name="Path 7164" d="M3040.825,501.767c-2.333,1.192-3.879.659-5.932-.072a15.3,15.3,0,0,0-17.018,4.508c-4.259,5.256-4.742,14.136-1.1,20.236,3.06,5.129,8.883,7.677,15.367,6.509a50.335,50.335,0,0,0,6.145-1.92c-1.46,6.826-8.124,9.078-14.549,4.995-2.35-1.493-4.666-2.678-6.394.228-1.616,2.719.774,4.234,2.741,5.537,5.4,3.574,14.732,3.451,20.047-.224,2.967-2.052,5.109-4.805,5.19-8.43.21-9.322.192-18.65.135-27.974C3045.438,502.2,3043.335,500.485,3040.825,501.767Zm-11.114,25.38c-5.021.053-8.608-4.168-8.65-10.179-.042-6.075,3.7-10.273,9.1-10.206,5.906.074,8.453,3.126,8.454,10.127C3038.613,524.014,3035.951,527.082,3029.711,527.147Z" fill="#231815"/>
      <path id="Path_7165" data-name="Path 7165" d="M2966.153,491.585c-2.435-.01-3.8,1.124-3.756,3.686.039,2.268.008,4.536.008,6.641-1.265.5-1.839-.139-2.529-.448-7.248-3.24-14.905-1.6-19.474,4.139-4.8,6.036-4.707,16.983.2,23.084,4.555,5.663,12,7.041,19.48,3.475,1.37-.653,1.982-.884,3.436.355,3.047,2.6,6.387,1.043,6.429-2.838.126-11.49.035-22.983.052-34.474C2970,492.605,2968.529,491.594,2966.153,491.585Zm-12.66,35.474c-4.958.02-8.569-4.294-8.6-10.277-.032-5.838,3.578-9.96,8.784-10.03,5.905-.078,8.683,3.1,8.687,9.944C2962.366,523.762,2959.565,527.036,2953.493,527.059Z" fill="#231815"/>
      <path id="Path_7166" data-name="Path 7166" d="M2878.5,499.19c-2.909.187-5.244,1.727-8.311,3.251,0-3.023.012-5.347,0-7.67-.018-2.7-1.426-3.953-4.123-3.868-2.66.084-3.335,1.609-3.322,4.006q.1,17.012.008,34.023c-.006,1.684.227,3.156,2,3.777,1.539.54,3.376.712,4.282-.772,1.226-2.008,2.2-1.2,3.674-.449,6.825,3.478,13.175,2.829,17.764-1.657,5.183-5.068,6.7-15.043,3.373-22.2C2891.089,501.719,2885.541,498.736,2878.5,499.19Zm.046,27.183c-5.591.18-8.978-3.078-9.009-8.668-.045-8.093,2.509-11.635,8.4-11.647,5.128-.011,8.864,4.134,8.916,9.894C2886.905,521.989,2883.539,526.212,2878.543,526.373Z" fill="#231815"/>
      <path id="Path_7167" data-name="Path 7167" d="M3105.544,504.773c-.112-3.3-2.711-5.174-5.286-3.423-2.158,1.468-3.406.826-5.293.027a15.33,15.33,0,0,0-17.854,4.295c-4.692,5.868-4.868,16.186-.381,22.339,3.818,5.236,10.918,7.057,17.736,4.43,1.977-.762,3.465-1.71,5.792-.019,2.485,1.8,5.158-.089,5.277-3.391.146-4.038.035-8.085.038-12.129S3105.681,508.812,3105.544,504.773Zm-16.269,22.372c-5.1.053-8.409-3.932-8.432-10.154-.024-6.365,3.354-10.27,8.848-10.229,5.875.044,8.273,2.971,8.273,10.1C3097.965,524.121,3095.464,527.079,3089.275,527.145Z" fill="#231815"/>
      <path id="Path_7168" data-name="Path 7168" d="M2916.011,500.162c-10.053.056-16.764,6.692-16.8,16.615-.038,10.085,6.937,16.989,17.057,16.883,9.916-.1,16.879-6.958,16.935-16.671C2933.258,507.044,2926.17,500.105,2916.011,500.162Zm.038,27.058c-5.449-.042-9.25-4.2-9.275-10.142-.027-6.317,3.684-10.389,9.433-10.351,5.663.038,9.459,4.3,9.354,10.5C2925.462,523.035,2921.441,527.262,2916.049,527.22Z" fill="#231815"/>
      <path id="Path_7169" data-name="Path 7169" d="M3006.972,501.388c-2.957-1.6-4.572.419-5.814,2.853-2.891,5.663-5.823,11.305-9.064,17.586-3.411-6.547-6.423-12.319-9.425-18.1-1.12-2.156-2.728-3.672-5.23-2.488-2.759,1.307-2.492,3.545-1.232,5.91,2.557,4.8,4.672,9.877,7.652,14.395,3.6,5.462,4.547,10.448.286,15.944-1.611,2.077-2.33,4.842.77,6.336,3.078,1.484,4.547-1.011,5.717-3.262,5.726-11.022,11.377-22.083,17.089-33.113C3008.886,505.2,3009.7,502.866,3006.972,501.388Z" fill="#231815"/>
      <path id="Path_7170" data-name="Path 7170" d="M3066.975,501.361c-3.211.012-6.421,4.668-9.226-.062-3.046.319-4.209,1.712-4.183,4.378.072,7.466.057,14.934.007,22.4-.016,2.344.7,4.083,3.293,4.164,2.887.09,3.624-1.777,3.632-4.306.014-4.35-.054-8.72.328-13.045.356-4.024,2.023-7.165,6.922-7.235,2.1-.03,3.686-1.224,3.416-3.541C3070.89,501.774,3069.041,501.354,3066.975,501.361Z" fill="#231815"/>
    </g>
  </g>
</svg>
