<svg xmlns="http://www.w3.org/2000/svg" width="670" height="149" viewBox="0 0 670 149">
  <g id="Group_801" data-name="Group 801" transform="translate(-44.421 -1370.662)">
    <g id="Group_544" data-name="Group 544" transform="translate(-2628 -3.909)">
      <g id="Group_542" data-name="Group 542">
        <g id="Group_532" data-name="Group 532">
          <path id="Path_487" data-name="Path 487" d="M3148.766,1487.131c-.212.387-.32.644-.432.839-.155.273-.273.448-.464.808-.108.2-.324.424-.511.79-.135.264-.1.632-.247.922-.135.272-.324.528-.466.818s-.247.57-.386.858-.312.541-.441.829-.217.588-.341.876-.276.565-.4.851-.346.543-.469.829-.094.644-.208.928-.23.587-.332.872c-.11.307-.346.558-.435.841-.1.319-.163.631-.23.912a5.507,5.507,0,0,0-.056.931,5.72,5.72,0,0,0-.057.816,5.55,5.55,0,0,0,.046.825,5.317,5.317,0,0,0,.268.782,5.4,5.4,0,0,0,.363.737,6.493,6.493,0,0,0,.456.682,8.107,8.107,0,0,0,.545.612c.18.2.382.376.588.565a3.712,3.712,0,0,0,1.3.992c.23.137.452.295.7.417s.5.2.762.307.461.332.728.417.575-.043.847.021.515.17.791.219.529.133.807.169c.254.033.5.115.736.128.256.013.507-.069.746-.078s.5.02.742-.012a7.421,7.421,0,0,0,.748-.062,6.862,6.862,0,0,0,.7-.285,6.4,6.4,0,0,0,.63-.407,6.653,6.653,0,0,0,.7-.269,5.968,5.968,0,0,0,.582-.464,6.866,6.866,0,0,0,.507-.546c.167-.183.266-.418.414-.615s.279-.4.411-.61.427-.326.545-.541.2-.463.3-.684.112-.5.208-.722.321-.411.406-.638.021-.525.1-.752a4.4,4.4,0,0,0,.292-.855c.039-.272.033-.579.056-.9.021-.285-.04-.59-.03-.908.009-.288.061-.587.062-.9,0-.293.038-.6.032-.905s0-.6-.011-.906-.139-.59-.157-.893-.064-.6-.086-.9.137-.617.117-.92-.075-.6-.1-.9-.106-.6-.132-.895-.028-.606-.054-.9-.11-.6-.138-.9.057-.621.027-.91c-.032-.313-.068-.613-.1-.9-.035-.321-.107-.618-.136-.9-.036-.337-.144-.631-.172-.889-.045-.429-.049-.742-.071-.9" fill="#fff3d9"/>
          <path id="Path_488" data-name="Path 488" d="M3148.766,1487.131c-.212.387-.32.644-.432.839-.155.273-.273.448-.464.808-.108.2-.324.424-.511.79-.135.264-.1.632-.247.922-.135.272-.324.528-.466.818s-.247.57-.386.858-.312.541-.441.829-.217.588-.341.876-.276.565-.4.851-.346.543-.469.829-.094.644-.208.928-.23.587-.332.872c-.11.307-.346.558-.435.841-.1.319-.163.631-.23.912a5.507,5.507,0,0,0-.056.931,5.72,5.72,0,0,0-.057.816,5.55,5.55,0,0,0,.046.825,5.317,5.317,0,0,0,.268.782,5.4,5.4,0,0,0,.363.737,6.493,6.493,0,0,0,.456.682,8.107,8.107,0,0,0,.545.612c.18.2.382.376.588.565a3.712,3.712,0,0,0,1.3.992c.23.137.452.295.7.417s.5.2.762.307.461.332.728.417.575-.043.847.021.515.17.791.219.529.133.807.169c.254.033.5.115.736.128.256.013.507-.069.746-.078s.5.02.742-.012a7.421,7.421,0,0,0,.748-.062,6.862,6.862,0,0,0,.7-.285,6.4,6.4,0,0,0,.63-.407,6.653,6.653,0,0,0,.7-.269,5.968,5.968,0,0,0,.582-.464,6.866,6.866,0,0,0,.507-.546c.167-.183.266-.418.414-.615s.279-.4.411-.61.427-.326.545-.541.2-.463.3-.684.112-.5.208-.722.321-.411.406-.638.021-.525.1-.752a4.4,4.4,0,0,0,.292-.855c.039-.272.033-.579.056-.9.021-.285-.04-.59-.03-.908.009-.288.061-.587.062-.9,0-.293.038-.6.032-.905s0-.6-.011-.906-.139-.59-.157-.893-.064-.6-.086-.9.137-.617.117-.92-.075-.6-.1-.9-.106-.6-.132-.895-.028-.606-.054-.9-.11-.6-.138-.9.057-.621.027-.91c-.032-.313-.068-.613-.1-.9-.035-.321-.107-.618-.136-.9-.036-.337-.144-.631-.172-.889-.045-.429-.049-.742-.071-.9" fill="none" stroke="#c0a683" stroke-linecap="round" stroke-linejoin="round" stroke-width="0.893"/>
        </g>
        <path id="Path_489" data-name="Path 489" d="M3182.891,1473.415c0-.878-.146-1.317-1.463-2.341s-2.049-1.024-1.83-1.39.878-1.829.878-1.829,3.439.439,3.366,3.512S3182.891,1473.415,3182.891,1473.415Z" fill="#eb5a24" fill-rule="evenodd"/>
        <g id="Group_533" data-name="Group 533">
          <path id="Path_490" data-name="Path 490" d="M3147.449,1443.44a4.788,4.788,0,0,0-.912.281c-.225.166-.243.5-.529.777a6.578,6.578,0,0,1-.7.555c-.225.161-.285.575-.533.757-.228.167-.508.283-.754.464-.23.171-.579.2-.822.377s-.417.417-.661.591-.618.144-.86.32-.489.334-.725.515-.516.293-.749.474-.315.557-.547.74-.34.519-.569.7-.631.163-.861.347-.341.519-.567.7-.648.154-.868.343-.165.7-.374.906-.671.167-.874.371-.294.554-.5.753c-.219.215-.564.288-.761.488-.22.223-.45.424-.631.629-.214.241-.087.7-.232.923a2.343,2.343,0,0,0-.254.611,2.555,2.555,0,0,0-.173,1.3c.07.227,0,.521.135.725a3.118,3.118,0,0,0,.747.608,4.5,4.5,0,0,0,.836.432c.279.128.508.437.826.527a8.412,8.412,0,0,0,.938.265c.308.052.656-.209.983-.2a5.034,5.034,0,0,0,.93-.08c.308-.05.691.169,1.006.071a8.311,8.311,0,0,0,.9-.388,8.578,8.578,0,0,0,.886-.42c.266-.161.316-.641.572-.848a8.874,8.874,0,0,0,.65-.674c.22-.221.595-.293.808-.545.172-.2.52-.214.789-.387.227-.144.36-.5.649-.62.253-.106.553-.149.851-.237.263-.078.536-.188.831-.256.273-.063.583,0,.881-.057.278-.049.558-.135.856-.176.28-.037.572-.026.868-.055s.572-.058.869-.08.589.177.885.159.553-.5.848-.511.579-.091.874-.1.588.48.883.475.571-.287.863-.289.576.076.868.077.587-.152.883-.148.576.014.868.012.583-.093.876-.092.578.325.871.334.6-.336.889-.32.558.431.849.448.585.026.876.04.592-.192.883-.184.591-.19.882-.181.56.54.85.558.583.034.873.053.594-.1.885-.083.592-.152.879-.133.583.091.872.115.594-.1.882-.08.569.2.856.224.6-.126.894-.1.552.4.837.427.6-.154.885-.133.607-.156.892-.131.554.428.837.453.6-.047.877-.028c.3.02.592.083.873.091.3.008.595-.035.871-.032.307,0,.607-.246.877-.235s.54.341.807.383.62-.2.881-.134.4.625.651.711a6.04,6.04,0,0,1,.729.311c.25.121.473.238.705.376s.448.3.673.451.595.1.819.257.53.217.744.38.529.257.726.44.088.712.275.905.717.088.9.279c.2.209.146.651.337.825.22.2.63.126.836.275.248.178.378.441.613.52a1.265,1.265,0,0,0,.8.095c.224-.073.241-.447.473-.677a3.539,3.539,0,0,0,.5-.585c.137-.207.684-.2.826-.472.155-.293.135-.66.264-.927.145-.3.428-.518.544-.786.133-.308.252-.605.353-.875a7.958,7.958,0,0,0,.164-.947c.086-.334-.121-.671-.1-.955.025-.335.215-.63.156-.918a2.9,2.9,0,0,0-.39-.84c-.145-.253-.111-.671-.323-.926-.185-.223-.45-.417-.676-.662-.2-.213-.657-.214-.874-.461-.2-.222-.421-.438-.64-.685-.2-.223-.12-.714-.342-.956-.191-.208-.6-.223-.841-.428-.218-.185-.249-.643-.5-.824-.236-.168-.614-.158-.876-.321-.245-.153-.622-.082-.893-.225s-.525-.251-.8-.384-.388-.565-.664-.693-.5-.334-.772-.459-.571-.187-.849-.3-.595-.122-.877-.228-.612-.037-.9-.126-.475-.479-.761-.563-.633.032-.919-.058-.547-.25-.832-.338-.533-.31-.819-.393-.632.037-.92-.038-.56-.233-.848-.31-.615-.011-.9-.083-.537-.344-.825-.405-.605-.061-.9-.112-.58-.194-.869-.239-.64.192-.927.148c-.3-.046-.573-.272-.861-.308-.305-.039-.624.147-.908.12-.31-.03-.587-.281-.868-.3s-.608.167-.939.148c-.3-.018-.6-.3-.925-.31-.3-.012-.619-.053-.943-.056-.3,0-.61.368-.929.38s-.633-.364-.951-.352-.614.128-.931.13-.619-.078-.933-.078-.622.035-.935.036-.624.37-.939.376-.637-.436-.949-.427-.621.325-.933.334-.632-.257-.94-.249-.628.25-.939.255-.625.242-.931.247-.628-.057-.933-.048c-.322.01-.649-.484-.954-.477-.323.007-.63.27-.93.276-.328.008-.643-.064-.938-.053a8.754,8.754,0,0,1-.939.017c-.422-.038-.637.2-.935.215C3148.187,1443.564,3147.883,1443.3,3147.449,1443.44Z" fill="#fff3d9"/>
          <path id="Path_491" data-name="Path 491" d="M3147.449,1443.44a4.788,4.788,0,0,0-.912.281c-.225.166-.243.5-.529.777a6.578,6.578,0,0,1-.7.555c-.225.161-.285.575-.533.757-.228.167-.508.283-.754.464-.23.171-.579.2-.822.377s-.417.417-.661.591-.618.144-.86.32-.489.334-.725.515-.516.293-.749.474-.315.557-.547.74-.34.519-.569.7-.631.163-.861.347-.341.519-.567.7-.648.154-.868.343-.165.7-.374.906-.671.167-.874.371-.294.554-.5.753c-.219.215-.564.288-.761.488-.22.223-.45.424-.631.629-.214.241-.087.7-.232.923a2.343,2.343,0,0,0-.254.611,2.555,2.555,0,0,0-.173,1.3c.07.227,0,.521.135.725a3.118,3.118,0,0,0,.747.608,4.5,4.5,0,0,0,.836.432c.279.128.508.437.826.527a8.412,8.412,0,0,0,.938.265c.308.052.656-.209.983-.2a5.034,5.034,0,0,0,.93-.08c.308-.05.691.169,1.006.071a8.311,8.311,0,0,0,.9-.388,8.578,8.578,0,0,0,.886-.42c.266-.161.316-.641.572-.848a8.874,8.874,0,0,0,.65-.674c.22-.221.595-.293.808-.545.172-.2.52-.214.789-.387.227-.144.36-.5.649-.62.253-.106.553-.149.851-.237.263-.078.536-.188.831-.256.273-.063.583,0,.881-.057.278-.049.558-.135.856-.176.28-.037.572-.026.868-.055s.572-.058.869-.08.589.177.885.159.553-.5.848-.511.579-.091.874-.1.588.48.883.475.571-.287.863-.289.576.076.868.077.587-.152.883-.148.576.014.868.012.583-.093.876-.092.578.325.871.334.6-.336.889-.32.558.431.849.448.585.026.876.04.592-.192.883-.184.591-.19.882-.181.56.54.85.558.583.034.873.053.594-.1.885-.083.592-.152.879-.133.583.091.872.115.594-.1.882-.08.569.2.856.224.6-.126.894-.1.552.4.837.427.6-.154.885-.133.607-.156.892-.131.554.428.837.453.6-.047.877-.028c.3.02.592.083.873.091.3.008.595-.035.871-.032.307,0,.607-.246.877-.235s.54.341.807.383.62-.2.881-.134.4.625.651.711a6.04,6.04,0,0,1,.729.311c.25.121.473.238.705.376s.448.3.673.451.595.1.819.257.53.217.744.38.529.257.726.44.088.712.275.905.717.088.9.279c.2.209.146.651.337.825.22.2.63.126.836.275.248.178.378.441.613.52a1.265,1.265,0,0,0,.8.095c.224-.073.241-.447.473-.677a3.539,3.539,0,0,0,.5-.585c.137-.207.684-.2.826-.472.155-.293.135-.66.264-.927.145-.3.428-.518.544-.786.133-.308.252-.605.353-.875a7.958,7.958,0,0,0,.164-.947c.086-.334-.121-.671-.1-.955.025-.335.215-.63.156-.918a2.9,2.9,0,0,0-.39-.84c-.145-.253-.111-.671-.323-.926-.185-.223-.45-.417-.676-.662-.2-.213-.657-.214-.874-.461-.2-.222-.421-.438-.64-.685-.2-.223-.12-.714-.342-.956-.191-.208-.6-.223-.841-.428-.218-.185-.249-.643-.5-.824-.236-.168-.614-.158-.876-.321-.245-.153-.622-.082-.893-.225s-.525-.251-.8-.384-.388-.565-.664-.693-.5-.334-.772-.459-.571-.187-.849-.3-.595-.122-.877-.228-.612-.037-.9-.126-.475-.479-.761-.563-.633.032-.919-.058-.547-.25-.832-.338-.533-.31-.819-.393-.632.037-.92-.038-.56-.233-.848-.31-.615-.011-.9-.083-.537-.344-.825-.405-.605-.061-.9-.112-.58-.194-.869-.239-.64.192-.927.148c-.3-.046-.573-.272-.861-.308-.305-.039-.624.147-.908.12-.31-.03-.587-.281-.868-.3s-.608.167-.939.148c-.3-.018-.6-.3-.925-.31-.3-.012-.619-.053-.943-.056-.3,0-.61.368-.929.38s-.633-.364-.951-.352-.614.128-.931.13-.619-.078-.933-.078-.622.035-.935.036-.624.37-.939.376-.637-.436-.949-.427-.621.325-.933.334-.632-.257-.94-.249-.628.25-.939.255-.625.242-.931.247-.628-.057-.933-.048c-.322.01-.649-.484-.954-.477-.323.007-.63.27-.93.276-.328.008-.643-.064-.938-.053a8.754,8.754,0,0,1-.939.017c-.422-.038-.637.2-.935.215C3148.187,1443.564,3147.883,1443.3,3147.449,1443.44Z" fill="none" stroke="#c0a683" stroke-linecap="round" stroke-linejoin="round" stroke-width="0.893"/>
        </g>
        <g id="Group_534" data-name="Group 534">
          <path id="Path_492" data-name="Path 492" d="M3178.963,1456.254c.1.246.049.582.163.888.1.258.225.522.321.823.086.268.165.549.244.851.071.274.362.506.432.8.065.279,0,.6.067.9.059.282.213.557.268.857.053.284-.2.624-.15.924s.258.555.3.856.237.563.275.864-.146.606-.119.906-.092.595-.07.9.464.557.486.857-.246.6-.231.9.235.582.246.883.027.593.033.894.07.583.082.881-.362.6-.355.906.207.588.2.889-.2.576-.231.874.052.6.02.9.111.6.088.9c-.025.315-.269.6-.3.908s.213.663.162.963-.424.547-.507.841-.025.645-.131.934-.082.65-.209.929-.4.507-.544.778-.4.484-.572.742-.468.417-.655.663-.374.481-.572.718-.18.664-.389.892-.566.312-.788.526-.364.517-.6.714-.379.535-.629.717-.6.227-.863.4-.6.208-.866.366-.507.357-.781.5-.437.522-.716.654-.608.173-.89.3-.7-.065-.986.048-.522.364-.811.467-.517.416-.809.51-.624.105-.918.191-.581.253-.876.329-.619.11-.915.177-.627.093-.925.153c-.313.064-.659-.1-.955-.052-.317.055-.6.207-.9.247-.324.044-.633.064-.922.1-.335.038-.642.07-.924.092-.354.028-.657.175-.913.175s-.561-.021-.873-.03c-.278-.008-.57-.075-.878-.095-.282-.018-.568-.116-.871-.147-.282-.03-.566-.084-.863-.126s-.587.006-.882-.046-.573-.1-.865-.161-.56-.154-.85-.22-.537-.239-.823-.317-.575-.093-.856-.186-.523-.253-.8-.358-.65.047-.921-.07-.464-.4-.728-.527-.622-.081-.878-.227-.416-.45-.663-.61-.629-.123-.869-.293-.374-.487-.606-.669-.46-.368-.679-.564-.456-.378-.66-.591-.47-.374-.662-.6-.4-.448-.572-.688-.054-.672-.21-.924-.478-.4-.611-.666-.1-.594-.211-.875-.107-.575-.2-.861-.559-.449-.626-.74.11-.623.056-.917-.141-.569-.2-.861.082-.6.035-.9-.273-.552-.31-.845,0-.591-.025-.885-.1-.581-.119-.875.016-.589.006-.883.022-.588.016-.882-.073-.59-.079-.884.055-.59.054-.882-.067-.589-.056-.881.046-.593.064-.886.161-.579.183-.867-.041-.6-.013-.882.006-.6.042-.883c.038-.3.184-.575.226-.856.046-.3-.129-.627-.081-.9.044-.254.087-.535.152-.824.059-.26.178-.523.253-.807.068-.262.325-.481.406-.761.076-.26.211-.507.3-.781s.126-.538.215-.81.05-.568.144-.837-.021-.6.076-.861.208-.516.309-.778.389-.456.492-.721.2-.524.294-.787.151-.543.253-.8.178-.536.288-.794.167-.548.29-.8.378-.441.5-.689.08-.585.2-.836.265-.5.381-.754.379-.445.5-.693.083-.594.211-.836.554-.346.69-.583.273-.5.414-.726c.151-.249.075-.628.22-.852.161-.25.6-.291.751-.5.178-.249.081-.681.247-.874.209-.244.569-.279.757-.419a2.311,2.311,0,0,1,.757-.47c.252-.078.587.045.916-.017.275-.052.564-.1.886-.135.282-.034.551-.379.864-.4.289-.018.6.147.914.134.292-.013.588-.172.9-.186.293-.013.6.154.906.142s.59-.233.9-.242.6-.016.906-.019.6-.007.9-.007.6.365.9.368.6-.112.909-.109.6-.007.9,0,.6.026.9.033.606-.2.9-.188.61-.023.91-.011.594.228.891.242.611-.151.907-.14.6.008.9.015.6.35.891.358.618-.259.908-.246" fill="#fff3d9"/>
          <path id="Path_493" data-name="Path 493" d="M3178.963,1456.254c.1.246.049.582.163.888.1.258.225.522.321.823.086.268.165.549.244.851.071.274.362.506.432.8.065.279,0,.6.067.9.059.282.213.557.268.857.053.284-.2.624-.15.924s.258.555.3.856.237.563.275.864-.146.606-.119.906-.092.595-.07.9.464.557.486.857-.246.6-.231.9.235.582.246.883.027.593.033.894.07.583.082.881-.362.6-.355.906.207.588.2.889-.2.576-.231.874.052.6.02.9.111.6.088.9c-.025.315-.269.6-.3.908s.213.663.162.963-.424.547-.507.841-.025.645-.131.934-.082.65-.209.929-.4.507-.544.778-.4.484-.572.742-.468.417-.655.663-.374.481-.572.718-.18.664-.389.892-.566.312-.788.526-.364.517-.6.714-.379.535-.629.717-.6.227-.863.4-.6.208-.866.366-.507.357-.781.5-.437.522-.716.654-.608.173-.89.3-.7-.065-.986.048-.522.364-.811.467-.517.416-.809.51-.624.105-.918.191-.581.253-.876.329-.619.11-.915.177-.627.093-.925.153c-.313.064-.659-.1-.955-.052-.317.055-.6.207-.9.247-.324.044-.633.064-.922.1-.335.038-.642.07-.924.092-.354.028-.657.175-.913.175s-.561-.021-.873-.03c-.278-.008-.57-.075-.878-.095-.282-.018-.568-.116-.871-.147-.282-.03-.566-.084-.863-.126s-.587.006-.882-.046-.573-.1-.865-.161-.56-.154-.85-.22-.537-.239-.823-.317-.575-.093-.856-.186-.523-.253-.8-.358-.65.047-.921-.07-.464-.4-.728-.527-.622-.081-.878-.227-.416-.45-.663-.61-.629-.123-.869-.293-.374-.487-.606-.669-.46-.368-.679-.564-.456-.378-.66-.591-.47-.374-.662-.6-.4-.448-.572-.688-.054-.672-.21-.924-.478-.4-.611-.666-.1-.594-.211-.875-.107-.575-.2-.861-.559-.449-.626-.74.11-.623.056-.917-.141-.569-.2-.861.082-.6.035-.9-.273-.552-.31-.845,0-.591-.025-.885-.1-.581-.119-.875.016-.589.006-.883.022-.588.016-.882-.073-.59-.079-.884.055-.59.054-.882-.067-.589-.056-.881.046-.593.064-.886.161-.579.183-.867-.041-.6-.013-.882.006-.6.042-.883c.038-.3.184-.575.226-.856.046-.3-.129-.627-.081-.9.044-.254.087-.535.152-.824.059-.26.178-.523.253-.807.068-.262.325-.481.406-.761.076-.26.211-.507.3-.781s.126-.538.215-.81.05-.568.144-.837-.021-.6.076-.861.208-.516.309-.778.389-.456.492-.721.2-.524.294-.787.151-.543.253-.8.178-.536.288-.794.167-.548.29-.8.378-.441.5-.689.08-.585.2-.836.265-.5.381-.754.379-.445.5-.693.083-.594.211-.836.554-.346.69-.583.273-.5.414-.726c.151-.249.075-.628.22-.852.161-.25.6-.291.751-.5.178-.249.081-.681.247-.874.209-.244.569-.279.757-.419a2.311,2.311,0,0,1,.757-.47c.252-.078.587.045.916-.017.275-.052.564-.1.886-.135.282-.034.551-.379.864-.4.289-.018.6.147.914.134.292-.013.588-.172.9-.186.293-.013.6.154.906.142s.59-.233.9-.242.6-.016.906-.019.6-.007.9-.007.6.365.9.368.6-.112.909-.109.6-.007.9,0,.6.026.9.033.606-.2.9-.188.61-.023.91-.011.594.228.891.242.611-.151.907-.14.6.008.9.015.6.35.891.358.618-.259.908-.246" fill="none" stroke="#c0a683" stroke-linecap="round" stroke-linejoin="round" stroke-width="0.893"/>
        </g>
        <path id="Path_494" data-name="Path 494" d="M3163.442,1434.227" fill="#fff3d9" stroke="#000" stroke-linecap="round" stroke-linejoin="round" stroke-width="0.988"/>
        <g id="Group_535" data-name="Group 535">
          <path id="Path_495" data-name="Path 495" d="M3178.208,1481.713s.084.272.292.8c.091.233.272.483.393.8.1.256.246.521.358.825.1.263.016.609.125.9.1.269.23.538.334.831.1.272.206.549.3.842.089.276.366.5.457.79s.064.6.151.89.146.575.227.866.068.592.138.885.147.575.211.868.112.586.178.878.339.534.4.826.106.59.165.883-.074.62-.028.914.08.591.119.887.108.587.138.882.084.592.1.887.042.6.047.893.16.6.151.9-.165.595-.185.888.017.608-.019.9-.091.6-.148.885a8.77,8.77,0,0,1-.3.845,6.858,6.858,0,0,1-.372.8,6.656,6.656,0,0,1-.361.8,6.917,6.917,0,0,1-.4.809c-.2.244-.425.453-.618.675s-.359.513-.562.723c-.219.225-.55.318-.771.508-.238.206-.385.512-.621.685-.255.187-.629.171-.878.323-.27.164-.512.33-.775.456-.284.136-.5.412-.777.507a7.441,7.441,0,0,1-.907.152,7.608,7.608,0,0,1-.9.07,6.651,6.651,0,0,1-.9-.023c-.309-.012-.632.191-.925.148s-.586-.223-.874-.289c-.3-.069-.6-.134-.884-.217-.3-.088-.6-.146-.875-.239-.3-.1-.592-.188-.859-.282a4.576,4.576,0,0,1-.694-.408,3.459,3.459,0,0,1-1.141-1.063c-.164-.2-.5-.292-.632-.528a6.332,6.332,0,0,1-.2-.8,6.232,6.232,0,0,1-.217-.76,7.814,7.814,0,0,1-.219-.762c-.037-.255.053-.528.033-.8-.02-.257-.211-.513-.218-.789-.007-.258.161-.523.166-.8.005-.259-.063-.526-.049-.8s-.1-.536-.081-.81c.026-.31.137-.622.166-.948s0-.639.033-.963.1-.633.139-.953.158-.627.2-.945.132-.631.179-.947.039-.647.084-.961.047-.651.093-.963.121-.641.168-.947c.05-.331-.035-.671.013-.971.054-.338.321-.619.368-.908.059-.36.042-.69.087-.957.1-.59.077-.467.159-.933" fill="#fff3d9"/>
          <path id="Path_496" data-name="Path 496" d="M3178.208,1481.713s.084.272.292.8c.091.233.272.483.393.8.1.256.246.521.358.825.1.263.016.609.125.9.1.269.23.538.334.831.1.272.206.549.3.842.089.276.366.5.457.79s.064.6.151.89.146.575.227.866.068.592.138.885.147.575.211.868.112.586.178.878.339.534.4.826.106.59.165.883-.074.62-.028.914.08.591.119.887.108.587.138.882.084.592.1.887.042.6.047.893.16.6.151.9-.165.595-.185.888.017.608-.019.9-.091.6-.148.885a8.77,8.77,0,0,1-.3.845,6.858,6.858,0,0,1-.372.8,6.656,6.656,0,0,1-.361.8,6.917,6.917,0,0,1-.4.809c-.2.244-.425.453-.618.675s-.359.513-.562.723c-.219.225-.55.318-.771.508-.238.206-.385.512-.621.685-.255.187-.629.171-.878.323-.27.164-.512.33-.775.456-.284.136-.5.412-.777.507a7.441,7.441,0,0,1-.907.152,7.608,7.608,0,0,1-.9.07,6.651,6.651,0,0,1-.9-.023c-.309-.012-.632.191-.925.148s-.586-.223-.874-.289c-.3-.069-.6-.134-.884-.217-.3-.088-.6-.146-.875-.239-.3-.1-.592-.188-.859-.282a4.576,4.576,0,0,1-.694-.408,3.459,3.459,0,0,1-1.141-1.063c-.164-.2-.5-.292-.632-.528a6.332,6.332,0,0,1-.2-.8,6.232,6.232,0,0,1-.217-.76,7.814,7.814,0,0,1-.219-.762c-.037-.255.053-.528.033-.8-.02-.257-.211-.513-.218-.789-.007-.258.161-.523.166-.8.005-.259-.063-.526-.049-.8s-.1-.536-.081-.81c.026-.31.137-.622.166-.948s0-.639.033-.963.1-.633.139-.953.158-.627.2-.945.132-.631.179-.947.039-.647.084-.961.047-.651.093-.963.121-.641.168-.947c.05-.331-.035-.671.013-.971.054-.338.321-.619.368-.908.059-.36.042-.69.087-.957.1-.59.077-.467.159-.933" fill="none" stroke="#c0a683" stroke-linecap="round" stroke-linejoin="round" stroke-width="0.893"/>
        </g>
        <g id="Path_497" data-name="Path 497" fill="#fff3d9" stroke-linecap="round" stroke-linejoin="round">
          <path d="M 3161.47412109375 1449.987915039062 C 3158.66845703125 1449.987915039062 3155.835693359375 1449.70654296875 3153.05419921875 1449.1513671875 C 3145.509765625 1447.645385742188 3139.5986328125 1443.892333984375 3135.95947265625 1438.298095703125 C 3134.093994140625 1435.430541992188 3132.880859375 1432.164672851562 3132.353759765625 1428.59130859375 C 3131.826904296875 1425.019409179688 3132.000732421875 1421.239624023438 3132.8701171875 1417.357055664062 C 3133.515625 1414.473022460938 3134.6396484375 1411.744262695312 3136.211181640625 1409.246459960938 C 3137.806396484375 1406.7109375 3139.822265625 1404.479370117188 3142.20263671875 1402.613525390625 C 3147.302734375 1398.615966796875 3153.82470703125 1396.503051757812 3161.0634765625 1396.503051757812 C 3163.255859375 1396.503051757812 3165.532958984375 1396.698120117188 3167.83154296875 1397.082763671875 C 3172.135009765625 1397.802734375 3175.948486328125 1399.174560546875 3179.166015625 1401.160034179688 C 3182.2490234375 1403.0625 3184.773681640625 1405.518310546875 3186.669677734375 1408.459106445312 C 3188.781005859375 1411.73388671875 3190.078369140625 1415.539794921875 3190.525634765625 1419.771240234375 C 3190.966796875 1423.94287109375 3190.568603515625 1428.39794921875 3189.34228515625 1433.012817382812 C 3187.9697265625 1438.1767578125 3184.474365234375 1442.517211914062 3179.23388671875 1445.565063476562 C 3176.770263671875 1446.997924804688 3173.984130859375 1448.106079101562 3170.952880859375 1448.85888671875 C 3167.936279296875 1449.608032226562 3164.747314453125 1449.987915039062 3161.47412109375 1449.987915039062 Z" stroke="none"/>
          <path d="M 3161.47412109375 1449.494018554688 C 3174.448486328125 1449.494018554688 3186.066650390625 1443.414184570312 3188.864990234375 1432.885986328125 C 3193.388916015625 1415.860961914062 3186.48193359375 1400.703979492188 3167.75 1397.569946289062 C 3165.42626953125 1397.181030273438 3163.19677734375 1396.996948242188 3161.0634765625 1396.996948242188 C 3146.005126953125 1396.996948242188 3135.876220703125 1406.188354492188 3133.35205078125 1417.464965820312 C 3130.02587890625 1432.318969726562 3137.14599609375 1445.472045898438 3153.15087890625 1448.6669921875 C 3155.939697265625 1449.223510742188 3158.736083984375 1449.494018554688 3161.47412109375 1449.494018554688 M 3161.47412109375 1450.48193359375 C 3158.635986328125 1450.48193359375 3155.770751953125 1450.197265625 3152.95751953125 1449.6357421875 C 3145.27978515625 1448.103149414062 3139.2587890625 1444.275756835938 3135.54541015625 1438.5673828125 C 3133.640869140625 1435.639770507812 3132.40283203125 1432.3076171875 3131.865234375 1428.663452148438 C 3131.329345703125 1425.031372070312 3131.50537109375 1421.191040039062 3132.387939453125 1417.249145507812 C 3133.0458984375 1414.309936523438 3134.191650390625 1411.528930664062 3135.793212890625 1408.983520507812 C 3137.418701171875 1406.399658203125 3139.47265625 1404.125732421875 3141.89794921875 1402.224731445312 C 3147.0859375 1398.158447265625 3153.71337890625 1396.009033203125 3161.0634765625 1396.009033203125 C 3163.282958984375 1396.009033203125 3165.58740234375 1396.206420898438 3167.9130859375 1396.595581054688 C 3172.27978515625 1397.326171875 3176.153076171875 1398.720458984375 3179.42529296875 1400.739624023438 C 3182.571533203125 1402.681030273438 3185.148681640625 1405.188232421875 3187.0849609375 1408.191528320312 C 3189.238525390625 1411.53173828125 3190.561279296875 1415.410278320312 3191.016845703125 1419.71923828125 C 3191.46435546875 1423.951049804688 3191.0615234375 1428.466430664062 3189.81982421875 1433.1396484375 C 3188.412841796875 1438.432739257812 3184.838134765625 1442.876953125 3179.482177734375 1445.992065429688 C 3176.97802734375 1447.448364257812 3174.1484375 1448.57421875 3171.072021484375 1449.338256835938 C 3168.0166015625 1450.09716796875 3164.787353515625 1450.48193359375 3161.47412109375 1450.48193359375 Z" stroke="none" fill="#c0a683"/>
        </g>
        <g id="Group_536" data-name="Group 536">
          <ellipse id="Ellipse_61" data-name="Ellipse 61" cx="6.193" cy="6.016" rx="6.193" ry="6.016" transform="translate(3140.539 1428.437) rotate(-78.712)" fill="#fff" stroke="#d3b68e" stroke-miterlimit="10" stroke-width="0.719"/>
          <ellipse id="Ellipse_62" data-name="Ellipse 62" cx="4.07" cy="4.247" rx="4.07" ry="4.247" transform="translate(3142.616 1428.468) rotate(-78.712)" fill="#333"/>
        </g>
        <g id="Group_537" data-name="Group 537">
          <ellipse id="Ellipse_63" data-name="Ellipse 63" cx="6.193" cy="6.016" rx="6.193" ry="6.016" transform="translate(3164.715 1428.581) rotate(-78.712)" fill="#fff" stroke="#d3b68e" stroke-miterlimit="10" stroke-width="0.719"/>
          <ellipse id="Ellipse_64" data-name="Ellipse 64" cx="4.07" cy="4.247" rx="4.07" ry="4.247" transform="translate(3166.772 1428.829) rotate(-78.712)" fill="#333"/>
        </g>
        <path id="Path_498" data-name="Path 498" d="M3148.715,1436.291s-.011-.56.056-1.373a13.878,13.878,0,0,1,.531-2.892c.632-2.028,3.665-3.906,5.227-4.161a37.224,37.224,0,0,1,7.773-.685,6.392,6.392,0,0,1,4.288,1.706,13.251,13.251,0,0,1-1.812,4.625c-1.2,1.479-4.747,3.34-7.533,3.954A14.037,14.037,0,0,1,3148.715,1436.291Z" fill="#00532c"/>
        <g id="Group_538" data-name="Group 538">
          <path id="Path_499" data-name="Path 499" d="M3149.647,1434.341s4.478-1.616,7.44-2.322,6.845-1.8,6.845-1.8" fill="none" stroke="#7cb629" stroke-linecap="round" stroke-linejoin="round" stroke-width="0.66"/>
          <path id="Path_500" data-name="Path 500" d="M3163.921,1432.125l-2.485-1.159.53-1.547" fill="none" stroke="#7cb629" stroke-linecap="round" stroke-linejoin="round" stroke-width="0.66"/>
          <path id="Path_501" data-name="Path 501" d="M3159.27,1429.469l-1.158,2.47,3.37,1.486" fill="none" stroke="#7cb629" stroke-linecap="round" stroke-linejoin="round" stroke-width="0.66"/>
          <path id="Path_502" data-name="Path 502" d="M3156.115,1429.713l-1.2,3.053,3.013,1.886" fill="none" stroke="#7cb629" stroke-linecap="round" stroke-linejoin="round" stroke-width="0.66"/>
          <path id="Path_503" data-name="Path 503" d="M3152.364,1430.48l-1.182,3.338,3.782,1.541" fill="none" stroke="#7cb629" stroke-linecap="round" stroke-linejoin="round" stroke-width="0.66"/>
        </g>
        <g id="Group_539" data-name="Group 539">
          <path id="Path_504" data-name="Path 504" d="M3159.777,1444.006c-.656-.867-.906-.409-1.709-2.962a9.289,9.289,0,0,1-.151-3.543" fill="none" stroke="#00532c" stroke-linecap="round" stroke-linejoin="round" stroke-width="0.825"/>
        </g>
        <path id="Path_505" data-name="Path 505" d="M3167.846,1439.155s-1.139,4.687-8.046,5.232-8.6-2.933-8.6-2.933" fill="none" stroke="#d65a24" stroke-linecap="round" stroke-linejoin="round" stroke-width="0.825"/>
        <path id="Path_506" data-name="Path 506" d="M3144.405,1459.513c3.914.9,11.563,3.2,11.563,7.72s-11.78,1.947-14.49,1.646l.073-1.024.22-1.537s9.158,3.426,11.121,1.463c1.244-1.244.36-3.323-2.049-4.829a12.588,12.588,0,0,0-4.829-1.756Z" fill="#eb5a24" fill-rule="evenodd"/>
        <path id="Path_507" data-name="Path 507" d="M3174.928,1465.675c-2.889.722-3.373.027-6.744-.455s-5.02,2.391-2.853,4.317S3177.7,1474,3177.7,1474l.439-1.244-.073-.586a77.575,77.575,0,0,0-8.341-2.56c-3.371-.723-4.228-4.265-1.1-4.025s6.064,3.219,8.231,2.015S3174.928,1465.675,3174.928,1465.675Z" fill="#eb5a24" fill-rule="evenodd"/>
        <g id="Group_540" data-name="Group 540">
          <path id="Path_508" data-name="Path 508" d="M3138.056,1457.573c.336-.082.273-.022.694-.1.2-.038.457.062.716.019.212-.034.428-.188.671-.22.222-.029.451-.129.69-.153s.471.006.708-.008.476.351.71.349.46-.107.691-.1.453.1.68.129c.256.033.511-.155.679-.09a1.115,1.115,0,0,1,.537.412.875.875,0,0,1,.019.649,1.982,1.982,0,0,1-.241.6,4.521,4.521,0,0,1-.361.522c-.381,0-.405.05.185.616.136.131.464.124.719.323.172.134.152.586.39.757.2.142.512.108.654.279a2.417,2.417,0,0,1,.279.635,2.543,2.543,0,0,1,.248.64c.033.225.246.472.228.708s-.275.435-.336.665a4.5,4.5,0,0,1-.141.69,5.482,5.482,0,0,1-.352.609,5.732,5.732,0,0,1-.391.582c-.141.182-.392.269-.556.436s-.219.448-.4.594a5.93,5.93,0,0,1-.594.381c-.216.135-.507.1-.722.2a4.741,4.741,0,0,1-.662.278,4.549,4.549,0,0,1-.7.137c-.242.029-.478.268-.722.261a6.466,6.466,0,0,1-.725-.2,7.167,7.167,0,0,1-.74-.056c-.231-.061-.37-.424-.6-.507s-.51,0-.738-.1-.512-.048-.736-.155-.338-.408-.558-.523-.358-.352-.575-.473c-.193-.107-.613.14-.819.009-.19-.122-.224-.493-.419-.635s-.5-.112-.684-.264-.367-.3-.54-.461-.381-.292-.543-.465-.02-.6-.169-.784-.444-.241-.578-.434-.105-.478-.223-.682-.318-.349-.416-.563-.347-.366-.425-.589.07-.506.016-.736-.383-.407-.413-.642.268-.488.263-.726-.164-.462-.146-.7-.113-.492-.071-.728.236-.432.3-.665.239-.407.32-.633.3-.366.4-.587.189-.407.3-.621-.032-.56.094-.765.42-.291.558-.488.169-.462.317-.651.158-.492.314-.674.439-.253.6-.428.434-.24.6-.408.3-.373.475-.535.173-.526.353-.682.429-.241.613-.392.583-.036.77-.182.285-.411.476-.553.255-.465.449-.6.445-.2.641-.337.353-.341.551-.469.432-.225.632-.348.438-.215.638-.335.537-.046.739-.161.37-.331.57-.441c.221-.122.441-.217.64-.322.229-.121.44-.231.636-.33.243-.122.4-.347.58-.434a2.11,2.11,0,0,1,.66-.215" fill="#fff3d9"/>
          <path id="Path_509" data-name="Path 509" d="M3138.056,1457.573c.336-.082.273-.022.694-.1.2-.038.457.062.716.019.212-.034.428-.188.671-.22.222-.029.451-.129.69-.153s.471.006.708-.008.476.351.71.349.46-.107.691-.1.453.1.68.129c.256.033.511-.155.679-.09a1.115,1.115,0,0,1,.537.412.875.875,0,0,1,.019.649,1.982,1.982,0,0,1-.241.6,4.521,4.521,0,0,1-.361.522c-.381,0-.405.05.185.616.136.131.464.124.719.323.172.134.152.586.39.757.2.142.512.108.654.279a2.417,2.417,0,0,1,.279.635,2.543,2.543,0,0,1,.248.64c.033.225.246.472.228.708s-.275.435-.336.665a4.5,4.5,0,0,1-.141.69,5.482,5.482,0,0,1-.352.609,5.732,5.732,0,0,1-.391.582c-.141.182-.392.269-.556.436s-.219.448-.4.594a5.93,5.93,0,0,1-.594.381c-.216.135-.507.1-.722.2a4.741,4.741,0,0,1-.662.278,4.549,4.549,0,0,1-.7.137c-.242.029-.478.268-.722.261a6.466,6.466,0,0,1-.725-.2,7.167,7.167,0,0,1-.74-.056c-.231-.061-.37-.424-.6-.507s-.51,0-.738-.1-.512-.048-.736-.155-.338-.408-.558-.523-.358-.352-.575-.473c-.193-.107-.613.14-.819.009-.19-.122-.224-.493-.419-.635s-.5-.112-.684-.264-.367-.3-.54-.461-.381-.292-.543-.465-.02-.6-.169-.784-.444-.241-.578-.434-.105-.478-.223-.682-.318-.349-.416-.563-.347-.366-.425-.589.07-.506.016-.736-.383-.407-.413-.642.268-.488.263-.726-.164-.462-.146-.7-.113-.492-.071-.728.236-.432.3-.665.239-.407.32-.633.3-.366.4-.587.189-.407.3-.621-.032-.56.094-.765.42-.291.558-.488.169-.462.317-.651.158-.492.314-.674.439-.253.6-.428.434-.24.6-.408.3-.373.475-.535.173-.526.353-.682.429-.241.613-.392.583-.036.77-.182.285-.411.476-.553.255-.465.449-.6.445-.2.641-.337.353-.341.551-.469.432-.225.632-.348.438-.215.638-.335.537-.046.739-.161.37-.331.57-.441c.221-.122.441-.217.64-.322.229-.121.44-.231.636-.33.243-.122.4-.347.58-.434a2.11,2.11,0,0,1,.66-.215" fill="none" stroke="#c0a683" stroke-linecap="round" stroke-linejoin="round" stroke-width="0.988"/>
        </g>
        <path id="Path_510" data-name="Path 510" d="M3178.428,1472.391c1.756.512,3.658,1.829,4.682.585a2.7,2.7,0,0,0-.365-4.024s1.463.659,1.317,3.585-1.171,3.366-2.488,3.293a7.749,7.749,0,0,1-4.024-1.464,12.848,12.848,0,0,0-1.756-1.1Z" fill="#eb5a24" fill-rule="evenodd"/>
        <g id="Group_541" data-name="Group 541">
          <path id="Path_511" data-name="Path 511" d="M3178.574,1445.584a1.835,1.835,0,0,0,.627.343c.191.068.541-.18.8-.08.2.08.463.1.7.2.208.09.237.619.467.725.209.1.6-.157.822-.045.208.1.438.2.657.313s.287.468.5.591.511.073.72.2.232.523.436.657.639-.086.838.055.378.306.571.454.324.372.512.526.182.523.363.684.464.2.638.366.244.429.412.6.531.165.69.348.2.46.353.65.286.385.427.582.439.288.569.492.011.557.131.767.265.4.373.614.489.308.586.531-.116.567-.033.8.156.449.226.682.291.418.348.656.2.465.241.7-.339.528-.321.763.086.465.083.7.01.471-.014.707.338.546.291.779-.343.426-.412.655-.192.443-.281.666-.347.361-.455.576-.192.426-.317.632-.277.376-.416.572.064.653-.088.84-.355.345-.517.522-.613.076-.785.245-.352.311-.532.472-.309.365-.494.518-.334.347-.525.493-.369.3-.564.445-.21.548-.409.682-.567.026-.769.155-.341.375-.546.5-.426.237-.632.357-.513.08-.719.2-.492.112-.7.224-.374.334-.579.445c-.22.12-.291.494-.492.6-.223.121-.47.167-.666.277-.228.129-.352.379-.537.494-.235.146-.622.006-.771.132s-.171.513-.4.653c-.182.111-.609-.177-.834-.063-.2.1-.37.254-.595.352-.206.091-.285.516-.511.6s-.5-.023-.73.052-.479.012-.708.077-.464.032-.7.086-.356.581-.588.624-.507-.165-.74-.136-.465.082-.7.1-.473.1-.706.1-.484.018-.715,0-.444-.246-.672-.293a5.309,5.309,0,0,1-.652-.239c-.224-.077-.369-.266-.575-.374s-.652.153-.838.01-.129-.558-.288-.736a3.71,3.71,0,0,1-.369-.57c-.136-.221-.38-.359-.483-.573-.111-.234.032-.538-.042-.764-.081-.245-.5-.384-.538-.619-.044-.254.284-.522.281-.763s-.147-.486-.11-.724-.173-.565-.1-.8.341-.417.451-.634a6.188,6.188,0,0,1,.283-.71,6.113,6.113,0,0,1,.523-.55c.172-.191.462-.25.641-.4a4.877,4.877,0,0,1,.627-.373c.233-.152.383-.45.577-.528-.3-.131-.309.129-.679.133a4.836,4.836,0,0,1-.664-.092c-.241-.034-.62.143-.783.039-.19-.123.026-.5.086-.769a1.129,1.129,0,0,1,.16-.6,3.586,3.586,0,0,1,.492-.534c.193-.168.256-.553.464-.663s.635.276.869.215.4-.5.645-.517a6.249,6.249,0,0,1,.751-.022c.243.013.483.169.724.2s.456.277.693.316.488.118.722.153c.253.038.541-.4.77-.383.261.016.54.547.759.506.2-.037.324-.556.58-.633.209-.063.472,0,.708-.083.212-.076.526.073.752-.019s.34-.406.56-.5.47-.1.685-.207.511-.051.72-.159.435-.217.639-.332.424-.251.619-.373c.212-.131.367-.351.551-.482.208-.148.287-.439.45-.582a2.453,2.453,0,0,0,.4-.562c.167-.246.253-.359.158-.548" fill="#fff3d9"/>
          <path id="Path_512" data-name="Path 512" d="M3178.574,1445.584a1.835,1.835,0,0,0,.627.343c.191.068.541-.18.8-.08.2.08.463.1.7.2.208.09.237.619.467.725.209.1.6-.157.822-.045.208.1.438.2.657.313s.287.468.5.591.511.073.72.2.232.523.436.657.639-.086.838.055.378.306.571.454.324.372.512.526.182.523.363.684.464.2.638.366.244.429.412.6.531.165.69.348.2.46.353.65.286.385.427.582.439.288.569.492.011.557.131.767.265.4.373.614.489.308.586.531-.116.567-.033.8.156.449.226.682.291.418.348.656.2.465.241.7-.339.528-.321.763.086.465.083.7.01.471-.014.707.338.546.291.779-.343.426-.412.655-.192.443-.281.666-.347.361-.455.576-.192.426-.317.632-.277.376-.416.572.064.653-.088.84-.355.345-.517.522-.613.076-.785.245-.352.311-.532.472-.309.365-.494.518-.334.347-.525.493-.369.3-.564.445-.21.548-.409.682-.567.026-.769.155-.341.375-.546.5-.426.237-.632.357-.513.08-.719.2-.492.112-.7.224-.374.334-.579.445c-.22.12-.291.494-.492.6-.223.121-.47.167-.666.277-.228.129-.352.379-.537.494-.235.146-.622.006-.771.132s-.171.513-.4.653c-.182.111-.609-.177-.834-.063-.2.1-.37.254-.595.352-.206.091-.285.516-.511.6s-.5-.023-.73.052-.479.012-.708.077-.464.032-.7.086-.356.581-.588.624-.507-.165-.74-.136-.465.082-.7.1-.473.1-.706.1-.484.018-.715,0-.444-.246-.672-.293a5.309,5.309,0,0,1-.652-.239c-.224-.077-.369-.266-.575-.374s-.652.153-.838.01-.129-.558-.288-.736a3.71,3.71,0,0,1-.369-.57c-.136-.221-.38-.359-.483-.573-.111-.234.032-.538-.042-.764-.081-.245-.5-.384-.538-.619-.044-.254.284-.522.281-.763s-.147-.486-.11-.724-.173-.565-.1-.8.341-.417.451-.634a6.188,6.188,0,0,1,.283-.71,6.113,6.113,0,0,1,.523-.55c.172-.191.462-.25.641-.4a4.877,4.877,0,0,1,.627-.373c.233-.152.383-.45.577-.528-.3-.131-.309.129-.679.133a4.836,4.836,0,0,1-.664-.092c-.241-.034-.62.143-.783.039-.19-.123.026-.5.086-.769a1.129,1.129,0,0,1,.16-.6,3.586,3.586,0,0,1,.492-.534c.193-.168.256-.553.464-.663s.635.276.869.215.4-.5.645-.517a6.249,6.249,0,0,1,.751-.022c.243.013.483.169.724.2s.456.277.693.316.488.118.722.153c.253.038.541-.4.77-.383.261.016.54.547.759.506.2-.037.324-.556.58-.633.209-.063.472,0,.708-.083.212-.076.526.073.752-.019s.34-.406.56-.5.47-.1.685-.207.511-.051.72-.159.435-.217.639-.332.424-.251.619-.373c.212-.131.367-.351.551-.482.208-.148.287-.439.45-.582a2.453,2.453,0,0,0,.4-.562c.167-.246.253-.359.158-.548" fill="none" stroke="#c0a683" stroke-linecap="round" stroke-linejoin="round" stroke-width="0.988"/>
        </g>
      </g>
      <path id="Path_513" data-name="Path 513" d="M3164.839,1396.487s2.709-6.76,4.441-7.1a17.035,17.035,0,0,1,8.818,1.116c4.036,1.856,8.8,5.475,8.58,6.866-.547,3.528.314,5.359-1.177,6.476S3164.839,1396.487,3164.839,1396.487Z" fill="#00532c"/>
      <path id="Path_514" data-name="Path 514" d="M3186.1,1404.608a102.823,102.823,0,0,0-9.567-4.649c-8.3-3.614-12.763-5.367-12.322-3.918l1.841-2.738a26.277,26.277,0,0,1,9.815,1.635c5.211,1.834,10.858,7.187,10.858,7.187Z" fill="#fcee21"/>
      <path id="Path_515" data-name="Path 515" d="M3160,1394.223s-2.918,2.54,10.664,9.281c6.622,3.286,12.268,3.251,15.029,4.157,2.654.871,3.239.093,3.239.093s-1.905-4.117-4.588-4.946C3169.679,1398.273,3164.2,1392.2,3160,1394.223Z" fill="#00532c"/>
      <path id="Path_516" data-name="Path 516" d="M3180.32,1402.813s.724-4.689,4.346-5.016,5.033.574,5.033.574A7.285,7.285,0,0,1,3180.32,1402.813Z" fill="#7cb629"/>
      <g id="Group_543" data-name="Group 543">
        <circle id="Ellipse_65" data-name="Ellipse 65" cx="5.998" cy="5.998" r="5.998" transform="translate(3192.648 1485.418)" fill="#f39a79"/>
        <path id="Path_517" data-name="Path 517" d="M3192.648,1490.154c-.314,3.3,2.686,6,6,6a6,6,0,0,0,6-6c0-2-2.58-4.735-5.892-4.735S3192.859,1487.944,3192.648,1490.154Z" fill="#eb5a24"/>
        <circle id="Ellipse_66" data-name="Ellipse 66" cx="1.473" cy="1.473" r="1.473" transform="translate(3197.068 1489.207)" fill="#bfbfbf"/>
      </g>
      <path id="Path_518" data-name="Path 518" d="M3195.4,1495.146c-9.366-.658-20.78-3.805-21.878-14.414-.644-6.231,2.269-14.853-4.682-16.1l-2.488.732s3.732-.366,4.8,5.048c.712,3.613-1.139,11.488,2.081,16.756,2.526,4.134,9.739,10.076,22.4,9.564Z" fill="#eb5a24" fill-rule="evenodd"/>
      <path id="Path_519" data-name="Path 519" d="M3145.648,1459.733a6.69,6.69,0,0,0-4.755.878c-2.2,1.463-5.2,4.17-5.927,8.122s.219,9.146-.512,12.511a33.756,33.756,0,0,1-2.2,6.439l3,.585s1.9-3.878,1.829-7.024-.732-8.707.073-11.487.732-4.317,3.658-6.366,3.951-2.268,6.146-2.048" fill="#eb5a24" fill-rule="evenodd"/>
    </g>
    <text id="メジャーで測ることも_できるよ_" data-name="メジャーで測ることも
できるよ！" transform="translate(152.862 1440.076)" fill="#eb5a24" font-size="28" font-family="PingFangTC-Regular, PingFang TC" letter-spacing="0.075em"><tspan x="0" y="0">メジャーで測ることも</tspan><tspan y="0" font-family="Helvetica"></tspan><tspan x="0" y="42">できるよ！</tspan></text>
    <rect id="Rectangle_223" data-name="Rectangle 223" width="149" height="670" rx="9.644" transform="translate(714.421 1370.662) rotate(90)" fill="none"/>
  </g>
</svg>
