<svg xmlns="http://www.w3.org/2000/svg" width="59.138" height="105.805" viewBox="0 0 59.138 105.805">
  <g id="Group_1640" data-name="Group 1640" transform="translate(-2783.09 -286.975)">
    <path id="Path_7113" data-name="Path 7113" d="M2804.459,334.237c3.856.771,5.82,1.852,6.878,5.29s-5.291,24.072-5.291,24.072l-4.118-.69s5.316-15.294,5.58-18.733,1.91-4.257-1.793-5.58-12.309,5.377-16.541,4.584c0,0-4.819-3.123-2.438-6.3s3.439-3.7,3.439-3.7l1.852,1.587s-.336.469-.736,1.037-.853,1.214-1.116,1.608c-.529.794-.794,1.852,2.381.529S2801.814,333.708,2804.459,334.237Z" fill="#80bf00"/>
    <path id="Path_7114" data-name="Path 7114" d="M2821.124,335.031c-3.856.771-5.94,1.817-6.878,5.29-1.955,7.243,3.625,12.823,3.625,12.823l2.392-3.587s-1.2.368-1.993-2.99c-1.058-4.5-1.91-6.848,1.793-8.17s11.91,4.779,16.143,3.985c0,0,4.757-2.325,2.377-5.5s-3.439-3.7-3.439-3.7l-1.852,1.587s.335.469.736,1.037.853,1.214,1.116,1.608c.529.794.793,1.852-2.381.529S2823.769,334.5,2821.124,335.031Z" fill="#80bf00"/>
    <path id="Path_7115" data-name="Path 7115" d="M2840.434,321.8c-2.008-6.025-14.679-11.131-20.67-13.243a18.14,18.14,0,0,0-1.921-1.022,10.3,10.3,0,1,0-10.371.319l-.179.108c-4.761,1.575-20.177,7.141-22.409,13.838-2.328,6.987,10.512,16.02,15.422,18.262-.394,5.487-.872,13.705-.872,17.977,0,6.349-.266,29.362,0,30.685s6.877,4.761,8.2.264,2.09-26.889,2.313-30.643c.2-3.325,1.768-4.575,3.014-5.047,1.18.473,2.9,1.726,2.94,5.047.05,3.76.991,26.146,2.313,30.643s7.936,1.058,8.2-.264,0-24.336,0-30.685c0-4.335-.494-12.737-.891-18.222C2830.754,337.23,2842.687,328.561,2840.434,321.8Zm-39.013-2.72c-.118,3.671-.3,8.957-.457,12.394-3.282-2.974-7.35-6.5-7.35-6.5S2794.809,322.221,2801.421,319.085Zm23.441,11.935c-.151-3.352-.315-8.177-.426-11.672,6.132,3.025,7.269,5.631,7.269,5.631S2828.042,328.154,2824.862,331.02Z" fill="none" stroke="#80bf00" stroke-linecap="round" stroke-linejoin="round" stroke-width="3"/>
    <ellipse id="Ellipse_162" data-name="Ellipse 162" cx="3.326" cy="3.647" rx="3.326" ry="3.647" transform="translate(2817.13 347.558)" fill="#80bf00"/>
    <ellipse id="Ellipse_163" data-name="Ellipse 163" cx="0.844" cy="1.039" rx="0.844" ry="1.039" transform="translate(2820.194 350.092)" fill="#fff"/>
    <path id="Path_7116" data-name="Path 7116" d="M2791.365,334.072c4.233,3.67,9.126,6.381,10.449,6.514a3.492,3.492,0,0,0,2.381-6.084c-.34-.34-.767-.749-1.252-1.205-1.311-1.228-3.053-2.794-4.676-4.234" fill="#fff" stroke="#80bf00" stroke-linecap="round" stroke-linejoin="round" stroke-width="3"/>
    <path id="Path_7117" data-name="Path 7117" d="M2832.787,335.046c-3.925,3.167-8.08,5.419-9.282,5.54a3.492,3.492,0,0,1-2.381-6.084c.34-.34.766-.749,1.252-1.205,1.358-1.273,3.179-2.908,4.852-4.391" fill="#fff" stroke="#80bf00" stroke-linecap="round" stroke-linejoin="round" stroke-width="3"/>
  </g>
</svg>
