<svg xmlns="http://www.w3.org/2000/svg" width="670" height="227.691" viewBox="0 0 670 227.691">
  <g id="Group_803" data-name="Group 803" transform="translate(-39.827 -549.2)">
    <g id="Group_802" data-name="Group 802" transform="translate(187.102 567.458)">
      <text id="おへその周りで_メジャーを_周回して_測ろう_" data-name="おへその周りで
メジャーを１周回して
測ろう！" transform="translate(154.96 70.243)" fill="#eb5a24" font-size="27.99" font-family="PingFangTC-Regular, PingFang TC" letter-spacing="0.075em"><tspan x="0" y="0">おへその周りで</tspan><tspan y="0" font-family="Helvetica"></tspan><tspan x="0" y="41.985">メジャーを１周回して</tspan><tspan y="41.985" font-family="Helvetica"></tspan><tspan x="0" y="83.971">測ろう！</tspan></text>
      <g id="Group_512" data-name="Group 512" transform="translate(0 0)">
        <g id="Group_510" data-name="Group 510" transform="translate(0 12.152)">
          <g id="Group_500" data-name="Group 500" transform="translate(18.18 137.111)">
            <path id="Path_434" data-name="Path 434" d="M3692.018,724.6a12.986,12.986,0,0,1-.908,1.169c-.239.432-.216.816-.511,1.382-.167.32-.489.67-.782,1.243-.211.411-.3.911-.528,1.364-.213.423-.719.719-.941,1.17-.212.43-.217.974-.432,1.422s-.338.912-.54,1.362-.6.8-.8,1.251-.368.908-.563,1.353-.4.9-.588,1.347-.328.933-.507,1.376c-.187.466-.464.886-.624,1.331-.172.479-.4.924-.541,1.367-.154.5-.049,1.039-.152,1.478a9.189,9.189,0,0,0-.143,1.429,9.374,9.374,0,0,0-.178,1.267,8.444,8.444,0,0,0,.137,1.276,8.03,8.03,0,0,0,.448,1.2,8.511,8.511,0,0,0,.464,1.193,10.824,10.824,0,0,0,.826.984,11.9,11.9,0,0,0,.772,1.01,12.382,12.382,0,0,0,.778,1.035c.312.28.739.433,1.091.692s.613.608.988.832c.359.214.837.215,1.23.4s.754.362,1.163.519c.391.15.8.247,1.218.38.4.128.726.521,1.147.632s.836.176,1.264.261c.412.082.842.138,1.276.2.4.051.787.075,1.16.093.4.02.793.073,1.166.057a11.056,11.056,0,0,0,1.14-.269c.393-.054.816.079,1.18-.011.385-.095.653-.522,1.005-.655a10.527,10.527,0,0,0,1.142-.262,9.761,9.761,0,0,0,1.03-.548,10.556,10.556,0,0,0,.858-.792c.291-.256.543-.553.806-.833s.654-.467.891-.77.364-.7.575-1.022.327-.7.511-1.042.34-.692.5-1.039.229-.742.373-1.1.334-.7.462-1.056c.135-.372.283-.727.4-1.082a7.128,7.128,0,0,0,.5-1.322c.067-.424,0-.91.039-1.416.035-.443-.053-.917-.037-1.413.014-.45.322-.917.317-1.4,0-.458-.225-.926-.24-1.409-.013-.462-.038-.933-.054-1.412-.017-.464.088-.94.063-1.414s-.144-.928-.174-1.4-.126-.937-.159-1.409-.145-.938-.177-1.406.15-.956.116-1.42-.035-.947-.076-1.407c-.044-.48-.1-.95-.145-1.408-.044-.483-.267-.935-.31-1.387-.047-.488-.1-.954-.152-1.4-.054-.5-.1-.97-.154-1.4-.06-.526-.1-1-.154-1.4-.081-.669-.15-1.15-.184-1.395" transform="translate(-3683.282 -720.973)" fill="#fff3d9"/>
            <path id="Path_435" data-name="Path 435" d="M3692.018,724.6a12.986,12.986,0,0,1-.908,1.169c-.239.432-.216.816-.511,1.382-.167.32-.489.67-.782,1.243-.211.411-.3.911-.528,1.364-.213.423-.719.719-.941,1.17-.212.43-.217.974-.432,1.422s-.338.912-.54,1.362-.6.8-.8,1.251-.368.908-.563,1.353-.4.9-.588,1.347-.328.933-.507,1.376c-.187.466-.464.886-.624,1.331-.172.479-.4.924-.541,1.367-.154.5-.049,1.039-.152,1.478a9.189,9.189,0,0,0-.143,1.429,9.374,9.374,0,0,0-.178,1.267,8.444,8.444,0,0,0,.137,1.276,8.03,8.03,0,0,0,.448,1.2,8.511,8.511,0,0,0,.464,1.193,10.824,10.824,0,0,0,.826.984,11.9,11.9,0,0,0,.772,1.01,12.382,12.382,0,0,0,.778,1.035c.312.28.739.433,1.091.692s.613.608.988.832c.359.214.837.215,1.23.4s.754.362,1.163.519c.391.15.8.247,1.218.38.4.128.726.521,1.147.632s.836.176,1.264.261c.412.082.842.138,1.276.2.4.051.787.075,1.16.093.4.02.793.073,1.166.057a11.056,11.056,0,0,0,1.14-.269c.393-.054.816.079,1.18-.011.385-.095.653-.522,1.005-.655a10.527,10.527,0,0,0,1.142-.262,9.761,9.761,0,0,0,1.03-.548,10.556,10.556,0,0,0,.858-.792c.291-.256.543-.553.806-.833s.654-.467.891-.77.364-.7.575-1.022.327-.7.511-1.042.34-.692.5-1.039.229-.742.373-1.1.334-.7.462-1.056c.135-.372.283-.727.4-1.082a7.128,7.128,0,0,0,.5-1.322c.067-.424,0-.91.039-1.416.035-.443-.053-.917-.037-1.413.014-.45.322-.917.317-1.4,0-.458-.225-.926-.24-1.409-.013-.462-.038-.933-.054-1.412-.017-.464.088-.94.063-1.414s-.144-.928-.174-1.4-.126-.937-.159-1.409-.145-.938-.177-1.406.15-.956.116-1.42-.035-.947-.076-1.407c-.044-.48-.1-.95-.145-1.408-.044-.483-.267-.935-.31-1.387-.047-.488-.1-.954-.152-1.4-.054-.5-.1-.97-.154-1.4-.06-.526-.1-1-.154-1.4-.081-.669-.15-1.15-.184-1.395" transform="translate(-3683.282 -720.973)" fill="none" stroke="#c0a683" stroke-linecap="round" stroke-linejoin="round" stroke-width="1.393"/>
          </g>
          <path id="Path_436" data-name="Path 436" d="M3745.106,703.1c0-1.37-.228-2.055-2.284-3.654s-3.2-1.6-2.855-2.169,1.37-2.854,1.37-2.854,5.368.685,5.254,5.48S3745.106,703.1,3745.106,703.1Z" transform="translate(-3665.102 -583.862)" fill="#eb5a24" fill-rule="evenodd"/>
          <g id="Group_501" data-name="Group 501" transform="translate(1.821 71.647)">
            <path id="Path_437" data-name="Path 437" d="M3689.7,656.3c-.534.37-.823.665-1.085.856-.367.267-.631.419-1.127.786-.272.2-.3.9-.79,1.255-.35.253-.8.41-1.193.689-.36.257-.951.224-1.338.5-.362.262-.463.9-.842,1.186-.36.268-1.029.149-1.395.44s-.679.615-1.042.906-.5.848-.867,1.131-.71.579-1.076.859-.931.3-1.3.579-.428.939-.785,1.227-.795.492-1.157.772-.773.508-1.13.791-.742.542-1.085.838-.551.761-.88,1.071-.721.581-1.039.9c-.337.333-.764.556-1.08.865-.343.337-.874.458-1.181.77-.344.349-.668.688-.952,1.008-.335.378-.335.952-.562,1.292-.3.456-.757.772-.86,1.214-.117.506.384.927.49,1.4s-.368,1.2-.082,1.625c.267.393,1.055.346,1.456.667a6.042,6.042,0,0,0,1.189.761c.425.205.693.9,1.187,1.036.463.131,1.095-.469,1.6-.391a9.2,9.2,0,0,0,1.419.181,8.392,8.392,0,0,0,1.449.05c.479-.078,1.044.166,1.537.025.47-.135.758-.775,1.228-.978a10.217,10.217,0,0,0,1.266-.7,11.735,11.735,0,0,0,1.3-.69c.384-.3,1.167-.175,1.537-.533.35-.34.758-.7,1.09-1.092.267-.315.314-.845.719-1.129.344-.241.617-.7,1.062-.9a9.726,9.726,0,0,1,1.27-.591c.414-.122.911-.1,1.379-.194.428-.088.921.061,1.388-.013.436-.068.821-.613,1.286-.675.437-.059.9-.071,1.36-.125.441-.052.959.5,1.422.455.444-.042.851-.731,1.314-.759.445-.027.917.184,1.378.168s.913.353,1.374.343.9-.4,1.357-.406.9.535,1.354.55.933-.727,1.391-.709.892.043,1.35.049.9.167,1.352.164.909-.054,1.366-.054.915.091,1.371.106.9.05,1.359.061.9.526,1.35.54.931-.564,1.386-.542.91.051,1.364.076.879.587,1.333.614.941-.525,1.393-.5.885.437,1.337.476.945-.333,1.4-.293.873.478,1.324.509.913.075,1.364.112.879.421,1.327.459.941-.309,1.388-.277.9.264,1.35.292.938-.34,1.385-.312.908.167,1.352.2c.464.034.939-.3,1.385-.274.464.027.915.067,1.358.091.466.026.917.174,1.357.2.469.032.916.085,1.352.107.474.024.921.142,1.352.159.48.019.942-.189,1.364-.172a13.262,13.262,0,0,1,1.29.376c.436.061.8.457,1.207.554.427.1.789.326,1.187.46.415.139.786.3,1.174.471s1.093-.257,1.465-.054.534.817.887,1.05.724.47,1.062.728.641.577.962.852.533.7.84.98c.323.3.644.583.946.871.321.306.972.246,1.269.529.326.311.356.9.654,1.177.339.309.715.542,1.024.777a4.064,4.064,0,0,0,1.174.5c.415.152.914.609,1.333.473.351-.114.3-.981.657-1.339.259-.259.9-.245,1.168-.654.211-.318.124-.857.345-1.276.24-.456.879-.674,1.09-1.086.237-.462-.012-1.126.182-1.54.222-.474.356-.915.513-1.336.186-.5.645-.85.76-1.286.138-.521.585-.967.622-1.411.045-.528-.31-1.043-.4-1.492-.1-.481.02-1.114-.238-1.541-.237-.392-1.026-.434-1.364-.83-.3-.347-.276-1.017-.629-1.4-.309-.335-.7-.64-1.054-1.016-.316-.334-1.045-.313-1.4-.688-.317-.337-.16-1.148-.506-1.525-.3-.324-.864-.429-1.238-.741-.34-.283-.726-.537-1.122-.814-.366-.255-.817-.4-1.226-.658-.382-.237-.828-.377-1.241-.612-.4-.225-.763-.5-1.185-.72-.405-.21-.75-.55-1.181-.749-.414-.192-.632-.828-1.06-1.025s-1.119.23-1.551.044-.876-.267-1.315-.433-.895-.222-1.338-.375-.777-.587-1.222-.732-.784-.605-1.229-.745-.942-.11-1.389-.239-1.024.214-1.472.092-.671-1.108-1.119-1.226-.931-.13-1.379-.256-1.065.348-1.511.23-.788-.723-1.238-.818-.94-.121-1.393-.2-1,.286-1.452.213c-.47-.076-.853-.643-1.3-.711-.475-.073-.992.337-1.442.3-.479-.042-.906-.6-1.352-.628-.485-.024-.964.249-1.4.224s-.937-.081-1.457-.125c-.461-.039-.94-.2-1.449-.231-.469-.029-.967.433-1.472.428-.472,0-.951-.194-1.45-.182-.478.013-.964.071-1.462.086-.481.014-.975-.088-1.47-.084s-.973-.521-1.465-.518-.973.168-1.464.172-.976.044-1.465.053-.973.164-1.461.164-.978-.053-1.464-.052-.982.022-1.466.034-.963.4-1.445.435-.968.23-1.447.268c-.5.04-1.015-.295-1.492-.28-.5.015-.992.051-1.467.048-.506,0-.992-.3-1.461-.3-.512-.006-1,.423-1.455.44-.527.019-1.018-.021-1.465,0-.557.024-1.066-.32-1.478-.3C3690.354,656.231,3689.7,656.3,3689.7,656.3Z" transform="translate(-3666.923 -655.509)" fill="#fff3d9"/>
            <path id="Path_438" data-name="Path 438" d="M3689.7,656.3c-.534.37-.823.665-1.085.856-.367.267-.631.419-1.127.786-.272.2-.3.9-.79,1.255-.35.253-.8.41-1.193.689-.36.257-.951.224-1.338.5-.362.262-.463.9-.842,1.186-.36.268-1.029.149-1.395.44s-.679.615-1.042.906-.5.848-.867,1.131-.71.579-1.076.859-.931.3-1.3.579-.428.939-.785,1.227-.795.492-1.157.772-.773.508-1.13.791-.742.542-1.085.838-.551.761-.88,1.071-.721.581-1.039.9c-.337.333-.764.556-1.08.865-.343.337-.874.458-1.181.77-.344.349-.668.688-.952,1.008-.335.378-.335.952-.562,1.292-.3.456-.757.772-.86,1.214-.117.506.384.927.49,1.4s-.368,1.2-.082,1.625c.267.393,1.055.346,1.456.667a6.042,6.042,0,0,0,1.189.761c.425.205.693.9,1.187,1.036.463.131,1.095-.469,1.6-.391a9.2,9.2,0,0,0,1.419.181,8.392,8.392,0,0,0,1.449.05c.479-.078,1.044.166,1.537.025.47-.135.758-.775,1.228-.978a10.217,10.217,0,0,0,1.266-.7,11.735,11.735,0,0,0,1.3-.69c.384-.3,1.167-.175,1.537-.533.35-.34.758-.7,1.09-1.092.267-.315.314-.845.719-1.129.344-.241.617-.7,1.062-.9a9.726,9.726,0,0,1,1.27-.591c.414-.122.911-.1,1.379-.194.428-.088.921.061,1.388-.013.436-.068.821-.613,1.286-.675.437-.059.9-.071,1.36-.125.441-.052.959.5,1.422.455.444-.042.851-.731,1.314-.759.445-.027.917.184,1.378.168s.913.353,1.374.343.9-.4,1.357-.406.9.535,1.354.55.933-.727,1.391-.709.892.043,1.35.049.9.167,1.352.164.909-.054,1.366-.054.915.091,1.371.106.9.05,1.359.061.9.526,1.35.54.931-.564,1.386-.542.91.051,1.364.076.879.587,1.333.614.941-.525,1.393-.5.885.437,1.337.476.945-.333,1.4-.293.873.478,1.324.509.913.075,1.364.112.879.421,1.327.459.941-.309,1.388-.277.9.264,1.35.292.938-.34,1.385-.312.908.167,1.352.2c.464.034.939-.3,1.385-.274.464.027.915.067,1.358.091.466.026.917.174,1.357.2.469.032.916.085,1.352.107.474.024.921.142,1.352.159.48.019.942-.189,1.364-.172a13.262,13.262,0,0,1,1.29.376c.436.061.8.457,1.207.554.427.1.789.326,1.187.46.415.139.786.3,1.174.471s1.093-.257,1.465-.054.534.817.887,1.05.724.47,1.062.728.641.577.962.852.533.7.84.98c.323.3.644.583.946.871.321.306.972.246,1.269.529.326.311.356.9.654,1.177.339.309.715.542,1.024.777a4.064,4.064,0,0,0,1.174.5c.415.152.914.609,1.333.473.351-.114.3-.981.657-1.339.259-.259.9-.245,1.168-.654.211-.318.124-.857.345-1.276.24-.456.879-.674,1.09-1.086.237-.462-.012-1.126.182-1.54.222-.474.356-.915.513-1.336.186-.5.645-.85.76-1.286.138-.521.585-.967.622-1.411.045-.528-.31-1.043-.4-1.492-.1-.481.02-1.114-.238-1.541-.237-.392-1.026-.434-1.364-.83-.3-.347-.276-1.017-.629-1.4-.309-.335-.7-.64-1.054-1.016-.316-.334-1.045-.313-1.4-.688-.317-.337-.16-1.148-.506-1.525-.3-.324-.864-.429-1.238-.741-.34-.283-.726-.537-1.122-.814-.366-.255-.817-.4-1.226-.658-.382-.237-.828-.377-1.241-.612-.4-.225-.763-.5-1.185-.72-.405-.21-.75-.55-1.181-.749-.414-.192-.632-.828-1.06-1.025s-1.119.23-1.551.044-.876-.267-1.315-.433-.895-.222-1.338-.375-.777-.587-1.222-.732-.784-.605-1.229-.745-.942-.11-1.389-.239-1.024.214-1.472.092-.671-1.108-1.119-1.226-.931-.13-1.379-.256-1.065.348-1.511.23-.788-.723-1.238-.818-.94-.121-1.393-.2-1,.286-1.452.213c-.47-.076-.853-.643-1.3-.711-.475-.073-.992.337-1.442.3-.479-.042-.906-.6-1.352-.628-.485-.024-.964.249-1.4.224s-.937-.081-1.457-.125c-.461-.039-.94-.2-1.449-.231-.469-.029-.967.433-1.472.428-.472,0-.951-.194-1.45-.182-.478.013-.964.071-1.462.086-.481.014-.975-.088-1.47-.084s-.973-.521-1.465-.518-.973.168-1.464.172-.976.044-1.465.053-.973.164-1.461.164-.978-.053-1.464-.052-.982.022-1.466.034-.963.4-1.445.435-.968.23-1.447.268c-.5.04-1.015-.295-1.492-.28-.5.015-.992.051-1.467.048-.506,0-.992-.3-1.461-.3-.512-.006-1,.423-1.455.44-.527.019-1.018-.021-1.465,0-.557.024-1.066-.32-1.478-.3C3690.354,656.231,3689.7,656.3,3689.7,656.3Z" transform="translate(-3666.923 -655.509)" fill="none" stroke="#c0a683" stroke-linecap="round" stroke-linejoin="round" stroke-width="1.393"/>
          </g>
          <g id="Group_502" data-name="Group 502" transform="translate(15.976 74.532)">
            <path id="Path_439" data-name="Path 439" d="M3739.134,676.26c.151.385.419.8.569,1.285.126.411.174.886.3,1.363.116.424-.072.954.05,1.426.111.428.261.863.373,1.329.1.436.529.816.63,1.285.094.441.314.879.4,1.348.081.442-.083.946-.017,1.414.063.449.127.909.184,1.379.056.451.007.924.066,1.393.056.45.3.883.364,1.35.058.451.252.9.3,1.368.05.453-.284.953-.25,1.423.032.454.129.911.152,1.379s.012.92.028,1.389.062.92.072,1.389-.325.921-.324,1.388.365.922.358,1.39-.148.919-.162,1.387.246.933.222,1.4.027.93-.005,1.4-.111.92-.147,1.386c-.039.492-.52.932-.578,1.405-.06.489.265,1.029.177,1.5-.091.483-.543.876-.671,1.335-.133.474-.093.992-.262,1.44s-.7.75-.9,1.185-.272.936-.5,1.359-.087,1.079-.346,1.483-.611.776-.9,1.162-.644.737-.953,1.106-.742.644-1.067,1-.544.828-.891,1.164-.7.7-1.068,1-1.088.179-1.475.47-.77.562-1.171.832-.7.676-1.118.923-.835.479-1.262.705-.767.629-1.2.838-1.029.074-1.47.268-.68.892-1.128,1.068-.911.364-1.364.524-.943.266-1.4.413-.912.372-1.371.509-1.05-.12-1.51,0c-.476.127-.841.683-1.3.788-.486.11-.973.237-1.439.319-.491.086-1.054-.353-1.517-.286-.5.071-.942.38-1.4.443-.507.07-1.012-.062-1.464-.013-.522.058-.974.468-1.412.5-.557.041-1.06-.32-1.461-.32-.423,0-.88.028-1.369.019-.434-.008-.9.216-1.379.189-.44-.024-.868-.4-1.34-.449-.44-.046-.956.4-1.42.339-.444-.061-.816-.668-1.277-.747-.444-.075-.948.139-1.4.045-.441-.091-.874-.253-1.32-.377s-.917-.115-1.358-.256-.9-.18-1.339-.323-.849-.355-1.279-.515-.708-.687-1.131-.865-.833-.345-1.246-.546-.871-.289-1.277-.5-.875-.308-1.269-.545-.876-.351-1.25-.617-.431-.949-.793-1.233-.727-.533-1.07-.84-.774-.5-1.092-.832-.62-.663-.906-1.024-.533-.736-.794-1.117-.785-.583-1.028-.976-.052-1.006-.255-1.427c-.195-.4-.754-.662-.925-1.1-.163-.419-.33-.86-.476-1.3-.141-.427-.3-.861-.441-1.306s.065-.97-.052-1.42-.494-.83-.578-1.287.093-.942.044-1.4-.211-.9-.247-1.362-.311-.892-.352-1.351.3-.947.251-1.405.064-.924.029-1.382-.364-.9-.373-1.358.022-.926.038-1.384.181-.914.206-1.37-.348-.939-.33-1.394.617-.9.635-1.355-.293-.938-.268-1.389-.191-.951-.148-1.4c.046-.469.361-.9.42-1.346.063-.468.493-.865.563-1.3.075-.47.083-.93.157-1.361.069-.4.177-.812.275-1.267.088-.4.044-.855.157-1.3.1-.406-.1-.916.026-1.35.118-.406.463-.76.584-1.191.116-.412.017-.9.146-1.326.124-.412.435-.776.581-1.2s.108-.893.275-1.3.716-.645.887-1.052.153-.881.313-1.291.218-.851.38-1.257.141-.888.308-1.292.326-.817.5-1.219.653-.675.83-1.074.189-.876.37-1.27.553-.711.737-1.1.608-.685.8-1.075.176-.891.368-1.276.565-.7.765-1.074c.211-.4.22-.889.427-1.262.219-.394.531-.717.745-1.08.231-.391.078-1,.3-1.353.251-.39.668-.65.908-.98.279-.385.918-.42,1.179-.717.331-.377.394-.9.688-1.115a4.526,4.526,0,0,1,1.3-.478,11.653,11.653,0,0,1,1.343-.358c.424-.077.905.024,1.4-.036.441-.053.9-.153,1.389-.205.449-.047.874-.574,1.358-.612.455-.037.942.088,1.424.066.456-.02.932-.173,1.411-.172.461,0,.932.106,1.41.112.463.005.933.393,1.408.388s.92-.545,1.393-.561.945.212,1.417.2.943-.209,1.414-.2.927.536,1.4.553.958-.442,1.426-.423.922.622,1.389.634.958-.417,1.426-.4.923.448,1.386.468.968-.594,1.429-.576c.478.017.946.132,1.407.152.478.02.952-.065,1.409-.044.481.022.928.511,1.382.533" transform="translate(-3681.078 -658.394)" fill="#fff3d9"/>
            <path id="Path_440" data-name="Path 440" d="M3739.134,676.26c.151.385.419.8.569,1.285.126.411.174.886.3,1.363.116.424-.072.954.05,1.426.111.428.261.863.373,1.329.1.436.529.816.63,1.285.094.441.314.879.4,1.348.081.442-.083.946-.017,1.414.063.449.127.909.184,1.379.056.451.007.924.066,1.393.056.45.3.883.364,1.35.058.451.252.9.3,1.368.05.453-.284.953-.25,1.423.032.454.129.911.152,1.379s.012.92.028,1.389.062.92.072,1.389-.325.921-.324,1.388.365.922.358,1.39-.148.919-.162,1.387.246.933.222,1.4.027.93-.005,1.4-.111.92-.147,1.386c-.039.492-.52.932-.578,1.405-.06.489.265,1.029.177,1.5-.091.483-.543.876-.671,1.335-.133.474-.093.992-.262,1.44s-.7.75-.9,1.185-.272.936-.5,1.359-.087,1.079-.346,1.483-.611.776-.9,1.162-.644.737-.953,1.106-.742.644-1.067,1-.544.828-.891,1.164-.7.7-1.068,1-1.088.179-1.475.47-.77.562-1.171.832-.7.676-1.118.923-.835.479-1.262.705-.767.629-1.2.838-1.029.074-1.47.268-.68.892-1.128,1.068-.911.364-1.364.524-.943.266-1.4.413-.912.372-1.371.509-1.05-.12-1.51,0c-.476.127-.841.683-1.3.788-.486.11-.973.237-1.439.319-.491.086-1.054-.353-1.517-.286-.5.071-.942.38-1.4.443-.507.07-1.012-.062-1.464-.013-.522.058-.974.468-1.412.5-.557.041-1.06-.32-1.461-.32-.423,0-.88.028-1.369.019-.434-.008-.9.216-1.379.189-.44-.024-.868-.4-1.34-.449-.44-.046-.956.4-1.42.339-.444-.061-.816-.668-1.277-.747-.444-.075-.948.139-1.4.045-.441-.091-.874-.253-1.32-.377s-.917-.115-1.358-.256-.9-.18-1.339-.323-.849-.355-1.279-.515-.708-.687-1.131-.865-.833-.345-1.246-.546-.871-.289-1.277-.5-.875-.308-1.269-.545-.876-.351-1.25-.617-.431-.949-.793-1.233-.727-.533-1.07-.84-.774-.5-1.092-.832-.62-.663-.906-1.024-.533-.736-.794-1.117-.785-.583-1.028-.976-.052-1.006-.255-1.427c-.195-.4-.754-.662-.925-1.1-.163-.419-.33-.86-.476-1.3-.141-.427-.3-.861-.441-1.306s.065-.97-.052-1.42-.494-.83-.578-1.287.093-.942.044-1.4-.211-.9-.247-1.362-.311-.892-.352-1.351.3-.947.251-1.405.064-.924.029-1.382-.364-.9-.373-1.358.022-.926.038-1.384.181-.914.206-1.37-.348-.939-.33-1.394.617-.9.635-1.355-.293-.938-.268-1.389-.191-.951-.148-1.4c.046-.469.361-.9.42-1.346.063-.468.493-.865.563-1.3.075-.47.083-.93.157-1.361.069-.4.177-.812.275-1.267.088-.4.044-.855.157-1.3.1-.406-.1-.916.026-1.35.118-.406.463-.76.584-1.191.116-.412.017-.9.146-1.326.124-.412.435-.776.581-1.2s.108-.893.275-1.3.716-.645.887-1.052.153-.881.313-1.291.218-.851.38-1.257.141-.888.308-1.292.326-.817.5-1.219.653-.675.83-1.074.189-.876.37-1.27.553-.711.737-1.1.608-.685.8-1.075.176-.891.368-1.276.565-.7.765-1.074c.211-.4.22-.889.427-1.262.219-.394.531-.717.745-1.08.231-.391.078-1,.3-1.353.251-.39.668-.65.908-.98.279-.385.918-.42,1.179-.717.331-.377.394-.9.688-1.115a4.526,4.526,0,0,1,1.3-.478,11.653,11.653,0,0,1,1.343-.358c.424-.077.905.024,1.4-.036.441-.053.9-.153,1.389-.205.449-.047.874-.574,1.358-.612.455-.037.942.088,1.424.066.456-.02.932-.173,1.411-.172.461,0,.932.106,1.41.112.463.005.933.393,1.408.388s.92-.545,1.393-.561.945.212,1.417.2.943-.209,1.414-.2.927.536,1.4.553.958-.442,1.426-.423.922.622,1.389.634.958-.417,1.426-.4.923.448,1.386.468.968-.594,1.429-.576c.478.017.946.132,1.407.152.478.02.952-.065,1.409-.044.481.022.928.511,1.382.533" transform="translate(-3681.078 -658.394)" fill="none" stroke="#c0a683" stroke-linecap="round" stroke-linejoin="round" stroke-width="1.393"/>
          </g>
          <path id="Path_441" data-name="Path 441" d="M3714.748,641.953" transform="translate(-3665.102 -583.862)" fill="#fff3d9" stroke="#000" stroke-linecap="round" stroke-linejoin="round" stroke-width="1.542"/>
          <g id="Group_503" data-name="Group 503" transform="translate(52.408 132.138)">
            <path id="Path_442" data-name="Path 442" d="M3737.771,716c.25.648.294.424.608,1.256.138.365.417.759.6,1.257.148.4.279.847.452,1.319.151.411.106.924.272,1.384.152.419.264.872.422,1.328.147.426.311.86.459,1.315.14.431.559.789.693,1.243.13.438.233.9.361,1.352s.135.923.262,1.378.346.864.471,1.316.309.88.426,1.334.193.914.3,1.371-.128.979-.03,1.435.525.843.613,1.3-.065.96.007,1.419.329.9.391,1.358-.016.944.031,1.4-.079.942-.048,1.4.23.924.236,1.386-.162.932-.177,1.391.051.938.02,1.4c-.033.473.123.96.059,1.413-.067.468-.175.931-.273,1.376-.1.462-.346.882-.479,1.318-.138.453-.152.948-.325,1.371a11.246,11.246,0,0,1-.549,1.307c-.231.408-.794.589-1.087.947-.31.379-.386.937-.692,1.279-.327.365-.71.663-1.033.985-.348.347-.713.655-1.058.952-.372.322-.768.59-1.138.857-.4.287-.771.59-1.163.822-.423.25-.852.461-1.262.657a11.944,11.944,0,0,1-1.306.575,5.039,5.039,0,0,1-2.789.558c-.482.044-.962-.069-1.424-.07a12.96,12.96,0,0,1-1.395-.208,13.2,13.2,0,0,1-1.418-.045c-.474-.108-.961-.141-1.4-.28-.467-.148-.921-.3-1.347-.46-.468-.171-.9-.372-1.316-.517a7.653,7.653,0,0,1-1.108-.587,6.776,6.776,0,0,1-1.1-.6,6.275,6.275,0,0,1-.886-.9,6.926,6.926,0,0,1-.542-1.13,8.242,8.242,0,0,1-.556-1.1,11.33,11.33,0,0,1-.445-1.167c-.095-.385-.075-.81-.14-1.234-.06-.4-.065-.808-.1-1.237-.033-.4-.343-.8-.355-1.233-.011-.4.187-.822.2-1.249.008-.4.083-.817.107-1.246.023-.4.029-.821.064-1.248.04-.484.086-.982.132-1.491.045-.49.142-.984.194-1.49s-.068-1.012-.007-1.513.125-.994.193-1.491.377-.96.448-1.453.159-.995.229-1.484c.073-.506.04-1.021.1-1.508.064-.511.253-.993.315-1.472.067-.518-.077-1.043,0-1.513.1-.651.037-1.14.1-1.5.109-.646.3-.955.393-1.449.066-.351.026-.808.15-1.5" transform="translate(-3717.51 -716)" fill="#fff3d9"/>
            <path id="Path_443" data-name="Path 443" d="M3737.771,716c.25.648.294.424.608,1.256.138.365.417.759.6,1.257.148.4.279.847.452,1.319.151.411.106.924.272,1.384.152.419.264.872.422,1.328.147.426.311.86.459,1.315.14.431.559.789.693,1.243.13.438.233.9.361,1.352s.135.923.262,1.378.346.864.471,1.316.309.88.426,1.334.193.914.3,1.371-.128.979-.03,1.435.525.843.613,1.3-.065.96.007,1.419.329.9.391,1.358-.016.944.031,1.4-.079.942-.048,1.4.23.924.236,1.386-.162.932-.177,1.391.051.938.02,1.4c-.033.473.123.96.059,1.413-.067.468-.175.931-.273,1.376-.1.462-.346.882-.479,1.318-.138.453-.152.948-.325,1.371a11.246,11.246,0,0,1-.549,1.307c-.231.408-.794.589-1.087.947-.31.379-.386.937-.692,1.279-.327.365-.71.663-1.033.985-.348.347-.713.655-1.058.952-.372.322-.768.59-1.138.857-.4.287-.771.59-1.163.822-.423.25-.852.461-1.262.657a11.944,11.944,0,0,1-1.306.575,5.039,5.039,0,0,1-2.789.558c-.482.044-.962-.069-1.424-.07a12.96,12.96,0,0,1-1.395-.208,13.2,13.2,0,0,1-1.418-.045c-.474-.108-.961-.141-1.4-.28-.467-.148-.921-.3-1.347-.46-.468-.171-.9-.372-1.316-.517a7.653,7.653,0,0,1-1.108-.587,6.776,6.776,0,0,1-1.1-.6,6.275,6.275,0,0,1-.886-.9,6.926,6.926,0,0,1-.542-1.13,8.242,8.242,0,0,1-.556-1.1,11.33,11.33,0,0,1-.445-1.167c-.095-.385-.075-.81-.14-1.234-.06-.4-.065-.808-.1-1.237-.033-.4-.343-.8-.355-1.233-.011-.4.187-.822.2-1.249.008-.4.083-.817.107-1.246.023-.4.029-.821.064-1.248.04-.484.086-.982.132-1.491.045-.49.142-.984.194-1.49s-.068-1.012-.007-1.513.125-.994.193-1.491.377-.96.448-1.453.159-.995.229-1.484c.073-.506.04-1.021.1-1.508.064-.511.253-.993.315-1.472.067-.518-.077-1.043,0-1.513.1-.651.037-1.14.1-1.5.109-.646.3-.955.393-1.449.066-.351.026-.808.15-1.5" transform="translate(-3717.51 -716)" fill="none" stroke="#c0a683" stroke-linecap="round" stroke-linejoin="round" stroke-width="1.393"/>
          </g>
          <g id="Path_444" data-name="Path 444" transform="translate(-3665.102 -583.862)" fill="#fff3d9" stroke-linecap="round" stroke-linejoin="round">
            <path d="M 3711.677978515625 666.54541015625 C 3707.298583984375 666.54541015625 3702.876708984375 666.106201171875 3698.53515625 665.239990234375 C 3686.75732421875 662.8897094726562 3677.529541015625 657.0322265625 3671.849609375 648.3008422851562 C 3668.939208984375 643.8269653320312 3667.04638671875 638.7319946289062 3666.22412109375 633.157470703125 C 3665.402099609375 627.5851440429688 3665.673095703125 621.6885375976562 3667.02978515625 615.6315307617188 C 3668.037841796875 611.1309204101562 3669.79248046875 606.8728637695312 3672.245361328125 602.9755249023438 C 3674.735107421875 599.0191040039062 3677.881591796875 595.536865234375 3681.59716796875 592.6256103515625 C 3689.5576171875 586.3883056640625 3699.738037109375 583.0914306640625 3711.037841796875 583.0914306640625 C 3714.458984375 583.0914306640625 3718.0126953125 583.3956298828125 3721.60009765625 583.9956665039062 C 3728.318603515625 585.1195678710938 3734.27197265625 587.2608642578125 3739.294921875 590.3599853515625 C 3744.107666015625 593.32958984375 3748.048583984375 597.162841796875 3751.007568359375 601.753173828125 C 3754.301513671875 606.8626098632812 3756.3251953125 612.8004150390625 3757.022705078125 619.4016723632812 C 3757.71044921875 625.9097900390625 3757.0888671875 632.8599853515625 3755.1748046875 640.05908203125 C 3753.032958984375 648.1163330078125 3747.5771484375 654.8888549804688 3739.397705078125 659.6444702148438 C 3735.552490234375 661.880126953125 3731.2041015625 663.6092529296875 3726.472900390625 664.7838134765625 C 3721.7646484375 665.9526977539062 3716.786865234375 666.54541015625 3711.677978515625 666.54541015625 Z" stroke="none"/>
            <path d="M 3711.677978515625 665.7745361328125 C 3731.928955078125 665.7745361328125 3750.062744140625 656.2883911132812 3754.429931640625 639.8610229492188 C 3761.491943359375 613.2969970703125 3750.7109375 589.64697265625 3721.472900390625 584.7559814453125 C 3717.847900390625 584.149658203125 3714.365966796875 583.8622436523438 3711.037841796875 583.8622436523438 C 3687.53076171875 583.8622436523438 3671.722900390625 598.203369140625 3667.781982421875 615.7999877929688 C 3662.591064453125 638.9769897460938 3673.705078125 659.4990234375 3698.68603515625 664.4840087890625 C 3703.038818359375 665.3524780273438 3707.404296875 665.7745361328125 3711.677978515625 665.7745361328125 M 3711.677978515625 667.3162841796875 C 3707.248046875 667.3162841796875 3702.775634765625 666.8720092773438 3698.38427734375 665.9959106445312 C 3686.398193359375 663.6040649414062 3676.999267578125 657.6305541992188 3671.203369140625 648.72119140625 C 3668.23193359375 644.1536254882812 3666.300048828125 638.955078125 3665.46142578125 633.2699584960938 C 3664.625732421875 627.603759765625 3664.900146484375 621.6126708984375 3666.277587890625 615.4630737304688 C 3667.3046875 610.87646484375 3669.093017578125 606.5369262695312 3671.5927734375 602.56494140625 C 3674.130126953125 598.533203125 3677.336181640625 594.9849853515625 3681.121826171875 592.018798828125 C 3689.21923828125 585.6741333007812 3699.56396484375 582.320556640625 3711.037841796875 582.320556640625 C 3714.50146484375 582.320556640625 3718.097900390625 582.6283569335938 3721.727294921875 583.2354125976562 C 3728.544677734375 584.3757934570312 3734.59130859375 586.5521850585938 3739.69970703125 589.7039794921875 C 3744.611083984375 592.734375 3748.633544921875 596.6478271484375 3751.655517578125 601.3355712890625 C 3755.015380859375 606.5473022460938 3757.0791015625 612.598388671875 3757.789306640625 619.3206787109375 C 3758.487060546875 625.9227294921875 3757.858154296875 632.9667358398438 3755.919921875 640.2571411132812 C 3753.724365234375 648.5159301757812 3748.14501953125 655.4503784179688 3739.78515625 660.3108520507812 C 3735.876953125 662.5831909179688 3731.46044921875 664.33984375 3726.65869140625 665.5319213867188 C 3721.8896484375 666.7159423828125 3716.849365234375 667.3162841796875 3711.677978515625 667.3162841796875 Z" stroke="none" fill="#c0a683"/>
          </g>
          <g id="Group_504" data-name="Group 504" transform="translate(13.881 30.086)">
            <ellipse id="Ellipse_51" data-name="Ellipse 51" cx="9.663" cy="9.39" rx="9.663" ry="9.39" transform="matrix(0.198, -0.98, 0.98, 0.198, 0, 18.944)" fill="#fff" stroke="#d3b68e" stroke-miterlimit="10" stroke-width="1.122"/>
            <ellipse id="Ellipse_52" data-name="Ellipse 52" cx="6.35" cy="6.628" rx="6.35" ry="6.628" transform="translate(3.267 19.031) rotate(-78.802)" fill="#333"/>
          </g>
          <g id="Group_505" data-name="Group 505" transform="translate(51.616 30.311)">
            <ellipse id="Ellipse_53" data-name="Ellipse 53" cx="9.663" cy="9.39" rx="9.663" ry="9.39" transform="matrix(0.198, -0.98, 0.98, 0.198, 0, 18.944)" fill="#fff" stroke="#d3b68e" stroke-miterlimit="10" stroke-width="1.122"/>
            <ellipse id="Ellipse_54" data-name="Ellipse 54" cx="6.35" cy="6.628" rx="6.35" ry="6.628" transform="translate(3.236 19.369) rotate(-78.802)" fill="#333"/>
          </g>
          <path id="Path_445" data-name="Path 445" d="M3691.761,645.174s-.017-.873.089-2.142a21.628,21.628,0,0,1,.828-4.513c.986-3.163,5.721-6.094,8.159-6.492a58.194,58.194,0,0,1,12.133-1.07,9.979,9.979,0,0,1,6.692,2.663s-.951,4.909-2.828,7.216-7.409,5.211-11.758,6.171S3695.816,647.015,3691.761,645.174Z" transform="translate(-3665.102 -583.862)" fill="#00532c"/>
          <g id="Group_506" data-name="Group 506" transform="translate(28.114 50.59)">
            <path id="Path_446" data-name="Path 446" d="M3693.216,642.131s6.99-2.522,11.613-3.622,10.685-2.808,10.685-2.808" transform="translate(-3693.216 -634.452)" fill="none" stroke="#7cb629" stroke-linecap="round" stroke-linejoin="round" stroke-width="1.03"/>
            <path id="Path_447" data-name="Path 447" d="M3715.5,638.674l-3.879-1.808.826-2.414" transform="translate(-3693.216 -634.452)" fill="none" stroke="#7cb629" stroke-linecap="round" stroke-linejoin="round" stroke-width="1.03"/>
            <path id="Path_448" data-name="Path 448" d="M3708.238,634.53l-1.809,3.854,5.26,2.318" transform="translate(-3693.216 -634.452)" fill="none" stroke="#7cb629" stroke-linecap="round" stroke-linejoin="round" stroke-width="1.03"/>
            <path id="Path_449" data-name="Path 449" d="M3703.312,634.911l-1.876,4.764,4.7,2.943" transform="translate(-3693.216 -634.452)" fill="none" stroke="#7cb629" stroke-linecap="round" stroke-linejoin="round" stroke-width="1.03"/>
            <path id="Path_450" data-name="Path 450" d="M3697.458,636.107l-1.846,5.208,5.9,2.4" transform="translate(-3693.216 -634.452)" fill="none" stroke="#7cb629" stroke-linecap="round" stroke-linejoin="round" stroke-width="1.03"/>
          </g>
          <g id="Group_507" data-name="Group 507" transform="translate(40.856 63.2)">
            <path id="Path_451" data-name="Path 451" d="M3709.029,657.212c-1.025-1.352-1.415-.639-2.668-4.622a14.491,14.491,0,0,1-.235-5.528" transform="translate(-3705.959 -647.062)" fill="none" stroke="#00532c" stroke-linecap="round" stroke-linejoin="round" stroke-width="1.288"/>
          </g>
          <path id="Path_452" data-name="Path 452" d="M3721.622,649.643s-1.777,7.313-12.558,8.164-13.425-4.577-13.425-4.577" transform="translate(-3665.102 -583.862)" fill="none" stroke="#d65a24" stroke-linecap="round" stroke-linejoin="round" stroke-width="1.288"/>
          <path id="Path_453" data-name="Path 453" d="M3685.034,681.408c6.109,1.41,18.049,5,18.049,12.046s-18.388,3.037-22.617,2.568l.114-1.6.343-2.4s14.295,5.346,17.359,2.283c1.941-1.941.562-5.186-3.2-7.535a19.642,19.642,0,0,0-7.537-2.74Z" transform="translate(-3665.102 -583.862)" fill="#eb5a24" fill-rule="evenodd"/>
          <path id="Path_454" data-name="Path 454" d="M3732.677,691.022c-4.51,1.127-5.265.043-10.526-.709s-7.837,3.73-4.454,6.736,19.3,6.964,19.3,6.964l.685-1.941-.114-.913a121.087,121.087,0,0,0-13.02-4c-5.261-1.127-6.6-6.655-1.713-6.279s9.465,5.022,12.848,3.144S3732.677,691.022,3732.677,691.022Z" transform="translate(-3665.102 -583.862)" fill="#eb5a24" fill-rule="evenodd"/>
          <g id="Group_508" data-name="Group 508" transform="translate(0 75.985)">
            <path id="Path_455" data-name="Path 455" d="M3675.137,678.431c.528-.128.426-.035,1.088-.164.306-.059.737.263,1.141.2.331-.054.682-.124,1.062-.174.346-.045.689-.214,1.062-.25.354-.034.708-.211,1.076-.233s.728-.2,1.093-.205.72.522,1.08.539.718,0,1.072.046a5.4,5.4,0,0,1,.995.066,1.518,1.518,0,0,1,.791.564,1.191,1.191,0,0,1,.114.943c-.067.327.075.8-.089,1.083-.279.474-.428.316-.9.5-.552.215-.343.014.586.9.213.2.494.433.89.742.268.208.586.422.957.687.31.221.356.733.578,1,.237.286.675.459.817.786s.016.765.068,1.127a4.96,4.96,0,0,1,.16,1.082,6.539,6.539,0,0,1,.051,1.145c-.09.343-.585.577-.731.917a8.616,8.616,0,0,1-.626.877c-.183.307-.131.773-.355,1.063a4.944,4.944,0,0,1-1.636,1.434c-.281.227-.355.776-.663.969-.335.209-.952-.128-1.287.024-.357.162-.586.6-.944.7s-.725.435-1.1.48-.8-.2-1.181-.21-.707-.413-1.087-.472a10.1,10.1,0,0,1-1.1-.161c-.361-.095-.7-.229-1.062-.358s-.749-.123-1.107-.275c-.343-.146-.829,0-1.178-.169s-.573-.551-.917-.731-.779-.155-1.118-.343c-.3-.168-.527-.52-.848-.726-.3-.19-.724-.226-1.028-.448-.288-.209-.324-.763-.612-1s-.68-.313-.951-.566-.6-.429-.855-.7-.653-.416-.886-.7-.475-.586-.684-.887-.128-.8-.311-1.116-.52-.561-.674-.9-.1-.753-.221-1.1.031-.75-.054-1.11-.374-.652-.421-1.019.119-.72.111-1.092a10.186,10.186,0,0,1-.2-1.087c.028-.356.184-.7.249-1.066.062-.351-.3-.816-.2-1.178.093-.343.4-.649.525-1,.12-.335.7-.487.857-.831.145-.326,0-.792.174-1.125s.434-.6.63-.921.356-.649.57-.956.567-.494.8-.79.422-.6.665-.886.128-.886.383-1.159.632-.436.9-.7.435-.632.708-.886.622-.434.9-.678.817-.19,1.1-.426.251-.886.543-1.114.748-.261,1.045-.482.5-.6.8-.812.912,0,1.217-.205.357-.822.666-1.022.95.093,1.261-.1.409-.778.722-.964c.33-.2.86-.027,1.173-.206.336-.192.348-.933.661-1.1.344-.189.723-.283,1.034-.446.355-.188.642-.455.946-.608.382-.193.931.065,1.215-.071.635-.3.46-.313.967-.533" transform="translate(-3665.102 -659.847)" fill="#fff3d9"/>
            <path id="Path_456" data-name="Path 456" d="M3675.137,678.431c.528-.128.426-.035,1.088-.164.306-.059.737.263,1.141.2.331-.054.682-.124,1.062-.174.346-.045.689-.214,1.062-.25.354-.034.708-.211,1.076-.233s.728-.2,1.093-.205.72.522,1.08.539.718,0,1.072.046a5.4,5.4,0,0,1,.995.066,1.518,1.518,0,0,1,.791.564,1.191,1.191,0,0,1,.114.943c-.067.327.075.8-.089,1.083-.279.474-.428.316-.9.5-.552.215-.343.014.586.9.213.2.494.433.89.742.268.208.586.422.957.687.31.221.356.733.578,1,.237.286.675.459.817.786s.016.765.068,1.127a4.96,4.96,0,0,1,.16,1.082,6.539,6.539,0,0,1,.051,1.145c-.09.343-.585.577-.731.917a8.616,8.616,0,0,1-.626.877c-.183.307-.131.773-.355,1.063a4.944,4.944,0,0,1-1.636,1.434c-.281.227-.355.776-.663.969-.335.209-.952-.128-1.287.024-.357.162-.586.6-.944.7s-.725.435-1.1.48-.8-.2-1.181-.21-.707-.413-1.087-.472a10.1,10.1,0,0,1-1.1-.161c-.361-.095-.7-.229-1.062-.358s-.749-.123-1.107-.275c-.343-.146-.829,0-1.178-.169s-.573-.551-.917-.731-.779-.155-1.118-.343c-.3-.168-.527-.52-.848-.726-.3-.19-.724-.226-1.028-.448-.288-.209-.324-.763-.612-1s-.68-.313-.951-.566-.6-.429-.855-.7-.653-.416-.886-.7-.475-.586-.684-.887-.128-.8-.311-1.116-.52-.561-.674-.9-.1-.753-.221-1.1.031-.75-.054-1.11-.374-.652-.421-1.019.119-.72.111-1.092a10.186,10.186,0,0,1-.2-1.087c.028-.356.184-.7.249-1.066.062-.351-.3-.816-.2-1.178.093-.343.4-.649.525-1,.12-.335.7-.487.857-.831.145-.326,0-.792.174-1.125s.434-.6.63-.921.356-.649.57-.956.567-.494.8-.79.422-.6.665-.886.128-.886.383-1.159.632-.436.9-.7.435-.632.708-.886.622-.434.9-.678.817-.19,1.1-.426.251-.886.543-1.114.748-.261,1.045-.482.5-.6.8-.812.912,0,1.217-.205.357-.822.666-1.022.95.093,1.261-.1.409-.778.722-.964c.33-.2.86-.027,1.173-.206.336-.192.348-.933.661-1.1.344-.189.723-.283,1.034-.446.355-.188.642-.455.946-.608.382-.193.931.065,1.215-.071.635-.3.46-.313.967-.533" transform="translate(-3665.102 -659.847)" fill="none" stroke="#c0a683" stroke-linecap="round" stroke-linejoin="round" stroke-width="1.542"/>
          </g>
          <path id="Path_457" data-name="Path 457" d="M3738.14,701.5c2.741.8,5.71,2.855,7.309.914a4.211,4.211,0,0,0-.571-6.279s2.284,1.027,2.055,5.594-1.827,5.251-3.883,5.137a12.113,12.113,0,0,1-6.281-2.283,20.229,20.229,0,0,0-2.741-1.713Z" transform="translate(-3665.102 -583.862)" fill="#eb5a24" fill-rule="evenodd"/>
          <g id="Group_509" data-name="Group 509" transform="translate(55.106 75.66)">
            <path id="Path_458" data-name="Path 458" d="M3738.368,659.657a1.556,1.556,0,0,1,1.188-.038c.3.106.563.493.962.65.319.125.769.034,1.142.194.325.139.7.257,1.055.423.327.151.494.684.844.858.325.162.729.2,1.07.386.323.173.44.732.774.923.319.183.852.015,1.178.216s.6.45.917.66.61.432.92.652.519.552.821.782.829.161,1.121.4.352.745.635,1,.39.67.662.932.866.19,1.127.463.657.431.905.716.381.674.615.97.38.661.6.969.572.528.776.846-.008.881.179,1.21.515.566.684.9.637.538.787.886.3.7.434,1.059-.345.9-.235,1.269.3.679.386,1.049.5.672.56,1.034c.062.379.321.746.35,1.113s-.42.782-.424,1.151-.217.725-.255,1.093.585.856.512,1.22-.934.542-1.041.9.426.94.287,1.287-.914.406-1.082.741,0,.838-.2,1.159-.628.472-.846.778-.3.7-.536.991-.09.925-.344,1.2-1.047.035-1.315.3-.514.528-.794.779-.582.454-.872.693-.5.563-.8.791-.565.491-.87.708-.648.377-.958.586-.5.6-.817.8-.45.716-.767.909-.99-.176-1.311.011-.339.938-.661,1.119-.863.013-1.184.189c-.34.186-.761.2-1.081.372-.345.186-.692.336-1.008.508-.348.189-.462.761-.767.933-.356.2-.592.518-.879.7a10.409,10.409,0,0,0-.946.532c-.232.2-.77.08-1.132.3-.285.173-.57.387-.923.565-.308.156-.464.692-.816.846-.322.142-.614.439-.967.574-.333.127-.792-.033-1.147.085s-.7.23-1.052.331-.74.064-1.1.148-.671.4-1.033.462-.714.3-1.077.344-.787-.4-1.151-.375-.732.121-1.1.117-.735-.062-1.095-.1a10.221,10.221,0,0,1-1.094-.12c-.364-.075-.581-.58-.923-.7s-.848.175-1.17.006a6.465,6.465,0,0,1-.831-.729c-.287-.221-.808-.217-1.056-.494a6.716,6.716,0,0,1-.771-.862,11.152,11.152,0,0,1-.524-1.076c-.174-.365.2-.933.08-1.284-.126-.383-.715-.634-.779-1-.069-.4.342-.826.337-1.2-.006-.4-.233-.79-.176-1.162.06-.39.61-.627.728-.987a7.559,7.559,0,0,1,.236-1.1c.177-.351-.11-.986.106-1.3a9.349,9.349,0,0,1,.821-.88,9.508,9.508,0,0,1,.9-.777,7.959,7.959,0,0,1,1.046-.557,3.651,3.651,0,0,1,.932-.337c-.475-.207-.364.117-.943.122-.325,0-.631-.7-.976-.749a1.715,1.715,0,0,1-.809-.251c-.3-.19-.494-.062-.4-.477a2.064,2.064,0,0,1,.445-.828c.246-.324.3-.77.572-1.006.3-.263.844-.068,1.168-.238.344-.181.432-.964.8-1.059a6.813,6.813,0,0,1,1.176-.214,9.951,9.951,0,0,1,1.178.062c.38.02.792-.038,1.169.012s.686.624,1.056.685c.387.064.853-.44,1.217-.385.4.059.742.063,1.1.084.408.024.8.67,1.146.606.311-.058.6-.459,1-.579.325-.1.754.019,1.122-.113.331-.119.507-.686.861-.829.334-.134.862.171,1.206.019s.661-.336,1-.5.53-.6.858-.766.867.035,1.185-.143.321-.928.625-1.117c.328-.2,1.021.169,1.307-.034.324-.231.387-.77.641-.994a4.879,4.879,0,0,0,.794-.762.793.793,0,0,0,.034-.939" transform="translate(-3720.208 -659.522)" fill="#fff3d9"/>
            <path id="Path_459" data-name="Path 459" d="M3738.368,659.657a1.556,1.556,0,0,1,1.188-.038c.3.106.563.493.962.65.319.125.769.034,1.142.194.325.139.7.257,1.055.423.327.151.494.684.844.858.325.162.729.2,1.07.386.323.173.44.732.774.923.319.183.852.015,1.178.216s.6.45.917.66.61.432.92.652.519.552.821.782.829.161,1.121.4.352.745.635,1,.39.67.662.932.866.19,1.127.463.657.431.905.716.381.674.615.97.38.661.6.969.572.528.776.846-.008.881.179,1.21.515.566.684.9.637.538.787.886.3.7.434,1.059-.345.9-.235,1.269.3.679.386,1.049.5.672.56,1.034c.062.379.321.746.35,1.113s-.42.782-.424,1.151-.217.725-.255,1.093.585.856.512,1.22-.934.542-1.041.9.426.94.287,1.287-.914.406-1.082.741,0,.838-.2,1.159-.628.472-.846.778-.3.7-.536.991-.09.925-.344,1.2-1.047.035-1.315.3-.514.528-.794.779-.582.454-.872.693-.5.563-.8.791-.565.491-.87.708-.648.377-.958.586-.5.6-.817.8-.45.716-.767.909-.99-.176-1.311.011-.339.938-.661,1.119-.863.013-1.184.189c-.34.186-.761.2-1.081.372-.345.186-.692.336-1.008.508-.348.189-.462.761-.767.933-.356.2-.592.518-.879.7a10.409,10.409,0,0,0-.946.532c-.232.2-.77.08-1.132.3-.285.173-.57.387-.923.565-.308.156-.464.692-.816.846-.322.142-.614.439-.967.574-.333.127-.792-.033-1.147.085s-.7.23-1.052.331-.74.064-1.1.148-.671.4-1.033.462-.714.3-1.077.344-.787-.4-1.151-.375-.732.121-1.1.117-.735-.062-1.095-.1a10.221,10.221,0,0,1-1.094-.12c-.364-.075-.581-.58-.923-.7s-.848.175-1.17.006a6.465,6.465,0,0,1-.831-.729c-.287-.221-.808-.217-1.056-.494a6.716,6.716,0,0,1-.771-.862,11.152,11.152,0,0,1-.524-1.076c-.174-.365.2-.933.08-1.284-.126-.383-.715-.634-.779-1-.069-.4.342-.826.337-1.2-.006-.4-.233-.79-.176-1.162.06-.39.61-.627.728-.987a7.559,7.559,0,0,1,.236-1.1c.177-.351-.11-.986.106-1.3a9.349,9.349,0,0,1,.821-.88,9.508,9.508,0,0,1,.9-.777,7.959,7.959,0,0,1,1.046-.557,3.651,3.651,0,0,1,.932-.337c-.475-.207-.364.117-.943.122-.325,0-.631-.7-.976-.749a1.715,1.715,0,0,1-.809-.251c-.3-.19-.494-.062-.4-.477a2.064,2.064,0,0,1,.445-.828c.246-.324.3-.77.572-1.006.3-.263.844-.068,1.168-.238.344-.181.432-.964.8-1.059a6.813,6.813,0,0,1,1.176-.214,9.951,9.951,0,0,1,1.178.062c.38.02.792-.038,1.169.012s.686.624,1.056.685c.387.064.853-.44,1.217-.385.4.059.742.063,1.1.084.408.024.8.67,1.146.606.311-.058.6-.459,1-.579.325-.1.754.019,1.122-.113.331-.119.507-.686.861-.829.334-.134.862.171,1.206.019s.661-.336,1-.5.53-.6.858-.766.867.035,1.185-.143.321-.928.625-1.117c.328-.2,1.021.169,1.307-.034.324-.231.387-.77.641-.994a4.879,4.879,0,0,0,.794-.762.793.793,0,0,0,.034-.939" transform="translate(-3720.208 -659.522)" fill="none" stroke="#c0a683" stroke-linecap="round" stroke-linejoin="round" stroke-width="1.542"/>
          </g>
        </g>
        <path id="Path_460" data-name="Path 460" d="M3716.929,583.067s4.228-10.548,6.932-11.079a26.6,26.6,0,0,1,13.765,1.741c6.3,2.9,13.727,8.542,13.391,10.713-.854,5.5.49,8.361-1.837,10.1S3716.929,583.067,3716.929,583.067Z" transform="translate(-3665.102 -571.71)" fill="#00532c"/>
        <path id="Path_461" data-name="Path 461" d="M3750.123,595.738a160.389,160.389,0,0,0-14.933-7.254c-12.96-5.639-19.921-8.373-19.234-6.112l2.874-4.273a41.036,41.036,0,0,1,15.32,2.552c8.133,2.86,16.949,11.213,16.949,11.213Z" transform="translate(-3665.102 -571.71)" fill="#fcee21"/>
        <path id="Path_462" data-name="Path 462" d="M3709.381,579.535s-4.554,3.963,16.644,14.48c10.336,5.129,19.149,5.074,23.459,6.487,4.144,1.359,5.056.145,5.056.145s-2.974-6.423-7.161-7.717C3724.485,585.854,3715.938,576.375,3709.381,579.535Z" transform="translate(-3665.102 -571.71)" fill="#00532c"/>
        <path id="Path_463" data-name="Path 463" d="M3741.093,592.938s1.13-7.316,6.783-7.827,7.856.9,7.856.9S3752.278,596.229,3741.093,592.938Z" transform="translate(-3665.102 -571.71)" fill="#7cb629"/>
        <g id="Group_511" data-name="Group 511" transform="translate(95.198 150.115)">
          <circle id="Ellipse_55" data-name="Ellipse 55" cx="9.362" cy="9.362" r="9.362" transform="translate(0.035)" fill="#f39a79"/>
          <path id="Path_464" data-name="Path 464" d="M3760.336,729.217c-.49,5.146,4.192,9.359,9.362,9.359a9.36,9.36,0,0,0,9.362-9.359c0-3.119-4.027-7.388-9.2-7.388S3760.664,725.769,3760.336,729.217Z" transform="translate(-3760.301 -721.825)" fill="#eb5a24"/>
          <circle id="Ellipse_56" data-name="Ellipse 56" cx="2.299" cy="2.299" r="2.299" transform="translate(6.934 5.914)" fill="#bfbfbf"/>
        </g>
        <path id="Path_465" data-name="Path 465" d="M3764.635,737.007c-14.618-1.028-32.434-5.937-34.147-22.491-1.006-9.723,3.54-23.175-7.309-25.116l-3.883,1.142s5.824-.571,7.488,7.876c1.11,5.639-1.778,17.925,3.247,26.145,3.944,6.451,15.2,15.722,34.96,14.923Z" transform="translate(-3665.102 -571.71)" fill="#eb5a24" fill-rule="evenodd"/>
        <path id="Path_466" data-name="Path 466" d="M3686.976,681.751a10.451,10.451,0,0,0-7.424,1.37c-3.426,2.283-8.108,6.507-9.25,12.672s.342,14.271-.8,19.522a52.589,52.589,0,0,1-3.426,10.047l4.682.913s2.97-6.05,2.856-10.96-1.143-13.585.114-17.924,1.142-6.735,5.71-9.932,6.167-3.539,9.593-3.2" transform="translate(-3665.102 -571.71)" fill="#eb5a24" fill-rule="evenodd"/>
      </g>
    </g>
    <rect id="Rectangle_143" data-name="Rectangle 143" width="227.691" height="670" rx="9.998" transform="translate(709.827 549.2) rotate(90)" fill="none"/>
  </g>
</svg>
