<svg xmlns="http://www.w3.org/2000/svg" width="583" height="296" viewBox="0 0 583 296">
  <g id="Group_1950" data-name="Group 1950" transform="translate(-82.827 -540.792)">
    <rect id="Rectangle_449" data-name="Rectangle 449" width="296" height="583" rx="10" transform="translate(665.827 540.792) rotate(90)" fill="none"/>
    <g id="Group_1949" data-name="Group 1949">
      <g id="Group_1948" data-name="Group 1948">
        <g id="Group_1584" data-name="Group 1584" transform="translate(-3478 -1.205)">
          <path id="Path_6934" data-name="Path 6934" d="M3796.786,684.212l-.768-.768,7.8-7.777-7.8-7.777.768-.768,7.777,7.8,7.776-7.8.768.768-7.8,7.777,7.8,7.777-.768.768-7.776-7.8Zm3.24-8.545a2,2,0,1,1-1.992-1.992A2,2,0,0,1,3800.026,675.667Zm6.529-6.528a1.993,1.993,0,1,1-1.992-2.017A2,2,0,0,1,3806.555,669.139Zm0,13.057a1.992,1.992,0,1,1-1.992-1.993A1.988,1.988,0,0,1,3806.555,682.2Zm6.552-6.529a2,2,0,1,1-2.016-1.992A2.008,2.008,0,0,1,3813.107,675.667Z" fill="#00532c"/>
          <path id="Path_6935" data-name="Path 6935" d="M3824.914,667.458a17.429,17.429,0,0,0-1.392-2.424l2.088-.528a21.127,21.127,0,0,1,1.584,2.952h5.449a12.076,12.076,0,0,0,1.32-2.952l2.28.336a17.671,17.671,0,0,1-1.3,2.616h5.977v1.824h-22.3v-1.824Zm4.2,3.985v13.465c0,.7-.024,1.872-1.872,1.872h-2.856l-.408-2.016,2.544.024c.5,0,.672-.048.672-.576v-3.024h-5.064v5.592h-1.9V671.443Zm-1.92,1.752h-5.064v2.328h5.064Zm0,3.912h-5.064v2.424h5.064Zm4.536,5.329V671.563h1.969v10.873Zm7.609-11.593v13.9c0,1.92-1.224,2.04-2.064,2.04h-3.792l-.36-2.04,3.624.024c.624,0,.624-.288.624-.576V670.843Z" fill="#00532c"/>
          <path id="Path_6936" data-name="Path 6936" d="M3865.02,665.682v20.57h-20.066v-20.57Zm-18.1,1.824v16.826h16.1V667.506Zm13.393,2.929v10.753h-10.753V670.435Zm-8.857,1.728v7.272h6.937v-7.272Z" fill="#00532c"/>
          <path id="Path_6937" data-name="Path 6937" d="M3880.043,683.444c2.472-.264,8.3-.96,8.3-7.825,0-1.9-.577-7.177-7.177-7.393-.216,2.785-.7,8.689-3.169,12.649-1.416,2.233-2.952,2.785-4.032,2.785-2.352,0-4.321-2.785-4.321-6.745,0-6.528,4.753-10.7,11.09-10.7,7.777,0,9.865,5.377,9.865,9.433a9.675,9.675,0,0,1-3.217,7.513,12.469,12.469,0,0,1-6.624,2.376Zm-4.969-13.585a8.65,8.65,0,0,0-3.336,7.1c0,1.632.6,4.393,2.3,4.393,1.008,0,1.729-.889,2.353-1.945,2.015-3.456,2.4-8.328,2.64-11.089A9.042,9.042,0,0,0,3875.074,669.859Z" fill="#00532c"/>
          <path id="Path_6938" data-name="Path 6938" d="M3904.163,668.73v1.729h-9.937V668.73Zm-.816-3.384v1.728h-8.353v-1.728Zm0,6.769v1.68h-8.353v-1.68Zm0,3.456V677.3h-8.353v-1.728Zm0,3.456v7.321h-8.353v-7.321Zm-1.849,1.633h-4.632v4.056h4.632Zm14.018-5.5h-8.041v8.545c0,.576.072.816.984.816h4.584c.889,0,1.368,0,1.464-4.369l1.9.433a15.544,15.544,0,0,1-.575,4.512,2.379,2.379,0,0,1-2.184,1.272H3908c-.937,0-2.448,0-2.448-2.064V673.291h8.016v-6.1h-8.257v-1.848h10.2Z" fill="#00532c"/>
          <path id="Path_6939" data-name="Path 6939" d="M3933.323,682.076a27.884,27.884,0,0,1-4.969,3.6l-.6-1.368a60.675,60.675,0,0,1-8.136,1.968l-.337-1.968c.145-.024,3.7-.72,4.1-.792v-6.7h-3.912v-1.752h3.912v-2.472h-2.472v-1.56a5.617,5.617,0,0,1-.984.72l-.84-1.9a12.7,12.7,0,0,0,4.368-5.281h2.064a11.9,11.9,0,0,0,3.745,3.912l-1.2,1.729a14.961,14.961,0,0,1-3.48-3.841,19.467,19.467,0,0,1-3.432,4.465h6.576v1.752h-2.568v2.472h3.433v1.752h-3.433v6.313a22.382,22.382,0,0,0,3.192-.912l.072,1.2a25.44,25.44,0,0,0,4.224-3.049Zm-12.842.744a23.825,23.825,0,0,0-.5-4.417l1.584-.216a20.063,20.063,0,0,1,.648,4.369Zm5.761-1.3a16.792,16.792,0,0,0,.648-3.721l1.68.336a17.552,17.552,0,0,1-.816,3.649Zm13.562-8.713h1.8v1.728h-5.689v1.152a14.786,14.786,0,0,0,6.024,8.425l-1.2,1.728a15.326,15.326,0,0,1-4.824-6.145v5.089a1.722,1.722,0,0,1-1.848,1.992h-2.784l-.288-1.992,2.352.024c.624,0,.744-.192.744-.672v-9.6h-5.424v-1.728h9.264V670.7h-7.777V669.09h7.777v-2.064h-8.184v-1.7H3939.8Zm-8.617,6.888a20.717,20.717,0,0,0-1.9-3.36l1.56-.816a18.148,18.148,0,0,1,1.992,3.264Zm6.24-1.368a15.981,15.981,0,0,0,2.257-2.976l1.511,1.08a18.413,18.413,0,0,1-2.4,3.024Z" fill="#00532c"/>
          <path id="Path_6940" data-name="Path 6940" d="M3945.49,684.644a52.736,52.736,0,0,0,4.152-12.913l-3.816.024v-2.064H3950c.24-1.513.36-2.449.552-4.321l2.328.1c-.288,1.9-.384,2.448-.7,4.225h2.591c2.857,0,5.233.624,5.233,6.192a21.663,21.663,0,0,1-1.152,7.249,3.959,3.959,0,0,1-4.176,2.4,23.21,23.21,0,0,1-2.833-.168l-.1-2.208a13.22,13.22,0,0,0,2.616.288c1.609,0,2.256-.528,2.761-2.137a19.714,19.714,0,0,0,.72-5.52c0-4.008-1.321-4.152-4.225-4.1l-1.824.024a60.586,60.586,0,0,1-4.224,13.873Zm18.553-6.481a16.2,16.2,0,0,0-3.408-9.553l1.776-.984c2.76,2.809,3.649,7.009,3.937,10.129Z" fill="#00532c"/>
          <path id="Path_6941" data-name="Path 6941" d="M3975.97,669.139a20.331,20.331,0,0,0-.744,6.744,12.845,12.845,0,0,1,8.256-2.952c5.569,0,6.6,3.576,6.6,5.568,0,5.761-5.544,7.057-10.681,7.057a29.45,29.45,0,0,1-4.608-.336l-.24-2.112a25.727,25.727,0,0,0,4.68.432c3.313,0,6.193-.648,7.633-2.233a4.246,4.246,0,0,0,.936-2.832c0-1.872-1.272-3.6-4.44-3.6-3.217,0-6.433,1.368-8.017,3.456-.072.24-.1.312-.12.432l-2.136-.072c0-.816.072-4.416.1-5.136a22.467,22.467,0,0,1,.624-4.8Zm10.393-.024a29.581,29.581,0,0,0-9.625-1.729l.384-2.064a38.486,38.486,0,0,1,9.841,1.512Z" fill="#00532c"/>
          <path id="Path_6942" data-name="Path 6942" d="M3809.41,700.874h2.016v18.914h-2.3V703.394l-3.624,2.5-.312-2.136Z" fill="#00532c"/>
          <path id="Path_6943" data-name="Path 6943" d="M3842.075,719.452l-.36,1.848h-11.161c-4.441,0-5.977-2.064-6.673-3.024a27.282,27.282,0,0,1-3.432,3.624l-1.008-2.136a24.326,24.326,0,0,0,3.336-2.9v-6.1h-3.072v-1.848h4.992v6.7a3.616,3.616,0,0,0,2.16,3.121,10.506,10.506,0,0,0,3.745.72Zm-17.689-14.377a22.827,22.827,0,0,0-4.3-3.841l1.3-1.44a23.331,23.331,0,0,1,4.417,3.744Zm16.633,11.113c0,1.656-.648,2.064-2.161,2.064h-2.183l-.337-1.9,2.137.024c.5,0,.671-.168.671-.7v-13.7h-4.32v1.777h3.313v1.512h-3.313v1.848h3.649v1.56H3829.5v-1.56h3.576v-1.848h-3.192v-1.512h3.192v-1.777h-4.248v7.345c0,5.472-1.032,7.417-1.656,8.545l-1.536-1.368c.672-1.177,1.368-2.785,1.368-7.369V700.3h14.017Zm-3.241-.528h-7.872v-5.569h7.872Zm-1.679-4.081h-4.513v2.592h4.513Z" fill="#00532c"/>
          <path id="Path_6944" data-name="Path 6944" d="M3854.722,700.418v8.353h-6.985V721.8h-1.92V700.418ZM3852.85,702h-5.113v1.824h5.113Zm0,3.217h-5.113v1.944h5.113Zm8.592,13.969H3850.5v-8.761h10.944Zm-1.824-7.177h-7.32v2.016h7.32Zm0,3.385h-7.32V717.6h7.32Zm6.553,4.416c0,.48,0,1.992-1.68,1.992h-3.5l-.359-1.92,2.952.024c.432,0,.7-.072.7-.672V708.771h-7.2v-8.353h9.1Zm-1.9-17.81h-5.329v1.824h5.329Zm0,3.217h-5.329v1.944h5.329Z" fill="#00532c"/>
          <path id="Path_6945" data-name="Path 6945" d="M3879.034,707.331a16.63,16.63,0,0,1,3.48-.36c5.833,0,8.737,3.048,8.737,7.008,0,6.193-6.625,6.553-8.881,6.673l-.552-1.992c3.5-.1,7.249-.912,7.249-4.873,0-3.5-2.88-4.32-4.441-4.776-2.736,9.961-8.208,10.489-9.5,10.489-2.377,0-3.913-1.824-3.913-4.369,0-3.84,2.856-6.12,5.761-7.2-.024-.72-.024-1.3-.024-3.168h-5.065v-1.969h5.065v-2.4h2.112v2.4h11.473v1.969h-11.5Zm-1.992,2.568c-1.608.744-3.889,2.5-3.889,5.088a2.231,2.231,0,0,0,2.137,2.521,5.043,5.043,0,0,0,2.88-1.008A27.093,27.093,0,0,1,3877.042,709.9Zm5.688-1.128a11.492,11.492,0,0,0-3.672.432,24.349,24.349,0,0,0,.744,5.784A17.294,17.294,0,0,0,3882.73,708.771Z" fill="#00532c"/>
          <path id="Path_6946" data-name="Path 6946" d="M3899.985,700.874a65.5,65.5,0,0,0-.839,10.417,40.068,40.068,0,0,0,.839,8.809l-2.256.288a43.333,43.333,0,0,1-.744-8.977,79.764,79.764,0,0,1,.72-10.681Zm2.209,6.6v-2.016h8.544c-.024-1.08-.071-3.7-.095-4.945h2.208c0,.792.072,4.225.1,4.945l3.888-.024v2.04h-3.864c.12,7.344-.288,12.505-8.3,13.513l-.792-1.968c5.809-.936,7.057-2.88,6.889-11.545Z" fill="#00532c"/>
          <path id="Path_6947" data-name="Path 6947" d="M3941.459,703.946c-.816-.071-1.512-.1-2.448-.1a6.649,6.649,0,0,0-2.425.289c-3.456,1.152-8.16,4.872-8.16,9,0,3.121,2.3,4.105,4.848,4.633a26.785,26.785,0,0,0,6.049.432l-.432,2.328c-4.729-.192-12.7-.528-12.7-7.249,0-4.56,4.2-7.7,7.033-9.361-.7.024-9,.529-11.617.841l-.192-2.353c1.44-.048,5.281-.216,6.505-.288,5.376-.288,7.584-.336,13.489-.384Z" fill="#00532c"/>
          <path id="Path_6948" data-name="Path 6948" d="M3958.906,708.219h7.8v1.992h-7.825c-.312,7.177-4.824,9.337-9.913,10.537l-.96-1.944c7.057-1.44,8.521-4.2,8.737-8.593h-9.841v-1.992h9.841v-3.937a65.878,65.878,0,0,1-8.449.625l-.408-1.969a48.637,48.637,0,0,0,15.866-2.4l1.128,1.944a53.067,53.067,0,0,1-5.977,1.464Z" fill="#00532c"/>
          <path id="Path_6949" data-name="Path 6949" d="M3982.93,717.676h7.225v1.872h-16.3v-1.872h7.057v-9.409h-6.072v-1.92h14.3v1.92h-6.216Z" fill="#00532c"/>
          <path id="Path_6950" data-name="Path 6950" d="M4001.29,712.851a21.014,21.014,0,0,0-1.921-5.856l1.8-.5a24.64,24.64,0,0,1,2.04,5.88Zm-.144,6.457c7.44-1.536,10.8-4.8,12.168-13.417l2.089.432c-1.584,8.208-4.656,12.649-12.913,14.617Zm5.4-7.561a26.035,26.035,0,0,0-1.584-5.736l1.776-.408a32.736,32.736,0,0,1,1.728,5.688Z" fill="#00532c"/>
          <path id="Path_6951" data-name="Path 6951" d="M4024.042,718.8c4.824-1.056,13.057-3.841,14.665-15.1h-8.521a20.8,20.8,0,0,1-6.289,6.553l-1.368-1.632a17.979,17.979,0,0,0,6.217-6.913h12.481c-1.056,12.169-7.849,17.234-16.274,19.13Z" fill="#00532c"/>
          <path id="Path_6952" data-name="Path 6952" d="M4067.651,702.986v1.993h-6.289V709.8a12.2,12.2,0,0,1,.312,1.584,11.645,11.645,0,0,1,.144,1.848c0,6.337-5.616,7.489-9.793,7.657l-.671-2.016c6.408.072,8.184-2.136,8.5-4.993a3.784,3.784,0,0,1-3.793,2.3,4.429,4.429,0,0,1-4.464-4.705,4.713,4.713,0,0,1,4.968-4.872,3.459,3.459,0,0,1,2.688.96l-.024-2.592h-11.833v-1.993H4059.2l-.048-2.688h2.208v2.688Zm-8.353,7.609a2.476,2.476,0,0,0-2.688-2.184,2.834,2.834,0,0,0-3,2.976,2.849,2.849,0,1,0,5.689.264Z" fill="#00532c"/>
          <path id="Path_6953" data-name="Path 6953" d="M4088.123,702.842c-.528.384-1.272.984-1.873,1.465-3.072,2.472-3.408,2.736-4.992,3.984a12.784,12.784,0,0,1,4.3-.816c3.529,0,6.361,1.944,6.361,6.024,0,4.7-4.033,7.129-8.521,7.129-3.816,0-6.193-1.7-6.193-3.984,0-1.993,1.824-3.385,4.057-3.385a5.864,5.864,0,0,1,5.736,4.705,4.624,4.624,0,0,0,2.784-4.417c0-1.272-.383-4.272-4.992-4.272-4.248,0-7.369,2.376-10.657,5.5l-1.248-1.8c1.848-1.44,7.345-5.856,11.857-9.913-4.08.288-5.5.336-9.409.408V701.4c5.089,0,7.057-.024,12.794-.36Zm-6.937,12.169c-1.464,0-2.088.937-2.088,1.585,0,1.176,1.536,2.328,4.224,2.328a7,7,0,0,0,1.872-.216C4084.666,716.428,4083.274,715.011,4081.186,715.011Z" fill="#00532c"/>
          <path id="Path_6954" data-name="Path 6954" d="M4116.179,708.315c-1.944.216-14.906,1.68-14.906,7.008,0,2.785,2.929,3.049,8.089,3.049a66.86,66.86,0,0,0,7.561-.36l.048,2.256c-1.56.1-3.672.24-7.129.24-4.152,0-10.8,0-10.8-5.112,0-4.1,4.944-6.169,6.624-6.889-.792-1.56-.84-2.952-.912-8.065h2.352c-.024.648-.048,1.32-.048,2.5,0,2.545.12,3.817.624,4.849a55.941,55.941,0,0,1,8.281-1.776Z" fill="#00532c"/>
          <path id="Path_6955" data-name="Path 6955" d="M3805.833,735.874v16.85h7.057v2.064h-9.313V735.874Z" fill="#00532c"/>
          <path id="Path_6956" data-name="Path 6956" d="M3819.25,735.874v18.914H3816.9V735.874Z" fill="#00532c"/>
          <path id="Path_6957" data-name="Path 6957" d="M3827.722,735.874l10.825,16.61v-16.61h2.232v18.914h-3.288l-10.825-16.61v16.61h-2.232V735.874Z" fill="#00532c"/>
          <path id="Path_6958" data-name="Path 6958" d="M3856.258,743.963v2.064h-8.377v6.7h9.529v2.064h-11.785V735.874h11.425v2.064h-9.169v6.025Z" fill="#00532c"/>
          <path id="Path_6959" data-name="Path 6959" d="M3861.657,752.868a14.134,14.134,0,0,0,3.672-8.929l2.04.216c-.336,3.168-1.08,7.08-3.96,10.3Zm15.841-13.274a3.229,3.229,0,0,1-.7-2.04,3.337,3.337,0,1,1,4.249,3.217v.864h-8.329v14.257h-2.208V741.635h-8.3v-2.041h8.3v-4.008h2.208v4.008Zm.481,4.321c.719,4.176,1.728,6.673,3.7,9.049l-1.8,1.392c-2.161-2.64-3.1-5.281-3.913-10.2Zm.312-6.337a1.848,1.848,0,1,0,1.848-1.848A1.865,1.865,0,0,0,3878.291,737.578Z" fill="#00532c"/>
          <path id="Path_6960" data-name="Path 6960" d="M3899.434,755.82h-2.3V744.635a38.237,38.237,0,0,1-9.457,4.8l-1.056-1.992a35.784,35.784,0,0,0,17.209-12.1l2.017,1.32a44.015,44.015,0,0,1-6.409,6.265Z" fill="#00532c"/>
          <path id="Path_6961" data-name="Path 6961" d="M3920.1,742.355a28.683,28.683,0,0,0-7.393-3.457l1.08-1.92a30.123,30.123,0,0,1,7.513,3.361Zm-6.889,10.417c12.145-.648,15.722-9.145,17.377-14.522l1.873,1.393c-1.152,3.408-4.993,14.617-18.818,15.529Z" fill="#00532c"/>
          <path id="Path_6962" data-name="Path 6962" d="M3955.595,748.883a53.278,53.278,0,0,0-10.585-5.136v12.121h-2.328V735.346h2.328v6.145a65.735,65.735,0,0,1,11.713,5.16Z" fill="#00532c"/>
          <path id="Path_6963" data-name="Path 6963" d="M3961.953,754.5a42.484,42.484,0,0,0,4.224-12.577l-3.984.024v-2.04h4.321c.215-1.609.311-2.593.456-4.513l2.28.216c-.216,1.848-.312,2.712-.576,4.3h2.736c3.216,0,4.824,1.056,4.824,5.928,0,9.433-3.024,9.649-5.016,9.649a15.412,15.412,0,0,1-2.952-.336l-.12-2.136a14.091,14.091,0,0,0,2.688.384c1.464,0,2.3-.672,2.736-2.448a23.665,23.665,0,0,0,.6-5.329c0-2.112-.144-3.744-2.616-3.72l-3.217.024a53.712,53.712,0,0,1-4.368,13.633Zm17.329-5.593c-.24-2.856-1.032-6.648-3.648-9.216l1.56-1.2c.985.984,3.577,3.625,4.441,10.081Zm-.407-13.729a20.48,20.48,0,0,1,2.88,4.273l-1.536,1.1a19.78,19.78,0,0,0-2.761-4.369Zm2.928-1.7a20.315,20.315,0,0,1,2.856,4.272l-1.536,1.08a19.878,19.878,0,0,0-2.761-4.344Z" fill="#00532c"/>
          <path id="Path_6964" data-name="Path 6964" d="M4007.531,742.667h-18v-5.161h-3.072v-1.464h3.072v-1.536h1.968v1.536h4.993v-1.536h1.848v1.536h5.232v-1.536h1.9v1.536h3.336v1.464h-3.336v2.713h-8.977v-2.713H3991.5v3.769h16.034ZM3994.4,754.5a21.574,21.574,0,0,1-7.176,2.328l-.768-1.7a19.622,19.622,0,0,0,6.6-1.872h-4.2v-9.409H4006.4v9.409h-13.1Zm10.057-9.289h-13.753v1.344h13.753Zm0,2.568h-13.753v1.392h13.753Zm0,2.617h-13.753v1.416h13.753Zm-.888-12.89h-5.232v1.512h5.232Zm-1.9,15.818a21.3,21.3,0,0,0,7.153,1.7l-.936,1.872a24.217,24.217,0,0,1-7.369-2.256Z" fill="#00532c"/>
          <path id="Path_6965" data-name="Path 6965" d="M4028.17,740.459v1.848c-1.7,1.368-3.672,3.024-5.328,4.512a2.992,2.992,0,0,1,1.056-.192c2.184,0,2.184,2.04,2.184,3.384v.984c0,1.993.288,2.545,3.528,2.545,1.176,0,2.4-.12,3.168-.192l.1,2.136c-.889.072-1.776.168-3.433.168-2.52,0-5.4,0-5.4-3.648v-1.585c0-1.176,0-2.088-1.224-2.088a5.212,5.212,0,0,0-2.616,1.1c-1.177,1.056-2.184,2.113-5.953,6.1l-1.536-1.656c.168-.144,3.936-3.721,4.608-4.345,5.065-4.824,6.049-5.664,7.777-7.1l-10.777.072v-2.016Zm.24-1.657a39.619,39.619,0,0,0-11.137-1.8l.264-1.872a43.854,43.854,0,0,1,11.329,1.656Z" fill="#00532c"/>
          <path id="Path_6966" data-name="Path 6966" d="M4053.4,737.842c-.529.384-1.273.984-1.873,1.465-3.072,2.472-3.408,2.736-4.993,3.984a12.8,12.8,0,0,1,4.3-.816c3.528,0,6.361,1.944,6.361,6.024,0,4.7-4.033,7.129-8.521,7.129-3.816,0-6.193-1.7-6.193-3.984,0-1.993,1.824-3.385,4.056-3.385a5.864,5.864,0,0,1,5.737,4.705,4.626,4.626,0,0,0,2.784-4.417c0-1.272-.384-4.272-4.992-4.272-4.248,0-7.369,2.376-10.657,5.5l-1.248-1.8c1.848-1.44,7.345-5.856,11.857-9.913-4.08.288-5.5.336-9.409.408V736.4c5.088,0,7.057-.024,12.794-.36Zm-6.937,12.169c-1.465,0-2.089.937-2.089,1.585,0,1.176,1.536,2.328,4.225,2.328a7,7,0,0,0,1.872-.216C4049.938,751.428,4048.546,750.011,4046.458,750.011Z" fill="#00532c"/>
          <path id="Path_6967" data-name="Path 6967" d="M4074.514,747.2a22.1,22.1,0,0,1,8.713,5.137l-1.56,2.064a20.407,20.407,0,0,0-7.177-4.921l.024,1.657c.024,1.416-.144,4.488-5.136,4.488-3.961,0-5.737-1.968-5.737-4.321,0-3.288,3.384-4.7,6.817-4.7a13.145,13.145,0,0,1,1.848.144l-.1-11.3h2.256l.024,3.985,8.113-.073v2.161h-8.113Zm-2.16,1.608a10.98,10.98,0,0,0-2.232-.24c-2.064,0-4.345.816-4.345,2.761,0,2.3,3.048,2.3,3.577,2.3,2.736,0,2.976-1.656,2.976-2.641Z" fill="#00532c"/>
          <path id="Path_6968" data-name="Path 6968" d="M4097.194,752.124h2.544v2.664h-2.544Zm2.52-16.25-.288,13.7h-1.92l-.288-13.7Z" fill="#00532c"/>
        </g>
        <g id="Group_1601" data-name="Group 1601" transform="translate(-3478 -1.205)">
          <g id="Group_1591" data-name="Group 1591">
            <path id="Path_6992" data-name="Path 6992" d="M3660.043,735.321a12.98,12.98,0,0,1-.908,1.17c-.239.432-.216.816-.511,1.382-.167.32-.489.67-.782,1.243-.211.412-.3.912-.528,1.365-.213.423-.719.719-.941,1.171-.212.43-.217.974-.433,1.422s-.337.912-.539,1.362-.6.8-.8,1.252-.368.908-.563,1.354-.4.9-.589,1.346-.328.934-.506,1.377c-.187.466-.464.887-.624,1.331-.172.48-.4.925-.541,1.368-.155.5-.049,1.039-.152,1.478a9.081,9.081,0,0,0-.142,1.43,9.18,9.18,0,0,0-.179,1.268,8.4,8.4,0,0,0,.137,1.275,7.986,7.986,0,0,0,.448,1.2,8.476,8.476,0,0,0,.464,1.193,10.675,10.675,0,0,0,.825.984,12.132,12.132,0,0,0,.772,1.011,12.6,12.6,0,0,0,.778,1.035c.312.28.74.433,1.091.692s.613.609.988.833c.359.214.837.215,1.23.4s.755.362,1.163.519c.391.15.8.247,1.218.381.4.128.727.521,1.148.632.406.107.835.176,1.264.262.412.081.842.137,1.276.194.4.051.787.075,1.161.093.4.02.792.073,1.166.058a11.363,11.363,0,0,0,1.14-.27c.393-.054.816.079,1.18-.011.384-.1.653-.522,1-.656a10.358,10.358,0,0,0,1.142-.261,10,10,0,0,0,1.03-.549,10.593,10.593,0,0,0,.858-.792c.291-.256.542-.554.806-.834s.653-.467.891-.77.363-.7.574-1.023.327-.7.512-1.041.339-.693.5-1.04.229-.742.373-1.1.334-.7.462-1.056c.135-.373.283-.727.4-1.082a7.111,7.111,0,0,0,.505-1.323c.067-.424,0-.91.039-1.416.035-.444-.053-.918-.037-1.414.013-.45.322-.917.317-1.4,0-.458-.225-.927-.24-1.41-.013-.462-.038-.933-.054-1.413-.017-.463.088-.939.063-1.414s-.144-.928-.174-1.4-.126-.938-.159-1.41-.146-.938-.177-1.406.15-.957.116-1.42-.035-.949-.076-1.409c-.044-.48-.1-.949-.145-1.408-.044-.483-.267-.935-.31-1.387-.047-.489-.1-.954-.152-1.4-.054-.5-.1-.97-.154-1.4-.06-.527-.1-1-.154-1.4-.081-.669-.15-1.15-.184-1.4" fill="#fff3d9"/>
            <path id="Path_6993" data-name="Path 6993" d="M3660.043,735.321a12.98,12.98,0,0,1-.908,1.17c-.239.432-.216.816-.511,1.382-.167.32-.489.67-.782,1.243-.211.412-.3.912-.528,1.365-.213.423-.719.719-.941,1.171-.212.43-.217.974-.433,1.422s-.337.912-.539,1.362-.6.8-.8,1.252-.368.908-.563,1.354-.4.9-.589,1.346-.328.934-.506,1.377c-.187.466-.464.887-.624,1.331-.172.48-.4.925-.541,1.368-.155.5-.049,1.039-.152,1.478a9.081,9.081,0,0,0-.142,1.43,9.18,9.18,0,0,0-.179,1.268,8.4,8.4,0,0,0,.137,1.275,7.986,7.986,0,0,0,.448,1.2,8.476,8.476,0,0,0,.464,1.193,10.675,10.675,0,0,0,.825.984,12.132,12.132,0,0,0,.772,1.011,12.6,12.6,0,0,0,.778,1.035c.312.28.74.433,1.091.692s.613.609.988.833c.359.214.837.215,1.23.4s.755.362,1.163.519c.391.15.8.247,1.218.381.4.128.727.521,1.148.632.406.107.835.176,1.264.262.412.081.842.137,1.276.194.4.051.787.075,1.161.093.4.02.792.073,1.166.058a11.363,11.363,0,0,0,1.14-.27c.393-.054.816.079,1.18-.011.384-.1.653-.522,1-.656a10.358,10.358,0,0,0,1.142-.261,10,10,0,0,0,1.03-.549,10.593,10.593,0,0,0,.858-.792c.291-.256.542-.554.806-.834s.653-.467.891-.77.363-.7.574-1.023.327-.7.512-1.041.339-.693.5-1.04.229-.742.373-1.1.334-.7.462-1.056c.135-.373.283-.727.4-1.082a7.111,7.111,0,0,0,.505-1.323c.067-.424,0-.91.039-1.416.035-.444-.053-.918-.037-1.414.013-.45.322-.917.317-1.4,0-.458-.225-.927-.24-1.41-.013-.462-.038-.933-.054-1.413-.017-.463.088-.939.063-1.414s-.144-.928-.174-1.4-.126-.938-.159-1.41-.146-.938-.177-1.406.15-.957.116-1.42-.035-.949-.076-1.409c-.044-.48-.1-.949-.145-1.408-.044-.483-.267-.935-.31-1.387-.047-.489-.1-.954-.152-1.4-.054-.5-.1-.97-.154-1.4-.06-.527-.1-1-.154-1.4-.081-.669-.15-1.15-.184-1.4" fill="none" stroke="#bda888" stroke-linecap="round" stroke-linejoin="round" stroke-width="1.393"/>
          </g>
          <path id="Path_6994" data-name="Path 6994" d="M3713.131,713.815c0-1.37-.228-2.055-2.284-3.654s-3.2-1.6-2.855-2.17,1.37-2.855,1.37-2.855,5.368.685,5.254,5.481S3713.131,713.815,3713.131,713.815Z" fill="#eb5a24" fill-rule="evenodd"/>
          <g id="Group_1592" data-name="Group 1592">
            <path id="Path_6995" data-name="Path 6995" d="M3657.791,666.964a4.42,4.42,0,0,0-1.286.666,10.016,10.016,0,0,0-1.043.952c-.252.241-.244.956-.736,1.311-.35.253-.8.41-1.193.689-.36.257-.951.225-1.338.5-.362.263-.463.905-.842,1.187-.36.268-1.03.149-1.4.44s-.679.615-1.042.907-.5.847-.867,1.131-.71.579-1.076.859-.932.3-1.3.579-.428.939-.785,1.228-.8.492-1.157.773-.773.507-1.13.79-.742.542-1.085.838-.551.762-.88,1.072-.721.581-1.039.9c-.337.333-.764.555-1.08.865-.343.336-.874.458-1.182.77-.344.349-.668.688-.951,1.009-.335.377-.335.952-.562,1.292-.3.455-.757.772-.86,1.214-.117.506.384.927.49,1.4s-.369,1.2-.082,1.625c.267.393,1.055.347,1.455.668a5.986,5.986,0,0,0,1.189.761c.425.2.693.9,1.187,1.036.463.132,1.095-.468,1.6-.39a9.207,9.207,0,0,0,1.419.181,8.283,8.283,0,0,0,1.448.05c.48-.078,1.044.166,1.538.025.469-.135.758-.775,1.228-.978a10.229,10.229,0,0,0,1.266-.7,11.56,11.56,0,0,0,1.3-.69c.384-.3,1.167-.175,1.537-.534.35-.339.758-.7,1.09-1.092.267-.315.314-.845.719-1.129.343-.24.617-.7,1.061-.9a9.786,9.786,0,0,1,1.271-.591c.414-.122.911-.1,1.379-.195.428-.088.921.062,1.387-.012.436-.069.822-.613,1.287-.675.436-.059.9-.071,1.36-.126.441-.052.959.5,1.421.455.445-.041.852-.731,1.314-.759.445-.027.918.184,1.378.168s.914.353,1.375.344.9-.4,1.356-.407.9.535,1.354.55.933-.727,1.391-.708.893.043,1.35.048.9.167,1.353.164.909-.053,1.366-.053.915.09,1.371.105.9.05,1.359.061.9.527,1.35.54.931-.564,1.386-.542.91.051,1.364.077.879.587,1.333.614.941-.526,1.393-.5.885.438,1.337.477.944-.334,1.4-.293.873.478,1.324.509.912.074,1.364.111.879.422,1.327.46.941-.31,1.388-.277.9.263,1.35.292.938-.341,1.385-.312.908.166,1.352.2c.464.035.939-.3,1.385-.273.464.027.915.067,1.358.091.466.025.917.174,1.357.2.469.031.916.085,1.352.107.474.024.921.142,1.352.159.48.019.942-.189,1.364-.172a13.243,13.243,0,0,1,1.29.376c.436.061.8.457,1.207.554.428.1.789.326,1.187.46.415.14.786.3,1.175.471s1.093-.256,1.464-.053.535.817.887,1.05.725.47,1.062.728.641.578.962.852.533.695.84.981c.324.3.644.583.946.871.321.307.972.246,1.269.53.326.31.356.9.654,1.176.339.31.715.543,1.025.778a4.05,4.05,0,0,0,1.173.5c.415.152.915.609,1.333.473.352-.115.3-.981.657-1.339.259-.26.9-.245,1.168-.654.211-.319.124-.857.345-1.277.24-.456.879-.675,1.09-1.086.237-.463-.012-1.127.182-1.541.222-.474.356-.915.513-1.337.186-.5.645-.85.76-1.286.138-.52.585-.966.622-1.411.045-.529-.31-1.043-.4-1.493-.1-.481.02-1.113-.238-1.541-.237-.392-1.026-.435-1.364-.83-.3-.347-.275-1.018-.629-1.4-.309-.335-.7-.64-1.054-1.017-.316-.333-1.045-.313-1.4-.688-.317-.337-.16-1.148-.506-1.525-.3-.325-.864-.43-1.238-.741-.34-.284-.726-.538-1.122-.815-.366-.255-.817-.4-1.225-.658-.383-.237-.829-.377-1.242-.613-.394-.225-.762-.5-1.185-.72-.4-.209-.75-.549-1.18-.749s-.633-.828-1.06-1.025-1.119.23-1.551.044-.876-.268-1.316-.433-.9-.222-1.337-.375-.778-.587-1.223-.732-.783-.605-1.228-.745-.942-.111-1.39-.24-1.024.214-1.472.092-.67-1.108-1.119-1.226-.93-.13-1.378-.256-1.065.347-1.511.229-.789-.722-1.239-.818-.94-.12-1.393-.2-1,.286-1.452.213c-.47-.075-.852-.643-1.3-.711-.475-.073-.991.337-1.442.3-.479-.042-.906-.6-1.352-.628-.485-.024-.964.249-1.4.224s-.936-.081-1.457-.125c-.46-.039-.939-.2-1.448-.231-.469-.029-.967.433-1.472.428-.472-.005-.951-.194-1.45-.182-.478.013-.964.071-1.462.086-.481.014-.975-.088-1.47-.085s-.973-.52-1.465-.518-.973.169-1.464.173-.976.044-1.465.053-.973.164-1.461.163-.978-.052-1.464-.051-.982.022-1.466.034-.963.4-1.445.435-.968.23-1.447.268c-.5.04-1.015-.295-1.492-.28-.5.015-.992.051-1.467.048-.506,0-.992-.3-1.461-.3-.512-.006-1,.423-1.455.44a11.2,11.2,0,0,1-1.5-.08c-.659-.05-1-.505-1.467-.474A6.277,6.277,0,0,0,3657.791,666.964Z" fill="#fff3d9"/>
            <path id="Path_6996" data-name="Path 6996" d="M3657.791,666.964a4.42,4.42,0,0,0-1.286.666,10.016,10.016,0,0,0-1.043.952c-.252.241-.244.956-.736,1.311-.35.253-.8.41-1.193.689-.36.257-.951.225-1.338.5-.362.263-.463.905-.842,1.187-.36.268-1.03.149-1.4.44s-.679.615-1.042.907-.5.847-.867,1.131-.71.579-1.076.859-.932.3-1.3.579-.428.939-.785,1.228-.8.492-1.157.773-.773.507-1.13.79-.742.542-1.085.838-.551.762-.88,1.072-.721.581-1.039.9c-.337.333-.764.555-1.08.865-.343.336-.874.458-1.182.77-.344.349-.668.688-.951,1.009-.335.377-.335.952-.562,1.292-.3.455-.757.772-.86,1.214-.117.506.384.927.49,1.4s-.369,1.2-.082,1.625c.267.393,1.055.347,1.455.668a5.986,5.986,0,0,0,1.189.761c.425.2.693.9,1.187,1.036.463.132,1.095-.468,1.6-.39a9.207,9.207,0,0,0,1.419.181,8.283,8.283,0,0,0,1.448.05c.48-.078,1.044.166,1.538.025.469-.135.758-.775,1.228-.978a10.229,10.229,0,0,0,1.266-.7,11.56,11.56,0,0,0,1.3-.69c.384-.3,1.167-.175,1.537-.534.35-.339.758-.7,1.09-1.092.267-.315.314-.845.719-1.129.343-.24.617-.7,1.061-.9a9.786,9.786,0,0,1,1.271-.591c.414-.122.911-.1,1.379-.195.428-.088.921.062,1.387-.012.436-.069.822-.613,1.287-.675.436-.059.9-.071,1.36-.126.441-.052.959.5,1.421.455.445-.041.852-.731,1.314-.759.445-.027.918.184,1.378.168s.914.353,1.375.344.9-.4,1.356-.407.9.535,1.354.55.933-.727,1.391-.708.893.043,1.35.048.9.167,1.353.164.909-.053,1.366-.053.915.09,1.371.105.9.05,1.359.061.9.527,1.35.54.931-.564,1.386-.542.91.051,1.364.077.879.587,1.333.614.941-.526,1.393-.5.885.438,1.337.477.944-.334,1.4-.293.873.478,1.324.509.912.074,1.364.111.879.422,1.327.46.941-.31,1.388-.277.9.263,1.35.292.938-.341,1.385-.312.908.166,1.352.2c.464.035.939-.3,1.385-.273.464.027.915.067,1.358.091.466.025.917.174,1.357.2.469.031.916.085,1.352.107.474.024.921.142,1.352.159.48.019.942-.189,1.364-.172a13.243,13.243,0,0,1,1.29.376c.436.061.8.457,1.207.554.428.1.789.326,1.187.46.415.14.786.3,1.175.471s1.093-.256,1.464-.053.535.817.887,1.05.725.47,1.062.728.641.578.962.852.533.695.84.981c.324.3.644.583.946.871.321.307.972.246,1.269.53.326.31.356.9.654,1.176.339.31.715.543,1.025.778a4.05,4.05,0,0,0,1.173.5c.415.152.915.609,1.333.473.352-.115.3-.981.657-1.339.259-.26.9-.245,1.168-.654.211-.319.124-.857.345-1.277.24-.456.879-.675,1.09-1.086.237-.463-.012-1.127.182-1.541.222-.474.356-.915.513-1.337.186-.5.645-.85.76-1.286.138-.52.585-.966.622-1.411.045-.529-.31-1.043-.4-1.493-.1-.481.02-1.113-.238-1.541-.237-.392-1.026-.435-1.364-.83-.3-.347-.275-1.018-.629-1.4-.309-.335-.7-.64-1.054-1.017-.316-.333-1.045-.313-1.4-.688-.317-.337-.16-1.148-.506-1.525-.3-.325-.864-.43-1.238-.741-.34-.284-.726-.538-1.122-.815-.366-.255-.817-.4-1.225-.658-.383-.237-.829-.377-1.242-.613-.394-.225-.762-.5-1.185-.72-.4-.209-.75-.549-1.18-.749s-.633-.828-1.06-1.025-1.119.23-1.551.044-.876-.268-1.316-.433-.9-.222-1.337-.375-.778-.587-1.223-.732-.783-.605-1.228-.745-.942-.111-1.39-.24-1.024.214-1.472.092-.67-1.108-1.119-1.226-.93-.13-1.378-.256-1.065.347-1.511.229-.789-.722-1.239-.818-.94-.12-1.393-.2-1,.286-1.452.213c-.47-.075-.852-.643-1.3-.711-.475-.073-.991.337-1.442.3-.479-.042-.906-.6-1.352-.628-.485-.024-.964.249-1.4.224s-.936-.081-1.457-.125c-.46-.039-.939-.2-1.448-.231-.469-.029-.967.433-1.472.428-.472-.005-.951-.194-1.45-.182-.478.013-.964.071-1.462.086-.481.014-.975-.088-1.47-.085s-.973-.52-1.465-.518-.973.169-1.464.173-.976.044-1.465.053-.973.164-1.461.163-.978-.052-1.464-.051-.982.022-1.466.034-.963.4-1.445.435-.968.23-1.447.268c-.5.04-1.015-.295-1.492-.28-.5.015-.992.051-1.467.048-.506,0-.992-.3-1.461-.3-.512-.006-1,.423-1.455.44a11.2,11.2,0,0,1-1.5-.08c-.659-.05-1-.505-1.467-.474A6.277,6.277,0,0,0,3657.791,666.964Z" fill="none" stroke="#bda888" stroke-linecap="round" stroke-linejoin="round" stroke-width="1.393"/>
          </g>
          <g id="Group_1593" data-name="Group 1593">
            <path id="Path_6997" data-name="Path 6997" d="M3707.159,686.966c.151.385.419.8.569,1.286.126.411.174.886.3,1.363.116.424-.072.955.05,1.427.111.427.261.863.373,1.329.1.436.529.817.63,1.286.094.44.314.878.4,1.348.082.443-.083.947-.017,1.415.063.448.127.909.184,1.379.056.451.007.924.066,1.393.056.45.3.884.364,1.351.058.452.252.9.3,1.368s-.284.954-.25,1.423.129.912.152,1.38.012.921.028,1.39.062.92.072,1.389-.325.921-.324,1.389.365.922.358,1.39-.148.92-.162,1.387.246.934.222,1.4.027.931,0,1.4-.111.921-.147,1.387c-.039.492-.52.932-.578,1.406s.265,1.028.177,1.5c-.091.483-.542.876-.671,1.335s-.093.992-.261,1.441-.7.749-.905,1.184-.271.936-.5,1.359-.087,1.08-.346,1.484-.611.777-.9,1.162-.644.738-.953,1.107-.741.644-1.066,1-.545.829-.891,1.164-.7.7-1.068,1.005-1.089.179-1.476.47-.769.562-1.17.833-.7.676-1.119.923-.834.479-1.261.706-.767.629-1.2.837-1.03.075-1.471.269-.679.893-1.128,1.069-.91.364-1.363.524-.944.266-1.4.414-.913.371-1.372.508-1.05-.119-1.51,0c-.476.127-.841.684-1.3.789-.486.11-.973.237-1.439.319-.491.086-1.054-.353-1.517-.287-.5.072-.943.382-1.4.444-.507.07-1.011-.062-1.464-.012-.522.057-.974.468-1.412.5-.557.04-1.06-.321-1.461-.321-.423,0-.88.028-1.369.019-.434-.008-.9.216-1.38.189-.44-.024-.868-.4-1.339-.449-.44-.046-.956.4-1.421.339-.443-.061-.815-.668-1.276-.747-.445-.075-.949.139-1.405.045s-.874-.253-1.319-.377-.918-.116-1.359-.256-.9-.18-1.339-.324-.849-.355-1.279-.514-.708-.688-1.131-.867-.832-.345-1.245-.546-.872-.289-1.278-.5-.875-.309-1.268-.545-.876-.352-1.251-.618-.431-.949-.793-1.234-.726-.532-1.069-.84-.775-.5-1.093-.832-.619-.663-.905-1.025-.533-.735-.795-1.117-.784-.583-1.028-.976-.051-1.006-.254-1.427c-.2-.4-.755-.663-.925-1.1-.164-.418-.33-.86-.476-1.3-.141-.428-.3-.862-.441-1.306s.065-.971-.052-1.422-.494-.829-.578-1.286.093-.943.044-1.4-.211-.9-.247-1.363-.311-.892-.352-1.351.3-.947.251-1.405.064-.925.029-1.383-.364-.9-.373-1.358.022-.926.038-1.385.181-.914.206-1.371-.349-.939-.331-1.394.618-.9.636-1.355-.293-.939-.268-1.389c.027-.467-.192-.952-.148-1.4.046-.469.361-.9.42-1.347.063-.468.493-.865.563-1.3.075-.47.083-.929.157-1.36.069-.4.177-.813.275-1.268.088-.4.044-.855.157-1.3.1-.407-.1-.917.026-1.351.118-.406.463-.76.584-1.191.115-.412.017-.9.146-1.327.124-.412.435-.776.581-1.2s.108-.894.275-1.3.716-.646.887-1.053.153-.881.313-1.291.217-.851.38-1.257.141-.889.308-1.293.326-.817.5-1.219.653-.676.83-1.074.189-.877.37-1.271.553-.711.737-1.1.608-.685.795-1.075.176-.892.368-1.276.565-.7.765-1.075c.211-.4.22-.889.427-1.262.218-.394.531-.717.745-1.08.231-.392.077-1.005.3-1.355.251-.389.668-.649.908-.98.279-.384.918-.42,1.179-.717.331-.377.394-.9.688-1.116a4.551,4.551,0,0,1,1.3-.478,11.9,11.9,0,0,1,1.342-.358c.425-.077.906.024,1.4-.036.442-.052.9-.153,1.39-.205.449-.047.874-.574,1.358-.613.455-.036.941.089,1.423.067.457-.02.933-.173,1.412-.172.461,0,.932.106,1.41.111s.933.394,1.408.389.92-.545,1.393-.561.945.212,1.417.2.943-.209,1.414-.2.927.536,1.4.553.958-.442,1.426-.423.922.622,1.389.634.958-.417,1.426-.4.923.448,1.386.468.968-.594,1.429-.577c.478.018.946.133,1.407.153.478.02.952-.065,1.409-.044.481.022.928.512,1.382.533" fill="#fff3d9"/>
            <path id="Path_6998" data-name="Path 6998" d="M3707.159,686.966c.151.385.419.8.569,1.286.126.411.174.886.3,1.363.116.424-.072.955.05,1.427.111.427.261.863.373,1.329.1.436.529.817.63,1.286.094.44.314.878.4,1.348.082.443-.083.947-.017,1.415.063.448.127.909.184,1.379.056.451.007.924.066,1.393.056.45.3.884.364,1.351.058.452.252.9.3,1.368s-.284.954-.25,1.423.129.912.152,1.38.012.921.028,1.39.062.92.072,1.389-.325.921-.324,1.389.365.922.358,1.39-.148.92-.162,1.387.246.934.222,1.4.027.931,0,1.4-.111.921-.147,1.387c-.039.492-.52.932-.578,1.406s.265,1.028.177,1.5c-.091.483-.542.876-.671,1.335s-.093.992-.261,1.441-.7.749-.905,1.184-.271.936-.5,1.359-.087,1.08-.346,1.484-.611.777-.9,1.162-.644.738-.953,1.107-.741.644-1.066,1-.545.829-.891,1.164-.7.7-1.068,1.005-1.089.179-1.476.47-.769.562-1.17.833-.7.676-1.119.923-.834.479-1.261.706-.767.629-1.2.837-1.03.075-1.471.269-.679.893-1.128,1.069-.91.364-1.363.524-.944.266-1.4.414-.913.371-1.372.508-1.05-.119-1.51,0c-.476.127-.841.684-1.3.789-.486.11-.973.237-1.439.319-.491.086-1.054-.353-1.517-.287-.5.072-.943.382-1.4.444-.507.07-1.011-.062-1.464-.012-.522.057-.974.468-1.412.5-.557.04-1.06-.321-1.461-.321-.423,0-.88.028-1.369.019-.434-.008-.9.216-1.38.189-.44-.024-.868-.4-1.339-.449-.44-.046-.956.4-1.421.339-.443-.061-.815-.668-1.276-.747-.445-.075-.949.139-1.405.045s-.874-.253-1.319-.377-.918-.116-1.359-.256-.9-.18-1.339-.324-.849-.355-1.279-.514-.708-.688-1.131-.867-.832-.345-1.245-.546-.872-.289-1.278-.5-.875-.309-1.268-.545-.876-.352-1.251-.618-.431-.949-.793-1.234-.726-.532-1.069-.84-.775-.5-1.093-.832-.619-.663-.905-1.025-.533-.735-.795-1.117-.784-.583-1.028-.976-.051-1.006-.254-1.427c-.2-.4-.755-.663-.925-1.1-.164-.418-.33-.86-.476-1.3-.141-.428-.3-.862-.441-1.306s.065-.971-.052-1.422-.494-.829-.578-1.286.093-.943.044-1.4-.211-.9-.247-1.363-.311-.892-.352-1.351.3-.947.251-1.405.064-.925.029-1.383-.364-.9-.373-1.358.022-.926.038-1.385.181-.914.206-1.371-.349-.939-.331-1.394.618-.9.636-1.355-.293-.939-.268-1.389c.027-.467-.192-.952-.148-1.4.046-.469.361-.9.42-1.347.063-.468.493-.865.563-1.3.075-.47.083-.929.157-1.36.069-.4.177-.813.275-1.268.088-.4.044-.855.157-1.3.1-.407-.1-.917.026-1.351.118-.406.463-.76.584-1.191.115-.412.017-.9.146-1.327.124-.412.435-.776.581-1.2s.108-.894.275-1.3.716-.646.887-1.053.153-.881.313-1.291.217-.851.38-1.257.141-.889.308-1.293.326-.817.5-1.219.653-.676.83-1.074.189-.877.37-1.271.553-.711.737-1.1.608-.685.795-1.075.176-.892.368-1.276.565-.7.765-1.075c.211-.4.22-.889.427-1.262.218-.394.531-.717.745-1.08.231-.392.077-1.005.3-1.355.251-.389.668-.649.908-.98.279-.384.918-.42,1.179-.717.331-.377.394-.9.688-1.116a4.551,4.551,0,0,1,1.3-.478,11.9,11.9,0,0,1,1.342-.358c.425-.077.906.024,1.4-.036.442-.052.9-.153,1.39-.205.449-.047.874-.574,1.358-.613.455-.036.941.089,1.423.067.457-.02.933-.173,1.412-.172.461,0,.932.106,1.41.111s.933.394,1.408.389.92-.545,1.393-.561.945.212,1.417.2.943-.209,1.414-.2.927.536,1.4.553.958-.442,1.426-.423.922.622,1.389.634.958-.417,1.426-.4.923.448,1.386.468.968-.594,1.429-.577c.478.018.946.133,1.407.153.478.02.952-.065,1.409-.044.481.022.928.512,1.382.533" fill="none" stroke="#bda888" stroke-linecap="round" stroke-linejoin="round" stroke-width="1.393"/>
          </g>
          <path id="Path_6999" data-name="Path 6999" d="M3682.773,652.647" fill="#fff3d9" stroke="#000" stroke-linecap="round" stroke-linejoin="round" stroke-width="1.542"/>
          <g id="Group_1594" data-name="Group 1594">
            <path id="Path_7000" data-name="Path 7000" d="M3705.794,726.708c.263.609.531.938.648,1.244.163.426.37.677.578,1.277.112.324.227.748.438,1.325.151.411.106.924.272,1.384.152.419.264.872.422,1.329.147.425.311.86.459,1.315.14.431.559.789.693,1.244.13.438.233.9.362,1.352s.134.923.261,1.378.346.864.471,1.317.309.88.426,1.334.193.915.3,1.371-.128.98-.03,1.436.525.844.613,1.3-.065.961.007,1.42.33.9.391,1.358-.016.945.031,1.406-.079.943-.049,1.4.231.924.237,1.386-.162.932-.177,1.392.051.937.02,1.395.123.96.059,1.414-.175.93-.273,1.376c-.1.462-.346.882-.479,1.318-.138.454-.152.949-.325,1.372a11.2,11.2,0,0,1-.548,1.307c-.232.408-.795.59-1.088.948-.31.378-.386.937-.692,1.279-.327.365-.71.663-1.033.986-.347.346-.713.654-1.057.952-.373.322-.768.59-1.139.857-.4.287-.77.589-1.163.822-.422.25-.851.461-1.261.657a11.763,11.763,0,0,1-1.306.575,12.409,12.409,0,0,1-1.356.481,12.71,12.71,0,0,1-1.433.078c-.482.044-.962-.069-1.425-.07a12.242,12.242,0,0,0-2.813-.254c-.474-.107-.961-.14-1.4-.279-.467-.149-.921-.3-1.347-.46-.468-.172-.9-.372-1.317-.518a7.651,7.651,0,0,1-1.107-.587,6.844,6.844,0,0,1-1.1-.605,6.366,6.366,0,0,1-.887-.9,6.936,6.936,0,0,1-.541-1.131,8.088,8.088,0,0,1-.556-1.1,11.074,11.074,0,0,1-.445-1.168c-.1-.385-.075-.81-.14-1.234-.06-.4-.065-.808-.1-1.238-.033-.4-.343-.8-.355-1.233-.011-.4.187-.822.2-1.249.008-.405.083-.818.107-1.247.023-.405.029-.821.064-1.248.04-.484.086-.982.132-1.491.045-.491.142-.985.194-1.491s-.068-1.012-.007-1.513.125-.995.193-1.492.377-.961.448-1.453.159-1,.23-1.485c.072-.507.039-1.021.1-1.509.064-.511.253-.993.315-1.473.067-.518-.077-1.043,0-1.512.1-.652.037-1.141.1-1.505.109-.647.3-.955.393-1.45.066-.351.026-.808.15-1.5" fill="#fff3d9"/>
            <path id="Path_7001" data-name="Path 7001" d="M3705.794,726.708c.263.609.531.938.648,1.244.163.426.37.677.578,1.277.112.324.227.748.438,1.325.151.411.106.924.272,1.384.152.419.264.872.422,1.329.147.425.311.86.459,1.315.14.431.559.789.693,1.244.13.438.233.9.362,1.352s.134.923.261,1.378.346.864.471,1.317.309.88.426,1.334.193.915.3,1.371-.128.98-.03,1.436.525.844.613,1.3-.065.961.007,1.42.33.9.391,1.358-.016.945.031,1.406-.079.943-.049,1.4.231.924.237,1.386-.162.932-.177,1.392.051.937.02,1.395.123.96.059,1.414-.175.93-.273,1.376c-.1.462-.346.882-.479,1.318-.138.454-.152.949-.325,1.372a11.2,11.2,0,0,1-.548,1.307c-.232.408-.795.59-1.088.948-.31.378-.386.937-.692,1.279-.327.365-.71.663-1.033.986-.347.346-.713.654-1.057.952-.373.322-.768.59-1.139.857-.4.287-.77.589-1.163.822-.422.25-.851.461-1.261.657a11.763,11.763,0,0,1-1.306.575,12.409,12.409,0,0,1-1.356.481,12.71,12.71,0,0,1-1.433.078c-.482.044-.962-.069-1.425-.07a12.242,12.242,0,0,0-2.813-.254c-.474-.107-.961-.14-1.4-.279-.467-.149-.921-.3-1.347-.46-.468-.172-.9-.372-1.317-.518a7.651,7.651,0,0,1-1.107-.587,6.844,6.844,0,0,1-1.1-.605,6.366,6.366,0,0,1-.887-.9,6.936,6.936,0,0,1-.541-1.131,8.088,8.088,0,0,1-.556-1.1,11.074,11.074,0,0,1-.445-1.168c-.1-.385-.075-.81-.14-1.234-.06-.4-.065-.808-.1-1.238-.033-.4-.343-.8-.355-1.233-.011-.4.187-.822.2-1.249.008-.405.083-.818.107-1.247.023-.405.029-.821.064-1.248.04-.484.086-.982.132-1.491.045-.491.142-.985.194-1.491s-.068-1.012-.007-1.513.125-.995.193-1.492.377-.961.448-1.453.159-1,.23-1.485c.072-.507.039-1.021.1-1.509.064-.511.253-.993.315-1.473.067-.518-.077-1.043,0-1.512.1-.652.037-1.141.1-1.505.109-.647.3-.955.393-1.45.066-.351.026-.808.15-1.5" fill="none" stroke="#bda888" stroke-linecap="round" stroke-linejoin="round" stroke-width="1.393"/>
          </g>
          <g id="Path_7002" data-name="Path 7002" fill="#fff3d9" stroke-linecap="round" stroke-linejoin="round">
            <path d="M 3679.70361328125 677.2481079101562 C 3675.323974609375 677.2481079101562 3670.90185546875 676.8087158203125 3666.56005859375 675.9420776367188 C 3654.78466796875 673.5918579101562 3645.55810546875 667.7343139648438 3639.877685546875 659.002685546875 C 3636.966064453125 654.52685546875 3635.072265625 649.4293823242188 3634.249267578125 643.8518676757812 C 3633.4267578125 638.276611328125 3633.69775390625 632.3768310546875 3635.054443359375 626.3165283203125 C 3636.0625 621.814453125 3637.817138671875 617.554931640625 3640.27001953125 613.65625 C 3642.760009765625 609.6983642578125 3645.906494140625 606.2149047851562 3649.621826171875 603.3026123046875 C 3657.582275390625 597.06298828125 3667.762939453125 593.764892578125 3679.062744140625 593.764892578125 C 3682.484130859375 593.764892578125 3686.037841796875 594.0692749023438 3689.625244140625 594.6695556640625 C 3696.342529296875 595.793701171875 3702.295166015625 597.9352416992188 3707.3173828125 601.0345458984375 C 3712.1298828125 604.0043334960938 3716.0703125 607.8378295898438 3719.02978515625 612.4284057617188 C 3722.324951171875 617.5398559570312 3724.349609375 623.4802856445312 3725.0478515625 630.0846557617188 C 3725.736083984375 636.5958251953125 3725.114501953125 643.54931640625 3723.2001953125 650.7520141601562 C 3721.05810546875 658.8124389648438 3715.6025390625 665.5874633789062 3707.42333984375 670.3447875976562 C 3703.578125 672.5812377929688 3699.2294921875 674.3109741210938 3694.49853515625 675.4859008789062 C 3689.790283203125 676.6552124023438 3684.8125 677.2481079101562 3679.70361328125 677.2481079101562 Z" stroke="none"/>
            <path d="M 3679.70361328125 676.4771118164062 C 3699.95458984375 676.4771118164062 3718.087646484375 666.9879760742188 3722.455078125 650.5540161132812 C 3729.51708984375 623.9810180664062 3718.736083984375 600.322998046875 3689.498046875 595.4299926757812 C 3685.873046875 594.8234252929688 3682.390869140625 594.535888671875 3679.062744140625 594.535888671875 C 3655.5556640625 594.535888671875 3639.747802734375 608.8822631835938 3635.806884765625 626.4849853515625 C 3630.615966796875 649.6699829101562 3641.72998046875 670.2000122070312 3666.7109375 675.1859741210938 C 3671.063720703125 676.0548095703125 3675.429931640625 676.4771118164062 3679.70361328125 676.4771118164062 M 3679.70361328125 678.0191040039062 C 3675.2734375 678.0191040039062 3670.800537109375 677.5746459960938 3666.4091796875 676.6981201171875 C 3654.425537109375 674.3063354492188 3645.027587890625 668.332763671875 3639.2314453125 659.4231567382812 C 3636.2587890625 654.8535766601562 3634.325927734375 649.6525268554688 3633.486572265625 643.96435546875 C 3632.650146484375 638.2952270507812 3632.924560546875 632.3009643554688 3634.30224609375 626.1480712890625 C 3635.329345703125 621.5599975585938 3637.11767578125 617.218994140625 3639.617431640625 613.2456665039062 C 3642.15478515625 609.2125244140625 3645.360595703125 605.6630249023438 3649.146240234375 602.69580078125 C 3657.243896484375 596.3487548828125 3667.588623046875 592.993896484375 3679.062744140625 592.993896484375 C 3682.526611328125 592.993896484375 3686.123046875 593.3018188476562 3689.75244140625 593.9091796875 C 3696.56884765625 595.0498657226562 3702.61474609375 597.2264404296875 3707.722412109375 600.3784790039062 C 3712.63330078125 603.4090576171875 3716.655517578125 607.3226928710938 3719.677734375 612.0106811523438 C 3723.038818359375 617.2244262695312 3725.103515625 623.2781372070312 3725.814453125 630.0036010742188 C 3726.5126953125 636.6087036132812 3725.8837890625 643.6560668945312 3723.9453125 650.9500732421875 C 3721.749755859375 659.2120361328125 3716.17041015625 666.1490478515625 3707.81103515625 671.01123046875 C 3703.902587890625 673.2843627929688 3699.486328125 675.0416259765625 3694.684326171875 676.2341918945312 C 3689.915283203125 677.4185791015625 3684.875 678.0191040039062 3679.70361328125 678.0191040039062 Z" stroke="none" fill="#bda888"/>
          </g>
          <g id="Group_1595" data-name="Group 1595">
            <ellipse id="Ellipse_146" data-name="Ellipse 146" cx="9.667" cy="9.39" rx="9.667" ry="9.39" transform="translate(3647.025 643.61) rotate(-78.712)" fill="#fff" stroke="#cfb894" stroke-miterlimit="10" stroke-width="1.123"/>
            <ellipse id="Ellipse_147" data-name="Ellipse 147" cx="6.352" cy="6.629" rx="6.352" ry="6.629" transform="translate(3650.267 643.658) rotate(-78.712)" fill="#333"/>
          </g>
          <g id="Group_1596" data-name="Group 1596">
            <ellipse id="Ellipse_148" data-name="Ellipse 148" cx="9.667" cy="9.39" rx="9.667" ry="9.39" transform="translate(3684.76 643.835) rotate(-78.712)" fill="#fff" stroke="#cfb894" stroke-miterlimit="10" stroke-width="1.123"/>
            <ellipse id="Ellipse_149" data-name="Ellipse 149" cx="6.352" cy="6.629" rx="6.352" ry="6.629" transform="translate(3687.971 644.222) rotate(-78.712)" fill="#333"/>
          </g>
          <path id="Path_7003" data-name="Path 7003" d="M3659.786,655.869s-.017-.873.089-2.142a21.646,21.646,0,0,1,.828-4.515c.986-3.165,5.721-6.1,8.159-6.494a58.043,58.043,0,0,1,12.133-1.07,9.973,9.973,0,0,1,6.692,2.663s-.951,4.91-2.828,7.219-7.409,5.213-11.758,6.172S3663.841,657.711,3659.786,655.869Z" fill="#00532c"/>
          <g id="Group_1597" data-name="Group 1597">
            <path id="Path_7004" data-name="Path 7004" d="M3661.241,652.826s6.99-2.523,11.613-3.624,10.685-2.809,10.685-2.809" fill="none" stroke="#80bf00" stroke-linecap="round" stroke-linejoin="round" stroke-width="1.031"/>
            <path id="Path_7005" data-name="Path 7005" d="M3683.521,649.367l-3.879-1.809.826-2.415" fill="none" stroke="#80bf00" stroke-linecap="round" stroke-linejoin="round" stroke-width="1.031"/>
            <path id="Path_7006" data-name="Path 7006" d="M3676.262,645.221l-1.808,3.856,5.26,2.319" fill="none" stroke="#80bf00" stroke-linecap="round" stroke-linejoin="round" stroke-width="1.031"/>
            <path id="Path_7007" data-name="Path 7007" d="M3671.337,645.6l-1.876,4.766,4.7,2.944" fill="none" stroke="#80bf00" stroke-linecap="round" stroke-linejoin="round" stroke-width="1.031"/>
            <path id="Path_7008" data-name="Path 7008" d="M3665.483,646.8l-1.846,5.21,5.9,2.4" fill="none" stroke="#80bf00" stroke-linecap="round" stroke-linejoin="round" stroke-width="1.031"/>
          </g>
          <g id="Group_1598" data-name="Group 1598">
            <path id="Path_7009" data-name="Path 7009" d="M3677.053,667.911c-1.024-1.352-1.414-.638-2.667-4.623a14.5,14.5,0,0,1-.235-5.53" fill="none" stroke="#00532c" stroke-linecap="round" stroke-linejoin="round" stroke-width="1.288"/>
          </g>
          <path id="Path_7010" data-name="Path 7010" d="M3689.647,660.34s-1.777,7.315-12.558,8.167-13.425-4.579-13.425-4.579" fill="none" stroke="#d75a24" stroke-linecap="round" stroke-linejoin="round" stroke-width="1.288"/>
          <path id="Path_7011" data-name="Path 7011" d="M3653.059,692.116c6.109,1.41,18.049,5,18.049,12.05s-18.388,3.038-22.617,2.568l.114-1.6.343-2.4s14.295,5.348,17.359,2.284c1.941-1.941.562-5.187-3.2-7.537a19.638,19.638,0,0,0-7.537-2.741Z" fill="#eb5a24" fill-rule="evenodd"/>
          <path id="Path_7012" data-name="Path 7012" d="M3700.7,701.733c-4.51,1.128-5.265.043-10.526-.709s-7.837,3.732-4.454,6.738,19.3,6.967,19.3,6.967l.686-1.942-.114-.913a121.007,121.007,0,0,0-13.02-4c-5.261-1.128-6.6-6.658-1.713-6.282s9.465,5.024,12.848,3.145S3700.7,701.733,3700.7,701.733Z" fill="#eb5a24" fill-rule="evenodd"/>
          <g id="Group_1599" data-name="Group 1599">
            <path id="Path_7013" data-name="Path 7013" d="M3643.225,689.658a1.726,1.726,0,0,1,1.025-.684c.306-.059.737.263,1.141.2.331-.054.682-.124,1.062-.174.345-.045.689-.214,1.062-.25.354-.035.707-.212,1.076-.233s.728-.2,1.093-.206.72.522,1.08.539.717,0,1.072.047a5.5,5.5,0,0,1,1,.065,1.526,1.526,0,0,1,.791.565,1.193,1.193,0,0,1,.114.943c-.067.328.075.8-.089,1.084-.279.473-.428.316-.9.5-.552.215-.343.014.586.9.213.2.494.433.89.742.268.209.586.422.957.687.31.222.356.734.578,1,.237.286.675.459.817.786s.016.766.068,1.127a4.963,4.963,0,0,1,.16,1.083,6.538,6.538,0,0,1,.051,1.145c-.09.343-.585.578-.731.917a8.548,8.548,0,0,1-.626.878c-.183.307-.131.773-.355,1.063a9.52,9.52,0,0,1-.738.809,9.628,9.628,0,0,1-.9.626c-.281.227-.355.776-.663.969-.335.209-.952-.127-1.287.025-.357.161-.586.6-.944.7s-.725.436-1.1.481-.8-.2-1.181-.21-.707-.413-1.088-.472a10.363,10.363,0,0,1-1.1-.162c-.361-.1-.7-.228-1.062-.358s-.749-.123-1.107-.275-.829,0-1.178-.169-.573-.551-.917-.731-.78-.155-1.118-.343c-.3-.168-.527-.52-.849-.726-.3-.19-.723-.227-1.028-.449-.287-.209-.323-.763-.611-1s-.68-.314-.951-.566-.6-.429-.856-.7-.653-.416-.885-.7-.475-.585-.685-.887-.127-.8-.311-1.117-.519-.561-.673-.894-.1-.754-.222-1.1.032-.75-.053-1.11-.374-.652-.421-1.02.119-.72.111-1.092a10.308,10.308,0,0,1-.2-1.087c.028-.356.184-.7.249-1.066.062-.351-.3-.816-.2-1.179.092-.342.4-.649.525-1,.12-.336.7-.488.857-.832.145-.326,0-.792.174-1.126s.434-.6.63-.921.356-.648.57-.956.567-.494.8-.79.422-.6.665-.886.127-.887.382-1.16.632-.435.9-.7.435-.632.708-.886.623-.434.9-.679.818-.19,1.1-.426.25-.886.543-1.114.747-.261,1.045-.482.495-.6.8-.813.911,0,1.216-.2.358-.822.666-1.022.95.093,1.261-.1.409-.778.722-.965c.33-.2.86-.026,1.174-.205.336-.192.348-.934.66-1.1.344-.189.724-.283,1.034-.447.356-.187.643-.455.946-.607.383-.193.931.065,1.216-.071a6.23,6.23,0,0,0,1-.58" fill="#fff3d9"/>
            <path id="Path_7014" data-name="Path 7014" d="M3643.225,689.658a1.726,1.726,0,0,1,1.025-.684c.306-.059.737.263,1.141.2.331-.054.682-.124,1.062-.174.345-.045.689-.214,1.062-.25.354-.035.707-.212,1.076-.233s.728-.2,1.093-.206.72.522,1.08.539.717,0,1.072.047a5.5,5.5,0,0,1,1,.065,1.526,1.526,0,0,1,.791.565,1.193,1.193,0,0,1,.114.943c-.067.328.075.8-.089,1.084-.279.473-.428.316-.9.5-.552.215-.343.014.586.9.213.2.494.433.89.742.268.209.586.422.957.687.31.222.356.734.578,1,.237.286.675.459.817.786s.016.766.068,1.127a4.963,4.963,0,0,1,.16,1.083,6.538,6.538,0,0,1,.051,1.145c-.09.343-.585.578-.731.917a8.548,8.548,0,0,1-.626.878c-.183.307-.131.773-.355,1.063a9.52,9.52,0,0,1-.738.809,9.628,9.628,0,0,1-.9.626c-.281.227-.355.776-.663.969-.335.209-.952-.127-1.287.025-.357.161-.586.6-.944.7s-.725.436-1.1.481-.8-.2-1.181-.21-.707-.413-1.088-.472a10.363,10.363,0,0,1-1.1-.162c-.361-.1-.7-.228-1.062-.358s-.749-.123-1.107-.275-.829,0-1.178-.169-.573-.551-.917-.731-.78-.155-1.118-.343c-.3-.168-.527-.52-.849-.726-.3-.19-.723-.227-1.028-.449-.287-.209-.323-.763-.611-1s-.68-.314-.951-.566-.6-.429-.856-.7-.653-.416-.885-.7-.475-.585-.685-.887-.127-.8-.311-1.117-.519-.561-.673-.894-.1-.754-.222-1.1.032-.75-.053-1.11-.374-.652-.421-1.02.119-.72.111-1.092a10.308,10.308,0,0,1-.2-1.087c.028-.356.184-.7.249-1.066.062-.351-.3-.816-.2-1.179.092-.342.4-.649.525-1,.12-.336.7-.488.857-.832.145-.326,0-.792.174-1.126s.434-.6.63-.921.356-.648.57-.956.567-.494.8-.79.422-.6.665-.886.127-.887.382-1.16.632-.435.9-.7.435-.632.708-.886.623-.434.9-.679.818-.19,1.1-.426.25-.886.543-1.114.747-.261,1.045-.482.495-.6.8-.813.911,0,1.216-.2.358-.822.666-1.022.95.093,1.261-.1.409-.778.722-.965c.33-.2.86-.026,1.174-.205.336-.192.348-.934.66-1.1.344-.189.724-.283,1.034-.447.356-.187.643-.455.946-.607.383-.193.931.065,1.216-.071a6.23,6.23,0,0,0,1-.58" fill="none" stroke="#bda888" stroke-linecap="round" stroke-linejoin="round" stroke-width="1.542"/>
          </g>
          <path id="Path_7015" data-name="Path 7015" d="M3706.165,712.216c2.74.8,5.71,2.855,7.309.914a4.213,4.213,0,0,0-.571-6.281s2.284,1.028,2.055,5.6-1.827,5.253-3.883,5.139a12.107,12.107,0,0,1-6.281-2.284,20.071,20.071,0,0,0-2.741-1.713Z" fill="#eb5a24" fill-rule="evenodd"/>
          <g id="Group_1600" data-name="Group 1600">
            <path id="Path_7016" data-name="Path 7016" d="M3706.408,670.251c.541.155.5-.171,1.173.069.3.1.563.493.962.649.319.126.77.035,1.142.2.326.139.7.257,1.056.423.326.151.494.684.843.858.326.163.729.2,1.071.387.323.172.44.731.773.923s.852.015,1.179.216.6.45.917.66.609.432.92.653.519.551.821.782.828.161,1.121.4.352.744.635,1,.389.669.662.932.866.19,1.127.464.657.43.905.715.38.675.615.971.38.661.6.969.572.528.776.846-.008.881.178,1.21.516.567.684.906.637.538.787.886.3.7.434,1.059-.346.905-.236,1.269.3.68.387,1.05.5.671.56,1.034c.062.379.321.746.35,1.113.029.382-.42.782-.424,1.151s-.217.726-.255,1.094.585.855.512,1.22-.934.542-1.041.9.427.94.288,1.287-.914.407-1.083.742,0,.838-.2,1.159-.629.472-.846.779-.3.7-.536.991-.09.925-.344,1.2-1.047.036-1.315.3-.514.527-.794.778-.582.455-.872.694-.5.564-.8.791-.565.491-.87.709-.648.377-.958.585-.5.605-.817.8-.45.717-.767.909-.99-.175-1.312.012-.339.938-.66,1.119-.864.013-1.184.189c-.341.187-.762.2-1.082.372-.345.187-.692.337-1.008.509-.348.189-.461.761-.767.933-.356.2-.592.519-.879.7a10.384,10.384,0,0,0-.946.533c-.232.2-.77.08-1.132.3-.285.173-.57.387-.923.565-.308.156-.464.692-.816.846-.322.142-.614.439-.967.574-.332.128-.792-.033-1.147.085s-.695.23-1.052.332-.74.063-1.1.148-.671.4-1.033.462-.714.3-1.077.344-.787-.4-1.151-.375-.732.121-1.095.117-.735-.062-1.095-.1a10.758,10.758,0,0,1-1.094-.12c-.364-.075-.581-.58-.924-.7s-.847.174-1.169.005a6.414,6.414,0,0,1-.831-.729c-.287-.221-.808-.217-1.056-.494a6.647,6.647,0,0,1-.771-.862,11.06,11.06,0,0,1-.524-1.077c-.174-.365.2-.932.08-1.284-.126-.383-.715-.634-.78-1-.069-.394.343-.826.338-1.2-.006-.4-.233-.79-.176-1.162.06-.39.61-.627.728-.987a7.737,7.737,0,0,1,.235-1.105c.178-.351-.11-.986.106-1.3a11.046,11.046,0,0,1,1.723-1.658,7.88,7.88,0,0,1,1.046-.557c.365-.239.633-.621.938-.742a1.313,1.313,0,0,1-.949.527c-.325,0-.631-.7-.976-.75a1.725,1.725,0,0,1-.809-.25c-.3-.191-.494-.063-.4-.478a2.081,2.081,0,0,1,.445-.828c.246-.324.3-.77.572-1.007.3-.262.843-.067,1.168-.238.344-.181.432-.963.795-1.059a6.927,6.927,0,0,1,1.177-.214,9.935,9.935,0,0,1,1.178.062c.38.02.792-.038,1.168.012s.687.624,1.057.685c.387.064.852-.44,1.217-.385.4.059.742.063,1.1.084.408.024.8.671,1.146.607.311-.059.6-.46,1-.58.325-.1.754.019,1.122-.113.331-.119.507-.686.861-.829.334-.134.862.171,1.207.019s.66-.336,1-.5.531-.6.858-.765.868.035,1.185-.144.321-.928.625-1.117c.329-.2,1.021.169,1.307-.034.324-.231.388-.771.642-.995a4.837,4.837,0,0,0,.793-.762.793.793,0,0,0,.034-.939" fill="#fff3d9"/>
            <path id="Path_7017" data-name="Path 7017" d="M3706.408,670.251c.541.155.5-.171,1.173.069.3.1.563.493.962.649.319.126.77.035,1.142.2.326.139.7.257,1.056.423.326.151.494.684.843.858.326.163.729.2,1.071.387.323.172.44.731.773.923s.852.015,1.179.216.6.45.917.66.609.432.92.653.519.551.821.782.828.161,1.121.4.352.744.635,1,.389.669.662.932.866.19,1.127.464.657.43.905.715.38.675.615.971.38.661.6.969.572.528.776.846-.008.881.178,1.21.516.567.684.906.637.538.787.886.3.7.434,1.059-.346.905-.236,1.269.3.68.387,1.05.5.671.56,1.034c.062.379.321.746.35,1.113.029.382-.42.782-.424,1.151s-.217.726-.255,1.094.585.855.512,1.22-.934.542-1.041.9.427.94.288,1.287-.914.407-1.083.742,0,.838-.2,1.159-.629.472-.846.779-.3.7-.536.991-.09.925-.344,1.2-1.047.036-1.315.3-.514.527-.794.778-.582.455-.872.694-.5.564-.8.791-.565.491-.87.709-.648.377-.958.585-.5.605-.817.8-.45.717-.767.909-.99-.175-1.312.012-.339.938-.66,1.119-.864.013-1.184.189c-.341.187-.762.2-1.082.372-.345.187-.692.337-1.008.509-.348.189-.461.761-.767.933-.356.2-.592.519-.879.7a10.384,10.384,0,0,0-.946.533c-.232.2-.77.08-1.132.3-.285.173-.57.387-.923.565-.308.156-.464.692-.816.846-.322.142-.614.439-.967.574-.332.128-.792-.033-1.147.085s-.695.23-1.052.332-.74.063-1.1.148-.671.4-1.033.462-.714.3-1.077.344-.787-.4-1.151-.375-.732.121-1.095.117-.735-.062-1.095-.1a10.758,10.758,0,0,1-1.094-.12c-.364-.075-.581-.58-.924-.7s-.847.174-1.169.005a6.414,6.414,0,0,1-.831-.729c-.287-.221-.808-.217-1.056-.494a6.647,6.647,0,0,1-.771-.862,11.06,11.06,0,0,1-.524-1.077c-.174-.365.2-.932.08-1.284-.126-.383-.715-.634-.78-1-.069-.394.343-.826.338-1.2-.006-.4-.233-.79-.176-1.162.06-.39.61-.627.728-.987a7.737,7.737,0,0,1,.235-1.105c.178-.351-.11-.986.106-1.3a11.046,11.046,0,0,1,1.723-1.658,7.88,7.88,0,0,1,1.046-.557c.365-.239.633-.621.938-.742a1.313,1.313,0,0,1-.949.527c-.325,0-.631-.7-.976-.75a1.725,1.725,0,0,1-.809-.25c-.3-.191-.494-.063-.4-.478a2.081,2.081,0,0,1,.445-.828c.246-.324.3-.77.572-1.007.3-.262.843-.067,1.168-.238.344-.181.432-.963.795-1.059a6.927,6.927,0,0,1,1.177-.214,9.935,9.935,0,0,1,1.178.062c.38.02.792-.038,1.168.012s.687.624,1.057.685c.387.064.852-.44,1.217-.385.4.059.742.063,1.1.084.408.024.8.671,1.146.607.311-.059.6-.46,1-.58.325-.1.754.019,1.122-.113.331-.119.507-.686.861-.829.334-.134.862.171,1.207.019s.66-.336,1-.5.531-.6.858-.765.868.035,1.185-.144.321-.928.625-1.117c.329-.2,1.021.169,1.307-.034.324-.231.388-.771.642-.995a4.837,4.837,0,0,0,.793-.762.793.793,0,0,0,.034-.939" fill="none" stroke="#bda888" stroke-linecap="round" stroke-linejoin="round" stroke-width="1.542"/>
          </g>
        </g>
      </g>
      <path id="Path_7018" data-name="Path 7018" d="M3684.954,593.74s4.228-10.551,6.932-11.083a26.583,26.583,0,0,1,13.764,1.742c6.3,2.9,13.728,8.545,13.391,10.717-.853,5.506.491,8.364-1.836,10.109S3684.954,593.74,3684.954,593.74Z" transform="translate(-3478 -1.205)" fill="#00532c"/>
      <path id="Path_7019" data-name="Path 7019" d="M3718.148,606.416a160.327,160.327,0,0,0-14.933-7.256c-12.96-5.641-19.921-8.377-19.234-6.115l2.874-4.274a41,41,0,0,1,15.32,2.553c8.133,2.861,16.949,11.217,16.949,11.217Z" transform="translate(-3478 -1.205)" fill="#fcee21"/>
      <path id="Path_7020" data-name="Path 7020" d="M3677.406,590.207s-4.554,3.964,16.644,14.486c10.336,5.13,19.149,5.075,23.459,6.489,4.144,1.359,5.056.144,5.056.144s-2.974-6.425-7.161-7.719C3692.51,596.529,3683.963,587.046,3677.406,590.207Z" transform="translate(-3478 -1.205)" fill="#00532c"/>
      <path id="Path_7021" data-name="Path 7021" d="M3709.118,603.615s1.13-7.319,6.783-7.83,7.856.9,7.856.9S3720.3,606.908,3709.118,603.615Z" transform="translate(-3478 -1.205)" fill="#80bf00"/>
      <g id="Group_1602" data-name="Group 1602" transform="translate(-3478 -1.205)">
        <circle id="Ellipse_150" data-name="Ellipse 150" cx="9.362" cy="9.362" r="9.362" transform="translate(3728.361 732.551)" fill="#f39a79"/>
        <path id="Path_7022" data-name="Path 7022" d="M3728.361,739.942c-.49,5.147,4.191,9.362,9.362,9.362a9.362,9.362,0,0,0,9.362-9.362c0-3.121-4.027-7.391-9.2-7.391S3728.689,736.493,3728.361,739.942Z" fill="#eb5a24"/>
        <circle id="Ellipse_151" data-name="Ellipse 151" cx="2.299" cy="2.299" r="2.299" transform="translate(3735.259 738.464)" fill="silver"/>
      </g>
      <path id="Path_7023" data-name="Path 7023" d="M3732.66,747.734c-14.618-1.028-32.434-5.938-34.147-22.5-1.006-9.727,3.54-23.184-7.309-25.125l-3.883,1.142s5.824-.571,7.488,7.879c1.11,5.64-1.778,17.931,3.247,26.154,3.944,6.453,15.2,15.728,34.96,14.928Z" transform="translate(-3478 -1.205)" fill="#eb5a24" fill-rule="evenodd"/>
      <path id="Path_7024" data-name="Path 7024" d="M3655,692.459a10.445,10.445,0,0,0-7.424,1.37c-3.426,2.284-8.108,6.51-9.25,12.677s.342,14.276-.8,19.529a52.623,52.623,0,0,1-3.426,10.05l4.682.914s2.97-6.053,2.855-10.964-1.142-13.59.115-17.93,1.142-6.738,5.71-9.936,6.167-3.54,9.593-3.2" transform="translate(-3478 -1.205)" fill="#eb5a24" fill-rule="evenodd"/>
    </g>
  </g>
</svg>
