<svg xmlns="http://www.w3.org/2000/svg" width="597" height="255.487" viewBox="0 0 597 255.487">
  <g id="Group_1054" data-name="Group 1054" transform="translate(-75 -526.868)">
    <rect id="Rectangle_225" data-name="Rectangle 225" width="255.487" height="597" rx="10" transform="translate(672 526.868) rotate(90)" fill="none"/>
    <g id="Group_1053" data-name="Group 1053" transform="translate(158 561.741)">
      <g id="Group_791" data-name="Group 791" transform="translate(224.873 62.902)">
        <path id="Path_5567" data-name="Path 5567" d="M2183.4,640.888a16.408,16.408,0,0,1-2.044,2.408l-1.232-3.444a20.594,20.594,0,0,0,5.1-11.564l2.884.42a23.607,23.607,0,0,1-1.848,6.916v18.983H2183.4Zm3.7,6.44c3.556-2.856,6.328-7.532,7.784-11.368h-6.944v-2.828h7.812V628.4h3.08v4.732h8.12v2.828h-7.308c1.6,3.892,4.368,8.428,7.756,10.948l-1.456,3.248a30.48,30.48,0,0,1-7.112-10.528v7.7h3.864V650.1h-3.864v4.507h-3.08V650.1h-3.78v-2.772h3.78v-7.98a29.584,29.584,0,0,1-7.056,11.032Z" transform="translate(-2179.792 -628.148)" fill="#eb5a24"/>
        <path id="Path_5568" data-name="Path 5568" d="M2225.1,633.076h11.564v2.352H2225.1V636.8h9.436v9.436H2225.1v1.456h9.94v2.295h-9.94v1.373h11.844V653.8h-26.264V651.36h11.676v-1.373h-9.716v-2.295h9.716v-1.456h-9.268V636.8h9.268v-1.372h-11.34v-2.352h11.34V631.76c-3.3.112-5.124.14-9.3.112l-.616-2.408c1.82.028,2.744.028,4,.028a104.956,104.956,0,0,0,17.3-1.232l1.064,2.268a76.864,76.864,0,0,1-9.716,1.092Zm-2.744,5.852h-6.412v1.6h6.412Zm0,3.556h-6.412v1.6h6.412Zm9.324-3.556h-6.58v1.6h6.58Zm0,3.556h-6.58v1.6h6.58Z" transform="translate(-2179.792 -628.148)" fill="#eb5a24"/>
        <path id="Path_5569" data-name="Path 5569" d="M2253.012,633.02V635.6h-12.32V633.02Zm-.84-4.06v2.492h-10.584V628.96Zm0,8.092v2.52h-10.584v-2.52Zm0,4.2v2.464h-10.584v-2.464Zm0,4.228v8.652h-10.584V645.48Zm-2.548,2.38h-5.432v3.724h5.432Zm8.848,6.776V639.1h-5.46v-2.94h5.46v-7.784h2.968v7.784h5.6v2.94h-5.6v15.54Z" transform="translate(-2179.792 -628.148)" fill="#eb5a24"/>
        <path id="Path_5570" data-name="Path 5570" d="M2277.54,630.22a57.172,57.172,0,0,0-1.2,12.768,48.863,48.863,0,0,0,.812,9.912l-3.332.252a56.442,56.442,0,0,1-.7-9.66,70.547,70.547,0,0,1,1.12-13.524Zm7.168,12.068a6.694,6.694,0,0,0-1.372,3.612c0,2.352,2.772,2.6,5.46,2.6a59.052,59.052,0,0,0,6.468-.336v3.248c-1.512.112-3.192.252-5.18.252-4.592,0-9.66-.448-9.66-5.4a9.219,9.219,0,0,1,1.456-4.788Zm10-10.192v3.08h-13.44V632.1Z" transform="translate(-2179.792 -628.148)" fill="#eb5a24"/>
        <path id="Path_5571" data-name="Path 5571" d="M2312.708,632.1c-2.156.14-4.284.2-6.44.2-1.288,0-2.156-.028-3.024-.056l-.5-2.52c3.108.056,12.684.224,21.084-1.568l1.2,2.688a64.3,64.3,0,0,1-9.632,1.12v1.988h10.752v2.324H2323.1v2.716h4.172v2.38H2323.1v2.6h3.052v2.24h-8.036a27.127,27.127,0,0,0,9.52,4.815l-1.484,2.661a24.606,24.606,0,0,1-10.752-6.944v7.867h-2.688v-7.559a25.629,25.629,0,0,1-10.556,6.72l-1.652-2.745a24.717,24.717,0,0,0,9.688-4.815h-8.26v-2.24h3v-2.6h-3.948v-2.38h3.948v-2.716h-3v-2.324h10.78Zm-5.012,4.172v2.716h5.012v-2.716Zm0,5.1v2.6h5.012v-2.6Zm7.7-5.1v2.716h4.984v-2.716Zm0,5.1v2.6h4.984v-2.6Z" transform="translate(-2179.792 -628.148)" fill="#eb5a24"/>
        <path id="Path_5572" data-name="Path 5572" d="M2340.12,649.736c2.94,0,10.752-.14,10.752-6.244,0-2.856-2.044-4.452-4.844-4.452-3,0-9.352,1.54-11.312,2.016l-.5-3.08c1.12-.168,5.992-1.036,6.972-1.176a33.025,33.025,0,0,1,4.984-.5c5.208,0,7.756,3.388,7.756,7.224a8.154,8.154,0,0,1-6.1,7.98,28.607,28.607,0,0,1-6.888.952Z" transform="translate(-2179.792 -628.148)" fill="#eb5a24"/>
        <path id="Path_5573" data-name="Path 5573" d="M2385.872,634.028c-1.064-.056-1.932-.112-2.688-.112a9.164,9.164,0,0,0-2.968.336c-3.976,1.232-9.184,5.544-9.184,10.108,0,3.5,2.772,4.424,5.488,4.928a35.357,35.357,0,0,0,6.944.42l-.56,3.36c-5.656-.168-15.12-.477-15.12-8.512,0-5.376,5.04-8.932,7.5-10.444-2.968.2-10.136.7-12.74,1.008l-.224-3.388c1.792,0,9.716-.476,11.312-.56,4.284-.2,7.5-.252,12.18-.336Z" transform="translate(-2179.792 -628.148)" fill="#eb5a24"/>
        <path id="Path_5574" data-name="Path 5574" d="M2186.372,686.724a47.952,47.952,0,0,1-4.228,9.716L2179.792,694a35.845,35.845,0,0,0,4.144-8.708Zm-4.816-8.568a25.869,25.869,0,0,1,4.4,2.66l-1.764,2.408a30.941,30.941,0,0,0-4.144-2.828Zm.98-7.588a23.835,23.835,0,0,1,4.312,2.576L2185,675.692a23.831,23.831,0,0,0-4.144-2.828Zm8.12,20.748a17.758,17.758,0,0,1-4.088,5.4l-2.156-1.848a13.373,13.373,0,0,0,3.836-4.62Zm-3.444-20.048h9.408V690.2h-9.408Zm2.632,2.632v2.828h4.144V673.9Zm0,5.32v2.912h4.144V679.22Zm0,5.46v2.884h4.144V684.68Zm4.984,5.712a25.523,25.523,0,0,1,3.332,4.7l-2.52,1.344a20.629,20.629,0,0,0-2.772-4.816Zm3.584-18.424h2.772v18.9h-2.772Zm4.648-1.652h2.8V694.7c0,.84-.56,1.876-2.492,1.876h-3.444l-.5-2.828h3.164a.463.463,0,0,0,.476-.448Z" transform="translate(-2179.792 -628.148)" fill="#eb5a24"/>
        <path id="Path_5575" data-name="Path 5575" d="M2230.164,674.824c-2.156,1.6-6.132,4.9-7.784,6.272a12.463,12.463,0,0,1,4.7-.924c4.984,0,7.616,3.108,7.616,6.776a7.158,7.158,0,0,1-3.192,6.075c-2.072,1.344-4.592,2.045-8.708,2.045a33.743,33.743,0,0,1-4.116-.253l-.756-3.163a30.545,30.545,0,0,0,5.152.448c6.664,0,8.372-2.912,8.372-5.124,0-3.556-3.556-4.06-5.544-4.06-5.236,0-8.764,2.912-12.1,5.936l-1.876-2.52c6.02-4.76,10.248-8.456,13.44-11.228-4.424.476-8.456.56-10.332.588V672.64c7.056-.056,11.088-.252,15.12-.588Z" transform="translate(-2179.792 -628.148)" fill="#eb5a24"/>
        <path id="Path_5576" data-name="Path 5576" d="M2246.964,692.6c5.432-.084,12.992-.476,12.992-7.14,0-4.256-3-4.34-4.564-4.34-2.576,0-9.716,1.288-10.78,1.456l-.448-3.36c1.4-.112,2.324-.2,4.844-.476a57.2,57.2,0,0,1,6.356-.532c2.6,0,7.952.028,7.952,7.084,0,9.716-10.108,10.136-15.428,10.332Zm13.44-16.576a46.955,46.955,0,0,0-13.132-1.932l.42-2.884a56.677,56.677,0,0,1,13.468,1.764Z" transform="translate(-2179.792 -628.148)" fill="#eb5a24"/>
        <path id="Path_5577" data-name="Path 5577" d="M2285.772,671.912l-.42,15.96h-2.744l-.42-15.96Zm-3.584,18.62h3.556v3.584h-3.556Z" transform="translate(-2179.792 -628.148)" fill="#eb5a24"/>
      </g>
      <g id="Group_814" data-name="Group 814" transform="translate(0 0)">
        <g id="Group_812" data-name="Group 812" transform="translate(24.411)">
          <path id="Path_5615" data-name="Path 5615" d="M1983.6,684.719s-1.911-2.057-.141-5.6a17.617,17.617,0,0,1,5.31-5.9v-4.13l4.13-.59.59,4.13s5.784.231,6.137,8.081S1983.6,684.719,1983.6,684.719Z" transform="translate(-1979.33 -565.246)" fill="#fff"/>
          <g id="Group_811" data-name="Group 811" transform="translate(26.39 10.791)">
            <g id="Group_800" data-name="Group 800" transform="translate(25.989 132.361)">
              <path id="Path_5616" data-name="Path 5616" d="M2031.812,724.191l.306-2.34a3.138,3.138,0,0,1,2.722-2.62c11.231-1.332,46.893-6.671,54.748-6.041a2.894,2.894,0,0,1,.924.232c2.6,1.114,16.514,7.165,23.886,12.322a3.015,3.015,0,0,1,1.3,2.485l-.013,2.316a2.989,2.989,0,0,1-.517,1.668c-2.471,3.627-14.064,12.5-16.915,14.225-2.93,1.776-32.132,4.71-37.705,4a3,3,0,0,1-1.563-.693l-26.668-23.406C2031.54,725.682,2031.681,725.2,2031.812,724.191Z" transform="translate(-2031.709 -708.398)" fill="#b0b0b0"/>
              <path id="Path_5617" data-name="Path 5617" d="M2033.646,719.333c10.6-1.985,47.428-11.743,56.184-10.881a1.2,1.2,0,0,1,.528.187c2.256,1.429,19.467,12.384,24.595,17.291a1.237,1.237,0,0,1,.144,1.617c-2.612,3.647-15.254,12.86-18.069,14.566-3.037,1.841-33.03,3.346-36.89,2.913a1.233,1.233,0,0,1-.667-.291l-26.4-23.23A1.245,1.245,0,0,1,2033.646,719.333Z" transform="translate(-2031.709 -708.398)" fill="#fff"/>
              <g id="Group_799" data-name="Group 799" transform="translate(46.394 22.37)">
                <path id="Path_5618" data-name="Path 5618" d="M2099.96,735.247l.986-.357-4.222-4.121-18.621,5.9.845.854,17.624-5.583Z" transform="translate(-2078.103 -730.768)" fill="gray"/>
                <path id="Path_5619" data-name="Path 5619" d="M2099.96,735.247l-3.389-3.308-17.624,5.583,3.886,3.929Z" transform="translate(-2078.103 -730.768)" fill="#666"/>
              </g>
            </g>
            <g id="Group_802" data-name="Group 802" transform="translate(76.75 45.704)">
              <g id="Group_801" data-name="Group 801">
                <path id="Path_5620" data-name="Path 5620" d="M2082.47,653.334a1.881,1.881,0,0,1,1.02-.715c.312-.085.765.124,1.177.012.337-.092.629-.466,1.018-.572.349-.1.844.273,1.223.17.355-.1.609-.6.98-.708s.84.212,1.205.107.725-.223,1.088-.328.678-.4,1.037-.5.674-.426,1.028-.527c.377-.108.834.108,1.18.007.388-.112.7-.4,1.034-.5.406-.125.75-.288,1.051-.4.377-.136.734-.364,1.137-.521.379-.147.841-.123,1.236-.29.379-.16.718-.433,1.1-.611s.75-.355,1.13-.54.752-.362,1.127-.551.7-.475,1.069-.666.882-.126,1.251-.317.691-.5,1.055-.693.8-.306,1.154-.505c.377-.211.716-.466,1.063-.67.379-.222.685-.526,1.023-.732.384-.234.852-.272,1.176-.473.357-.222.7-.545,1.08-.827.348-.258.639-.622,1-.92.338-.283.531-.737.865-1.049s.753-.5,1.064-.831.725-.562,1.018-.9.639-.654.919-.993c.3-.359.644-.674.9-1.022.281-.385.38-.875.6-1.232a7.51,7.51,0,0,0,.5-1.245c.128-.311.559-.525.7-.875.133-.32.062-.741.2-1.081s.441-.595.578-.931-.023-.79.111-1.121.406-.621.533-.946c.135-.348.493-.6.609-.92.134-.365-.229-.872-.13-1.179a7.737,7.737,0,0,0,.273-.993c.075-.429.556-.752.777-1.1a2.619,2.619,0,0,1,.928-.784,1.015,1.015,0,0,1,1.021-.125c.442.143.842.124.979.4.172.351.052.453.581.261.451-.163.664-.163.8-.378.175-.271.18-.6.379-.932.135-.227.608-.2.973-.447a4.308,4.308,0,0,1,1.239-.762,5.476,5.476,0,0,1,1.465-.14c.38,0,.74.156,1.107.173s.761-.179,1.127-.137.72.209,1.08.28a10.762,10.762,0,0,1,1.057.308c.362.111.81-.04,1.144.114a6.827,6.827,0,0,1,.952.6,73.729,73.729,0,0,1,1.57,1.586,7.428,7.428,0,0,1,.742.946c.168.344-.066.862.062,1.244.123.365.506.658.59,1.049s-.117.813-.06,1.207.271.755.3,1.149.123.791.111,1.182-.325.763-.375,1.148c-.053.4.1.818.013,1.192-.09.4-.138.8-.254,1.157a8.4,8.4,0,0,1-.665,1.14c-.194.358-.476.686-.74,1.074-.235.345-.154.954-.439,1.317-.26.332-.661.581-.953.927-.277.327-.684.559-.988.892s-.4.831-.712,1.15-.739.5-1.068.8-.623.623-.957.913-.68.558-1.011.848-.856.362-1.186.651-.52.746-.855,1.025-.757.464-1.1.726c-.281.214-.429.627-.732.855-.285.214-.636.358-.937.582s-.651.346-.952.568-.4.7-.695.918-.737.234-1.039.448-.59.437-.892.648-.671.329-.973.539-.565.475-.861.686-.676.325-.972.535-.5.574-.8.782-.661.352-.955.557c-.311.215-.584.465-.878.663-.319.216-.644.4-.936.591-.325.217-.653.386-.938.571-.343.222-.495.679-.77.846-.408.247-.9.124-1.126.219-.261.109-.629.236-1.049.419-.313.137-.505.649-.88.812-.33.144-.72.206-1.081.362-.339.147-.815.008-1.165.163s-.709.273-1.052.427-.635.454-.972.6c-.362.159-.588.588-.914.734-.379.168-.9-.069-1.211.07a3.4,3.4,0,0,1-2.1.893c-.309.146-.547.551-.924.731-.328.157-.577.531-.934.7-.339.165-.66.381-1.005.553s-.841.07-1.18.243c-.361.183-.808.171-1.133.339-.383.2-.563.709-.861.864-.621.324-1.2.625-1.2.625-.58-.415-.747-.852-1.029-.951a2.03,2.03,0,0,0-1.433-.1c-.339.092-.636.743-1.209.879" transform="translate(-2082.47 -621.741)" fill="#fff3d9"/>
                <path id="Path_5621" data-name="Path 5621" d="M2082.47,653.334a1.881,1.881,0,0,1,1.02-.715c.312-.085.765.124,1.177.012.337-.092.629-.466,1.018-.572.349-.1.844.273,1.223.17.355-.1.609-.6.98-.708s.84.212,1.205.107.725-.223,1.088-.328.678-.4,1.037-.5.674-.426,1.028-.527c.377-.108.834.108,1.18.007.388-.112.7-.4,1.034-.5.406-.125.75-.288,1.051-.4.377-.136.734-.364,1.137-.521.379-.147.841-.123,1.236-.29.379-.16.718-.433,1.1-.611s.75-.355,1.13-.54.752-.362,1.127-.551.7-.475,1.069-.666.882-.126,1.251-.317.691-.5,1.055-.693.8-.306,1.154-.505c.377-.211.716-.466,1.063-.67.379-.222.685-.526,1.023-.732.384-.234.852-.272,1.176-.473.357-.222.7-.545,1.08-.827.348-.258.639-.622,1-.92.338-.283.531-.737.865-1.049s.753-.5,1.064-.831.725-.562,1.018-.9.639-.654.919-.993c.3-.359.644-.674.9-1.022.281-.385.38-.875.6-1.232a7.51,7.51,0,0,0,.5-1.245c.128-.311.559-.525.7-.875.133-.32.062-.741.2-1.081s.441-.595.578-.931-.023-.79.111-1.121.406-.621.533-.946c.135-.348.493-.6.609-.92.134-.365-.229-.872-.13-1.179a7.737,7.737,0,0,0,.273-.993c.075-.429.556-.752.777-1.1a2.619,2.619,0,0,1,.928-.784,1.015,1.015,0,0,1,1.021-.125c.442.143.842.124.979.4.172.351.052.453.581.261.451-.163.664-.163.8-.378.175-.271.18-.6.379-.932.135-.227.608-.2.973-.447a4.308,4.308,0,0,1,1.239-.762,5.476,5.476,0,0,1,1.465-.14c.38,0,.74.156,1.107.173s.761-.179,1.127-.137.72.209,1.08.28a10.762,10.762,0,0,1,1.057.308c.362.111.81-.04,1.144.114a6.827,6.827,0,0,1,.952.6,73.729,73.729,0,0,1,1.57,1.586,7.428,7.428,0,0,1,.742.946c.168.344-.066.862.062,1.244.123.365.506.658.59,1.049s-.117.813-.06,1.207.271.755.3,1.149.123.791.111,1.182-.325.763-.375,1.148c-.053.4.1.818.013,1.192-.09.4-.138.8-.254,1.157a8.4,8.4,0,0,1-.665,1.14c-.194.358-.476.686-.74,1.074-.235.345-.154.954-.439,1.317-.26.332-.661.581-.953.927-.277.327-.684.559-.988.892s-.4.831-.712,1.15-.739.5-1.068.8-.623.623-.957.913-.68.558-1.011.848-.856.362-1.186.651-.52.746-.855,1.025-.757.464-1.1.726c-.281.214-.429.627-.732.855-.285.214-.636.358-.937.582s-.651.346-.952.568-.4.7-.695.918-.737.234-1.039.448-.59.437-.892.648-.671.329-.973.539-.565.475-.861.686-.676.325-.972.535-.5.574-.8.782-.661.352-.955.557c-.311.215-.584.465-.878.663-.319.216-.644.4-.936.591-.325.217-.653.386-.938.571-.343.222-.495.679-.77.846-.408.247-.9.124-1.126.219-.261.109-.629.236-1.049.419-.313.137-.505.649-.88.812-.33.144-.72.206-1.081.362-.339.147-.815.008-1.165.163s-.709.273-1.052.427-.635.454-.972.6c-.362.159-.588.588-.914.734-.379.168-.9-.069-1.211.07a3.4,3.4,0,0,1-2.1.893c-.309.146-.547.551-.924.731-.328.157-.577.531-.934.7-.339.165-.66.381-1.005.553s-.841.07-1.18.243c-.361.183-.808.171-1.133.339-.383.2-.563.709-.861.864-.621.324-1.2.625-1.2.625-.58-.415-.747-.852-1.029-.951a2.03,2.03,0,0,0-1.433-.1c-.339.092-.636.743-1.209.879" transform="translate(-2082.47 -621.741)" fill="none" stroke="#c0a683" stroke-linecap="round" stroke-linejoin="round" stroke-width="1.308"/>
              </g>
            </g>
            <g id="Path_5622" data-name="Path 5622" transform="translate(-2005.72 -576.037)" fill="#fff3d9" stroke-linecap="round" stroke-linejoin="round">
              <path d="M 2073.258056640625 710.5123901367188 C 2070.48486328125 710.5123901367188 2063.118408203125 710.5123291015625 2056.310546875 708.1572875976562 C 2052.47509765625 706.8305053710938 2049.3779296875 704.9461059570312 2047.105102539062 702.5565185546875 C 2044.342041015625 699.6514892578125 2042.767944335938 695.972412109375 2042.426635742188 691.6215209960938 C 2042.0947265625 687.3920288085938 2042.1103515625 683.2738647460938 2042.47314453125 679.381591796875 C 2042.763916015625 676.2623291015625 2043.277099609375 673.2794799804688 2043.99853515625 670.5159912109375 C 2045.234252929688 665.7825317382812 2046.641967773438 663.3486328125 2046.701293945312 663.247314453125 L 2046.87646484375 662.9483032226562 L 2047.222412109375 662.9287109375 C 2049.0234375 662.826416015625 2050.363525390625 662.1468505859375 2051.319580078125 660.8511962890625 C 2054.380126953125 656.7032470703125 2052.239501953125 647.8661499023438 2052.217529296875 647.77734375 L 2052.0322265625 647.0289916992188 L 2052.801513671875 646.9771728515625 C 2052.91162109375 646.9697265625 2063.916259765625 646.2354125976562 2073.350341796875 646.2354125976562 C 2076.838134765625 646.2354125976562 2079.716064453125 646.33544921875 2081.904052734375 646.5327758789062 C 2084.659912109375 646.7813110351562 2086.308837890625 647.169677734375 2087.093505859375 647.7549438476562 C 2089.5615234375 649.5960693359375 2092.83984375 656.6522827148438 2094.134765625 659.6005859375 C 2096.635498046875 665.2943115234375 2098.628662109375 671.1555786132812 2099.212890625 674.5328369140625 C 2099.62255859375 676.9014892578125 2100.57080078125 683.091796875 2100.526611328125 689.4005126953125 C 2100.478515625 696.2433471679688 2099.284423828125 701.0118408203125 2096.977294921875 703.5735473632812 C 2094.677978515625 706.1260375976562 2090.741943359375 708.0311889648438 2085.278076171875 709.2361450195312 C 2079.90869140625 710.4203491210938 2074.84423828125 710.5123901367188 2073.419921875 710.5123901367188 L 2073.341796875 710.5123901367188 L 2073.258056640625 710.5123901367188 Z" stroke="none"/>
              <path d="M 2073.350341796875 646.8817138671875 C 2063.828857421875 646.881591796875 2052.844970703125 647.6220092773438 2052.844970703125 647.6220092773438 C 2052.844970703125 647.6220092773438 2056.662109375 663.0399780273438 2047.259033203125 663.573974609375 C 2047.259033203125 663.573974609375 2041.6279296875 673.1890258789062 2043.071044921875 691.5709838867188 C 2044.499267578125 709.7789306640625 2067.44970703125 709.8660278320312 2073.258056640625 709.8660278320312 C 2073.313720703125 709.8660278320312 2073.3671875 709.8660278320312 2073.419921875 709.8660278320312 C 2078.948974609375 709.8660278320312 2091.448974609375 708.7449951171875 2096.4970703125 703.1409912109375 C 2101.544921875 697.5360107421875 2099.778076171875 681.5919799804688 2098.575927734375 674.6430053710938 C 2097.3740234375 667.6929931640625 2090.31298828125 650.9630126953125 2086.70703125 648.2730102539062 C 2085.27392578125 647.2039794921875 2079.62939453125 646.8818359375 2073.350341796875 646.8817138671875 M 2073.347412109375 645.5890502929688 L 2073.347412109375 646.8817138671875 L 2073.348388671875 645.5890502929688 C 2083.916259765625 645.5892333984375 2086.45166015625 646.4697875976562 2087.47998046875 647.2368774414062 C 2088.4921875 647.9920043945312 2089.654296875 649.5186157226562 2091.032958984375 651.9039916992188 C 2092.197509765625 653.9190063476562 2093.474609375 656.4905395507812 2094.7265625 659.3406982421875 C 2097.24658203125 665.0782470703125 2099.25732421875 670.998291015625 2099.849609375 674.4227294921875 C 2100.26220703125 676.8084106445312 2101.217529296875 683.0441284179688 2101.1728515625 689.4050903320312 C 2101.12353515625 696.4108276367188 2099.87353515625 701.3233032226562 2097.45751953125 704.0060424804688 C 2095.066162109375 706.6607666015625 2091.015380859375 708.6327514648438 2085.417236328125 709.8673095703125 C 2079.984130859375 711.0655517578125 2074.86083984375 711.15869140625 2073.419921875 711.15869140625 L 2073.341552734375 711.15869140625 L 2073.258056640625 711.15869140625 C 2070.455078125 711.15869140625 2063.009765625 711.15869140625 2056.099365234375 708.7681274414062 C 2052.165283203125 707.4071655273438 2048.981689453125 705.4671630859375 2046.63671875 703.001953125 C 2043.768798828125 699.9866333007812 2042.135498046875 696.1747436523438 2041.7822265625 691.6720581054688 C 2041.447509765625 687.4058837890625 2041.46337890625 683.2505493164062 2041.82958984375 679.3215942382812 C 2042.12353515625 676.1675415039062 2042.642822265625 673.1500244140625 2043.373046875 670.3527221679688 C 2044.631103515625 665.5338745117188 2046.08251953125 663.025146484375 2046.1435546875 662.9207153320312 C 2046.3623046875 662.5471801757812 2046.753662109375 662.3079223632812 2047.185791015625 662.2833862304688 C 2048.78271484375 662.1926879882812 2049.96484375 661.5986938476562 2050.799560546875 660.4674682617188 C 2051.958251953125 658.8969116210938 2052.470458984375 656.2576904296875 2052.2802734375 652.8350830078125 C 2052.130615234375 650.1392211914062 2051.595458984375 647.9544067382812 2051.590087890625 647.9326782226562 C 2051.498291015625 647.5615844726562 2051.575439453125 647.1688232421875 2051.80078125 646.8600463867188 C 2052.026123046875 646.5512084960938 2052.376708984375 646.3579711914062 2052.758056640625 646.332275390625 C 2052.8681640625 646.3248291015625 2063.892822265625 645.5890502929688 2073.347412109375 645.5890502929688 Z" stroke="none" fill="#c0a683"/>
            </g>
            <g id="Group_804" data-name="Group 804" transform="translate(0 49.44)">
              <g id="Group_803" data-name="Group 803">
                <path id="Path_5623" data-name="Path 5623" d="M2066.486,649.059c-.6.1-.982.191-1.3.237-.449.065-.751.065-1.31.136-.324.041-.674.558-1.25.635-.417.056-.857.069-1.307.138-.426.065-.925-.284-1.371-.222s-.866.1-1.308.142-.872.166-1.311.208-.877.145-1.309.18c-.45.035-.887.088-1.314.11-.461.022-.9.379-1.323.374-.474-.006-.91-.338-1.313-.372-.5-.042-.968.04-1.328-.032-.428-.085-.817-.18-1.177-.255-.435-.09-.78-.368-1.134-.451-.435-.1-.767-.343-1.114-.445a11.682,11.682,0,0,1-1.148-.278c-.365-.154-.846-.032-1.219-.216-.33-.162-.642-.415-1.036-.611-.324-.162-.748-.189-1.149-.38-.33-.158-.539-.651-.94-.833-.358-.163-.9-.1-1.316-.349-.351-.217-.449-.871-.831-1.136-.348-.242-.743-.44-1.111-.708-.347-.253-.933-.2-1.291-.475s-.571-.7-.919-.977-.591-.663-.925-.951-.591-.653-.91-.952-1-.24-1.309-.545-.446-.82-.746-1.121c-.326-.327-.662-.62-.954-.921-.332-.343-.7-.612-.964-.915a8.458,8.458,0,0,1-.839-1.042c-.189-.315-.22-.758-.434-1.113-.2-.325-.346-.7-.554-1.041s-.3-.736-.5-1.076-.827-.429-1.025-.766-.085-.873-.275-1.206c-.2-.356-.351-.722-.528-1.05-.2-.375-.525-.651-.68-.969a5.224,5.224,0,0,1-.212-1.157c-.15-.447-.739-.693-1.023-1.033-.315-.377-.494-.983-.878-1.157a1.851,1.851,0,0,0-1.476.108c-.455.227-.353.75-.46,1.081a.8.8,0,0,1-1.025.591,1.991,1.991,0,0,1-1.083-.419c-.23-.269-.275-.648-.542-.982a2.16,2.16,0,0,0-.781-.8,5.25,5.25,0,0,0-1.574-.549,6.577,6.577,0,0,0-1.656.145c-.412.059-.8.224-1.2.3s-.823.1-1.214.2-.7.5-1.081.625-.949-.165-1.311.009a8.751,8.751,0,0,0-1,.748,7.259,7.259,0,0,0-.963.768c-.293.277-.323.766-.57,1.1-.235.32-.916.383-1.106.762s.062.942-.059,1.368a9.979,9.979,0,0,0-.247,1.243c-.063.416-.243.821-.27,1.257s-.262.854-.26,1.288-.019.879.017,1.308.582.791.658,1.212-.39.982-.28,1.392c.114.426.726.691.87,1.083.155.42.179.866.363,1.234a6.186,6.186,0,0,0,.579,1.356c.277.347.8.538,1.157.907.317.329.59.74.956,1.086.335.316.561.785.928,1.116.349.314.712.645,1.09.961s.754.6,1.146.9.833.488,1.229.769.9.393,1.3.664.85.452,1.256.712.788.55,1.2.8.919.329,1.335.563.814.52,1.23.748.766.634,1.246.889c.426.225.951.318,1.42.564.434.228.93.379,1.392.623.438.231.857.535,1.309.786.437.244.636.933,1.086,1.182s.962.361,1.416.6.86.551,1.313.781,1.056.167,1.506.394.905.473,1.352.7c.462.234.871.556,1.317.777.467.232.927.45,1.367.665.475.232.94.437,1.375.646.488.234.92.516,1.349.706.52.231,1.1.157,1.51.319.652.259,1,.909,1.28.98.375.093.89-.07,1.358.112.394.152.763.446,1.193.631.405.174.856.276,1.268.455s.944.11,1.341.286c.435.193.731.646,1.108.807a11.362,11.362,0,0,0,1.282.374" transform="translate(-2005.72 -625.477)" fill="#fff3d9"/>
                <path id="Path_5624" data-name="Path 5624" d="M2066.486,649.059c-.6.1-.982.191-1.3.237-.449.065-.751.065-1.31.136-.324.041-.674.558-1.25.635-.417.056-.857.069-1.307.138-.426.065-.925-.284-1.371-.222s-.866.1-1.308.142-.872.166-1.311.208-.877.145-1.309.18c-.45.035-.887.088-1.314.11-.461.022-.9.379-1.323.374-.474-.006-.91-.338-1.313-.372-.5-.042-.968.04-1.328-.032-.428-.085-.817-.18-1.177-.255-.435-.09-.78-.368-1.134-.451-.435-.1-.767-.343-1.114-.445a11.682,11.682,0,0,1-1.148-.278c-.365-.154-.846-.032-1.219-.216-.33-.162-.642-.415-1.036-.611-.324-.162-.748-.189-1.149-.38-.33-.158-.539-.651-.94-.833-.358-.163-.9-.1-1.316-.349-.351-.217-.449-.871-.831-1.136-.348-.242-.743-.44-1.111-.708-.347-.253-.933-.2-1.291-.475s-.571-.7-.919-.977-.591-.663-.925-.951-.591-.653-.91-.952-1-.24-1.309-.545-.446-.82-.746-1.121c-.326-.327-.662-.62-.954-.921-.332-.343-.7-.612-.964-.915a8.458,8.458,0,0,1-.839-1.042c-.189-.315-.22-.758-.434-1.113-.2-.325-.346-.7-.554-1.041s-.3-.736-.5-1.076-.827-.429-1.025-.766-.085-.873-.275-1.206c-.2-.356-.351-.722-.528-1.05-.2-.375-.525-.651-.68-.969a5.224,5.224,0,0,1-.212-1.157c-.15-.447-.739-.693-1.023-1.033-.315-.377-.494-.983-.878-1.157a1.851,1.851,0,0,0-1.476.108c-.455.227-.353.75-.46,1.081a.8.8,0,0,1-1.025.591,1.991,1.991,0,0,1-1.083-.419c-.23-.269-.275-.648-.542-.982a2.16,2.16,0,0,0-.781-.8,5.25,5.25,0,0,0-1.574-.549,6.577,6.577,0,0,0-1.656.145c-.412.059-.8.224-1.2.3s-.823.1-1.214.2-.7.5-1.081.625-.949-.165-1.311.009a8.751,8.751,0,0,0-1,.748,7.259,7.259,0,0,0-.963.768c-.293.277-.323.766-.57,1.1-.235.32-.916.383-1.106.762s.062.942-.059,1.368a9.979,9.979,0,0,0-.247,1.243c-.063.416-.243.821-.27,1.257s-.262.854-.26,1.288-.019.879.017,1.308.582.791.658,1.212-.39.982-.28,1.392c.114.426.726.691.87,1.083.155.42.179.866.363,1.234a6.186,6.186,0,0,0,.579,1.356c.277.347.8.538,1.157.907.317.329.59.74.956,1.086.335.316.561.785.928,1.116.349.314.712.645,1.09.961s.754.6,1.146.9.833.488,1.229.769.9.393,1.3.664.85.452,1.256.712.788.55,1.2.8.919.329,1.335.563.814.52,1.23.748.766.634,1.246.889c.426.225.951.318,1.42.564.434.228.93.379,1.392.623.438.231.857.535,1.309.786.437.244.636.933,1.086,1.182s.962.361,1.416.6.86.551,1.313.781,1.056.167,1.506.394.905.473,1.352.7c.462.234.871.556,1.317.777.467.232.927.45,1.367.665.475.232.94.437,1.375.646.488.234.92.516,1.349.706.52.231,1.1.157,1.51.319.652.259,1,.909,1.28.98.375.093.89-.07,1.358.112.394.152.763.446,1.193.631.405.174.856.276,1.268.455s.944.11,1.341.286c.435.193.731.646,1.108.807a11.362,11.362,0,0,0,1.282.374" transform="translate(-2005.72 -625.477)" fill="none" stroke="#c0a683" stroke-linecap="round" stroke-linejoin="round" stroke-width="1.431"/>
              </g>
            </g>
            <g id="Path_5625" data-name="Path 5625" transform="translate(-2005.72 -576.037)" fill="#fff3d9" stroke-linecap="round" stroke-linejoin="round">
              <path d="M 2071.66064453125 652.881103515625 C 2071.66015625 652.881103515625 2071.659912109375 652.881103515625 2071.65966796875 652.881103515625 C 2067.268798828125 652.8810424804688 2062.998046875 652.3948974609375 2058.966064453125 651.4361572265625 C 2054.896728515625 650.4685668945312 2051.13916015625 649.03564453125 2047.798095703125 647.1771240234375 C 2040.713134765625 643.2362060546875 2035.765869140625 637.517578125 2033.490844726562 630.6396484375 C 2031.319458007812 624.0743408203125 2030.359008789062 617.6683349609375 2030.63623046875 611.599609375 C 2030.917358398438 605.4439086914062 2032.464111328125 599.8297729492188 2035.233276367188 594.9132690429688 C 2037.720336914062 590.4977416992188 2041.158203125 586.7293090820312 2045.451171875 583.7125244140625 C 2049.931640625 580.5640869140625 2055.326416015625 578.25146484375 2061.486083984375 576.8387451171875 C 2065.875 575.8320922851562 2070.20947265625 575.3216552734375 2074.369140625 575.3216552734375 C 2084.08056640625 575.3216552734375 2092.96240234375 578.1039428710938 2100.054443359375 583.3677368164062 C 2103.38671875 585.8409423828125 2106.26318359375 588.8123779296875 2108.60400390625 592.199462890625 C 2110.913818359375 595.5419921875 2112.655029296875 599.219970703125 2113.779541015625 603.13134765625 C 2115.371337890625 608.6693725585938 2115.94873046875 614.1187133789062 2115.4951171875 619.3280029296875 C 2115.04150390625 624.53955078125 2113.569580078125 629.3656005859375 2111.1201171875 633.6722412109375 C 2106.342041015625 642.0733642578125 2098.12060546875 648.0088500976562 2087.3447265625 650.8369750976562 C 2082.176513671875 652.193359375 2076.899658203125 652.881103515625 2071.66064453125 652.881103515625 Z" stroke="none"/>
              <path d="M 2071.65966796875 652.165771484375 C 2076.74267578125 652.1658325195312 2081.985107421875 651.5040283203125 2087.1630859375 650.14501953125 C 2110.02490234375 644.14501953125 2119.181884765625 624.5150146484375 2113.092041015625 603.3289794921875 C 2108.69091796875 588.0201416015625 2094.496826171875 576.0369873046875 2074.369140625 576.0369873046875 C 2070.353515625 576.0369873046875 2066.103515625 576.5136108398438 2061.64599609375 577.5360107421875 C 2034.8349609375 583.6849975585938 2026.159057617188 606.1939697265625 2034.170043945312 630.4149780273438 C 2038.81103515625 644.4462280273438 2054.30126953125 652.1654663085938 2071.65966796875 652.165771484375 M 2071.66064453125 653.5964965820312 L 2071.66064453125 652.165771484375 L 2071.660400390625 653.5964965820312 C 2067.213134765625 653.596435546875 2062.88671875 653.103759765625 2058.800537109375 652.1321411132812 C 2054.66748046875 651.1494140625 2050.8486328125 649.692626953125 2047.450317382812 647.8023071289062 C 2040.205932617188 643.7725830078125 2035.143920898438 637.91552734375 2032.811645507812 630.8642578125 C 2030.612670898438 624.2157592773438 2029.640380859375 617.7232055664062 2029.921508789062 611.5669555664062 C 2030.207885742188 605.29833984375 2031.785278320312 599.5771484375 2034.609985351562 594.5621948242188 C 2037.14990234375 590.0530395507812 2040.658935546875 586.2057495117188 2045.039916992188 583.127197265625 C 2049.596435546875 579.92529296875 2055.075927734375 577.574951171875 2061.326171875 576.1414794921875 C 2065.767578125 575.122802734375 2070.15576171875 574.6062622070312 2074.369140625 574.6062622070312 C 2084.235107421875 574.6062622070312 2093.264404296875 577.4373168945312 2100.480712890625 582.7932739257812 C 2103.8759765625 585.3132934570312 2106.80712890625 588.3411254882812 2109.1923828125 591.7927856445312 C 2111.54638671875 595.1992797851562 2113.321044921875 598.9476318359375 2114.467041015625 602.9336547851562 C 2116.083251953125 608.5563354492188 2116.6689453125 614.093017578125 2116.207763671875 619.3900756835938 C 2115.7451171875 624.7048950195312 2114.24267578125 629.6290893554688 2111.741943359375 634.02587890625 C 2106.866455078125 642.5983276367188 2098.49267578125 648.6507568359375 2087.5263671875 651.5288696289062 C 2082.298828125 652.9008178710938 2076.9609375 653.5964965820312 2071.66064453125 653.5964965820312 Z" stroke="none" fill="#c0a683"/>
            </g>
            <g id="Group_805" data-name="Group 805" transform="translate(76.52 26.422)">
              <ellipse id="Ellipse_83" data-name="Ellipse 83" cx="8.713" cy="8.969" rx="8.713" ry="8.969" transform="translate(0 4.424) rotate(-14.706)" fill="#fff" stroke="#d3b68e" stroke-miterlimit="10" stroke-width="1.042"/>
              <ellipse id="Ellipse_84" data-name="Ellipse 84" cx="6.15" cy="5.894" rx="6.15" ry="5.894" transform="translate(4.005 9.607) rotate(-14.706)" fill="#333"/>
            </g>
            <g id="Group_806" data-name="Group 806" transform="translate(41.582 28.719)">
              <ellipse id="Ellipse_85" data-name="Ellipse 85" cx="8.713" cy="8.969" rx="8.713" ry="8.969" transform="translate(0 4.424) rotate(-14.706)" fill="#fff" stroke="#d3b68e" stroke-miterlimit="10" stroke-width="1.042"/>
              <ellipse id="Ellipse_86" data-name="Ellipse 86" cx="6.15" cy="5.894" rx="6.15" ry="5.894" transform="translate(4.005 9.607) rotate(-14.706)" fill="#333"/>
            </g>
            <path id="Path_5626" data-name="Path 5626" d="M2066.824,634.733s-.1-.8-.123-1.986a20.107,20.107,0,0,1,.333-4.246c.607-3.015,4.7-6.173,6.91-6.773a53.891,53.891,0,0,1,11.095-2.147,9.252,9.252,0,0,1,6.43,1.819s-.408,4.623-1.919,6.933-6.341,5.519-10.263,6.82A20.337,20.337,0,0,1,2066.824,634.733Z" transform="translate(-2005.72 -576.037)" fill="#00532c"/>
            <g id="Group_807" data-name="Group 807" transform="translate(62.613 45.701)">
              <path id="Path_5627" data-name="Path 5627" d="M2068.333,631.663s6.021-3.361,10.088-5.064,9.36-4.179,9.36-4.179" transform="translate(-2068.333 -621.738)" fill="none" stroke="#82b134" stroke-linecap="round" stroke-linejoin="round" stroke-width="0.956"/>
              <path id="Path_5628" data-name="Path 5628" d="M2088.212,625.146l-3.823-1.073.394-2.336" transform="translate(-2068.333 -621.738)" fill="none" stroke="#82b134" stroke-linecap="round" stroke-linejoin="round" stroke-width="0.956"/>
              <path id="Path_5629" data-name="Path 5629" d="M2080.943,622.442l-1.076,3.8,5.164,1.332" transform="translate(-2068.333 -621.738)" fill="none" stroke="#82b134" stroke-linecap="round" stroke-linejoin="round" stroke-width="0.956"/>
              <path id="Path_5630" data-name="Path 5630" d="M2076.49,623.531l-1,4.645,4.749,1.989" transform="translate(-2068.333 -621.738)" fill="none" stroke="#82b134" stroke-linecap="round" stroke-linejoin="round" stroke-width="0.956"/>
              <path id="Path_5631" data-name="Path 5631" d="M2071.31,625.507l-.906,5.048,5.767,1.314" transform="translate(-2068.333 -621.738)" fill="none" stroke="#82b134" stroke-linecap="round" stroke-linejoin="round" stroke-width="0.956"/>
            </g>
            <g id="Group_808" data-name="Group 808" transform="translate(71.461 58.378)">
              <path id="Path_5632" data-name="Path 5632" d="M2077.181,643.979c.874-1.309,1.275-.669,2.215-4.429a13.453,13.453,0,0,0-.088-5.135" transform="translate(-2077.181 -634.415)" fill="none" stroke="#00532c" stroke-linecap="round" stroke-linejoin="round" stroke-width="1.195"/>
            </g>
            <path id="Path_5633" data-name="Path 5633" d="M2070.086,631.32" transform="translate(-2005.72 -576.037)" fill="#fff3d9" stroke="#000" stroke-linecap="round" stroke-linejoin="round" stroke-width="1.431"/>
            <path id="Path_5634" data-name="Path 5634" d="M2065.1,637.664s2.051,6.677,12.083,6.869,12.181-4.983,12.181-4.983" transform="translate(-2005.72 -576.037)" fill="none" stroke="#d55a24" stroke-linecap="round" stroke-linejoin="round" stroke-width="1.195"/>
            <g id="Group_809" data-name="Group 809" transform="translate(37.084 125.405)">
              <path id="Path_5635" data-name="Path 5635" d="M2046.409,701.442c-.273.588-.631.876-.764,1.178-.187.428-.213.757-.408,1.334-.109.324-.279.727-.473,1.306-.14.416-.356.837-.494,1.3-.127.428-.139.909-.261,1.369-.115.437-.285.873-.394,1.333-.1.442-.224.894-.314,1.353s-.013.935-.084,1.4-.161.91-.213,1.372-.149.916-.181,1.378-.012.928-.017,1.389.089.922.121,1.381-.131.952-.059,1.406.317.888.433,1.332a13.729,13.729,0,0,0,.283,1.371,11.346,11.346,0,0,0,.652,1.239,9.677,9.677,0,0,0,.77,1.155,8.9,8.9,0,0,0,.793,1.158c.331.331.748.559,1.084.852.352.307.725.57,1.078.841.371.284.7.613,1.063.864.386.264.755.541,1.138.768.4.238.907.259,1.3.456.418.207.793.464,1.207.628.434.173.836.4,1.262.538.444.141.919.124,1.353.225.455.106.881.271,1.323.334.462.066.915.08,1.36.1.466.022.918.035,1.362.022.468-.013.934.112,1.373.075.472-.039.915-.209,1.347-.275.473-.072.935-.1,1.355-.187.477-.1.887-.342,1.287-.456a11.474,11.474,0,0,0,1.279-.392,8.347,8.347,0,0,0,1.218-.562,131.967,131.967,0,0,1,1.89-1.887,6.637,6.637,0,0,0,.621-1.187,7.7,7.7,0,0,0,.457-1.267,10.555,10.555,0,0,0,.168-1.337,12.523,12.523,0,0,0,.112-1.345c-.007-.429-.126-.873-.172-1.34-.043-.431-.047-.87-.1-1.3s-.142-.861-.2-1.291-.105-.869-.162-1.3-.1-.877-.16-1.3c-.064-.443-.287-.85-.351-1.267-.069-.448.042-.907-.021-1.315-.088-.567-.134-.973-.182-1.291-.085-.561-.33-.818-.4-1.251-.052-.307-.068-.694-.177-1.294" transform="translate(-2042.804 -701.442)" fill="#fff3d9"/>
              <path id="Path_5636" data-name="Path 5636" d="M2046.409,701.442c-.273.588-.631.876-.764,1.178-.187.428-.213.757-.408,1.334-.109.324-.279.727-.473,1.306-.14.416-.356.837-.494,1.3-.127.428-.139.909-.261,1.369-.115.437-.285.873-.394,1.333-.1.442-.224.894-.314,1.353s-.013.935-.084,1.4-.161.91-.213,1.372-.149.916-.181,1.378-.012.928-.017,1.389.089.922.121,1.381-.131.952-.059,1.406.317.888.433,1.332a13.729,13.729,0,0,0,.283,1.371,11.346,11.346,0,0,0,.652,1.239,9.677,9.677,0,0,0,.77,1.155,8.9,8.9,0,0,0,.793,1.158c.331.331.748.559,1.084.852.352.307.725.57,1.078.841.371.284.7.613,1.063.864.386.264.755.541,1.138.768.4.238.907.259,1.3.456.418.207.793.464,1.207.628.434.173.836.4,1.262.538.444.141.919.124,1.353.225.455.106.881.271,1.323.334.462.066.915.08,1.36.1.466.022.918.035,1.362.022.468-.013.934.112,1.373.075.472-.039.915-.209,1.347-.275.473-.072.935-.1,1.355-.187.477-.1.887-.342,1.287-.456a11.474,11.474,0,0,0,1.279-.392,8.347,8.347,0,0,0,1.218-.562,131.967,131.967,0,0,1,1.89-1.887,6.637,6.637,0,0,0,.621-1.187,7.7,7.7,0,0,0,.457-1.267,10.555,10.555,0,0,0,.168-1.337,12.523,12.523,0,0,0,.112-1.345c-.007-.429-.126-.873-.172-1.34-.043-.431-.047-.87-.1-1.3s-.142-.861-.2-1.291-.105-.869-.162-1.3-.1-.877-.16-1.3c-.064-.443-.287-.85-.351-1.267-.069-.448.042-.907-.021-1.315-.088-.567-.134-.973-.182-1.291-.085-.561-.33-.818-.4-1.251-.052-.307-.068-.694-.177-1.294" transform="translate(-2042.804 -701.442)" fill="none" stroke="#c0a683" stroke-linecap="round" stroke-linejoin="round" stroke-width="1.431"/>
            </g>
            <g id="Group_810" data-name="Group 810" transform="translate(71.915 126.322)">
              <path id="Path_5637" data-name="Path 5637" d="M2079.552,708.456c-.146.705-.048.546-.216,1.428-.077.405-.087.9-.183,1.433-.08.441-.044.939-.13,1.446-.077.453-.3.9-.379,1.4-.072.465-.112.948-.181,1.435-.067.472-.071.959-.134,1.441s-.337.932-.394,1.409.044.983,0,1.454c-.048.491-.1.972-.123,1.438-.029.5-.169.987-.175,1.446-.007.52.042,1.012.071,1.452a6.672,6.672,0,0,0,.294,1.415,5.1,5.1,0,0,0,.59,1.225,5.585,5.585,0,0,0,.871,1.031,6.592,6.592,0,0,0,1.042.859,8.113,8.113,0,0,0,1.12.8,11.094,11.094,0,0,0,1.357.26,10.872,10.872,0,0,0,1.282.545c.435.069.9.08,1.375.106.441.024.9-.183,1.369-.2.443-.013.905.117,1.373.071.441-.044.872-.243,1.334-.318.44-.072.937.078,1.395-.025.436-.1.83-.414,1.281-.543s.951-.062,1.37-.208c.44-.154.869-.324,1.277-.493.431-.178.81-.453,1.207-.643.424-.2.774-.509,1.157-.726.408-.232.881-.33,1.245-.577.388-.263.7-.611,1.038-.888a12.746,12.746,0,0,0,.993-.93,11.178,11.178,0,0,0,.863-1.043,10.333,10.333,0,0,0,.84-1.067,8.517,8.517,0,0,0,.54-1.247,7.661,7.661,0,0,0,.375-1.3,6.92,6.92,0,0,0,.136-1.342c0-.425-.081-.915-.135-1.469-.044-.455.038-.965-.039-1.486-.07-.468-.213-.949-.307-1.456-.087-.473-.133-.97-.241-1.464-.1-.477-.244-.957-.368-1.443s-.3-.945-.441-1.422-.187-.986-.344-1.453-.363-.933-.539-1.387c-.183-.473-.423-.912-.624-1.35-.214-.468-.528-.862-.758-1.278a12.391,12.391,0,0,0-.721-1.29,6.4,6.4,0,0,0-.943-1.144" transform="translate(-2077.635 -702.359)" fill="#fff3d9"/>
              <path id="Path_5638" data-name="Path 5638" d="M2079.552,708.456c-.146.705-.048.546-.216,1.428-.077.405-.087.9-.183,1.433-.08.441-.044.939-.13,1.446-.077.453-.3.9-.379,1.4-.072.465-.112.948-.181,1.435-.067.472-.071.959-.134,1.441s-.337.932-.394,1.409.044.983,0,1.454c-.048.491-.1.972-.123,1.438-.029.5-.169.987-.175,1.446-.007.52.042,1.012.071,1.452a6.672,6.672,0,0,0,.294,1.415,5.1,5.1,0,0,0,.59,1.225,5.585,5.585,0,0,0,.871,1.031,6.592,6.592,0,0,0,1.042.859,8.113,8.113,0,0,0,1.12.8,11.094,11.094,0,0,0,1.357.26,10.872,10.872,0,0,0,1.282.545c.435.069.9.08,1.375.106.441.024.9-.183,1.369-.2.443-.013.905.117,1.373.071.441-.044.872-.243,1.334-.318.44-.072.937.078,1.395-.025.436-.1.83-.414,1.281-.543s.951-.062,1.37-.208c.44-.154.869-.324,1.277-.493.431-.178.81-.453,1.207-.643.424-.2.774-.509,1.157-.726.408-.232.881-.33,1.245-.577.388-.263.7-.611,1.038-.888a12.746,12.746,0,0,0,.993-.93,11.178,11.178,0,0,0,.863-1.043,10.333,10.333,0,0,0,.84-1.067,8.517,8.517,0,0,0,.54-1.247,7.661,7.661,0,0,0,.375-1.3,6.92,6.92,0,0,0,.136-1.342c0-.425-.081-.915-.135-1.469-.044-.455.038-.965-.039-1.486-.07-.468-.213-.949-.307-1.456-.087-.473-.133-.97-.241-1.464-.1-.477-.244-.957-.368-1.443s-.3-.945-.441-1.422-.187-.986-.344-1.453-.363-.933-.539-1.387c-.183-.473-.423-.912-.624-1.35-.214-.468-.528-.862-.758-1.278a12.391,12.391,0,0,0-.721-1.29,6.4,6.4,0,0,0-.943-1.144" transform="translate(-2077.635 -702.359)" fill="none" stroke="#c0a683" stroke-linecap="round" stroke-linejoin="round" stroke-width="1.431"/>
            </g>
          </g>
          <path id="Path_5639" data-name="Path 5639" d="M1984.135,692.732l-1.855-11.251a51.877,51.877,0,0,0,10.62-1.18l7.08-1.77,1.771,14.751Z" transform="translate(-1979.33 -565.246)" fill="#7cb629"/>
          <path id="Path_5640" data-name="Path 5640" d="M2077.582,576.348s3.364-10,5.841-10.63a24.676,24.676,0,0,1,12.843.895c5.987,2.353,13.163,7.2,12.965,9.227-.5,5.145.891,7.723-1.172,9.46S2077.582,576.348,2077.582,576.348Z" transform="translate(-1979.33 -565.246)" fill="#00532c"/>
          <path id="Path_5641" data-name="Path 5641" d="M2108.994,586.355a149.021,149.021,0,0,0-14.213-5.942c-12.3-4.548-18.892-6.718-18.137-4.659l2.439-4.109a38.052,38.052,0,0,1,14.325,1.564c7.684,2.225,16.287,9.505,16.287,9.505Z" transform="translate(-1979.33 -565.246)" fill="#fcee21"/>
          <path id="Path_5642" data-name="Path 5642" d="M1994.08,710.393c-5.31,1.77-10.62,2.95-10.62,2.95s-4.13-18.881-4.13-20.651,14.75-5.31,18.88-5.31h7.671l1.77,21.241Z" transform="translate(-1979.33 -565.246)" fill="#fcee21"/>
          <path id="Path_5643" data-name="Path 5643" d="M1979.33,692.692s5.9.59,6.49,4.13,7.67,20.651,21.241,22.421,21.831,1.77,20.651-4.72-4.721-4.13-9.441-12.981S2004.7,687.39,2004.7,687.39l-4.541.267s9.85,6.215,11.62,10.345,7.08,10.621,10.03,12.981,5.311,6.49-2.36,5.9-17.11,1.18-20.651-4.13-7.67-12.391-8.85-15.341-6.041-6.61-7.151-6.55S1979.33,692.692,1979.33,692.692Z" transform="translate(-1979.33 -565.246)" fill="#00532c"/>
          <path id="Path_5644" data-name="Path 5644" d="M2070.4,573.469s-4.011,3.911,16.177,12.549c9.843,4.212,18,3.7,22.07,4.785,3.91,1.043,4.692-.13,4.692-.13s-3.091-5.8-7.038-6.777C2084.726,578.536,2076.313,570.2,2070.4,573.469Z" transform="translate(-1979.33 -565.246)" fill="#00532c"/>
          <path id="Path_5645" data-name="Path 5645" d="M2100.482,584.232s.664-6.839,5.875-7.608,7.324.419,7.324.419S2111.016,586.7,2100.482,584.232Z" transform="translate(-1979.33 -565.246)" fill="#82b134"/>
        </g>
        <g id="Group_813" data-name="Group 813" transform="translate(0 9.678)">
          <path id="Path_5646" data-name="Path 5646" d="M1964.489,596l-.422,1.265a46.219,46.219,0,0,0-6.193-1.775l2.052,7.326-1.259.353-3.748-13.377,1.259-.353,1.347,4.808A52.4,52.4,0,0,1,1964.489,596Zm-4.272-3.353-.933.261-.705-2.519.932-.261Zm2.015-.547-.932.261-.705-2.519.932-.261Z" transform="translate(-1954.919 -574.924)" fill="#00532c" stroke="#00532c" stroke-miterlimit="10" stroke-width="0.312"/>
          <path id="Path_5647" data-name="Path 5647" d="M1976.371,588.648l1.062,3.036,4.448-1.246.321,1.145-4.35,1.218,1.642,4.479-1.259.353-1.642-4.479-5.4,1.512-.321-1.145,5.3-1.484L1975.112,589l-5.037,1.411-.321-1.145,4.939-1.383-1.21-3.436,1.276-.357,1.193,3.44,3.99-1.118.321,1.145Z" transform="translate(-1954.919 -574.924)" fill="#00532c" stroke="#00532c" stroke-miterlimit="10" stroke-width="0.312"/>
          <path id="Path_5648" data-name="Path 5648" d="M1997.21,586.831l-.422,1.265a46.334,46.334,0,0,0-6.194-1.775l2.053,7.327-1.26.353-3.747-13.377,1.259-.353,1.347,4.808A52.423,52.423,0,0,1,1997.21,586.831Zm-4.273-3.353-.932.261-.7-2.518.932-.261Zm2.016-.547-.932.261-.7-2.518.932-.261Z" transform="translate(-1954.919 -574.924)" fill="#00532c" stroke="#00532c" stroke-miterlimit="10" stroke-width="0.312"/>
          <path id="Path_5649" data-name="Path 5649" d="M2009.092,579.482l1.062,3.036,4.448-1.247.321,1.145-4.35,1.219,1.642,4.478-1.259.353-1.643-4.479-5.4,1.512-.321-1.144,5.3-1.485-1.063-3.035-5.036,1.411-.321-1.145,4.939-1.384-1.21-3.435,1.276-.358,1.193,3.44,3.99-1.117.321,1.145Z" transform="translate(-1954.919 -574.924)" fill="#00532c" stroke="#00532c" stroke-miterlimit="10" stroke-width="0.312"/>
          <path id="Path_5650" data-name="Path 5650" d="M1968.771,618.949l-1.236-.571c1.916-4.117,2.353-4.821,1.8-6.8l-.783-2.8,1.34-.376.784,2.8C1971.4,613.786,1970.687,614.832,1968.771,618.949Zm4.194-10.84.966-.958a61.953,61.953,0,0,1,6.489,7.547l-1.085.851A63.064,63.064,0,0,0,1972.965,608.109Z" transform="translate(-1954.919 -574.924)" fill="#00532c" stroke="#00532c" stroke-miterlimit="10" stroke-width="0.312"/>
          <path id="Path_5651" data-name="Path 5651" d="M1990.246,614.679l-1.069-.794c3.292-4.238,3.9-5.52,3.157-8.309l-8.046,2.254-.325-1.162,9.337-2.615.321,1.144C1994.592,608.664,1993.6,610.353,1990.246,614.679Zm.867-13.964.344,1.226-7.114,1.993-.344-1.227Z" transform="translate(-1954.919 -574.924)" fill="#00532c" stroke="#00532c" stroke-miterlimit="10" stroke-width="0.312"/>
          <path id="Path_5652" data-name="Path 5652" d="M2004.877,609.716c.238.85.017,1.2-.833,1.433a7.257,7.257,0,0,1-1.2.264l-.48-1.082a5.439,5.439,0,0,0,1.128-.193c.262-.073.351-.257.269-.551l-1.068-3.811-1.782.5a14.556,14.556,0,0,1,.489,5.965l-1.119-.657a14.431,14.431,0,0,0-.638-5.994l-2.089-7.457,3.777-1.058Zm-4.26-11.364-1.782.5.751,2.682,1.783-.5Zm1.027,3.663-1.783.5.779,2.779,1.782-.5Zm8.943,4.726a12.579,12.579,0,0,0,3.8.33l-.373,1.25a15.364,15.364,0,0,1-4.077-.638,13.6,13.6,0,0,1-3.672,3.2l-.9-.807a11.082,11.082,0,0,0,3.565-2.762,8.3,8.3,0,0,1-1.991-1.189,9.786,9.786,0,0,1-1.26,1.923l-.907-.592a8.463,8.463,0,0,0,1.756-3.05c.05-.137.081-.34.157-.572l.064-.213.045-.153-1.554.435-1.085-3.876c-.133.408-.282.82-.495,1.32l-.972-.574a13.08,13.08,0,0,0,.923-5.267l1.146,0c.007.4-.028.784-.037,1.192v.247l5.92-1.658.266.948L2004.592,598c-.055.244-.108.559-.142.816-.019.058-.036.186-.05.261l5.822-1.631,1.315,4.693-3.615,1.013a6.407,6.407,0,0,1-.213,1.065l3.582-1,.672.323A11.942,11.942,0,0,1,2010.587,606.741Zm-1.148-8.127-4.252,1.192.284,1.014,4.252-1.192Zm-3.734,3.039.3,1.063,4.252-1.191-.3-1.063Zm3.864,4.791a8.718,8.718,0,0,0,.931-2.025l-3.09.866A8.354,8.354,0,0,0,2009.569,606.444Z" transform="translate(-1954.919 -574.924)" fill="#00532c" stroke="#00532c" stroke-miterlimit="10" stroke-width="0.312"/>
        </g>
      </g>
    </g>
  </g>
</svg>
