<svg xmlns="http://www.w3.org/2000/svg" width="601.525" height="296" viewBox="0 0 601.525 296">
  <g id="Group_1951" data-name="Group 1951" transform="translate(-64.302 -541.206)">
    <g id="Group_1699" data-name="Group 1699" transform="translate(-1778 -0.791)">
      <path id="Path_7228" data-name="Path 7228" d="M2097.254,685.886l-.768-.768,7.8-7.776-7.8-7.777.768-.768,7.777,7.8,7.777-7.8.768.768-7.8,7.777,7.8,7.776-.768.768-7.777-7.8Zm3.241-8.544a2,2,0,1,1-1.993-1.993A2,2,0,0,1,2100.5,677.342Zm6.528-6.529a1.992,1.992,0,1,1-1.992-2.016A2,2,0,0,1,2107.023,670.813Zm0,13.057a1.992,1.992,0,1,1-1.992-1.992A1.987,1.987,0,0,1,2107.023,683.87Zm6.553-6.528a2,2,0,1,1-2.016-1.993A2.007,2.007,0,0,1,2113.576,677.342Z" fill="#00532c"/>
      <path id="Path_7229" data-name="Path 7229" d="M2125.383,669.133a17.339,17.339,0,0,0-1.393-2.425l2.089-.528a21.189,21.189,0,0,1,1.584,2.953h5.448a12.084,12.084,0,0,0,1.32-2.953l2.281.337a17.721,17.721,0,0,1-1.3,2.616h5.976v1.824h-22.3v-1.824Zm4.2,3.984v13.465c0,.7-.024,1.872-1.872,1.872h-2.857l-.407-2.016,2.544.024c.5,0,.672-.048.672-.576v-3.024H2122.6v5.592h-1.9V673.117Zm-1.92,1.752H2122.6V677.2h5.065Zm0,3.912H2122.6v2.425h5.065Zm4.536,5.329V673.237h1.968V684.11Zm7.609-11.593v13.9c0,1.92-1.224,2.04-2.064,2.04h-3.793l-.36-2.04,3.625.024c.624,0,.624-.288.624-.576V672.517Z" fill="#00532c"/>
      <path id="Path_7230" data-name="Path 7230" d="M2165.488,667.357v20.569h-20.066V667.357Zm-18.1,1.824v16.825H2163.5V669.181Zm13.393,2.928v10.753h-10.752V672.109Zm-8.856,1.728v7.273h6.936v-7.273Z" fill="#00532c"/>
      <path id="Path_7231" data-name="Path 7231" d="M2180.511,685.118c2.472-.264,8.3-.96,8.3-7.825,0-1.9-.576-7.176-7.177-7.392-.216,2.784-.7,8.689-3.168,12.649-1.416,2.232-2.952,2.784-4.032,2.784-2.353,0-4.321-2.784-4.321-6.744,0-6.529,4.753-10.705,11.089-10.705,7.777,0,9.865,5.376,9.865,9.432a9.673,9.673,0,0,1-3.216,7.513,12.47,12.47,0,0,1-6.625,2.376Zm-4.968-13.585a8.65,8.65,0,0,0-3.336,7.1c0,1.633.6,4.393,2.3,4.393,1.008,0,1.728-.888,2.352-1.944,2.016-3.457,2.4-8.329,2.64-11.089A9.053,9.053,0,0,0,2175.543,671.533Z" fill="#00532c"/>
      <path id="Path_7232" data-name="Path 7232" d="M2204.631,670.405v1.728h-9.937v-1.728Zm-.816-3.384v1.728h-8.353v-1.728Zm0,6.768v1.68h-8.353v-1.68Zm0,3.456v1.729h-8.353v-1.729Zm0,3.457v7.32h-8.353V680.7Zm-1.848,1.632h-4.633v4.056h4.633Zm14.017-5.5h-8.041v8.545c0,.576.072.816.984.816h4.585c.888,0,1.368,0,1.464-4.368l1.9.432a15.506,15.506,0,0,1-.576,4.512,2.38,2.38,0,0,1-2.184,1.272h-5.641c-.936,0-2.448,0-2.448-2.064V674.965h8.017v-6.1h-8.257v-1.848h10.2Z" fill="#00532c"/>
      <path id="Path_7233" data-name="Path 7233" d="M2233.791,683.75a27.918,27.918,0,0,1-4.968,3.6l-.6-1.368a60.694,60.694,0,0,1-8.137,1.968l-.336-1.968c.144-.024,3.7-.72,4.1-.792v-6.7h-3.912v-1.753h3.912v-2.472h-2.472v-1.56a5.62,5.62,0,0,1-.984.72l-.84-1.9a12.7,12.7,0,0,0,4.369-5.281h2.064a11.9,11.9,0,0,0,3.744,3.913l-1.2,1.728a14.971,14.971,0,0,1-3.481-3.84,19.429,19.429,0,0,1-3.432,4.464h6.577v1.752h-2.568v2.472h3.432v1.753h-3.432v6.312a22.39,22.39,0,0,0,3.192-.912l.072,1.2a25.584,25.584,0,0,0,4.224-3.048Zm-12.841.744a23.924,23.924,0,0,0-.5-4.416l1.584-.216a20,20,0,0,1,.648,4.368Zm5.761-1.3a16.775,16.775,0,0,0,.648-3.72l1.68.336a17.583,17.583,0,0,1-.816,3.648Zm13.561-8.713h1.8v1.728h-5.688v1.152a14.782,14.782,0,0,0,6.024,8.425l-1.2,1.728a15.33,15.33,0,0,1-4.824-6.144v5.088a1.722,1.722,0,0,1-1.849,1.992h-2.784l-.288-1.992,2.352.024c.624,0,.744-.192.744-.672v-9.6h-5.424v-1.728h9.265v-2.112h-7.777v-1.608h7.777V668.7h-8.185V667h10.057Zm-8.617,6.889a20.575,20.575,0,0,0-1.9-3.361l1.56-.815a18.111,18.111,0,0,1,1.992,3.264Zm6.241-1.368a15.978,15.978,0,0,0,2.256-2.977l1.512,1.081a18.413,18.413,0,0,1-2.4,3.024Z" fill="#00532c"/>
      <path id="Path_7234" data-name="Path 7234" d="M2245.958,686.318a52.74,52.74,0,0,0,4.153-12.913l-3.817.024v-2.064h4.176c.24-1.512.361-2.448.552-4.321l2.329.1c-.288,1.9-.384,2.448-.7,4.224h2.592c2.856,0,5.232.624,5.232,6.192a21.659,21.659,0,0,1-1.152,7.249,3.959,3.959,0,0,1-4.176,2.4,23.2,23.2,0,0,1-2.832-.168l-.1-2.208a13.22,13.22,0,0,0,2.616.288c1.608,0,2.256-.528,2.76-2.136a19.723,19.723,0,0,0,.72-5.521c0-4.008-1.32-4.152-4.224-4.1l-1.824.024a60.526,60.526,0,0,1-4.225,13.873Zm18.554-6.48a16.207,16.207,0,0,0-3.408-9.553l1.776-.984c2.76,2.808,3.648,7.008,3.936,10.129Z" fill="#00532c"/>
      <path id="Path_7235" data-name="Path 7235" d="M2276.438,670.813a20.336,20.336,0,0,0-.743,6.744,12.844,12.844,0,0,1,8.256-2.952c5.569,0,6.6,3.576,6.6,5.569,0,5.76-5.545,7.056-10.681,7.056a29.478,29.478,0,0,1-4.609-.336l-.24-2.112a25.746,25.746,0,0,0,4.681.432c3.312,0,6.192-.648,7.632-2.232a4.243,4.243,0,0,0,.936-2.832c0-1.872-1.271-3.6-4.44-3.6-3.216,0-6.432,1.368-8.017,3.457a4.4,4.4,0,0,0-.119.432l-2.137-.072c0-.816.072-4.417.1-5.137a22.467,22.467,0,0,1,.624-4.8Zm10.394-.024a29.619,29.619,0,0,0-9.625-1.728l.384-2.064a38.488,38.488,0,0,1,9.84,1.512Z" fill="#00532c"/>
      <path id="Path_7236" data-name="Path 7236" d="M2109.878,702.549h2.017v18.913h-2.3V705.069l-3.624,2.5-.312-2.136Z" fill="#00532c"/>
      <path id="Path_7237" data-name="Path 7237" d="M2142.543,721.126l-.36,1.848h-11.161c-4.44,0-5.976-2.064-6.672-3.024a27.283,27.283,0,0,1-3.432,3.624l-1.009-2.136a24.284,24.284,0,0,0,3.337-2.9v-6.1h-3.072v-1.849h4.992v6.7a3.612,3.612,0,0,0,2.16,3.12,10.5,10.5,0,0,0,3.745.72Zm-17.689-14.377a22.822,22.822,0,0,0-4.3-3.84l1.3-1.44a23.324,23.324,0,0,1,4.416,3.744Zm16.633,11.113c0,1.656-.648,2.064-2.16,2.064h-2.184l-.336-1.9,2.136.024c.5,0,.672-.168.672-.7v-13.7h-4.32v1.776h3.312v1.512h-3.312v1.848h3.648v1.56h-8.977v-1.56h3.577v-1.848h-3.193v-1.512h3.193v-1.776h-4.249V711c0,5.473-1.032,7.417-1.656,8.545l-1.536-1.368c.672-1.176,1.368-2.784,1.368-7.369v-8.832h14.017Zm-3.24-.528h-7.872v-5.569h7.872Zm-1.68-4.081h-4.512v2.593h4.512Z" fill="#00532c"/>
      <path id="Path_7238" data-name="Path 7238" d="M2155.191,702.093v8.352h-6.985v13.034h-1.92V702.093Zm-1.873,1.584h-5.112V705.5h5.112Zm0,3.216h-5.112v1.944h5.112Zm8.593,13.969h-10.945V712.1h10.945Zm-1.824-7.176h-7.321V715.7h7.321Zm0,3.384h-7.321v2.208h7.321Zm6.553,4.416c0,.48,0,1.993-1.681,1.993h-3.5l-.36-1.921,2.952.024c.432,0,.7-.072.7-.672V710.445h-7.2v-8.352h9.1Zm-1.9-17.809h-5.328V705.5h5.328Zm0,3.216h-5.328v1.944h5.328Z" fill="#00532c"/>
      <path id="Path_7239" data-name="Path 7239" d="M2179.5,709.005a16.641,16.641,0,0,1,3.481-.36c5.832,0,8.736,3.048,8.736,7.009,0,6.192-6.624,6.552-8.88,6.672l-.552-1.992c3.5-.1,7.248-.912,7.248-4.872,0-3.5-2.88-4.321-4.44-4.777-2.736,9.961-8.209,10.489-9.5,10.489-2.376,0-3.912-1.824-3.912-4.368,0-3.84,2.856-6.121,5.76-7.2-.024-.72-.024-1.3-.024-3.168h-5.064v-1.968h5.064v-2.4h2.112v2.4H2191v1.968h-11.5Zm-1.992,2.568c-1.608.744-3.888,2.5-3.888,5.089a2.23,2.23,0,0,0,2.136,2.52,5.043,5.043,0,0,0,2.88-1.008A27.075,27.075,0,0,1,2177.51,711.573Zm5.689-1.128a11.5,11.5,0,0,0-3.673.432,24.417,24.417,0,0,0,.745,5.785A17.3,17.3,0,0,0,2183.2,710.445Z" fill="#00532c"/>
      <path id="Path_7240" data-name="Path 7240" d="M2200.454,702.549a65.332,65.332,0,0,0-.84,10.417,40.061,40.061,0,0,0,.84,8.808l-2.256.288a43.327,43.327,0,0,1-.744-8.977,79.575,79.575,0,0,1,.72-10.68Zm2.208,6.6v-2.016h8.545c-.024-1.08-.072-3.7-.1-4.945h2.208c0,.793.072,4.225.1,4.945l3.888-.024v2.04h-3.864c.12,7.345-.288,12.505-8.3,13.513l-.793-1.968c5.809-.936,7.057-2.88,6.889-11.545Z" fill="#00532c"/>
      <path id="Path_7241" data-name="Path 7241" d="M2241.927,705.621c-.816-.072-1.512-.1-2.448-.1a6.665,6.665,0,0,0-2.424.288c-3.456,1.152-8.161,4.872-8.161,9,0,3.12,2.3,4.1,4.849,4.632a26.776,26.776,0,0,0,6.048.432l-.432,2.328c-4.728-.192-12.7-.528-12.7-7.248,0-4.561,4.2-7.705,7.033-9.361-.7.024-9,.528-11.617.84l-.192-2.352c1.44-.048,5.28-.216,6.5-.288,5.377-.288,7.585-.336,13.489-.384Z" fill="#00532c"/>
      <path id="Path_7242" data-name="Path 7242" d="M2259.375,709.893h7.8v1.992h-7.824c-.312,7.177-4.825,9.337-9.913,10.537l-.96-1.944c7.056-1.44,8.521-4.2,8.737-8.593h-9.841v-1.992h9.841v-3.936a66.067,66.067,0,0,1-8.449.624l-.408-1.968a48.627,48.627,0,0,0,15.865-2.4l1.128,1.944a53.081,53.081,0,0,1-5.976,1.464Z" fill="#00532c"/>
      <path id="Path_7243" data-name="Path 7243" d="M2283.4,719.35h7.224v1.872h-16.3V719.35h7.057v-9.409h-6.073v-1.92h14.3v1.92H2283.4Z" fill="#00532c"/>
      <path id="Path_7244" data-name="Path 7244" d="M2301.758,714.526a20.979,20.979,0,0,0-1.92-5.857l1.8-.5a24.588,24.588,0,0,1,2.04,5.881Zm-.144,6.456c7.441-1.536,10.8-4.8,12.169-13.417l2.088.432c-1.584,8.209-4.656,12.649-12.913,14.617Zm5.4-7.56a26.083,26.083,0,0,0-1.585-5.737l1.777-.408a32.723,32.723,0,0,1,1.728,5.689Z" fill="#00532c"/>
      <path id="Path_7245" data-name="Path 7245" d="M2324.51,720.478c4.824-1.056,13.057-3.84,14.665-15.1h-8.52a20.825,20.825,0,0,1-6.289,6.552L2323,710.3a17.981,17.981,0,0,0,6.216-6.912H2341.7c-1.056,12.169-7.848,17.233-16.273,19.129Z" fill="#00532c"/>
      <path id="Path_7246" data-name="Path 7246" d="M2368.119,704.661v1.992h-6.288v4.824a12.35,12.35,0,0,1,.312,1.585,11.761,11.761,0,0,1,.144,1.848c0,6.336-5.617,7.488-9.793,7.656l-.672-2.016c6.408.072,8.185-2.136,8.5-4.992a3.781,3.781,0,0,1-3.793,2.3,4.428,4.428,0,0,1-4.464-4.705,4.713,4.713,0,0,1,4.969-4.872,3.459,3.459,0,0,1,2.688.96l-.024-2.592h-11.833v-1.992h11.809l-.048-2.688h2.208v2.688Zm-8.352,7.609a2.476,2.476,0,0,0-2.689-2.185,2.833,2.833,0,0,0-3,2.977,2.849,2.849,0,1,0,5.689.263Z" fill="#00532c"/>
      <path id="Path_7247" data-name="Path 7247" d="M2388.591,704.517c-.528.384-1.272.984-1.872,1.464-3.073,2.472-3.408,2.736-4.993,3.984a12.791,12.791,0,0,1,4.3-.816c3.528,0,6.36,1.944,6.36,6.025,0,4.7-4.032,7.128-8.52,7.128-3.817,0-6.193-1.7-6.193-3.984,0-1.992,1.824-3.384,4.056-3.384a5.865,5.865,0,0,1,5.737,4.7,4.625,4.625,0,0,0,2.784-4.416c0-1.273-.384-4.273-4.992-4.273-4.249,0-7.369,2.376-10.657,5.5l-1.248-1.8c1.848-1.44,7.344-5.857,11.857-9.913-4.081.288-5.5.336-9.409.408v-2.064c5.088,0,7.056-.024,12.793-.36Zm-6.937,12.169c-1.464,0-2.088.936-2.088,1.584,0,1.176,1.536,2.328,4.225,2.328a7,7,0,0,0,1.872-.216C2385.135,718.1,2383.742,716.686,2381.654,716.686Z" fill="#00532c"/>
      <path id="Path_7248" data-name="Path 7248" d="M2416.647,709.989c-1.944.216-14.905,1.68-14.905,7.009,0,2.784,2.928,3.048,8.089,3.048a66.848,66.848,0,0,0,7.56-.36l.048,2.256c-1.56.1-3.672.24-7.128.24-4.153,0-10.8,0-10.8-5.112,0-4.1,4.944-6.169,6.625-6.889-.792-1.56-.841-2.952-.913-8.065h2.353c-.024.649-.048,1.321-.048,2.5,0,2.544.12,3.816.624,4.848a55.921,55.921,0,0,1,8.28-1.776Z" fill="#00532c"/>
      <path id="Path_7249" data-name="Path 7249" d="M2106.3,737.549V754.4h7.057v2.064h-9.313V737.549Z" fill="#00532c"/>
      <path id="Path_7250" data-name="Path 7250" d="M2119.718,737.549v18.913h-2.352V737.549Z" fill="#00532c"/>
      <path id="Path_7251" data-name="Path 7251" d="M2128.19,737.549l10.825,16.609V737.549h2.233v18.913h-3.289l-10.825-16.609v16.609H2124.9V737.549Z" fill="#00532c"/>
      <path id="Path_7252" data-name="Path 7252" d="M2156.727,745.637V747.7h-8.377v6.7h9.529v2.064h-11.785V737.549h11.425v2.064h-9.169v6.024Z" fill="#00532c"/>
      <path id="Path_7253" data-name="Path 7253" d="M2162.125,754.542a14.128,14.128,0,0,0,3.673-8.929l2.04.216c-.336,3.169-1.08,7.081-3.96,10.3Zm15.842-13.273a3.229,3.229,0,0,1-.7-2.04,3.336,3.336,0,1,1,4.248,3.216v.864h-8.329v14.257h-2.208V743.309h-8.3v-2.04h8.3V737.26h2.208v4.009Zm.48,4.32c.72,4.177,1.728,6.673,3.7,9.049l-1.8,1.392c-2.16-2.64-3.1-5.28-3.912-10.2Zm.312-6.336a1.848,1.848,0,1,0,1.848-1.848A1.864,1.864,0,0,0,2178.759,739.253Z" fill="#00532c"/>
      <path id="Path_7254" data-name="Path 7254" d="M2199.9,757.494H2197.6V746.309a38.183,38.183,0,0,1-9.456,4.8l-1.057-1.992a35.8,35.8,0,0,0,17.21-12.1l2.016,1.32a43.945,43.945,0,0,1-6.408,6.264Z" fill="#00532c"/>
      <path id="Path_7255" data-name="Path 7255" d="M2220.566,744.029a28.637,28.637,0,0,0-7.393-3.456l1.08-1.92a30.117,30.117,0,0,1,7.513,3.36Zm-6.889,10.417c12.146-.648,15.722-9.145,17.378-14.521l1.872,1.392c-1.152,3.408-4.992,14.617-18.817,15.529Z" fill="#00532c"/>
      <path id="Path_7256" data-name="Path 7256" d="M2256.063,750.558a53.2,53.2,0,0,0-10.585-5.137v12.121h-2.328V737.021h2.328v6.144a65.7,65.7,0,0,1,11.713,5.16Z" fill="#00532c"/>
      <path id="Path_7257" data-name="Path 7257" d="M2262.421,756.174a42.453,42.453,0,0,0,4.225-12.577l-3.985.024v-2.04h4.321c.216-1.608.312-2.592.456-4.512l2.28.216c-.216,1.848-.312,2.712-.576,4.3h2.736c3.216,0,4.825,1.056,4.825,5.929,0,9.432-3.025,9.648-5.017,9.648a15.428,15.428,0,0,1-2.952-.336l-.12-2.136a14.082,14.082,0,0,0,2.688.384c1.464,0,2.3-.672,2.737-2.448a23.7,23.7,0,0,0,.6-5.329c0-2.112-.143-3.744-2.616-3.72l-3.216.024a53.687,53.687,0,0,1-4.368,13.633Zm17.33-5.592c-.24-2.856-1.032-6.649-3.648-9.217l1.56-1.2c.984.984,3.576,3.624,4.44,10.081Zm-.408-13.729a20.506,20.506,0,0,1,2.88,4.272l-1.536,1.1a19.827,19.827,0,0,0-2.76-4.368Zm2.928-1.705a20.349,20.349,0,0,1,2.856,4.273l-1.536,1.08a19.942,19.942,0,0,0-2.76-4.345Z" fill="#00532c"/>
      <path id="Path_7258" data-name="Path 7258" d="M2308,744.341h-18v-5.16h-3.073v-1.464H2290V736.18h1.968v1.537h4.992V736.18h1.848v1.537h5.233V736.18h1.9v1.537h3.336v1.464h-3.336v2.712h-8.977v-2.712h-4.992v3.768H2308Zm-13.129,11.833a21.576,21.576,0,0,1-7.177,2.328l-.768-1.7a19.6,19.6,0,0,0,6.6-1.872h-4.2v-9.409h17.545v9.409h-13.1Zm10.057-9.289h-13.753v1.344h13.753Zm0,2.569h-13.753v1.392h13.753Zm0,2.616h-13.753v1.416h13.753Zm-.888-12.889h-5.233v1.512h5.233Zm-1.9,15.817a21.293,21.293,0,0,0,7.152,1.7l-.936,1.872a24.225,24.225,0,0,1-7.369-2.256Z" fill="#00532c"/>
      <path id="Path_7259" data-name="Path 7259" d="M2328.639,742.133v1.848c-1.7,1.368-3.672,3.024-5.329,4.513a2.991,2.991,0,0,1,1.056-.192c2.185,0,2.185,2.04,2.185,3.384v.984c0,1.992.288,2.544,3.528,2.544,1.176,0,2.4-.12,3.168-.192l.1,2.136c-.888.072-1.776.168-3.432.168-2.52,0-5.4,0-5.4-3.648v-1.584c0-1.176,0-2.088-1.224-2.088a5.212,5.212,0,0,0-2.616,1.1c-1.176,1.056-2.184,2.112-5.952,6.1l-1.537-1.656c.168-.144,3.937-3.72,4.609-4.344,5.064-4.825,6.048-5.665,7.776-7.1l-10.776.072v-2.016Zm.24-1.656a39.629,39.629,0,0,0-11.137-1.8l.264-1.873a43.92,43.92,0,0,1,11.329,1.657Z" fill="#00532c"/>
      <path id="Path_7260" data-name="Path 7260" d="M2353.863,739.517c-.528.384-1.272.984-1.873,1.464-3.072,2.472-3.408,2.736-4.992,3.984a12.784,12.784,0,0,1,4.3-.816c3.529,0,6.361,1.944,6.361,6.025,0,4.7-4.032,7.128-8.521,7.128-3.816,0-6.192-1.7-6.192-3.984,0-1.992,1.824-3.384,4.056-3.384a5.865,5.865,0,0,1,5.737,4.7,4.626,4.626,0,0,0,2.784-4.416c0-1.273-.384-4.273-4.993-4.273-4.248,0-7.368,2.376-10.657,5.5l-1.248-1.8c1.848-1.44,7.345-5.857,11.858-9.913-4.081.288-5.5.336-9.409.408v-2.064c5.088,0,7.056-.024,12.793-.36Zm-6.937,12.169c-1.464,0-2.088.936-2.088,1.584,0,1.176,1.536,2.328,4.224,2.328a7,7,0,0,0,1.872-.216C2350.406,753.1,2349.014,751.686,2346.926,751.686Z" fill="#00532c"/>
      <path id="Path_7261" data-name="Path 7261" d="M2374.983,748.878a22.106,22.106,0,0,1,8.712,5.136l-1.56,2.064a20.4,20.4,0,0,0-7.177-4.92l.025,1.656c.024,1.416-.144,4.488-5.137,4.488-3.96,0-5.736-1.968-5.736-4.32,0-3.288,3.384-4.7,6.816-4.7a13.145,13.145,0,0,1,1.848.144l-.1-11.306h2.257l.023,3.985,8.113-.072v2.16h-8.113Zm-2.161,1.608a10.975,10.975,0,0,0-2.232-.24c-2.064,0-4.344.816-4.344,2.76,0,2.3,3.048,2.3,3.576,2.3,2.736,0,2.976-1.656,2.976-2.64Z" fill="#00532c"/>
      <path id="Path_7262" data-name="Path 7262" d="M2397.662,753.8h2.545v2.664h-2.545Zm2.52-16.249-.287,13.705h-1.921l-.288-13.705Z" fill="#00532c"/>
    </g>
    <g id="Group_1722" data-name="Group 1722" transform="translate(-1778 -0.791)">
      <g id="Group_1720" data-name="Group 1720">
        <path id="Path_7300" data-name="Path 7300" d="M1871.175,701.428s-1.911-2.057-.141-5.6a17.615,17.615,0,0,1,5.31-5.9V685.8l4.13-.59.59,4.13s5.784.231,6.137,8.081S1871.175,701.428,1871.175,701.428Z" fill="#fff"/>
        <g id="Group_1719" data-name="Group 1719">
          <g id="Group_1708" data-name="Group 1708">
            <path id="Path_7301" data-name="Path 7301" d="M1919.386,740.9l.306-2.34a3.138,3.138,0,0,1,2.722-2.62c11.231-1.332,46.893-6.671,54.749-6.041a2.9,2.9,0,0,1,.923.232c2.6,1.114,16.514,7.165,23.886,12.323a3.012,3.012,0,0,1,1.295,2.484l-.013,2.316a2.99,2.99,0,0,1-.517,1.668c-2.471,3.627-14.064,12.5-16.915,14.225-2.93,1.776-32.132,4.71-37.705,4a2.988,2.988,0,0,1-1.563-.693l-26.667-23.406C1919.114,742.391,1919.255,741.906,1919.386,740.9Z" fill="#b1b1b1"/>
            <path id="Path_7302" data-name="Path 7302" d="M1921.22,736.042c10.6-1.985,47.429-11.743,56.184-10.881a1.2,1.2,0,0,1,.528.187c2.256,1.429,19.467,12.384,24.595,17.291a1.237,1.237,0,0,1,.144,1.617c-2.612,3.647-15.254,12.86-18.069,14.567-3.037,1.84-33.029,3.345-36.89,2.912a1.233,1.233,0,0,1-.667-.291l-26.4-23.23A1.245,1.245,0,0,1,1921.22,736.042Z" fill="#fff"/>
            <g id="Group_1707" data-name="Group 1707">
              <path id="Path_7303" data-name="Path 7303" d="M1987.535,751.956l.986-.357-4.222-4.121-18.621,5.9.845.854,17.624-5.583Z" fill="gray"/>
              <path id="Path_7304" data-name="Path 7304" d="M1987.535,751.956l-3.389-3.308-17.624,5.583,3.886,3.929Z" fill="#666"/>
            </g>
          </g>
          <g id="Group_1710" data-name="Group 1710">
            <g id="Group_1709" data-name="Group 1709">
              <path id="Path_7305" data-name="Path 7305" d="M1970.088,670.037c.457-.119.7-.626.988-.7.448-.12.837.105,1.172.012.3-.083.545-.447,1.013-.577.3-.082.778.29,1.221.169.355-.1.609-.6.98-.708s.84.212,1.2.107.725-.223,1.088-.328.678-.4,1.037-.5.674-.426,1.028-.527c.377-.108.834.108,1.18.007.388-.112.7-.4,1.034-.5.406-.124.75-.288,1.051-.4.377-.136.734-.364,1.137-.52.379-.148.841-.124,1.236-.291.379-.16.718-.433,1.1-.611s.75-.355,1.13-.54.752-.362,1.127-.551.7-.475,1.069-.665.882-.127,1.251-.318.691-.5,1.055-.693.8-.306,1.154-.505c.377-.211.716-.466,1.063-.67.379-.222.685-.526,1.023-.732.384-.234.852-.272,1.176-.473.357-.221.7-.544,1.08-.827.348-.258.639-.622.995-.92.338-.283.531-.737.865-1.049s.753-.5,1.064-.831.725-.562,1.018-.9.639-.654.919-.993c.3-.359.644-.674.9-1.022.281-.385.38-.875.6-1.232a7.52,7.52,0,0,0,.495-1.245c.128-.311.559-.525.7-.875.133-.32.062-.74.2-1.081s.44-.595.577-.931-.023-.79.111-1.121.406-.62.533-.946c.135-.348.493-.6.609-.92.134-.365-.229-.872-.13-1.179a7.978,7.978,0,0,0,.274-.993c.074-.429.555-.752.776-1.1a2.63,2.63,0,0,1,.928-.784,1.015,1.015,0,0,1,1.021-.125c.442.143.843.125.979.4.172.351.052.453.581.262.451-.164.664-.164.8-.379.175-.271.18-.6.379-.932.135-.227.608-.2.974-.447a4.291,4.291,0,0,1,1.238-.762,5.475,5.475,0,0,1,1.465-.14c.38,0,.74.156,1.107.173s.761-.179,1.127-.137.72.209,1.08.28a10.864,10.864,0,0,1,1.058.308c.361.111.809-.04,1.143.114a6.83,6.83,0,0,1,.952.605,6.266,6.266,0,0,1,.792.788,6.2,6.2,0,0,1,.778.8,7.423,7.423,0,0,1,.742.946c.168.344-.066.862.062,1.244.123.365.506.658.59,1.05s-.117.812-.06,1.206.271.755.3,1.149.123.791.111,1.182-.325.763-.375,1.148.1.818.013,1.192c-.09.4-.138.8-.254,1.157a8.513,8.513,0,0,1-.664,1.14c-.2.358-.477.686-.741,1.074-.235.345-.154.954-.438,1.317-.261.332-.662.581-.954.927-.277.327-.684.559-.988.892s-.4.831-.712,1.15-.739.5-1.068.8-.623.622-.957.912-.68.558-1.011.848-.856.362-1.186.651-.52.746-.855,1.025-.757.464-1.1.726c-.281.214-.429.628-.732.855-.285.214-.636.358-.937.582s-.651.347-.952.568-.4.7-.695.918-.737.234-1.039.448-.59.437-.891.648-.672.329-.974.539-.565.475-.861.686-.676.325-.972.536-.5.573-.8.781-.661.353-.955.557c-.31.215-.584.465-.877.663-.32.216-.645.4-.937.591-.325.217-.653.386-.938.571-.343.222-.495.679-.77.846-.408.247-.9.124-1.126.219-.261.109-.629.236-1.048.419-.314.137-.506.649-.881.812-.33.145-.72.206-1.081.362-.339.147-.815.008-1.165.163s-.709.273-1.052.427-.635.454-.972.6c-.362.159-.588.588-.914.734-.379.168-.905-.069-1.211.07a3.4,3.4,0,0,1-2.1.893c-.309.146-.547.551-.924.731-.328.157-.577.531-.934.7-.339.165-.66.381-1.005.553s-.84.07-1.18.243c-.361.183-.808.171-1.133.339-.383.2-.563.709-.861.864-.621.324-1.2.625-1.2.625-.58-.415-.747-.852-1.029-.951a2.036,2.036,0,0,0-1.433-.1c-.339.092-.636.743-1.209.879" fill="#fff3d9"/>
              <path id="Path_7306" data-name="Path 7306" d="M1970.088,670.037c.457-.119.7-.626.988-.7.448-.12.837.105,1.172.012.3-.083.545-.447,1.013-.577.3-.082.778.29,1.221.169.355-.1.609-.6.98-.708s.84.212,1.2.107.725-.223,1.088-.328.678-.4,1.037-.5.674-.426,1.028-.527c.377-.108.834.108,1.18.007.388-.112.7-.4,1.034-.5.406-.124.75-.288,1.051-.4.377-.136.734-.364,1.137-.52.379-.148.841-.124,1.236-.291.379-.16.718-.433,1.1-.611s.75-.355,1.13-.54.752-.362,1.127-.551.7-.475,1.069-.665.882-.127,1.251-.318.691-.5,1.055-.693.8-.306,1.154-.505c.377-.211.716-.466,1.063-.67.379-.222.685-.526,1.023-.732.384-.234.852-.272,1.176-.473.357-.221.7-.544,1.08-.827.348-.258.639-.622.995-.92.338-.283.531-.737.865-1.049s.753-.5,1.064-.831.725-.562,1.018-.9.639-.654.919-.993c.3-.359.644-.674.9-1.022.281-.385.38-.875.6-1.232a7.52,7.52,0,0,0,.495-1.245c.128-.311.559-.525.7-.875.133-.32.062-.74.2-1.081s.44-.595.577-.931-.023-.79.111-1.121.406-.62.533-.946c.135-.348.493-.6.609-.92.134-.365-.229-.872-.13-1.179a7.978,7.978,0,0,0,.274-.993c.074-.429.555-.752.776-1.1a2.63,2.63,0,0,1,.928-.784,1.015,1.015,0,0,1,1.021-.125c.442.143.843.125.979.4.172.351.052.453.581.262.451-.164.664-.164.8-.379.175-.271.18-.6.379-.932.135-.227.608-.2.974-.447a4.291,4.291,0,0,1,1.238-.762,5.475,5.475,0,0,1,1.465-.14c.38,0,.74.156,1.107.173s.761-.179,1.127-.137.72.209,1.08.28a10.864,10.864,0,0,1,1.058.308c.361.111.809-.04,1.143.114a6.83,6.83,0,0,1,.952.605,6.266,6.266,0,0,1,.792.788,6.2,6.2,0,0,1,.778.8,7.423,7.423,0,0,1,.742.946c.168.344-.066.862.062,1.244.123.365.506.658.59,1.05s-.117.812-.06,1.206.271.755.3,1.149.123.791.111,1.182-.325.763-.375,1.148.1.818.013,1.192c-.09.4-.138.8-.254,1.157a8.513,8.513,0,0,1-.664,1.14c-.2.358-.477.686-.741,1.074-.235.345-.154.954-.438,1.317-.261.332-.662.581-.954.927-.277.327-.684.559-.988.892s-.4.831-.712,1.15-.739.5-1.068.8-.623.622-.957.912-.68.558-1.011.848-.856.362-1.186.651-.52.746-.855,1.025-.757.464-1.1.726c-.281.214-.429.628-.732.855-.285.214-.636.358-.937.582s-.651.347-.952.568-.4.7-.695.918-.737.234-1.039.448-.59.437-.891.648-.672.329-.974.539-.565.475-.861.686-.676.325-.972.536-.5.573-.8.781-.661.353-.955.557c-.31.215-.584.465-.877.663-.32.216-.645.4-.937.591-.325.217-.653.386-.938.571-.343.222-.495.679-.77.846-.408.247-.9.124-1.126.219-.261.109-.629.236-1.048.419-.314.137-.506.649-.881.812-.33.145-.72.206-1.081.362-.339.147-.815.008-1.165.163s-.709.273-1.052.427-.635.454-.972.6c-.362.159-.588.588-.914.734-.379.168-.905-.069-1.211.07a3.4,3.4,0,0,1-2.1.893c-.309.146-.547.551-.924.731-.328.157-.577.531-.934.7-.339.165-.66.381-1.005.553s-.84.07-1.18.243c-.361.183-.808.171-1.133.339-.383.2-.563.709-.861.864-.621.324-1.2.625-1.2.625-.58-.415-.747-.852-1.029-.951a2.036,2.036,0,0,0-1.433-.1c-.339.092-.636.743-1.209.879" fill="none" stroke="#bca787" stroke-linecap="round" stroke-linejoin="round" stroke-width="1.308"/>
            </g>
          </g>
          <g id="Path_7307" data-name="Path 7307" fill="#fff3d9" stroke-linecap="round" stroke-linejoin="round">
            <path d="M 1960.831909179688 727.2213745117188 C 1958.058715820312 727.2213134765625 1950.692260742188 727.2213134765625 1943.884521484375 724.866455078125 C 1940.049194335938 723.5397338867188 1936.952026367188 721.6554565429688 1934.67919921875 719.2659912109375 C 1931.916015625 716.3611450195312 1930.341918945312 712.6822509765625 1930.000732421875 708.33154296875 C 1929.668701171875 704.101806640625 1929.684326171875 699.9834594726562 1930.047241210938 696.0910034179688 C 1930.338134765625 692.9716186523438 1930.851440429688 689.9887084960938 1931.572998046875 687.22509765625 C 1932.808959960938 682.4915161132812 1934.216918945312 680.0576171875 1934.276245117188 679.9563598632812 L 1934.451416015625 679.6573486328125 L 1934.79736328125 679.6377563476562 C 1936.598266601562 679.5354614257812 1937.938354492188 678.85595703125 1938.894287109375 677.560302734375 C 1941.954711914062 673.4124145507812 1939.813598632812 664.5751342773438 1939.79150390625 664.4863891601562 L 1939.606201171875 663.7379760742188 L 1940.37548828125 663.6861572265625 C 1940.485595703125 663.6787109375 1951.490356445312 662.9443969726562 1960.92431640625 662.9443969726562 C 1964.412109375 662.9443969726562 1967.289916992188 663.04443359375 1969.47802734375 663.2417602539062 C 1972.23388671875 663.4902954101562 1973.882934570312 663.878662109375 1974.66748046875 664.4639282226562 C 1977.135498046875 666.3050537109375 1980.413818359375 673.3612670898438 1981.708740234375 676.3095703125 C 1984.20947265625 682.0032348632812 1986.202758789062 687.864501953125 1986.786865234375 691.2418212890625 C 1987.196655273438 693.610595703125 1988.144897460938 699.8012084960938 1988.1005859375 706.1095581054688 C 1988.052612304688 712.952392578125 1986.8583984375 717.7208251953125 1984.55126953125 720.2825317382812 C 1982.251953125 722.8350219726562 1978.315795898438 724.7401733398438 1972.85205078125 725.9451293945312 C 1967.482666015625 727.1293334960938 1962.418334960938 727.2213134765625 1960.994018554688 727.2213134765625 L 1960.915649414062 727.2213134765625 L 1960.831909179688 727.2213745117188 Z" stroke="none"/>
            <path d="M 1960.92431640625 663.5906982421875 C 1951.402954101562 663.590576171875 1940.4189453125 664.3309936523438 1940.4189453125 664.3309936523438 C 1940.4189453125 664.3309936523438 1944.237060546875 679.7490234375 1934.833984375 680.2830200195312 C 1934.833984375 680.2830200195312 1929.202026367188 689.8980102539062 1930.64501953125 708.281005859375 C 1932.0732421875 726.4879760742188 1955.023315429688 726.5750122070312 1960.831909179688 726.5750122070312 C 1960.887817382812 726.5750122070312 1960.94140625 726.5750122070312 1960.994018554688 726.5750122070312 C 1966.52294921875 726.5750122070312 1979.02294921875 725.4539794921875 1984.071044921875 719.8499755859375 C 1989.119018554688 714.2449951171875 1987.35205078125 698.301025390625 1986.150024414062 691.3519897460938 C 1984.947998046875 684.4019775390625 1977.886962890625 667.6719970703125 1974.281005859375 664.9819946289062 C 1972.848022460938 663.9129638671875 1967.203491210938 663.5908203125 1960.92431640625 663.5906982421875 M 1960.92138671875 662.2980346679688 L 1960.92138671875 663.5906982421875 L 1960.922485351562 662.2980346679688 C 1971.490356445312 662.2982177734375 1974.025634765625 663.1787719726562 1975.053955078125 663.9458618164062 C 1976.066162109375 664.7009887695312 1977.228393554688 666.2276000976562 1978.60693359375 668.6129760742188 C 1979.771484375 670.6279907226562 1981.048706054688 673.1995239257812 1982.300537109375 676.0496826171875 C 1984.820434570312 681.7871704101562 1986.83154296875 687.7072143554688 1987.423828125 691.1317138671875 C 1987.83642578125 693.517578125 1988.79150390625 699.7536010742188 1988.746948242188 706.1140747070312 C 1988.69775390625 713.1198120117188 1987.44775390625 718.0323486328125 1985.031616210938 720.7150268554688 C 1982.640258789062 723.3697509765625 1978.589233398438 725.3417358398438 1972.9912109375 726.5762939453125 C 1967.557983398438 727.7745361328125 1962.434814453125 727.86767578125 1960.994018554688 727.86767578125 L 1960.91552734375 727.86767578125 L 1960.831909179688 727.86767578125 C 1958.029052734375 727.86767578125 1950.583618164062 727.86767578125 1943.67333984375 725.477294921875 C 1939.7392578125 724.1163940429688 1936.5556640625 722.176513671875 1934.210815429688 719.71142578125 C 1931.3427734375 716.6962890625 1929.70947265625 712.884521484375 1929.356323242188 708.382080078125 C 1929.021362304688 704.1156616210938 1929.037353515625 699.9601440429688 1929.403686523438 696.031005859375 C 1929.69775390625 692.8768310546875 1930.21728515625 689.8591918945312 1930.947631835938 687.0618286132812 C 1932.205932617188 682.2428588867188 1933.657470703125 679.734130859375 1933.718627929688 679.6296997070312 C 1933.937377929688 679.2561645507812 1934.328491210938 679.0169677734375 1934.7607421875 678.992431640625 C 1936.356567382812 678.9017944335938 1937.537963867188 678.30859375 1938.37255859375 677.178955078125 C 1939.527099609375 675.6159057617188 1940.040405273438 672.9910888671875 1939.85693359375 669.5883178710938 C 1939.711303710938 666.8864135742188 1939.16943359375 664.6631469726562 1939.1640625 664.6409912109375 C 1939.072631835938 664.27001953125 1939.14990234375 663.8773193359375 1939.375244140625 663.5687866210938 C 1939.6005859375 663.2603149414062 1939.950805664062 663.0669555664062 1940.33203125 663.041259765625 C 1940.442260742188 663.0338134765625 1951.466674804688 662.2980346679688 1960.92138671875 662.2980346679688 Z" stroke="none" fill="#bca787"/>
          </g>
          <g id="Group_1712" data-name="Group 1712">
            <g id="Group_1711" data-name="Group 1711">
              <path id="Path_7308" data-name="Path 7308" d="M1954.06,665.768c-.6.1-.982.191-1.3.237-.449.065-.751.065-1.31.136-.324.041-.674.558-1.25.635-.417.056-.857.069-1.307.138-.426.065-.925-.284-1.371-.222s-.866.1-1.308.142-.872.166-1.311.208-.877.146-1.309.18c-.45.035-.887.088-1.314.11-.461.023-.9.379-1.323.374-.474-.006-.909-.338-1.313-.372-.5-.042-.968.04-1.328-.032-.428-.085-.817-.18-1.177-.255-.435-.09-.78-.368-1.134-.451-.435-.1-.767-.342-1.114-.445a11.659,11.659,0,0,1-1.148-.278c-.365-.154-.846-.032-1.219-.216-.33-.162-.642-.414-1.036-.611-.324-.162-.748-.189-1.149-.38-.33-.158-.539-.651-.939-.833-.359-.163-.9-.094-1.317-.349-.351-.217-.449-.871-.831-1.136-.348-.242-.743-.44-1.111-.708-.347-.253-.933-.2-1.291-.475s-.571-.7-.919-.977-.591-.663-.925-.951-.591-.653-.91-.952-1-.24-1.309-.545c-.321-.318-.446-.82-.746-1.121-.326-.327-.662-.62-.954-.921-.332-.342-.7-.612-.964-.914a8.542,8.542,0,0,1-.839-1.043c-.189-.315-.22-.758-.434-1.113-.2-.325-.346-.7-.554-1.041s-.3-.736-.5-1.076-.827-.429-1.025-.766-.085-.873-.275-1.206c-.2-.356-.351-.722-.528-1.05-.2-.375-.524-.651-.68-.969a5.228,5.228,0,0,1-.212-1.156c-.149-.448-.738-.694-1.023-1.034-.315-.377-.494-.982-.878-1.157a1.851,1.851,0,0,0-1.476.108c-.455.227-.353.75-.46,1.081a.8.8,0,0,1-1.025.591,2,2,0,0,1-1.083-.419c-.23-.269-.275-.648-.542-.982a2.151,2.151,0,0,0-.781-.8,5.23,5.23,0,0,0-1.573-.55,6.579,6.579,0,0,0-1.657.145c-.412.059-.8.224-1.2.3s-.823.1-1.214.2-.7.5-1.081.625-.949-.165-1.311.009a8.757,8.757,0,0,0-1,.748,7.257,7.257,0,0,0-.963.768c-.293.277-.323.766-.57,1.1-.235.32-.916.383-1.106.763s.062.941-.059,1.367a9.981,9.981,0,0,0-.247,1.243c-.063.416-.243.821-.27,1.257s-.262.854-.26,1.288-.019.879.017,1.308.582.792.659,1.212-.391.982-.281,1.392c.114.426.726.691.87,1.084.155.419.179.865.363,1.233a6.192,6.192,0,0,0,.579,1.356c.277.347.8.538,1.157.908.317.328.59.739.956,1.085.336.317.561.785.928,1.116.349.314.712.646,1.09.961s.754.6,1.146.9.833.488,1.229.769.9.393,1.3.664.85.452,1.256.712.788.55,1.2.8.919.329,1.335.564.814.519,1.23.747.766.634,1.246.889c.426.225.951.318,1.42.564.434.228.93.379,1.393.623.437.231.857.535,1.308.786s.637.933,1.086,1.182.963.361,1.416.6.86.551,1.313.781,1.056.168,1.506.394.9.473,1.352.7c.463.234.871.556,1.317.777.467.232.927.45,1.367.665.475.232.94.437,1.375.646.488.234.92.516,1.349.706.52.231,1.1.157,1.511.319.651.259,1,.909,1.279.98.375.093.89-.07,1.358.112.394.152.763.446,1.193.631.405.175.856.276,1.268.455s.944.11,1.341.286c.435.193.732.646,1.108.807a11.355,11.355,0,0,0,1.282.374" fill="#fff3d9"/>
              <path id="Path_7309" data-name="Path 7309" d="M1954.06,665.768c-.6.1-.982.191-1.3.237-.449.065-.751.065-1.31.136-.324.041-.674.558-1.25.635-.417.056-.857.069-1.307.138-.426.065-.925-.284-1.371-.222s-.866.1-1.308.142-.872.166-1.311.208-.877.146-1.309.18c-.45.035-.887.088-1.314.11-.461.023-.9.379-1.323.374-.474-.006-.909-.338-1.313-.372-.5-.042-.968.04-1.328-.032-.428-.085-.817-.18-1.177-.255-.435-.09-.78-.368-1.134-.451-.435-.1-.767-.342-1.114-.445a11.659,11.659,0,0,1-1.148-.278c-.365-.154-.846-.032-1.219-.216-.33-.162-.642-.414-1.036-.611-.324-.162-.748-.189-1.149-.38-.33-.158-.539-.651-.939-.833-.359-.163-.9-.094-1.317-.349-.351-.217-.449-.871-.831-1.136-.348-.242-.743-.44-1.111-.708-.347-.253-.933-.2-1.291-.475s-.571-.7-.919-.977-.591-.663-.925-.951-.591-.653-.91-.952-1-.24-1.309-.545c-.321-.318-.446-.82-.746-1.121-.326-.327-.662-.62-.954-.921-.332-.342-.7-.612-.964-.914a8.542,8.542,0,0,1-.839-1.043c-.189-.315-.22-.758-.434-1.113-.2-.325-.346-.7-.554-1.041s-.3-.736-.5-1.076-.827-.429-1.025-.766-.085-.873-.275-1.206c-.2-.356-.351-.722-.528-1.05-.2-.375-.524-.651-.68-.969a5.228,5.228,0,0,1-.212-1.156c-.149-.448-.738-.694-1.023-1.034-.315-.377-.494-.982-.878-1.157a1.851,1.851,0,0,0-1.476.108c-.455.227-.353.75-.46,1.081a.8.8,0,0,1-1.025.591,2,2,0,0,1-1.083-.419c-.23-.269-.275-.648-.542-.982a2.151,2.151,0,0,0-.781-.8,5.23,5.23,0,0,0-1.573-.55,6.579,6.579,0,0,0-1.657.145c-.412.059-.8.224-1.2.3s-.823.1-1.214.2-.7.5-1.081.625-.949-.165-1.311.009a8.757,8.757,0,0,0-1,.748,7.257,7.257,0,0,0-.963.768c-.293.277-.323.766-.57,1.1-.235.32-.916.383-1.106.763s.062.941-.059,1.367a9.981,9.981,0,0,0-.247,1.243c-.063.416-.243.821-.27,1.257s-.262.854-.26,1.288-.019.879.017,1.308.582.792.659,1.212-.391.982-.281,1.392c.114.426.726.691.87,1.084.155.419.179.865.363,1.233a6.192,6.192,0,0,0,.579,1.356c.277.347.8.538,1.157.908.317.328.59.739.956,1.085.336.317.561.785.928,1.116.349.314.712.646,1.09.961s.754.6,1.146.9.833.488,1.229.769.9.393,1.3.664.85.452,1.256.712.788.55,1.2.8.919.329,1.335.564.814.519,1.23.747.766.634,1.246.889c.426.225.951.318,1.42.564.434.228.93.379,1.393.623.437.231.857.535,1.308.786s.637.933,1.086,1.182.963.361,1.416.6.86.551,1.313.781,1.056.168,1.506.394.9.473,1.352.7c.463.234.871.556,1.317.777.467.232.927.45,1.367.665.475.232.94.437,1.375.646.488.234.92.516,1.349.706.52.231,1.1.157,1.511.319.651.259,1,.909,1.279.98.375.093.89-.07,1.358.112.394.152.763.446,1.193.631.405.175.856.276,1.268.455s.944.11,1.341.286c.435.193.732.646,1.108.807a11.355,11.355,0,0,0,1.282.374" fill="none" stroke="#bca787" stroke-linecap="round" stroke-linejoin="round" stroke-width="1.431"/>
            </g>
          </g>
          <g id="Path_7310" data-name="Path 7310" fill="#fff3d9" stroke-linecap="round" stroke-linejoin="round">
            <path d="M 1959.234497070312 669.590087890625 C 1959.234130859375 669.590087890625 1959.234008789062 669.590087890625 1959.233642578125 669.590087890625 C 1954.8427734375 669.5900268554688 1950.572021484375 669.1038818359375 1946.5400390625 668.1452026367188 C 1942.470703125 667.1776123046875 1938.713256835938 665.74462890625 1935.3720703125 663.8861083984375 C 1928.287109375 659.9451904296875 1923.33984375 654.2266235351562 1921.064819335938 647.3486938476562 C 1918.893432617188 640.7835083007812 1917.93310546875 634.3775634765625 1918.210327148438 628.308837890625 C 1918.491577148438 622.1532592773438 1920.038330078125 616.5391845703125 1922.807495117188 611.6226806640625 C 1925.294677734375 607.2070922851562 1928.732421875 603.4384765625 1933.025390625 600.421630859375 C 1937.505737304688 597.273193359375 1942.900512695312 594.96044921875 1949.06005859375 593.5477294921875 C 1953.44921875 592.5410766601562 1957.78369140625 592.0306396484375 1961.943359375 592.0306396484375 C 1971.65478515625 592.0306396484375 1980.536743164062 594.8129272460938 1987.628662109375 600.0767211914062 C 1990.9609375 602.5499267578125 1993.837280273438 605.5213623046875 1996.177978515625 608.9085083007812 C 1998.48779296875 612.2509765625 2000.229125976562 615.9290161132812 2001.353515625 619.8403930664062 C 2002.945678710938 625.3781127929688 2003.52294921875 630.8272094726562 2003.069702148438 636.036376953125 C 2002.616088867188 641.2476806640625 2001.144287109375 646.0736083984375 1998.695068359375 650.3801879882812 C 1993.9169921875 658.7818603515625 1985.695190429688 664.7176513671875 1974.918701171875 667.5459594726562 C 1969.75048828125 668.90234375 1964.473510742188 669.590087890625 1959.234497070312 669.590087890625 Z" stroke="none"/>
            <path d="M 1959.233642578125 668.874755859375 C 1964.316650390625 668.8748168945312 1969.558959960938 668.2130126953125 1974.737060546875 666.85400390625 C 1997.598999023438 660.85400390625 2006.756958007812 641.2239990234375 2000.666015625 620.0380249023438 C 1996.265014648438 604.7291259765625 1982.071533203125 592.7460327148438 1961.943359375 592.7460327148438 C 1957.927734375 592.7460327148438 1953.677490234375 593.22265625 1949.219970703125 594.2449951171875 C 1922.410034179688 600.3939819335938 1913.733032226562 622.9030151367188 1921.744018554688 647.1240234375 C 1926.385009765625 661.1552734375 1941.875244140625 668.8744506835938 1959.233642578125 668.874755859375 M 1959.234619140625 670.3054809570312 L 1959.234619140625 668.874755859375 L 1959.234252929688 670.3054809570312 C 1954.787109375 670.305419921875 1950.460693359375 669.812744140625 1946.37451171875 668.8411254882812 C 1942.241455078125 667.8583984375 1938.422729492188 666.401611328125 1935.024291992188 664.5112915039062 C 1927.779907226562 660.4816284179688 1922.717895507812 654.6245727539062 1920.385620117188 647.5733032226562 C 1918.186767578125 640.9249267578125 1917.214477539062 634.4324951171875 1917.495727539062 628.2761840820312 C 1917.782104492188 622.0077514648438 1919.359497070312 616.2865600585938 1922.184204101562 611.2716064453125 C 1924.72412109375 606.7623901367188 1928.233154296875 602.9149780273438 1932.614135742188 599.8363647460938 C 1937.170532226562 596.6343994140625 1942.64990234375 594.2839965820312 1948.900146484375 592.8504638671875 C 1953.341552734375 591.831787109375 1957.72998046875 591.3153076171875 1961.943359375 591.3153076171875 C 1971.8095703125 591.3153076171875 1980.8388671875 594.1463012695312 1988.055053710938 599.5023193359375 C 1991.450317382812 602.0222778320312 1994.381225585938 605.0501708984375 1996.766479492188 608.5018310546875 C 1999.120483398438 611.9082641601562 2000.895141601562 615.6566162109375 2002.041015625 619.6427001953125 C 2003.657470703125 625.2650146484375 2004.243286132812 630.801513671875 2003.782348632812 636.098388671875 C 2003.31982421875 641.4130249023438 2001.8173828125 646.3370971679688 1999.31689453125 650.7338256835938 C 1994.44140625 659.3068237304688 1986.0673828125 665.3595581054688 1975.100219726562 668.2378540039062 C 1969.872802734375 669.6098022460938 1964.534912109375 670.3054809570312 1959.234619140625 670.3054809570312 Z" stroke="none" fill="#bca787"/>
          </g>
          <g id="Group_1713" data-name="Group 1713">
            <ellipse id="Ellipse_176" data-name="Ellipse 176" cx="8.713" cy="8.969" rx="8.713" ry="8.969" transform="translate(1969.814 623.592) rotate(-14.706)" fill="#fff" stroke="#ceb793" stroke-miterlimit="10" stroke-width="1.042"/>
            <ellipse id="Ellipse_177" data-name="Ellipse 177" cx="6.15" cy="5.894" rx="6.15" ry="5.894" transform="translate(1973.819 628.776) rotate(-14.706)" fill="#333"/>
          </g>
          <g id="Group_1714" data-name="Group 1714">
            <ellipse id="Ellipse_178" data-name="Ellipse 178" cx="8.713" cy="8.969" rx="8.713" ry="8.969" transform="translate(1934.876 625.889) rotate(-14.706)" fill="#fff" stroke="#ceb793" stroke-miterlimit="10" stroke-width="1.042"/>
            <ellipse id="Ellipse_179" data-name="Ellipse 179" cx="6.15" cy="5.894" rx="6.15" ry="5.894" transform="translate(1938.881 631.072) rotate(-14.706)" fill="#333"/>
          </g>
          <path id="Path_7311" data-name="Path 7311" d="M1954.4,651.442s-.1-.8-.123-1.986a20.091,20.091,0,0,1,.333-4.246c.607-3.015,4.7-6.173,6.91-6.773a53.9,53.9,0,0,1,11.1-2.147,9.263,9.263,0,0,1,6.431,1.819s-.409,4.623-1.92,6.933-6.341,5.519-10.263,6.82A20.336,20.336,0,0,1,1954.4,651.442Z" fill="#00532c"/>
          <g id="Group_1715" data-name="Group 1715">
            <path id="Path_7312" data-name="Path 7312" d="M1955.907,648.372s6.021-3.361,10.088-5.064,9.36-4.179,9.36-4.179" fill="none" stroke="#83b234" stroke-linecap="round" stroke-linejoin="round" stroke-width="0.956"/>
            <path id="Path_7313" data-name="Path 7313" d="M1975.786,641.855l-3.823-1.073.394-2.336" fill="none" stroke="#83b234" stroke-linecap="round" stroke-linejoin="round" stroke-width="0.956"/>
            <path id="Path_7314" data-name="Path 7314" d="M1968.517,639.151l-1.076,3.8,5.164,1.332" fill="none" stroke="#83b234" stroke-linecap="round" stroke-linejoin="round" stroke-width="0.956"/>
            <path id="Path_7315" data-name="Path 7315" d="M1964.064,640.241l-1,4.645,4.748,1.989" fill="none" stroke="#83b234" stroke-linecap="round" stroke-linejoin="round" stroke-width="0.956"/>
            <path id="Path_7316" data-name="Path 7316" d="M1958.884,642.216l-.906,5.048,5.767,1.314" fill="none" stroke="#83b234" stroke-linecap="round" stroke-linejoin="round" stroke-width="0.956"/>
          </g>
          <g id="Group_1716" data-name="Group 1716">
            <path id="Path_7317" data-name="Path 7317" d="M1964.755,660.688c.874-1.309,1.275-.669,2.215-4.429a13.448,13.448,0,0,0-.088-5.135" fill="none" stroke="#00532c" stroke-linecap="round" stroke-linejoin="round" stroke-width="1.195"/>
          </g>
          <path id="Path_7318" data-name="Path 7318" d="M1957.66,648.029" fill="#fff3d9" stroke="#000" stroke-linecap="round" stroke-linejoin="round" stroke-width="1.431"/>
          <path id="Path_7319" data-name="Path 7319" d="M1952.672,654.373s2.051,6.677,12.083,6.869,12.181-4.983,12.181-4.983" fill="none" stroke="#d65a24" stroke-linecap="round" stroke-linejoin="round" stroke-width="1.195"/>
          <g id="Group_1717" data-name="Group 1717">
            <path id="Path_7320" data-name="Path 7320" d="M1933.983,718.151c-.273.588-.631.876-.764,1.178-.187.428-.213.757-.408,1.334-.109.324-.279.727-.473,1.306-.14.416-.356.837-.494,1.3-.126.427-.139.908-.261,1.368-.115.437-.285.873-.394,1.333-.1.442-.224.894-.314,1.354s-.013.934-.084,1.4-.161.909-.213,1.371-.149.916-.181,1.378-.012.928-.017,1.389.089.923.121,1.382-.131.951-.059,1.4.318.888.433,1.333a13.769,13.769,0,0,0,.283,1.37,11.347,11.347,0,0,0,.652,1.239,9.661,9.661,0,0,0,.77,1.155,8.887,8.887,0,0,0,.793,1.158c.331.331.748.559,1.084.852.352.307.725.57,1.078.841.371.285.7.613,1.063.864.386.264.755.541,1.139.768.4.238.906.259,1.3.456.418.207.793.464,1.207.629.434.172.836.4,1.262.537.444.141.919.124,1.353.225.455.106.881.271,1.323.334.462.066.915.08,1.36.1.466.022.918.035,1.362.022.469-.013.934.112,1.373.075.472-.038.915-.209,1.347-.275.473-.072.935-.095,1.355-.187.477-.1.887-.341,1.287-.456a11.461,11.461,0,0,0,1.279-.392,8.4,8.4,0,0,0,1.219-.562,126.275,126.275,0,0,1,1.889-1.887,6.647,6.647,0,0,0,.621-1.186,7.609,7.609,0,0,0,.457-1.268,10.534,10.534,0,0,0,.168-1.337,12.472,12.472,0,0,0,.112-1.344c-.007-.43-.125-.874-.172-1.341-.043-.431-.047-.87-.1-1.3s-.142-.861-.2-1.291-.1-.869-.162-1.3-.1-.877-.16-1.3c-.064-.442-.287-.85-.351-1.267-.069-.448.042-.907-.021-1.315-.072-.461-.125-.9-.188-1.293-.078-.487-.351-.888-.411-1.253a6.28,6.28,0,0,1-.084-1.386" fill="#fff3d9"/>
            <path id="Path_7321" data-name="Path 7321" d="M1933.983,718.151c-.273.588-.631.876-.764,1.178-.187.428-.213.757-.408,1.334-.109.324-.279.727-.473,1.306-.14.416-.356.837-.494,1.3-.126.427-.139.908-.261,1.368-.115.437-.285.873-.394,1.333-.1.442-.224.894-.314,1.354s-.013.934-.084,1.4-.161.909-.213,1.371-.149.916-.181,1.378-.012.928-.017,1.389.089.923.121,1.382-.131.951-.059,1.4.318.888.433,1.333a13.769,13.769,0,0,0,.283,1.37,11.347,11.347,0,0,0,.652,1.239,9.661,9.661,0,0,0,.77,1.155,8.887,8.887,0,0,0,.793,1.158c.331.331.748.559,1.084.852.352.307.725.57,1.078.841.371.285.7.613,1.063.864.386.264.755.541,1.139.768.4.238.906.259,1.3.456.418.207.793.464,1.207.629.434.172.836.4,1.262.537.444.141.919.124,1.353.225.455.106.881.271,1.323.334.462.066.915.08,1.36.1.466.022.918.035,1.362.022.469-.013.934.112,1.373.075.472-.038.915-.209,1.347-.275.473-.072.935-.095,1.355-.187.477-.1.887-.341,1.287-.456a11.461,11.461,0,0,0,1.279-.392,8.4,8.4,0,0,0,1.219-.562,126.275,126.275,0,0,1,1.889-1.887,6.647,6.647,0,0,0,.621-1.186,7.609,7.609,0,0,0,.457-1.268,10.534,10.534,0,0,0,.168-1.337,12.472,12.472,0,0,0,.112-1.344c-.007-.43-.125-.874-.172-1.341-.043-.431-.047-.87-.1-1.3s-.142-.861-.2-1.291-.1-.869-.162-1.3-.1-.877-.16-1.3c-.064-.442-.287-.85-.351-1.267-.069-.448.042-.907-.021-1.315-.072-.461-.125-.9-.188-1.293-.078-.487-.351-.888-.411-1.253a6.28,6.28,0,0,1-.084-1.386" fill="none" stroke="#bca787" stroke-linecap="round" stroke-linejoin="round" stroke-width="1.431"/>
          </g>
          <g id="Group_1718" data-name="Group 1718">
            <path id="Path_7322" data-name="Path 7322" d="M1967.119,725.164c-.136.652-.16,1.087-.228,1.429-.095.487-.073.828-.174,1.435-.059.352-.014.818-.12,1.444-.077.453-.3.9-.379,1.4-.072.465-.112.948-.181,1.435-.067.472-.071.96-.134,1.441s-.337.932-.394,1.409.044.983,0,1.454c-.048.492-.1.972-.122,1.438-.03.5-.17.987-.176,1.446-.007.52.042,1.012.071,1.452a6.667,6.667,0,0,0,.294,1.416,5.116,5.116,0,0,0,.59,1.224,5.612,5.612,0,0,0,.871,1.031,6.588,6.588,0,0,0,1.042.859,8.018,8.018,0,0,0,1.12.8,11.1,11.1,0,0,0,1.357.26,10.7,10.7,0,0,0,1.282.545c.435.069.9.08,1.375.106.441.024.9-.183,1.369-.2.443-.012.9.118,1.373.071.441-.044.872-.243,1.334-.318.44-.072.937.078,1.4-.025.436-.1.83-.414,1.281-.543s.951-.061,1.37-.208c.44-.154.869-.324,1.277-.493.431-.178.81-.453,1.208-.642.423-.2.773-.51,1.156-.727.408-.232.881-.33,1.245-.577.388-.263.7-.611,1.038-.888a12.713,12.713,0,0,0,.993-.93,11.033,11.033,0,0,0,.863-1.043,10.421,10.421,0,0,0,.84-1.066,8.6,8.6,0,0,0,.54-1.248,7.485,7.485,0,0,0,.375-1.3,6.929,6.929,0,0,0,.136-1.342c0-.425-.081-.915-.135-1.469-.044-.455.038-.965-.039-1.486-.069-.468-.213-.949-.307-1.456-.087-.473-.133-.97-.241-1.464-.1-.477-.244-.957-.368-1.443s-.3-.945-.441-1.422-.187-.986-.344-1.453-.363-.933-.539-1.387c-.183-.473-.423-.912-.624-1.349-.214-.469-.528-.863-.758-1.279a12.375,12.375,0,0,0-.721-1.29,6.439,6.439,0,0,0-.943-1.144" fill="#fff3d9"/>
            <path id="Path_7323" data-name="Path 7323" d="M1967.119,725.164c-.136.652-.16,1.087-.228,1.429-.095.487-.073.828-.174,1.435-.059.352-.014.818-.12,1.444-.077.453-.3.9-.379,1.4-.072.465-.112.948-.181,1.435-.067.472-.071.96-.134,1.441s-.337.932-.394,1.409.044.983,0,1.454c-.048.492-.1.972-.122,1.438-.03.5-.17.987-.176,1.446-.007.52.042,1.012.071,1.452a6.667,6.667,0,0,0,.294,1.416,5.116,5.116,0,0,0,.59,1.224,5.612,5.612,0,0,0,.871,1.031,6.588,6.588,0,0,0,1.042.859,8.018,8.018,0,0,0,1.12.8,11.1,11.1,0,0,0,1.357.26,10.7,10.7,0,0,0,1.282.545c.435.069.9.08,1.375.106.441.024.9-.183,1.369-.2.443-.012.9.118,1.373.071.441-.044.872-.243,1.334-.318.44-.072.937.078,1.4-.025.436-.1.83-.414,1.281-.543s.951-.061,1.37-.208c.44-.154.869-.324,1.277-.493.431-.178.81-.453,1.208-.642.423-.2.773-.51,1.156-.727.408-.232.881-.33,1.245-.577.388-.263.7-.611,1.038-.888a12.713,12.713,0,0,0,.993-.93,11.033,11.033,0,0,0,.863-1.043,10.421,10.421,0,0,0,.84-1.066,8.6,8.6,0,0,0,.54-1.248,7.485,7.485,0,0,0,.375-1.3,6.929,6.929,0,0,0,.136-1.342c0-.425-.081-.915-.135-1.469-.044-.455.038-.965-.039-1.486-.069-.468-.213-.949-.307-1.456-.087-.473-.133-.97-.241-1.464-.1-.477-.244-.957-.368-1.443s-.3-.945-.441-1.422-.187-.986-.344-1.453-.363-.933-.539-1.387c-.183-.473-.423-.912-.624-1.349-.214-.469-.528-.863-.758-1.279a12.375,12.375,0,0,0-.721-1.29,6.439,6.439,0,0,0-.943-1.144" fill="none" stroke="#bca787" stroke-linecap="round" stroke-linejoin="round" stroke-width="1.431"/>
          </g>
        </g>
        <path id="Path_7324" data-name="Path 7324" d="M1871.709,709.441l-1.855-11.25a51.877,51.877,0,0,0,10.62-1.18l7.081-1.771,1.77,14.751Z" fill="#80bf00"/>
        <path id="Path_7325" data-name="Path 7325" d="M1965.156,593.057s3.364-10,5.841-10.63a24.676,24.676,0,0,1,12.843.9c5.987,2.354,13.163,7.2,12.965,9.227-.5,5.145.891,7.723-1.172,9.46S1965.156,593.057,1965.156,593.057Z" fill="#00532c"/>
        <path id="Path_7326" data-name="Path 7326" d="M1996.568,603.064a149.078,149.078,0,0,0-14.212-5.942c-12.3-4.548-18.893-6.718-18.138-4.659l2.439-4.109a38.052,38.052,0,0,1,14.325,1.564c7.684,2.225,16.288,9.5,16.288,9.5Z" fill="#fcee21"/>
        <path id="Path_7327" data-name="Path 7327" d="M1881.654,727.1c-5.31,1.77-10.62,2.95-10.62,2.95s-4.13-18.881-4.13-20.651,14.75-5.31,18.88-5.31h7.671l1.77,21.241Z" fill="#fcee21"/>
        <path id="Path_7328" data-name="Path 7328" d="M1866.9,709.4s5.9.59,6.49,4.13,7.67,20.651,21.241,22.421,21.831,1.77,20.651-4.72-4.721-4.13-9.441-12.981-13.569-14.152-13.569-14.152l-4.541.267s9.85,6.215,11.62,10.345,7.08,10.621,10.03,12.981,5.311,6.49-2.36,5.9-17.11,1.18-20.651-4.13-7.67-12.391-8.85-15.341-6.041-6.61-7.151-6.55S1866.9,709.4,1866.9,709.4Z" fill="#00532c"/>
        <path id="Path_7329" data-name="Path 7329" d="M1957.978,590.178s-4.011,3.911,16.177,12.549c9.843,4.212,18,3.7,22.07,4.785,3.91,1.043,4.692-.13,4.692-.13s-3.091-5.8-7.038-6.777C1972.3,595.245,1963.887,586.907,1957.978,590.178Z" fill="#00532c"/>
        <path id="Path_7330" data-name="Path 7330" d="M1988.056,600.941s.664-6.839,5.875-7.608,7.324.419,7.324.419S1998.59,603.406,1988.056,600.941Z" fill="#83b234"/>
      </g>
      <g id="Group_1721" data-name="Group 1721">
        <path id="Path_7331" data-name="Path 7331" d="M1852.063,612.708l-.421,1.264a46.209,46.209,0,0,0-6.194-1.774l2.052,7.326-1.259.353-3.747-13.377,1.258-.353,1.348,4.808A52.246,52.246,0,0,1,1852.063,612.708Zm-4.272-3.354-.932.261-.706-2.518.932-.261Zm2.016-.547-.932.261-.706-2.518.932-.261Z" fill="#00532c" stroke="#00532c" stroke-miterlimit="10" stroke-width="0.312"/>
        <path id="Path_7332" data-name="Path 7332" d="M1863.945,605.358l1.062,3.036,4.449-1.247.32,1.145-4.35,1.219,1.642,4.478-1.259.353-1.642-4.478-5.4,1.511-.32-1.144,5.3-1.485-1.062-3.035-5.037,1.411-.321-1.145,4.939-1.384-1.209-3.435,1.275-.357,1.193,3.439,3.991-1.117.32,1.145Z" fill="#00532c" stroke="#00532c" stroke-miterlimit="10" stroke-width="0.312"/>
        <path id="Path_7333" data-name="Path 7333" d="M1884.784,603.541l-.421,1.264a46.326,46.326,0,0,0-6.2-1.774l2.053,7.326-1.259.353-3.748-13.377,1.26-.353,1.346,4.808A52.388,52.388,0,0,1,1884.784,603.541Zm-4.273-3.353-.932.261-.7-2.519.932-.261Zm2.016-.547-.932.261-.7-2.519.932-.261Z" fill="#00532c" stroke="#00532c" stroke-miterlimit="10" stroke-width="0.312"/>
        <path id="Path_7334" data-name="Path 7334" d="M1896.666,596.191l1.062,3.036,4.448-1.246.321,1.144-4.35,1.219,1.642,4.479-1.259.352-1.642-4.478-5.4,1.512-.321-1.145,5.3-1.484-1.063-3.036-5.036,1.411-.321-1.145,4.939-1.383-1.21-3.436,1.276-.357,1.193,3.44,3.99-1.118.321,1.145Z" fill="#00532c" stroke="#00532c" stroke-miterlimit="10" stroke-width="0.312"/>
        <path id="Path_7335" data-name="Path 7335" d="M1856.345,635.659l-1.236-.571c1.916-4.117,2.353-4.822,1.8-6.8l-.783-2.8,1.341-.376.783,2.8C1858.973,630.5,1858.261,631.542,1856.345,635.659Zm4.2-10.84.965-.959a61.909,61.909,0,0,1,6.489,7.548l-1.085.85A62.975,62.975,0,0,0,1860.54,624.819Z" fill="#00532c" stroke="#00532c" stroke-miterlimit="10" stroke-width="0.312"/>
        <path id="Path_7336" data-name="Path 7336" d="M1877.82,631.389l-1.069-.794c3.292-4.238,3.9-5.521,3.157-8.31l-8.046,2.254-.325-1.161,9.338-2.616.32,1.145C1882.167,625.374,1881.176,627.062,1877.82,631.389Zm.867-13.965.344,1.227-7.114,1.993-.344-1.227Z" fill="#00532c" stroke="#00532c" stroke-miterlimit="10" stroke-width="0.312"/>
        <path id="Path_7337" data-name="Path 7337" d="M1892.451,626.426c.238.85.017,1.194-.833,1.432a7.131,7.131,0,0,1-1.2.265l-.48-1.083a5.362,5.362,0,0,0,1.128-.192c.262-.074.351-.257.269-.552l-1.068-3.81-1.782.5a14.575,14.575,0,0,1,.49,5.965l-1.119-.656a14.412,14.412,0,0,0-.639-5.994l-2.089-7.457,3.778-1.059Zm-4.259-11.364-1.783.5.752,2.682,1.782-.5Zm1.026,3.663-1.782.5.778,2.78,1.783-.5Zm8.943,4.725a12.549,12.549,0,0,0,3.8.33l-.373,1.251a15.368,15.368,0,0,1-4.076-.639,13.637,13.637,0,0,1-3.673,3.2l-.9-.807a11.1,11.1,0,0,0,3.565-2.762,8.351,8.351,0,0,1-1.991-1.189,9.747,9.747,0,0,1-1.26,1.923l-.907-.593a8.461,8.461,0,0,0,1.756-3.049c.05-.137.081-.34.157-.573l.064-.212.045-.154-1.553.435-1.086-3.875c-.133.407-.282.819-.494,1.32l-.973-.575a13.08,13.08,0,0,0,.923-5.267l1.146,0c.007.4-.028.783-.037,1.191v.248l5.92-1.658.266.948-6.313,1.768c-.055.245-.107.56-.142.816-.019.058-.035.186-.05.261l5.822-1.631,1.315,4.693-3.614,1.013a6.5,6.5,0,0,1-.213,1.065l3.581-1,.673.323A11.948,11.948,0,0,1,1898.161,623.45Zm-1.148-8.126-4.252,1.191.284,1.014,4.252-1.191Zm-3.734,3.039.3,1.063,4.252-1.191-.3-1.063Zm3.864,4.791a8.776,8.776,0,0,0,.932-2.025l-3.091.866A8.434,8.434,0,0,0,1897.143,623.154Z" fill="#00532c" stroke="#00532c" stroke-miterlimit="10" stroke-width="0.312"/>
      </g>
    </g>
    <rect id="Rectangle_449" data-name="Rectangle 449" width="296" height="601" rx="10" transform="translate(665.827 541.206) rotate(90)" fill="none"/>
  </g>
</svg>
