<svg xmlns="http://www.w3.org/2000/svg" width="112.975" height="112.975" viewBox="0 0 112.975 112.975">
  <g id="Group_1007" data-name="Group 1007" transform="translate(-8597.557 -8387.74)">
    <circle id="Ellipse_94" data-name="Ellipse 94" cx="56.487" cy="56.487" r="56.487" transform="translate(8597.557 8387.74)" fill="#d7d7d7"/>
    <g id="Group_1006" data-name="Group 1006">
      <g id="Group_1004" data-name="Group 1004">
        <path id="Path_3243" data-name="Path 3243" d="M8649.757,8423.035a20.275,20.275,0,0,1-1.575,8.047,33.665,33.665,0,0,1-5.935,8.583,119.06,119.06,0,0,1-12.406,11.6l-.134.134a.059.059,0,0,0,.067.067h17.7a2.4,2.4,0,0,1,2.414,2.414v2.95a2.4,2.4,0,0,1-2.414,2.414h-28.1a2.389,2.389,0,0,1-1.71-.671,2.3,2.3,0,0,1-.7-1.743v-2.95a4.713,4.713,0,0,1,1.945-3.957,139.324,139.324,0,0,0,13.243-11.467,34.432,34.432,0,0,0,6.17-7.846,14.52,14.52,0,0,0,1.575-6.571,7.518,7.518,0,0,0-2.046-5.666q-2.045-1.978-6.135-1.979-4.963,0-11.132,3.487a1.866,1.866,0,0,1-1.643.167,1.9,1.9,0,0,1-1.173-1.173l-1.007-3.085a3.543,3.543,0,0,1,.067-2.045,2.5,2.5,0,0,1,1.207-1.509,31.9,31.9,0,0,1,15.088-3.822q8.046,0,12.339,3.855T8649.757,8423.035Z" fill="#fff"/>
        <path id="Path_3244" data-name="Path 3244" d="M8687.615,8453.814q-4.762,6.1-14.451,6.1t-14.45-6.1q-4.762-6.1-4.762-19.614t4.762-19.647q4.761-6.136,14.45-6.136t14.451,6.136q4.761,6.135,4.761,19.647T8687.615,8453.814Zm-7.31-33.764a8.246,8.246,0,0,0-14.283,0q-2.348,4.125-2.347,14.149t2.347,14.149a8.246,8.246,0,0,0,14.283,0q2.347-4.125,2.348-14.149T8680.306,8420.051Z" fill="#fff"/>
      </g>
      <g id="Group_1005" data-name="Group 1005">
        <path id="Path_3245" data-name="Path 3245" d="M8624.639,8484.217a.752.752,0,0,1-.536-.21.719.719,0,0,1-.221-.547v-14.1a.79.79,0,0,1,.221-.567,1,1,0,0,1,.557-.294,34.458,34.458,0,0,1,3.951-.21,7.679,7.679,0,0,1,4.844,1.281,4.479,4.479,0,0,1,1.607,3.72,5.145,5.145,0,0,1-1.555,4.066,6.788,6.788,0,0,1-4.623,1.377q-.778,0-1.934-.085a.093.093,0,0,0-.105.105v4.707a.75.75,0,0,1-.21.536.718.718,0,0,1-.546.221Zm2.206-13.345v5.338q0,.126.105.126a10.713,10.713,0,0,0,1.66.105,4.074,4.074,0,0,0,2.658-.757,2.674,2.674,0,0,0,.914-2.186q0-2.856-3.572-2.857a10.853,10.853,0,0,0-1.66.1Q8626.845,8470.746,8626.845,8470.872Z" fill="#fff"/>
        <path id="Path_3246" data-name="Path 3246" d="M8649.993,8482.241a8.554,8.554,0,0,1-11.422,0,9.147,9.147,0,0,1,0-11.768,8.554,8.554,0,0,1,11.422,0,9.182,9.182,0,0,1,0,11.768Zm-2.228-10a4.873,4.873,0,0,0-6.978,0,7.212,7.212,0,0,0,0,8.238,4.873,4.873,0,0,0,6.978,0,7.212,7.212,0,0,0,0-8.238Z" fill="#fff"/>
        <path id="Path_3247" data-name="Path 3247" d="M8655.762,8484.217a.787.787,0,0,1-.547-.21.7.7,0,0,1-.231-.547v-14.205a.711.711,0,0,1,.231-.536.764.764,0,0,1,.547-.221h1.765a.765.765,0,0,1,.547.221.714.714,0,0,1,.23.536v14.205a.728.728,0,0,1-.221.536.751.751,0,0,1-.557.221Z" fill="#fff"/>
        <path id="Path_3248" data-name="Path 3248" d="M8662.886,8484.217a.752.752,0,0,1-.536-.21.719.719,0,0,1-.221-.547v-14.205a.748.748,0,0,1,.21-.536.719.719,0,0,1,.547-.221h1.407a1.267,1.267,0,0,1,1.178.651l6.052,10.023c0,.016.007.021.021.021s.021-.006.021-.021v-9.918a.711.711,0,0,1,.231-.536.761.761,0,0,1,.546-.221h1.43a.754.754,0,0,1,.756.757v14.205a.754.754,0,0,1-.756.757h-1.43a1.218,1.218,0,0,1-1.155-.651l-6.073-10.024c0-.014-.008-.02-.021-.02s-.021.006-.021.02v9.919a.732.732,0,0,1-.221.536.755.755,0,0,1-.558.221Z" fill="#fff"/>
        <path id="Path_3249" data-name="Path 3249" d="M8678.121,8471a.748.748,0,0,1-.536-.211.719.719,0,0,1-.22-.546v-.987a.752.752,0,0,1,.756-.757h10.55a.754.754,0,0,1,.756.757v.987a.754.754,0,0,1-.756.757h-3.636a.093.093,0,0,0-.105.1v12.356a.715.715,0,0,1-.23.536.765.765,0,0,1-.547.221h-1.513a.789.789,0,0,1-.547-.21.7.7,0,0,1-.23-.547V8471.1a.093.093,0,0,0-.105-.1Z" fill="#fff"/>
      </g>
    </g>
  </g>
</svg>
