<svg xmlns="http://www.w3.org/2000/svg" width="112.975" height="112.975" viewBox="0 0 112.975 112.975">
  <g id="Group_1039" data-name="Group 1039" transform="translate(-8597.557 -8885.781)">
    <circle id="Ellipse_102" data-name="Ellipse 102" cx="56.487" cy="56.487" r="56.487" transform="translate(8597.557 8885.781)" fill="#d7d7d7"/>
    <g id="Group_1038" data-name="Group 1038">
      <g id="Group_1036" data-name="Group 1036">
        <path id="Path_3293" data-name="Path 3293" d="M8619.313,8914.907a2.386,2.386,0,0,1-1.71-.671,2.3,2.3,0,0,1-.7-1.743v-2.951a2.388,2.388,0,0,1,.67-1.71,2.3,2.3,0,0,1,1.744-.7h27.292a2.4,2.4,0,0,1,2.414,2.414v2.951a5.321,5.321,0,0,1-1.743,4.09L8635,8927.647a.194.194,0,0,0-.066.135.058.058,0,0,0,.066.066h1.14q6.3,0,9.925,3.588t3.621,10.025q0,7.913-4.794,12.2t-13.714,4.292a29.307,29.307,0,0,1-12.473-2.549,2.733,2.733,0,0,1-1.342-1.408,2.82,2.82,0,0,1-.066-2.012l.938-2.95a1.812,1.812,0,0,1,1.174-1.207,2.23,2.23,0,0,1,1.776.067,22.99,22.99,0,0,0,9.59,2.347q4.559,0,7.007-2.213a8.146,8.146,0,0,0,2.448-6.37,6,6,0,0,0-2.783-5.532q-2.783-1.711-9.757-1.71h-1.743a2.329,2.329,0,0,1-1.71-.7,2.408,2.408,0,0,1-.7-1.777V8930a5.108,5.108,0,0,1,1.811-4.091l11.869-10.8a.2.2,0,0,0,.066-.135.059.059,0,0,0-.066-.066Z" fill="#fff"/>
        <path id="Path_3294" data-name="Path 3294" d="M8688.988,8951.855q-4.762,6.1-14.451,6.1t-14.45-6.1q-4.762-6.1-4.762-19.614t4.762-19.647q4.761-6.136,14.45-6.136t14.451,6.136q4.761,6.135,4.761,19.647T8688.988,8951.855Zm-7.31-33.764a8.245,8.245,0,0,0-14.282,0q-2.35,4.125-2.348,14.149t2.348,14.149a8.245,8.245,0,0,0,14.282,0q2.347-4.125,2.348-14.149T8681.679,8918.092Z" fill="#fff"/>
      </g>
      <g id="Group_1037" data-name="Group 1037">
        <path id="Path_3295" data-name="Path 3295" d="M8624.639,8982.257a.752.752,0,0,1-.536-.21.719.719,0,0,1-.221-.547v-14.1a.79.79,0,0,1,.221-.567,1,1,0,0,1,.557-.294,34.458,34.458,0,0,1,3.951-.21,7.679,7.679,0,0,1,4.844,1.281,4.479,4.479,0,0,1,1.607,3.72,5.149,5.149,0,0,1-1.555,4.067,6.793,6.793,0,0,1-4.623,1.376q-.778,0-1.934-.084a.093.093,0,0,0-.105.1v4.707a.75.75,0,0,1-.21.536.718.718,0,0,1-.546.221Zm2.206-13.345v5.338q0,.126.105.126a10.713,10.713,0,0,0,1.66.105,4.08,4.08,0,0,0,2.658-.757,2.674,2.674,0,0,0,.914-2.186q0-2.856-3.572-2.857a10.853,10.853,0,0,0-1.66.1Q8626.845,8968.786,8626.845,8968.912Z" fill="#fff"/>
        <path id="Path_3296" data-name="Path 3296" d="M8649.993,8980.281a8.554,8.554,0,0,1-11.422,0,9.147,9.147,0,0,1,0-11.768,8.554,8.554,0,0,1,11.422,0,9.182,9.182,0,0,1,0,11.768Zm-2.228-10a4.873,4.873,0,0,0-6.978,0,7.212,7.212,0,0,0,0,8.238,4.873,4.873,0,0,0,6.978,0,7.212,7.212,0,0,0,0-8.238Z" fill="#fff"/>
        <path id="Path_3297" data-name="Path 3297" d="M8655.762,8982.257a.787.787,0,0,1-.547-.21.7.7,0,0,1-.231-.547v-14.205a.711.711,0,0,1,.231-.536.764.764,0,0,1,.547-.221h1.765a.765.765,0,0,1,.547.221.714.714,0,0,1,.23.536V8981.5a.728.728,0,0,1-.221.536.751.751,0,0,1-.557.221Z" fill="#fff"/>
        <path id="Path_3298" data-name="Path 3298" d="M8662.886,8982.257a.752.752,0,0,1-.536-.21.719.719,0,0,1-.221-.547v-14.205a.748.748,0,0,1,.21-.536.719.719,0,0,1,.547-.221h1.407a1.267,1.267,0,0,1,1.178.651l6.052,10.023a.019.019,0,0,0,.021.021c.014,0,.021-.007.021-.021v-9.918a.711.711,0,0,1,.231-.536.761.761,0,0,1,.546-.221h1.43a.754.754,0,0,1,.756.757V8981.5a.754.754,0,0,1-.756.757h-1.43a1.218,1.218,0,0,1-1.155-.651l-6.073-10.024a.019.019,0,0,0-.021-.021.018.018,0,0,0-.021.021v9.919a.732.732,0,0,1-.221.536.755.755,0,0,1-.558.221Z" fill="#fff"/>
        <path id="Path_3299" data-name="Path 3299" d="M8678.121,8969.039a.748.748,0,0,1-.536-.211.719.719,0,0,1-.22-.546v-.987a.752.752,0,0,1,.756-.757h10.55a.754.754,0,0,1,.756.757v.987a.754.754,0,0,1-.756.757h-3.636a.093.093,0,0,0-.105.1V8981.5a.715.715,0,0,1-.23.536.765.765,0,0,1-.547.221h-1.513a.789.789,0,0,1-.547-.21.7.7,0,0,1-.23-.547v-12.356a.093.093,0,0,0-.105-.1Z" fill="#fff"/>
      </g>
    </g>
  </g>
</svg>
