<svg xmlns="http://www.w3.org/2000/svg" width="112.975" height="112.975" viewBox="0 0 112.975 112.975">
  <g id="Group_999" data-name="Group 999" transform="translate(-8268.8 -8387.74)">
    <circle id="Ellipse_92" data-name="Ellipse 92" cx="56.487" cy="56.487" r="56.487" transform="translate(8268.8 8387.74)" fill="#d7d7d7"/>
    <g id="Group_998" data-name="Group 998">
      <g id="Group_996" data-name="Group 996">
        <path id="Path_3231" data-name="Path 3231" d="M8310.54,8457.972a2.552,2.552,0,0,1-1.442-1.341,2.927,2.927,0,0,1-.234-2.079l.8-3.018a2.016,2.016,0,0,1,1.106-1.273,2.074,2.074,0,0,1,1.71-.067,25.112,25.112,0,0,0,9.254,2.012q10.929,0,10.863-9.925,0-8.18-7.846-8.181a9.972,9.972,0,0,0-5.23,1.408,8.722,8.722,0,0,1-4.358,1.408h-3.354a2.252,2.252,0,0,1-1.643-.7,2.327,2.327,0,0,1-.7-1.71l1.207-23a2.582,2.582,0,0,1,.771-1.71,2.41,2.41,0,0,1,1.776-.7H8337.5a2.4,2.4,0,0,1,2.414,2.414v2.951a2.4,2.4,0,0,1-2.414,2.414h-17.7a.3.3,0,0,0-.336.335l-.536,11.2a.06.06,0,0,0,.067.067.194.194,0,0,0,.134-.067,15.931,15.931,0,0,1,7.376-1.609q7.444,0,11.534,4.023t4.091,11.467q0,17.638-20.117,17.637A31.061,31.061,0,0,1,8310.54,8457.972Z" fill="#fff"/>
      </g>
      <g id="Group_997" data-name="Group 997">
        <path id="Path_3232" data-name="Path 3232" d="M8294.269,8484.217a.752.752,0,0,1-.536-.21.719.719,0,0,1-.221-.547v-14.1a.79.79,0,0,1,.221-.567,1,1,0,0,1,.557-.294,34.458,34.458,0,0,1,3.951-.21,7.679,7.679,0,0,1,4.844,1.281,4.479,4.479,0,0,1,1.607,3.72,5.145,5.145,0,0,1-1.555,4.066,6.788,6.788,0,0,1-4.623,1.377q-.778,0-1.934-.085a.093.093,0,0,0-.105.105v4.707a.75.75,0,0,1-.21.536.72.72,0,0,1-.546.221Zm2.206-13.345v5.338q0,.126.105.126a10.7,10.7,0,0,0,1.66.105,4.074,4.074,0,0,0,2.658-.757,2.675,2.675,0,0,0,.915-2.186q0-2.856-3.573-2.857a10.844,10.844,0,0,0-1.66.1Q8296.475,8470.746,8296.475,8470.872Z" fill="#fff"/>
        <path id="Path_3233" data-name="Path 3233" d="M8319.623,8482.241a8.554,8.554,0,0,1-11.422,0,9.147,9.147,0,0,1,0-11.768,8.554,8.554,0,0,1,11.422,0,9.182,9.182,0,0,1,0,11.768Zm-2.227-10a4.875,4.875,0,0,0-6.979,0,7.212,7.212,0,0,0,0,8.238,4.875,4.875,0,0,0,6.979,0,7.212,7.212,0,0,0,0-8.238Z" fill="#fff"/>
        <path id="Path_3234" data-name="Path 3234" d="M8325.392,8484.217a.787.787,0,0,1-.547-.21.7.7,0,0,1-.231-.547v-14.205a.711.711,0,0,1,.231-.536.764.764,0,0,1,.547-.221h1.765a.765.765,0,0,1,.547.221.714.714,0,0,1,.23.536v14.205a.728.728,0,0,1-.221.536.751.751,0,0,1-.557.221Z" fill="#fff"/>
        <path id="Path_3235" data-name="Path 3235" d="M8332.516,8484.217a.756.756,0,0,1-.537-.21.722.722,0,0,1-.22-.547v-14.205a.748.748,0,0,1,.21-.536.719.719,0,0,1,.547-.221h1.407a1.267,1.267,0,0,1,1.178.651l6.052,10.023c0,.016.007.021.021.021s.021-.006.021-.021v-9.918a.711.711,0,0,1,.231-.536.761.761,0,0,1,.546-.221h1.43a.754.754,0,0,1,.756.757v14.205a.754.754,0,0,1-.756.757h-1.43a1.218,1.218,0,0,1-1.155-.651l-6.073-10.024c0-.014-.008-.02-.021-.02s-.021.006-.021.02v9.919a.732.732,0,0,1-.221.536.755.755,0,0,1-.558.221Z" fill="#fff"/>
        <path id="Path_3236" data-name="Path 3236" d="M8347.751,8471a.748.748,0,0,1-.536-.211.719.719,0,0,1-.22-.546v-.987a.752.752,0,0,1,.756-.757h10.55a.754.754,0,0,1,.756.757v.987a.754.754,0,0,1-.756.757h-3.636a.093.093,0,0,0-.105.1v12.356a.715.715,0,0,1-.23.536.765.765,0,0,1-.547.221h-1.513a.789.789,0,0,1-.547-.21.7.7,0,0,1-.23-.547V8471.1a.093.093,0,0,0-.105-.1Z" fill="#fff"/>
      </g>
    </g>
  </g>
</svg>
