<svg xmlns="http://www.w3.org/2000/svg" width="127.499" height="129.885" viewBox="0 0 127.499 129.885">
  <g id="Group_1944" data-name="Group 1944" transform="translate(-62.663 -3771.334)">
    <path id="Path_2780" data-name="Path 2780" d="M8967.895,8397.029a.241.241,0,0,0-.24-.221h-.212c-1.71-.374-4.041-.886-5.243-2.437a6.95,6.95,0,0,1-1.187-2.591,39.4,39.4,0,0,1-.861-5.166.242.242,0,0,0-.162-.2.245.245,0,0,0-.1-.012.232.232,0,0,0-.1.011.243.243,0,0,0-.164.194c-.009.061-.007,4.984-2.065,7.978-1.059,1.54-3.117,1.869-5.055,2.222h-.288a.243.243,0,0,0-.241.227.274.274,0,0,0,0,.04.274.274,0,0,0,0,.04.242.242,0,0,0,.241.226h.288c1.82.332,4.455.655,5.271,2.212,1.188,2.268,1.84,7.926,1.849,7.988a.245.245,0,0,0,.164.2.248.248,0,0,0,.1.01l.024,0a.241.241,0,0,0,.24-.212c.008-.059.861-5.824,1.94-7.768.908-1.633,4.427-1.942,5.352-2.428h.212a.24.24,0,0,0,.24-.22.121.121,0,0,0,0-.046A.121.121,0,0,0,8967.895,8397.029Z" transform="translate(-8883 -4610.266)" fill="#fcee21"/>
    <path id="Path_2781" data-name="Path 2781" d="M8977.09,8503.752a.174.174,0,0,0-.174-.158h-.153c-1.233-.27-2.916-.64-3.781-1.759a4.994,4.994,0,0,1-.857-1.87,28.546,28.546,0,0,1-.622-3.727.175.175,0,0,0-.117-.144.17.17,0,0,0-.073-.008.167.167,0,0,0-.072.008.175.175,0,0,0-.118.141c-.006.044,0,3.6-1.489,5.755-.765,1.11-2.25,1.349-3.646,1.6h-.208a.175.175,0,0,0-.175.163.147.147,0,0,0,0,.029.146.146,0,0,0,0,.029.175.175,0,0,0,.175.162h.208c1.313.239,3.214.473,3.8,1.6.856,1.636,1.328,5.718,1.334,5.763a.174.174,0,0,0,.119.141.161.161,0,0,0,.071.008h.018a.156.156,0,0,0,.056-.01.172.172,0,0,0,.117-.143c.006-.043.622-4.2,1.4-5.6.653-1.178,3.192-1.4,3.859-1.751h.153a.174.174,0,0,0,.174-.158.188.188,0,0,0,0-.033A.2.2,0,0,0,8977.09,8503.752Z" transform="translate(-8883 -4610.266)" fill="#fcee21"/>
    <path id="Path_2783" data-name="Path 2783" d="M9073.16,8394.729a.3.3,0,0,0-.3-.271h-.263c-2.112-.462-4.992-1.094-6.477-3.012a8.6,8.6,0,0,1-1.467-3.2,48.84,48.84,0,0,1-1.065-6.382.3.3,0,0,0-.2-.245.293.293,0,0,0-.126-.016.3.3,0,0,0-.325.255c-.012.074-.01,6.158-2.552,9.855-1.309,1.9-3.852,2.31-6.245,2.745h-.355a.3.3,0,0,0-.3.279.283.283,0,0,0,0,.05.272.272,0,0,0,0,.049.3.3,0,0,0,.3.28h.355c2.249.41,5.5.809,6.513,2.731,1.467,2.8,2.272,9.792,2.284,9.869a.3.3,0,0,0,.2.24.293.293,0,0,0,.123.013l.03,0a.293.293,0,0,0,.1-.016.3.3,0,0,0,.2-.245c.01-.073,1.065-7.2,2.4-9.6,1.12-2.018,5.468-2.4,6.609-3h.263a.3.3,0,0,0,.3-.272.274.274,0,0,0,0-.057A.284.284,0,0,0,9073.16,8394.729Z" transform="translate(-8883 -4610.266)" fill="#fcee21"/>
    <path id="Path_2784" data-name="Path 2784" d="M8969.118,8491.18a.357.357,0,0,0-.355-.324h-.312c-2.521-.551-5.954-1.306-7.724-3.592a10.245,10.245,0,0,1-1.749-3.816,58.21,58.21,0,0,1-1.27-7.609.355.355,0,0,0-.238-.292.7.7,0,0,0-.3,0,.357.357,0,0,0-.241.286c-.013.089-.011,7.343-3.042,11.751-1.56,2.268-4.593,2.753-7.445,3.273h-.425a.356.356,0,0,0-.355.333.391.391,0,0,0,0,.059.4.4,0,0,0,0,.06.356.356,0,0,0,.355.333h.425c2.681.489,6.563.964,7.764,3.258,1.749,3.34,2.71,11.675,2.724,11.767a.355.355,0,0,0,.389.3.218.218,0,0,0,.036,0,.355.355,0,0,0,.353-.311c.011-.087,1.27-8.579,2.86-11.442,1.336-2.405,6.52-2.862,7.882-3.575h.312a.357.357,0,0,0,.355-.324.4.4,0,0,0,0-.068A.388.388,0,0,0,8969.118,8491.18Z" transform="translate(-8883 -4610.266)" fill="#fcee21"/>
  </g>
</svg>
