<svg xmlns="http://www.w3.org/2000/svg" width="119.842" height="119.842" viewBox="0 0 119.842 119.842">
  <g id="Group_845" data-name="Group 845" transform="translate(-8951.053 -8385.109)">
    <circle id="Ellipse_76" data-name="Ellipse 76" cx="56.487" cy="56.487" r="56.487" transform="translate(8954.486 8388.542)" fill="#eb5a24" stroke="#eb5a24" stroke-miterlimit="10" stroke-width="6.867"/>
    <g id="Group_844" data-name="Group 844">
      <g id="Group_842" data-name="Group 842">
        <path id="Path_2788" data-name="Path 2788" d="M8974.558,8429.8l-1.408-3.42a3.56,3.56,0,0,1-.168-2.111,3.062,3.062,0,0,1,1.04-1.778l11.734-10.93a6.263,6.263,0,0,1,4.292-1.677h4.962a2.4,2.4,0,0,1,2.414,2.414v45.331a2.4,2.4,0,0,1-2.414,2.414h-4.962a2.507,2.507,0,0,1-1.744-.671,2.242,2.242,0,0,1-.737-1.743v-36.479l-.067-.067-.066.067-10.193,9.321a1.565,1.565,0,0,1-1.542.369A1.536,1.536,0,0,1,8974.558,8429.8Z" fill="#ff0"/>
        <path id="Path_2789" data-name="Path 2789" d="M9040.918,8454.615q-4.762,6.1-14.451,6.1t-14.45-6.1q-4.762-6.1-4.762-19.614t4.762-19.648q4.761-6.135,14.45-6.136t14.451,6.136q4.761,6.136,4.761,19.648T9040.918,8454.615Zm-7.31-33.764a8.246,8.246,0,0,0-14.283,0q-2.348,4.124-2.347,14.149t2.347,14.149a8.246,8.246,0,0,0,14.283,0q2.347-4.125,2.348-14.149T9033.608,8420.852Z" fill="#ff0"/>
      </g>
      <g id="Group_843" data-name="Group 843">
        <path id="Path_2790" data-name="Path 2790" d="M8978.967,8485.018a.752.752,0,0,1-.536-.21.719.719,0,0,1-.221-.547v-14.1a.79.79,0,0,1,.221-.567,1,1,0,0,1,.557-.294,34.458,34.458,0,0,1,3.951-.21,7.679,7.679,0,0,1,4.844,1.281,4.479,4.479,0,0,1,1.607,3.72,5.145,5.145,0,0,1-1.555,4.066,6.788,6.788,0,0,1-4.623,1.377q-.778,0-1.934-.085a.093.093,0,0,0-.105.105v4.707a.75.75,0,0,1-.21.536.72.72,0,0,1-.546.221Zm2.206-13.345v5.338q0,.126.105.126a10.7,10.7,0,0,0,1.66.105,4.074,4.074,0,0,0,2.658-.757,2.674,2.674,0,0,0,.914-2.186q0-2.855-3.572-2.857a10.844,10.844,0,0,0-1.66.1Q8981.173,8471.547,8981.173,8471.673Z" fill="#ff0"/>
        <path id="Path_2791" data-name="Path 2791" d="M9004.321,8483.042a8.554,8.554,0,0,1-11.422,0,9.147,9.147,0,0,1,0-11.768,8.554,8.554,0,0,1,11.422,0,9.182,9.182,0,0,1,0,11.768Zm-2.228-10a4.873,4.873,0,0,0-6.978,0,7.212,7.212,0,0,0,0,8.238,4.873,4.873,0,0,0,6.978,0,7.212,7.212,0,0,0,0-8.238Z" fill="#ff0"/>
        <path id="Path_2792" data-name="Path 2792" d="M9010.09,8485.018a.787.787,0,0,1-.547-.21.7.7,0,0,1-.231-.547v-14.205a.711.711,0,0,1,.231-.536.764.764,0,0,1,.547-.221h1.764a.766.766,0,0,1,.548.221.714.714,0,0,1,.23.536v14.205a.728.728,0,0,1-.221.536.752.752,0,0,1-.558.221Z" fill="#ff0"/>
        <path id="Path_2793" data-name="Path 2793" d="M9017.214,8485.018a.752.752,0,0,1-.536-.21.719.719,0,0,1-.221-.547v-14.205a.748.748,0,0,1,.21-.536.719.719,0,0,1,.547-.221h1.407a1.267,1.267,0,0,1,1.178.651l6.052,10.023a.019.019,0,0,0,.021.021c.014,0,.021-.007.021-.021v-9.918a.711.711,0,0,1,.231-.536.761.761,0,0,1,.546-.221h1.43a.754.754,0,0,1,.756.757v14.205a.754.754,0,0,1-.756.757h-1.43a1.218,1.218,0,0,1-1.155-.651l-6.073-10.024a.019.019,0,0,0-.021-.021.018.018,0,0,0-.021.021v9.919a.732.732,0,0,1-.221.536.755.755,0,0,1-.558.221Z" fill="#ff0"/>
        <path id="Path_2794" data-name="Path 2794" d="M9032.449,8471.8a.753.753,0,0,1-.536-.211.719.719,0,0,1-.22-.546v-.987a.752.752,0,0,1,.756-.757H9043a.754.754,0,0,1,.756.757v.987a.754.754,0,0,1-.756.757h-3.636a.093.093,0,0,0-.105.1v12.356a.715.715,0,0,1-.23.536.765.765,0,0,1-.547.221h-1.513a.789.789,0,0,1-.547-.21.7.7,0,0,1-.23-.547V8471.9a.093.093,0,0,0-.105-.1Z" fill="#ff0"/>
      </g>
    </g>
  </g>
</svg>
