<svg xmlns="http://www.w3.org/2000/svg" width="127.498" height="125.367" viewBox="0 0 127.498 125.367">
  <g id="Group_1945" data-name="Group 1945" transform="translate(-222.946 -3771.334)">
    <path id="Path_2782" data-name="Path 2782" d="M9232.774,8496.979a.176.176,0,0,0-.175-.158h-.152c-1.234-.271-2.916-.64-3.783-1.76a5.042,5.042,0,0,1-.856-1.869,28.573,28.573,0,0,1-.622-3.727.174.174,0,0,0-.116-.143.162.162,0,0,0-.074-.009.167.167,0,0,0-.072.008.177.177,0,0,0-.118.14c-.006.044,0,3.6-1.489,5.756-.765,1.111-2.249,1.349-3.647,1.6h-.207a.174.174,0,0,0-.175.163.274.274,0,0,0,0,.028c0,.01,0,.02,0,.029a.176.176,0,0,0,.175.163h.207c1.314.239,3.215.472,3.8,1.595.857,1.636,1.327,5.718,1.334,5.763a.18.18,0,0,0,.118.142.2.2,0,0,0,.072.008h.018a.19.19,0,0,0,.057-.009.176.176,0,0,0,.116-.144c.006-.042.622-4.2,1.4-5.6.655-1.178,3.194-1.4,3.861-1.751h.152a.177.177,0,0,0,.175-.159.188.188,0,0,0,0-.033A.188.188,0,0,0,9232.774,8496.979Z" transform="translate(-8883 -4610.266)" fill="#fcee21"/>
    <path id="Path_2785" data-name="Path 2785" d="M9128.178,8397.029a.243.243,0,0,0-.241-.221h-.212c-1.711-.374-4.042-.886-5.242-2.437a6.951,6.951,0,0,1-1.188-2.591,39.4,39.4,0,0,1-.861-5.166.241.241,0,0,0-.161-.2.251.251,0,0,0-.1-.012.231.231,0,0,0-.1.011.241.241,0,0,0-.163.194c-.009.061-.008,4.984-2.066,7.978-1.059,1.54-3.118,1.869-5.054,2.222h-.288a.243.243,0,0,0-.242.227.274.274,0,0,0,0,.04.271.271,0,0,0,0,.04.242.242,0,0,0,.242.226h.288c1.82.332,4.455.655,5.27,2.212,1.188,2.268,1.84,7.926,1.851,7.988a.243.243,0,0,0,.164.2.24.24,0,0,0,.1.01l.025,0a.227.227,0,0,0,.076-.013.242.242,0,0,0,.163-.2c.008-.059.861-5.824,1.941-7.768.907-1.633,4.426-1.942,5.351-2.428h.212a.242.242,0,0,0,.241-.22.36.36,0,0,0,0-.046A.36.36,0,0,0,9128.178,8397.029Z" transform="translate(-8883 -4610.266)" fill="#fcee21"/>
    <path id="Path_2786" data-name="Path 2786" d="M9233.443,8394.729a.3.3,0,0,0-.3-.271h-.262c-2.113-.462-4.993-1.094-6.477-3.012a8.564,8.564,0,0,1-1.467-3.2,48.662,48.662,0,0,1-1.065-6.382.3.3,0,0,0-.2-.245.3.3,0,0,0-.126-.016.3.3,0,0,0-.326.255c-.011.074-.009,6.158-2.552,9.855-1.308,1.9-3.852,2.31-6.244,2.745h-.355a.3.3,0,0,0-.3.279.283.283,0,0,0,0,.05.272.272,0,0,0,0,.049.3.3,0,0,0,.3.28h.355c2.248.41,5.5.809,6.511,2.731,1.468,2.8,2.273,9.792,2.285,9.869a.3.3,0,0,0,.2.24.3.3,0,0,0,.123.013l.03,0a.289.289,0,0,0,.1-.016.3.3,0,0,0,.2-.245c.009-.073,1.065-7.2,2.4-9.6,1.12-2.018,5.469-2.4,6.61-3h.262a.3.3,0,0,0,.3-.272.366.366,0,0,0,0-.057A.378.378,0,0,0,9233.443,8394.729Z" transform="translate(-8883 -4610.266)" fill="#fcee21"/>
    <path id="Path_2787" data-name="Path 2787" d="M9129.4,8491.18a.357.357,0,0,0-.355-.324h-.312c-2.52-.551-5.953-1.306-7.723-3.592a10.246,10.246,0,0,1-1.75-3.816,57.962,57.962,0,0,1-1.269-7.609.355.355,0,0,0-.39-.309.355.355,0,0,0-.389.3c-.013.089-.01,7.343-3.042,11.751-1.56,2.268-4.593,2.753-7.446,3.273h-.424a.357.357,0,0,0-.355.333c0,.02,0,.039,0,.059s0,.04,0,.06a.357.357,0,0,0,.355.333h.424c2.683.489,6.563.964,7.765,3.258,1.75,3.34,2.711,11.675,2.724,11.767a.359.359,0,0,0,.242.286.354.354,0,0,0,.146.016.23.23,0,0,0,.036,0,.355.355,0,0,0,.354-.311c.011-.087,1.269-8.579,2.859-11.442,1.337-2.405,6.521-2.862,7.882-3.575h.313a.357.357,0,0,0,.355-.324.4.4,0,0,0,0-.068A.387.387,0,0,0,9129.4,8491.18Z" transform="translate(-8883 -4610.266)" fill="#fcee21"/>
  </g>
</svg>
