<svg xmlns="http://www.w3.org/2000/svg" width="112.975" height="112.975" viewBox="0 0 112.975 112.975">
  <g id="Group_849" data-name="Group 849" transform="translate(-9117.17 -8388.542)">
    <circle id="Ellipse_77" data-name="Ellipse 77" cx="56.487" cy="56.487" r="56.487" transform="translate(9117.17 8388.542)" fill="#eb5a24"/>
    <g id="Group_848" data-name="Group 848">
      <g id="Group_846" data-name="Group 846">
        <path id="Path_2795" data-name="Path 2795" d="M9158.912,8458.772a2.552,2.552,0,0,1-1.442-1.341,2.927,2.927,0,0,1-.234-2.079l.8-3.018a2.016,2.016,0,0,1,1.106-1.273,2.077,2.077,0,0,1,1.71-.067,25.112,25.112,0,0,0,9.254,2.012q10.929,0,10.863-9.925,0-8.18-7.846-8.181a9.972,9.972,0,0,0-5.23,1.408,8.722,8.722,0,0,1-4.358,1.408h-3.354a2.25,2.25,0,0,1-1.643-.7,2.327,2.327,0,0,1-.7-1.71l1.207-23a2.58,2.58,0,0,1,.771-1.71,2.406,2.406,0,0,1,1.776-.7h24.275a2.4,2.4,0,0,1,2.414,2.414v2.95a2.4,2.4,0,0,1-2.414,2.414h-17.7a.3.3,0,0,0-.336.336l-.536,11.2a.06.06,0,0,0,.067.067.194.194,0,0,0,.134-.067,15.931,15.931,0,0,1,7.376-1.609q7.444,0,11.534,4.023t4.091,11.467q0,17.638-20.117,17.637A31.061,31.061,0,0,1,9158.912,8458.772Z" fill="#ff0"/>
      </g>
      <g id="Group_847" data-name="Group 847">
        <path id="Path_2796" data-name="Path 2796" d="M9142.641,8485.018a.756.756,0,0,1-.537-.21.722.722,0,0,1-.22-.547v-14.1a.794.794,0,0,1,.22-.567,1.014,1.014,0,0,1,.558-.294,34.458,34.458,0,0,1,3.951-.21,7.679,7.679,0,0,1,4.844,1.281,4.479,4.479,0,0,1,1.607,3.72,5.145,5.145,0,0,1-1.555,4.066,6.788,6.788,0,0,1-4.623,1.377q-.778,0-1.934-.085a.093.093,0,0,0-.105.105v4.707a.75.75,0,0,1-.21.536.72.72,0,0,1-.546.221Zm2.206-13.345v5.338q0,.126.105.126a10.7,10.7,0,0,0,1.66.105,4.079,4.079,0,0,0,2.659-.757,2.676,2.676,0,0,0,.913-2.186q0-2.855-3.572-2.857a10.844,10.844,0,0,0-1.66.1Q9144.847,8471.547,9144.847,8471.673Z" fill="#ff0"/>
        <path id="Path_2797" data-name="Path 2797" d="M9168,8483.042a8.554,8.554,0,0,1-11.422,0,9.147,9.147,0,0,1,0-11.768,8.554,8.554,0,0,1,11.422,0,9.182,9.182,0,0,1,0,11.768Zm-2.228-10a4.873,4.873,0,0,0-6.978,0,7.212,7.212,0,0,0,0,8.238,4.873,4.873,0,0,0,6.978,0,7.212,7.212,0,0,0,0-8.238Z" fill="#ff0"/>
        <path id="Path_2798" data-name="Path 2798" d="M9173.764,8485.018a.787.787,0,0,1-.547-.21.707.707,0,0,1-.231-.547v-14.205a.715.715,0,0,1,.231-.536.764.764,0,0,1,.547-.221h1.765a.765.765,0,0,1,.547.221.714.714,0,0,1,.23.536v14.205a.728.728,0,0,1-.221.536.751.751,0,0,1-.557.221Z" fill="#ff0"/>
        <path id="Path_2799" data-name="Path 2799" d="M9180.888,8485.018a.752.752,0,0,1-.536-.21.719.719,0,0,1-.221-.547v-14.205a.748.748,0,0,1,.21-.536.719.719,0,0,1,.547-.221h1.407a1.267,1.267,0,0,1,1.178.651l6.052,10.023a.019.019,0,0,0,.021.021c.014,0,.021-.007.021-.021v-9.918a.711.711,0,0,1,.231-.536.761.761,0,0,1,.546-.221h1.43a.754.754,0,0,1,.756.757v14.205a.754.754,0,0,1-.756.757h-1.43a1.218,1.218,0,0,1-1.155-.651l-6.073-10.024a.019.019,0,0,0-.021-.021.018.018,0,0,0-.021.021v9.919a.732.732,0,0,1-.221.536.755.755,0,0,1-.558.221Z" fill="#ff0"/>
        <path id="Path_2800" data-name="Path 2800" d="M9196.123,8471.8a.753.753,0,0,1-.536-.211.719.719,0,0,1-.22-.546v-.987a.752.752,0,0,1,.756-.757h10.55a.754.754,0,0,1,.756.757v.987a.754.754,0,0,1-.756.757h-3.636a.093.093,0,0,0-.105.1v12.356a.719.719,0,0,1-.23.536.765.765,0,0,1-.547.221h-1.513a.789.789,0,0,1-.547-.21.7.7,0,0,1-.23-.547V8471.9a.093.093,0,0,0-.105-.1Z" fill="#ff0"/>
      </g>
    </g>
  </g>
</svg>
