<svg xmlns="http://www.w3.org/2000/svg" width="279.391" height="55.656" viewBox="0 0 279.391 55.656">
  <g id="Group_1092" data-name="Group 1092" transform="translate(-8266.649 -6490.15)">
    <path id="Path_3562" data-name="Path 3562" d="M8302.86,6534.268v10.267h-4.072v-10.267h-13.04c-1.062,6.608-6.55,9.618-12.568,11.093l-2.419-3.363c2.773-.59,6.255-1.712,8.438-3.482a7.558,7.558,0,0,0,2.42-4.248h-14.575v-3.54h14.811v-3.777h-7.2v-21.537h18.351l-2.6-2.006c2.772-3.482,4.425-7.671,5.782-12.037l3.895.944c-.354,1.121-.768,2.183-1.121,3.245l-.237.708h17.585v3.422h-11.271c.885,1.416,1.594,2.715,2.242,3.954l-3.6,1.77a52.013,52.013,0,0,0-2.891-5.724h-3.6a36.964,36.964,0,0,1-3.6,5.724h15.932v21.537h-6.845v3.777h14.457v3.54Zm-20.712-29.208c-.648-1.711-1.356-3.659-2.183-5.37h-4.484a35.109,35.109,0,0,1-5.253,7.494l-2.713-2.478a39.729,39.729,0,0,0,7.435-13.276l3.776,1.062-1.593,3.776h14.987v3.422h-8.084l1.829,3.9-3.54,1.829Zm23.367,3.482h-26.907v2.95h26.907Zm0,5.959h-26.907v2.95h26.907Zm-26.907,5.959v3.423h26.907v-3.423Zm7.316,10.268h12.628v-3.777h-12.628Z" fill="#00532c" stroke="#00532c" stroke-miterlimit="10" stroke-width="0.787"/>
    <path id="Path_3563" data-name="Path 3563" d="M8370.121,6520.166h-4.249v-3.128h-12.863v19.885h15.224v-13.158h4.131v20.829h-4.131v-3.836h-34.459v3.836h-4.131v-20.829h4.131v13.158h14.869v-19.885h-12.627v3.128h-4.189v-21.184h4.189V6513.2h12.627v-20.18h4.366v20.18h12.863v-14.221h4.249Z" fill="#00532c" stroke="#00532c" stroke-miterlimit="10" stroke-width="0.787"/>
    <path id="Path_3564" data-name="Path 3564" d="M8422.689,6507.243h-14.634c-2.479,4.662-5.96,8.2-13.689,13.631l-2.773-3.6c14.162-9.972,14.339-15.282,14.339-23.248h4.721a31.261,31.261,0,0,1-.886,8.91h17.643v4.012c0,12.51-8.024,22.481-29.148,35.639l-2.6-3.717C8415.077,6526.656,8422.453,6517.923,8422.689,6507.243Zm2.006-7.671h-3.481v-9.028h3.481Zm7.316.059h-3.481V6490.6h3.481Z" fill="#00532c" stroke="#00532c" stroke-miterlimit="10" stroke-width="0.787"/>
    <path id="Path_3565" data-name="Path 3565" d="M8465.758,6543.06l-2.833-3.659c14.988-11.093,18.233-14.81,18.352-24.841h-29.031v-4.189h33.693v4.13C8485.938,6527.01,8481.04,6531.73,8465.758,6543.06Zm15.99-45.907v4.426h-25.667v-4.426Z" fill="#00532c" stroke="#00532c" stroke-miterlimit="10" stroke-width="0.787"/>
    <path id="Path_3566" data-name="Path 3566" d="M8521.158,6541.7l-3.127-3.541c16.049-13.807,22.422-20.534,22.775-34.4h-30.033v-4.6h34.873v3.482C8545.646,6520.106,8537.326,6527.777,8521.158,6541.7Z" fill="#00532c" stroke="#00532c" stroke-miterlimit="10" stroke-width="0.787"/>
  </g>
</svg>
