<svg xmlns="http://www.w3.org/2000/svg" width="530.962" height="162.525" viewBox="0 0 530.962 162.525">
  <g id="Group_1938" data-name="Group 1938" transform="translate(-91.772 -209.157)">
    <g id="Group_1162" data-name="Group 1162" transform="translate(-7106 -4612.799)">
      <g id="Group_1161" data-name="Group 1161">
        <path id="Path_3757" data-name="Path 3757" d="M7417.58,4945.442l-2.772,3.54a35.793,35.793,0,0,1-14.1-12.037h-16.4a30.377,30.377,0,0,1-5.547,7.022H7390.2v-4.662h4.13v4.662h12.1v3.3h-12.1v5.665h20.416v3.481h-44.076v-3.481h19.53v-5.665H7378.52V4944.2a42.45,42.45,0,0,1-8.439,5.723l-2.772-3.186a27.927,27.927,0,0,0,12.744-9.8h-12.037v-3.363h12.037v-19.236h-9.8v-3.3h9.8v-6.314h4.072v6.314h16.344v-6.314h4.072v6.314h10.207v3.3h-10.207v19.236h12.449v3.363h-11.977C7408.376,4940.9,7412.86,4943.5,7417.58,4945.442Zm-17.111-31.1h-16.344v4.248h16.344Zm0,7.435h-16.344v4.248h16.344Zm0,7.434h-16.344v4.367h16.344Z" fill="#00532c" stroke="#00532c" stroke-miterlimit="10" stroke-width="0.787"/>
        <path id="Path_3758" data-name="Path 3758" d="M7476.285,4944.026l-3.127,4.189a58.845,58.845,0,0,1-19.766-22.6v16.639h9.205v3.836h-9.029v11.388h-4.425v-11.388h-8.969v-3.836h9.088v-16.108c-4.014,9.618-10.621,17.466-18.942,23.9l-3.3-3.658c9.323-5.842,16.168-14.693,20.83-24.605H7427.9v-4.072h21.243v-12.037h4.425v12.037h21.6v4.072h-20.3A56.7,56.7,0,0,0,7476.285,4944.026Z" fill="#00532c" stroke="#00532c" stroke-miterlimit="10" stroke-width="0.787"/>
        <path id="Path_3759" data-name="Path 3759" d="M7486.9,4916.706l3.541.767a87.522,87.522,0,0,1-2.065,17.112l-3.54-2.006h-.059A71.346,71.346,0,0,0,7486.9,4916.706Zm5.311-11.978h4.014v53.1h-4.014Zm4.426,11.211,3.068-1.593a38.841,38.841,0,0,1,3.246,7.789l-3.363,1.947h-.119A51.264,51.264,0,0,0,7496.637,4915.939Zm36.82-5.311v3.187h-14.1v3.54h12.509v3.127h-12.509v3.718h15.873v3.3h-34.932v-3.3h15.225v-3.718h-11.684v-3.127h11.684v-3.54h-13.573v-3.187h13.573v-5.9h3.834v5.9Zm-7.672,46.792c-2.418,0-4.9-.118-7.316-.295l-.59-4.189a45.7,45.7,0,0,0,7.021.589c1.063,0,1.594-.589,1.594-1.711v-3.953h-17.111v9.972h-3.836v-26.966h24.842v22.482C7530.389,4956.3,7528.559,4957.42,7525.785,4957.42Zm-16.4-23.366v3.717h17.111v-3.717Zm0,6.785v3.9h17.111v-3.9Z" fill="#00532c" stroke="#00532c" stroke-miterlimit="10" stroke-width="0.787"/>
        <path id="Path_3760" data-name="Path 3760" d="M7562.9,4933.4h6.49v3.54h-10.09v6.314h9.441v3.54h-9.441v11.034h-3.953V4946.8H7546.2v-3.54h9.146v-6.314h-9.854v-3.54h5.959a63.185,63.185,0,0,0-2.064-8.143h-5.134v-3.54h11.093v-6.137h-8.615v-3.541h8.615v-7.316h3.953v7.316h8.851v3.541h-8.851v6.137h10.031v3.54h-3.717A66.085,66.085,0,0,1,7562.9,4933.4Zm-7.67,0h3.893a50.017,50.017,0,0,0,2.538-8.143h-8.438A78.569,78.569,0,0,1,7555.225,4933.4Zm31.272-8.556a55.073,55.073,0,0,1-6.313-.354l-.473-4.013a30.608,30.608,0,0,0,5.547.59c1.357,0,2.006-.708,2.006-2.124v-7.612h-12.45v17.112h15.518l2.065,1.77a54.83,54.83,0,0,1-5.428,16.05h-.059a26.538,26.538,0,0,0,8.084,7.494l-2.42,3.835a48.6,48.6,0,0,1-7.847-7.73,45.3,45.3,0,0,1-7.258,8.5l-2.6-3.3a37.177,37.177,0,0,0,7.553-8.5,47.465,47.465,0,0,1-6.315-14.516h-1.3v25.786h-3.894v-50.155h20.238V4920.6C7591.158,4924.141,7589.979,4924.849,7586.5,4924.849Zm-2.065,18.056a50.96,50.96,0,0,0,3.6-10.858h-8.437A38.926,38.926,0,0,0,7584.432,4942.9Z" fill="#00532c" stroke="#00532c" stroke-miterlimit="10" stroke-width="0.787"/>
      </g>
    </g>
    <line id="Line_231" data-name="Line 231" x2="489.469" transform="translate(130.265 368.682)" stroke-dasharray="1 11" stroke="#80bf00" stroke-linecap="round" stroke-linejoin="round" stroke-width="6" fill="none"/>
    <g id="Group_1164" data-name="Group 1164" transform="translate(-7106 -4612.799)">
      <path id="Path_3761" data-name="Path 3761" d="M7317.749,4913.356a63.232,63.232,0,1,0-17.474,21.564l27.279-.939Z" fill="#eb5a24" fill-rule="evenodd"/>
      <g id="Group_1163" data-name="Group 1163">
        <path id="Path_3762" data-name="Path 3762" d="M7222.133,4905.156a4.624,4.624,0,0,1-5.851-3.788,7.1,7.1,0,0,1,.6-4.775,9.774,9.774,0,0,1,3.724-3.9.181.181,0,0,0,.109-.2l-.581-2.712a.11.11,0,0,0-.148-.095l-3.97.851a.888.888,0,0,1-1.059-.686l-.192-.9a.891.891,0,0,1,.685-1.058l3.971-.85a.111.111,0,0,0,.1-.148l-.389-1.815a.884.884,0,0,1,.11-.67.846.846,0,0,1,.575-.389l1.308-.28a.887.887,0,0,1,1.058.685l.389,1.816a.109.109,0,0,0,.147.1l9.493-2.033a.888.888,0,0,1,1.058.684l.192.9a.887.887,0,0,1-.685,1.059l-9.493,2.033a.109.109,0,0,0-.095.147l.43,2.01c.014.065.061.088.142.071a21,21,0,0,1,2.488-.685,10.574,10.574,0,0,1,7,.452,6.3,6.3,0,0,1,3.426,4.585,6.763,6.763,0,0,1-.711,4.9,9.425,9.425,0,0,1-4.06,3.693.807.807,0,0,1-.688.034,1.068,1.068,0,0,1-.565-.448l-.607-1.061a.773.773,0,0,1-.041-.663,1.051,1.051,0,0,1,.442-.537,6.67,6.67,0,0,0,2.567-2.386,3.872,3.872,0,0,0,.515-2.858,3.582,3.582,0,0,0-2.39-2.882q-.132-.023-.16.085a17,17,0,0,1-3.205,7.917A9.73,9.73,0,0,1,7222.133,4905.156Zm-.826-9.3q-2.457,2.121-1.944,4.519a2.567,2.567,0,0,0,.886,1.6,1.886,1.886,0,0,0,1.592.279,4.659,4.659,0,0,0,.783-.243.163.163,0,0,0,.091-.171l-1.271-5.933C7221.427,4895.827,7221.381,4895.811,7221.307,4895.86Zm5.538-2.528a16.933,16.933,0,0,0-2.478.733q-.122.027-.09.171l1.115,5.207c.01.048.045.05.1,0a15.023,15.023,0,0,0,2.446-6.2c.019-.071-.012-.1-.093-.081C7227.4,4893.229,7227.07,4893.284,7226.845,4893.332Z" fill="#fff"/>
        <path id="Path_3763" data-name="Path 3763" d="M7243.823,4897.472a.827.827,0,0,1-.577-.333.789.789,0,0,1-.159-.624q.962-5.676,1.4-11.317c.015-.088-.019-.131-.1-.13l-2.469.529a.82.82,0,0,1-.66-.124.89.89,0,0,1-.375-.567l-.223-1.041a.923.923,0,0,1,.108-.681.8.8,0,0,1,.548-.4l3.269-.7c.065-.014.1-.064.119-.152q.079-1.992.091-2.654a1.026,1.026,0,0,1,.287-.669.961.961,0,0,1,.642-.315l1.271-.094a.679.679,0,0,1,.6.2.854.854,0,0,1,.262.628c0,.22-.007.58-.01,1.078s-.01.885-.019,1.157c-.014.088.018.123.1.1l3.148-.674a.861.861,0,0,1,.672.122.89.89,0,0,1,.391.588l.223,1.041a.885.885,0,0,1-.685,1.058l-3.9.835c-.081.017-.127.078-.138.182a109.209,109.209,0,0,1-1.466,12.318.817.817,0,0,1-.368.586,1.04,1.04,0,0,1-.679.2Zm17.647-18.6a.75.75,0,0,1,.627.208.916.916,0,0,1,.312.63l.078,1.073a.9.9,0,0,1-.2.639.777.777,0,0,1-.578.313,31.683,31.683,0,0,0-3.375.445.11.11,0,0,0-.1.147l1.649,7.7a.237.237,0,0,0,.139.173,29.406,29.406,0,0,1,4.673,2.191.842.842,0,0,1,.408.546.878.878,0,0,1-.1.678l-.588,1.038a.97.97,0,0,1-.526.441.774.774,0,0,1-.688-.08q-1.547-.834-2.617-1.339c-.072-.018-.1.012-.082.093a4.272,4.272,0,0,1-1.156,3.237,7.2,7.2,0,0,1-3.658,1.72,6.811,6.811,0,0,1-4.58-.337,4.664,4.664,0,0,1-1.487-6.823,6.8,6.8,0,0,1,4.065-2.188,7.859,7.859,0,0,1,2.612-.1c.091.032.127,0,.106-.1l-1.779-8.306a.842.842,0,0,1,.134-.675.9.9,0,0,1,.575-.389Q7258.691,4879.144,7261.47,4878.876Zm-4.342,13.67-.036-.17c-.021-.1-.065-.146-.133-.148a5.691,5.691,0,0,0-2.693-.159,3.452,3.452,0,0,0-1.935.959,1.74,1.74,0,0,0-.381,1.589,1.837,1.837,0,0,0,1.038,1.361,3.353,3.353,0,0,0,2.139.111,2.817,2.817,0,0,0,1.938-1.061A3.657,3.657,0,0,0,7257.128,4892.546Z" fill="#fff"/>
        <path id="Path_3764" data-name="Path 3764" d="M7270.989,4894.946a.843.843,0,0,1-.823-.886,139.541,139.541,0,0,0,.792-14.986c.031-.091-.01-.125-.123-.1l-2.4.514a.874.874,0,0,1-.668-.111.845.845,0,0,1-.39-.574l-.228-1.066a.887.887,0,0,1,.685-1.058l2.955-.633c.064-.013.1-.072.113-.176-.012-.217-.022-.556-.028-1.02s-.018-.811-.034-1.044a.954.954,0,0,1,.21-.678.8.8,0,0,1,.641-.315l1.407-.174a.9.9,0,0,1,.639.2.813.813,0,0,1,.319.6l.048,1.762c.018.082.058.115.123.1l7.652-1.639a.9.9,0,0,1,.684.12.833.833,0,0,1,.4.56l.228,1.066a.835.835,0,0,1-.134.674.907.907,0,0,1-.575.389l-8.185,1.753c-.065.014-.1.064-.119.152a124.543,124.543,0,0,1-.735,15.733.812.812,0,0,1-.314.6,1.047,1.047,0,0,1-.67.245Zm18.109-7.093a.9.9,0,0,1,.675.02.734.734,0,0,1,.449.5l.349,1.039a.9.9,0,0,1-.039.705.875.875,0,0,1-.494.473,27.867,27.867,0,0,1-4.287,1.272,10.652,10.652,0,0,1-5.728-.077,3.766,3.766,0,0,1-2.732-2.771,4.771,4.771,0,0,1,1.086-3.677,1.114,1.114,0,0,1,1.408-.4l.86.349a.692.692,0,0,1,.421.428.573.573,0,0,1-.1.592,2.26,2.26,0,0,0-.623,1.7q.186.872,1.48,1.178a7.8,7.8,0,0,0,3.328-.13A25.789,25.789,0,0,0,7289.1,4887.853Zm-10.048-5.168a.742.742,0,0,1-.644-.052.847.847,0,0,1-.418-.531l-.29-1a.983.983,0,0,1,.063-.71.8.8,0,0,1,.523-.453q4-1.288,8.354-2.27a.926.926,0,0,1,.681.107.829.829,0,0,1,.4.572l.217,1.017a.929.929,0,0,1-.106.682.831.831,0,0,1-.573.4Q7282.934,4881.423,7279.05,4882.685Z" fill="#fff"/>
        <path id="Path_3765" data-name="Path 3765" d="M7299.832,4888.417a3.945,3.945,0,0,1-3.458-1.247,7.812,7.812,0,0,1-2.384-4.343,8.55,8.55,0,0,1,1.317-7.039,10.257,10.257,0,0,1,6.53-3.994,8.254,8.254,0,0,1,6.295.964,7.649,7.649,0,0,1,3.506,5.139,8.97,8.97,0,0,1-.433,5.794,6.867,6.867,0,0,1-3.826,3.529.757.757,0,0,1-.58-.023.848.848,0,0,1-.433-.409l-.443-.993a.682.682,0,0,1-.019-.529.664.664,0,0,1,.384-.407,4.986,4.986,0,0,0,2.52-2.5,6.3,6.3,0,0,0,.23-3.909,5.393,5.393,0,0,0-2.035-3.3,5.253,5.253,0,0,0-3.686-1.042c-.067.014-.094.049-.083.1q.269,3.207.228,5.611a27.931,27.931,0,0,1-.293,3.954,8.565,8.565,0,0,1-.772,2.55,4.18,4.18,0,0,1-1.122,1.454A3.625,3.625,0,0,1,7299.832,4888.417Zm.59-13.558a6.684,6.684,0,0,0-3.332,3,6.387,6.387,0,0,0-.5,4.407,5.983,5.983,0,0,0,1.222,2.625q.886,1.065,1.467.941a.947.947,0,0,0,.533-.4,3.666,3.666,0,0,0,.475-1.149,12.332,12.332,0,0,0,.345-2.008,29.451,29.451,0,0,0,.1-3.1q-.021-1.9-.192-4.269C7300.522,4874.837,7300.483,4874.818,7300.422,4874.859Z" fill="#fff"/>
      </g>
    </g>
  </g>
</svg>
