<svg xmlns="http://www.w3.org/2000/svg" width="536.522" height="172.291" viewBox="0 0 536.522 172.291">
  <g id="Group_1939" data-name="Group 1939" transform="translate(-106.054 -291.183)">
    <g id="Group_928" data-name="Group 928" transform="translate(-8035 -4609.465)">
      <g id="Group_927" data-name="Group 927">
        <path id="Path_3118" data-name="Path 3118" d="M8252.593,4911.811V4948.1c0,4.012-2.007,4.838-5.724,4.838-3.128,0-6.2-.177-9.323-.413l-.649-4.6a69.29,69.29,0,0,0,9.323.827c1.476,0,2.065-.827,2.065-2.3v-30.8h-15.224a53.768,53.768,0,0,1-.826,6.9,120.329,120.329,0,0,1,14.752,13.689l-3.363,3.364a123.005,123.005,0,0,0-12.392-13.04c-2.3,7.08-7.081,12.155-13.631,15.636l-2.655-3.658c10.091-4.78,13.159-12.392,13.808-22.9h-14.633v38h-4.308v-41.835h19.059v-9.028h4.308v9.028Z" fill="#00532c" stroke="#00532c" stroke-miterlimit="10" stroke-width="0.787"/>
        <path id="Path_3119" data-name="Path 3119" d="M8276.307,4954a26,26,0,0,1-4.307-.295l-.708-4.012a22.843,22.843,0,0,0,3.953.354,1.234,1.234,0,0,0,1.356-1.417v-13.866H8271c-.117,6.491-.943,14.279-3.953,20.18l-2.892-3.186c3.3-6.432,3.364-12.923,3.364-20v-27.438h12.567v45.848C8280.083,4952.7,8278.9,4954,8276.307,4954ZM8271,4907.976v9.676h5.605v-9.676Zm0,13.158v10.09h5.605v-10.09Zm44.2.826h-8.732a123.934,123.934,0,0,0,.885,14.043,65.743,65.743,0,0,0,3.3-10.975l3.363,1.829a85.869,85.869,0,0,1-5.429,14.811,21.343,21.343,0,0,0,1.829,4.661c0,.059,0,.118.06.118.235.354,1,1.829,1.238,1.829.06,0,.178-.354.236-.471.531-1.417.59-5.311.768-7.258l.059-.59,3.187,3.068c-.118,1.652-.531,10.385-3.3,10.385-1.239,0-2.714-1.593-3.422-2.419a18.473,18.473,0,0,1-2.95-5.37,61.688,61.688,0,0,1-7.317,9.087l-2.361-2.714c1.358-1.3,2.6-2.6,3.837-4.013h-9.028v3.187h-3.245V4925.5h14.044v3.01h-4.6v3.658h4.425v9.087h-4.425v3.717h5.074c.531-.944,1.829-2.891,2.242-3.776-1.476-5.96-1.829-12.982-1.947-19.118h-16.521v10.208c0,7.553-.059,15.636-3.54,22.658l-2.833-3.422c2.538-4.838,2.773-13.808,2.773-19.236v-13.513h20.063v-3.245h-2.125v-5.015h-7.08v5.723h-3.775v-5.723h-8.144v-3.54h8.144v-5.665h3.775v5.665h7.08v-5.665h3.776v5.665h10.621v3.54H8304.57v3.422h1.712l.118,4.721h8.791Zm-20.475,6.55h-3.3v3.658h3.3Zm4.308,6.431h-7.612v3.54h7.612Zm-4.308,6.314h-3.3v3.717h3.3Zm12.8-28.618,2.772-1.416a24.462,24.462,0,0,1,3.246,5.193l-2.951,1.711h-.117A30.251,30.251,0,0,0,8307.521,4912.637Z" fill="#00532c" stroke="#00532c" stroke-miterlimit="10" stroke-width="0.787"/>
        <path id="Path_3120" data-name="Path 3120" d="M8338.2,4953.941a32.944,32.944,0,0,1-4.9-.354l-.531-4.19a19.506,19.506,0,0,0,4.426.473,1.391,1.391,0,0,0,1.533-1.594v-13.512h-7.847c-.118,6.432-.886,14.4-3.836,20.3l-3.3-3.245c2.891-5.842,3.481-13.63,3.481-20.062v-27.379h15.223v45.258C8342.446,4952.938,8341.562,4953.941,8338.2,4953.941Zm-7.316-45.965v9.676h7.847v-9.676Zm0,13.217v10.031h7.847v-10.031Zm36.878-14.928,3.3,3.3a82.182,82.182,0,0,1-19.944,4.9l-.59.059v3.069c0,.944,0,2.006.944,2.537.59.472,7.081.413,8.024.413,1.534,0,8.91.059,9.854-1.593.59-1.121.648-4.249.648-5.547l4.013,1.062c-.059,2.007-.295,6.786-1.771,8.32-1.711,1.711-10.208,1.711-12.45,1.711-1.829,0-10.267,0-11.683-1-1.357-.944-1.593-2.419-1.593-3.894v-17.348h4.012v8.969A75.413,75.413,0,0,0,8367.76,4906.265Zm-16.935,45.493v2.655h-3.895v-26.2h24.016v26.2h-3.895v-2.655Zm0-20v6.372h16.227v-6.372Zm0,9.795v6.667h16.227v-6.667Z" fill="#00532c" stroke="#00532c" stroke-miterlimit="10" stroke-width="0.787"/>
        <path id="Path_3121" data-name="Path 3121" d="M8397.2,4953.941a32.944,32.944,0,0,1-4.9-.354l-.531-4.19a18.826,18.826,0,0,0,4.426.473,1.391,1.391,0,0,0,1.533-1.594v-13.512h-7.847c-.118,6.373-.886,14.4-3.895,20.3l-3.245-3.245c2.891-5.842,3.481-13.63,3.481-20.062v-27.32h15.223v45.2C8401.446,4952.938,8400.562,4953.941,8397.2,4953.941Zm-7.316-45.906v9.676h7.847v-9.676Zm0,13.158v10.031h7.847v-10.031Zm25.667,2.714h14.339c-.178,6.373-.236,12.686-.886,19l-.117,1.121a30.587,30.587,0,0,1-.826,5.252c-.944,3.068-3.068,3.953-6.2,3.953a46.68,46.68,0,0,1-6.49-.472l-.531-4.307a30.147,30.147,0,0,0,6.373.708c1.947,0,2.714-1,3.127-2.833a42.161,42.161,0,0,0,.649-4.779l.118-1.062c.472-4.249.53-8.5.708-12.8h-10.444c-.59,9.441-3.3,20.179-10.68,26.729l-2.833-3.3a24.855,24.855,0,0,0,7.966-13.041c1.712-6.549,1.829-14.161,1.829-20.887v-1.889h-9.027v-3.835h11.86v-9.264h4.13v9.264h14.221v3.835h-17.229C8415.608,4918.184,8415.608,4921.016,8415.549,4923.907Z" fill="#00532c" stroke="#00532c" stroke-miterlimit="10" stroke-width="0.787"/>
        <path id="Path_3122" data-name="Path 3122" d="M8483.164,4951.168H8451.3v3.245h-4.013v-37.469h15.047a49.185,49.185,0,0,0,2.006-7.552h-20.475V4905.5H8490.6v3.894h-21.714a56.961,56.961,0,0,1-2.6,7.552h20.889v37.469h-4.013Zm-24.429-30.565H8451.3v26.906h7.435Zm3.776,0v6.549h9.205V4920.6Zm0,9.972v6.55h9.205v-6.55Zm0,9.972v6.962h9.205v-6.962Zm12.981-19.944v26.906h7.671V4920.6Z" fill="#00532c" stroke="#00532c" stroke-miterlimit="10" stroke-width="0.787"/>
        <path id="Path_3123" data-name="Path 3123" d="M8521.394,4911.988H8532.9v-2.714h-13.041v-3.128H8532.9v-4.838h3.835v4.838h13.571v3.128h-13.571v2.714h11.624V4915h-11.624v2.892h14.516v3.186h-32.808v-1.18h-5.311v5.369h-.059a71.493,71.493,0,0,1,7.258,7.376l-2.537,3.836a58.2,58.2,0,0,0-4.662-6.55v24.487H8509.3v-26.021a59.038,59.038,0,0,1-6.963,15.223l-1.888-4.248a62.038,62.038,0,0,0,8.378-19.472h-7.553v-3.718h8.025v-7.788c-2.124.413-4.308.826-6.432,1.121l-1.476-3.364a65.9,65.9,0,0,0,15.048-4.012l2.713,3.364c-1.947.708-3.953,1.356-6.077,1.946h.059v8.733h5.96v1.712H8532.9V4915h-11.507Zm-.59,42.838-2.655-3.245a46.26,46.26,0,0,0,11.624-6.609h-7.2v-21.006h25.019v21.006H8529.95l2.832,2.479A46.163,46.163,0,0,1,8520.8,4954.826Zm5.429-27.791v3.009h17.584v-3.009Zm0,5.782v3.009h17.584v-3.009Zm0,5.783v3.245h17.584V4938.6Zm10.916,8.968,2.655-2.537a63.488,63.488,0,0,1,11.86,5.9l-2.95,3.245h-.118A60.05,60.05,0,0,0,8537.148,4947.568Z" fill="#00532c" stroke="#00532c" stroke-miterlimit="10" stroke-width="0.787"/>
        <path id="Path_3124" data-name="Path 3124" d="M8562.043,4933.112l-2.183-3.717c5.546-8.556,8.851-18.292,10.856-28.264l3.953,1a99.273,99.273,0,0,1-4.012,14.339v37.94h-4.012V4925.5A70.582,70.582,0,0,1,8562.043,4933.112Zm17.053,21.3h-3.835v-33.751h3.835v27.379h30.742v3.658H8579.1Zm4.484-38h6.313c.236-1.476.413-2.951.649-4.426h-14.574v-3.6h15.105l.708-7.2,4.248.472-.472,2.95-.177,1.062a20.079,20.079,0,0,0-.3,2.715h13.276v3.6h-13.807c-.236,1.475-.531,2.95-.827,4.426h11.094v27.555H8583.58Zm17.466,3.3h-13.689v4.72h13.689Zm-13.689,7.966v4.72h13.689v-4.72Zm0,7.965v5.016h13.689v-5.016Z" fill="#00532c" stroke="#00532c" stroke-miterlimit="10" stroke-width="0.787"/>
      </g>
    </g>
    <g id="Group_1091" data-name="Group 1091" transform="translate(-8035 -4609.465)">
      <path id="Path_3524" data-name="Path 3524" d="M8192.059,5006.318h3.569v26.959h-4.079v-22.539l-5.032,3.467-.544-3.773Z" fill="#00532c"/>
      <path id="Path_3525" data-name="Path 3525" d="M8205.659,5019.781c0-2.618,0-14.007,9.519-14.007s9.52,11.423,9.52,14.007c0,2.617,0,14.04-9.52,14.04S8205.659,5022.4,8205.659,5019.781Zm14.992,0c0-5.2-.986-10.335-5.474-10.335s-5.474,5.167-5.474,10.335c0,5.473,1.122,10.369,5.474,10.369C8219.665,5030.15,8220.651,5024.914,8220.651,5019.781Z" fill="#00532c"/>
      <path id="Path_3526" data-name="Path 3526" d="M8228.1,5019.781c0-2.618,0-14.007,9.519-14.007s9.52,11.423,9.52,14.007c0,2.617,0,14.04-9.52,14.04S8228.1,5022.4,8228.1,5019.781Zm14.992,0c0-5.2-.987-10.335-5.474-10.335s-5.474,5.167-5.474,10.335c0,5.473,1.122,10.369,5.474,10.369C8242.1,5030.15,8243.091,5024.914,8243.091,5019.781Z" fill="#00532c"/>
      <path id="Path_3527" data-name="Path 3527" d="M8265.293,5032.563a8.651,8.651,0,0,1-4.692,1.258c-6.017,0-8.329-5.4-8.329-10.607,0-6.357,3.366-10.607,8.125-10.607a7.166,7.166,0,0,1,4.828,1.768l-.884,3.434a4.77,4.77,0,0,0-3.672-1.734c-3.025,0-4.93,2.822-4.93,7.1,0,3.366,1.19,7.14,5.032,7.14a6.862,6.862,0,0,0,4.521-1.768Zm4.147-17.44c.407-.952,1.088-2.516,3.06-2.516.951,0,2.584.374,3.229,2.992a3.933,3.933,0,0,1,3.707-2.992c3.807,0,3.807,3.774,3.807,6.6v14.074h-3.06v-12.85c0-2.006,0-4.352-1.563-4.352-.578,0-2.21.442-2.21,4.692v12.51h-3.025v-12.884c0-1.666,0-4.318-1.563-4.318-1.021,0-2.176,1.122-2.176,4.182v13.02h-3.061v-20.126h2.856Zm14.754-5.031v1.6h-7c1.8-1.665,4.726-4.487,4.726-5.779a1.079,1.079,0,0,0-1.224-.986,3.034,3.034,0,0,0-2.448,1.326l-.612-1.632a4.168,4.168,0,0,1,3.094-1.292c1.7,0,3.026.952,3.026,2.516,0,.782-.17,1.734-2.687,4.25Z" fill="#00532c"/>
      <path id="Path_3528" data-name="Path 3528" d="M8291.338,5029.912c.918-.272,1.5-.408,3.2-.986V5005.06h3.705v22.608c3.094-1.054,6.12-2.244,9.111-3.57l.714,3.23a151.982,151.982,0,0,1-16.08,6.255Zm13.157-23.56a38.074,38.074,0,0,1,7,9.009l-3.264,2.278a40.647,40.647,0,0,0-6.493-9.213Zm15.944,5.031c0,2.924-.408,9.349-3.06,14.517a48.993,48.993,0,0,1,6.255,7.241l-3.025,3.094c-.51-1.02-1.326-2.618-5.2-7.343a22.6,22.6,0,0,1-11.7,7.445l-1.9-3.5c13.837-3.3,14.822-13.293,14.822-21.689V5005.3h3.808Z" fill="#00532c"/>
      <path id="Path_3529" data-name="Path 3529" d="M8344.546,5004.448v10.267h12.748v3.638h-12.748v13.258h14.924v3.57h-32.16v-3.57h13.5v-27.163Z" fill="#00532c"/>
      <path id="Path_3530" data-name="Path 3530" d="M8369.436,5006.386a71.972,71.972,0,0,0-1.428,15.2,57.666,57.666,0,0,0,1.054,12.34l-3.773.476a70.137,70.137,0,0,1-.986-12.816,89.844,89.844,0,0,1,1.224-15.5Zm22.506,5.338v3.637h-6.052l.068,8.4a24.3,24.3,0,0,1,6.7,4.828l-2.414,3.366a19.457,19.457,0,0,0-4.454-4.046l-.033.986c-.137,3.535-2.04,5.473-6.664,5.473-5.3,0-7.445-3.094-7.445-6.051,0-3.6,3.061-6.085,7.514-6.085a11.557,11.557,0,0,1,3.06.407l-.1-7.275h-9.859v-3.637h9.757l-.033-5.508h3.841l.034,5.508Zm-9.689,14.312a6.838,6.838,0,0,0-3.06-.646c-2.04,0-4.25.782-4.25,2.958,0,2.108,1.938,2.89,3.944,2.89,3.229,0,3.434-1.9,3.4-3.3Z" fill="#00532c"/>
      <path id="Path_3531" data-name="Path 3531" d="M8404.931,5024.336a51.729,51.729,0,0,1-7,11.831l-2.38-3.366a42.3,42.3,0,0,0,6.493-10.675Zm-7.309-10.811a48.875,48.875,0,0,1,5.711,3.332l-2.04,3.2a25.035,25.035,0,0,0-5.507-3.434Zm1.768-9.111a39,39,0,0,1,5.644,3.3l-2.074,3.059a26.454,26.454,0,0,0-5.439-3.569Zm27.775,6.766v3.331h-9.18v6.426h8.058v3.331h-8.058v7.582h10v3.331h-24.273v-3.331h10.641v-7.582h-7.955v-3.331h7.955v-6.426h-9.11v-3.331Zm-14.245-6.936a32.668,32.668,0,0,1,7.445,3.638l-2.243,2.924a23.667,23.667,0,0,0-7.174-3.774Z" fill="#00532c"/>
      <path id="Path_3532" data-name="Path 3532" d="M8432.607,5033.447a11.24,11.24,0,0,0,3.638-5.473l3.128.646a14.5,14.5,0,0,1-4.386,7.513Zm31.957-18.664H8432.88V5012h7.615c-.408-1.871-.442-2.074-.646-2.754h-5.065v-2.754h12.137v-2.006h3.536v2.006h12.408v2.754h-5c-.374,1.564-.544,2.073-.748,2.754h7.445Zm-14.517,17.067a25.305,25.305,0,0,0-5.575-3.06l1.394-1.938h-9.451v-10.607H8461.1v10.607h-13.87a31.575,31.575,0,0,1,4.352,2.244Zm7.548-13.089h-17.78v1.666h17.78Zm0,3.842h-17.78v1.733h17.78Zm-13.565,6.187v3.365c0,.68.272.816.783.816h6.866c.748,0,1.02-.068,1.428-2.787l3.264.85c-.646,4.487-1.733,5-3.06,5h-9.553c-1.122,0-3.026-.136-3.026-2.278v-4.963Zm9.554-16.794a20.964,20.964,0,0,0,.714-2.754h-11.016a18.666,18.666,0,0,1,.681,2.754Zm8.159,24.1a32.928,32.928,0,0,0-4.9-7.037l2.787-1.734a35.145,35.145,0,0,1,5.134,6.765Z" fill="#00532c"/>
      <path id="Path_3533" data-name="Path 3533" d="M8467.594,5032.6c3.739-6.493,5.337-14.55,5.813-17.134l-5.3.034v-3.6h5.882c.306-2.143.441-3.5.611-6.188l3.978.306c-.271,2.516-.407,3.5-.781,5.882h3.3c4.93,0,6.9,2.039,6.9,9.11,0,12.817-4.249,13.429-7.207,13.429a20.748,20.748,0,0,1-3.909-.442l-.2-3.705a18.613,18.613,0,0,0,3.4.476c1.768,0,2.958-.783,3.536-3.128a33.634,33.634,0,0,0,.85-7.377c0-2.72-.17-4.862-3.5-4.828l-3.773.034c-1.36,6.561-2.855,13.157-6.052,19.072Zm24.409-7.343c-.374-4.929-1.632-9.859-5.031-13.428l2.618-1.9c1.7,1.8,5.167,5.711,6.357,14.754Zm-.034-19.718a30.04,30.04,0,0,1,4.08,6.051l-2.244,1.6A28.123,28.123,0,0,0,8489.9,5007Zm3.944-2.413a28.322,28.322,0,0,1,4.079,6.051l-2.21,1.6a30.42,30.42,0,0,0-3.943-6.187Z" fill="#00532c"/>
      <path id="Path_3534" data-name="Path 3534" d="M8507.407,5016.177c-.442,3.706-1.8,9.553-3.672,12.885l-3.3-1.9a34.7,34.7,0,0,0,3.3-11.559Zm-6.8,15.978a32.26,32.26,0,0,0,9.621-5.2V5012.54h3.536V5024a48.462,48.462,0,0,0,12.511-18.7l3.4,1.462a57.976,57.976,0,0,1-15.91,22.064v2.414c0,.849.237.917.884.917h5.745c1.088,0,1.292-.373,1.428-.612.511-.849.681-2.753.918-5.779l3.6.918c-.306,2.754-.918,6.221-1.529,7.411-.306.544-.884,1.632-3.2,1.632h-8.8a2.512,2.512,0,0,1-2.585-2.55v-1.666a30.43,30.43,0,0,1-7.989,3.978Zm9.791-27.877a51.065,51.065,0,0,1,11.016,3.638l-1.87,3.569a33.163,33.163,0,0,0-10.709-3.909Zm18.665,10.369a63.128,63.128,0,0,1,3.841,15.945l-3.841.849a64.323,64.323,0,0,0-3.5-15.5Z" fill="#00532c"/>
      <path id="Path_3535" data-name="Path 3535" d="M8547.187,5022.262c.714-1.156.985-1.665,1.428-2.515h-9.485V5010.7h8.4v-2.278h-9.961v-2.992h31.923v2.992h-10.369v2.278h8.839v9.043h-15.435a28.4,28.4,0,0,1-1.325,2.515h18.29v3.128H8563.3a14,14,0,0,1-3.5,5.2c4.046,1.258,6.7,2.243,8.363,2.855l-2.787,3.026a88.125,88.125,0,0,0-8.7-3.57c-4.42,2.414-11.967,3.026-17.169,3.162l-1.292-3.366c.918.069,1.9.1,3.366.1a38.28,38.28,0,0,0,10.5-1.36c-3.4-.985-7.241-1.733-10.675-2.379a38.062,38.062,0,0,0,3.5-3.672h-7.343v-3.128Zm-4.691-5.167h5.031v-3.672H8542.5Zm6.527,8.295c-.408.51-.748.952-1.6,2.006,1.938.374,4.827.986,8.6,2.074a9.81,9.81,0,0,0,3.468-4.08Zm1.7-14.686h5.2v-2.278h-5.2Zm0,6.391h5.2v-3.672h-5.2Zm8.4,0h5.439v-3.672h-5.439Z" fill="#00532c"/>
      <path id="Path_3536" data-name="Path 3536" d="M8601.551,5011.315c-1.292-.067-2.346-.135-3.264-.135a10.732,10.732,0,0,0-3.6.407c-4.828,1.5-11.151,6.732-11.151,12.273,0,4.25,3.365,5.372,6.663,5.984a42.129,42.129,0,0,0,8.432.51l-.68,4.079c-6.868-.2-18.358-.578-18.358-10.335,0-6.527,6.119-10.845,9.11-12.681-3.6.239-12.307.851-15.468,1.225l-.272-4.114c2.482-.034,11.8-.578,13.735-.68,5.2-.238,8.906-.306,14.788-.408Zm-6.97,3.842a31.572,31.572,0,0,1,3.772,6.426l-2.582,1.563a28.045,28.045,0,0,0-3.6-6.527Zm4.9-2.176a29.985,29.985,0,0,1,3.808,6.392l-2.584,1.53a28.625,28.625,0,0,0-3.637-6.494Z" fill="#00532c"/>
      <path id="Path_3537" data-name="Path 3537" d="M8635.822,5009.174v3.5h-8.8v6.867a16.91,16.91,0,0,1,.611,4.59c0,9.553-9.11,10.641-14.107,10.845l-1.19-3.468c9.893.1,11.185-3.331,11.559-5.847a4.714,4.714,0,0,1-4.657,2.584c-4.114,0-6.392-3.3-6.392-6.7a6.7,6.7,0,0,1,7.071-6.9,5.033,5.033,0,0,1,3.4,1.088l-.034-3.06h-16.284v-3.5h16.217l-.068-3.6h3.876v3.6Zm-12.408,11.321a3.134,3.134,0,0,0-3.366-2.856,3.565,3.565,0,0,0-3.739,3.774c0,2.345,1.463,3.909,3.468,3.909a3.448,3.448,0,0,0,3.638-3.5Z" fill="#00532c"/>
      <path id="Path_3538" data-name="Path 3538" d="M8141.828,5070.08l-.774-.775,7.87-7.846-7.87-7.846.774-.775,7.846,7.87,7.847-7.87.774.775-7.87,7.846,7.87,7.846-.774.775-7.847-7.87Zm3.27-8.621a2.022,2.022,0,1,1-2.01-2.01A2.021,2.021,0,0,1,8145.1,5061.459Zm6.587-6.586a2.011,2.011,0,1,1-2.011-2.035A2.02,2.02,0,0,1,8151.685,5054.873Zm0,13.173a2.01,2.01,0,1,1-2.011-2.01A2.005,2.005,0,0,1,8151.685,5068.046Zm6.61-6.587a2.022,2.022,0,1,1-2.034-2.01A2.026,2.026,0,0,1,8158.295,5061.459Z" fill="#00532c"/>
      <path id="Path_3539" data-name="Path 3539" d="M8191.244,5051.24v1.695h-18.791v8.742a43.339,43.339,0,0,1-.484,5.788,15,15,0,0,1-1.744,5.23l-1.7-1.453a10.709,10.709,0,0,0,1.477-4.189,36.882,36.882,0,0,0,.436-5.376V5051.24Zm0,15.28v1.695h-8.039v2.688c0,1.139-.34,1.792-2.228,1.792h-3.293l-.436-1.913h3.172c.7,0,.8-.218.8-.726v-1.841h-8.33v-1.695h8.33v-1.235a10.512,10.512,0,0,0,4.068-1.114h-10.558v-1.6h14.045v1.526a26.067,26.067,0,0,1-5.569,2.2v.218Zm-1.743-5.3h-14.772v-6.95H8189.5Zm-1.841-5.594h-11.115v1.477h11.115Zm0,2.664h-11.115v1.6h11.115Z" fill="#00532c"/>
      <path id="Path_3540" data-name="Path 3540" d="M8204.652,5055.236v-5.013h2.059v5.013h9.226v1.961h-9.226v5.086h8.523v1.937h-8.523v5.666h10.17v1.962h-22.424v-1.962h10.2v-5.666H8196.1v-1.937h8.549V5057.2h-5.981a17.539,17.539,0,0,1-2.979,4.311l-1.5-1.5a21.219,21.219,0,0,0,4.747-9.25l1.984.411a25.553,25.553,0,0,1-1.355,4.069Z" fill="#00532c"/>
      <path id="Path_3541" data-name="Path 3541" d="M8239.1,5070.661a2.826,2.826,0,0,1-2.953,2.034h-4.237l-.437-2.058,4.286.024a1.369,1.369,0,0,0,1.453-1.138,39.189,39.189,0,0,0,.63-6.393h-7.071c-.436,1.768-1.719,7-9.638,9.517l-.993-1.84c2.2-.606,7-2.253,8.6-7.677h-6.562v-1.864h6.975a24.788,24.788,0,0,0,.314-3.124h2.083c-.073.823-.121,1.549-.388,3.124h8.718A45.477,45.477,0,0,1,8239.1,5070.661Zm.9-10.025v-3.584h-17.339v3.584h-1.985v-5.376h4.286a24.96,24.96,0,0,0-2.446-4.165l1.865-.751a19.512,19.512,0,0,1,2.421,4.093l-1.815.823h10.437a19.425,19.425,0,0,0,2.688-5.11l2.131.727a27.533,27.533,0,0,1-2.494,4.383h4.237v5.376Zm-9.081-5.86a18.911,18.911,0,0,0-2.325-4.166l1.72-.823a19.359,19.359,0,0,1,2.422,4.165Z" fill="#00532c"/>
      <path id="Path_3542" data-name="Path 3542" d="M8249.364,5072.695h-1.889v-12.737a13.16,13.16,0,0,1-1.574,2.179l-.557-2.663a19.311,19.311,0,0,0,3.438-9.227l1.938.242a28.953,28.953,0,0,1-1.356,5.425Zm12.859-15.74h-1.018v-1.937h1.018v-4.771h1.815v4.771h3.633c0,9.371,0,14.166-.509,15.934-.314,1.162-.9,1.743-2.64,1.743h-1.5l-.291-2.082h1.622c.412,0,.8.024.97-.485.46-1.259.46-5.327.508-13.173h-1.792v2.809c0,8.451-2.106,11.5-3.123,12.955l-1.671-1.089c.266-.363.314-.436.483-.7-1.573.266-7.265.75-9.371.847l-.1-1.719c.9-.024,2.2-.049,4.479-.243v-1.888h-4v-1.477h4v-1.6h-3.971v-7.918h3.971v-1.381h-4.311V5054h4.311v-1.5c-1.573.145-2.494.193-3.607.242l-.461-1.5a38.745,38.745,0,0,0,9.009-1.09l.751,1.332a19.318,19.318,0,0,1-4.021.824V5054h4.407v1.55h-4.407v1.381h4.067v7.918h-4.067v1.6h4.067v1.477h-4.067v1.767c.944-.1,3.052-.314,4.165-.435v.169c1.647-3.511,1.647-8.354,1.647-9.662Zm-7.483,1.38h-2.349v1.937h2.349Zm0,3.2h-2.349v1.961h2.349Zm4.117-3.2h-2.446v1.937h2.446Zm0,3.2h-2.446v1.961h2.446Z" fill="#00532c"/>
      <path id="Path_3543" data-name="Path 3543" d="M8271.636,5060.394c7.386-.7,12.979-3.294,16.2-6.3l1.4,1.283a22.71,22.71,0,0,1-6.441,4.068h9.227v12.835h-16.637v-10.558c-1.38.29-1.985.387-3.147.557Zm.121-5.3a12.569,12.569,0,0,0,5.957-4.48l1.622.969a15.377,15.377,0,0,1-6.393,5.182Zm6.417,5.982c-.509.145-.557.145-.8.218v1.864h12.665v-2.082Zm11.866,3.657h-12.665v2.082h12.665Zm0,3.656h-12.665v2.228h12.665Zm-5.957-13.561c0,.8,0,1.937-1.841,1.937h-3.1l-.291-1.865,2.592.025c.339,0,.629-.073.629-.606V5050.2h2.011Zm4.5-4.31a15.467,15.467,0,0,0,6.029,4.407l-1.114,1.84a19.87,19.87,0,0,1-6.489-5.085Z" fill="#00532c"/>
      <path id="Path_3544" data-name="Path 3544" d="M8308.824,5059.474v-7.9h2.276v19.082h-2.276v-9.1h-9.469v9.1h-2.275v-19.082h2.275v7.9Z" fill="#00532c"/>
      <path id="Path_3545" data-name="Path 3545" d="M8319.74,5051.579c2.2,0,3.511.291,4.7,1.211a5.638,5.638,0,0,1,1.961,4.48c0,5.642-5.182,5.642-7.047,5.642h-2.3v7.749h-2.275v-19.082Zm-.146,9.251c1.574,0,4.528,0,4.528-3.536,0-3.632-2.882-3.632-4.528-3.632h-2.543v7.168Z" fill="#00532c"/>
      <path id="Path_3546" data-name="Path 3546" d="M8336.714,5072.938a17.222,17.222,0,0,1,0-22.957h1.913a17.981,17.981,0,0,0,0,22.957Z" fill="#00532c"/>
      <path id="Path_3547" data-name="Path 3547" d="M8347.191,5064.316c.122,2.616,1.6,4.747,5.109,4.747a8.02,8.02,0,0,0,4.48-1.259v2.324a10.713,10.713,0,0,1-4.48.92c-5.764,0-7.24-4.31-7.24-7.434,0-4.625,2.857-7.6,6.538-7.6a5.887,5.887,0,0,1,5.643,3.85,12.212,12.212,0,0,1,.678,4.455Zm8.523-1.937c-.266-3.462-2.639-4.358-4.213-4.358a4.323,4.323,0,0,0-4.286,4.358Z" fill="#00532c"/>
      <path id="Path_3548" data-name="Path 3548" d="M8368.375,5062.428v2.2h-6.319v-2.2Z" fill="#00532c"/>
      <path id="Path_3549" data-name="Path 3549" d="M8371.4,5062.864c.993-1.163,5.715-7.047,6.078-7.434a3.151,3.151,0,0,1,2.3-1.211c1.138,0,2.059.508,3.366,1.84l10.631,10.776-1.72,1.986-10.7-11.309a2.611,2.611,0,0,0-1.55-.847,1.676,1.676,0,0,0-1.162.7c-.654.75-1.478,1.864-5.521,7.434Z" fill="#00532c"/>
      <path id="Path_3550" data-name="Path 3550" d="M8401.929,5058c0,7.822-2.179,11.261-4.674,13.682l-1.6-1.622c2.688-2.688,4.116-5.449,4.116-11.89v-6.078h2.155Zm6.32,10.558c2.979-.92,6.078-1.864,7.386-9.323l2.059.872c-1.065,4.843-3.051,10.389-11.623,11.139V5051.41h2.179Z" fill="#00532c"/>
      <path id="Path_3551" data-name="Path 3551" d="M8437.688,5052.427a26.119,26.119,0,0,1-4.625,9.952,95.051,95.051,0,0,1,8.233,7.265l-1.84,1.744a86.186,86.186,0,0,0-7.726-7.362,29.988,29.988,0,0,1-9.807,7.458l-1.308-1.792a25.421,25.421,0,0,0,9.057-6.538,24.9,24.9,0,0,0,5.157-8.669h-13v-2.058Z" fill="#00532c"/>
      <path id="Path_3552" data-name="Path 3552" d="M8454.052,5051.046h2.18v3.342h6.684v1.865a34.594,34.594,0,0,1-6.684,6.272v9.25h-2.18v-7.8a36.482,36.482,0,0,1-8.476,3.753l-.969-2.01a30.589,30.589,0,0,0,15.45-9.323h-13.8v-2.01h7.8Zm10.631,16.637a36.647,36.647,0,0,0-6.926-4.117l1.187-1.623a44.962,44.962,0,0,1,6.877,3.754Z" fill="#00532c"/>
      <path id="Path_3553" data-name="Path 3553" d="M8473.466,5063.663a21.147,21.147,0,0,0-1.937-5.909l1.815-.508a24.765,24.765,0,0,1,2.059,5.933Zm-.145,6.514c7.507-1.55,10.9-4.844,12.277-13.537l2.106.436c-1.6,8.282-4.7,12.762-13.028,14.748Zm5.448-7.628a26.246,26.246,0,0,0-1.6-5.788l1.792-.411a33.1,33.1,0,0,1,1.744,5.739Z" fill="#00532c"/>
      <path id="Path_3554" data-name="Path 3554" d="M8508.161,5064.7a53.744,53.744,0,0,0-10.679-5.182v12.229h-2.35v-20.705h2.35v6.2a66.262,66.262,0,0,1,11.816,5.206Z" fill="#00532c"/>
      <path id="Path_3555" data-name="Path 3555" d="M8516.242,5055.188a23.5,23.5,0,0,1-.871,6.78l-1.6-.823a17.673,17.673,0,0,0,.872-6.03Zm2.931-4.965v22.5h-1.984v-22.5Zm1.259,7.628a18.057,18.057,0,0,0-1.09-3l1.453-.581a20.429,20.429,0,0,1,1.162,2.93Zm9.614-2.93h5.666v1.477h-5.666v1.623h6.61v1.549h-15.231v-1.549h6.659V5056.4h-5.521v-1.477h5.521V5053.3h-6.127v-1.573h6.127v-1.5h1.962v1.5h6.15v1.573h-6.15Zm5.5,15.571c0,1.646-.34,2.227-2.3,2.227h-2.567l-.387-1.84H8533c.63,0,.63-.436.63-.751v-1.743H8524.6v4.334h-1.937V5060.9h12.883Zm-1.913-8.088H8524.6v1.525h9.033Zm0,2.978H8524.6v1.526h9.033Z" fill="#00532c"/>
      <path id="Path_3556" data-name="Path 3556" d="M8547.062,5050.223v2.083h4.165v1.792h-4.165v2.567h4.771v1.767h-1.525c-.218,1.114-.63,2.688-.848,3.39h2.155v1.792h-4.553v2.834h4.165v1.792h-4.165v4.455h-1.913v-4.455h-4.165v-1.792h4.165v-2.834H8540.6v-1.792h2.276a23.2,23.2,0,0,0-.9-3.39h-1.6v-1.767h4.771V5054.1h-4.165v-1.792h4.165v-2.083Zm.581,11.6a17.033,17.033,0,0,0,.7-3.39h-4.5a27.425,27.425,0,0,1,.823,3.39Zm14.215,10.873a17.083,17.083,0,0,1-3.075-2.978,14.855,14.855,0,0,1-2.736,2.906l-1.211-1.623a12.691,12.691,0,0,0,2.761-2.881,18.555,18.555,0,0,1-2.591-5.4l1.694-.532a23.927,23.927,0,0,0,1.938,4.165,18.993,18.993,0,0,0,1.55-4.94h-5.764v11.284h-1.889V5051h9.348a21.747,21.747,0,0,1-.654,6.248c-.169.387-.508,1.089-2.01,1.089h-2.687l-.339-1.864,2.349.024c1.065,0,1.356-.363,1.478-3.657h-5.595v6.805h7.822a21.708,21.708,0,0,1-2.373,8.378,22.341,22.341,0,0,0,3.147,2.882Z" fill="#00532c"/>
      <path id="Path_3557" data-name="Path 3557" d="M8573.522,5062.912a14.056,14.056,0,0,1-2.5.993v6.853a1.837,1.837,0,0,1-2.106,1.986h-2.445l-.291-2.058,2.131.023c.339,0,.775,0,.775-.677v-5.473c-2.034.629-2.252.7-3.052.9l-.314-2.059c1.259-.29,1.961-.484,3.366-.9v-5.981h-3.148v-1.84h3.148v-4.5h1.937v4.5h2.664v1.84h-2.664v5.352c.775-.291.921-.339,2.276-.848Zm-1.381,8.4c.8-.678,2.833-2.567,3.366-7.943l1.864.267a29.516,29.516,0,0,1-.509,2.954,6.794,6.794,0,0,0,3.124,3.366v-7.918h-5.86V5060.3h14.239v1.744h-6.441v2.9h5.594v1.72h-5.594v3.753a4.3,4.3,0,0,0,.654.048h6.2l-.412,1.865h-5.352a7.057,7.057,0,0,1-6.78-3.56,10.631,10.631,0,0,1-2.64,3.923Zm15.159-12.592h-12.665v-7.967H8587.3Zm-1.841-6.369h-8.983v1.671h8.983Zm0,3.027h-8.983v1.768h8.983Z" fill="#00532c"/>
      <path id="Path_3558" data-name="Path 3558" d="M8595.987,5072.695h-2.01v-12.3a13.324,13.324,0,0,1-1.719,2.252l-1.042-2.276a20.856,20.856,0,0,0,4.649-10.268l1.986.339a24.942,24.942,0,0,1-1.865,6.054Zm.823-1.622a15.285,15.285,0,0,0,5.231-5.255l1.743.8a18.924,18.924,0,0,1-5.594,6.03Zm6.176-20.85v4.577h5.061v-4.577h2.01v4.577h3.584v1.913h-3.584v5.933h4.068v1.913H8597.2v-1.913h3.8v-5.933h-3.438V5054.8H8601v-4.577Zm5.061,6.49h-5.061v5.933h5.061Zm1.018,9.129a21.786,21.786,0,0,0,5.327,5.231l-1.4,1.622a25.23,25.23,0,0,1-5.57-5.86Z" fill="#00532c"/>
      <path id="Path_3559" data-name="Path 3559" d="M8619.856,5072.938a17.981,17.981,0,0,0,0-22.957h1.913a17.222,17.222,0,0,1,0,22.957Z" fill="#00532c"/>
      <path id="Path_3560" data-name="Path 3560" d="M8647.386,5063.009a22.3,22.3,0,0,1,8.79,5.182l-1.574,2.083a20.574,20.574,0,0,0-7.24-4.964l.024,1.67c.024,1.429-.146,4.529-5.183,4.529-4,0-5.787-1.986-5.787-4.359,0-3.317,3.414-4.746,6.877-4.746a13.272,13.272,0,0,1,1.865.145l-.1-11.406h2.276l.024,4.02,8.185-.073v2.18h-8.185Zm-2.18,1.622a11.162,11.162,0,0,0-2.252-.242c-2.082,0-4.383.823-4.383,2.785,0,2.325,3.075,2.325,3.608,2.325,2.76,0,3-1.671,3-2.664Z" fill="#00532c"/>
      <path id="Path_3561" data-name="Path 3561" d="M8665.855,5051.773a40.079,40.079,0,0,0-.848,8.6c.314-.582.993-1.792,1.841-3.1l1.259,1.21c-2.785,4-2.809,5.57-2.833,6.563l-2.034.121a43.678,43.678,0,0,1-.339-5.569,40.821,40.821,0,0,1,.751-8.04Zm11.405-.121c.194,2.615.315,5.351.315,7.967,0,5.206-.267,10.073-9.033,12.277l-1.671-1.646c8.233-2.156,8.4-5.521,8.4-11.188,0-2.276-.049-2.93-.314-7.41Z" fill="#00532c"/>
    </g>
  </g>
</svg>
