<svg xmlns="http://www.w3.org/2000/svg" width="545.379" height="117.531" viewBox="0 0 545.379 117.531">
  <g id="Group_919" data-name="Group 919" transform="translate(-8142.002 -6187.876)">
    <path id="Path_3008" data-name="Path 3008" d="M8142,6204.788a24.324,24.324,0,0,0,7.31-9.863v-1.856h-6.933v-2.9h6.933v-2.2h2.929v2.2h7.572v-2.2h3.016v2.2h6.817v2.9h-6.817v2.408h-3.016v-2.408h-7.572v2.088h-2.378l2.088.928a23.49,23.49,0,0,1-2.349,4.381v14.793h-2.959v-10.848a18.268,18.268,0,0,1-3.075,2.929Zm13.778-8.905h3.074v6.584a27.353,27.353,0,0,0,7.6-5.018l2.233,2.321a49.014,49.014,0,0,1-9.834,5.946v5.482c0,.435.233.725.872.725h5.743a.819.819,0,0,0,.811-.754,23.186,23.186,0,0,0,.378-3.887l2.958.842c-.464,5.134-.637,6.7-3.161,6.7h-8.238c-1.131,0-2.437-.377-2.437-2.233Z" fill="#eb5a24"/>
    <path id="Path_3009" data-name="Path 3009" d="M8174.6,6188.892h25.091v2.9h-10.995v7.6h9.805v2.871h-9.805v9.05H8200.7v2.9H8173.67v-2.9h11.863v-9.05h-9.746v-2.871h9.746v-7.6H8174.6Z" fill="#eb5a24"/>
    <path id="Path_3010" data-name="Path 3010" d="M8218.13,6210.5c3.074-.29,9.543-1.334,9.543-9.108,0-3.22-1.334-8.006-7.832-8.325-.9,12.908-4.757,18.274-8.76,18.274-3.364,0-5.512-3.858-5.512-8.324,0-8.152,6.034-13.025,13.488-13.025,9.021,0,12.038,6.034,12.038,11.487,0,10.965-9.833,11.951-11.893,12.154Zm-9.428-7.4c0,1.683.609,4.757,2.5,4.757,1.1,0,1.914-.986,2.61-2.262,1.973-3.6,2.523-8.035,2.872-12.386C8211.458,6194.171,8208.7,6198.319,8208.7,6203.1Z" fill="#eb5a24"/>
    <path id="Path_3011" data-name="Path 3011" d="M8257.659,6207.572h.987c.521,0,.667-.057.667-.551v-7.368h-12.908V6210.1h-2.842a8.311,8.311,0,0,0,4.466,1.363h15.489l-.608,2.872h-14.881c-1.16,0-5.019-.29-6.875-3.1a23.021,23.021,0,0,1-3.974,3.857l-1.45-3.365a14.443,14.443,0,0,0,3.1-2.146V6202h-2.756v-2.93h5.628v8.354a3.5,3.5,0,0,0,1.827,2.669V6197.13h1.306v-8.5h16.1v8.5h1.188v10.849c0,.9,0,2.349-2.437,2.349H8256.3l-.318-2.146h-7.831v-7.02h9.513Zm-19.173-19.2a28.968,28.968,0,0,1,4.351,5.076l-2.407,1.856a45.789,45.789,0,0,0-3.945-5.192Zm9.166,2.727v6.033h2.843v-4.206h7.6V6191.1Zm3.1,12.3v2.552h4.293V6203.4Zm2.5-8.326v2.06h4.844v-2.06Z" fill="#eb5a24"/>
    <path id="Path_3012" data-name="Path 3012" d="M8290.285,6215.346a31.976,31.976,0,0,0-1.6-2.958c-12.067,1.3-13.575,1.479-20.363,1.682l-.377-3.075c.7.029,2.813-.087,3.654-.116a36.6,36.6,0,0,0,4.845-8.325h-9.2v-2.784h11.806v-4.99h-10.3v-2.871h10.3v-3.945h3.133v3.945h10.617v2.871h-10.617v4.99h12.067v2.784h-14.214a59.859,59.859,0,0,1-4.583,8.122c5.4-.261,7.919-.435,11.487-.9a25.744,25.744,0,0,0-2.988-3.365l2.582-1.769a51.438,51.438,0,0,1,6.875,8.76Z" fill="#eb5a24"/>
    <path id="Path_3013" data-name="Path 3013" d="M8306.376,6189.617h3.046v23h-3.481v-19.232l-4.293,2.959-.464-3.22Z" fill="#eb5a24"/>
    <path id="Path_3014" data-name="Path 3014" d="M8330.881,6199.886c-1.044,8.992-6.091,12.821-9.63,15.286l-2.233-2.814c7.977-4.5,8.963-10.7,8.963-16.5v-3.916H8319.6v-3.075h27.208v3.075h-15.692V6196c0,.319.029.7,0,.928h13c-.232,12.328-.667,18.245-5.569,18.245h-5.4l-.551-3.191h5.163a1.783,1.783,0,0,0,1.973-1.334c.928-2.959,1.073-7.6,1.1-10.761Z" fill="#eb5a24"/>
    <path id="Path_3015" data-name="Path 3015" d="M8362.665,6188.051h3.394v3.568c0,5.627,1.77,15.083,12.271,20.479l-2,2.958c-5.337-2.668-9.979-8.093-11.979-15.431a23.772,23.772,0,0,1-11.922,15.431l-2.146-2.9a20.966,20.966,0,0,0,9.833-9.63,25.947,25.947,0,0,0,2.553-10.791Z" fill="#eb5a24"/>
    <path id="Path_3016" data-name="Path 3016" d="M8381.919,6209.748c.783-.232,1.276-.348,2.728-.841v-20.363h3.161v19.289c2.64-.9,5.221-1.914,7.773-3.045l.609,2.755a129.689,129.689,0,0,1-13.721,5.338Zm11.226-20.1a32.5,32.5,0,0,1,5.976,7.687l-2.784,1.943a34.636,34.636,0,0,0-5.541-7.86Zm13.6,4.293c0,2.5-.348,7.977-2.61,12.386a41.827,41.827,0,0,1,5.337,6.178l-2.582,2.64c-.435-.87-1.131-2.233-4.437-6.265a19.274,19.274,0,0,1-9.979,6.352l-1.624-2.987c11.806-2.814,12.646-11.342,12.646-18.507v-4.989h3.249Z" fill="#eb5a24"/>
    <path id="Path_3017" data-name="Path 3017" d="M8427.742,6188.021v8.761h10.878v3.1h-10.878V6211.2h12.734v3.046h-27.44V6211.2h11.516v-23.177Z" fill="#eb5a24"/>
    <path id="Path_3018" data-name="Path 3018" d="M8457.67,6210.5c3.074-.29,9.543-1.334,9.543-9.108,0-3.22-1.334-8.006-7.832-8.325-.9,12.908-4.757,18.274-8.76,18.274-3.364,0-5.512-3.858-5.512-8.324,0-8.152,6.034-13.025,13.488-13.025,9.021,0,12.038,6.034,12.038,11.487,0,10.965-9.833,11.951-11.893,12.154Zm-9.428-7.4c0,1.683.609,4.757,2.5,4.757,1.1,0,1.914-.986,2.61-2.262,1.973-3.6,2.523-8.035,2.872-12.386C8451,6194.171,8448.242,6198.319,8448.242,6203.1Z" fill="#eb5a24"/>
    <path id="Path_3019" data-name="Path 3019" d="M8501.956,6188.892v2.872h-22.393v19.927h23v2.814h-26.106v-25.613Zm-1.247,11.69v2.7h-7.629c1.131,2.147,4.467,3.916,8.383,4.641l-1.6,2.785c-5.83-1.6-8.093-4.09-9.166-6.352-1.8,3.654-5.512,5.308-8.441,6.236l-1.653-2.7c1.566-.349,5.859-1.248,7.484-4.613h-7.281v-2.7h8.122a13.775,13.775,0,0,0,.261-3.046h-4.206a19.313,19.313,0,0,1-2.378,2.495l-2.35-2a13.067,13.067,0,0,0,4.524-5.8l3.018.522c-.378.841-.58,1.276-1.016,2.088h13.082v2.7h-7.773a16.27,16.27,0,0,1-.232,3.046Z" fill="#eb5a24"/>
    <path id="Path_3020" data-name="Path 3020" d="M8508.445,6192.431a14.876,14.876,0,0,1,1.653,5.25l-2.437,1.189a21.846,21.846,0,0,0-1.421-5.308Zm7.021,10.761-1.016.639-1.306-1.973c-.608,7.89-1.856,10.385-4,13.314l-2.35-1.827c1.335-1.77,2.553-3.626,3.191-8.093-1.363.667-1.828.87-3.1,1.392l-.58-2.93c2.205-.609,2.7-.754,3.975-1.218.058-.812.087-2.03.087-2.64v-9.6h9.8v-2.2h2.988v2.2H8533.8v2.524h-20.566v7.136c0,.638-.028,1.044-.058,1.421a18.252,18.252,0,0,0,2.089-1.073,10.607,10.607,0,0,0-1.306-1.305l1.6-1.393,1.479,1.479a13.112,13.112,0,0,0,2.117-2h-5.192v-2.233h6.585a14.126,14.126,0,0,0,.667-1.654l2.93.319c-.349.7-.464.986-.667,1.335H8533.8v2.233h-6.323a12.612,12.612,0,0,0,2.262,2.263c.958-1.045,1.335-1.48,1.654-1.857l1.972,1.131a25.831,25.831,0,0,1-1.827,1.915,12.362,12.362,0,0,0,2.466,1.015l-1.276,2.321c-.667-.32-1.132-.522-1.77-.9v6.411h-6.41v3.945c0,1.769-1.132,1.885-1.973,1.885h-3.452l-.551-2.61h2.523c.464,0,.58-.087.58-.436v-2.784h-6.207Zm3.828,8.181a17.961,17.961,0,0,1-6.062,3.48l-1.508-2.465c3.48-.9,4.757-2.089,5.482-2.785Zm-1.218-9.225v1.508h10.269v-1.508Zm0,3.423v1.741h10.269v-1.741Zm9.05-5.453a18.885,18.885,0,0,1-2.7-3.075h-2.35a18.425,18.425,0,0,1-2.7,3.075Zm5.512,14.851a24.881,24.881,0,0,1-6.149-3.539l1.856-1.914a13.443,13.443,0,0,0,5.859,2.987Z" fill="#eb5a24"/>
    <path id="Path_3021" data-name="Path 3021" d="M8552.442,6211.169a12.1,12.1,0,0,0-3.19-2.407,11.843,11.843,0,0,1-2.5,6.41l-2.088-2.146c1.74-2.321,2-4,2.088-8.383h-.928v-2.031l-1.073,1.886a13.551,13.551,0,0,1-1.334-2.93V6215.2h-2.728v-11.457a22.057,22.057,0,0,1-1.74,5.163l-1.45-3.887a24.906,24.906,0,0,0,3.018-8.935h-2.7v-2.813h2.871v-5.251h2.728v5.251h1.885v2.813h-1.885v1.045a18.3,18.3,0,0,0,2.727,4.9h7.86a94.322,94.322,0,0,1-.957-14.011h2.9c0,1.335,0,2.089.059,3.8l1.392-1.654c.262.261.349.319.465.436a18.473,18.473,0,0,0,1.654-2.728l2.174.755a23,23,0,0,1-2.378,3.394c.348.377.638.667.986,1.1a30.779,30.779,0,0,0,1.914-2.756l1.915.928a49.461,49.461,0,0,1-4.758,6.005c1.683-.058,2.176-.087,2.988-.174-.262-.638-.377-.928-.58-1.392l1.943-.7a18.787,18.787,0,0,1,1.653,4.466l-2.089.842c-.2-.842-.261-1.016-.348-1.335-.755.116-1.6.174-2.292.233.609.377.754.493,2.089,1.479l-1.132,1.305h3.452v2.611H8557.4a26.414,26.414,0,0,0,.986,3.567,14.642,14.642,0,0,0,2.5-3.1l2.581,1.073a16.482,16.482,0,0,1-3.857,4.728c.319.58.986,1.509,1.711,1.509s1.45-2.147,1.8-3.336l2.176,1.943c-1.016,3.365-2.089,4.206-3.888,4.206a4.264,4.264,0,0,1-4.147-2.582,20.377,20.377,0,0,1-5.6,2.466l-1.131-2.523a15.248,15.248,0,0,0,5.54-2.466,34.6,34.6,0,0,1-1.6-5.482h-4.96c0,.7,0,1.073-.029,1.682a16.9,16.9,0,0,1,4.555,2.466Zm-7.193-13.343c.551-.58,1.189-1.305,2.32-2.669a27.832,27.832,0,0,0-3.133-3.248l1.6-1.77c.261.2.464.348.609.465a15.88,15.88,0,0,0,1.769-2.728l2.176.784a15.592,15.592,0,0,1-2.437,3.336c.319.348.609.667.986,1.16,1.016-1.364,1.421-1.972,1.914-2.7l1.886,1.161a70.635,70.635,0,0,1-4.989,6.149c.726-.029,1.827-.058,2.523-.116-.2-.551-.318-.87-.521-1.3l1.973-.7a17.776,17.776,0,0,1,1.45,4.41l-2.146.725a11.267,11.267,0,0,0-.232-1.219c-.116,0-5.482.494-5.976.552l-.319-2.292Zm13.633-2.9a16.242,16.242,0,0,0-2.871-2.929c.028,1.3.174,3.858.318,5.424h.378A24.751,24.751,0,0,0,8558.882,6194.925Zm.436,4.409c-.349.029-2.61.174-2.756.174.116,1.045.29,2.176.348,2.524h3.858a17.291,17.291,0,0,0-2.379-1.537Z" fill="#eb5a24"/>
    <path id="Path_3022" data-name="Path 3022" d="M8581.123,6205.281v9.34h-10.095v-6.642c-.436.173-.609.231-.957.376l-1.16-2.755a20.755,20.755,0,0,0,7.192-3.771h-6.989v-2.64h9.369a12.7,12.7,0,0,0,1.45-2.668h-9.2v-7.687h10.182v7.687h-.349l2.407.638a16.434,16.434,0,0,1-.985,2.03h14.068v2.64h-7.281c1.943,2,5.019,3.162,7.774,3.887l-1.393,2.581a10.44,10.44,0,0,1-1.016-.347v6.671H8583.7v-9.34h5.105a16.674,16.674,0,0,1-3.857-3.452h-4.874a20.477,20.477,0,0,1-3.916,3.452Zm-2.872-14.069h-4.9v2.959h4.9Zm.29,16.36h-4.9v4.613h4.9Zm15.954-18.738v7.687h-10.472v-7.687Zm-2.93,18.738h-5.25v4.613h5.25Zm.319-16.36h-5.222v2.959h5.222Z" fill="#eb5a24"/>
    <path id="Path_3023" data-name="Path 3023" d="M8607.105,6189.936a59.2,59.2,0,0,0-1.247,13.228,50.6,50.6,0,0,0,.841,10.268l-3.452.261a58.52,58.52,0,0,1-.725-10.007,73.085,73.085,0,0,1,1.16-14.011Zm7.426,12.5a6.937,6.937,0,0,0-1.422,3.742c0,2.437,2.872,2.7,5.656,2.7a61.1,61.1,0,0,0,6.7-.348v3.365c-1.566.115-3.307.26-5.366.26-4.757,0-10.008-.464-10.008-5.6a9.542,9.542,0,0,1,1.509-4.96Zm10.355-10.558v3.19h-13.924v-3.19Z" fill="#eb5a24"/>
    <path id="Path_3024" data-name="Path 3024" d="M8646.866,6203.309a27.81,27.81,0,0,1,10.326,6.033l-2.32,3.133a25.791,25.791,0,0,0-8.093-5.715v1.654c0,4.119-2.93,5.337-6.353,5.337-5.192,0-7.165-2.727-7.165-5.424,0-3.858,3.887-5.831,8.3-5.831a11.726,11.726,0,0,1,1.915.145l-.087-13.372h3.423v4.5l9.514-.029v3.249h-9.485Zm-3.336,2.378a10.553,10.553,0,0,0-2.407-.29c-2.176,0-4.642.87-4.642,2.958,0,1.248,1.016,2.437,3.685,2.437,1.363,0,3.364-.435,3.364-2.785Z" fill="#eb5a24"/>
    <path id="Path_3025" data-name="Path 3025" d="M8682.74,6192.431c-2.32,1.711-5.076,3.945-7.6,5.917a14.454,14.454,0,0,1,4.381-.783c4.06,0,7.859,2.233,7.859,7.455,0,5.685-4.757,8.789-10.5,8.789-4.989,0-7.629-2.263-7.629-4.96,0-2.466,2.233-4.293,5.134-4.293a7.194,7.194,0,0,1,6.962,5.337,5.31,5.31,0,0,0,2.813-4.786c0-2.118-1.073-4.9-5.859-4.9-4.96,0-8.5,2.871-12.53,6.642l-1.856-2.726c.841-.61,6.12-4.642,13.6-11.255-3.451.261-5.685.348-10.529.464v-3.162c6.7.058,9.485-.058,15.751-.348Zm-8.441,14.677c-1.537,0-2.233.957-2.233,1.625,0,1.247,1.509,2.523,4.583,2.523a13.935,13.935,0,0,0,2.06-.232C8678.1,6208.849,8676.765,6207.108,8674.3,6207.108Z" fill="#eb5a24"/>
    <path id="Path_3026" data-name="Path 3026" d="M8251.027,6250.108a16.148,16.148,0,0,0,5.454-5.192,13.309,13.309,0,0,0,2.088-4.931H8251v20.189h-3.075v-23.119h10.762v-4.09h3.046v4.09h10.646v20.537a2.351,2.351,0,0,1-2.669,2.582h-4.844l-.406-3.075h4.061c.349,0,.755,0,.755-.609v-6.178l-1.8,2.581c-1.016-.7-5.772-3.974-7.252-9.34-.9,2.581-4.322,7.367-7.339,9.224Zm18.246-10.123h-7.484c.262,2.756,2.292,6.9,7.484,10.239Z" fill="#eb5a24"/>
    <path id="Path_3027" data-name="Path 3027" d="M8278.925,6233.777h6.9v24.4c1.393-2.726,1.393-4.989,1.393-7.745v-9.891h10.385v-1.1h2.523c0,.377-.029.841-.029,1.1h1.712a9.788,9.788,0,0,0-1.045-2l2.38-.7a8.908,8.908,0,0,1,1.072,2.031l-2.379.667H8305v2.234h-4.9a62.788,62.788,0,0,0,.58,7.512,26.7,26.7,0,0,0,1.538-6.323l2.494.435a26.17,26.17,0,0,1-3.277,9.775c.318,1.132.7,2.524,1.073,2.524s.435-.261,1.1-2.843l1.973,1.421c-.348,2.06-1.334,4.932-2.93,4.932-1.711,0-2.64-2.785-2.9-3.626a17.558,17.558,0,0,1-4.09,3.655l-1.8-1.711c.667-.407.9-.581,1.306-.871h-4.729v-13.256h6.9v1.972h-1.682v1.625h1.943v5.656h-1.943v1.828h1.856a13.168,13.168,0,0,0,1.392-1.8,62.469,62.469,0,0,1-1.247-10.906h-8.238v7.715c0,5.28-.551,7.4-1.653,9.747l-1.943-2.031a2.271,2.271,0,0,1-2.263,2.031h-1.827l-.464-3.017h1.77c.348,0,.377-.174.377-.377v-6.121h-2.089a31.681,31.681,0,0,1-1.595,9.573l-2.205-1.712a31.211,31.211,0,0,0,1.393-9.978Zm2.407,2.669v4.525h2.089v-4.525Zm0,6.991v4.786h2.089v-4.786Zm5.279-8.354h4.322v-2.06h2.582v2.06h4.09v-2.06h2.523v2.06H8305v2.523h-4.873v1.1h-2.523v-1.1h-4.09v2.031h-2.582v-2.031h-4.322Zm5.8,11.283v1.625h1.45v-1.625Zm0,3.423v2.06h3.249v-2.06Zm0,3.858v1.828h1.45v-1.828Z" fill="#eb5a24"/>
    <path id="Path_3028" data-name="Path 3028" d="M8318.918,6256.954c0,2.205-.116,3.307-3.249,3.307H8313.2l-.493-3.017h2.5c.928,0,1.015-.551,1.015-1.276v-5.309h-3.626c-.028,1.306-.261,6.585-1.682,9.6l-2.553-2.263a26.8,26.8,0,0,0,1.683-9.543v-14.62h8.876Zm-2.7-20.421H8312.8v4.438h3.423Zm0,7.02H8312.8v4.641h3.423Zm18.884-7.745c-2.959,1.537-8.876,2.669-11.371,2.987v1.48c0,.725.29.9,1.219.9h6.7c1.45,0,1.625-.783,1.683-3.568l2.988.9c-.406,4.613-1.306,5.541-4.265,5.541h-7.716c-1.508,0-3.423-.145-3.423-2.582v-8.528h2.813v3.1a44.057,44.057,0,0,0,9.862-2.756Zm-.145,23.9h-13.837v-13.4h13.837Zm-2.814-10.79h-8.267v2.843h8.267Zm0,5.134h-8.267v3.1h8.267Z" fill="#eb5a24"/>
    <path id="Path_3029" data-name="Path 3029" d="M8341.188,6233.777h8.934v23.612c0,1.16,0,2.814-2.146,2.814h-3.6l-.58-2.959h2.843c.58,0,.755-.029.755-.754V6250.6h-3.568c-.29,4.234-.87,7.425-2.379,9.8l-2.06-2.843c1.422-2.668,1.8-6.411,1.8-9.514Zm2.756,2.64v4.467h3.452v-4.467Zm0,6.991v4.641h3.452v-4.641Zm13.459,3.1c-.261,8.442-3.655,12.3-5.019,13.837l-2.06-2.408c2.263-2.669,4.062-5.946,4.062-13.227v-5.163h-3.51v-2.843h6.468v-3.771h3.046v3.771h6.991v2.843H8357.4v4.148h8.905c0,2.117,0,11.457-.842,14.358a2.563,2.563,0,0,1-2.843,2.147h-4.38l-.638-2.959h3.8c1.1,0,1.363-.7,1.479-1.566a89.085,89.085,0,0,0,.464-9.167Z" fill="#eb5a24"/>
    <path id="Path_3030" data-name="Path 3030" d="M8377.323,6249.963a49.647,49.647,0,0,1-4.38,10.066l-2.437-2.524a37.133,37.133,0,0,0,4.293-9.021Zm-4.989-8.876a26.836,26.836,0,0,1,4.555,2.756l-1.828,2.494a31.971,31.971,0,0,0-4.293-2.929Zm1.016-7.861a24.658,24.658,0,0,1,4.467,2.669l-1.914,2.64a24.7,24.7,0,0,0-4.293-2.93Zm8.412,21.494a18.406,18.406,0,0,1-4.235,5.6l-2.233-1.915a13.839,13.839,0,0,0,3.974-4.786Zm-3.568-20.769h9.746v19.609h-9.746Zm2.727,2.727v2.93h4.293v-2.93Zm0,5.511v3.017h4.293v-3.017Zm0,5.657v2.987h4.293v-2.987Zm5.163,5.917a26.392,26.392,0,0,1,3.452,4.873l-2.61,1.393a21.337,21.337,0,0,0-2.872-4.989Zm3.713-19.086h2.872v19.579H8389.8Zm4.815-1.712h2.9v25.265c0,.871-.58,1.944-2.581,1.944h-3.568l-.521-2.93h3.277a.479.479,0,0,0,.493-.464Z" fill="#eb5a24"/>
    <path id="Path_3031" data-name="Path 3031" d="M8414.59,6244.046h-7.368v-2.9H8425v2.9h-7.426v4.206h8.992v2.872h-8.992v5.279a12.858,12.858,0,0,0,1.944.116h10.441l-.609,2.93h-11.109c-3.017,0-6.469-.7-9.979-5.135a16.183,16.183,0,0,1-4.177,5.715l-1.856-2.727c2.756-2.262,4.845-6.788,5.309-11.632l3.074.464a25.075,25.075,0,0,1-1.188,5.338c1.885,2.552,3.364,3.626,5.163,4.264Zm3.074-11.2v2.582h11.371v6.642h-2.988V6238.3h-19.869v3.771h-2.988v-6.642h11.284v-2.582Z" fill="#eb5a24"/>
    <path id="Path_3032" data-name="Path 3032" d="M8436.627,6256.083c7.861-1.333,9.485-4.466,9.659-10.5h-11.022v-3.017h23.7v3.017h-9.341c-.261,9.225-4.728,12.009-11.66,13.431Zm16.94-20.855v3.017h-15.983v-3.017Zm2.437-2.437a25.738,25.738,0,0,1,1.827,5.917l-2.233.755a24.01,24.01,0,0,0-1.683-6Zm4.147-.58a25.067,25.067,0,0,1,1.8,5.946l-2.233.726a23.292,23.292,0,0,0-1.653-6Z" fill="#eb5a24"/>
    <path id="Path_3033" data-name="Path 3033" d="M8490.862,6244.887v3.394h-24.888v-3.394Z" fill="#eb5a24"/>
    <path id="Path_3034" data-name="Path 3034" d="M8497.557,6244.278a18.514,18.514,0,0,0,7.629-8.673h15.489c-.464,4.612-1.914,18.913-19.551,23.437l-1.624-2.959a23.614,23.614,0,0,0,12.241-6.584,39.824,39.824,0,0,0-8.528-5.511,20.563,20.563,0,0,1-3.539,2.756Zm9.8-5.685a24.792,24.792,0,0,1-2.233,3.248,41.526,41.526,0,0,1,8.586,5.251,20.348,20.348,0,0,0,3.133-8.5Z" fill="#eb5a24"/>
    <path id="Path_3035" data-name="Path 3035" d="M8528.122,6257.244a56.166,56.166,0,0,0,4.96-15l-4.38.028v-3.1h4.873a48.227,48.227,0,0,0,.609-5.134l3.452.173c-.29,2.205-.436,3.133-.783,4.961h2.9c3.916,0,6.323,1.363,6.323,7.831a26.024,26.024,0,0,1-1.421,8.674c-.957,2.2-2.7,2.958-5.192,2.958a25.964,25.964,0,0,1-3.307-.2l-.174-3.278a15.584,15.584,0,0,0,3.045.32c2,0,2.553-.842,3.046-2.5a23.376,23.376,0,0,0,.783-6.266c0-4-1.1-4.554-4.351-4.525l-2.205.029c-1.044,5.076-2.581,11.429-5.018,16.476Zm22.161-7.426c-.087-2.379-.609-7.484-3.887-11.661l2.727-1.421c.986,1.131,3.916,4.409,4.583,12.473Z" fill="#eb5a24"/>
    <path id="Path_3036" data-name="Path 3036" d="M8566.4,6238.854a24.619,24.619,0,0,0-.84,7.483,15.635,15.635,0,0,1,9.484-3.191c6.759,0,8.006,4.526,8.006,6.933,0,6.208-5.222,8.587-13.2,8.587a38.668,38.668,0,0,1-5.512-.378l-.348-3.133a36,36,0,0,0,5.656.465c7.483,0,10.008-2.263,10.008-5.657,0-1.885-1.307-3.916-4.9-3.916-3.626,0-7.252,1.537-9.138,3.858-.057.29-.057.407-.087.609l-3.22-.087c.116-7.8.174-8.847.813-11.98Zm12.125.319a37.332,37.332,0,0,0-11.951-2.205l.609-3.046a44.471,44.471,0,0,1,12.212,1.828Z" fill="#eb5a24"/>
    <path id="Path_3037" data-name="Path 3037" d="M8188.678,6295.109a16.147,16.147,0,0,0,5.454-5.192,13.309,13.309,0,0,0,2.088-4.931h-7.571v20.189h-3.075v-23.119h10.762v-4.09h3.046v4.09h10.646v20.537a2.351,2.351,0,0,1-2.669,2.582h-4.844l-.406-3.075h4.061c.349,0,.755,0,.755-.609v-6.178l-1.8,2.581c-1.016-.7-5.772-3.974-7.252-9.34-.9,2.581-4.322,7.367-7.339,9.224Zm18.246-10.123h-7.484c.262,2.756,2.292,6.9,7.484,10.239Z" fill="#eb5a24"/>
    <path id="Path_3038" data-name="Path 3038" d="M8216.575,6278.778h6.9v24.4c1.393-2.726,1.393-4.989,1.393-7.745v-9.891h10.385v-1.1h2.523c0,.377-.029.841-.029,1.1h1.712a9.788,9.788,0,0,0-1.045-2l2.379-.7a8.88,8.88,0,0,1,1.073,2.031l-2.379.667h3.162v2.234h-4.9a62.788,62.788,0,0,0,.58,7.512,26.7,26.7,0,0,0,1.538-6.323l2.494.435a26.17,26.17,0,0,1-3.277,9.775c.318,1.132.7,2.524,1.073,2.524s.435-.261,1.1-2.843l1.973,1.421c-.348,2.06-1.334,4.932-2.93,4.932-1.711,0-2.64-2.785-2.9-3.626a17.577,17.577,0,0,1-4.089,3.655l-1.8-1.712c.667-.406.9-.58,1.306-.87h-4.729V6289.4h6.9v1.972h-1.681v1.625h1.942v5.656h-1.942v1.828h1.855a13.168,13.168,0,0,0,1.392-1.8,62.469,62.469,0,0,1-1.247-10.906h-8.238v7.715c0,5.28-.551,7.4-1.653,9.747l-1.943-2.031a2.271,2.271,0,0,1-2.263,2.031h-1.827l-.464-3.017h1.77c.348,0,.377-.174.377-.377v-6.121h-2.089a31.681,31.681,0,0,1-1.595,9.573l-2.205-1.712a31.211,31.211,0,0,0,1.393-9.978Zm2.407,2.669v4.525h2.089v-4.525Zm0,6.991v4.786h2.089v-4.786Zm5.279-8.355h4.322v-2.059h2.582v2.059h4.09v-2.059h2.523v2.059h4.873v2.524h-4.873v1.1h-2.523v-1.1h-4.09v2.031h-2.582v-2.031h-4.322Zm5.8,11.284v1.625h1.45v-1.625Zm0,3.423v2.06h3.25v-2.06Zm0,3.858v1.828h1.45v-1.828Z" fill="#eb5a24"/>
    <path id="Path_3039" data-name="Path 3039" d="M8256.568,6301.955c0,2.205-.116,3.307-3.249,3.307h-2.466l-.493-3.017h2.5c.928,0,1.015-.551,1.015-1.276v-5.309h-3.626c-.028,1.306-.261,6.585-1.681,9.6L8246.01,6303a26.818,26.818,0,0,0,1.683-9.543v-14.62h8.876Zm-2.7-20.421h-3.423v4.438h3.423Zm0,7.02h-3.423v4.641h3.423Zm18.884-7.745c-2.959,1.537-8.876,2.669-11.371,2.987v1.48c0,.725.29.9,1.219.9h6.7c1.45,0,1.625-.783,1.683-3.568l2.988.9c-.406,4.613-1.306,5.541-4.265,5.541h-7.716c-1.508,0-3.423-.145-3.423-2.582v-8.528h2.813v3.1a44.057,44.057,0,0,0,9.862-2.756Zm-.145,23.9h-13.837v-13.4h13.837Zm-2.814-10.79h-8.267v2.843h8.267Zm0,5.134h-8.267v3.1h8.267Z" fill="#eb5a24"/>
    <path id="Path_3040" data-name="Path 3040" d="M8278.839,6278.778h8.934v23.612c0,1.16,0,2.814-2.146,2.814h-3.6l-.58-2.959h2.843c.58,0,.754-.029.754-.754V6295.6h-3.567c-.29,4.234-.87,7.425-2.379,9.8l-2.06-2.843c1.422-2.668,1.8-6.411,1.8-9.514Zm2.756,2.64v4.467h3.451v-4.467Zm0,6.991v4.641h3.451v-4.641Zm13.459,3.1c-.261,8.442-3.655,12.3-5.019,13.837l-2.06-2.408c2.263-2.669,4.062-5.946,4.062-13.227v-5.163h-3.51v-2.843H8295v-3.771h3.046v3.771h6.991v2.843h-9.979v4.148h8.905c0,2.117,0,11.457-.842,14.358a2.562,2.562,0,0,1-2.843,2.147h-4.38l-.638-2.959h3.8c1.1,0,1.363-.7,1.479-1.566a89.085,89.085,0,0,0,.464-9.167Z" fill="#eb5a24"/>
    <path id="Path_3041" data-name="Path 3041" d="M8336.091,6281.737h-12.415a27.173,27.173,0,0,1-.841,2.988h11.979v19.725h-24.54v-19.725h9.515a15.642,15.642,0,0,0,.783-2.988h-11.748v-2.727h27.267Zm-19.608,5.6H8313.2v14.533h3.278Zm9.2,0h-6.411v2.988h6.411Zm0,5.454h-6.411v3.1h6.411Zm0,5.569h-6.411v3.51h6.411Zm6.236-11.023h-3.365v14.533h3.365Z" fill="#eb5a24"/>
    <path id="Path_3042" data-name="Path 3042" d="M8343.857,6281.708c-1.1.174-2,.232-3.336.319l-.436-2.61a30.467,30.467,0,0,0,8.7-1.422l.957,2.466a21.781,21.781,0,0,1-3.1.812v3.945h2.582V6288h-2.582v1.045a13.3,13.3,0,0,0,3.916,5.047l-1.509,2.7a9.872,9.872,0,0,1-2.407-4.322v12.7h-2.784v-11.342a15.27,15.27,0,0,1-2.988,5.8l-1.363-3.393a21.231,21.231,0,0,0,4.235-8.239h-3.655v-2.784h3.771Zm4.583,21.03a24.047,24.047,0,0,0,6-2.234h-3.364v-11.022h14.938V6300.5h-3.626a19.308,19.308,0,0,0,5.511,2.205l-1.363,2.466a22.119,22.119,0,0,1-6.207-2.9l1.566-1.77h-6.991l1.653,1.683a23.943,23.943,0,0,1-6.671,2.988Zm8.673-24.743h2.871v1.422h6.788v2.262h-6.788v1.363h5.831v1.857h-5.831v1.247h7.455v2.205h-17.549v-2.205h7.223V6284.9h-5.83v-1.857h5.83v-1.363h-6.729v-2.262h6.729Zm-3.278,13.372v1.277h9.457v-1.277Zm0,2.843v1.276h9.457v-1.276Zm0,2.872v1.305h9.457v-1.305Z" fill="#eb5a24"/>
    <path id="Path_3043" data-name="Path 3043" d="M8376.337,6305.2h-2.9v-13.692c-.406.61-.639.958-1.422,2.06l-1.45-3.887c1.045-1.363,3.278-4.206,4.38-11.661l3.1.2a44.639,44.639,0,0,1-1.712,6.991Zm13.546-27.18v2.118h8.645v2.465h-8.645v2h7.224v15.722h-13.575v-15.722h3.422v-2h-8.237v-2.465h8.237v-2.118Zm8.645,26.628h-19.812v-20.043h2.784V6302.1h17.027Zm-4.148-17.665h-8.18v1.973h8.18Zm0,4.38h-8.18v2.147h8.18Zm0,4.293h-8.18v2.263h8.18Z" fill="#eb5a24"/>
    <path id="Path_3044" data-name="Path 3044" d="M8426.135,6281.766v2.814h-12.5a21.561,21.561,0,0,1-1.683,3.654c1.711-.985,2.756-1.508,4.234-1.508,2.408,0,3.858.928,4.525,3.162,1.334-.522,4.67-1.827,6.991-2.553l.754,3.075a70.373,70.373,0,0,0-7.309,2.263,29.7,29.7,0,0,1,.144,3.133,20.923,20.923,0,0,1-.087,2.117h-3.1a21.975,21.975,0,0,0,.087-4.032c-3.046,1.422-4.96,2.9-4.96,4.612,0,2.321,2.843,2.321,6.033,2.321a68.029,68.029,0,0,0,7.513-.407l.087,3.1c-2,.116-4.437.232-6.7.232-3.452,0-10.211,0-10.211-4.873,0-4.061,5.425-6.7,7.861-7.774a2.09,2.09,0,0,0-2.292-1.8,8.087,8.087,0,0,0-5.221,2.582c-.116.115-3.51,4.611-4.293,5.4l-2.205-2.321a25.073,25.073,0,0,0,6.555-10.384H8404.7v-2.814h6.5a22.961,22.961,0,0,0,.58-3.075l3.423.145c-.2,1.1-.348,1.683-.667,2.93Z" fill="#eb5a24"/>
    <path id="Path_3045" data-name="Path 3045" d="M8453.481,6300.737v4.5h-2.959v-4.5h-7.165c-1.537,3.016-5.772,4.09-7.367,4.5l-1.363-2.64c1.16-.116,3.654-.348,5.279-1.856h-6.295v-2.466h7.716a13.44,13.44,0,0,0,.319-1.508h-4.9v-12.009a10.716,10.716,0,0,1-1.16.986l-2.176-2.089a13.051,13.051,0,0,0,4.525-5.859l2.959.609a11.811,11.811,0,0,1-.522,1.219h6.469v2.523h-4.178c.2.377.262.522.668,1.451l-2.7.957h7.774l-2.263-1.393a12.5,12.5,0,0,0,3.48-5.366l2.872.58a9.241,9.241,0,0,1-.377,1.248h8.76v2.523h-5.656c.2.348.7,1.19.813,1.451l-2.756.927-1.189-2.378h-1.306a13.028,13.028,0,0,1-1.856,2.408h8.935v12.212h-4.38v1.508h7.4v2.466Zm-13.924-18.594h-.667a16.939,16.939,0,0,1-1.914,2.408h3.626A18.748,18.748,0,0,0,8439.558,6282.143Zm15.461,4.438h-15.432v1.451h15.432Zm0,3.307h-15.432v1.45h15.432Zm0,3.336h-15.432v1.45h15.432Zm-4.5,3.539h-6.179a12.472,12.472,0,0,1-.2,1.508h6.382Z" fill="#eb5a24"/>
    <path id="Path_3046" data-name="Path 3046" d="M8469.921,6280.113V6288h6.9v-9.978h3.074V6288h6.991v-7.889h3.133v10.79H8479.9v10.762h7.948V6292.7h3.1v11.863H8465.8V6292.7h3.074v8.963h7.948V6290.9h-10.008v-10.79Z" fill="#eb5a24"/>
    <path id="Path_3047" data-name="Path 3047" d="M8504.634,6279.475c-.261,6.149-.406,12.588-.406,14.184,0,3.539.262,6.962,5.251,6.962,7.193,0,8.122-5.308,8.875-9.4l3.047,1.277c-1.045,5.4-3.191,11.225-11.864,11.225-7.89,0-8.673-5.047-8.673-10.181,0-2.233.145-12.1.174-14.1Z" fill="#eb5a24"/>
    <path id="Path_3048" data-name="Path 3048" d="M8552.778,6283.884c-1.1-.058-2-.116-2.785-.116a9.457,9.457,0,0,0-3.074.348c-4.119,1.276-9.515,5.743-9.515,10.471,0,3.626,2.872,4.583,5.686,5.1a36.639,36.639,0,0,0,7.193.435l-.58,3.481c-5.859-.174-15.664-.493-15.664-8.818,0-5.569,5.222-9.253,7.774-10.819-3.075.2-10.5.725-13.2,1.044l-.232-3.51c1.856,0,10.065-.493,11.719-.58,4.438-.2,7.774-.261,12.618-.348Z" fill="#eb5a24"/>
    <path id="Path_3049" data-name="Path 3049" d="M8564,6280.78a56.749,56.749,0,0,0-.7,8.615c0,3.771.261,9.978,3.19,9.978a2.725,2.725,0,0,0,2.089-1.421,19.136,19.136,0,0,0,2.292-4.7l2.64,1.566a18.291,18.291,0,0,1-3.888,6.817,4.639,4.639,0,0,1-3.336,1.421c-5.134,0-6.207-7.513-6.207-14.01,0-2.843.261-5.976.493-8.586ZM8580.7,6300.3c.058-5.135.174-12.822-5.135-17.173l2.553-1.827c4.583,4.061,6.121,8.209,6.121,18.854Z" fill="#eb5a24"/>
    <path id="Path_3050" data-name="Path 3050" d="M8614.49,6282.143v2.756h-9.021v3.1h8.411v2.727h-8.411v3.684a27.4,27.4,0,0,1,8.44,5.134l-2.088,3.046a21.547,21.547,0,0,0-6.353-4.873l-.029,1.363c-.087,3.771-3.394,4.7-5.976,4.7-5.889,0-7.165-3.19-7.165-5.047,0-3.075,3.017-5.337,7.368-5.337a15.752,15.752,0,0,1,2.581.232v-2.9h-10.21V6288h10.21v-3.1h-10.7v-2.756h10.7V6279.3h3.221v2.843Zm-12.241,14.243a9,9,0,0,0-2.668-.378c-2.408,0-4.265.987-4.265,2.611,0,.406.2,2.379,3.713,2.379,1.915,0,3.22-.581,3.22-2.756Z" fill="#eb5a24"/>
    <path id="Path_3051" data-name="Path 3051" d="M8646.535,6282.056v2.988h-7.513v5.859a14.386,14.386,0,0,1,.522,3.916c0,8.151-7.773,9.079-12.038,9.253l-1.016-2.958c8.441.087,9.544-2.843,9.862-4.989a4.02,4.02,0,0,1-3.974,2.2,5.428,5.428,0,0,1-5.453-5.714,5.719,5.719,0,0,1,6.033-5.889,4.3,4.3,0,0,1,2.9.928l-.029-2.61h-13.894v-2.988h13.835l-.058-3.075h3.307v3.075Zm-10.587,9.659a2.674,2.674,0,0,0-2.872-2.436,3.286,3.286,0,0,0-.232,6.555,2.942,2.942,0,0,0,3.1-2.987Z" fill="#eb5a24"/>
  </g>
</svg>
