<svg xmlns="http://www.w3.org/2000/svg" width="750" height="70" viewBox="0 0 750 70">
  <g id="Group_1939" data-name="Group 1939" transform="translate(0 -4731.684)">
    <rect id="Rectangle_204" data-name="Rectangle 204" width="750" height="70" transform="translate(0 4731.684)" fill="#00532c"/>
    <path id="Path_3052" data-name="Path 3052" d="M8268.219,9371.188v3.09h-6.93v3.27a20.18,20.18,0,0,1,3.689-.3c8.58,0,10.23,4.77,10.23,7.919,0,2.07-.78,5.37-5.13,6.93a17.126,17.126,0,0,1-5.67.842l-.51-3c2.4-.031,7.739-.151,7.739-4.771,0-2.189-1.41-5.01-6.419-5.01a27.208,27.208,0,0,0-3.931.33v8.46c0,2.34-1.409,3.45-4.169,3.45-4.41,0-6.66-2.76-6.66-5.97,0-5.1,4.859-7.08,7.59-8.16v-3.989h-7.02v-3.09h7.02v-3.54h3.239v3.54Zm-10.14,10.169c-1.649.75-4.47,2.04-4.47,4.86a3.039,3.039,0,0,0,3.271,2.971c1.2,0,1.2-.511,1.2-.932Zm12.48-13.649a21.2,21.2,0,0,1,5.97,7.83l-2.94,1.77a23.53,23.53,0,0,0-5.61-7.89Z" transform="translate(-8035 -4609.465)" fill="#fff"/>
    <path id="Path_3053" data-name="Path 3053" d="M8311.659,9370.558v3.09h-7.77v6.061a14.922,14.922,0,0,1,.539,4.05c0,8.431-8.039,9.39-12.45,9.569l-1.049-3.06c8.729.09,9.87-2.94,10.2-5.16a4.158,4.158,0,0,1-4.109,2.28,5.614,5.614,0,0,1-5.64-5.91,5.914,5.914,0,0,1,6.239-6.09,4.44,4.44,0,0,1,3,.96l-.03-2.7H8286.22v-3.09h14.31l-.06-3.18h3.42v3.18Zm-10.95,9.99a2.766,2.766,0,0,0-2.97-2.521,3.146,3.146,0,0,0-3.3,3.33c0,2.07,1.289,3.45,3.06,3.45a3.043,3.043,0,0,0,3.21-3.09Z" transform="translate(-8035 -4609.465)" fill="#fff"/>
    <path id="Path_3054" data-name="Path 3054" d="M8347.659,9370.558v3.09h-7.77v6.061a14.922,14.922,0,0,1,.539,4.05c0,8.431-8.039,9.39-12.45,9.569l-1.049-3.06c8.729.09,9.87-2.94,10.2-5.16a4.158,4.158,0,0,1-4.109,2.28,5.614,5.614,0,0,1-5.64-5.91,5.914,5.914,0,0,1,6.239-6.09,4.44,4.44,0,0,1,3,.96l-.03-2.7H8322.22v-3.09h14.31l-.06-3.18h3.42v3.18Zm-10.95,9.99a2.766,2.766,0,0,0-2.97-2.521,3.146,3.146,0,0,0-3.3,3.33c0,2.07,1.289,3.45,3.06,3.45a3.043,3.043,0,0,0,3.21-3.09Z" transform="translate(-8035 -4609.465)" fill="#fff"/>
    <path id="Path_3055" data-name="Path 3055" d="M8363.529,9369.058a37.209,37.209,0,0,0,.9,5.16,15.892,15.892,0,0,1,6.84-1.979,44.331,44.331,0,0,0,.24-4.65l3.449.21c-.12,1.59-.27,3.33-.42,4.47,7.649.841,9.149,6.99,9.149,10.35,0,9.66-9.719,10.229-11.939,10.35l-.93-3.09c2.49-.12,9.63-.45,9.63-7.409,0-4.38-2.49-6.87-6.42-7.29-2.22,13.109-7.59,15.81-10.59,15.81-3.779,0-5.279-3.54-5.279-6.6a11.352,11.352,0,0,1,3.81-8.46,50.6,50.6,0,0,1-1.38-6.18Zm-.54,10.021a8.9,8.9,0,0,0-1.829,5.369c0,2.311,1.079,3.42,2.43,3.42a4.466,4.466,0,0,0,3.239-1.859C8364.64,9383.638,8363.14,9379.468,8362.989,9379.078Zm8.04-3.96a13.765,13.765,0,0,0-5.79,1.949,21.741,21.741,0,0,0,3.12,6.66A31.5,31.5,0,0,0,8371.029,9375.118Z" transform="translate(-8035 -4609.465)" fill="#fff"/>
    <path id="Path_3056" data-name="Path 3056" d="M8419.509,9368.729c-1.02,7.47-4.56,10.469-9.239,12.96l-2.25-2.581c5.189-2.25,6.51-4.739,7.26-7.14H8394.49v-3.239Zm-24.659,21.629c8.22-3.419,9.27-9,9.24-15.569l3.479.029c-.12,6-.66,13.621-10.47,18.27Z" transform="translate(-8035 -4609.465)" fill="#fff"/>
    <path id="Path_3057" data-name="Path 3057" d="M8432.319,9390.147c8.7-1.74,16.35-6.57,18.06-17.97h-10.02a24.954,24.954,0,0,1-7.71,7.979l-2.13-2.52a20.943,20.943,0,0,0,7.62-8.58h16.14c-1.261,15.6-10.051,21.989-20.579,24.239Z" transform="translate(-8035 -4609.465)" fill="#fff"/>
    <path id="Path_3058" data-name="Path 3058" d="M8475.52,9381.718a33.373,33.373,0,0,0-8.609-3.66l1.26-2.85a32.415,32.415,0,0,1,8.729,3.42Zm-6.96,7.2c12-1.109,16.859-5.7,20.279-16.739l2.85,2.13c-4.35,12.81-10.5,16.619-22.438,18.27Zm9.479-14.31a39.394,39.394,0,0,0-8.789-3.539l1.26-2.761a36.707,36.707,0,0,1,8.939,3.21Z" transform="translate(-8035 -4609.465)" fill="#fff"/>
    <path id="Path_3059" data-name="Path 3059" d="M8506.81,9384.207v-2.819h13.229v-4.47h-13.561v-2.851h16.74V9392.1H8506.18v-2.939h13.859v-4.95Z" transform="translate(-8035 -4609.465)" fill="#fff"/>
    <path id="Path_3060" data-name="Path 3060" d="M8548.449,9376.708a36.987,36.987,0,0,0-9.3-4.41l1.62-2.939a37.82,37.82,0,0,1,9.479,4.229Zm-8.669,12.119c11.909-.87,17.938-6.479,21.389-17.969l2.939,2.1c-1.619,4.83-6.06,18.149-23.639,19.56Z" transform="translate(-8035 -4609.465)" fill="#fff"/>
  </g>
</svg>
