<svg xmlns="http://www.w3.org/2000/svg" xmlns:xlink="http://www.w3.org/1999/xlink" width="657.826" height="184.839" viewBox="0 0 657.826 184.839">
  <defs>
    <clipPath id="clip-path">
      <rect id="Rectangle_223" data-name="Rectangle 223" width="185.441" height="153.78" transform="translate(8746.709 9276.938) rotate(-180)" fill="none"/>
    </clipPath>
    <radialGradient id="radial-gradient" cx="0.5" cy="0.5" r="0.5" gradientTransform="matrix(-1, 0, 0, 1, 466.192, 0)" gradientUnits="objectBoundingBox">
      <stop offset="0" stop-color="#ff7b91"/>
      <stop offset="1" stop-color="#ffd7ba"/>
    </radialGradient>
    <radialGradient id="radial-gradient-2" cx="0.5" cy="0.5" r="0.5" gradientTransform="matrix(-1, 0, 0, 1, 477.964, 0)" xlink:href="#radial-gradient"/>
  </defs>
  <g id="Group_1942" data-name="Group 1942" transform="translate(-53.883 -4482.634)">
    <g id="Group_1082" data-name="Group 1082" transform="translate(-8035 -4609.465)">
      <g id="Group_1081" data-name="Group 1081" clip-path="url(#clip-path)">
        <g id="Group_1080" data-name="Group 1080">
          <g id="Group_1066" data-name="Group 1066">
            <path id="Path_3413" data-name="Path 3413" d="M8670.187,9236.675c.493.956.206.809.822,1.994.283.545.381,1.312.754,2.027.309.59.235,1.443.589,2.12.318.607,1.446.827,1.791,1.482.326.62.906,1.127,1.247,1.772.332.628-.148,1.7.189,2.335s.624,1.3.961,1.929c.345.644,1.7.73,2.038,1.348.354.653.05,1.639.382,2.242.367.668.772,1.27,1.1,1.853.395.7.948,1.214,1.265,1.749a6.7,6.7,0,0,0,1.358,1.558c.247.274.271,1.255.736,2.169.279.548.833,1.088,1.161,1.816.271.6.187,1.421.477,2.122.26.628.991,1.109,1.257,1.8.246.645.369,1.37.612,2.057.234.659.353,1.379.577,2.066.218.671.809,1.245,1.013,1.932s-.342,1.581-.16,2.271.337,1.383.491,2.072-.165,1.478-.042,2.167c.128.718,1.561,1.225,1.644,1.914.088.729-.431,1.516-.4,2.2a16.773,16.773,0,0,1-.438,2.109c-.046.674.937,1.554.79,2.295-.136.673-1.207,1.17-1.43,1.883-.207.661-.876,1.139-1.163,1.822-.269.643.336,1.708-.007,2.359-.326.619-.533,1.373-.928,1.993-.377.591-1.417.758-1.86,1.343-.425.561-1.015.974-1.5,1.521-.467.526-.829,1.14-1.354,1.649-.506.488-.61,1.458-1.173,1.927-.541.45-1.306.667-1.9,1.095-.571.41-1.3.614-1.918,1-.6.37-1.366.436-2.012.779-.622.33-.88,1.433-1.547,1.734-.642.29-1.527.057-2.212.318-.657.251-1.418.2-2.115.425-.671.214-1.082,1.392-1.79,1.576-.682.178-1.62-.673-2.336-.523-.689.144-1.377.251-2.1.367-.7.112-1.329.722-2.057.806-.7.081-1.468-.553-2.2-.5-.705.052-1.381.585-2.114.61-.707.025-1.421.853-2.154.853s-1.447-.35-2.147-.371c-.724-.023-1.428-.343-2.125-.388-.724-.048-1.448.024-2.143-.046-.724-.072-1.5.316-2.2.22-.719-.1-1.449-.222-2.135-.348-.715-.131-1.24-1.154-1.92-1.312-.71-.164-1.307-.628-1.979-.818-.7-.2-1.4-.277-2.057-.5-.689-.233-1.7.416-2.341.155-.676-.273-1.023-1.271-1.651-1.571-.657-.312-1.1-.945-1.706-1.286-.635-.356-1.478-.293-2.06-.676-.608-.4-1.674-.169-2.227-.594-.576-.444-.912-1.215-1.427-1.682-.539-.489-1.05-1.023-1.524-1.532-.494-.532-.558-1.418-.984-1.968-.446-.574-.933-1.085-1.307-1.673-.389-.612-.328-1.427-.642-2.048-.328-.649-1.425-.93-1.672-1.581-.258-.681.36-1.61.187-2.284-.182-.705-1.377-1.2-1.468-1.885a16.884,16.884,0,0,1-.029-2.2c0-.624.912-1.3.954-2.063.036-.648-.923-1.419-.856-2.157.06-.66,1.2-1.243,1.287-1.967.078-.665-.267-1.4-.167-2.117.093-.669.3-1.338.418-2.044.106-.672.1-1.377.223-2.077.119-.673.476-1.312.612-2.008.132-.673.484-1.3.632-2,.144-.673-.362-1.5-.2-2.182s.751-1.245.921-1.927-.2-1.485-.014-2.163-.109-1.482.084-2.156,1.484-1.016,1.689-1.685-.585-1.649-.367-2.313.768-1.223,1-1.881.223-1.415.468-2.066,1.338-.98,1.6-1.626.9-1.124,1.177-1.76.357-1.355.652-1.982.688-1.2,1-1.818-.5-1.858-.166-2.462,1.063-1.028,1.422-1.617,1.331-.807,1.717-1.377.966-1,1.381-1.547c.428-.563.01-1.79.457-2.311.463-.536,1.687-.343,2.171-.827" fill="#fff3d9"/>
            <path id="Path_3414" data-name="Path 3414" d="M8670.187,9236.675c.493.956.206.809.822,1.994.283.545.381,1.312.754,2.027.309.59.235,1.443.589,2.12.318.607,1.446.827,1.791,1.482.326.62.906,1.127,1.247,1.772.332.628-.148,1.7.189,2.335s.624,1.3.961,1.929c.345.644,1.7.73,2.038,1.348.354.653.05,1.639.382,2.242.367.668.772,1.27,1.1,1.853.395.7.948,1.214,1.265,1.749a6.7,6.7,0,0,0,1.358,1.558c.247.274.271,1.255.736,2.169.279.548.833,1.088,1.161,1.816.271.6.187,1.421.477,2.122.26.628.991,1.109,1.257,1.8.246.645.369,1.37.612,2.057.234.659.353,1.379.577,2.066.218.671.809,1.245,1.013,1.932s-.342,1.581-.16,2.271.337,1.383.491,2.072-.165,1.478-.042,2.167c.128.718,1.561,1.225,1.644,1.914.088.729-.431,1.516-.4,2.2a16.773,16.773,0,0,1-.438,2.109c-.046.674.937,1.554.79,2.295-.136.673-1.207,1.17-1.43,1.883-.207.661-.876,1.139-1.163,1.822-.269.643.336,1.708-.007,2.359-.326.619-.533,1.373-.928,1.993-.377.591-1.417.758-1.86,1.343-.425.561-1.015.974-1.5,1.521-.467.526-.829,1.14-1.354,1.649-.506.488-.61,1.458-1.173,1.927-.541.45-1.306.667-1.9,1.095-.571.41-1.3.614-1.918,1-.6.37-1.366.436-2.012.779-.622.33-.88,1.433-1.547,1.734-.642.29-1.527.057-2.212.318-.657.251-1.418.2-2.115.425-.671.214-1.082,1.392-1.79,1.576-.682.178-1.62-.673-2.336-.523-.689.144-1.377.251-2.1.367-.7.112-1.329.722-2.057.806-.7.081-1.468-.553-2.2-.5-.705.052-1.381.585-2.114.61-.707.025-1.421.853-2.154.853s-1.447-.35-2.147-.371c-.724-.023-1.428-.343-2.125-.388-.724-.048-1.448.024-2.143-.046-.724-.072-1.5.316-2.2.22-.719-.1-1.449-.222-2.135-.348-.715-.131-1.24-1.154-1.92-1.312-.71-.164-1.307-.628-1.979-.818-.7-.2-1.4-.277-2.057-.5-.689-.233-1.7.416-2.341.155-.676-.273-1.023-1.271-1.651-1.571-.657-.312-1.1-.945-1.706-1.286-.635-.356-1.478-.293-2.06-.676-.608-.4-1.674-.169-2.227-.594-.576-.444-.912-1.215-1.427-1.682-.539-.489-1.05-1.023-1.524-1.532-.494-.532-.558-1.418-.984-1.968-.446-.574-.933-1.085-1.307-1.673-.389-.612-.328-1.427-.642-2.048-.328-.649-1.425-.93-1.672-1.581-.258-.681.36-1.61.187-2.284-.182-.705-1.377-1.2-1.468-1.885a16.884,16.884,0,0,1-.029-2.2c0-.624.912-1.3.954-2.063.036-.648-.923-1.419-.856-2.157.06-.66,1.2-1.243,1.287-1.967.078-.665-.267-1.4-.167-2.117.093-.669.3-1.338.418-2.044.106-.672.1-1.377.223-2.077.119-.673.476-1.312.612-2.008.132-.673.484-1.3.632-2,.144-.673-.362-1.5-.2-2.182s.751-1.245.921-1.927-.2-1.485-.014-2.163-.109-1.482.084-2.156,1.484-1.016,1.689-1.685-.585-1.649-.367-2.313.768-1.223,1-1.881.223-1.415.468-2.066,1.338-.98,1.6-1.626.9-1.124,1.177-1.76.357-1.355.652-1.982.688-1.2,1-1.818-.5-1.858-.166-2.462,1.063-1.028,1.422-1.617,1.331-.807,1.717-1.377.966-1,1.381-1.547c.428-.563.01-1.79.457-2.311.463-.536,1.687-.343,2.171-.827" fill="none" stroke="#bca787" stroke-linecap="round" stroke-linejoin="round" stroke-width="1.822"/>
          </g>
          <g id="Group_1068" data-name="Group 1068">
            <g id="Group_1067" data-name="Group 1067">
              <path id="Path_3415" data-name="Path 3415" d="M8640.38,9238.462a11.169,11.169,0,0,1-1.607.085c-.55.1-.9.235-1.554.33-.392.058-.85.341-1.539.459-.5.087-1.06,0-1.6.077-.52.076-1,.507-1.535.57s-1.08.013-1.6.061c-.542.049-1.1-.21-1.606-.187-.557.024-1.087.211-1.582.193a11.055,11.055,0,0,1-1.6-.065c-.521-.1-.956-.624-1.494-.774-.515-.143-1-.35-1.521-.542-.5-.185-1.187.046-1.689-.189s-.826-.779-1.312-1.038-1.028-.392-1.5-.668-.94-.562-1.4-.854-1.082-.359-1.533-.66-.821-.76-1.26-1.068c-.457-.322-.788-.8-1.212-1.118-.454-.341-1.114-.391-1.524-.72-.451-.36-.61-1.035-1-1.365-.458-.384-.872-.741-1.244-1.056-.394-.333-1.021-.478-1.428-.894-.371-.379-.644-.891-1.017-1.321-.354-.407-.5-1-.849-1.439s-.927-.675-1.253-1.121-.379-1.082-.683-1.536-.713-.859-.99-1.321c-.295-.489-.9-.79-1.15-1.258-.276-.516-.216-1.174-.423-1.644a12.321,12.321,0,0,1-.734-1.5c-.131-.525.12-1.2-.024-1.807-.132-.554-.518-1.072-.655-1.657s-.525-1.089-.661-1.655c-.141-.588,0-1.229-.125-1.778-.137-.619-.355-1.182-.45-1.7a7.666,7.666,0,0,1,.075-1.75,4.354,4.354,0,0,0-.589-1.5,3.447,3.447,0,0,0-.934-1.211,1.506,1.506,0,0,0-1.347-.362,1.821,1.821,0,0,0-1.232.568c-.365.5-.229.849-.642.245-.322-.474-.731-.778-.943-1.157-.286-.512-.453-.969-.662-1.336-.267-.468-.83-.521-1.246-.815-.331-.233-.578-.707-1.176-.87-.4-.109-.9-.124-1.478-.214-.618-.1-1.214-.3-1.812-.354a18.075,18.075,0,0,0-1.841.265,13.438,13.438,0,0,0-1.813.033c-.614.093-1.327-.168-1.9.039a8.5,8.5,0,0,0-1.584,1.026,8.275,8.275,0,0,0-1.336,1.268,8.774,8.774,0,0,0-.72,1.242,10.72,10.72,0,0,0-.824,1.169c-.209.425-.262.911-.435,1.371s-.3.89-.437,1.359-.549.852-.645,1.325-.286.945-.342,1.422.1.99.086,1.466c-.02.5.041.974.065,1.442.026.5-.3,1.038-.227,1.493.1.571.6,1.1.809,1.716.187.553.5,1.08.761,1.669.241.538.274,1.206.575,1.772.278.524.541,1.092.875,1.634.313.507.621,1.053.983,1.573.341.491.774.948,1.16,1.449.366.475.669,1.024,1.064,1.513.382.469,1.2.584,1.614,1.056.4.454.529,1.168.97,1.617.349.356.732.687,1.091,1.047s.731.688,1.089,1.043.642.787,1,1.143.8.629,1.154.979.77.661,1.129,1.007.877.554,1.237.9.462.993.822,1.329c.378.354.642.811,1,1.142.387.357,1.075.354,1.434.675.4.355.444,1.07.8,1.373.423.361,1.077.365,1.428.642a13.059,13.059,0,0,0,1.2.87c.3.178.712.552,1.294.942.392.264.97.372,1.462.7.416.281.881.559,1.354.874.427.284.834.644,1.288.956.432.3.893.571,1.346.875s.619,1.007,1.078,1.292,1.1.258,1.562.533.913.57,1.374.832.977.465,1.439.709c.49.258.924.586,1.391.806.511.24,1.064.291,1.536.474a13.634,13.634,0,0,0,1.472.57c.528.132,1.042.413,1.605.546.541.128,1.146.031,1.7.163s1.037.524,1.588.661,1.176-.012,1.72.123,1.067.444,1.6.577c.568.141,1.156.129,1.682.261a14.106,14.106,0,0,1,1.557.751c.7.181,1.054.343,1.615.49.4.1.92.1,1.68.287" fill="#fff3d9"/>
              <path id="Path_3416" data-name="Path 3416" d="M8640.38,9238.462a11.169,11.169,0,0,1-1.607.085c-.55.1-.9.235-1.554.33-.392.058-.85.341-1.539.459-.5.087-1.06,0-1.6.077-.52.076-1,.507-1.535.57s-1.08.013-1.6.061c-.542.049-1.1-.21-1.606-.187-.557.024-1.087.211-1.582.193a11.055,11.055,0,0,1-1.6-.065c-.521-.1-.956-.624-1.494-.774-.515-.143-1-.35-1.521-.542-.5-.185-1.187.046-1.689-.189s-.826-.779-1.312-1.038-1.028-.392-1.5-.668-.94-.562-1.4-.854-1.082-.359-1.533-.66-.821-.76-1.26-1.068c-.457-.322-.788-.8-1.212-1.118-.454-.341-1.114-.391-1.524-.72-.451-.36-.61-1.035-1-1.365-.458-.384-.872-.741-1.244-1.056-.394-.333-1.021-.478-1.428-.894-.371-.379-.644-.891-1.017-1.321-.354-.407-.5-1-.849-1.439s-.927-.675-1.253-1.121-.379-1.082-.683-1.536-.713-.859-.99-1.321c-.295-.489-.9-.79-1.15-1.258-.276-.516-.216-1.174-.423-1.644a12.321,12.321,0,0,1-.734-1.5c-.131-.525.12-1.2-.024-1.807-.132-.554-.518-1.072-.655-1.657s-.525-1.089-.661-1.655c-.141-.588,0-1.229-.125-1.778-.137-.619-.355-1.182-.45-1.7a7.666,7.666,0,0,1,.075-1.75,4.354,4.354,0,0,0-.589-1.5,3.447,3.447,0,0,0-.934-1.211,1.506,1.506,0,0,0-1.347-.362,1.821,1.821,0,0,0-1.232.568c-.365.5-.229.849-.642.245-.322-.474-.731-.778-.943-1.157-.286-.512-.453-.969-.662-1.336-.267-.468-.83-.521-1.246-.815-.331-.233-.578-.707-1.176-.87-.4-.109-.9-.124-1.478-.214-.618-.1-1.214-.3-1.812-.354a18.075,18.075,0,0,0-1.841.265,13.438,13.438,0,0,0-1.813.033c-.614.093-1.327-.168-1.9.039a8.5,8.5,0,0,0-1.584,1.026,8.275,8.275,0,0,0-1.336,1.268,8.774,8.774,0,0,0-.72,1.242,10.72,10.72,0,0,0-.824,1.169c-.209.425-.262.911-.435,1.371s-.3.89-.437,1.359-.549.852-.645,1.325-.286.945-.342,1.422.1.99.086,1.466c-.02.5.041.974.065,1.442.026.5-.3,1.038-.227,1.493.1.571.6,1.1.809,1.716.187.553.5,1.08.761,1.669.241.538.274,1.206.575,1.772.278.524.541,1.092.875,1.634.313.507.621,1.053.983,1.573.341.491.774.948,1.16,1.449.366.475.669,1.024,1.064,1.513.382.469,1.2.584,1.614,1.056.4.454.529,1.168.97,1.617.349.356.732.687,1.091,1.047s.731.688,1.089,1.043.642.787,1,1.143.8.629,1.154.979.77.661,1.129,1.007.877.554,1.237.9.462.993.822,1.329c.378.354.642.811,1,1.142.387.357,1.075.354,1.434.675.4.355.444,1.07.8,1.373.423.361,1.077.365,1.428.642a13.059,13.059,0,0,0,1.2.87c.3.178.712.552,1.294.942.392.264.97.372,1.462.7.416.281.881.559,1.354.874.427.284.834.644,1.288.956.432.3.893.571,1.346.875s.619,1.007,1.078,1.292,1.1.258,1.562.533.913.57,1.374.832.977.465,1.439.709c.49.258.924.586,1.391.806.511.24,1.064.291,1.536.474a13.634,13.634,0,0,0,1.472.57c.528.132,1.042.413,1.605.546.541.128,1.146.031,1.7.163s1.037.524,1.588.661,1.176-.012,1.72.123,1.067.444,1.6.577c.568.141,1.156.129,1.682.261a14.106,14.106,0,0,1,1.557.751c.7.181,1.054.343,1.615.49.4.1.92.1,1.68.287" fill="none" stroke="#bca787" stroke-linecap="round" stroke-linejoin="round" stroke-width="1.724"/>
            </g>
          </g>
          <g id="Group_1070" data-name="Group 1070">
            <g id="Group_1069" data-name="Group 1069">
              <path id="Path_3417" data-name="Path 3417" d="M8663.639,9237.211c.566.467.989.792,1.34,1.055a4.153,4.153,0,0,0,1.391.859,10.308,10.308,0,0,0,1.623.53c.458.081.968.369,1.641.5.523.1,1.114.049,1.7.121.535.065,1.126-.329,1.714-.3.541.026,1.088.317,1.674.3.543-.017,1.073-.325,1.656-.388.611-.065,1.262.331,1.845.255.607-.08,1.179-.327,1.759-.415.6-.09,1.168-.352,1.749-.444.6-.1,1.21-.08,1.791-.191s1.2-.128,1.778-.27,1.235-.082,1.8-.269,1.079-.567,1.637-.8,1.107-.458,1.649-.734c.524-.267.975-.692,1.5-1.011.43-.26.833-.7,1.362-1.078.438-.313,1.055-.463,1.536-.851.432-.351,1.019-.576,1.469-.98.419-.378.421-1.226.845-1.64s.877-.751,1.289-1.171,1.213-.442,1.619-.859.832-.836,1.22-1.261.3-1.307.673-1.736c.393-.449.829-.837,1.189-1.266.393-.467,1.108-.639,1.442-1.072.386-.5.605-1.071.9-1.506a8.286,8.286,0,0,0,.689-1.586c.229-.507.586-.98.807-1.528.215-.527.713-.966.909-1.511s-.037-1.242.13-1.784c.176-.568.787-.994.942-1.523.173-.594,0-1.251.133-1.759.178-.66.418-1.21.508-1.648a5.122,5.122,0,0,1,.375-1.669,3.9,3.9,0,0,1,1.332-1.083,1.607,1.607,0,0,1,1.512.029c.548.2.637.587.864,1.026.324.625.755.94,1.313.374.438-.444,1.1-.592,1.4-.961.4-.5.523-1.071.809-1.433a3.208,3.208,0,0,1,1.214-.94c.393-.2.756-.841,1.432-.9.449-.044,1.013.156,1.654.172.684.017,1.348.2,2,.265.682.063,1.384-.063,2.025.061a14.874,14.874,0,0,1,1.95.558,10.617,10.617,0,0,1,1.9.759c.574.335.777,1.155,1.271,1.625a8.162,8.162,0,0,1,1.311,1.435,9.97,9.97,0,0,1,.838,1.315,11.8,11.8,0,0,1,.692,1.425,14.55,14.55,0,0,1,.062,1.6c.093.514.778.966.813,1.5s-.034,1.08-.041,1.608-.163,1.066-.2,1.588-.364,1.032-.434,1.546c-.071.536-.223,1.029-.336,1.528a13.4,13.4,0,0,1-.345,1.521,9.985,9.985,0,0,1-.779,1.554,15,15,0,0,1-.737,1.621c-.329.455-.771.866-1.167,1.341-.364.435-.839.8-1.249,1.253-.388.424-.7.941-1.121,1.372-.406.413-.9.755-1.331,1.168s-.6,1.086-1.055,1.475-.969.685-1.428,1.062-.909.75-1.366,1.125-1.2.395-1.657.759-.9.765-1.363,1.117-.945.706-1.42,1.042c-.458.325-.679,1.081-1.216,1.43-.482.314-1.211.3-1.748.621-.5.3-1.058.54-1.6.846-.512.291-.91.816-1.45,1.106-.524.282-1.074.539-1.615.821s-1.1.49-1.643.769-1.055.59-1.589.87-1.225.267-1.757.541-.91.889-1.445,1.148c-.555.268-1.029.687-1.565.937-.562.263-1.1.542-1.632.785-.57.262-1.245.239-1.768.478-.586.268-1.249.266-1.761.491-.619.272-1.191.47-1.675.674-.764.321-1.188.919-1.521,1.045-.419.16-.956.454-1.628.763-.493.227-1.073.426-1.673.7-.52.236-1.155.3-1.739.552-.536.229-.92.9-1.5,1.121-.556.21-1.265.041-1.846.234s-1.118.466-1.7.633-1.213.119-1.8.244-1.121.686-1.71.757a15.332,15.332,0,0,1-1.836.073" fill="#fff3d9"/>
              <path id="Path_3418" data-name="Path 3418" d="M8663.639,9237.211c.566.467.989.792,1.34,1.055a4.153,4.153,0,0,0,1.391.859,10.308,10.308,0,0,0,1.623.53c.458.081.968.369,1.641.5.523.1,1.114.049,1.7.121.535.065,1.126-.329,1.714-.3.541.026,1.088.317,1.674.3.543-.017,1.073-.325,1.656-.388.611-.065,1.262.331,1.845.255.607-.08,1.179-.327,1.759-.415.6-.09,1.168-.352,1.749-.444.6-.1,1.21-.08,1.791-.191s1.2-.128,1.778-.27,1.235-.082,1.8-.269,1.079-.567,1.637-.8,1.107-.458,1.649-.734c.524-.267.975-.692,1.5-1.011.43-.26.833-.7,1.362-1.078.438-.313,1.055-.463,1.536-.851.432-.351,1.019-.576,1.469-.98.419-.378.421-1.226.845-1.64s.877-.751,1.289-1.171,1.213-.442,1.619-.859.832-.836,1.22-1.261.3-1.307.673-1.736c.393-.449.829-.837,1.189-1.266.393-.467,1.108-.639,1.442-1.072.386-.5.605-1.071.9-1.506a8.286,8.286,0,0,0,.689-1.586c.229-.507.586-.98.807-1.528.215-.527.713-.966.909-1.511s-.037-1.242.13-1.784c.176-.568.787-.994.942-1.523.173-.594,0-1.251.133-1.759.178-.66.418-1.21.508-1.648a5.122,5.122,0,0,1,.375-1.669,3.9,3.9,0,0,1,1.332-1.083,1.607,1.607,0,0,1,1.512.029c.548.2.637.587.864,1.026.324.625.755.94,1.313.374.438-.444,1.1-.592,1.4-.961.4-.5.523-1.071.809-1.433a3.208,3.208,0,0,1,1.214-.94c.393-.2.756-.841,1.432-.9.449-.044,1.013.156,1.654.172.684.017,1.348.2,2,.265.682.063,1.384-.063,2.025.061a14.874,14.874,0,0,1,1.95.558,10.617,10.617,0,0,1,1.9.759c.574.335.777,1.155,1.271,1.625a8.162,8.162,0,0,1,1.311,1.435,9.97,9.97,0,0,1,.838,1.315,11.8,11.8,0,0,1,.692,1.425,14.55,14.55,0,0,1,.062,1.6c.093.514.778.966.813,1.5s-.034,1.08-.041,1.608-.163,1.066-.2,1.588-.364,1.032-.434,1.546c-.071.536-.223,1.029-.336,1.528a13.4,13.4,0,0,1-.345,1.521,9.985,9.985,0,0,1-.779,1.554,15,15,0,0,1-.737,1.621c-.329.455-.771.866-1.167,1.341-.364.435-.839.8-1.249,1.253-.388.424-.7.941-1.121,1.372-.406.413-.9.755-1.331,1.168s-.6,1.086-1.055,1.475-.969.685-1.428,1.062-.909.75-1.366,1.125-1.2.395-1.657.759-.9.765-1.363,1.117-.945.706-1.42,1.042c-.458.325-.679,1.081-1.216,1.43-.482.314-1.211.3-1.748.621-.5.3-1.058.54-1.6.846-.512.291-.91.816-1.45,1.106-.524.282-1.074.539-1.615.821s-1.1.49-1.643.769-1.055.59-1.589.87-1.225.267-1.757.541-.91.889-1.445,1.148c-.555.268-1.029.687-1.565.937-.562.263-1.1.542-1.632.785-.57.262-1.245.239-1.768.478-.586.268-1.249.266-1.761.491-.619.272-1.191.47-1.675.674-.764.321-1.188.919-1.521,1.045-.419.16-.956.454-1.628.763-.493.227-1.073.426-1.673.7-.52.236-1.155.3-1.739.552-.536.229-.92.9-1.5,1.121-.556.21-1.265.041-1.846.234s-1.118.466-1.7.633-1.213.119-1.8.244-1.121.686-1.71.757a15.332,15.332,0,0,1-1.836.073" fill="none" stroke="#bca787" stroke-linecap="round" stroke-linejoin="round" stroke-width="1.885"/>
            </g>
          </g>
          <g id="Group_1071" data-name="Group 1071">
            <path id="Path_3419" data-name="Path 3419" d="M8701.128,9214.753c-.206.621-.568,1.179-.819,1.776s-.467,1.215-.754,1.8-.419,1.254-.729,1.822-.6,1.172-.957,1.715-1.105.812-1.491,1.334-.673,1.11-1.079,1.617-.5,1.287-.929,1.771-1.426.429-1.886.888-.353,1.511-.837,1.945-1.35.424-1.853.837-.62,1.322-1.144,1.71-1.346.356-1.89.716-1.048.769-1.605,1.1-1.359.216-1.933.525-1.025.809-1.611,1.1-1.054.8-1.651,1.057-1.283.277-1.891.512-1.072.834-1.687,1.053-1.224.441-1.844.641-1.252.36-1.879.538-1.234.434-1.868.588-1.286.207-1.922.352-1.285.212-1.925.337-1.368-.358-2.015-.264-1.2.771-1.851.834-1.337-.49-1.987-.445-1.292.025-1.942.063-1.284.1-1.936.124-1.272.589-1.924.6-1.286-.509-1.937-.523-1.318.828-1.97.811-1.278-.584-1.93-.619-1.269-.276-1.916-.344-1.254-.272-1.9-.37-1.411.6-2.053.483-1.287-.189-1.928-.306-1.178-.774-1.818-.894-1.275-.221-1.913-.355-1.182-.581-1.812-.746-1.216-.29-1.814-.489-1.348.017-1.937-.2-1.1-.713-1.684-.931-1.163-.5-1.744-.736-1.47.189-2.042-.07-1.034-.807-1.6-1.089-1.212-.434-1.771-.722-1-.836-1.552-1.145-1.067-.693-1.592-1.041-1.293-.4-1.8-.773-.759-1.107-1.246-1.507-.684-1.15-1.158-1.565-1.036-.725-1.49-1.162-.871-.9-1.307-1.36-1.184-.635-1.6-1.112-.882-.929-1.264-1.433-.661-1.094-1.019-1.614-.953-.9-1.293-1.43-.278-1.326-.61-1.866-.455-1.189-.762-1.744-.852-.972-1.114-1.55-.857-1.022-1.088-1.615-.137-1.306-.339-1.91-.2-1.263-.377-1.873-.223-1.238-.374-1.855-1.1-1.058-1.228-1.683.633-1.4.535-2.029-.637-1.186-.708-1.818-.248-1.254-.295-1.89.278-1.283.259-1.921.009-1.259.009-1.9-.369-1.273-.344-1.911.081-1.271.133-1.907.5-1.211.6-1.84-.052-1.291.069-1.918-.142-1.312-.025-1.938,1.15-1.065,1.274-1.69-.479-1.391-.335-2.012.356-1.226.533-1.839c.172-.6.722-1.077.917-1.666s-.157-1.379.062-1.959.734-1.057.979-1.627.384-1.2.665-1.757.5-1.151.807-1.692,1.291-.69,1.6-1.227-.076-1.49.248-2.019.786-.985,1.134-1.5,1.294-.587,1.672-1.081.568-1.12.957-1.606.664-1.053,1.071-1.521.744-1,1.181-1.443.875-.881,1.326-1.312,1.1-.626,1.571-1.038.934-.8,1.42-1.187,1.013-.694,1.519-1.062,1.037-.657,1.556-1,.54-1.464,1.071-1.79,1.3-.27,1.85-.557,1.227-.313,1.791-.578,1.035-.714,1.6-.976,1.216-.314,1.785-.569.956-.921,1.534-1.153,1.409.264,2,.066,1.023-.846,1.623-1.021,1.23-.187,1.837-.339,1.186-.36,1.8-.492,1.112-.792,1.728-.9,1.282.112,1.9.025,1.295.4,1.916.33,1.144-1.045,1.767-1.095,1.285.636,1.91.605,1.228-.215,1.853-.226,1.229.177,1.854.193,1.249-.312,1.874-.276,1.245-.031,1.87.013,1.24.024,1.863.077,1.178.675,1.8.745,1.193.3,1.813.394,1.336-.516,1.953-.407,1.23.2,1.844.322,1.2.334,1.813.475,1.17.5,1.766.664,1.147.53,1.737.706,1.131.554,1.717.742,1.459-.393,2.039-.181.848,1.271,1.42,1.5,1.481-.308,2.046-.063,1.116.6,1.672.867,1.068.673,1.613.96.962.844,1.5,1.148,1.032.693,1.552,1.023,1.028.689,1.534,1.042.96.785,1.455,1.153,1.007.722,1.489,1.107,1.365.311,1.83.717.891.895,1.334,1.326.773,1,1.2,1.444,1.088.71,1.5,1.176.344,1.341.725,1.83,1.175.689,1.524,1.2.721,1.036,1.046,1.564.556,1.128.865,1.666.6,1.1.891,1.646.084,1.35.352,1.909,1.169.846,1.4,1.422.309,1.223.529,1.807.366,1.2.563,1.791.229,1.234.388,1.839.616,1.151.725,1.767-.572,1.344-.489,1.963.988,1.12,1.072,1.738-.2,1.28-.116,1.9-.009,1.249.052,1.87-.2,1.233-.182,1.859.68,1.234.663,1.859.233,1.265.2,1.889-.58,1.21-.625,1.834.286,1.273.227,1.9-.8,1.159-.882,1.78.127,1.268.025,1.885.287,1.313.175,1.929-.564,1.164-.693,1.777-.919,1.056-1.071,1.662.277,1.351.112,1.954-.552,1.135-.73,1.734S8701.324,9214.159,8701.128,9214.753Z" fill="#fff3d9"/>
            <path id="Path_3420" data-name="Path 3420" d="M8701.128,9214.753c-.206.621-.568,1.179-.819,1.776s-.467,1.215-.754,1.8-.419,1.254-.729,1.822-.6,1.172-.957,1.715-1.105.812-1.491,1.334-.673,1.11-1.079,1.617-.5,1.287-.929,1.771-1.426.429-1.886.888-.353,1.511-.837,1.945-1.35.424-1.853.837-.62,1.322-1.144,1.71-1.346.356-1.89.716-1.048.769-1.605,1.1-1.359.216-1.933.525-1.025.809-1.611,1.1-1.054.8-1.651,1.057-1.283.277-1.891.512-1.072.834-1.687,1.053-1.224.441-1.844.641-1.252.36-1.879.538-1.234.434-1.868.588-1.286.207-1.922.352-1.285.212-1.925.337-1.368-.358-2.015-.264-1.2.771-1.851.834-1.337-.49-1.987-.445-1.292.025-1.942.063-1.284.1-1.936.124-1.272.589-1.924.6-1.286-.509-1.937-.523-1.318.828-1.97.811-1.278-.584-1.93-.619-1.269-.276-1.916-.344-1.254-.272-1.9-.37-1.411.6-2.053.483-1.287-.189-1.928-.306-1.178-.774-1.818-.894-1.275-.221-1.913-.355-1.182-.581-1.812-.746-1.216-.29-1.814-.489-1.348.017-1.937-.2-1.1-.713-1.684-.931-1.163-.5-1.744-.736-1.47.189-2.042-.07-1.034-.807-1.6-1.089-1.212-.434-1.771-.722-1-.836-1.552-1.145-1.067-.693-1.592-1.041-1.293-.4-1.8-.773-.759-1.107-1.246-1.507-.684-1.15-1.158-1.565-1.036-.725-1.49-1.162-.871-.9-1.307-1.36-1.184-.635-1.6-1.112-.882-.929-1.264-1.433-.661-1.094-1.019-1.614-.953-.9-1.293-1.43-.278-1.326-.61-1.866-.455-1.189-.762-1.744-.852-.972-1.114-1.55-.857-1.022-1.088-1.615-.137-1.306-.339-1.91-.2-1.263-.377-1.873-.223-1.238-.374-1.855-1.1-1.058-1.228-1.683.633-1.4.535-2.029-.637-1.186-.708-1.818-.248-1.254-.295-1.89.278-1.283.259-1.921.009-1.259.009-1.9-.369-1.273-.344-1.911.081-1.271.133-1.907.5-1.211.6-1.84-.052-1.291.069-1.918-.142-1.312-.025-1.938,1.15-1.065,1.274-1.69-.479-1.391-.335-2.012.356-1.226.533-1.839c.172-.6.722-1.077.917-1.666s-.157-1.379.062-1.959.734-1.057.979-1.627.384-1.2.665-1.757.5-1.151.807-1.692,1.291-.69,1.6-1.227-.076-1.49.248-2.019.786-.985,1.134-1.5,1.294-.587,1.672-1.081.568-1.12.957-1.606.664-1.053,1.071-1.521.744-1,1.181-1.443.875-.881,1.326-1.312,1.1-.626,1.571-1.038.934-.8,1.42-1.187,1.013-.694,1.519-1.062,1.037-.657,1.556-1,.54-1.464,1.071-1.79,1.3-.27,1.85-.557,1.227-.313,1.791-.578,1.035-.714,1.6-.976,1.216-.314,1.785-.569.956-.921,1.534-1.153,1.409.264,2,.066,1.023-.846,1.623-1.021,1.23-.187,1.837-.339,1.186-.36,1.8-.492,1.112-.792,1.728-.9,1.282.112,1.9.025,1.295.4,1.916.33,1.144-1.045,1.767-1.095,1.285.636,1.91.605,1.228-.215,1.853-.226,1.229.177,1.854.193,1.249-.312,1.874-.276,1.245-.031,1.87.013,1.24.024,1.863.077,1.178.675,1.8.745,1.193.3,1.813.394,1.336-.516,1.953-.407,1.23.2,1.844.322,1.2.334,1.813.475,1.17.5,1.766.664,1.147.53,1.737.706,1.131.554,1.717.742,1.459-.393,2.039-.181.848,1.271,1.42,1.5,1.481-.308,2.046-.063,1.116.6,1.672.867,1.068.673,1.613.96.962.844,1.5,1.148,1.032.693,1.552,1.023,1.028.689,1.534,1.042.96.785,1.455,1.153,1.007.722,1.489,1.107,1.365.311,1.83.717.891.895,1.334,1.326.773,1,1.2,1.444,1.088.71,1.5,1.176.344,1.341.725,1.83,1.175.689,1.524,1.2.721,1.036,1.046,1.564.556,1.128.865,1.666.6,1.1.891,1.646.084,1.35.352,1.909,1.169.846,1.4,1.422.309,1.223.529,1.807.366,1.2.563,1.791.229,1.234.388,1.839.616,1.151.725,1.767-.572,1.344-.489,1.963.988,1.12,1.072,1.738-.2,1.28-.116,1.9-.009,1.249.052,1.87-.2,1.233-.182,1.859.68,1.234.663,1.859.233,1.265.2,1.889-.58,1.21-.625,1.834.286,1.273.227,1.9-.8,1.159-.882,1.78.127,1.268.025,1.885.287,1.313.175,1.929-.564,1.164-.693,1.777-.919,1.056-1.071,1.662.277,1.351.112,1.954-.552,1.135-.73,1.734S8701.324,9214.159,8701.128,9214.753Z" fill="none" stroke="#bca787" stroke-linecap="round" stroke-linejoin="round" stroke-width="1.885"/>
          </g>
          <g id="Group_1072" data-name="Group 1072">
            <ellipse id="Ellipse_105" data-name="Ellipse 105" cx="10.997" cy="10.683" rx="10.997" ry="10.683" transform="translate(8620.265 9187.607) rotate(-76.894)" fill="#fff" stroke="#ceb793" stroke-miterlimit="10" stroke-width="1.372"/>
            <ellipse id="Ellipse_106" data-name="Ellipse 106" cx="7.226" cy="7.541" rx="7.226" ry="7.541" transform="translate(8624.373 9184.646) rotate(-76.894)" fill="#333"/>
          </g>
          <g id="Group_1073" data-name="Group 1073">
            <path id="Path_3421" data-name="Path 3421" d="M8686.588,9183.169c-1.377,5.915-7.469,8.886-13.215,7.548a11,11,0,0,1,4.987-21.421C8684.106,9170.634,8687.965,9177.254,8686.588,9183.169Z" fill="#fff" stroke="#ceb793" stroke-miterlimit="10" stroke-width="1.372"/>
            <ellipse id="Ellipse_107" data-name="Ellipse 107" cx="7.226" cy="7.541" rx="7.226" ry="7.541" transform="translate(8667.086 9185.642) rotate(-76.894)" fill="#333"/>
          </g>
          <path id="Path_3422" data-name="Path 3422" d="M8637.165,9204.124s-.089-.99-.07-2.438a24.644,24.644,0,0,1,.58-5.189c.866-3.669,6.006-7.373,8.741-8.02s8.5-2.112,13.683-2.181,7.807,2.489,7.807,2.489-.688,5.647-2.633,8.417-7.993,6.506-12.853,7.941S8641.913,9205.891,8637.165,9204.124Z" fill="#00532c"/>
          <g id="Group_1074" data-name="Group 1074">
            <path id="Path_3423" data-name="Path 3423" d="M8639.139,9200.424s7.515-3.875,12.566-5.8,11.639-4.742,11.639-4.742" fill="none" stroke="#83b234" stroke-linecap="round" stroke-linejoin="round" stroke-width="1.26"/>
            <path id="Path_3424" data-name="Path 3424" d="M8663.762,9193.243l-4.642-1.469.577-2.846" fill="none" stroke="#83b234" stroke-linecap="round" stroke-linejoin="round" stroke-width="1.26"/>
            <path id="Path_3425" data-name="Path 3425" d="M8654.964,9189.635l-1.473,4.616,6.274,1.842" fill="none" stroke="#83b234" stroke-linecap="round" stroke-linejoin="round" stroke-width="1.26"/>
            <path id="Path_3426" data-name="Path 3426" d="M8649.463,9190.79l-1.414,5.651,5.737,2.63" fill="none" stroke="#83b234" stroke-linecap="round" stroke-linejoin="round" stroke-width="1.26"/>
            <path id="Path_3427" data-name="Path 3427" d="M8643.036,9193l-1.315,6.148,7.014,1.844" fill="none" stroke="#83b234" stroke-linecap="round" stroke-linejoin="round" stroke-width="1.26"/>
          </g>
          <g id="Group_1075" data-name="Group 1075">
            <path id="Path_3428" data-name="Path 3428" d="M8650.831,9219.853a30.456,30.456,0,0,1-.308-8.013,75.009,75.009,0,0,0-.072-8.9" fill="none" stroke="#00532c" stroke-linecap="round" stroke-linejoin="round" stroke-width="1.858"/>
          </g>
          <path id="Path_3429" data-name="Path 3429" d="M8659.731,9222.906" fill="#fff3d9" stroke="#000" stroke-linecap="round" stroke-linejoin="round" stroke-width="1.885"/>
          <g id="Group_1076" data-name="Group 1076">
            <path id="Path_3430" data-name="Path 3430" d="M8635.051,9216.756c-.414-6.285,3.295-8.77,6.177-8.083s3.859,2.4,7.919,2.665c5.79.382,7.557-1.664,11.063-2.624s7.381,1.206,7.356,7.008c-.012,2.52-1.539,4.863-3.966,6.688-3.166-1.42-8.433-3.47-12.761-3.623-6.67-.236-12.084,4.062-12.084,4.062l-.033.039A8.021,8.021,0,0,1,8635.051,9216.756Z" fill="#dc801e"/>
            <path id="Path_3431" data-name="Path 3431" d="M8650.839,9218.787c4.328.153,9.529.811,12.761,3.623a20.591,20.591,0,0,1-12.265,3.747c-4.947-.044-9.563-1.116-12.613-3.27l.033-.039S8644.169,9218.551,8650.839,9218.787Z" fill="#eb5a24"/>
          </g>
          <g id="Group_1077" data-name="Group 1077">
            <path id="Path_3432" data-name="Path 3432" d="M8653.8,9141.957s9.35,10.358,21.464,16.5,22.857,9.968,28.2,9.88l5.338-.088s-.416-5-9.2-11.528S8676.414,9137.245,8653.8,9141.957Z" fill="#00532c"/>
            <path id="Path_3433" data-name="Path 3433" d="M8666.783,9140.074s6.687-13.13,9.705-11.941a78.209,78.209,0,0,1,12.466,5.986c6.938,4.3,18.156,10.019,17.447,12.508-1.8,6.307-.642,9.84-3.611,11.541S8666.783,9140.074,8666.783,9140.074Z" fill="#00532c"/>
            <path id="Path_3434" data-name="Path 3434" d="M8704.288,9160.273a65.265,65.265,0,0,1-39.33-19.6l3.8-4.153s9.113,8.365,18.877,13.226a61.012,61.012,0,0,0,17.787,5.569Z" fill="#fcee21"/>
            <path id="Path_3435" data-name="Path 3435" d="M8692.865,9154.33s2.381-8.385,9.059-8.162,9.047,2.188,9.047,2.188S8705.453,9159.8,8692.865,9154.33Z" fill="#83b234"/>
          </g>
          <circle id="Ellipse_108" data-name="Ellipse 108" cx="10.787" cy="10.787" r="10.787" transform="translate(8671.788 9195.814)" fill="url(#radial-gradient)"/>
          <circle id="Ellipse_109" data-name="Ellipse 109" cx="10.787" cy="10.787" r="10.787" transform="translate(8608.301 9191.191)" fill="url(#radial-gradient-2)"/>
          <g id="Group_1078" data-name="Group 1078">
            <path id="Path_3436" data-name="Path 3436" d="M8687.993,9315.048a19.593,19.593,0,0,0,.622-2.094c.12-.656.083-1.4.18-2.18.085-.689.148-1.412.2-2.171.049-.706.151-1.429.162-2.175.011-.719-.062-1.443-.095-2.181s.128-1.473.042-2.2-.5-1.4-.646-2.106a22.1,22.1,0,0,0-.168-2.22,15.822,15.822,0,0,0-1.1-1.921,11.939,11.939,0,0,0-1.151-1.832c-.434-.588-.612-1.437-1.164-1.918a9.892,9.892,0,0,0-1.947-1.105c-.643-.333-1.4-.349-1.988-.617-.663-.3-1.112-1.014-1.717-1.24-.687-.257-1.527.128-2.146-.039-.716-.193-1.281-.777-1.913-.864-.735-.1-1.418.33-2.054.357a8.411,8.411,0,0,0-1.954.284,8.5,8.5,0,0,0-1.9.616,11.39,11.39,0,0,0-1.705,1.09c-.541.433-1.285.681-1.873,1.183a20.224,20.224,0,0,0-1.52,1.6,14.008,14.008,0,0,0-1.547,1.6,14.811,14.811,0,0,0-.975,2,14.633,14.633,0,0,0-1.051,1.984c-.2.66.14,1.5,0,2.273a19.44,19.44,0,0,0-.656,2.137c-.055.692.411,1.441.411,2.217,0,.758-.168,1.5-.139,2.217.03.759-.315,1.529-.251,2.246.07.761.373,1.483.486,2.192.121.756.247,1.494.423,2.187a17.341,17.341,0,0,0,1,2,14.176,14.176,0,0,0,.751,2.074,11.041,11.041,0,0,0,1.213,1.866,45.32,45.32,0,0,1,3.632,2.562,12.452,12.452,0,0,0,2.147.625c.688.144,1.4.2,2.1.326s1.419.09,2.114.185,1.388.394,2.084.433a18.183,18.183,0,0,0,2.122-.067,12.528,12.528,0,0,0,2.041-.538c.689-.159,1.548.141,2.188-.161s.985-1.081,1.552-1.534a9.6,9.6,0,0,0,1.378-1.541c.416-.52,1.191-.839,1.554-1.5a15.834,15.834,0,0,0,1.046-1.886C8688.026,9316.6,8687.792,9315.77,8687.993,9315.048Z" fill="#fff3d9"/>
            <path id="Path_3437" data-name="Path 3437" d="M8687.993,9315.048a19.593,19.593,0,0,0,.622-2.094c.12-.656.083-1.4.18-2.18.085-.689.148-1.412.2-2.171.049-.706.151-1.429.162-2.175.011-.719-.062-1.443-.095-2.181s.128-1.473.042-2.2-.5-1.4-.646-2.106a22.1,22.1,0,0,0-.168-2.22,15.822,15.822,0,0,0-1.1-1.921,11.939,11.939,0,0,0-1.151-1.832c-.434-.588-.612-1.437-1.164-1.918a9.892,9.892,0,0,0-1.947-1.105c-.643-.333-1.4-.349-1.988-.617-.663-.3-1.112-1.014-1.717-1.24-.687-.257-1.527.128-2.146-.039-.716-.193-1.281-.777-1.913-.864-.735-.1-1.418.33-2.054.357a8.411,8.411,0,0,0-1.954.284,8.5,8.5,0,0,0-1.9.616,11.39,11.39,0,0,0-1.705,1.09c-.541.433-1.285.681-1.873,1.183a20.224,20.224,0,0,0-1.52,1.6,14.008,14.008,0,0,0-1.547,1.6,14.811,14.811,0,0,0-.975,2,14.633,14.633,0,0,0-1.051,1.984c-.2.66.14,1.5,0,2.273a19.44,19.44,0,0,0-.656,2.137c-.055.692.411,1.441.411,2.217,0,.758-.168,1.5-.139,2.217.03.759-.315,1.529-.251,2.246.07.761.373,1.483.486,2.192.121.756.247,1.494.423,2.187a17.341,17.341,0,0,0,1,2,14.176,14.176,0,0,0,.751,2.074,11.041,11.041,0,0,0,1.213,1.866,45.32,45.32,0,0,1,3.632,2.562,12.452,12.452,0,0,0,2.147.625c.688.144,1.4.2,2.1.326s1.419.09,2.114.185,1.388.394,2.084.433a18.183,18.183,0,0,0,2.122-.067,12.528,12.528,0,0,0,2.041-.538c.689-.159,1.548.141,2.188-.161s.985-1.081,1.552-1.534a9.6,9.6,0,0,0,1.378-1.541c.416-.52,1.191-.839,1.554-1.5a15.834,15.834,0,0,0,1.046-1.886C8688.026,9316.6,8687.792,9315.77,8687.993,9315.048Z" fill="none" stroke="#bca787" stroke-linecap="round" stroke-linejoin="round" stroke-width="1.878"/>
          </g>
          <g id="Group_1079" data-name="Group 1079">
            <path id="Path_3438" data-name="Path 3438" d="M8646.958,9315.121c.159-.571-.158-1.4,0-2.234.121-.654.52-1.325.616-2.1.085-.689-.112-1.435-.06-2.192.05-.707.692-1.411.7-2.157.01-.719-.225-1.458-.259-2.194s-.19-1.448-.276-2.174-.119-1.465-.267-2.175a19.807,19.807,0,0,0-.654-2.089,15.2,15.2,0,0,0-.837-2.01,13.5,13.5,0,0,0-.789-2.106,10.515,10.515,0,0,0-1.619-1.553,9.5,9.5,0,0,0-1.884-1.173c-.643-.334-1.407-.322-2-.591-.663-.3-1.1-1.028-1.708-1.254-.687-.257-1.52.108-2.139-.059a15.508,15.508,0,0,0-1.972-.43c-.734-.1-1.38-.645-2.017-.617a8.884,8.884,0,0,0-2.007.54,10.262,10.262,0,0,0-2.078.424c-.606.33-.909,1.143-1.442,1.568s-1.349.609-1.935,1.11a19.7,19.7,0,0,0-1.666,1.479,15.249,15.249,0,0,0-1.338,1.79,16.9,16.9,0,0,0-.737,2.112c-.292.626-1.069,1.123-1.3,1.87a19.818,19.818,0,0,0-.436,2.2c-.119.681.265,1.471.205,2.245-.055.693-.043,1.41-.043,2.186,0,.758.085,1.485.113,2.208.03.76.046,1.484.111,2.2.07.761.208,1.47.321,2.179.121.756-.154,1.557.021,2.249a20.6,20.6,0,0,0,.428,2.222c.275.713,1.225,1.077,1.587,1.7.383.651.468,1.469.955,2.009a10.066,10.066,0,0,0,1.576,1.608,10.842,10.842,0,0,0,2.087.839,12.272,12.272,0,0,0,2.132.562c.689.145,1.332.546,2.027.674s1.384.4,2.079.494,1.455-.141,2.151-.1a19.107,19.107,0,0,0,2.128.191c.716-.043,1.341-.608,2.02-.765a10.251,10.251,0,0,0,2.11-.306,9.2,9.2,0,0,0,1.912-1.008c.525-.422.711-1.243,1.177-1.823a12.1,12.1,0,0,0,1.077-1.775c.318-.581,1.135-.979,1.406-1.68C8646.682,9316.584,8646.758,9315.843,8646.958,9315.121Z" fill="#fff3d9"/>
            <path id="Path_3439" data-name="Path 3439" d="M8646.958,9315.121c.159-.571-.158-1.4,0-2.234.121-.654.52-1.325.616-2.1.085-.689-.112-1.435-.06-2.192.05-.707.692-1.411.7-2.157.01-.719-.225-1.458-.259-2.194s-.19-1.448-.276-2.174-.119-1.465-.267-2.175a19.807,19.807,0,0,0-.654-2.089,15.2,15.2,0,0,0-.837-2.01,13.5,13.5,0,0,0-.789-2.106,10.515,10.515,0,0,0-1.619-1.553,9.5,9.5,0,0,0-1.884-1.173c-.643-.334-1.407-.322-2-.591-.663-.3-1.1-1.028-1.708-1.254-.687-.257-1.52.108-2.139-.059a15.508,15.508,0,0,0-1.972-.43c-.734-.1-1.38-.645-2.017-.617a8.884,8.884,0,0,0-2.007.54,10.262,10.262,0,0,0-2.078.424c-.606.33-.909,1.143-1.442,1.568s-1.349.609-1.935,1.11a19.7,19.7,0,0,0-1.666,1.479,15.249,15.249,0,0,0-1.338,1.79,16.9,16.9,0,0,0-.737,2.112c-.292.626-1.069,1.123-1.3,1.87a19.818,19.818,0,0,0-.436,2.2c-.119.681.265,1.471.205,2.245-.055.693-.043,1.41-.043,2.186,0,.758.085,1.485.113,2.208.03.76.046,1.484.111,2.2.07.761.208,1.47.321,2.179.121.756-.154,1.557.021,2.249a20.6,20.6,0,0,0,.428,2.222c.275.713,1.225,1.077,1.587,1.7.383.651.468,1.469.955,2.009a10.066,10.066,0,0,0,1.576,1.608,10.842,10.842,0,0,0,2.087.839,12.272,12.272,0,0,0,2.132.562c.689.145,1.332.546,2.027.674s1.384.4,2.079.494,1.455-.141,2.151-.1a19.107,19.107,0,0,0,2.128.191c.716-.043,1.341-.608,2.02-.765a10.251,10.251,0,0,0,2.11-.306,9.2,9.2,0,0,0,1.912-1.008c.525-.422.711-1.243,1.177-1.823a12.1,12.1,0,0,0,1.077-1.775c.318-.581,1.135-.979,1.406-1.68C8646.682,9316.584,8646.758,9315.843,8646.958,9315.121Z" fill="none" stroke="#bca787" stroke-linecap="round" stroke-linejoin="round" stroke-width="1.878"/>
          </g>
        </g>
      </g>
    </g>
    <g id="Group_1083" data-name="Group 1083" transform="translate(-8035 -4609.465)">
      <path id="Path_3440" data-name="Path 3440" d="M8092.3,9109.39h10.555v-2.632h2.829v2.632h10.864v2.771h-10.864v6.721h11.7v2.771h-9.745a25,25,0,0,0,10.193,7.532l-1.6,2.771a29.577,29.577,0,0,1-10.555-8.68v9.688h-2.829v-9.687a30.35,30.35,0,0,1-10.248,8.68l-1.792-2.687a25.522,25.522,0,0,0,10.164-7.616h-9.631v-2.771h11.507v-6.721H8092.3Zm5.208,3.275a21.749,21.749,0,0,1,2.24,5.013l-2.856.951a25.244,25.244,0,0,0-2.128-4.871Zm16.435,1.093a30.057,30.057,0,0,1-2.351,4.76l-2.773-1.12a37.307,37.307,0,0,0,2.185-4.62Z" fill="#eb5a24"/>
      <path id="Path_3441" data-name="Path 3441" d="M8121.508,9117.594h6.216v8.345c.336,1.063,1.147,3.639,6.244,3.639h13.915l-.531,2.744h-13.413c-4.788,0-6.44-2.072-7.392-3.3a28.6,28.6,0,0,1-3.92,3.947l-1.456-3.388a22.455,22.455,0,0,0,3.752-2.716v-6.5h-3.415Zm2.3-10.528a27.463,27.463,0,0,1,5.179,4.676l-2.072,2.24a24.421,24.421,0,0,0-4.983-4.956Zm19.011,18.844c.953-.028,1.121-.028,1.121-.756v-15.176h-4.424v1.764h3.3v2.156h-3.3v1.652h3.723v2.212h-10v-2.212h3.7V9113.9h-3.221v-2.156h3.221v-1.764h-4.313v8.12c0,1.344,0,6.972-2.071,10.164l-2.045-2.185c1.4-2.492,1.484-6.187,1.484-8.372v-10.136h16.632v18.34c0,2.576-1.176,2.744-2.687,2.744h-2.464l-.449-2.715h-7.616v-6.749h9.408Zm-7-4.62v2.521h4.564v-2.521Z" fill="#eb5a24"/>
      <path id="Path_3442" data-name="Path 3442" d="M8169.92,9111.545v2.856h-8.568l-.112,4.62h3.276a21.142,21.142,0,0,0,5.04-.448l.168,2.828a22.419,22.419,0,0,1-5.208.5h-3.332c-.084,5.741,0,6.692,5.32,6.692,3.052,0,6.468-.168,6.468-4.872a14.464,14.464,0,0,0-1.54-6.076l2.828-.756a14.418,14.418,0,0,1,1.9,7.084c0,7.616-6.216,7.616-9.744,7.616-3.808,0-6.216-.477-7.644-3.137-.784-1.456-.784-3.527-.728-6.552h-5.04v-2.884h5.068l.084-4.62h-4.845v-2.856h4.9l.055-3.611,3.249.027-.084,3.584Z" fill="#eb5a24"/>
      <path id="Path_3443" data-name="Path 3443" d="M8184.787,9123.306c-.2,4.312-.391,5.852-.979,7.841l-2.521-1.009c.532-1.429.9-3.053,1.093-7.112Zm-3.388-4.509c1.121-.027,1.4-.027,1.932-.027.393-.561,1.12-1.568,1.6-2.269a27.532,27.532,0,0,0-3.613-3.5l1.428-2.323c.2.168.588.447.784.615a32.378,32.378,0,0,0,2.353-4.592l2.659.9a41.509,41.509,0,0,1-3.163,5.432c.7.729.9.952,1.119,1.148,1.036-1.624,1.988-3.137,2.744-4.593l2.492,1.12v-2.071h6.525V9106.7h2.911v1.933h6.721v2.688h-6.721v2.1h5.853v2.492h-14.364v-2.492h5.6v-2.1h-6.525v-.588c-1.624,2.632-3.7,5.488-5.488,7.924.7-.028,1.149-.056,3-.14-.279-.84-.42-1.232-.588-1.708l2.1-.9a31.858,31.858,0,0,1,1.567,4.7v-2.939h14.952v5.18h-2.688v-2.66h-9.659v2.66h-2.6v-1.6l-2.212.728c-.084-.308-.112-.616-.252-1.2-.5.057-.952.112-1.624.168v12.124h-2.6v-11.872c-.561.057-3.416.28-4.061.309Zm9.8,4.061a30.6,30.6,0,0,1,.924,5.684l-2.519.477a29.58,29.58,0,0,0-.533-5.853Zm-.475,7.84c4.032-1.372,4.956-4.032,5.1-9.184h2.688c-.225,7.056-1.792,9.52-6.076,11.563Zm9.687-9.184h2.717v8.092c0,.476.111.532.672.532h1.119a.5.5,0,0,0,.532-.477,30.858,30.858,0,0,0,.168-3.248l2.269.588c-.084,3.809-.112,4.228-.477,4.929a1.674,1.674,0,0,1-1.512.867h-3.584c-1.876,0-1.9-1.624-1.9-2.323Z" fill="#eb5a24"/>
      <path id="Path_3444" data-name="Path 3444" d="M8217.8,9108.409a74.041,74.041,0,0,0-.952,11.928,45.655,45.655,0,0,0,1.036,10.5l-3.275.42a52.912,52.912,0,0,1-.868-10.528,86.514,86.514,0,0,1,.868-12.515Zm2.185,8.148v-2.94h9.436c-.028-.9-.112-4.788-.14-5.6h3.22c.028,1.6.084,3.976.112,5.6h4.4v2.94h-4.34c.028,7.615.056,14-9.716,15.4l-1.26-2.884c7.224-1.2,7.84-3.7,7.783-12.516Z" fill="#eb5a24"/>
      <path id="Path_3445" data-name="Path 3445" d="M8261.312,9111.041c-2.24,1.652-4.9,3.809-7.336,5.712a13.962,13.962,0,0,1,4.229-.756c3.92,0,7.588,2.156,7.588,7.2,0,5.488-4.593,8.484-10.137,8.484-4.815,0-7.363-2.185-7.363-4.788,0-2.38,2.155-4.145,4.956-4.145a6.944,6.944,0,0,1,6.72,5.152,5.126,5.126,0,0,0,2.716-4.62c0-2.044-1.036-4.732-5.656-4.732-4.788,0-8.2,2.772-12.1,6.412l-1.792-2.632c.813-.588,5.908-4.479,13.132-10.864-3.332.253-5.487.337-10.164.448v-3.052c6.468.056,9.156-.056,15.2-.336Zm-8.147,14.168c-1.484,0-2.156.925-2.156,1.568,0,1.2,1.456,2.436,4.424,2.436a13.457,13.457,0,0,0,1.988-.224C8256.832,9126.89,8255.544,9125.209,8253.164,9125.209Z" fill="#eb5a24"/>
      <path id="Path_3446" data-name="Path 3446" d="M8294.631,9117.565c-1.176.112-16.771,1.68-16.771,7.616,0,2.912,3.192,3.22,8.54,3.22a81.648,81.648,0,0,0,9.1-.448l.028,3.248c-1.68.112-4.061.28-8.092.28-4.816,0-12.853,0-12.853-6.188,0-4.7,5.488-7.14,7.42-8.008-1.008-1.764-1.035-3.557-1.119-9.324h3.388c-.028.9-.057,1.681-.057,3.08,0,2.912.141,4.088.673,5.181a64.2,64.2,0,0,1,9.38-1.988Z" fill="#eb5a24"/>
    </g>
    <g id="Group_1084" data-name="Group 1084" transform="translate(-8035 -4609.465)">
      <path id="Path_3447" data-name="Path 3447" d="M8099.1,9198.778v-4.76h-10.081v-2.828l10-14.616h3.387v14.5h2.912v2.94h-2.912v4.76Zm-6.72-7.7h6.72v-9.968Z" fill="#eb5a24"/>
      <path id="Path_3448" data-name="Path 3448" d="M8114.223,9185.843h6.215v8.344c.336,1.063,1.148,3.64,6.245,3.64H8140.6l-.532,2.744h-13.412c-4.788,0-6.44-2.072-7.392-3.3a28.6,28.6,0,0,1-3.92,3.947l-1.456-3.388a22.535,22.535,0,0,0,3.752-2.716v-6.5h-3.415Zm2.3-10.528a27.448,27.448,0,0,1,5.179,4.676l-2.072,2.24a24.421,24.421,0,0,0-4.983-4.956Zm19.011,18.844c.952-.028,1.12-.028,1.12-.756v-15.176h-4.423v1.764h3.3v2.156h-3.3v1.652h3.723v2.212h-10V9183.8h3.7v-1.652h-3.22v-2.156h3.22v-1.764h-4.312v8.12c0,1.344,0,6.972-2.071,10.164l-2.045-2.185c1.4-2.492,1.484-6.187,1.484-8.372v-10.136h16.632v18.34c0,2.576-1.176,2.744-2.688,2.744h-2.463l-.449-2.716h-7.616v-6.748h9.408Zm-7-4.62v2.521h4.564v-2.521Z" fill="#eb5a24"/>
      <path id="Path_3449" data-name="Path 3449" d="M8146.339,9176.126h10.64v10.221h-7.868v14.9h-2.772Zm2.772,2.3v1.849h5.152v-1.849Zm0,3.752v1.848h5.152v-1.848Zm15.791,5.768v10.388h-12.991v-10.388Zm-10.359,2.268v1.933h7.7v-1.933Zm0,3.809v2.016h7.7v-2.016Zm13.216-7.672h-8.288v-10.221h11.088v22.484c0,.784,0,2.632-1.876,2.632H8164.4l-.447-2.8h3.164c.336,0,.644-.112.644-.671Zm-5.572-7.924v1.849h5.572v-1.849Zm0,3.752v1.848h5.572v-1.848Z" fill="#eb5a24"/>
      <path id="Path_3450" data-name="Path 3450" d="M8179.742,9191.555c-.2,4.312-.391,5.852-.979,7.84l-2.521-1.008c.532-1.429.9-3.053,1.093-7.112Zm-3.388-4.509c1.121-.027,1.4-.027,1.932-.027.393-.561,1.12-1.568,1.6-2.269a27.465,27.465,0,0,0-3.612-3.5l1.427-2.323c.2.168.588.447.784.615a32.269,32.269,0,0,0,2.353-4.592l2.659.9a41.441,41.441,0,0,1-3.163,5.432c.7.729.9.952,1.119,1.148,1.036-1.624,1.988-3.137,2.744-4.593l2.493,1.12v-2.071h6.524v-1.933h2.911v1.933h6.721v2.688h-6.721v2.1h5.853v2.492H8187.61v-2.492h5.6v-2.1h-6.524v-.588c-1.624,2.632-3.7,5.488-5.489,7.924.7-.028,1.149-.056,3-.14-.279-.84-.42-1.232-.588-1.708l2.1-.9a31.8,31.8,0,0,1,1.567,4.7v-2.939h14.953v5.18h-2.688v-2.66h-9.659v2.66h-2.6v-1.6l-2.211.728c-.084-.308-.113-.616-.252-1.2-.5.057-.953.112-1.624.168v12.124h-2.6v-11.872c-.561.057-3.416.28-4.061.309Zm9.8,4.061a30.558,30.558,0,0,1,.924,5.684l-2.519.477a29.58,29.58,0,0,0-.533-5.853Zm-.475,7.84c4.032-1.372,4.956-4.032,5.095-9.184h2.689c-.225,7.056-1.792,9.52-6.076,11.563Zm9.687-9.184h2.717v8.091c0,.477.111.533.672.533h1.119a.5.5,0,0,0,.532-.477,30.858,30.858,0,0,0,.168-3.248l2.269.588c-.084,3.809-.112,4.229-.477,4.929a1.676,1.676,0,0,1-1.513.867h-3.582c-1.877,0-1.905-1.624-1.905-2.323Z" fill="#eb5a24"/>
      <path id="Path_3451" data-name="Path 3451" d="M8212.754,9176.658a74.041,74.041,0,0,0-.952,11.928,45.6,45.6,0,0,0,1.036,10.5l-3.274.42a52.836,52.836,0,0,1-.869-10.527,86.33,86.33,0,0,1,.869-12.516Zm2.185,8.148v-2.94h9.436c-.028-.9-.112-4.788-.14-5.6h3.22c.028,1.6.084,3.976.112,5.6h4.4v2.94h-4.34c.028,7.615.056,14-9.716,15.4l-1.26-2.884c7.224-1.2,7.84-3.7,7.783-12.516Z" fill="#eb5a24"/>
      <path id="Path_3452" data-name="Path 3452" d="M8256.267,9179.29c-2.24,1.652-4.9,3.809-7.336,5.712a13.962,13.962,0,0,1,4.229-.756c3.92,0,7.588,2.156,7.588,7.2,0,5.488-4.593,8.484-10.137,8.484-4.815,0-7.363-2.185-7.363-4.788,0-2.38,2.155-4.145,4.956-4.145a6.944,6.944,0,0,1,6.72,5.152,5.126,5.126,0,0,0,2.716-4.62c0-2.044-1.036-4.732-5.656-4.732-4.788,0-8.2,2.772-12.1,6.412l-1.792-2.632c.813-.588,5.908-4.479,13.132-10.864-3.332.252-5.487.337-10.163.448v-3.052c6.467.056,9.155-.056,15.2-.335Zm-8.147,14.168c-1.484,0-2.156.925-2.156,1.568,0,1.2,1.456,2.436,4.424,2.436a13.457,13.457,0,0,0,1.988-.224C8251.787,9195.139,8250.5,9193.458,8248.119,9193.458Z" fill="#eb5a24"/>
      <path id="Path_3453" data-name="Path 3453" d="M8289.586,9185.814c-1.176.112-16.771,1.68-16.771,7.616,0,2.912,3.192,3.22,8.539,3.22a81.655,81.655,0,0,0,9.1-.448l.028,3.248c-1.68.113-4.061.28-8.092.28-4.816,0-12.853,0-12.853-6.188,0-4.7,5.488-7.14,7.42-8.008-1.008-1.763-1.035-3.556-1.119-9.324h3.388c-.028.9-.057,1.681-.057,3.08,0,2.912.141,4.088.673,5.181a64.2,64.2,0,0,1,9.38-1.988Z" fill="#eb5a24"/>
    </g>
    <g id="Group_1085" data-name="Group 1085" transform="translate(-8035 -4609.465)">
      <rect id="Rectangle_224" data-name="Rectangle 224" width="254.381" height="55.372" transform="translate(8306.704 9162.091)" fill="#fff"/>
      <path id="Path_3454" data-name="Path 3454" d="M8341.289,9179.353h-3.079a.856.856,0,0,0-.856.854v19.132a.856.856,0,0,0,.856.854h3.079a.855.855,0,0,0,.855-.854v-19.132a.855.855,0,0,0-.855-.854" fill="#07b53b"/>
      <path id="Path_3455" data-name="Path 3455" d="M8362.49,9179.353h-3.08a.856.856,0,0,0-.856.854v11.366l-8.768-11.841a.742.742,0,0,0-.066-.086l-.006-.007c-.017-.019-.034-.037-.051-.053l-.016-.014c-.016-.014-.029-.026-.047-.039s-.015-.01-.022-.017a.385.385,0,0,0-.044-.03.178.178,0,0,0-.025-.016c-.016-.009-.031-.019-.046-.025l-.028-.015-.048-.02a.21.21,0,0,0-.026-.01c-.019-.006-.034-.013-.053-.018a.153.153,0,0,1-.028-.008l-.049-.01a.277.277,0,0,0-.037,0l-.045-.006-.046,0H8346a.856.856,0,0,0-.856.854v19.132a.856.856,0,0,0,.856.854h3.08a.855.855,0,0,0,.854-.854v-11.364l8.779,11.857a.839.839,0,0,0,.217.211l.009.007.054.032a.131.131,0,0,1,.022.013l.041.021a.389.389,0,0,0,.043.017l.025.01a.408.408,0,0,0,.059.019l.013,0a.931.931,0,0,0,.219.029h3.08a.854.854,0,0,0,.854-.854v-19.132a.854.854,0,0,0-.854-.854" fill="#07b53b"/>
      <path id="Path_3456" data-name="Path 3456" d="M8333.864,9195.4H8325.5v-15.2a.855.855,0,0,0-.855-.855h-3.08a.856.856,0,0,0-.855.855v19.132a.846.846,0,0,0,.239.59l.011.015.013.011a.856.856,0,0,0,.592.239h12.3a.856.856,0,0,0,.854-.856v-3.079a.856.856,0,0,0-.854-.855" fill="#07b53b"/>
      <path id="Path_3457" data-name="Path 3457" d="M8379.5,9179.353h-12.306a.853.853,0,0,0-.594.241l-.011.008-.013.016a.851.851,0,0,0-.236.59h0v19.13h0a.844.844,0,0,0,.239.591.063.063,0,0,0,.01.013l.013.012a.854.854,0,0,0,.592.239H8379.5a.855.855,0,0,0,.854-.855v-3.08a.854.854,0,0,0-.854-.854h-8.37v-3.235h8.37a.855.855,0,0,0,.854-.854v-3.08a.854.854,0,0,0-.854-.855h-8.37v-3.235h8.37a.855.855,0,0,0,.854-.854v-3.08a.855.855,0,0,0-.854-.855" fill="#07b53b"/>
      <path id="Path_3458" data-name="Path 3458" d="M8455.231,9181.874l-2.406-1.64a1.066,1.066,0,0,0-.989-.144,1.193,1.193,0,0,0-.72.728c-1.216,4.307-3.127,8.116-4.99,9.941-3.373,3.307-9.013,4.022-10.109,4.131a1.129,1.129,0,0,0-.8.457,1.108,1.108,0,0,0-.181.9l.666,3.073a1.1,1.1,0,0,0,1.112.869,1.256,1.256,0,0,0,.183-.015c9.887-1.569,15.644-6.837,18.668-17.076a1.129,1.129,0,0,0-.433-1.226" fill="#07b53b"/>
      <path id="Path_3459" data-name="Path 3459" d="M8435.43,9183.809a29.354,29.354,0,0,1,6.042,2.973,1.179,1.179,0,0,0,.622.176,1.074,1.074,0,0,0,.275-.033,1.1,1.1,0,0,0,.7-.532l1.471-2.531a1.141,1.141,0,0,0-.387-1.519,31.785,31.785,0,0,0-6.752-2.929,1.105,1.105,0,0,0-1.364.529l-1.2,2.294a1.091,1.091,0,0,0-.05.917,1.123,1.123,0,0,0,.648.655" fill="#07b53b"/>
      <path id="Path_3460" data-name="Path 3460" d="M8409.785,9196.49c-1.775-2.443-2.314-2.973-2.828-5.743a.865.865,0,0,0-.955-.691l-2.241.313a.856.856,0,0,0-.724.971c.607,4.156,1.506,5.591,3.242,7.815a.857.857,0,0,0,1.185.149l2.149-1.632a.859.859,0,0,0,.172-1.182" fill="#07b53b"/>
      <path id="Path_3461" data-name="Path 3461" d="M8394.612,9190.4l-2.285-.242a.849.849,0,0,0-.931.732c-.317,2.354-1.156,3.528-2.715,5.288a.853.853,0,0,0,.062,1.205l2.01,1.8a.85.85,0,0,0,1.219-.082,13.519,13.519,0,0,0,3.4-7.761.851.851,0,0,0-.758-.94" fill="#07b53b"/>
      <path id="Path_3462" data-name="Path 3462" d="M8390.307,9188.438h6.543v10.9a.852.852,0,0,0,.852.852h3.095a.852.852,0,0,0,.852-.852v-10.9h6.7a.851.851,0,0,0,.851-.852v-3.1a.85.85,0,0,0-.851-.852h-6.7v-3.373a.852.852,0,0,0-.852-.85H8397.7a.852.852,0,0,0-.852.85v3.373h-6.543a.852.852,0,0,0-.852.852v3.1a.852.852,0,0,0,.852.852" fill="#07b53b"/>
      <path id="Path_3463" data-name="Path 3463" d="M8407.723,9178.757a2.954,2.954,0,1,0,2.955,2.954,2.953,2.953,0,0,0-2.955-2.954m0,4.222a1.282,1.282,0,1,1,0-2.563,1.282,1.282,0,1,1,0,2.563" fill="#07b53b"/>
      <path id="Path_3464" data-name="Path 3464" d="M8425.52,9199.339v-12.121a47.04,47.04,0,0,0,5.852-4.567.849.849,0,0,0,.01-1.246l-1.977-1.864a.854.854,0,0,0-1.155-.009,40.744,40.744,0,0,1-15.332,8.845.85.85,0,0,0-.482,1.194l1.261,2.451a.854.854,0,0,0,1.029.417,42.9,42.9,0,0,0,5.905-2.424v9.324a.852.852,0,0,0,.853.852h3.187a.851.851,0,0,0,.851-.852" fill="#07b53b"/>
      <path id="Path_3465" data-name="Path 3465" d="M8471.624,9193.636a38.41,38.41,0,0,0-7.916-4.356v10.06a.851.851,0,0,1-.851.852h-3.174a.851.851,0,0,1-.851-.852V9180.1a.851.851,0,0,1,.851-.852h3.174a.851.851,0,0,1,.851.852v4.666a50.394,50.394,0,0,1,10.3,4.524.85.85,0,0,1,.339,1.129l-1.49,2.9a.85.85,0,0,1-1.235.314" fill="#07b53b"/>
      <path id="Path_3466" data-name="Path 3466" d="M8532.908,9197.245a11.556,11.556,0,0,1-2.357-7.447,11.866,11.866,0,0,1,2.281-7.461,7.009,7.009,0,0,1,5.786-2.963,7.377,7.377,0,0,1,6.018,2.946,11.274,11.274,0,0,1,2.3,7.446,11.717,11.717,0,0,1-2.249,7.462,7.034,7.034,0,0,1-5.816,2.964,7.322,7.322,0,0,1-5.958-2.947m8.176-3.289a8.642,8.642,0,0,0,.854-4.158,8.478,8.478,0,0,0-.885-4.172,2.682,2.682,0,0,0-2.4-1.567,2.539,2.539,0,0,0-2.25,1.567,8.646,8.646,0,0,0-.854,4.141,8.489,8.489,0,0,0,.884,4.176,2.642,2.642,0,0,0,2.343,1.564,2.579,2.579,0,0,0,2.312-1.551" fill="#07b53b"/>
      <path id="Path_3467" data-name="Path 3467" d="M8497.845,9176.1a13.667,13.667,0,1,0,13.666,13.668,13.667,13.667,0,0,0-13.666-13.668" fill="#07b53b"/>
      <path id="Path_3468" data-name="Path 3468" d="M8499.5,9183.411h-5.421a.573.573,0,0,0-.573.573v12.532a.573.573,0,0,0,.573.573h2.112a.572.572,0,0,0,.571-.573v-3.589c0-.137.058-.2.2-.2l2.478.008a4.664,4.664,0,0,0,.063-9.328m1.537,4.7c0,.028,0,.059,0,.089s0,.067-.009.1-.01.059-.013.087-.013.066-.02.1a.736.736,0,0,1-.022.086c-.007.03-.017.063-.026.094s-.021.053-.03.08-.024.06-.037.089-.022.052-.036.078-.03.056-.046.084l-.043.071c-.018.028-.036.055-.054.079s-.033.046-.051.068l-.062.074c-.017.02-.036.042-.056.062s-.046.046-.068.067-.04.039-.061.056-.051.041-.075.062l-.065.051-.082.054c-.023.015-.046.029-.07.042s-.059.031-.09.047l-.07.035a.858.858,0,0,1-.1.038l-.071.029c-.034.011-.071.019-.106.028s-.048.015-.072.021c-.04.009-.081.015-.122.021-.021,0-.04.009-.061.011-.062.007-.126.012-.191.013h-2.265c-.139,0-.2-.058-.2-.2v-3.3c0-.137.058-.2.194-.2h2.239a1.838,1.838,0,0,1,1.77,1.346c.006.017.01.034.015.051.01.038.019.074.025.112s.008.058.014.089.008.058.011.089a.252.252,0,0,1,0,.028c0,.021,0,.042,0,.063s0,.046,0,.071v.034" fill="#fff"/>
      <path id="Path_3469" data-name="Path 3469" d="M8515.3,9196.349l7.3-6.981a4.553,4.553,0,0,0,1.777-3.205,2.017,2.017,0,0,0-2.284-2c-1.4,0-2.6.983-3.429,2.76l-3.966-2.6a8.03,8.03,0,0,1,7.68-4.951c4.475,0,7.108,2.982,7.108,6.665,0,2.094-1.047,4-3.331,6.093l-3.9,3.586h7.267v4.476H8515.3Z" fill="#07b53b"/>
    </g>
    <g id="Group_1086" data-name="Group 1086" transform="translate(-8035 -4609.465)">
      <path id="Path_3470" data-name="Path 3470" d="M8105.795,9243.205v2.856h-8.568l-.112,4.62h3.276a21.142,21.142,0,0,0,5.04-.448l.168,2.828a22.419,22.419,0,0,1-5.208.5h-3.332c-.084,5.74,0,6.692,5.32,6.692,3.052,0,6.468-.168,6.468-4.872a14.464,14.464,0,0,0-1.54-6.076l2.828-.756a14.418,14.418,0,0,1,1.9,7.084c0,7.616-6.216,7.616-9.744,7.616-3.808,0-6.216-.477-7.644-3.137-.784-1.456-.784-3.527-.728-6.552h-5.04v-2.884h5.068l.084-4.62h-4.845v-2.856h4.9l.055-3.611,3.249.027-.084,3.584Z" fill="#eb5a24"/>
      <path id="Path_3471" data-name="Path 3471" d="M8125.255,9244.073a23.785,23.785,0,0,0-.813,7.225,15.094,15.094,0,0,1,9.157-3.08c6.523,0,7.727,4.368,7.727,6.691,0,5.992-5.04,8.288-12.739,8.288a37.2,37.2,0,0,1-5.32-.364l-.336-3.023a34.908,34.908,0,0,0,5.46.448c7.223,0,9.66-2.185,9.66-5.46,0-1.82-1.261-3.78-4.733-3.78-3.5,0-7,1.484-8.82,3.724-.056.28-.056.393-.084.588l-3.107-.084c.112-7.531.168-8.54.784-11.563Zm11.7.309a36.025,36.025,0,0,0-11.535-2.128l.588-2.94a42.915,42.915,0,0,1,11.788,1.764Z" fill="#eb5a24"/>
      <path id="Path_3472" data-name="Path 3472" d="M8166.975,9245.445v2.576c-2.212,1.736-4.116,3.276-5.936,4.9a3.549,3.549,0,0,1,1.232-.225c2.548,0,2.548,2.3,2.548,3.78v1.063c0,2.072.2,2.688,3.976,2.688a32.281,32.281,0,0,0,3.528-.223l.112,3.107c-1.008.057-1.988.141-3.864.141-3.192,0-6.692,0-6.692-4.257v-1.68c0-1.176,0-2.212-1.344-2.212a5.715,5.715,0,0,0-2.884,1.2c-1.344,1.231-2.184,2.072-6.664,6.888l-2.156-2.408c.448-.392,4.4-4.115,5.348-5.012,5.544-5.208,6.412-5.936,8.26-7.476l-11.732.14V9245.5Zm.308-1.624a48.129,48.129,0,0,0-13.132-1.9l.336-2.689a54.781,54.781,0,0,1,13.328,1.71Z" fill="#eb5a24"/>
      <path id="Path_3473" data-name="Path 3473" d="M8197.187,9242.7c-2.24,1.652-4.9,3.809-7.335,5.712a13.953,13.953,0,0,1,4.228-.756c3.92,0,7.588,2.156,7.588,7.2,0,5.488-4.593,8.484-10.137,8.484-4.815,0-7.363-2.185-7.363-4.788,0-2.38,2.155-4.145,4.956-4.145a6.944,6.944,0,0,1,6.72,5.152,5.125,5.125,0,0,0,2.716-4.619c0-2.045-1.036-4.733-5.656-4.733-4.789,0-8.2,2.772-12.1,6.412l-1.792-2.632c.812-.588,5.908-4.479,13.131-10.864-3.333.253-5.487.337-10.165.448v-3.052c6.468.056,9.157-.056,15.2-.336Zm-8.147,14.168c-1.484,0-2.156.925-2.156,1.569,0,1.2,1.456,2.435,4.424,2.435a13.45,13.45,0,0,0,1.988-.224C8192.707,9258.55,8191.419,9256.869,8189.039,9256.869Z" fill="#eb5a24"/>
      <path id="Path_3474" data-name="Path 3474" d="M8222.751,9253.2a26.857,26.857,0,0,1,9.968,5.824l-2.24,3.024a24.894,24.894,0,0,0-7.812-5.517v1.6c0,3.976-2.828,5.151-6.132,5.151-5.012,0-6.916-2.632-6.916-5.235,0-3.725,3.752-5.628,8.008-5.628a11.312,11.312,0,0,1,1.849.14l-.084-12.908h3.3v4.34l9.184-.027v3.136h-9.155Zm-3.22,2.3a10.245,10.245,0,0,0-2.324-.279c-2.1,0-4.479.84-4.479,2.855,0,1.2.979,2.353,3.556,2.353,1.316,0,3.248-.42,3.248-2.688Z" fill="#eb5a24"/>
      <path id="Path_3475" data-name="Path 3475" d="M8252.795,9239.985l-.42,15.96h-2.744l-.42-15.96Zm-3.584,18.62h3.556v3.584h-3.556Z" fill="#eb5a24"/>
      <path id="Path_3476" data-name="Path 3476" d="M8268.026,9249.729h26.18v3h-26.18Z" fill="#eb5a24"/>
      <path id="Path_3477" data-name="Path 3477" d="M8297.763,9262.021a29.782,29.782,0,0,0,1.009-7.532l2.407.449a35.674,35.674,0,0,1-.951,7.923Zm10.612-12.8v-2.576H8314v-3.332h-4.4v-2.548h4.4v-2.38h2.688v2.38h3.443v2.24a22.407,22.407,0,0,0,1.765-3.977l2.436,1.2a31.31,31.31,0,0,1-3.584,6.412h3.584v2.576h-5.74a25.369,25.369,0,0,1-2.6,2.156h7.2v12.8h-12.88v-9.353c-.111.057-.783.42-1.2.616l-1.345-2.352-.924.308c-.14-.448-.168-.588-.28-.9-.7.084-1.231.14-1.876.2v12.04h-2.6v-11.844c-.756.056-3.64.253-4.061.253l-.084-2.521c1.288-.028,1.429-.028,1.765-.057.56-.728.868-1.147,1.708-2.436a26.976,26.976,0,0,0-3.584-3.557l1.344-2.212c.476.393.588.448.756.588a47.4,47.4,0,0,0,2.521-4.563l2.491.924a33.1,33.1,0,0,1-3.163,5.4c.308.279.392.392,1.119,1.147,2.072-3.332,2.3-3.724,2.717-4.479l2.436,1.092c-1.036,1.848-1.372,2.324-5.4,7.952.477,0,2.632-.112,3.08-.141-.308-.756-.448-1.063-.728-1.651l2.1-.84a39.194,39.194,0,0,1,1.933,4.788,25.66,25.66,0,0,0,6.132-3.36Zm-2.3,12.068a34.355,34.355,0,0,0-.672-6.355l2.212-.253a37.128,37.128,0,0,1,.756,6.188Zm14.448-7.5h-7.561v2.633h7.561Zm0,4.984h-7.561v3.052h7.561Zm-2.8-12.124a17.01,17.01,0,0,0,2.269-3.332h-3.3v3.332Z" fill="#eb5a24"/>
      <path id="Path_3478" data-name="Path 3478" d="M8334.862,9240.294a57.189,57.189,0,0,0-1.2,12.768,48.863,48.863,0,0,0,.812,9.912l-3.332.252a56.442,56.442,0,0,1-.7-9.66,70.535,70.535,0,0,1,1.12-13.523Zm7.168,12.067a6.7,6.7,0,0,0-1.372,3.612c0,2.352,2.772,2.6,5.46,2.6a58.918,58.918,0,0,0,6.469-.336v3.248c-1.513.112-3.192.252-5.181.252-4.592,0-9.659-.447-9.659-5.4a9.216,9.216,0,0,1,1.456-4.788Zm10-10.191v3.08h-13.439v-3.08Z" fill="#eb5a24"/>
      <path id="Path_3479" data-name="Path 3479" d="M8370.619,9259.417a31.043,31.043,0,0,1-5.488,2.492v-13.72h-1.876v4.452c0,2.24-.2,7.9-3.332,11.872l-2.1-2.212c2.1-2.492,2.856-6.524,2.856-10.332v-3.78h-2.408v-2.632h11.647v2.632h-2.184v9.6a13.611,13.611,0,0,0,2.212-.952Zm-1.567-17.667h-9.885V9239.2h9.885Zm-.532,20.8a23.1,23.1,0,0,0,5.348-3.473h-2.716v-15.287h4.116a10.9,10.9,0,0,0,.5-2.044H8370.4V9239.2h14.11v2.549h-5.936c-.084.392-.392,1.651-.5,2.044h5.6v15.287h-3.332a16.673,16.673,0,0,0,4.76,3l-1.6,2.437a17.934,17.934,0,0,1-5.264-3.668l1.82-1.765H8373.9l2.295,1.681a27.4,27.4,0,0,1-6.076,3.947Zm5.292-16.38v1.819h7.167v-1.819Zm0,4.115v1.792h7.167v-1.792Zm0,4.173v2.128h7.167v-2.128Z" fill="#eb5a24"/>
      <path id="Path_3480" data-name="Path 3480" d="M8388.343,9239.258h8.316v9.044h-4.7c-.057.5-.309,3.023-.364,3.584h5.4c0,.363-.084,8.932-1.2,11.2-.84,1.652-1.96,1.652-3.136,1.652h-3.192l-.476-2.855h3.275c.561,0,.924.027,1.2-.561a30.907,30.907,0,0,0,.729-6.748h-5.6a63.847,63.847,0,0,0,.868-8.96h4.508V9242h-5.628Zm8.316,22.372c.952-.057,1.848-.112,3.443-.309v-7.392h-2.268v-2.521h2.268v-12.151h13.776v2.436h-11.06v1.736h10.163v2.184h-10.163v1.792h10.163v2.212h-10.163v1.792h11.844v2.521h-7.392a10.967,10.967,0,0,0,1.428,2.939,25.527,25.527,0,0,0,3.64-2.828l2.268,1.681a28.662,28.662,0,0,1-4.256,3.107,15.229,15.229,0,0,0,4.76,3.192l-1.623,2.716a17.958,17.958,0,0,1-8.849-10.808h-1.792v7.056c2.548-.364,3.641-.588,4.592-.784v2.576a70.542,70.542,0,0,1-10.359,1.652Z" fill="#eb5a24"/>
      <path id="Path_3481" data-name="Path 3481" d="M8437.986,9242.9c-2.156,1.6-6.133,4.9-7.784,6.272a12.455,12.455,0,0,1,4.7-.925c4.984,0,7.616,3.108,7.616,6.776a7.159,7.159,0,0,1-3.192,6.076c-2.071,1.344-4.592,2.044-8.708,2.044a34.115,34.115,0,0,1-4.115-.252l-.756-3.164a30.51,30.51,0,0,0,5.151.448c6.664,0,8.372-2.912,8.372-5.124,0-3.557-3.556-4.061-5.544-4.061-5.236,0-8.764,2.912-12.1,5.937l-1.876-2.521c6.02-4.759,10.248-8.456,13.439-11.228-4.424.476-8.456.56-10.332.588v-3.052c7.057-.057,11.088-.252,15.12-.588Z" fill="#eb5a24"/>
      <path id="Path_3482" data-name="Path 3482" d="M8454.787,9260.678c5.432-.084,12.992-.477,12.992-7.141,0-4.256-3-4.34-4.564-4.34-2.576,0-9.716,1.288-10.779,1.456l-.448-3.359c1.4-.112,2.324-.2,4.844-.477a57.153,57.153,0,0,1,6.357-.532c2.6,0,7.95.028,7.95,7.084,0,9.716-10.107,10.137-15.428,10.332Zm13.439-16.576a46.951,46.951,0,0,0-13.132-1.932l.42-2.885a56.678,56.678,0,0,1,13.469,1.765Z" fill="#eb5a24"/>
      <path id="Path_3483" data-name="Path 3483" d="M8479.455,9255.861a24.48,24.48,0,0,0,5.151-7.42c0-.336,0-.476.057-1.652l-4.732.112v-3.136h4.844c0-.477.141-4.032.141-4.032h3.107c-.279,5.04-.308,5.4-.363,6.664,2.184-1.82,5.487-3.836,8.819-3.836a6.662,6.662,0,0,1,5.46,2.66c1.064,1.54,1.456,3.472,1.456,6.552a19.469,19.469,0,0,1-.644,5.292c.5.5.951,1.008,1.932,2.156l-1.876,2.8a15.23,15.23,0,0,0-1.54-1.96,6.113,6.113,0,0,1-5.572,2.8c-4.115,0-5.46-2.52-5.46-4.479,0-2.717,2.269-4.312,5.152-4.312a8.622,8.622,0,0,1,4.7,1.344,23.313,23.313,0,0,0,.336-3.724c0-2.324-.2-6.328-4.4-6.328-2.52,0-5.04,1.344-8.567,4.816-.057,1.512-.084,2.24-.084,3.948,0,.756.111,7.252.14,9.184h-3.107c0-4.564,0-5.04.056-9.464a18.737,18.737,0,0,1-3.444,5.208Zm15.9.645c-.728,0-2.548.308-2.548,1.876,0,.756.309,1.932,2.716,1.932a3.862,3.862,0,0,0,3.78-2.268A6.089,6.089,0,0,0,8495.358,9256.506Z" fill="#eb5a24"/>
      <path id="Path_3484" data-name="Path 3484" d="M8523.7,9239.985l-.42,15.96h-2.744l-.42-15.96Zm-3.584,18.62h3.556v3.584h-3.556Z" fill="#eb5a24"/>
    </g>
    <g id="Group_1087" data-name="Group 1087" transform="translate(-8035 -4609.465)">
      <rect id="Rectangle_225" data-name="Rectangle 225" width="237.659" height="55.372" transform="translate(8314.956 9092.099)" fill="#fff"/>
      <path id="Path_3485" data-name="Path 3485" d="M8349.541,9109.36h-3.08a.854.854,0,0,0-.854.854v19.132a.854.854,0,0,0,.854.855h3.08a.856.856,0,0,0,.856-.855v-19.132a.856.856,0,0,0-.856-.854" fill="#07b53b"/>
      <path id="Path_3486" data-name="Path 3486" d="M8370.741,9109.36h-3.079a.855.855,0,0,0-.856.854v11.366l-8.768-11.84a.664.664,0,0,0-.067-.087l0-.006c-.017-.02-.034-.036-.051-.054l-.016-.014c-.017-.012-.03-.025-.047-.038l-.022-.017a.35.35,0,0,0-.044-.03.1.1,0,0,0-.026-.015.235.235,0,0,0-.045-.026l-.028-.014a.415.415,0,0,0-.048-.021c-.009,0-.018-.007-.026-.011l-.053-.017-.028-.008-.049-.011-.037,0-.045,0-.045,0h-3.108a.855.855,0,0,0-.856.854v19.132a.855.855,0,0,0,.856.855h3.08a.854.854,0,0,0,.854-.855v-11.362l8.779,11.856a.888.888,0,0,0,.217.211l.009.007c.017.011.035.021.054.031l.022.013.041.021.042.018c.01,0,.018.008.026.01l.059.019.013,0a.833.833,0,0,0,.219.03h3.079a.854.854,0,0,0,.854-.855v-19.132a.853.853,0,0,0-.854-.854" fill="#07b53b"/>
      <path id="Path_3487" data-name="Path 3487" d="M8342.116,9125.41h-8.368v-15.2a.854.854,0,0,0-.856-.854h-3.078a.854.854,0,0,0-.856.854v19.131h0a.848.848,0,0,0,.239.591l.011.015.013.01a.85.85,0,0,0,.592.239h12.3a.855.855,0,0,0,.854-.855v-3.08a.855.855,0,0,0-.854-.854" fill="#07b53b"/>
      <path id="Path_3488" data-name="Path 3488" d="M8387.751,9109.36h-12.306a.856.856,0,0,0-.594.24l-.011.01-.013.015a.851.851,0,0,0-.236.589v19.131h0a.842.842,0,0,0,.239.591.049.049,0,0,0,.01.014l.013.012a.854.854,0,0,0,.592.239h12.306a.856.856,0,0,0,.854-.856v-3.079a.855.855,0,0,0-.854-.855h-8.37v-3.234h8.37a.856.856,0,0,0,.854-.855v-3.079a.855.855,0,0,0-.854-.856h-8.37v-3.233h8.37a.856.856,0,0,0,.854-.856v-3.079a.856.856,0,0,0-.854-.855" fill="#07b53b"/>
      <path id="Path_3489" data-name="Path 3489" d="M8463.483,9111.881l-2.406-1.639a1.063,1.063,0,0,0-.989-.144,1.2,1.2,0,0,0-.721.727c-1.215,4.307-3.126,8.118-4.989,9.942-3.373,3.306-9.013,4.021-10.109,4.131a1.128,1.128,0,0,0-.8.457,1.1,1.1,0,0,0-.18.9l.666,3.073a1.145,1.145,0,0,0,1.294.855c9.888-1.57,15.645-6.837,18.668-17.076a1.129,1.129,0,0,0-.432-1.227" fill="#07b53b"/>
      <path id="Path_3490" data-name="Path 3490" d="M8443.681,9113.817a29.233,29.233,0,0,1,6.043,2.972,1.176,1.176,0,0,0,.622.176,1.119,1.119,0,0,0,.275-.033,1.105,1.105,0,0,0,.7-.531l1.471-2.533a1.14,1.14,0,0,0-.387-1.518,31.835,31.835,0,0,0-6.752-2.93,1.106,1.106,0,0,0-1.364.53l-1.2,2.293a1.09,1.09,0,0,0-.05.918,1.137,1.137,0,0,0,.647.656" fill="#07b53b"/>
      <path id="Path_3491" data-name="Path 3491" d="M8418.036,9126.5c-1.774-2.444-2.313-2.972-2.827-5.744a.865.865,0,0,0-.955-.689l-2.241.312a.854.854,0,0,0-.724.97c.608,4.157,1.506,5.591,3.242,7.815a.855.855,0,0,0,1.185.149l2.149-1.631a.858.858,0,0,0,.171-1.182" fill="#07b53b"/>
      <path id="Path_3492" data-name="Path 3492" d="M8402.864,9120.4l-2.285-.241a.849.849,0,0,0-.931.731c-.317,2.354-1.157,3.529-2.715,5.289a.853.853,0,0,0,.062,1.205l2.01,1.8a.852.852,0,0,0,1.218-.082,13.517,13.517,0,0,0,3.4-7.763.851.851,0,0,0-.758-.94" fill="#07b53b"/>
      <path id="Path_3493" data-name="Path 3493" d="M8398.559,9118.446h6.543v10.9a.852.852,0,0,0,.852.852h3.095a.852.852,0,0,0,.852-.852v-10.9h6.7a.85.85,0,0,0,.851-.852v-3.1a.851.851,0,0,0-.851-.851h-6.7v-3.373a.852.852,0,0,0-.852-.851h-3.095a.852.852,0,0,0-.852.851v3.373h-6.543a.852.852,0,0,0-.852.851v3.1a.852.852,0,0,0,.852.852" fill="#07b53b"/>
      <path id="Path_3494" data-name="Path 3494" d="M8415.975,9108.764a2.954,2.954,0,1,0,2.955,2.955,2.953,2.953,0,0,0-2.955-2.955m0,4.224a1.282,1.282,0,1,1,0-2.564,1.282,1.282,0,0,1,0,2.564" fill="#07b53b"/>
      <path id="Path_3495" data-name="Path 3495" d="M8433.772,9129.347v-12.121a47.184,47.184,0,0,0,5.851-4.567.851.851,0,0,0,.01-1.247l-1.977-1.863a.854.854,0,0,0-1.155-.01,40.729,40.729,0,0,1-15.333,8.846.85.85,0,0,0-.481,1.194l1.261,2.45a.852.852,0,0,0,1.029.417,42.776,42.776,0,0,0,5.905-2.423v9.324a.85.85,0,0,0,.853.851h3.187a.851.851,0,0,0,.852-.851" fill="#07b53b"/>
      <path id="Path_3496" data-name="Path 3496" d="M8479.876,9123.643a38.41,38.41,0,0,0-7.916-4.356v10.061a.851.851,0,0,1-.851.852h-3.175a.85.85,0,0,1-.85-.852v-19.238a.85.85,0,0,1,.85-.853h3.175a.851.851,0,0,1,.851.853v4.667a50.469,50.469,0,0,1,10.3,4.522.85.85,0,0,1,.338,1.13l-1.489,2.9a.849.849,0,0,1-1.235.314" fill="#07b53b"/>
      <path id="Path_3497" data-name="Path 3497" d="M8506.1,9106.112a13.666,13.666,0,1,0,13.667,13.666,13.665,13.665,0,0,0-13.667-13.666" fill="#07b53b"/>
      <path id="Path_3498" data-name="Path 3498" d="M8507.755,9113.419v0h-5.421a.573.573,0,0,0-.573.573v12.534a.573.573,0,0,0,.573.572h2.112a.572.572,0,0,0,.571-.572v-3.591c0-.137.058-.2.2-.2l2.479.009a4.664,4.664,0,0,0,.063-9.328m1.537,4.694c0,.028,0,.06,0,.089s0,.067-.01.1-.009.059-.012.087-.013.065-.02.1a.818.818,0,0,1-.022.084c-.007.031-.017.063-.026.094s-.021.054-.03.081-.024.06-.037.089-.023.051-.037.077-.028.057-.045.085-.028.048-.044.071-.035.054-.053.08-.033.046-.051.067l-.062.074c-.017.02-.036.042-.056.062s-.046.046-.068.067-.04.038-.061.056-.051.041-.075.062l-.066.05c-.026.02-.055.036-.082.054s-.045.029-.069.042a.861.861,0,0,1-.089.047c-.025.013-.048.025-.072.035a.969.969,0,0,1-.1.039l-.071.028c-.034.012-.071.02-.106.029l-.073.02c-.038.01-.079.015-.12.021-.022,0-.041.009-.062.011-.062.007-.126.012-.191.013h-2.266c-.138,0-.2-.059-.2-.2v-3.3c0-.137.058-.2.194-.2h2.238a1.84,1.84,0,0,1,1.771,1.345c.006.018.011.035.015.052.01.037.019.074.025.111s.008.059.014.089.008.059.01.089a.141.141,0,0,1,0,.028c0,.021,0,.043,0,.063s0,.045,0,.07v.034" fill="#fff"/>
      <path id="Path_3499" data-name="Path 3499" d="M8533.315,9122.919c0-1.46-1.144-2.444-2.889-2.444a6.427,6.427,0,0,0-3.4.952l-2.285-1.682,1.587-10.377h10.854v4.475h-6.664l-.413,2.443a8.071,8.071,0,0,1,1.461-.127,6.462,6.462,0,0,1,6.854,6.854c0,4.284-3.141,7.172-7.9,7.172a8.1,8.1,0,0,1-7.2-3.617l3.713-3.3a3.964,3.964,0,0,0,3.4,2.126C8532.172,9125.394,8533.315,9124.411,8533.315,9122.919Z" fill="#07b53b"/>
    </g>
  </g>
</svg>
