<svg xmlns="http://www.w3.org/2000/svg" width="526.983" height="178.648" viewBox="0 0 526.983 178.648">
  <g id="Group_1940" data-name="Group 1940" transform="translate(-104.24 -1258.485)">
    <g id="Group_912" data-name="Group 912" transform="translate(-8035 -4609.465)">
      <path id="Path_2903" data-name="Path 2903" d="M8261.886,5872.885h2.52v4.38h11.22v20.879a2.216,2.216,0,0,1-2.49,2.55h-5.1l-.389-2.52,4.648.03c.39,0,.84-.03.84-.78V5879.6h-8.579c.33,2.49,1.47,7.26,8.31,11.759l-1.65,2.1c-5.939-4.529-7.38-8.429-8.039-10.259a19.745,19.745,0,0,1-8.279,10.139l-1.53-2.159a15.3,15.3,0,0,0,8.31-11.58h-8.61v21.089h-2.52v-23.429h11.34Z" fill="#00532c"/>
      <path id="Path_2904" data-name="Path 2904" d="M8293.025,5873.755v24.839c0,1.62-.96,2.16-2.25,2.16h-2.01l-.39-2.49,2.01.03c.33,0,.57-.09.57-.54v-7.02h-2.551c-.06,1.17-.3,6.3-1.77,9.93l-1.83-1.5a30.654,30.654,0,0,0,1.53-10.08v-15.329Zm-2.069,2.19h-2.551v5.22h2.551Zm0,7.29h-2.551v5.4h2.551Zm5.7-.69v7.529c0,2.52,0,7.05-1.8,10.59l-1.77-1.83c1.2-2.4,1.5-4.89,1.5-8.85v-9.359h10.979v-1.38h2.159c-.029.96-.029,1.08-.029,1.38h5.22v1.92h-5.19a68.112,68.112,0,0,0,.69,8.85,33.28,33.28,0,0,0,1.92-6.96l2.1.48a27.913,27.913,0,0,1-3.359,9.869c.18.69.81,3.09,1.5,3.09.63,0,.96-2.67,1.08-3.66l1.89,1.32c-.78,4.65-1.86,5.22-2.85,5.22-1.021,0-2.28-1.53-3.092-3.87a18.917,18.917,0,0,1-4.318,3.93l-1.59-1.56a19.893,19.893,0,0,0,1.859-1.32h-5.7v-13.469h7.229v1.68h-2.04v2.129h2.04v5.52h-2.04v2.34h2.22v.18a13.326,13.326,0,0,0,1.62-2.07,63.029,63.029,0,0,1-1.26-11.7Zm1.771-7.53v-2.1h2.221v2.1h4.919v-2.1h2.159v2.1h5.19v2.07h-5.19v1.5h-2.159v-1.5h-4.919v1.62h-2.221v-1.62h-4.38v-2.07Zm3.029,11.13H8299.6v2.129h1.859Zm1.95,3.689h-3.81v2.37h3.81Zm-1.95,3.96H8299.6v2.34h1.859Zm8.85-13.289a16.729,16.729,0,0,0-1.739-2.07l1.829-.96a8.556,8.556,0,0,1,1.771,2.1Z" fill="#00532c"/>
      <path id="Path_2905" data-name="Path 2905" d="M8331.186,5897.964c0,1.89-.3,2.79-2.82,2.79h-2.729l-.48-2.52h2.761c.93,0,1.05-.42,1.05-1.17v-6.419h-4.29c-.029.81-.271,6.479-2.01,10.079l-2.01-1.95a27.472,27.472,0,0,0,1.829-10.41v-14.579h8.7Zm-2.22-21.959h-4.17v5.16h4.17Zm0,7.29h-4.17v5.28h4.17Zm18.989-7.98c-3.03,1.5-9.149,2.82-11.939,3.24v2.25c0,.72.18,1.02,1.229,1.02h7.5c1.229,0,1.83-.18,1.95-3.87l2.489.78c-.479,5.16-1.831,5.4-4.109,5.4h-8.46c-1.38,0-3-.21-3-2.49v-8.82h2.4v3.51a50.552,50.552,0,0,0,10.649-3.09Zm-.33,24.869h-13.71v-13.559h13.71Zm-2.311-11.37h-9.089v3.48h9.089Zm0,5.43h-9.089v3.81h9.089Z" fill="#00532c"/>
      <path id="Path_2906" data-name="Path 2906" d="M8367.126,5873.785v24.389c0,.93,0,2.55-2.19,2.55h-3.39l-.54-2.52,3.09.06c.51,0,.81-.12.81-.81v-6.78h-4.289c-.36,5.04-.9,7.32-2.37,10.11l-1.771-2.28c1.5-2.85,1.921-6.629,1.921-10.44v-14.279Zm-2.221,2.16h-4.229v5.22h4.229Zm0,7.32h-4.229v5.279h4.229Zm18.9.81c0,.33-.03,9.659-.72,13.529-.24,1.26-.54,3.12-3.24,3.12h-3.93l-.51-2.46h3.6c1.38,0,1.53-.78,1.71-1.8a75.99,75.99,0,0,0,.6-10.049h-6.839c-.57,9.479-3.721,12.839-5.13,14.369l-1.74-1.95a12.823,12.823,0,0,0,3.541-6.54,35.212,35.212,0,0,0,.869-7.619v-5.1h-3.9v-2.37h6.84v-4.29h2.55v4.29h7.439v2.37H8374.5v4.5Z" fill="#00532c"/>
      <path id="Path_2907" data-name="Path 2907" d="M8420.975,5876.245h-12.689a24.773,24.773,0,0,1-1.109,3.69h12.509v20.159h-25.2v-20.159h10.23a20.682,20.682,0,0,0,1.02-3.69h-12.63v-2.22h27.869Zm-19.949,5.85h-4.109v15.839h4.109Zm9.72,0h-7.38v3.719h7.38Zm0,5.79h-7.38v3.84h7.38Zm0,5.879h-7.38v4.17h7.38Zm6.54-11.669h-4.17v15.839h4.17Z" fill="#00532c"/>
      <path id="Path_2908" data-name="Path 2908" d="M8435.706,5880.535h2.819v2.25h-2.819v.72a18.746,18.746,0,0,0,4.109,6.089l-1.38,2.19a24.654,24.654,0,0,1-2.729-4.919v13.859h-2.34v-12.839a21.7,21.7,0,0,1-3.45,6.779l-1.26-2.58a25.043,25.043,0,0,0,4.59-9.3h-3.96v-2.25h4.08v-4.23c-1.681.3-2.79.36-3.69.45l-.39-2.19a31.9,31.9,0,0,0,9-1.62l.811,1.98a11.982,11.982,0,0,1-3.39.96Zm2.279,18.209a23.54,23.54,0,0,0,6.39-2.7l1.561,1.53a23.021,23.021,0,0,1-6.75,3.15Zm11.13-25.8v1.62h7.229v1.83h-7.229v1.68h6.359v1.62h-6.359v1.71h7.8v1.86h-17.729v-1.86h7.529v-1.71h-6.209v-1.62h6.209v-1.68h-7.02v-1.83h7.02v-1.62Zm6.238,23.009h-14.848v-11.249h14.848Zm-2.278-9.629h-10.26v1.65h10.26Zm0,3.09h-10.26v1.649h10.26Zm0,3.089h-10.26v1.68h10.26Zm-1.771,3.54a20.672,20.672,0,0,0,5.94,2.7l-1.23,1.98a23.314,23.314,0,0,1-6.18-3.06Z" fill="#00532c"/>
      <path id="Path_2909" data-name="Path 2909" d="M8470.206,5900.754h-2.37v-15.449a22.144,22.144,0,0,1-1.95,2.849l-1.32-2.969c3.12-3.81,4.41-8.88,4.98-12.24l2.489.24a51.689,51.689,0,0,1-1.829,6.84Zm13.679-27.869v2.55h9.15v2.1h-9.15v2.43h7.53v15.779h-13.68v-15.779h3.75v-2.43h-8.7v-2.1h8.7v-2.55Zm9.15,27.3H8473V5880h2.311v18.059h17.729Zm-3.87-18.239h-9.21v2.46h9.21Zm0,4.47h-9.21v2.609h9.21Zm0,4.469h-9.21v2.88h9.21Z" fill="#00532c"/>
      <path id="Path_2910" data-name="Path 2910" d="M8525.314,5883.865c-2.43.27-18.629,2.1-18.629,8.76,0,3.479,3.66,3.809,10.109,3.809a83.513,83.513,0,0,0,9.45-.45l.06,2.82c-1.951.12-4.59.3-8.908.3-5.191,0-13.5,0-13.5-6.39,0-5.13,6.179-7.709,8.279-8.61-.99-1.949-1.05-3.689-1.141-10.079h2.94c-.03.81-.061,1.65-.061,3.12,0,3.18.15,4.77.78,6.06a69.912,69.912,0,0,1,10.35-2.22Z" fill="#00532c"/>
      <path id="Path_2911" data-name="Path 2911" d="M8543.046,5874.475a67.149,67.149,0,0,0-1.29,13.77,47.047,47.047,0,0,0,.93,10.469l-2.7.36a56.708,56.708,0,0,1-.839-11.039,78.513,78.513,0,0,1,1.109-13.77Zm20.249,4.92v2.58h-5.61l.091,7.92a22.2,22.2,0,0,1,6.029,4.379l-1.77,2.43a16.318,16.318,0,0,0-4.351-3.9v1.11c0,1.71-.029,5.1-5.76,5.1-4.68,0-6.419-2.73-6.419-5.16,0-3.12,2.76-5.25,6.569-5.25a9.58,9.58,0,0,1,3.09.451l-.12-7.08h-9.06v-2.58h9l-.089-5.07h2.729l.06,5.07Zm-8.13,12.119a6.8,6.8,0,0,0-3.06-.66c-2.01,0-4.2.78-4.2,3.03,0,2.31,2.28,2.88,3.87,2.88,3.27,0,3.39-1.77,3.39-3.389Z" fill="#00532c"/>
    </g>
    <g id="Group_913" data-name="Group 913" transform="translate(-8035 -4609.465)">
      <circle id="Ellipse_88" data-name="Ellipse 88" cx="20.5" cy="20.5" r="20.5" transform="translate(8592.08 5867.95)" fill="#00532c"/>
      <path id="Path_2912" data-name="Path 2912" d="M8612.58,5898.107l8.8-15.235h-17.593Z" fill="#fff"/>
    </g>
    <g id="Group_914" data-name="Group 914" transform="translate(-8035 -4609.465)">
      <path id="Path_2913" data-name="Path 2913" d="M8147.2,5950.014h1.681v2.921h7.481v13.923a1.478,1.478,0,0,1-1.661,1.7h-3.4l-.26-1.68,3.1.02c.259,0,.559-.02.559-.52V5954.5h-5.721c.22,1.661.981,4.841,5.541,7.842l-1.1,1.4c-3.96-3.02-4.921-5.621-5.36-6.841a13.176,13.176,0,0,1-5.522,6.761l-1.02-1.44a10.2,10.2,0,0,0,5.541-7.722h-5.742v14.063h-1.679v-15.623h7.561Z" fill="#00532c"/>
      <path id="Path_2914" data-name="Path 2914" d="M8163.961,5950.594v16.564c0,1.08-.64,1.44-1.5,1.44h-1.34l-.261-1.66,1.341.02c.22,0,.38-.06.38-.36v-4.681h-1.7a22.818,22.818,0,0,1-1.181,6.621l-1.22-1a20.417,20.417,0,0,0,1.02-6.722v-10.222Zm-1.38,1.461h-1.7v3.481h1.7Zm0,4.861h-1.7v3.6h1.7Zm3.8-.46v5.021c0,1.68,0,4.7-1.2,7.061l-1.181-1.22c.8-1.6,1-3.261,1-5.9v-6.242h7.321v-.92h1.441c-.021.641-.021.721-.021.92h3.481v1.281h-3.46a45.34,45.34,0,0,0,.46,5.9,22.229,22.229,0,0,0,1.28-4.641l1.4.32a18.616,18.616,0,0,1-2.241,6.582c.12.46.541,2.06,1,2.06.42,0,.64-1.781.72-2.441l1.261.881c-.521,3.1-1.241,3.48-1.9,3.48-.681,0-1.52-1.02-2.06-2.58a12.672,12.672,0,0,1-2.881,2.62l-1.061-1.04a13.158,13.158,0,0,0,1.24-.88h-3.8v-8.982H8172v1.12h-1.36v1.42H8172v3.682h-1.36v1.56h1.48v.12a8.861,8.861,0,0,0,1.08-1.381,42,42,0,0,1-.84-7.8Zm1.181-5.021v-1.4h1.479v1.4h3.281v-1.4h1.441v1.4h3.46v1.38h-3.46v1h-1.441v-1h-3.281v1.08h-1.479v-1.08h-2.921v-1.38Zm2.019,7.421h-1.24v1.42h1.24Zm1.3,2.461h-2.541v1.58h2.541Zm-1.3,2.641h-1.24v1.56h1.24Zm5.9-8.863a11.01,11.01,0,0,0-1.16-1.38l1.221-.64a5.707,5.707,0,0,1,1.18,1.4Z" fill="#00532c"/>
      <path id="Path_2915" data-name="Path 2915" d="M8185.4,5966.738c0,1.26-.2,1.86-1.88,1.86h-1.82l-.32-1.68h1.84c.62,0,.7-.28.7-.78v-4.281h-2.86a19.878,19.878,0,0,1-1.34,6.721l-1.341-1.3a18.329,18.329,0,0,0,1.221-6.942v-9.722h5.8Zm-1.48-14.643h-2.78v3.441h2.78Zm0,4.861h-2.78v3.521h2.78Zm12.663-5.321a34.829,34.829,0,0,1-7.962,2.16v1.5c0,.48.12.681.82.681h5c.82,0,1.221-.121,1.3-2.581l1.66.52c-.32,3.441-1.221,3.6-2.741,3.6h-5.641c-.919,0-2-.14-2-1.661v-5.881h1.6v2.341a33.608,33.608,0,0,0,7.1-2.061Zm-.22,16.583h-9.142v-9.042h9.142Zm-1.541-7.581h-6.06v2.32h6.06Zm0,3.62h-6.06v2.541h6.06Z" fill="#00532c"/>
      <path id="Path_2916" data-name="Path 2916" d="M8205.361,5950.614v16.264c0,.62,0,1.7-1.46,1.7h-2.261l-.36-1.68,2.061.04c.341,0,.54-.08.54-.54v-4.521h-2.859c-.241,3.361-.6,4.881-1.581,6.741l-1.181-1.52a15.351,15.351,0,0,0,1.28-6.961v-9.523Zm-1.48,1.441h-2.82v3.481h2.82Zm0,4.881h-2.82v3.521h2.82Zm12.6.54a78.407,78.407,0,0,1-.48,9.022c-.16.84-.36,2.08-2.16,2.08h-2.621l-.34-1.64h2.4c.92,0,1.021-.52,1.141-1.2a50.719,50.719,0,0,0,.4-6.7h-4.561c-.38,6.321-2.48,8.562-3.421,9.582l-1.16-1.3a8.541,8.541,0,0,0,2.36-4.361,23.418,23.418,0,0,0,.58-5.081v-3.4h-2.6v-1.58h4.562v-2.861h1.7v2.861h4.961v1.58h-6.962v3Z" fill="#00532c"/>
      <path id="Path_2917" data-name="Path 2917" d="M8237.264,5952.255H8228.8a16.854,16.854,0,0,1-.739,2.46h8.341v13.443h-16.8v-13.443h6.821a13.722,13.722,0,0,0,.68-2.46h-8.422v-1.481h18.584Zm-13.3,3.9h-2.74v10.562h2.74Zm6.481,0h-4.921v2.48h4.921Zm0,3.861h-4.921v2.56h4.921Zm0,3.921h-4.921v2.78h4.921Zm4.361-7.782h-2.78v10.562h2.78Z" fill="#00532c"/>
      <path id="Path_2918" data-name="Path 2918" d="M8243.081,5955.115h1.881v1.5h-1.881v.48a12.51,12.51,0,0,0,2.74,4.061l-.92,1.46a16.438,16.438,0,0,1-1.82-3.281v9.242h-1.56v-8.561a14.483,14.483,0,0,1-2.3,4.521l-.841-1.721a16.691,16.691,0,0,0,3.061-6.2H8238.8v-1.5h2.722v-2.82c-1.121.2-1.861.24-2.461.3l-.261-1.46a21.3,21.3,0,0,0,6-1.081l.54,1.321a8,8,0,0,1-2.261.64Zm1.521,12.143a15.687,15.687,0,0,0,4.261-1.8l1.04,1.02a15.342,15.342,0,0,1-4.5,2.1Zm7.422-17.2v1.081h4.82v1.22h-4.82v1.12h4.24v1.08h-4.24v1.14h5.2v1.241H8245.4v-1.241h5.021v-1.14h-4.141v-1.08h4.141v-1.12h-4.682v-1.22h4.682v-1.081Zm4.16,15.343h-9.9v-7.5h9.9Zm-1.521-6.421h-6.841v1.1h6.841Zm0,2.061h-6.841v1.1h6.841Zm0,2.06h-6.841v1.12h6.841Zm-1.18,2.361a13.788,13.788,0,0,0,3.961,1.8l-.82,1.32a15.551,15.551,0,0,1-4.121-2.04Z" fill="#00532c"/>
      <path id="Path_2919" data-name="Path 2919" d="M8262.081,5968.6h-1.58v-10.3a14.733,14.733,0,0,1-1.3,1.9l-.88-1.98a17.87,17.87,0,0,0,3.32-8.162l1.66.16a34.47,34.47,0,0,1-1.22,4.561Zm9.122-18.584v1.7h6.1v1.4h-6.1v1.62h5.021v10.523H8267.1v-10.523h2.5v-1.62h-5.8v-1.4h5.8v-1.7Zm6.1,18.2h-13.362v-13.463h1.54V5966.8H8277.3Zm-2.58-12.162h-6.142v1.64h6.142Zm0,2.98h-6.142v1.741h6.142Zm0,2.981h-6.142v1.921h6.142Z" fill="#00532c"/>
      <path id="Path_2920" data-name="Path 2920" d="M8294.823,5957.336c-1.62.18-12.422,1.4-12.422,5.841,0,2.321,2.44,2.541,6.741,2.541a55.379,55.379,0,0,0,6.3-.3l.04,1.881c-1.3.08-3.061.2-5.941.2-3.46,0-9,0-9-4.261,0-3.421,4.12-5.141,5.521-5.741-.66-1.3-.7-2.46-.76-6.722h1.96c-.02.54-.04,1.1-.04,2.081,0,2.121.1,3.181.521,4.041a46.591,46.591,0,0,1,6.9-1.48Z" fill="#00532c"/>
      <path id="Path_2921" data-name="Path 2921" d="M8302.641,5951.075a44.8,44.8,0,0,0-.859,9.181,31.358,31.358,0,0,0,.62,6.982l-1.8.24a37.768,37.768,0,0,1-.561-7.361,52.33,52.33,0,0,1,.74-9.182Zm13.5,3.28v1.721h-3.74l.06,5.281a14.835,14.835,0,0,1,4.021,2.92l-1.181,1.621a10.9,10.9,0,0,0-2.9-2.6v.74c0,1.141-.021,3.4-3.84,3.4-3.122,0-4.282-1.82-4.282-3.44,0-2.081,1.841-3.5,4.381-3.5a6.431,6.431,0,0,1,2.061.3l-.08-4.721H8304.6v-1.721h6l-.06-3.38h1.82l.04,3.38Zm-5.421,8.082a4.539,4.539,0,0,0-2.04-.44c-1.341,0-2.8.52-2.8,2.021,0,1.54,1.521,1.92,2.58,1.92,2.181,0,2.261-1.181,2.261-2.261Z" fill="#00532c"/>
      <path id="Path_2922" data-name="Path 2922" d="M8322.7,5967.958a29.114,29.114,0,0,0-3.321-4.141l1.521-1.12a31.512,31.512,0,0,1,3.561,4.021Z" fill="#00532c"/>
      <path id="Path_2923" data-name="Path 2923" d="M8336.622,5957.5a13.949,13.949,0,0,1,2.5-.24,8.421,8.421,0,0,1,4.961,1.24,4.928,4.928,0,0,1,1.961,4.021c0,1.72-.8,3.621-3.561,4.541a12.205,12.205,0,0,1-3.562.48l-.3-1.66c1.78-.02,5.481-.1,5.481-3.421,0-1.26-.681-3.621-4.761-3.621a14.771,14.771,0,0,0-2.721.24v6.122c0,.94-.34,2-2.5,2-2.66,0-4.421-1.6-4.421-3.921,0-3.4,3.341-4.7,5.161-5.4v-2.9h-4.821v-1.661h4.821v-2.541h1.761v2.541h4.761v1.661h-4.761Zm-1.74,2.04c-1.181.5-3.481,1.461-3.481,3.641a2.38,2.38,0,0,0,2.661,2.3c.68,0,.82-.2.82-.581Zm8-8.661a14.45,14.45,0,0,1,4.041,5.281l-1.641.96a15.17,15.17,0,0,0-3.78-5.262Z" fill="#00532c"/>
      <path id="Path_2924" data-name="Path 2924" d="M8365.983,5964.978a90.14,90.14,0,0,1-7.361-6.922c-1.92-1.94-2.38-2.2-3.021-2.2s-1.1.361-1.9,1.321c-.28.32-2.5,3.06-3.5,4.281l-1.36-1.621c.721-.7,3.661-3.961,4.321-4.581a3.338,3.338,0,0,1,2.5-1.2c1.42,0,2.2.74,3.94,2.441,1,.98,3.681,3.421,4.9,4.481,1.52,1.3,2.38,1.92,2.8,2.22Z" fill="#00532c"/>
      <path id="Path_2925" data-name="Path 2925" d="M8383.123,5951.215v1.54a61.393,61.393,0,0,1-7.741,4.881,68.6,68.6,0,0,1,11.183-.84l.02,1.8c-1.021-.08-1.761-.12-2.561-.12a6.862,6.862,0,0,0-3.6.8c-1.641.861-3.521,2.6-3.521,4.321,0,1.381,1.04,2.641,7.161,2.521l-.22,1.78c-2.961-.06-8.8-.14-8.8-3.94,0-3.082,3.3-4.822,4.342-5.362-5.262.72-6.562.94-9.942,1.6l-.2-1.8a7.135,7.135,0,0,0,3.2-.74,49.821,49.821,0,0,0,7.961-4.861l-8.562.12-.04-1.7Z" fill="#00532c"/>
      <path id="Path_2926" data-name="Path 2926" d="M8397.9,5965.778c2.061-.22,6.921-.8,6.921-6.522,0-1.58-.479-5.981-5.98-6.161-.181,2.321-.581,7.241-2.641,10.542-1.181,1.861-2.461,2.321-3.361,2.321-1.96,0-3.6-2.321-3.6-5.622,0-5.44,3.961-8.921,9.242-8.921,6.481,0,8.222,4.481,8.222,7.861a8.063,8.063,0,0,1-2.681,6.262,10.4,10.4,0,0,1-5.521,1.98Zm-4.141-11.323a7.208,7.208,0,0,0-2.781,5.921c0,1.361.5,3.661,1.921,3.661.84,0,1.44-.74,1.96-1.62,1.681-2.881,2-6.941,2.2-9.242A7.543,7.543,0,0,0,8393.762,5954.455Z" fill="#00532c"/>
      <path id="Path_2927" data-name="Path 2927" d="M8412.561,5968.538h-1.64v-10.322a10.276,10.276,0,0,1-1.681,2.04l-.84-1.86c.78-.84,2.82-3,4.021-8.422l1.681.24a29.607,29.607,0,0,1-1.541,4.842Zm14.684-2.3v1.56h-13.482v-1.56h7.521a46.647,46.647,0,0,0,2.28-10.182l1.74.24a52.611,52.611,0,0,1-2.341,9.942Zm-5.981-16.2v3.221h5.562v1.58h-12.6v-1.58h5.342v-3.221Zm-4.421,6.1a44.541,44.541,0,0,1,1.94,8.541l-1.721.341a43.968,43.968,0,0,0-1.72-8.5Z" fill="#00532c"/>
      <path id="Path_2928" data-name="Path 2928" d="M8446.524,5954.435h-7.782v1.021h8.562v1.24h-8.562v1.02h6.922v8.082h-12.543v-8.082h4.021v-1.02H8428.7v-1.24h8.441v-1.021h-7.722v-3.821h17.1Zm.779,12.443v1.3H8429.62V5958.3h1.641v8.582Zm-12.683-15.063h-3.66v1.4h3.66Zm9.462,7.041H8434.7V5960h9.382Zm0,2.281H8434.7v1.18h9.382Zm0,2.28H8434.7v1.24h9.382Zm-4.32-11.6h-3.641v1.4h3.641Zm5.181,0h-3.7v1.4h3.7Z" fill="#00532c"/>
      <path id="Path_2929" data-name="Path 2929" d="M8466.224,5953.695c-.86-.06-1.48-.08-2.04-.08a5.614,5.614,0,0,0-2.021.24c-2.881.96-6.8,4.061-6.8,7.5,0,2.6,1.921,3.42,4.041,3.861a23.92,23.92,0,0,0,5.041.36l-.36,1.94c-3.94-.16-10.582-.44-10.582-6.041,0-3.8,3.5-6.421,5.861-7.8-.58.02-7.5.44-9.682.7l-.159-1.96c.979-.02,4.439-.18,5.46-.24,4.741-.26,6.621-.3,11.2-.321Zm-4.141,2.4a17.707,17.707,0,0,1,2.2,3.78l-1.4.881a17.02,17.02,0,0,0-2.1-3.861Zm2.961-1.281a17.393,17.393,0,0,1,2.2,3.781l-1.4.881a17.879,17.879,0,0,0-2.1-3.861Z" fill="#00532c"/>
      <path id="Path_2930" data-name="Path 2930" d="M8472.681,5968.578h-1.62v-10.642a13.756,13.756,0,0,1-1.78,2.241l-.84-1.881a17,17,0,0,0,4.141-8.322l1.641.32a18.844,18.844,0,0,1-1.541,4.642Zm.6-5.041a20.15,20.15,0,0,0,5.981-8.382h-5.342v-1.58h5.762v-3.561h1.681v3.561h5.9v1.58H8481.8c1.32,3.181,3.421,6.342,5.722,8.022l-.82,1.761a20.08,20.08,0,0,1-5.341-7.642v6.261h3.16v1.541h-3.16v3.48h-1.681v-3.48h-3.1v-1.541h3.1v-6.241a19.922,19.922,0,0,1-5.521,7.9Z" fill="#00532c"/>
      <path id="Path_2931" data-name="Path 2931" d="M8504.964,5952.675v1.6h-8.822a16.642,16.642,0,0,1-1.32,2.881,5.969,5.969,0,0,1,3.2-1.18,2.729,2.729,0,0,1,3.041,2.34c.459-.18,3.2-1.28,5-1.9l.48,1.74c-1.62.46-3.041.9-5.241,1.74.061.7.08,1.561.08,2.281,0,.28,0,.88-.06,1.52h-1.741c.04-.46.1-1.2.1-1.92,0-.34,0-.68-.04-1.2-1.54.72-3.961,2-3.961,3.64,0,1.761,2.221,1.761,4.421,1.761a49.364,49.364,0,0,0,5.281-.28l.06,1.72c-1.14.08-2.88.2-4.78.2-2.261,0-6.782,0-6.782-3.221,0-2.72,3.581-4.521,5.562-5.4-.22-1.18-.78-1.58-1.7-1.58a5.96,5.96,0,0,0-3.961,2.041c-.92,1.26-2.24,3.02-2.881,3.68l-1.24-1.34a17.341,17.341,0,0,0,4.642-7.522h-4.121v-1.6h4.6a14.441,14.441,0,0,0,.42-2.24l1.921.08a18.339,18.339,0,0,1-.5,2.16Z" fill="#00532c"/>
      <path id="Path_2932" data-name="Path 2932" d="M8522.483,5949.994a12.579,12.579,0,0,0,5.041,4.4l-.6,1.5a17.965,17.965,0,0,1-2.04-1.3v1.14h-6.241v-1.18a15.7,15.7,0,0,1-1.961,1.441l-.66-1.261v7.442h-2.66v1.66h3.16v1.421h-3.16v3.32H8511.9v-3.32h-3.16v-1.421h3.16v-1.66h-2.64V5954.5h2.64v-1.44h-2.94v-1.44h2.94v-1.621h1.461v1.621h3.1v1.44h-3.1v1.44h2.66v.06a12.739,12.739,0,0,0,4.762-4.561Zm-10.583,5.8h-1.359v1.921h1.359Zm0,3.141h-1.359v1.92h1.359Zm2.821-3.141h-1.36v1.921h1.36Zm0,3.141h-1.36v1.92h1.36Zm11.942,8.542c0,.6-.14,1.1-1.221,1.1h-1.06l-.4-1.48.94.04c.38.02.38-.2.38-.38v-3.9h-1.48v5.3h-1.28v-5.3h-1.479v5.3H8519.8v-5.3h-1.48v5.721h-1.36V5957.2h9.7Zm-6.861-8.9h-1.48v2.961h1.48Zm4.761-4.241a14,14,0,0,1-2.9-3,16.2,16.2,0,0,1-2.78,3Zm-2.021,4.241h-1.479v2.961h1.479Zm2.761,0h-1.48v2.961h1.48Z" fill="#00532c"/>
      <path id="Path_2933" data-name="Path 2933" d="M8530.541,5950.034h1.62v5.3l4.3-.7.1,1.641-4.4.72v6c0,.44.1.58.6.58H8534c.86,0,1-2.28,1.04-3.04l1.621.38c-.32,2.62-.7,4.2-2.341,4.2h-2.341a1.3,1.3,0,0,1-1.439-1.461v-6.4l-1.961.32-.1-1.62,2.061-.34Zm16.183.861c0,4.88,0,13.862-1.1,16.223a2.477,2.477,0,0,1-2.561,1.42h-2.9l-.359-1.7,2.98.02a1.312,1.312,0,0,0,1.2-.54c1.061-1.72,1.061-11.523,1.061-13.8h-3.781c-.08,8.742-1.46,12.7-7,16.083l-1.16-1.44c5.841-3.121,6.48-7.622,6.48-14.643H8536v-1.62Z" fill="#00532c"/>
      <path id="Path_2934" data-name="Path 2934" d="M8554.3,5951.294a33.091,33.091,0,0,0-.7,7.1c.26-.48.819-1.48,1.52-2.561l1.041,1c-2.3,3.3-2.321,4.6-2.341,5.421l-1.681.1a36.136,36.136,0,0,1-.28-4.6,33.759,33.759,0,0,1,.62-6.641Zm9.422-.1c.16,2.16.26,4.421.26,6.581,0,4.3-.22,8.322-7.462,10.142l-1.38-1.36c6.8-1.781,6.941-4.561,6.941-9.242,0-1.88-.04-2.42-.26-6.121Z" fill="#00532c"/>
      <path id="Path_2935" data-name="Path 2935" d="M8573.121,5951.274a38.466,38.466,0,0,0-.9,9.062,29.729,29.729,0,0,0,.62,7.1l-1.94.16a39.981,39.981,0,0,1-.52-6.981,45.741,45.741,0,0,1,.84-9.5Zm5.1,8.582a4.831,4.831,0,0,0-1,2.7c0,1.82,2.041,2.061,4.182,2.061a42.673,42.673,0,0,0,4.58-.241v1.881c-.68.06-2.08.18-3.78.18-2.961,0-6.661-.28-6.661-3.721a6.7,6.7,0,0,1,1.06-3.361Zm7.341-7.121v1.76h-9.4v-1.76Z" fill="#00532c"/>
      <path id="Path_2936" data-name="Path 2936" d="M8594.321,5950.935c-.18,5.4-.26,7.781-.26,9.682,0,2.56.12,5.241,3.881,5.241,5.181,0,5.841-3.6,6.4-6.642l1.68.62c-.64,3.621-1.94,7.742-8.021,7.742-5.48,0-5.841-3.661-5.841-7.141,0-1.5.12-8.142.14-9.5Z" fill="#00532c"/>
      <path id="Path_2937" data-name="Path 2937" d="M8609.3,5967.278c2.1-4.041,3.2-10.6,3.441-12.2h-2.921v-1.7h3.141c.141-1.4.141-1.48.24-2.641l1.94.06c-.12,1.021-.16,1.321-.32,2.581h5.5v1.7h-5.741a61.641,61.641,0,0,1-3.42,12.823Zm9.343-5.161a3.061,3.061,0,0,0-.681,1.821c0,1.76,2.32,1.84,4.642,1.84.68,0,2.18-.04,3.841-.16l.02,1.82c-.5.02-3.12.06-3.761.06-2.36,0-6.441,0-6.441-3.4a4.857,4.857,0,0,1,.94-2.64Zm7.361-4.241c-.54-.02-1.141-.06-2.04-.06a15.378,15.378,0,0,0-5.481.84l-.58-1.54c1.521-.58,3.421-1.18,8.1-1.04Z" fill="#00532c"/>
      <path id="Path_2938" data-name="Path 2938" d="M8644.823,5957.336c-1.62.18-12.422,1.4-12.422,5.841,0,2.321,2.44,2.541,6.741,2.541a55.379,55.379,0,0,0,6.3-.3l.04,1.881c-1.3.08-3.061.2-5.941.2-3.46,0-9,0-9-4.261,0-3.421,4.12-5.141,5.521-5.741-.66-1.3-.7-2.46-.76-6.722h1.96c-.02.54-.04,1.1-.04,2.081,0,2.121.1,3.181.521,4.041a46.591,46.591,0,0,1,6.9-1.48Z" fill="#00532c"/>
      <path id="Path_2939" data-name="Path 2939" d="M8666.224,5958.256a48.179,48.179,0,0,1-5.4.56,15.233,15.233,0,0,0,2.141,3.341l-1.56,1.08a17.491,17.491,0,0,1-2.521-4.341c-.541.04-2.081.06-2.781.06l-6.321-.04v-1.62l6.081.08c.6,0,1.261,0,2.44-.04a23.655,23.655,0,0,1-.66-2.38c-.72.02-1.42.04-2.14.04l-5-.02v-1.621l4.8.02c.64,0,.78,0,2.021-.02a23.687,23.687,0,0,1-.32-2.46l1.92-.02c.061.9.12,1.5.261,2.4a47.926,47.926,0,0,0,5.4-.56l.159,1.681a49.637,49.637,0,0,1-5.261.5,17.893,17.893,0,0,0,.7,2.38,33.815,33.815,0,0,0,5.841-.68Zm-11.922,3.581a2.848,2.848,0,0,0-1,1.8c0,2.061,3.481,2.261,6.361,2.261,2.3,0,3.6-.12,4.562-.2l.04,1.76c-.98.08-1.761.14-4.062.14-3.88,0-5.341-.28-6.521-.8a3.366,3.366,0,0,1-2.221-2.9,4.015,4.015,0,0,1,1.48-2.96Z" fill="#00532c"/>
      <path id="Path_2940" data-name="Path 2940" d="M8147.9,6004.778c2.061-.22,6.921-.8,6.921-6.522,0-1.58-.479-5.981-5.98-6.161-.181,2.321-.581,7.241-2.641,10.542-1.181,1.861-2.461,2.321-3.361,2.321-1.96,0-3.6-2.321-3.6-5.622,0-5.44,3.961-8.921,9.242-8.921,6.482,0,8.222,4.481,8.222,7.861a8.06,8.06,0,0,1-2.681,6.262,10.391,10.391,0,0,1-5.521,1.98Zm-4.14-11.323a7.206,7.206,0,0,0-2.782,5.921c0,1.361.5,3.661,1.921,3.661.84,0,1.441-.74,1.96-1.62,1.681-2.881,2-6.941,2.2-9.242A7.536,7.536,0,0,0,8143.762,5993.455Z" fill="#00532c"/>
      <path id="Path_2941" data-name="Path 2941" d="M8167.2,5989.014h1.681v2.921h7.481v13.923a1.478,1.478,0,0,1-1.661,1.7h-3.4l-.26-1.68,3.1.02c.259,0,.559-.02.559-.52V5993.5h-5.721c.22,1.661.981,4.841,5.541,7.842l-1.1,1.4c-3.96-3.02-4.921-5.621-5.36-6.841a13.176,13.176,0,0,1-5.522,6.761l-1.02-1.44a10.2,10.2,0,0,0,5.541-7.722h-5.742v14.063h-1.679v-15.623h7.561Z" fill="#00532c"/>
      <path id="Path_2942" data-name="Path 2942" d="M8183.961,5989.594v16.564c0,1.08-.64,1.44-1.5,1.44h-1.34l-.261-1.66,1.341.02c.22,0,.38-.06.38-.36v-4.681h-1.7a22.818,22.818,0,0,1-1.181,6.621l-1.22-1a20.417,20.417,0,0,0,1.02-6.722v-10.222Zm-1.38,1.461h-1.7v3.481h1.7Zm0,4.861h-1.7v3.6h1.7Zm3.8-.46v5.021c0,1.68,0,4.7-1.2,7.061l-1.181-1.22c.8-1.6,1-3.261,1-5.9v-6.242h7.321v-.92h1.44c-.021.641-.021.721-.021.92h3.48v1.281h-3.46a45.427,45.427,0,0,0,.46,5.9,22.205,22.205,0,0,0,1.28-4.641l1.4.32a18.607,18.607,0,0,1-2.241,6.582c.12.46.541,2.06,1,2.06.42,0,.64-1.781.72-2.441l1.261.881c-.521,3.1-1.24,3.48-1.9,3.48-.681,0-1.521-1.02-2.061-2.58a12.652,12.652,0,0,1-2.88,2.62l-1.061-1.04a13.158,13.158,0,0,0,1.24-.88h-3.8v-8.982H8192v1.12h-1.36v1.42H8192v3.682h-1.36v1.56h1.48v.12a8.861,8.861,0,0,0,1.08-1.381,41.959,41.959,0,0,1-.84-7.8Zm1.181-5.021v-1.4h1.479v1.4h3.281v-1.4h1.44v1.4h3.46v1.38h-3.46v1h-1.44v-1h-3.281v1.08h-1.479v-1.08h-2.921v-1.38Zm2.019,7.421h-1.24v1.42h1.24Zm1.3,2.461h-2.541v1.58h2.541Zm-1.3,2.641h-1.24v1.56h1.24Zm5.9-8.863a11.15,11.15,0,0,0-1.16-1.38l1.221-.64a5.684,5.684,0,0,1,1.18,1.4Z" fill="#00532c"/>
      <path id="Path_2943" data-name="Path 2943" d="M8205.4,6005.738c0,1.26-.2,1.86-1.88,1.86h-1.82l-.32-1.68h1.84c.62,0,.7-.28.7-.78v-4.281h-2.86a19.853,19.853,0,0,1-1.34,6.721l-1.341-1.3a18.317,18.317,0,0,0,1.221-6.942v-9.722h5.8Zm-1.48-14.643h-2.78v3.441h2.78Zm0,4.861h-2.78v3.521h2.78Zm12.663-5.321a34.822,34.822,0,0,1-7.962,2.16v1.5c0,.48.12.681.82.681h5c.82,0,1.221-.121,1.3-2.581l1.66.52c-.32,3.441-1.221,3.6-2.741,3.6h-5.641c-.92,0-2-.14-2-1.661v-5.881h1.6v2.341a33.617,33.617,0,0,0,7.1-2.061Zm-.22,16.583h-9.143v-9.042h9.143Zm-1.541-7.581h-6.061v2.32h6.061Zm0,3.62h-6.061v2.541h6.061Z" fill="#00532c"/>
      <path id="Path_2944" data-name="Path 2944" d="M8225.361,5989.614v16.264c0,.62,0,1.7-1.46,1.7h-2.261l-.36-1.68,2.061.04c.341,0,.54-.08.54-.54v-4.521h-2.859c-.241,3.361-.6,4.881-1.581,6.741l-1.181-1.52a15.351,15.351,0,0,0,1.28-6.961v-9.523Zm-1.48,1.441h-2.82v3.481h2.82Zm0,4.881h-2.82v3.521h2.82Zm12.6.54a78.407,78.407,0,0,1-.48,9.022c-.16.84-.36,2.08-2.16,2.08h-2.621l-.34-1.64h2.4c.92,0,1.021-.52,1.141-1.2a50.719,50.719,0,0,0,.4-6.7h-4.561c-.38,6.321-2.48,8.562-3.421,9.582l-1.16-1.3a8.541,8.541,0,0,0,2.36-4.361,23.418,23.418,0,0,0,.58-5.081v-3.4h-2.6v-1.58h4.562v-2.861h1.7v2.861h4.961v1.58h-6.962v3Z" fill="#00532c"/>
      <path id="Path_2945" data-name="Path 2945" d="M8243.241,5990.875v-1.861h1.62v1.861h4.1v1.44h-1.38a34.875,34.875,0,0,1-.94,4.261h2.7v1.46H8238.72v-1.46h2.641a25,25,0,0,0-.7-4.261h-1.6v-1.44Zm5.221,16.363h-8.741v-7.561h8.741Zm-1.58-6.121h-5.562v4.7h5.562Zm-1.78-4.541a33.555,33.555,0,0,0,.9-4.261h-3.841a35.331,35.331,0,0,1,.78,4.261Zm4.981,10.982v-18.043h6.841v1.36a36.171,36.171,0,0,1-2.48,5.4,8.077,8.077,0,0,1,2.841,5.881,3.7,3.7,0,0,1-1.08,2.741,3.059,3.059,0,0,1-2.181.66h-1.44l-.24-1.661,1.44.041c1.261.04,1.8-.781,1.8-2a6.948,6.948,0,0,0-3.041-5.341,29.373,29.373,0,0,0,2.541-5.621h-3.361v16.583Z" fill="#00532c"/>
      <path id="Path_2946" data-name="Path 2946" d="M8267.9,6004.778c2.061-.22,6.921-.8,6.921-6.522,0-1.58-.479-5.981-5.98-6.161-.181,2.321-.581,7.241-2.641,10.542-1.181,1.861-2.461,2.321-3.361,2.321-1.96,0-3.6-2.321-3.6-5.622,0-5.44,3.961-8.921,9.242-8.921,6.481,0,8.222,4.481,8.222,7.861a8.063,8.063,0,0,1-2.681,6.262,10.4,10.4,0,0,1-5.521,1.98Zm-4.141-11.323a7.208,7.208,0,0,0-2.781,5.921c0,1.361.5,3.661,1.921,3.661.84,0,1.44-.74,1.96-1.62,1.681-2.881,2-6.941,2.2-9.242A7.543,7.543,0,0,0,8263.762,5993.455Z" fill="#00532c"/>
      <path id="Path_2947" data-name="Path 2947" d="M8297.264,5991.255H8288.8a16.854,16.854,0,0,1-.739,2.46h8.341v13.443h-16.8v-13.443h6.821a13.722,13.722,0,0,0,.68-2.46h-8.422v-1.481h18.584Zm-13.3,3.9h-2.74v10.562h2.74Zm6.481,0h-4.921v2.48h4.921Zm0,3.861h-4.921v2.56h4.921Zm0,3.921h-4.921v2.78h4.921Zm4.361-7.782h-2.78v10.562h2.78Z" fill="#00532c"/>
      <path id="Path_2948" data-name="Path 2948" d="M8303.081,5994.115h1.881v1.5h-1.881v.48a12.51,12.51,0,0,0,2.74,4.061l-.92,1.46a16.438,16.438,0,0,1-1.82-3.281v9.242h-1.56v-8.561a14.483,14.483,0,0,1-2.3,4.521l-.841-1.721a16.691,16.691,0,0,0,3.061-6.2H8298.8v-1.5h2.722v-2.82c-1.121.2-1.861.24-2.461.3l-.261-1.46a21.3,21.3,0,0,0,6-1.081l.54,1.321a8,8,0,0,1-2.261.64Zm1.521,12.143a15.687,15.687,0,0,0,4.261-1.8l1.04,1.02a15.342,15.342,0,0,1-4.5,2.1Zm7.422-17.2v1.081h4.82v1.22h-4.82v1.12h4.24v1.08h-4.24v1.14h5.2v1.241H8305.4v-1.241h5.021v-1.14h-4.141v-1.08h4.141v-1.12h-4.682v-1.22h4.682v-1.081Zm4.16,15.343h-9.9v-7.5h9.9Zm-1.521-6.421h-6.841v1.1h6.841Zm0,2.061h-6.841v1.1h6.841Zm0,2.06h-6.841v1.12h6.841Zm-1.18,2.361a13.788,13.788,0,0,0,3.961,1.8l-.82,1.32a15.551,15.551,0,0,1-4.121-2.04Z" fill="#00532c"/>
      <path id="Path_2949" data-name="Path 2949" d="M8327.9,6004.778c2.061-.22,6.921-.8,6.921-6.522,0-1.58-.479-5.981-5.98-6.161-.181,2.321-.581,7.241-2.641,10.542-1.181,1.861-2.461,2.321-3.361,2.321-1.96,0-3.6-2.321-3.6-5.622,0-5.44,3.961-8.921,9.242-8.921,6.481,0,8.222,4.481,8.222,7.861a8.063,8.063,0,0,1-2.681,6.262,10.4,10.4,0,0,1-5.521,1.98Zm-4.141-11.323a7.208,7.208,0,0,0-2.781,5.921c0,1.361.5,3.661,1.921,3.661.84,0,1.44-.74,1.96-1.62,1.681-2.881,2-6.941,2.2-9.242A7.543,7.543,0,0,0,8323.762,5993.455Z" fill="#00532c"/>
      <path id="Path_2950" data-name="Path 2950" d="M8343.461,5999a4.358,4.358,0,0,0-.98,2.6,2.528,2.528,0,0,0,1.3,2.22c.98.56,2.021.761,4.441.761a59.7,59.7,0,0,0,7.261-.4l.08,1.88c-1.22.1-3.561.28-6.661.28-3.621,0-5.021-.36-6.222-1.04a4.054,4.054,0,0,1-2-3.6,5.991,5.991,0,0,1,1.32-3.6Zm10.862-6.282a18.121,18.121,0,0,0-6.621,2.481l-1.28-1.1a16.9,16.9,0,0,1,3.181-1.42c-.8,0-7.6.14-7.9.16v-1.82c3.58.02,11.062.02,12.622,0Z" fill="#00532c"/>
      <path id="Path_2951" data-name="Path 2951" d="M8374.823,5996.336c-1.62.18-12.422,1.4-12.422,5.841,0,2.321,2.44,2.541,6.741,2.541a55.379,55.379,0,0,0,6.3-.3l.04,1.881c-1.3.08-3.061.2-5.941.2-3.46,0-9,0-9-4.261,0-3.421,4.12-5.141,5.521-5.741-.66-1.3-.7-2.46-.76-6.722h1.96c-.02.54-.04,1.1-.04,2.081,0,2.121.1,3.181.521,4.041a46.591,46.591,0,0,1,6.9-1.48Z" fill="#00532c"/>
      <path id="Path_2952" data-name="Path 2952" d="M8396.224,5992.695c-.86-.06-1.48-.08-2.04-.08a5.614,5.614,0,0,0-2.021.24c-2.881.96-6.8,4.061-6.8,7.5,0,2.6,1.921,3.42,4.041,3.861a23.92,23.92,0,0,0,5.041.36l-.36,1.94c-3.94-.16-10.582-.44-10.582-6.041,0-3.8,3.5-6.421,5.861-7.8-.58.02-7.5.44-9.682.7l-.159-1.96c.979-.02,4.439-.18,5.46-.24,4.741-.26,6.621-.3,11.2-.321Zm-4.141,2.4a17.707,17.707,0,0,1,2.2,3.78l-1.4.881a17.02,17.02,0,0,0-2.1-3.861Zm2.961-1.281a17.393,17.393,0,0,1,2.2,3.781l-1.4.881a17.879,17.879,0,0,0-2.1-3.861Z" fill="#00532c"/>
      <path id="Path_2953" data-name="Path 2953" d="M8416.384,5991.9v1.66h-5.241v4.021a10.3,10.3,0,0,1,.261,1.32,9.918,9.918,0,0,1,.119,1.541c0,5.281-4.681,6.241-8.161,6.381l-.561-1.68c5.342.06,6.821-1.781,7.082-4.161a3.152,3.152,0,0,1-3.161,1.92,3.69,3.69,0,0,1-3.721-3.92,3.928,3.928,0,0,1,4.141-4.061,2.883,2.883,0,0,1,2.241.8l-.021-2.161H8399.5v-1.66h9.843l-.04-2.241h1.84v2.241Zm-6.961,6.341a2.064,2.064,0,0,0-2.241-1.82,2.361,2.361,0,0,0-2.5,2.48,2.374,2.374,0,1,0,4.741.221Z" fill="#00532c"/>
      <path id="Path_2954" data-name="Path 2954" d="M8425.4,6003.938a2.98,2.98,0,1,1-2.98-2.981A2.987,2.987,0,0,1,8425.4,6003.938Zm-4.961,0a1.971,1.971,0,1,0,1.98-1.981A1.967,1.967,0,0,0,8420.44,6003.938Z" fill="#00532c"/>
      <path id="Path_2955" data-name="Path 2955" d="M8437.2,5989.014h1.681v2.921h7.481v13.923a1.478,1.478,0,0,1-1.661,1.7h-3.4l-.26-1.68,3.1.02c.26,0,.56-.02.56-.52V5993.5h-5.721c.22,1.661.98,4.841,5.541,7.842l-1.1,1.4c-3.96-3.02-4.921-5.621-5.359-6.841a13.18,13.18,0,0,1-5.522,6.761l-1.02-1.44a10.2,10.2,0,0,0,5.54-7.722h-5.741v14.063h-1.68v-15.623h7.562Z" fill="#00532c"/>
      <path id="Path_2956" data-name="Path 2956" d="M8453.961,5989.594v16.564c0,1.08-.64,1.44-1.5,1.44h-1.34l-.261-1.66,1.341.02c.22,0,.38-.06.38-.36v-4.681h-1.7a22.835,22.835,0,0,1-1.181,6.621l-1.22-1a20.442,20.442,0,0,0,1.02-6.722v-10.222Zm-1.38,1.461h-1.7v3.481h1.7Zm0,4.861h-1.7v3.6h1.7Zm3.8-.46v5.021c0,1.68,0,4.7-1.2,7.061l-1.181-1.22c.8-1.6,1-3.261,1-5.9v-6.242h7.321v-.92h1.44c-.021.641-.021.721-.021.92h3.48v1.281h-3.46a45.427,45.427,0,0,0,.46,5.9,22.205,22.205,0,0,0,1.28-4.641l1.4.32a18.607,18.607,0,0,1-2.241,6.582c.12.46.541,2.06,1,2.06.42,0,.64-1.781.72-2.441l1.261.881c-.521,3.1-1.24,3.48-1.9,3.48-.681,0-1.521-1.02-2.061-2.58a12.641,12.641,0,0,1-2.881,2.62l-1.061-1.04a13.233,13.233,0,0,0,1.24-.88h-3.8v-8.982H8462v1.12h-1.36v1.42H8462v3.682h-1.36v1.56h1.48v.12a8.861,8.861,0,0,0,1.08-1.381,41.959,41.959,0,0,1-.84-7.8Zm1.182-5.021v-1.4h1.479v1.4h3.281v-1.4h1.44v1.4h3.46v1.38h-3.46v1h-1.44v-1h-3.281v1.08h-1.479v-1.08h-2.922v-1.38Zm2.019,7.421h-1.24v1.42h1.24Zm1.3,2.461h-2.541v1.58h2.541Zm-1.3,2.641h-1.24v1.56h1.24Zm5.9-8.863a11.15,11.15,0,0,0-1.16-1.38l1.221-.64a5.684,5.684,0,0,1,1.18,1.4Z" fill="#00532c"/>
      <path id="Path_2957" data-name="Path 2957" d="M8475.4,6005.738c0,1.26-.2,1.86-1.88,1.86h-1.82l-.32-1.68h1.84c.62,0,.7-.28.7-.78v-4.281h-2.86a19.853,19.853,0,0,1-1.34,6.721l-1.341-1.3a18.317,18.317,0,0,0,1.221-6.942v-9.722h5.8Zm-1.48-14.643h-2.78v3.441h2.78Zm0,4.861h-2.78v3.521h2.78Zm12.663-5.321a34.822,34.822,0,0,1-7.962,2.16v1.5c0,.48.12.681.82.681h5c.82,0,1.221-.121,1.3-2.581l1.66.52c-.32,3.441-1.221,3.6-2.741,3.6h-5.641c-.92,0-2-.14-2-1.661v-5.881h1.6v2.341a33.617,33.617,0,0,0,7.1-2.061Zm-.22,16.583h-9.143v-9.042h9.143Zm-1.541-7.581h-6.061v2.32h6.061Zm0,3.62h-6.061v2.541h6.061Z" fill="#00532c"/>
      <path id="Path_2958" data-name="Path 2958" d="M8495.361,5989.614v16.264c0,.62,0,1.7-1.46,1.7h-2.261l-.36-1.68,2.061.04c.341,0,.54-.08.54-.54v-4.521h-2.859c-.241,3.361-.6,4.881-1.581,6.741l-1.181-1.52a15.351,15.351,0,0,0,1.28-6.961v-9.523Zm-1.48,1.441h-2.82v3.481h2.82Zm0,4.881h-2.82v3.521h2.82Zm12.6.54a78.407,78.407,0,0,1-.48,9.022c-.16.84-.36,2.08-2.16,2.08h-2.621l-.34-1.64h2.4c.92,0,1.021-.52,1.141-1.2a50.719,50.719,0,0,0,.4-6.7h-4.561c-.38,6.321-2.48,8.562-3.421,9.582l-1.16-1.3a8.541,8.541,0,0,0,2.36-4.361,23.418,23.418,0,0,0,.58-5.081v-3.4h-2.6v-1.58h4.562v-2.861h1.7v2.861h4.961v1.58h-6.962v3Z" fill="#00532c"/>
      <path id="Path_2959" data-name="Path 2959" d="M8527.264,5991.255H8518.8a16.854,16.854,0,0,1-.739,2.46h8.341v13.443h-16.8v-13.443h6.821a13.722,13.722,0,0,0,.68-2.46h-8.422v-1.481h18.584Zm-13.3,3.9h-2.74v10.562h2.74Zm6.481,0h-4.921v2.48h4.921Zm0,3.861h-4.921v2.56h4.921Zm0,3.921h-4.921v2.78h4.921Zm4.361-7.782h-2.78v10.562h2.78Z" fill="#00532c"/>
      <path id="Path_2960" data-name="Path 2960" d="M8533.081,5994.115h1.881v1.5h-1.881v.48a12.51,12.51,0,0,0,2.74,4.061l-.92,1.46a16.438,16.438,0,0,1-1.82-3.281v9.242h-1.56v-8.561a14.483,14.483,0,0,1-2.3,4.521l-.841-1.721a16.691,16.691,0,0,0,3.061-6.2H8528.8v-1.5h2.722v-2.82c-1.121.2-1.861.24-2.461.3l-.261-1.46a21.3,21.3,0,0,0,6-1.081l.54,1.321a8,8,0,0,1-2.261.64Zm1.521,12.143a15.687,15.687,0,0,0,4.261-1.8l1.04,1.02a15.342,15.342,0,0,1-4.5,2.1Zm7.422-17.2v1.081h4.82v1.22h-4.82v1.12h4.24v1.08h-4.24v1.14h5.2v1.241H8535.4v-1.241h5.021v-1.14h-4.141v-1.08h4.141v-1.12h-4.682v-1.22h4.682v-1.081Zm4.16,15.343h-9.9v-7.5h9.9Zm-1.521-6.421h-6.841v1.1h6.841Zm0,2.061h-6.841v1.1h6.841Zm0,2.06h-6.841v1.12h6.841Zm-1.18,2.361a13.788,13.788,0,0,0,3.961,1.8l-.82,1.32a15.551,15.551,0,0,1-4.121-2.04Z" fill="#00532c"/>
      <path id="Path_2961" data-name="Path 2961" d="M8549.24,6005.658a35.418,35.418,0,0,0,3.521-10.482l-3.32.02v-1.7h3.6c.18-1.34.26-2.16.38-3.761l1.9.181c-.18,1.54-.26,2.26-.479,3.58h2.28c2.681,0,4.021.88,4.021,4.942,0,7.861-2.521,8.041-4.181,8.041a12.9,12.9,0,0,1-2.461-.28l-.1-1.781a11.658,11.658,0,0,0,2.24.321c1.221,0,1.922-.56,2.28-2.041a19.674,19.674,0,0,0,.5-4.441c0-1.76-.12-3.12-2.181-3.1l-2.681.02a44.785,44.785,0,0,1-3.641,11.362Zm14.443-4.661c-.2-2.381-.86-5.541-3.041-7.682l1.3-1c.819.82,2.98,3.021,3.7,8.4Zm-.34-11.442a17.119,17.119,0,0,1,2.4,3.56l-1.28.921a16.529,16.529,0,0,0-2.3-3.641Zm2.44-1.421a16.969,16.969,0,0,1,2.38,3.561l-1.28.9a16.6,16.6,0,0,0-2.3-3.621Z" fill="#00532c"/>
      <path id="Path_2962" data-name="Path 2962" d="M8570.782,5990.135h1.68V6005.9h-1.92v-13.663l-3.021,2.08-.261-1.78Z" fill="#00532c"/>
      <path id="Path_2963" data-name="Path 2963" d="M8578.741,5998.016c0-1.58,0-8.2,5.461-8.2s5.461,6.622,5.461,8.2,0,8.2-5.461,8.2S8578.741,5999.617,8578.741,5998.016Zm9.042,0c0-2.62-.4-6.481-3.581-6.481-3.141,0-3.581,3.761-3.581,6.481,0,2.821.48,6.482,3.581,6.482C8587.343,6004.5,8587.783,6000.717,8587.783,5998.016Z" fill="#00532c"/>
      <path id="Path_2964" data-name="Path 2964" d="M8591.941,5998.016c0-1.58,0-8.2,5.461-8.2s5.461,6.622,5.461,8.2,0,8.2-5.461,8.2S8591.941,5999.617,8591.941,5998.016Zm9.042,0c0-2.62-.4-6.481-3.581-6.481-3.141,0-3.581,3.761-3.581,6.481,0,2.821.48,6.482,3.581,6.482C8600.543,6004.5,8600.983,6000.717,8600.983,5998.016Z" fill="#00532c"/>
      <path id="Path_2965" data-name="Path 2965" d="M8611.263,6005.5a5.2,5.2,0,0,1-2.721.72c-3.541,0-4.861-3.26-4.861-6.221,0-3.521,1.841-6.2,4.762-6.2a4.232,4.232,0,0,1,2.78,1.04l-.4,1.641a3,3,0,0,0-2.259-1.02c-1.922,0-3.2,1.76-3.2,4.541,0,2.26.86,4.581,3.28,4.581a3.922,3.922,0,0,0,2.621-1.04Zm2.28-10.143c.22-.58.58-1.56,1.78-1.56,1.061,0,1.641.8,1.881,1.881a2.36,2.36,0,0,1,2.24-1.881c2.32,0,2.32,2.421,2.32,3.841v8.262H8620.2v-7.421c0-1.381,0-3.021-1.04-3.021-.5,0-1.48.48-1.48,3.28v7.162h-1.56v-7.441c0-1.121-.021-3-1.021-3-.721,0-1.48.84-1.48,2.9v7.542h-1.54v-11.783h1.46Zm8.842-2.98v.86h-4.021c1.36-1.28,2.761-2.62,2.761-3.441,0-.22-.141-.62-.761-.62a1.757,1.757,0,0,0-1.42.781l-.3-.9a2.3,2.3,0,0,1,1.74-.74,1.546,1.546,0,0,1,1.74,1.46c0,.421-.08,1-1.7,2.6Z" fill="#00532c"/>
      <path id="Path_2966" data-name="Path 2966" d="M8642.564,5991.675v1.6h-8.822a16.642,16.642,0,0,1-1.32,2.881,5.969,5.969,0,0,1,3.2-1.18,2.727,2.727,0,0,1,3.04,2.34c.46-.18,3.2-1.28,5-1.9l.48,1.74c-1.62.46-3.041.9-5.241,1.74.061.7.08,1.561.08,2.281,0,.28,0,.88-.06,1.52h-1.741c.04-.46.1-1.2.1-1.92,0-.34,0-.68-.04-1.2-1.54.72-3.961,2-3.961,3.64,0,1.761,2.221,1.761,4.421,1.761a49.364,49.364,0,0,0,5.281-.28l.06,1.72c-1.14.08-2.88.2-4.78.2-2.261,0-6.782,0-6.782-3.221,0-2.72,3.582-4.521,5.562-5.4-.22-1.18-.78-1.58-1.7-1.58a5.96,5.96,0,0,0-3.961,2.041c-.92,1.26-2.24,3.02-2.881,3.68l-1.24-1.34a17.341,17.341,0,0,0,4.642-7.522h-4.121v-1.6h4.6a14.441,14.441,0,0,0,.42-2.24l1.921.08a18.339,18.339,0,0,1-.5,2.16Z" fill="#00532c"/>
      <path id="Path_2967" data-name="Path 2967" d="M8664.965,6005.518l-.2,1.54h-8.922c-3.881,0-5.581-1.18-7.182-3.5a9.714,9.714,0,0,1-1.521,4.06l-1.08-1.32c.98-1.84,1.461-3.841,1.5-7.962h1.521a27.884,27.884,0,0,1-.14,3.141,11.8,11.8,0,0,0,1.3,1.961v-6.522H8646.4v-1.52h3.841v-2.481h-3.3v-1.5h3.3v-2.361h1.521v2.361h2.681v1.5h-2.681v2.481h3.1v1.52h-3.1v2.621h2.761v1.52h-2.761v3.641a10.459,10.459,0,0,0,4.581.82Zm-4.781-8.8-.22-1.54h1.68c.8,0,1.121,0,1.121-3.9h-2.881a7.66,7.66,0,0,1-3.781,5.881l-.96-1.36a5.92,5.92,0,0,0,3.241-4.521h-3.241v-1.421h9.182a26.5,26.5,0,0,1-.42,5.742c-.26.84-1.02,1.12-1.94,1.12Zm3.861,7.6H8655.7v-6.7h8.342Zm-1.581-5.34h-5.241v3.94h5.241Z" fill="#00532c"/>
      <path id="Path_2968" data-name="Path 2968" d="M8152.423,6032.956v1.54c-1.42,1.14-3.061,2.52-4.441,3.76a2.524,2.524,0,0,1,.88-.159c1.821,0,1.821,1.7,1.821,2.82v.82c0,1.66.24,2.121,2.94,2.121.981,0,2-.1,2.641-.16l.08,1.78c-.74.06-1.481.14-2.861.14-2.1,0-4.5,0-4.5-3.04v-1.321c0-.98,0-1.74-1.02-1.74a4.349,4.349,0,0,0-2.181.92c-.979.88-1.82,1.76-4.961,5.081l-1.28-1.38c.141-.12,3.281-3.1,3.841-3.621,4.221-4.021,5.041-4.721,6.481-5.921l-8.981.06v-1.68Zm.2-1.381a33.016,33.016,0,0,0-9.282-1.5l.221-1.56a36.506,36.506,0,0,1,9.441,1.38Z" fill="#00532c"/>
      <path id="Path_2969" data-name="Path 2969" d="M8176.224,6031.695c-.68-.06-1.26-.08-2.04-.08a5.556,5.556,0,0,0-2.021.24c-2.881.96-6.8,4.061-6.8,7.5,0,2.6,1.921,3.42,4.041,3.861a22.31,22.31,0,0,0,5.041.36l-.36,1.94c-3.94-.16-10.582-.44-10.582-6.041,0-3.8,3.5-6.421,5.861-7.8-.58.02-7.5.44-9.681.7l-.16-1.96c1.2-.04,4.4-.18,5.42-.24,4.482-.24,6.322-.28,11.243-.321Z" fill="#00532c"/>
      <path id="Path_2970" data-name="Path 2970" d="M8182.161,6029.875a39.221,39.221,0,0,0-.42,5.721c0,3.1.239,7.482,2.481,7.482.9,0,1.94-.821,3.32-4.421l1.48.84a12.685,12.685,0,0,1-2.7,4.661,3.125,3.125,0,0,1-2.241.96c-3.24,0-4.141-4.481-4.141-9.682,0-2.181.2-4.361.321-5.721Zm12.242,13.343c.04-.521.08-1.121.08-2.041,0-5.221-1.561-8.1-3.641-9.8l1.38-1.06c2.381,2,4.441,4.821,4.161,12.823Z" fill="#00532c"/>
      <path id="Path_2971" data-name="Path 2971" d="M8212.443,6030.775c-.44.32-1.061.82-1.561,1.22-2.561,2.061-2.841,2.281-4.161,3.321a10.667,10.667,0,0,1,3.581-.68c2.94,0,5.3,1.62,5.3,5.021,0,3.921-3.36,5.941-7.1,5.941-3.181,0-5.161-1.42-5.161-3.321,0-1.66,1.521-2.82,3.381-2.82a4.888,4.888,0,0,1,4.781,3.92,3.853,3.853,0,0,0,2.32-3.68c0-1.06-.32-3.561-4.161-3.561-3.54,0-6.141,1.981-8.882,4.581l-1.04-1.5c1.54-1.2,6.121-4.881,9.882-8.262-3.4.24-4.581.28-7.841.34v-1.72c4.24,0,5.881-.02,10.662-.3Zm-5.781,10.142c-1.221,0-1.74.78-1.74,1.32,0,.981,1.28,1.941,3.521,1.941A5.838,5.838,0,0,0,8210,6044C8209.563,6042.1,8208.4,6040.917,8206.662,6040.917Z" fill="#00532c"/>
      <path id="Path_2972" data-name="Path 2972" d="M8234.823,6035.336c-1.62.18-12.422,1.4-12.422,5.841,0,2.321,2.44,2.541,6.741,2.541a55.379,55.379,0,0,0,6.3-.3l.04,1.881c-1.3.08-3.061.2-5.941.2-3.46,0-9,0-9-4.261,0-3.421,4.12-5.141,5.521-5.741-.66-1.3-.7-2.46-.76-6.722h1.96c-.02.54-.04,1.1-.04,2.081,0,2.121.1,3.181.521,4.041a46.591,46.591,0,0,1,6.9-1.48Z" fill="#00532c"/>
      <path id="Path_2973" data-name="Path 2973" d="M8242.7,6045.958a29.114,29.114,0,0,0-3.321-4.141l1.521-1.12a31.512,31.512,0,0,1,3.561,4.021Z" fill="#00532c"/>
      <path id="Path_2974" data-name="Path 2974" d="M8248.58,6045.018a25.628,25.628,0,0,0,3.841-6.662l1.4,1a28.7,28.7,0,0,1-4.1,7.181Zm3.3-8.142a13,13,0,0,0-3.221-2.12l.84-1.421a13.43,13.43,0,0,1,3.3,2.061Zm1.061-5.281a16.243,16.243,0,0,0-3.341-2.22l.9-1.3a15.606,15.606,0,0,1,3.42,2.1Zm13.883,2.081H8261.3v4.241h4.821v1.56H8261.3v4.921h5.941v1.56h-14.1v-1.56h6.462v-4.921h-4.8v-1.56h4.8v-4.241h-5.481v-1.6h12.7Zm-5.241-2a14.051,14.051,0,0,0-4-2.4l.94-1.28a14.863,14.863,0,0,1,4.141,2.3Z" fill="#00532c"/>
      <path id="Path_2975" data-name="Path 2975" d="M8268.641,6045.218a7.379,7.379,0,0,0,2.26-3.5l1.48.34a9.542,9.542,0,0,1-2.561,4.361Zm18.583-11.423h-18.5v-1.34h4.8c-.24-1-.4-1.56-.5-1.84h-3.181v-1.321h7.281v-1.26h1.681v1.26h7.341v1.321h-3.04a15.861,15.861,0,0,1-.521,1.84h4.641Zm-2.08,7.082H8270.82v-6.041h14.323Zm-1.62-4.8h-11.1v1.2h11.1Zm0,2.32h-11.1v1.241h11.1Zm-8.462,3.741v2.321c0,.36.06.5.46.5h4.461c.54,0,.681-.06.94-1.88l1.561.42c-.36,2.38-.761,2.9-1.881,2.9h-5.5c-1.061,0-1.62-.38-1.62-1.36v-2.9Zm5.921-9.682a12.542,12.542,0,0,0,.48-1.84H8274.6a16.768,16.768,0,0,1,.52,1.84Zm-2.16,11.483a13.838,13.838,0,0,0-3.16-1.9l.819-1.1a13.858,13.858,0,0,1,3.161,1.7Zm7.142,2.4a21.045,21.045,0,0,0-3.041-4.1l1.24-.84a21.4,21.4,0,0,1,3.181,3.981Z" fill="#00532c"/>
      <path id="Path_2976" data-name="Path 2976" d="M8289.24,6044.658a35.418,35.418,0,0,0,3.521-10.482l-3.32.02v-1.7h3.6c.18-1.34.26-2.16.38-3.761l1.9.181c-.18,1.54-.26,2.26-.479,3.58h2.28c2.681,0,4.021.88,4.021,4.942,0,7.861-2.521,8.041-4.181,8.041a12.9,12.9,0,0,1-2.461-.28l-.1-1.781a11.658,11.658,0,0,0,2.24.321c1.221,0,1.922-.56,2.28-2.041a19.674,19.674,0,0,0,.5-4.441c0-1.76-.12-3.12-2.181-3.1l-2.681.02a44.785,44.785,0,0,1-3.641,11.362Zm14.443-4.661c-.2-2.381-.86-5.541-3.041-7.682l1.3-1c.819.82,2.98,3.021,3.7,8.4Zm-.34-11.442a17.119,17.119,0,0,1,2.4,3.56l-1.28.921a16.529,16.529,0,0,0-2.3-3.641Zm2.44-1.421a16.969,16.969,0,0,1,2.38,3.561l-1.28.9a16.6,16.6,0,0,0-2.3-3.621Z" fill="#00532c"/>
      <path id="Path_2977" data-name="Path 2977" d="M8325.3,6029.215a32.858,32.858,0,0,1-9.422,13.062v1.741c0,.42.06.56.58.56h3.8c.76,0,.9-.2,1.04-.5a15.789,15.789,0,0,0,.521-3.361l1.72.44a18.113,18.113,0,0,1-.9,4.241c-.181.3-.521.84-1.921.84H8315.7a1.378,1.378,0,0,1-1.5-1.4v-1.28a19.417,19.417,0,0,1-4.861,2.5l-.88-1.52a21.042,21.042,0,0,0,5.741-3.141v-8.7h1.681v7.322a27.973,27.973,0,0,0,7.821-11.542Zm-16.823,12.622a20.838,20.838,0,0,0,2.3-7.261l1.661.34a22.255,22.255,0,0,1-2.4,7.841Zm11.362-10.022a22.1,22.1,0,0,0-6.222-2.36l.78-1.54a31.619,31.619,0,0,1,6.3,2.26Zm5.641,11.823a32.359,32.359,0,0,0-2.16-9l1.641-.6a36.474,36.474,0,0,1,2.36,9.222Z" fill="#00532c"/>
      <path id="Path_2978" data-name="Path 2978" d="M8347.264,6038.617v1.48h-3.82a8.7,8.7,0,0,1-2.24,3.22c2.561.761,4.44,1.481,5.381,1.841l-1.181,1.44a36.513,36.513,0,0,0-5.681-2.16c-1.94,1.18-6.021,1.88-10,2.041l-.561-1.561a26.621,26.621,0,0,0,8.4-1.1,42.681,42.681,0,0,0-6.743-1.32,27.085,27.085,0,0,0,2.32-2.4h-4.4v-1.48h5.581a14.273,14.273,0,0,0,1.12-1.741h-5.621v-5.261h4.861v-1.54h-5.941v-1.421h18.523v1.421h-6.181v1.54h5.1v5.261h-8.861a19.71,19.71,0,0,1-1.1,1.741Zm-15.863-5.661v2.6h3.281v-2.6Zm3.721,7.141c-.76.94-.88,1.08-1.28,1.56,1.36.24,3.281.56,5.562,1.18a6.135,6.135,0,0,0,2.2-2.74Zm1.081-10.022v1.54h3.361v-1.54Zm0,2.881v2.6h3.361v-2.6Zm4.881,0v2.6h3.521v-2.6Z" fill="#00532c"/>
      <path id="Path_2979" data-name="Path 2979" d="M8366.224,6031.695c-.86-.06-1.48-.08-2.04-.08a5.614,5.614,0,0,0-2.021.24c-2.881.96-6.8,4.061-6.8,7.5,0,2.6,1.921,3.42,4.041,3.861a23.92,23.92,0,0,0,5.041.36l-.36,1.94c-3.94-.16-10.582-.44-10.582-6.041,0-3.8,3.5-6.421,5.861-7.8-.58.02-7.5.44-9.682.7l-.159-1.96c.979-.02,4.439-.18,5.46-.24,4.741-.26,6.621-.3,11.2-.321Zm-4.141,2.4a17.707,17.707,0,0,1,2.2,3.78l-1.4.881a17.02,17.02,0,0,0-2.1-3.861Zm2.961-1.281a17.393,17.393,0,0,1,2.2,3.781l-1.4.881a17.879,17.879,0,0,0-2.1-3.861Z" fill="#00532c"/>
      <path id="Path_2980" data-name="Path 2980" d="M8386.384,6030.9v1.66h-5.241v4.021a10.3,10.3,0,0,1,.261,1.32,9.918,9.918,0,0,1,.119,1.541c0,5.281-4.681,6.241-8.161,6.381l-.561-1.68c5.342.06,6.821-1.781,7.082-4.161a3.152,3.152,0,0,1-3.161,1.92,3.69,3.69,0,0,1-3.721-3.92,3.928,3.928,0,0,1,4.141-4.061,2.883,2.883,0,0,1,2.241.8l-.021-2.161H8369.5v-1.66h9.843l-.04-2.241h1.84v2.241Zm-6.961,6.341a2.064,2.064,0,0,0-2.241-1.82,2.361,2.361,0,0,0-2.5,2.48,2.374,2.374,0,1,0,4.741.221Z" fill="#00532c"/>
      <path id="Path_2981" data-name="Path 2981" d="M8395.4,6042.938a2.98,2.98,0,1,1-2.98-2.981A2.987,2.987,0,0,1,8395.4,6042.938Zm-4.961,0a1.971,1.971,0,1,0,1.98-1.981A1.967,1.967,0,0,0,8390.44,6042.938Z" fill="#00532c"/>
    </g>
  </g>
</svg>
