<svg xmlns="http://www.w3.org/2000/svg" width="750" height="97.796" viewBox="0 0 750 97.796">
  <g id="Group_1938" data-name="Group 1938" transform="translate(0 -3376.375)">
    <rect id="Rectangle_199" data-name="Rectangle 199" width="750" height="97.796" transform="translate(0 3376.375)" fill="#80bf00"/>
    <path id="Path_3693" data-name="Path 3693" d="M8292,8020.463a62.063,62.063,0,0,0-12.659-6.33v14.7h-3.63v-25.619h3.63v7.409a77.5,77.5,0,0,1,14.4,6.36Z" transform="translate(-8035 -4609.465)" fill="#fff"/>
    <path id="Path_3694" data-name="Path 3694" d="M8326.857,8014.313v3.51h-25.739v-3.51Z" transform="translate(-8035 -4609.465)" fill="#fff"/>
    <path id="Path_3695" data-name="Path 3695" d="M8335.559,8025.8c8.7-1.74,16.349-6.57,18.059-17.97H8343.6a24.95,24.95,0,0,1-7.71,7.98l-2.13-2.52a20.952,20.952,0,0,0,7.62-8.579h16.14c-1.261,15.6-10.05,21.989-20.579,24.238Z" transform="translate(-8035 -4609.465)" fill="#fff"/>
    <path id="Path_3696" data-name="Path 3696" d="M8392.587,8005.854h-12.659v2.669h6.54v15.66h-15.93v-15.66h6.51v-2.669h-12.779v-2.821h28.318Zm-24.059,2.1v18.69h19.859v-18.69h3.09v21.48h-25.919v-21.48Zm8.52,3.09h-3.66v3.9h3.66Zm0,6.36h-3.66v4.23h3.66Zm6.54-6.36h-3.66v3.9h3.66Zm0,6.36h-3.66v4.23h3.66Z" transform="translate(-8035 -4609.465)" fill="#fff"/>
    <path id="Path_3697" data-name="Path 3697" d="M8424.747,8005.884h-12.84a28.082,28.082,0,0,1-.869,3.09h12.389v20.4h-25.379v-20.4h9.84a16.124,16.124,0,0,0,.81-3.09h-12.149v-2.821h28.2Zm-20.279,5.789h-3.39v15.03h3.39Zm9.51,0h-6.63v3.09h6.63Zm0,5.64h-6.63v3.209h6.63Zm0,5.76h-6.63v3.63h6.63Zm6.45-11.4h-3.48v15.03h3.48Z" transform="translate(-8035 -4609.465)" fill="#fff"/>
    <path id="Path_3698" data-name="Path 3698" d="M8436.088,8004.023a61.248,61.248,0,0,0-1.29,13.68,52.35,52.35,0,0,0,.87,10.619l-3.57.271a60.526,60.526,0,0,1-.75-10.35,75.61,75.61,0,0,1,1.2-14.489Zm7.68,12.93a7.168,7.168,0,0,0-1.47,3.87c0,2.52,2.97,2.79,5.85,2.79a63.216,63.216,0,0,0,6.93-.36v3.479c-1.62.121-3.42.271-5.55.271-4.92,0-10.35-.481-10.35-5.79a9.875,9.875,0,0,1,1.56-5.13Zm10.71-10.92v3.3h-14.4v-3.3Z" transform="translate(-8035 -4609.465)" fill="#fff"/>
    <path id="Path_3699" data-name="Path 3699" d="M8487.9,8030.093a18.283,18.283,0,0,1-10.56-8.28c-1.021,2.339-3.03,5.73-9.9,8.459l-1.921-2.729c6.36-2.311,7.95-4.5,8.88-6.54h-7.739a17.556,17.556,0,0,1-3.6,9.359l-2.49-2.34c3-3.419,3.12-8.129,3.12-9.659v-10.71h23.519v8.07h-8.55a18.253,18.253,0,0,1-.3,2.67h10.77V8021H8480.1a16.164,16.164,0,0,0,9.479,6.18Zm-26.52-27h27.749v2.729h-27.749Zm5.4,6.989v3.181h17.369v-3.181Zm0,5.64v2.67h8.489a14,14,0,0,0,.271-2.67Z" transform="translate(-8035 -4609.465)" fill="#fff"/>
    <path id="Path_3700" data-name="Path 3700" d="M8503.138,8024.933c3.15,0,11.52-.15,11.52-6.69,0-3.059-2.189-4.769-5.189-4.769-3.21,0-10.02,1.649-12.12,2.159l-.539-3.3c1.2-.18,6.419-1.109,7.469-1.26a35.349,35.349,0,0,1,5.34-.54c5.58,0,8.311,3.63,8.311,7.74a8.734,8.734,0,0,1-6.54,8.549,30.647,30.647,0,0,1-7.38,1.021Z" transform="translate(-8035 -4609.465)" fill="#fff"/>
    <path id="Path_3701" data-name="Path 3701" d="M8552.157,8008.1c-1.14-.061-2.07-.121-2.88-.121a9.787,9.787,0,0,0-3.18.361c-4.26,1.319-9.84,5.939-9.84,10.829,0,3.75,2.97,4.74,5.88,5.28a37.8,37.8,0,0,0,7.439.449l-.6,3.6c-6.06-.181-16.2-.511-16.2-9.12,0-5.76,5.4-9.57,8.039-11.19-3.18.21-10.859.75-13.649,1.08l-.24-3.629c1.92,0,10.41-.51,12.12-.6,4.59-.21,8.039-.271,13.05-.36Z" transform="translate(-8035 -4609.465)" fill="#fff"/>
    <path id="Path_3702" data-name="Path 3702" d="M8185.979,8038.693v20.549h8.639v3.24h-12.21v-23.789Z" transform="translate(-8035 -4609.465)" fill="#fff"/>
    <path id="Path_3703" data-name="Path 3703" d="M8203.8,8038.693v23.789h-3.689v-23.789Z" transform="translate(-8035 -4609.465)" fill="#fff"/>
    <path id="Path_3704" data-name="Path 3704" d="M8215.258,8038.693l12.539,19.32v-19.32h3.57v23.789h-4.62l-12.539-19.319v19.319h-3.54v-23.789Z" transform="translate(-8035 -4609.465)" fill="#fff"/>
    <path id="Path_3705" data-name="Path 3705" d="M8251.617,8048.563v3.209h-10.229v7.47H8253v3.24h-15.179v-23.789h14.759v3.241h-11.189v6.629Z" transform="translate(-8035 -4609.465)" fill="#fff"/>
    <path id="Path_3706" data-name="Path 3706" d="M8258.608,8059.9c2.88-2.849,4.109-6.659,4.47-10.739l3.149.36c-.359,3.27-1.14,8.58-4.949,12.78Zm20.159-16.589a3.814,3.814,0,0,1-.931-2.58,4.14,4.14,0,0,1,8.28,0,4.094,4.094,0,0,1-3,3.96v1.77h-10.109v17.369h-3.42v-17.369h-10.17v-3.15h10.17v-4.859h3.42v4.859Zm.779,5.82a21.774,21.774,0,0,0,4.5,11.01l-2.76,2.1c-2.729-3.3-3.84-6.479-4.83-12.719Zm.21-8.4a2.22,2.22,0,1,0,4.44,0,2.22,2.22,0,0,0-4.44,0Z" transform="translate(-8035 -4609.465)" fill="#fff"/>
    <path id="Path_3707" data-name="Path 3707" d="M8307,8063.772h-3.569v-13.29a48.533,48.533,0,0,1-11.13,5.431l-1.649-3.06a44.768,44.768,0,0,0,21.449-14.79l3.06,2.071a53,53,0,0,1-8.16,7.8Z" transform="translate(-8035 -4609.465)" fill="#fff"/>
    <path id="Path_3708" data-name="Path 3708" d="M8333.277,8047.363a37.041,37.041,0,0,0-9.3-4.41l1.62-2.939a37.788,37.788,0,0,1,9.479,4.229Zm-8.669,12.119c11.909-.87,17.938-6.479,21.389-17.968l2.939,2.1c-1.619,4.83-6.06,18.15-23.639,19.56Z" transform="translate(-8035 -4609.465)" fill="#fff"/>
    <path id="Path_3709" data-name="Path 3709" d="M8378.337,8055.463a62.063,62.063,0,0,0-12.659-6.33v14.7h-3.63v-25.618h3.63v7.409a77.574,77.574,0,0,1,14.4,6.359Z" transform="translate(-8035 -4609.465)" fill="#fff"/>
    <path id="Path_3710" data-name="Path 3710" d="M8410.737,8040.913v2.91h-12.93a22.2,22.2,0,0,1-1.74,3.781c1.771-1.021,2.851-1.561,4.38-1.561,2.491,0,3.991.96,4.68,3.27,1.38-.54,4.83-1.89,7.23-2.64l.779,3.18a73.238,73.238,0,0,0-7.56,2.339,30.337,30.337,0,0,1,.15,3.241,21.673,21.673,0,0,1-.09,2.19h-3.21a22.741,22.741,0,0,0,.09-4.17c-3.15,1.47-5.13,3-5.13,4.77,0,2.4,2.939,2.4,6.239,2.4a70.578,70.578,0,0,0,7.771-.42l.09,3.21c-2.07.12-4.59.24-6.93.24-3.57,0-10.56,0-10.56-5.04,0-4.2,5.609-6.929,8.129-8.039a2.161,2.161,0,0,0-2.369-1.86,8.372,8.372,0,0,0-5.4,2.67c-.12.12-3.63,4.769-4.439,5.58l-2.28-2.4a25.947,25.947,0,0,0,6.78-10.74h-5.85v-2.91h6.72a24.062,24.062,0,0,0,.6-3.18l3.54.151c-.21,1.139-.36,1.74-.69,3.029Z" transform="translate(-8035 -4609.465)" fill="#fff"/>
    <path id="Path_3711" data-name="Path 3711" d="M8426.188,8051.923a5.842,5.842,0,0,0-1.44,3.66c0,3.239,3.479,4.05,8.159,4.05a77.174,77.174,0,0,0,10.02-.57l.091,3.479c-1.381.12-4.561.36-9.03.36-5.25,0-7.38-.389-9.42-1.5a6,6,0,0,1-3.209-5.489,8.969,8.969,0,0,1,2.039-5.55Zm12.659-8.4a21.351,21.351,0,0,0-7.26,3.69l-2.58-1.83a18.723,18.723,0,0,1,3.689-2.01c-1.35.03-5.579.061-7.89.15-.75.031-1.29.06-1.979.09l.029-3.33h15.99Zm1.619-6.509a24.968,24.968,0,0,1,2.91,5.729l-2.13,1.141a24.674,24.674,0,0,0-2.76-5.821Zm4.41-1.17a24.931,24.931,0,0,1,2.91,5.729l-2.13,1.17a24.355,24.355,0,0,0-2.76-5.849Z" transform="translate(-8035 -4609.465)" fill="#fff"/>
    <path id="Path_3712" data-name="Path 3712" d="M8463.657,8041.9v3.3h-2.85v-5.97h6.479c.24-.87.36-1.349.57-2.429l3.18.479c-.18.66-.21.78-.57,1.95h7.98v5.97h-2.79v-3.3h-6.09a42.319,42.319,0,0,1-2.01,4.5h2.31a32.137,32.137,0,0,0,1.65-3.78l2.88.631a16.361,16.361,0,0,1-1.53,3.149h5.58v2.52h-5.58v2.58h4.56v2.4h-4.56v2.611h4.56v2.4h-4.56v3h6.029v2.61h-15.989v-11.879c-.239.21-.39.36-.989.87l-1.71-2.25v12.779h-7.83v-9.9a10.015,10.015,0,0,1-1.08,1.62l-1.05-4.29a21.4,21.4,0,0,0,3.03-10.169h-2.55v-3.031h9.359v3.031h-3.9a32.138,32.138,0,0,1-1.051,5.55h5.07v4.049a20.6,20.6,0,0,0,6.239-9Zm-6.09,7.74h-2.52v11.519h2.52Zm8.49-.72a5.407,5.407,0,0,0-.33.48v2.1h4.439v-2.58Zm4.109,4.979h-4.439v2.611h4.439Zm0,5.01h-4.439v3h4.439Z" transform="translate(-8035 -4609.465)" fill="#fff"/>
    <path id="Path_3713" data-name="Path 3713" d="M8494.258,8042.2v2.731h-11.31V8042.2Zm-1.021-4.2v2.67h-9.359V8038Zm0,8.519v2.67h-9.359v-2.67Zm0,4.5v2.67h-9.359v-2.67Zm4.44,3.991a25.131,25.131,0,0,1-2.311,8.67l-2.13-1.38v2.309h-9.359v-9.149h9.359v5.939a16.551,16.551,0,0,0,1.681-6.6Zm-7.08,3.03h-4.05v3.989h4.05Zm2.97-8.85a11.41,11.41,0,0,0,4.89-4.11c-.96-.33-1.5-.51-3.239-1.02l1.02-2.309a29.3,29.3,0,0,1,3.3.869,13.933,13.933,0,0,0,.391-2.039h-4.71V8038h14.909c0,6.569-.21,9.809-.9,11.369a2.588,2.588,0,0,1-2.7,1.74h-2.97l-.45-2.94h2.76c1.17,0,1.53-.9,1.62-7.589h-4.53a16.928,16.928,0,0,1-.75,3.06,15.433,15.433,0,0,1,3.12,1.649l-1.29,2.49a21.918,21.918,0,0,0-2.97-1.62,14.811,14.811,0,0,1-5.609,5.52Zm7.8,5.82v6.33c0,.689.24.87.571.87h1.5c.778,0,.869-.75,1.079-3.061l2.7.84c-.33,3.33-.84,4.92-2.7,4.92h-3.54a2.155,2.155,0,0,1-2.43-2.16v-7.739Zm2.58.9a26.659,26.659,0,0,0-5.16-3.78l1.74-2.13a23.006,23.006,0,0,1,5.01,3.75Zm4.649,7.77a36.123,36.123,0,0,0-2.25-8.67l2.641-.72a30.723,30.723,0,0,1,2.46,8.489Z" transform="translate(-8035 -4609.465)" fill="#fff"/>
    <path id="Path_3714" data-name="Path 3714" d="M8536.2,8064.162c-4.259-3.63-7.859-5.819-13.59-9.329-2.46-1.53-3.72-2.311-3.72-3.811,0-1.379,1.08-2.309,3.33-4.049,6.9-5.31,8.67-6.869,10.979-9.329l3.63,1.98c-2.67,2.55-5.069,4.59-12.149,9.509-.72.51-1.71,1.2-1.71,1.68,0,.45,1.02.99,1.86,1.44,4.89,2.609,11.429,6.479,14.61,9.329Z" transform="translate(-8035 -4609.465)" fill="#fff"/>
    <path id="Path_3715" data-name="Path 3715" d="M8548.528,8062.933c2.58-5.46,4.38-13.68,4.949-17.82h-4.17v-3.149h4.59c.21-2.07.24-2.49.33-3.78l3.57.12c-.21,1.859-.3,2.429-.48,3.66h7.74v3.149h-8.189c-1.65,9.03-3.42,15.36-4.92,18.929Zm14.549-7.56a4.689,4.689,0,0,0-.96,2.489c0,2.191,2.88,2.431,6.51,2.431.96,0,3.66-.061,5.61-.24l.029,3.359c-1.89.03-3.779.061-5.669.061-4.17,0-5.88-.42-7.23-1.141a4.455,4.455,0,0,1-2.4-3.959,7.689,7.689,0,0,1,1.471-4.141Zm10.56-5.91c-.84-.03-1.739-.09-3.21-.09a21.849,21.849,0,0,0-7.979,1.26l-1.14-2.85c3-1.17,5.52-1.77,12.329-1.65Zm-4.859-12.06a27.793,27.793,0,0,1,2.76,5.821l-2.31,1.139a25.7,25.7,0,0,0-2.61-5.939Zm4.439-1.08a26.792,26.792,0,0,1,2.76,5.821l-2.31,1.139a24.208,24.208,0,0,0-2.64-5.939Z" transform="translate(-8035 -4609.465)" fill="#fff"/>
    <path id="Path_3716" data-name="Path 3716" d="M8599.707,8055.343a32.258,32.258,0,0,1-5.22-9.239c-1.229.029-3.569.059-3.72.059l-9.239.03v-3.24l9.39.151c1.17.03,1.89,0,2.55-.031a43.7,43.7,0,0,1-1.141-4.649l3.54-.271c.21,1.17.6,3.391,1.021,4.8a44.6,44.6,0,0,0,8.669-1.109l.632,3.239a46.23,46.23,0,0,1-8.221.93,24.915,24.915,0,0,0,4.68,7.469Zm-10.56-2.191c-.63.33-3,1.5-3,3.661,0,3.45,5.07,3.54,8.58,3.54a55.244,55.244,0,0,0,8.069-.481v3.33c-1.229.09-3.54.3-7.739.3-5.19,0-8.31-.569-10.47-2.52a5.553,5.553,0,0,1-1.77-4.109c0-2.7,1.829-4.71,4.59-6.06Z" transform="translate(-8035 -4609.465)" fill="#fff"/>
    <path id="Path_3717" data-name="Path 3717" d="M8617.857,8039.894a58.691,58.691,0,0,0-.72,8.909c0,3.9.271,10.32,3.3,10.32a2.819,2.819,0,0,0,2.159-1.471,19.755,19.755,0,0,0,2.37-4.859l2.729,1.62a18.928,18.928,0,0,1-4.02,7.05,4.8,4.8,0,0,1-3.45,1.47c-5.31,0-6.42-7.77-6.42-14.49,0-2.94.271-6.179.511-8.88Zm17.279,20.188c.061-5.31.181-13.259-5.31-17.759l2.64-1.889c4.74,4.2,6.33,8.489,6.33,19.5Z" transform="translate(-8035 -4609.465)" fill="#fff"/>
  </g>
</svg>
