<svg xmlns="http://www.w3.org/2000/svg" width="750" height="249.943" viewBox="0 0 750 249.943">
  <g id="Group_1061" data-name="Group 1061" transform="translate(-8035 -7610.368)">
    <rect id="Rectangle_219" data-name="Rectangle 219" width="750" height="180" transform="translate(8035 7680.311)" fill="#fff"/>
    <rect id="Rectangle_220" data-name="Rectangle 220" width="750" height="70" transform="translate(8035 7610.368)" fill="#00532c"/>
    <g id="Group_1046" data-name="Group 1046">
      <path id="Path_3344" data-name="Path 3344" d="M8184.565,7646.438h9.541v3.089h-9.569c-.6,8.969-6.6,11.459-12.63,12.809l-1.469-3c8.669-1.709,10.409-4.649,10.739-9.809H8169.3v-3.089h11.939v-4.231a77.28,77.28,0,0,1-10.139.66l-.63-3.029c6.959-.031,13.979-.841,19.739-2.851l1.709,3.031a66.636,66.636,0,0,1-7.35,1.709Z" fill="#fff"/>
      <path id="Path_3345" data-name="Path 3345" d="M8219.186,7657.986h8.79v2.94h-20.52v-2.94h8.61v-11.1h-7.5v-2.97h18.209v2.97h-7.59Z" fill="#fff"/>
      <path id="Path_3346" data-name="Path 3346" d="M8245.946,7652.347a27.338,27.338,0,0,0-2.4-7.38l2.761-.75a32.942,32.942,0,0,1,2.579,7.439Zm-.24,7.71c9.72-2.071,13.409-6.12,15.18-16.68l3.27.721c-1.89,9.058-4.92,15.718-16.35,18.508Zm6.84-9.119a34.1,34.1,0,0,0-2.01-7.26l2.7-.6a33.214,33.214,0,0,1,2.189,7.2Z" fill="#fff"/>
      <path id="Path_3347" data-name="Path 3347" d="M8279.007,7659.366c8.7-1.739,16.349-6.569,18.059-17.97h-10.02a24.953,24.953,0,0,1-7.71,7.981l-2.13-2.52a20.949,20.949,0,0,0,7.62-8.58h16.14c-1.261,15.6-10.05,21.99-20.579,24.239Z" fill="#fff"/>
      <path id="Path_3348" data-name="Path 3348" d="M8338.436,7636.928v25.949h-25.589v-25.949Zm-22.5,2.91v19.918h19.439v-19.918Zm16.619,3.119v13.529h-13.829v-13.529Zm-10.89,2.731v8.069h7.92v-8.069Z" fill="#fff"/>
      <path id="Path_3349" data-name="Path 3349" d="M8375.7,7639.987v3.09h-1.229c-.061,1.739-.271,8.43-3.12,13.14a17.92,17.92,0,0,0,5.01,4.59l-1.95,2.789a20.037,20.037,0,0,1-5.04-4.68,22.8,22.8,0,0,1-5.76,4.53l-2.189-2.819-1.26,2.01c-.811-.45-1.65-.93-3.39-1.8a24.468,24.468,0,0,1-7.68,3.15l-1.351-2.7a18.427,18.427,0,0,0,6.06-1.769,33.109,33.109,0,0,0-4.829-1.59,16.552,16.552,0,0,0,2.189-3.84h-3.42v-2.61h4.41c.33-.991.479-1.53.66-2.1l1.319.269v-4.708a18.268,18.268,0,0,1-5.01,4.409l-1.979-2.22a19.406,19.406,0,0,0,5.43-4.17h-4.83v-2.369h2.22a19.768,19.768,0,0,0-1.439-3.9l2.64-.9a21.72,21.72,0,0,1,1.38,4.17l-2.069.631h3.659v-5.01h2.79v5.01h3.63l-2.64-.75a33.82,33.82,0,0,0,1.74-4.26l2.789.69a31.785,31.785,0,0,1-1.859,4.32h1.89v2.369h-4.5a13.392,13.392,0,0,0,3.66,2.52l-1.86,2.28a12.439,12.439,0,0,1-2.85-2.611v4.531h-2.609l1.38.27c-.21.75-.3,1.02-.48,1.53h7.59v2.61h-1.53a16.079,16.079,0,0,1-2.34,4.649c.96.451,2.46,1.141,2.851,1.321l-.3.48a13.685,13.685,0,0,0,6.271-4.23,29.6,29.6,0,0,1-2.521-8.94,18.176,18.176,0,0,1-1.62,2.459l-2.34-2.219a28.536,28.536,0,0,0,4.5-12.21l3.06.541a31.877,31.877,0,0,1-.75,4.049Zm-21.479,14.1c-.479,1.14-.84,1.829-1.17,2.46,1.71.539,2.46.779,3.3,1.08a9,9,0,0,0,1.95-3.54Zm13.109-11.01c.091,1.23.54,6.54,2.25,10.23a26.943,26.943,0,0,0,1.92-10.23Z" fill="#fff"/>
      <path id="Path_3350" data-name="Path 3350" d="M8407.976,7647.156c-1.26.121-17.97,1.8-17.97,8.16,0,3.121,3.42,3.451,9.15,3.451a87.566,87.566,0,0,0,9.749-.48l.03,3.48c-1.8.12-4.35.3-8.67.3-5.159,0-13.77,0-13.77-6.629,0-5.041,5.88-7.65,7.95-8.58-1.08-1.89-1.11-3.81-1.2-9.99h3.63c-.03.96-.06,1.8-.06,3.3,0,3.12.149,4.38.72,5.55a68.689,68.689,0,0,1,10.05-2.13Z" fill="#fff"/>
      <path id="Path_3351" data-name="Path 3351" d="M8424.267,7637.258v20.549h8.64v3.24H8420.7v-23.789Z" fill="#fff"/>
      <path id="Path_3352" data-name="Path 3352" d="M8445.836,7637.258v23.789h-3.689v-23.789Z" fill="#fff"/>
      <path id="Path_3353" data-name="Path 3353" d="M8461.046,7637.258l12.539,19.318v-19.318h3.57v23.789h-4.62L8460,7641.727v19.32h-3.54v-23.789Z" fill="#fff"/>
      <path id="Path_3354" data-name="Path 3354" d="M8501.155,7647.127v3.21h-10.229v7.47h11.609v3.24h-15.179v-23.789h14.759v3.239h-11.189v6.63Z" fill="#fff"/>
      <path id="Path_3355" data-name="Path 3355" d="M8511.9,7658.467c2.88-2.85,4.109-6.66,4.47-10.74l3.149.36c-.359,3.27-1.14,8.579-4.949,12.779Zm20.159-16.59a3.816,3.816,0,0,1-.931-2.58,4.14,4.14,0,0,1,8.28,0,4.094,4.094,0,0,1-3,3.961v1.769H8526.3V7662.4h-3.42v-17.369h-10.17v-3.15h10.17v-4.859h3.42v4.859Zm.779,5.82a21.777,21.777,0,0,0,4.5,11.01l-2.76,2.1c-2.729-3.3-3.84-6.481-4.83-12.72Zm.21-8.4a2.22,2.22,0,1,0,4.44,0,2.22,2.22,0,0,0-4.44,0Z" fill="#fff"/>
      <path id="Path_3356" data-name="Path 3356" d="M8564.035,7662.336h-3.569v-13.289a48.521,48.521,0,0,1-11.13,5.43l-1.649-3.06a44.768,44.768,0,0,0,21.449-14.79l3.06,2.07a53,53,0,0,1-8.16,7.8Z" fill="#fff"/>
      <path id="Path_3357" data-name="Path 3357" d="M8594.065,7645.927a36.96,36.96,0,0,0-9.3-4.409l1.62-2.941a37.816,37.816,0,0,1,9.479,4.23Zm-8.669,12.12c11.909-.87,17.938-6.481,21.389-17.97l2.939,2.1c-1.619,4.829-6.06,18.148-23.639,19.558Z" fill="#fff"/>
      <path id="Path_3358" data-name="Path 3358" d="M8642.875,7654.027a62.035,62.035,0,0,0-12.659-6.33v14.7h-3.63v-25.619h3.63v7.411a77.375,77.375,0,0,1,14.4,6.359Z" fill="#fff"/>
    </g>
    <g id="Group_1060" data-name="Group 1060">
      <g id="Group_1047" data-name="Group 1047">
        <path id="Path_3359" data-name="Path 3359" d="M8393.7,7732.325h8.584v2.78h-8.611c-.54,8.071-5.938,10.311-11.363,11.526l-1.323-2.7c7.8-1.538,9.366-4.184,9.663-8.827h-10.688v-2.78h10.743v-3.805a69.7,69.7,0,0,1-9.124.593l-.566-2.726a56.3,56.3,0,0,0,17.761-2.565l1.539,2.727a60.317,60.317,0,0,1-6.613,1.539Z" fill="#00532c"/>
        <path id="Path_3360" data-name="Path 3360" d="M8421.487,7742.717h7.909v2.646h-18.463v-2.646h7.747v-9.987h-6.748v-2.672h16.384v2.672h-6.829Z" fill="#00532c"/>
        <path id="Path_3361" data-name="Path 3361" d="M8442.2,7737.643a24.582,24.582,0,0,0-2.159-6.641l2.483-.674a29.615,29.615,0,0,1,2.321,6.693Zm-.216,6.937c8.745-1.863,12.065-5.507,13.658-15.008l2.942.648c-1.7,8.151-4.427,14.143-14.711,16.655Zm6.154-8.206a30.734,30.734,0,0,0-1.809-6.532l2.43-.539a29.807,29.807,0,0,1,1.97,6.477Z" fill="#00532c"/>
        <path id="Path_3362" data-name="Path 3362" d="M8468.578,7743.959c7.828-1.565,14.711-5.911,16.25-16.168h-9.015a22.481,22.481,0,0,1-6.938,7.18l-1.916-2.268a18.851,18.851,0,0,0,6.856-7.72h14.521c-1.134,14.037-9.042,19.787-18.517,21.81Z" fill="#00532c"/>
        <path id="Path_3363" data-name="Path 3363" d="M8518.685,7723.769v23.348h-23.025v-23.348Zm-20.245,2.618v17.924h17.491v-17.924Zm14.954,2.806v12.174H8500.95v-12.174Zm-9.8,2.457v7.262h7.127v-7.262Z" fill="#00532c"/>
        <path id="Path_3364" data-name="Path 3364" d="M8548.843,7726.521v2.782h-1.106c-.054,1.564-.243,7.584-2.807,11.822a16.12,16.12,0,0,0,4.509,4.13l-1.756,2.511a18.08,18.08,0,0,1-4.535-4.211,20.528,20.528,0,0,1-5.183,4.075l-1.97-2.537-1.134,1.808c-.729-.4-1.485-.837-3.051-1.62a21.949,21.949,0,0,1-6.91,2.835l-1.215-2.429a16.612,16.612,0,0,0,5.453-1.593,29.833,29.833,0,0,0-4.346-1.43,14.892,14.892,0,0,0,1.97-3.455h-3.077v-2.35h3.969c.3-.89.432-1.376.594-1.888l1.188.242v-4.237a16.427,16.427,0,0,1-4.508,3.967l-1.781-2a17.449,17.449,0,0,0,4.886-3.753h-4.347v-2.131h2a17.86,17.86,0,0,0-1.3-3.509l2.375-.811a19.562,19.562,0,0,1,1.242,3.752l-1.862.568h3.293v-4.508h2.51v4.508h3.267l-2.375-.675a30.342,30.342,0,0,0,1.565-3.833l2.51.621a28.617,28.617,0,0,1-1.673,3.887h1.7v2.131h-4.049a12.005,12.005,0,0,0,3.293,2.268l-1.674,2.052a11.255,11.255,0,0,1-2.564-2.349v4.076H8529.6l1.241.243c-.188.675-.27.918-.432,1.376h6.829v2.35h-1.377a14.492,14.492,0,0,1-2.105,4.184c.864.4,2.214,1.025,2.564,1.187l-.27.432a12.308,12.308,0,0,0,5.642-3.806,26.666,26.666,0,0,1-2.268-8.044,16.463,16.463,0,0,1-1.458,2.213l-2.105-2a25.667,25.667,0,0,0,4.049-10.985l2.754.485a29.024,29.024,0,0,1-.675,3.643Zm-19.326,12.688c-.432,1.025-.756,1.646-1.053,2.213,1.538.486,2.213.7,2.969.972a8.132,8.132,0,0,0,1.756-3.185Zm11.8-9.906a30.15,30.15,0,0,0,2.023,9.2,24.25,24.25,0,0,0,1.728-9.2Z" fill="#00532c"/>
        <path id="Path_3365" data-name="Path 3365" d="M8559.514,7735.969a5.254,5.254,0,0,0-1.3,3.293c0,2.916,3.131,3.644,7.342,3.644a69.528,69.528,0,0,0,9.016-.512l.081,3.131c-1.241.108-4.1.324-8.125.324-4.724,0-6.64-.351-8.476-1.35a5.4,5.4,0,0,1-2.888-4.94,8.074,8.074,0,0,1,1.835-4.994Zm11.391-7.558a19.22,19.22,0,0,0-6.532,3.32l-2.321-1.646a16.814,16.814,0,0,1,3.32-1.809c-1.215.027-5.021.054-7.1.135-.675.027-1.16.054-1.781.081l.027-3H8570.9Zm1.458-5.857a22.528,22.528,0,0,1,2.618,5.155l-1.917,1.026a22.212,22.212,0,0,0-2.482-5.237Zm3.968-1.053a22.421,22.421,0,0,1,2.618,5.155l-1.916,1.053a22.008,22.008,0,0,0-2.483-5.264Z" fill="#00532c"/>
        <path id="Path_3366" data-name="Path 3366" d="M8603.546,7732.973c-1.134.108-16.169,1.62-16.169,7.341,0,2.809,3.077,3.106,8.233,3.106a78.579,78.579,0,0,0,8.772-.433l.027,3.132c-1.62.108-3.914.27-7.8.27-4.643,0-12.39,0-12.39-5.966,0-4.534,5.291-6.883,7.153-7.72-.972-1.7-1-3.428-1.08-8.988h3.267c-.027.863-.054,1.619-.054,2.969,0,2.807.135,3.941.647,4.994a61.625,61.625,0,0,1,9.043-1.917Z" fill="#00532c"/>
        <path id="Path_3367" data-name="Path 3367" d="M8617.1,7724.362a55.17,55.17,0,0,0-1.16,12.309,47.129,47.129,0,0,0,.783,9.556l-3.212.242a54.387,54.387,0,0,1-.675-9.313,68.089,68.089,0,0,1,1.079-13.037Zm6.911,11.634a6.457,6.457,0,0,0-1.322,3.483c0,2.267,2.672,2.509,5.264,2.509a56.712,56.712,0,0,0,6.234-.324v3.132c-1.457.108-3.077.243-4.993.243-4.426,0-9.312-.432-9.312-5.21a8.892,8.892,0,0,1,1.4-4.616Zm9.637-9.825v2.97h-12.957v-2.97Z" fill="#00532c"/>
        <path id="Path_3368" data-name="Path 3368" d="M8382.637,7756.065v18.491h7.774v2.915h-10.986v-21.406Z" fill="#00532c"/>
        <path id="Path_3369" data-name="Path 3369" d="M8398.675,7756.065v21.406h-3.319v-21.406Z" fill="#00532c"/>
        <path id="Path_3370" data-name="Path 3370" d="M8408.988,7756.065l11.283,17.384v-17.384h3.212v21.406h-4.156l-11.283-17.383v17.383h-3.186v-21.406Z" fill="#00532c"/>
        <path id="Path_3371" data-name="Path 3371" d="M8441.711,7764.946v2.888h-9.205v6.722h10.446v2.915h-13.658v-21.406h13.28v2.915h-10.068v5.966Z" fill="#00532c"/>
        <path id="Path_3372" data-name="Path 3372" d="M8448,7775.149c2.591-2.564,3.7-5.992,4.021-9.663l2.834.324c-.323,2.942-1.025,7.719-4.453,11.5Zm18.139-14.926a3.438,3.438,0,0,1-.837-2.323,3.725,3.725,0,0,1,7.45,0,3.684,3.684,0,0,1-2.7,3.564v1.593h-9.1v15.629h-3.077v-15.629h-9.15v-2.834h9.15v-4.373h3.077v4.373Zm.7,5.236a19.588,19.588,0,0,0,4.049,9.906l-2.483,1.89c-2.456-2.97-3.455-5.831-4.346-11.445Zm.188-7.559a2,2,0,1,0,4,0,2,2,0,0,0-4,0Z" fill="#00532c"/>
        <path id="Path_3373" data-name="Path 3373" d="M8491.552,7778.632h-3.212v-11.958a43.768,43.768,0,0,1-10.015,4.886l-1.484-2.754a40.28,40.28,0,0,0,19.3-13.308l2.754,1.863a47.687,47.687,0,0,1-7.343,7.018Z" fill="#00532c"/>
        <path id="Path_3374" data-name="Path 3374" d="M8515.206,7763.866a33.3,33.3,0,0,0-8.368-3.968l1.458-2.645a34.037,34.037,0,0,1,8.529,3.806Zm-7.8,10.9c10.716-.783,16.142-5.83,19.245-16.168l2.646,1.889c-1.457,4.346-5.452,16.331-21.271,17.6Z" fill="#00532c"/>
        <path id="Path_3375" data-name="Path 3375" d="M8555.756,7771.154a55.859,55.859,0,0,0-11.391-5.695v13.227H8541.1v-23.053h3.266v6.668a69.773,69.773,0,0,1,12.957,5.722Z" fill="#00532c"/>
        <path id="Path_3376" data-name="Path 3376" d="M8584.917,7758.063v2.619h-11.635a19.889,19.889,0,0,1-1.565,3.4,7.451,7.451,0,0,1,3.941-1.4c2.24,0,3.59.863,4.211,2.942,1.241-.486,4.346-1.7,6.5-2.375l.7,2.86a65.8,65.8,0,0,0-6.8,2.106,27.216,27.216,0,0,1,.136,2.915,19.464,19.464,0,0,1-.081,1.971h-2.889a20.526,20.526,0,0,0,.082-3.752c-2.835,1.323-4.616,2.7-4.616,4.292,0,2.159,2.645,2.159,5.614,2.159a63.487,63.487,0,0,0,6.991-.378l.081,2.889c-1.863.107-4.13.215-6.235.215-3.213,0-9.5,0-9.5-4.535,0-3.778,5.049-6.235,7.316-7.233a1.946,1.946,0,0,0-2.133-1.674,7.529,7.529,0,0,0-4.858,2.4c-.108.109-3.267,4.292-4,5.021l-2.052-2.159a23.348,23.348,0,0,0,6.1-9.663h-5.264v-2.619h6.047a21.792,21.792,0,0,0,.54-2.862l3.185.135c-.188,1.026-.324,1.566-.621,2.727Z" fill="#00532c"/>
        <path id="Path_3377" data-name="Path 3377" d="M8610.459,7760.627a10.423,10.423,0,0,0-6.451-2.078c-5.345,0-8.61,3.4-8.61,8.179,0,3.914,2.186,8.259,8.88,8.259a11.482,11.482,0,0,0,4.346-.783v-5.668h-5.56v-2.861h8.745v10.689a18.615,18.615,0,0,1-7.558,1.538c-8.368,0-12.066-5.587-12.066-11.174,0-6.533,4.939-11.1,11.823-11.1a14.677,14.677,0,0,1,7.531,2Z" fill="#00532c"/>
        <path id="Path_3378" data-name="Path 3378" d="M8629.874,7764.946v2.888h-9.205v6.722h10.446v2.915h-13.658v-21.406h13.28v2.915h-10.068v5.966Z" fill="#00532c"/>
        <path id="Path_3379" data-name="Path 3379" d="M8644.591,7777.471h-3.213V7758.98h-6.937v-2.915h17.086v2.915h-6.937Z" fill="#00532c"/>
        <path id="Path_3380" data-name="Path 3380" d="M8662.762,7755.931c-.243,5.721-.378,11.715-.378,13.2,0,3.293.243,6.478,4.886,6.478,6.694,0,7.558-4.939,8.26-8.746l2.834,1.188c-.972,5.021-2.969,10.446-11.04,10.446-7.342,0-8.071-4.7-8.071-9.475,0-2.078.136-11.255.162-13.118Z" fill="#00532c"/>
        <path id="Path_3381" data-name="Path 3381" d="M8707.578,7760.033c-1.026-.054-1.863-.107-2.592-.107a8.8,8.8,0,0,0-2.861.324c-3.833,1.188-8.854,5.344-8.854,9.744,0,3.374,2.672,4.265,5.292,4.75a33.963,33.963,0,0,0,6.692.4l-.539,3.24c-5.453-.162-14.576-.459-14.576-8.206,0-5.183,4.858-8.611,7.233-10.069-2.861.189-9.771.675-12.281.972l-.216-3.266c1.727,0,9.366-.459,10.905-.54,4.13-.188,7.233-.243,11.741-.324Z" fill="#00532c"/>
        <path id="Path_3382" data-name="Path 3382" d="M8400.614,7790.036v18.733H8381.18v-2.942h16.249v-12.876h-16.007v-2.915Z" fill="#00532c"/>
        <path id="Path_3383" data-name="Path 3383" d="M8417.844,7795.866a33.338,33.338,0,0,0-8.368-3.968l1.458-2.645a34.037,34.037,0,0,1,8.529,3.806Zm-7.8,10.9c10.716-.783,16.142-5.83,19.245-16.168l2.646,1.889c-1.457,4.346-5.452,16.331-21.271,17.6Z" fill="#00532c"/>
        <path id="Path_3384" data-name="Path 3384" d="M8453.994,7789.793l3.455,4c-.756,4.022-1.646,7.207-4.319,10.365a19.149,19.149,0,0,1-11.715,6.317l-1.4-2.835c10.662-1.781,13.416-7.908,14.36-14.9h-16.385v-2.942Zm8.854-.54a3.725,3.725,0,1,1-3.725-3.725A3.733,3.733,0,0,1,8462.848,7789.253Zm-5.723,0a2,2,0,1,0,2-2A1.994,1.994,0,0,0,8457.125,7789.253Z" fill="#00532c"/>
        <path id="Path_3385" data-name="Path 3385" d="M8472.924,7802.938h-3.131v-14.467h3.131Zm13.39-3.508c0,9.123-7.478,10.607-14.253,11.121l-1.025-2.916c7.126-.4,12.093-1.511,12.093-7.989v-11.608h3.186Z" fill="#00532c"/>
        <path id="Path_3386" data-name="Path 3386" d="M8518.792,7797.621v3.158h-23.16v-3.158Z" fill="#00532c"/>
        <path id="Path_3387" data-name="Path 3387" d="M8545.469,7803.154a55.859,55.859,0,0,0-11.391-5.695v13.227h-3.265v-23.052h3.265v6.667a69.773,69.773,0,0,1,12.957,5.722Z" fill="#00532c"/>
        <path id="Path_3388" data-name="Path 3388" d="M8560.647,7787.931c-.243,5.722-.378,11.715-.378,13.2,0,3.293.243,6.478,4.886,6.478,6.694,0,7.558-4.939,8.26-8.746l2.834,1.188c-.972,5.021-2.969,10.446-11.04,10.446-7.342,0-8.071-4.7-8.071-9.475,0-2.078.136-11.255.162-13.118Z" fill="#00532c"/>
        <path id="Path_3389" data-name="Path 3389" d="M8596.069,7800.806a25.906,25.906,0,0,1,9.609,5.615l-2.16,2.915a23.986,23.986,0,0,0-7.53-5.317v1.538c0,3.833-2.727,4.966-5.912,4.966-4.831,0-6.667-2.537-6.667-5.047,0-3.59,3.617-5.426,7.72-5.426a10.776,10.776,0,0,1,1.782.136l-.081-12.445h3.185v4.185l8.854-.028v3.024h-8.826Zm-3.1,2.214a9.766,9.766,0,0,0-2.24-.271c-2.024,0-4.319.811-4.319,2.754,0,1.16.945,2.268,3.429,2.268,1.269,0,3.131-.406,3.131-2.592Z" fill="#00532c"/>
        <path id="Path_3390" data-name="Path 3390" d="M8616.646,7808.013c5.235-.081,12.523-.458,12.523-6.883,0-4.1-2.888-4.184-4.4-4.184a102.033,102.033,0,0,0-10.394,1.4l-.432-3.24c1.35-.107,2.24-.188,4.67-.459a55.326,55.326,0,0,1,6.127-.512c2.511,0,7.666.027,7.666,6.829,0,9.366-9.744,9.771-14.873,9.961Zm12.956-15.98a45.278,45.278,0,0,0-12.66-1.862l.405-2.78a54.617,54.617,0,0,1,12.983,1.7Z" fill="#00532c"/>
        <path id="Path_3391" data-name="Path 3391" d="M8654.064,7788.065l-.4,15.386h-2.646l-.405-15.386Zm-3.455,17.951h3.429v3.455h-3.429Z" fill="#00532c"/>
      </g>
      <g id="Group_1059" data-name="Group 1059">
        <g id="Group_1048" data-name="Group 1048">
          <circle id="Ellipse_104" data-name="Ellipse 104" cx="42.986" cy="42.986" r="42.986" transform="translate(8107.834 7801.316) rotate(-76.717)" fill="#07b53b"/>
          <path id="Path_3392" data-name="Path 3392" d="M8164.767,7749.353l0,0h-17.056a1.8,1.8,0,0,0-1.8,1.8v39.422a1.8,1.8,0,0,0,1.8,1.8h6.645a1.8,1.8,0,0,0,1.8-1.8v-11.29c0-.431.184-.615.614-.615l7.794.025a14.671,14.671,0,0,0,.207-29.341Zm4.827,14.766c0,.094-.007.187-.014.281s-.015.212-.027.317-.026.183-.042.274-.036.2-.059.306-.043.177-.067.265-.057.2-.089.294-.059.17-.092.254-.076.188-.117.281-.075.162-.115.241-.094.179-.144.266-.089.153-.137.228-.111.167-.169.249-.1.143-.156.212-.128.157-.194.232-.114.132-.174.2-.143.143-.217.213-.125.12-.19.176-.158.13-.239.192-.134.107-.205.157-.172.114-.259.169-.143.093-.217.135c-.092.053-.187.1-.281.146-.075.038-.149.078-.226.112-.1.044-.2.082-.3.121-.077.029-.153.061-.231.087-.109.037-.222.065-.334.1-.074.02-.148.043-.224.06-.127.029-.258.048-.388.068-.064.01-.126.024-.191.032a5.866,5.866,0,0,1-.6.04c-.031,0-.06,0-.091,0v0h-7.039c-.43,0-.614-.184-.614-.615v-10.388c0-.429.184-.614.612-.614h7.041a5.8,5.8,0,0,1,5.573,4.234c.015.053.028.107.041.161.03.115.057.23.079.348.017.092.03.187.043.281s.025.185.033.279c0,.031.009.061.011.092,0,.066,0,.13,0,.2s.011.146.011.22C8169.6,7764.047,8169.6,7764.082,8169.594,7764.119Z" fill="#fff"/>
        </g>
        <g id="Group_1058" data-name="Group 1058">
          <g id="Group_1057" data-name="Group 1057">
            <g id="Group_1052" data-name="Group 1052">
              <g id="Group_1051" data-name="Group 1051">
                <g id="Group_1050" data-name="Group 1050">
                  <g id="Group_1049" data-name="Group 1049">
                    <path id="Path_3393" data-name="Path 3393" d="M8242.729,7798.3c-2.369-3.266-3.091-3.973-3.779-7.677a1.156,1.156,0,0,0-1.276-.923l-2.994.417a1.144,1.144,0,0,0-.969,1.3c.813,5.556,2.014,7.474,4.334,10.447a1.147,1.147,0,0,0,1.583.2l2.874-2.181A1.148,1.148,0,0,0,8242.729,7798.3Z" fill="#07b53b"/>
                    <path id="Path_3394" data-name="Path 3394" d="M8222.451,7790.155l-3.055-.322a1.135,1.135,0,0,0-1.243.98c-.426,3.146-1.547,4.715-3.627,7.067a1.14,1.14,0,0,0,.08,1.61l2.687,2.406a1.137,1.137,0,0,0,1.628-.109,18.059,18.059,0,0,0,4.543-10.374A1.139,1.139,0,0,0,8222.451,7790.155Z" fill="#07b53b"/>
                  </g>
                  <path id="Path_3395" data-name="Path 3395" d="M8216.7,7787.538h8.747v14.569a1.137,1.137,0,0,0,1.137,1.137h4.136a1.138,1.138,0,0,0,1.138-1.137v-14.569h8.951a1.139,1.139,0,0,0,1.139-1.137v-4.149a1.139,1.139,0,0,0-1.139-1.138h-8.951v-4.506a1.137,1.137,0,0,0-1.138-1.137h-4.136a1.137,1.137,0,0,0-1.137,1.137v4.506H8216.7a1.139,1.139,0,0,0-1.138,1.138v4.149A1.138,1.138,0,0,0,8216.7,7787.538Z" fill="#07b53b"/>
                </g>
              </g>
              <path id="Path_3396" data-name="Path 3396" d="M8239.973,7774.746a3.948,3.948,0,1,0,3.948,3.948A3.947,3.947,0,0,0,8239.973,7774.746Zm0,5.643a1.714,1.714,0,0,1,0-3.428,1.714,1.714,0,0,1,0,3.428Z" fill="#07b53b"/>
            </g>
            <path id="Path_3397" data-name="Path 3397" d="M8263.76,7802.107v-16.2a63.2,63.2,0,0,0,7.819-6.106,1.134,1.134,0,0,0,.013-1.666l-2.64-2.489a1.14,1.14,0,0,0-1.544-.014,54.435,54.435,0,0,1-20.494,11.822,1.137,1.137,0,0,0-.645,1.6l1.687,3.276a1.14,1.14,0,0,0,1.375.558,57.6,57.6,0,0,0,7.893-3.239v12.461a1.138,1.138,0,0,0,1.139,1.137h4.261A1.137,1.137,0,0,0,8263.76,7802.107Z" fill="#07b53b"/>
            <path id="Path_3398" data-name="Path 3398" d="M8325.377,7794.485a51.268,51.268,0,0,0-10.579-5.824v13.446a1.137,1.137,0,0,1-1.137,1.137h-4.241a1.138,1.138,0,0,1-1.138-1.137v-25.713a1.138,1.138,0,0,1,1.138-1.137h4.241a1.137,1.137,0,0,1,1.137,1.137v6.237a67.568,67.568,0,0,1,13.771,6.046,1.139,1.139,0,0,1,.453,1.51l-1.992,3.878A1.137,1.137,0,0,1,8325.377,7794.485Z" fill="#07a43b"/>
            <g id="Group_1055" data-name="Group 1055">
              <g id="Group_1054" data-name="Group 1054">
                <g id="Group_1053" data-name="Group 1053">
                  <path id="Rectangle_221" data-name="Rectangle 221" d="M1.142,0H5.26A1.143,1.143,0,0,1,6.4,1.143V26.712a1.142,1.142,0,0,1-1.142,1.142H1.143A1.143,1.143,0,0,1,0,26.71V1.142A1.142,1.142,0,0,1,1.142,0Z" transform="translate(8237.826 7735.471)" fill="#07b53b"/>
                  <path id="Path_3399" data-name="Path 3399" d="M8271.42,7735.471H8267.3a1.142,1.142,0,0,0-1.144,1.141V7751.8l-11.718-15.826a1.323,1.323,0,0,0-.091-.116l-.008-.008c-.021-.024-.044-.047-.066-.07l-.021-.019c-.02-.017-.04-.035-.061-.051l-.03-.023c-.019-.014-.039-.027-.059-.04l-.035-.021c-.021-.012-.041-.024-.062-.034l-.035-.018-.065-.028-.036-.013c-.023-.008-.045-.016-.068-.022l-.04-.01c-.021-.006-.044-.011-.066-.015l-.047-.007c-.021,0-.041-.006-.062-.007l-.06,0-.038,0h-4.116a1.142,1.142,0,0,0-1.144,1.141v25.571a1.143,1.143,0,0,0,1.144,1.142h4.116a1.143,1.143,0,0,0,1.144-1.142V7747l11.733,15.846a1.133,1.133,0,0,0,.289.282l.013.009c.023.015.046.029.07.043l.033.018.054.026.055.023.035.013c.026.009.051.018.078.025l.016,0a1.143,1.143,0,0,0,.293.04h4.116a1.144,1.144,0,0,0,1.144-1.142v-25.571A1.143,1.143,0,0,0,8271.42,7735.471Z" fill="#07b53b"/>
                  <path id="Path_3400" data-name="Path 3400" d="M8233.163,7756.921h-11.186v-20.309a1.142,1.142,0,0,0-1.143-1.141h-4.117a1.142,1.142,0,0,0-1.143,1.141v25.571a1.139,1.139,0,0,0,.318.79l.017.017.017.015a1.133,1.133,0,0,0,.789.32h16.447a1.142,1.142,0,0,0,1.141-1.144v-4.116A1.142,1.142,0,0,0,8233.163,7756.921Z" fill="#07b53b"/>
                  <path id="Path_3401" data-name="Path 3401" d="M8294.153,7735.471h-16.446a1.138,1.138,0,0,0-.793.322l-.014.012-.019.02a1.133,1.133,0,0,0-.316.787v25.571a1.131,1.131,0,0,0,.319.79l.016.017.017.015a1.133,1.133,0,0,0,.79.32h16.446a1.143,1.143,0,0,0,1.142-1.144v-4.116a1.143,1.143,0,0,0-1.142-1.144h-11.185V7752.6h11.185a1.142,1.142,0,0,0,1.142-1.143v-4.117a1.142,1.142,0,0,0-1.142-1.143h-11.185v-4.322h11.185a1.143,1.143,0,0,0,1.142-1.144v-4.116A1.142,1.142,0,0,0,8294.153,7735.471Z" fill="#07b53b"/>
                </g>
              </g>
            </g>
            <g id="Group_1056" data-name="Group 1056">
              <path id="Path_3402" data-name="Path 3402" d="M8303.55,7778.765l-3.215-2.192a1.428,1.428,0,0,0-1.324-.191,1.59,1.59,0,0,0-.961.971c-1.624,5.757-4.18,10.849-6.669,13.289-4.509,4.418-12.047,5.374-13.511,5.521a1.513,1.513,0,0,0-1.072.61,1.485,1.485,0,0,0-.242,1.2l.892,4.107a1.476,1.476,0,0,0,1.486,1.162,1.563,1.563,0,0,0,.244-.019c13.214-2.1,20.909-9.137,24.95-22.821A1.511,1.511,0,0,0,8303.55,7778.765Z" fill="#07b53b"/>
              <path id="Path_3403" data-name="Path 3403" d="M8277.085,7781.352a39.159,39.159,0,0,1,8.075,3.971,1.569,1.569,0,0,0,.832.235,1.517,1.517,0,0,0,.367-.044,1.462,1.462,0,0,0,.928-.711l1.967-3.383a1.523,1.523,0,0,0-.517-2.029,42.57,42.57,0,0,0-9.025-3.917,1.479,1.479,0,0,0-1.823.709l-1.6,3.065a1.458,1.458,0,0,0-.065,1.227A1.511,1.511,0,0,0,8277.085,7781.352Z" fill="#07b53b"/>
            </g>
          </g>
        </g>
      </g>
    </g>
  </g>
</svg>
