<svg xmlns="http://www.w3.org/2000/svg" xmlns:xlink="http://www.w3.org/1999/xlink" width="172.969" height="204.707" viewBox="0 0 172.969 204.707">
  <defs>
    <radialGradient id="radial-gradient" cx="0.5" cy="0.5" r="0.5" gradientTransform="matrix(-1, 0, 0, 1, 668.351, 0)" gradientUnits="objectBoundingBox">
      <stop offset="0" stop-color="#ff7b92"/>
      <stop offset="1" stop-color="#ffd8bb"/>
    </radialGradient>
    <radialGradient id="radial-gradient-2" cx="0.5" cy="0.5" r="0.5" gradientTransform="matrix(-1, 0, 0, 1, 680.122, 0)" xlink:href="#radial-gradient"/>
  </defs>
  <g id="Group_1178" data-name="Group 1178" transform="translate(-7626.759 -5438.245)">
    <g id="Group_1177" data-name="Group 1177">
      <g id="Group_1165" data-name="Group 1165">
        <path id="Path_3766" data-name="Path 3766" d="M7714.083,5594.255c-.33-.264-.22-1.136-.6-1.431-.344-.267-.48-.883-.865-1.152-.363-.254-.958-.007-1.357-.242.472-.269.545-.968.988-1.259s1.035-.368,1.459-.681,1.235-.173,1.644-.5.326-1.265.71-1.62.745-.737,1.109-1.114,1.309-.248,1.655-.642.253-1.19.574-1.6c.332-.426,1.023-.582,1.318-1.012s0-1.266.266-1.715c.278-.466.483-.938.728-1.4.256-.479.914-.73,1.128-1.2.224-.494.155-1.08.325-1.571.18-.518.674-.917.816-1.414.151-.531.123-1.086.222-1.59a13.78,13.78,0,0,0,.349-1.56c.039-.569-.457-1.15-.485-1.77-.025-.576.352-1.189.282-1.8-.066-.578-.2-1.161-.3-1.762-.09-.578-.663-1.055-.794-1.644s-.26-1.137-.411-1.719.3-1.306.142-1.883-.67-1.058-.821-1.633-.175-1.187-.338-1.754.015-1.264-.178-1.818c-.2-.574-.66-1.044-.88-1.584-.232-.567-.094-1.28-.326-1.807-.25-.569-1.115-.844-1.337-1.365-.251-.588-.666-1.066-.884-1.577-.263-.618.321-1.534.107-2-.354-.777-1.147-1.033-1.363-1.272-.182-.2-.459-.742-.9-1.413-.263-.4-.244-1.061-.564-1.593-.264-.438-1.13-.58-1.417-1.1-.257-.461-.295-1.08-.56-1.592-.247-.476-.384-1.031-.644-1.535-.249-.484-.964-.729-1.23-1.224s.037-1.277-.237-1.762-.238-1.138-.509-1.621-.649-.9-.906-1.387-.981-.757-1.221-1.248c-.249-.511-.776-.875-1.009-1.359-.25-.521.063-1.292-.181-1.759-.336-.642-.832-1.089-.932-1.561-.157-.742.035-1.322-.165-1.758a2.026,2.026,0,0,0-1.255-1.393,7.081,7.081,0,0,0-1.7-.266,8.328,8.328,0,0,0-1.657.348c-.422.063-.9.546-1.6.557s-1.225-.618-1.64-.6c-.593.018-1,.472-1.592.49-.413.012-.92-.47-1.623-.458s-1.206.193-1.62.207c-.6.021-1.007.251-1.6.272a13.838,13.838,0,0,1-1.613.352c-.705.012-1.212-.293-1.626-.279-.6.021-1,.423-1.6.443-.415.015-.929-.473-1.635-.461a7.477,7.477,0,0,1-1.584-.273c-.6-.077-1.075.322-1.663.319a6.035,6.035,0,0,0-1.667-.041c-.387.387-.648.958-1.029,1.385-.369.412-.534,1.012-.905,1.442s-1.435.231-1.809.651-.346,1.168-.723,1.581-1.053.546-1.423.965-.339,1.172-.69,1.607-.588.932-.911,1.387-1.243.483-1.56.943-.565.938-.894,1.387-.255,1.188-.6,1.623-.549.978-.889,1.418-.438,1.02-.746,1.483-.607.9-.893,1.381-.525.97-.8,1.451-1.139.621-1.423,1.1-.126,1.213-.4,1.693-1.3.544-1.566,1.029.25,1.4-.008,1.888-.312,1.064-.549,1.564-1.32.613-1.545,1.118-.041,1.2-.267,1.7-.138,1.164-.368,1.667-.943.793-1.161,1.3-.387,1.046-.575,1.564-.178,1.117-.354,1.64-.67.955-.83,1.482-.1,1.133-.24,1.664-.142,1.107-.252,1.646-.29,1.075-.378,1.617-.392,1.068-.468,1.611-.2,1.111-.243,1.657.611,1.134.6,1.682-.467,1.1-.457,1.647c.01.525.339,1.032.389,1.577.048.523-.6,1.16-.5,1.7.1.517.926.871,1.085,1.4.154.5.5.935.69,1.452.18.5-.15,1.2.077,1.694a15.282,15.282,0,0,0,.806,1.4c.27.455.8.742,1.115,1.192.305.435.431,1,.777,1.427s.816.7,1.19,1.1.314,1.2.715,1.577,1.141.335,1.564.683.758.764,1.2,1.085c.427.309.785.731,1.241,1.013s1.143.117,1.62.377c.456.248,1.048.8,1.538,1.047-.49.254-1.166.637-1.6.919-.463.3-1.131.292-1.535.6-.446.34-.352,1.32-.741,1.631a5.309,5.309,0,0,0-.954,1.21c-.279.416-1.238.483-1.553,1.039-.262.462-.207,1.147-.486,1.693-.247.481-.27,1.107-.536,1.643-.246.492-.8.854-1.048,1.388-.236.5-.638.95-.87,1.488-.222.512-.519,1.015-.72,1.561-.195.527-.335,1.087-.529,1.633s-.679.956-.884,1.5-.51,1.017-.717,1.551,0,1.228-.2,1.765.159,1.262-.022,1.8-.753.954-.92,1.5-.187,1.137-.344,1.682-.633,1.013-.785,1.556c-.156.559-.1,1.167-.235,1.714-.137.565-.852.993-.97,1.539-.123.572.31,1.249.2,1.793-.113.579,0,1.168-.082,1.709-.085.59-.561,1.107-.6,1.645a16.44,16.44,0,0,0,.285,1.711c0,.525-.629,1.036-.614,1.507.016.527.942.965.986,1.43.05.526-.137,1.015-.038,1.469a10.892,10.892,0,0,0,.384,1.418,6.823,6.823,0,0,0,.677,1.279c.268.438.114,1.215.466,1.551s1.178.1,1.611.372c.409.256.66.8,1.139,1.005.441.187,1.056-.116,1.557.032.457.135.8.763,1.306.872.467.1,1.053-.3,1.561-.2.473.091.81.943,1.315,1.048s1.014.154,1.517.251,1.062-.111,1.566-.034,1.058-.323,1.563-.275.977.585,1.483.584.983-.524,1.486-.568,1.071.429,1.569.35,1.033-.106,1.528-.224a10.806,10.806,0,0,0,1.374-.74,6.884,6.884,0,0,0,1.337-.683c.415-.28,1-.389,1.36-.769.341-.355.345-1.01.656-1.441.287-.4,1.082-.5,1.355-.953.25-.419.3-.995.533-1.473.211-.439.328-.952.513-1.449.171-.457.081-1.015.223-1.527a11.215,11.215,0,0,0,.745-1.56c.113-.485.5-.989.629-1.606.106-.515.274-1.072.383-1.667.1-.53-.482-1.2-.4-1.789.076-.54-.006-1.121.07-1.7.072-.547.451-1.069.533-1.644.079-.548.587-1.038.683-1.606.092-.551-.562-1.231-.475-1.8s.033-1.111.092-1.68.822-1.053.871-1.62.4-1.11.442-1.677-.106-1.149-.075-1.714-.32-1.155-.295-1.719.234-1.132.246-1.694-.688-1.135-.7-1.695c-.007-.575.075-1.132.052-1.692-.024-.576-.037-1.127-.081-1.681-.046-.578.853-1.243.783-1.79-.075-.583-.58-1.111-.7-1.662-.13-.581.008-1.24-.159-1.77-.183-.58-.776-1.008-.98-1.506.492.048,1.008.037,1.52.083.5.044.963.569,1.473.6s1.035-.4,1.545-.38,1-.13,1.514-.13c.615,0,1.22.552,1.8.538.608-.015,1.184-.577,1.771-.611s1.03.268,1.621.21a14.4,14.4,0,0,0-.518,1.459c-.1.545-.012,1.155-.086,1.747-.069.552.131,1.149.086,1.744-.043.567-.06,1.14-.069,1.735-.009.573.383,1.147.392,1.74.009.577-1.009,1.179-1,1.77s.894,1.144.9,1.732-.622,1.179-.6,1.765.855,1.113.9,1.7-.818,1.257-.741,1.836.7,1.083.788,1.658-.358,1.227-.288,1.8.674,1.1.751,1.671-.2,1.214-.115,1.781c.086.587.056,1.184.144,1.748.093.591.373,1.139.459,1.7.092.6.112,1.186.2,1.741.1.6.084,1.2.188,1.749.117.611.669,1.1.779,1.628.133.638-.213,1.317-.1,1.816a14.909,14.909,0,0,0,.64,1.648,15.227,15.227,0,0,0,.735,1.366,14.781,14.781,0,0,0,.785,1.3c.232.475.232,1.031.482,1.449.273.456.787.683,1.085,1.065.322.414.386,1,.741,1.331.374.356,1.06.228,1.473.507a12.757,12.757,0,0,0,1.155.939,9.6,9.6,0,0,0,1.432.356c.48.162.834.548,1.342.629s.962.722,1.478.726,1.01-.44,1.524-.478.977-.445,1.487-.494,1.116.78,1.621.71.947-.579,1.448-.668,1.03-.057,1.527-.161,1.036.069,1.512-.009c.512-.084.911-.715,1.382-.8.512-.092,1.03-.03,1.485-.164.5-.149,1.092-.036,1.54-.217.485-.2.79-.751,1.205-1,.443-.264.612-.785.969-1.126s1.282-.227,1.564-.671c.256-.4-.355-1.26-.163-1.759a9.185,9.185,0,0,0,.368-1.382c.1-.456.585-.84.625-1.374.036-.467.53-.95.538-1.479.008-.475-.659-.981-.659-1.506,0-.49.028-1-.023-1.566-.046-.5-.412-.967-.494-1.519-.075-.5.064-1.049-.04-1.591-.1-.505.095-1.082-.015-1.616-.1-.51.273-1.145.149-1.675-.118-.51-.94-.857-1.081-1.381-.137-.5.035-1.1-.109-1.622s-.191-1.05-.343-1.566-.065-1.1-.229-1.609-.639-.913-.813-1.418-.256-1.041-.436-1.543-.869-.821-1.049-1.322.038-1.149-.141-1.65-.125-1.093-.308-1.588-.488-.966-.682-1.455-.848-.8-1.075-1.278-.654-.87-.887-1.338c-.241-.488.036-1.214-.174-1.69-.22-.5-.588-.92-.8-1.39-.229-.5-.572-.926-.793-1.387-.241-.5-.3-1.065-.528-1.512-.26-.507-.184-1.154-.418-1.583-.286-.525-.5-1.052-.742-1.443C7715.437,5594.211,7714.364,5594.48,7714.083,5594.255Z" fill="#fff3d9"/>
        <path id="Path_3767" data-name="Path 3767" d="M7714.083,5594.255c-.33-.264-.22-1.136-.6-1.431-.344-.267-.48-.883-.865-1.152-.363-.254-.958-.007-1.357-.242.472-.269.545-.968.988-1.259s1.035-.368,1.459-.681,1.235-.173,1.644-.5.326-1.265.71-1.62.745-.737,1.109-1.114,1.309-.248,1.655-.642.253-1.19.574-1.6c.332-.426,1.023-.582,1.318-1.012s0-1.266.266-1.715c.278-.466.483-.938.728-1.4.256-.479.914-.73,1.128-1.2.224-.494.155-1.08.325-1.571.18-.518.674-.917.816-1.414.151-.531.123-1.086.222-1.59a13.78,13.78,0,0,0,.349-1.56c.039-.569-.457-1.15-.485-1.77-.025-.576.352-1.189.282-1.8-.066-.578-.2-1.161-.3-1.762-.09-.578-.663-1.055-.794-1.644s-.26-1.137-.411-1.719.3-1.306.142-1.883-.67-1.058-.821-1.633-.175-1.187-.338-1.754.015-1.264-.178-1.818c-.2-.574-.66-1.044-.88-1.584-.232-.567-.094-1.28-.326-1.807-.25-.569-1.115-.844-1.337-1.365-.251-.588-.666-1.066-.884-1.577-.263-.618.321-1.534.107-2-.354-.777-1.147-1.033-1.363-1.272-.182-.2-.459-.742-.9-1.413-.263-.4-.244-1.061-.564-1.593-.264-.438-1.13-.58-1.417-1.1-.257-.461-.295-1.08-.56-1.592-.247-.476-.384-1.031-.644-1.535-.249-.484-.964-.729-1.23-1.224s.037-1.277-.237-1.762-.238-1.138-.509-1.621-.649-.9-.906-1.387-.981-.757-1.221-1.248c-.249-.511-.776-.875-1.009-1.359-.25-.521.063-1.292-.181-1.759-.336-.642-.832-1.089-.932-1.561-.157-.742.035-1.322-.165-1.758a2.026,2.026,0,0,0-1.255-1.393,7.081,7.081,0,0,0-1.7-.266,8.328,8.328,0,0,0-1.657.348c-.422.063-.9.546-1.6.557s-1.225-.618-1.64-.6c-.593.018-1,.472-1.592.49-.413.012-.92-.47-1.623-.458s-1.206.193-1.62.207c-.6.021-1.007.251-1.6.272a13.838,13.838,0,0,1-1.613.352c-.705.012-1.212-.293-1.626-.279-.6.021-1,.423-1.6.443-.415.015-.929-.473-1.635-.461a7.477,7.477,0,0,1-1.584-.273c-.6-.077-1.075.322-1.663.319a6.035,6.035,0,0,0-1.667-.041c-.387.387-.648.958-1.029,1.385-.369.412-.534,1.012-.905,1.442s-1.435.231-1.809.651-.346,1.168-.723,1.581-1.053.546-1.423.965-.339,1.172-.69,1.607-.588.932-.911,1.387-1.243.483-1.56.943-.565.938-.894,1.387-.255,1.188-.6,1.623-.549.978-.889,1.418-.438,1.02-.746,1.483-.607.9-.893,1.381-.525.97-.8,1.451-1.139.621-1.423,1.1-.126,1.213-.4,1.693-1.3.544-1.566,1.029.25,1.4-.008,1.888-.312,1.064-.549,1.564-1.32.613-1.545,1.118-.041,1.2-.267,1.7-.138,1.164-.368,1.667-.943.793-1.161,1.3-.387,1.046-.575,1.564-.178,1.117-.354,1.64-.67.955-.83,1.482-.1,1.133-.24,1.664-.142,1.107-.252,1.646-.29,1.075-.378,1.617-.392,1.068-.468,1.611-.2,1.111-.243,1.657.611,1.134.6,1.682-.467,1.1-.457,1.647c.01.525.339,1.032.389,1.577.048.523-.6,1.16-.5,1.7.1.517.926.871,1.085,1.4.154.5.5.935.69,1.452.18.5-.15,1.2.077,1.694a15.282,15.282,0,0,0,.806,1.4c.27.455.8.742,1.115,1.192.305.435.431,1,.777,1.427s.816.7,1.19,1.1.314,1.2.715,1.577,1.141.335,1.564.683.758.764,1.2,1.085c.427.309.785.731,1.241,1.013s1.143.117,1.62.377c.456.248,1.048.8,1.538,1.047-.49.254-1.166.637-1.6.919-.463.3-1.131.292-1.535.6-.446.34-.352,1.32-.741,1.631a5.309,5.309,0,0,0-.954,1.21c-.279.416-1.238.483-1.553,1.039-.262.462-.207,1.147-.486,1.693-.247.481-.27,1.107-.536,1.643-.246.492-.8.854-1.048,1.388-.236.5-.638.95-.87,1.488-.222.512-.519,1.015-.72,1.561-.195.527-.335,1.087-.529,1.633s-.679.956-.884,1.5-.51,1.017-.717,1.551,0,1.228-.2,1.765.159,1.262-.022,1.8-.753.954-.92,1.5-.187,1.137-.344,1.682-.633,1.013-.785,1.556c-.156.559-.1,1.167-.235,1.714-.137.565-.852.993-.97,1.539-.123.572.31,1.249.2,1.793-.113.579,0,1.168-.082,1.709-.085.59-.561,1.107-.6,1.645a16.44,16.44,0,0,0,.285,1.711c0,.525-.629,1.036-.614,1.507.016.527.942.965.986,1.43.05.526-.137,1.015-.038,1.469a10.892,10.892,0,0,0,.384,1.418,6.823,6.823,0,0,0,.677,1.279c.268.438.114,1.215.466,1.551s1.178.1,1.611.372c.409.256.66.8,1.139,1.005.441.187,1.056-.116,1.557.032.457.135.8.763,1.306.872.467.1,1.053-.3,1.561-.2.473.091.81.943,1.315,1.048s1.014.154,1.517.251,1.062-.111,1.566-.034,1.058-.323,1.563-.275.977.585,1.483.584.983-.524,1.486-.568,1.071.429,1.569.35,1.033-.106,1.528-.224a10.806,10.806,0,0,0,1.374-.74,6.884,6.884,0,0,0,1.337-.683c.415-.28,1-.389,1.36-.769.341-.355.345-1.01.656-1.441.287-.4,1.082-.5,1.355-.953.25-.419.3-.995.533-1.473.211-.439.328-.952.513-1.449.171-.457.081-1.015.223-1.527a11.215,11.215,0,0,0,.745-1.56c.113-.485.5-.989.629-1.606.106-.515.274-1.072.383-1.667.1-.53-.482-1.2-.4-1.789.076-.54-.006-1.121.07-1.7.072-.547.451-1.069.533-1.644.079-.548.587-1.038.683-1.606.092-.551-.562-1.231-.475-1.8s.033-1.111.092-1.68.822-1.053.871-1.62.4-1.11.442-1.677-.106-1.149-.075-1.714-.32-1.155-.295-1.719.234-1.132.246-1.694-.688-1.135-.7-1.695c-.007-.575.075-1.132.052-1.692-.024-.576-.037-1.127-.081-1.681-.046-.578.853-1.243.783-1.79-.075-.583-.58-1.111-.7-1.662-.13-.581.008-1.24-.159-1.77-.183-.58-.776-1.008-.98-1.506.492.048,1.008.037,1.52.083.5.044.963.569,1.473.6s1.035-.4,1.545-.38,1-.13,1.514-.13c.615,0,1.22.552,1.8.538.608-.015,1.184-.577,1.771-.611s1.03.268,1.621.21a14.4,14.4,0,0,0-.518,1.459c-.1.545-.012,1.155-.086,1.747-.069.552.131,1.149.086,1.744-.043.567-.06,1.14-.069,1.735-.009.573.383,1.147.392,1.74.009.577-1.009,1.179-1,1.77s.894,1.144.9,1.732-.622,1.179-.6,1.765.855,1.113.9,1.7-.818,1.257-.741,1.836.7,1.083.788,1.658-.358,1.227-.288,1.8.674,1.1.751,1.671-.2,1.214-.115,1.781c.086.587.056,1.184.144,1.748.093.591.373,1.139.459,1.7.092.6.112,1.186.2,1.741.1.6.084,1.2.188,1.749.117.611.669,1.1.779,1.628.133.638-.213,1.317-.1,1.816a14.909,14.909,0,0,0,.64,1.648,15.227,15.227,0,0,0,.735,1.366,14.781,14.781,0,0,0,.785,1.3c.232.475.232,1.031.482,1.449.273.456.787.683,1.085,1.065.322.414.386,1,.741,1.331.374.356,1.06.228,1.473.507a12.757,12.757,0,0,0,1.155.939,9.6,9.6,0,0,0,1.432.356c.48.162.834.548,1.342.629s.962.722,1.478.726,1.01-.44,1.524-.478.977-.445,1.487-.494,1.116.78,1.621.71.947-.579,1.448-.668,1.03-.057,1.527-.161,1.036.069,1.512-.009c.512-.084.911-.715,1.382-.8.512-.092,1.03-.03,1.485-.164.5-.149,1.092-.036,1.54-.217.485-.2.79-.751,1.205-1,.443-.264.612-.785.969-1.126s1.282-.227,1.564-.671c.256-.4-.355-1.26-.163-1.759a9.185,9.185,0,0,0,.368-1.382c.1-.456.585-.84.625-1.374.036-.467.53-.95.538-1.479.008-.475-.659-.981-.659-1.506,0-.49.028-1-.023-1.566-.046-.5-.412-.967-.494-1.519-.075-.5.064-1.049-.04-1.591-.1-.505.095-1.082-.015-1.616-.1-.51.273-1.145.149-1.675-.118-.51-.94-.857-1.081-1.381-.137-.5.035-1.1-.109-1.622s-.191-1.05-.343-1.566-.065-1.1-.229-1.609-.639-.913-.813-1.418-.256-1.041-.436-1.543-.869-.821-1.049-1.322.038-1.149-.141-1.65-.125-1.093-.308-1.588-.488-.966-.682-1.455-.848-.8-1.075-1.278-.654-.87-.887-1.338c-.241-.488.036-1.214-.174-1.69-.22-.5-.588-.92-.8-1.39-.229-.5-.572-.926-.793-1.387-.241-.5-.3-1.065-.528-1.512-.26-.507-.184-1.154-.418-1.583-.286-.525-.5-1.052-.742-1.443C7715.437,5594.211,7714.364,5594.48,7714.083,5594.255Z" fill="none" stroke="#bda888" stroke-linecap="round" stroke-linejoin="round" stroke-width="1.664"/>
      </g>
      <g id="Group_1167" data-name="Group 1167">
        <g id="Group_1166" data-name="Group 1166">
          <path id="Path_3768" data-name="Path 3768" d="M7712.935,5542.981c.5.135.978.228,1.427.375.491.16.9.433,1.339.61.477.192,1.032.14,1.452.354.456.233.78.653,1.186.9.433.265.805.563,1.192.847.4.3,1,.34,1.361.66s.582.821.939,1.162.852.526,1.208.876.731.643,1.093.993.382,1.05.744,1.482c.328.392.891.622,1.219,1.063.311.419.626.853.934,1.3s.436.984.725,1.433.909.7,1.175,1.154.114,1.165.352,1.628c.253.49.777.829.987,1.3.231.516.242,1.089.407,1.556a12.254,12.254,0,0,1,.6,1.484c.092.515.1,1.1.2,1.692.1.541.088,1.125.19,1.7s.484,1.072.579,1.627c.1.576-.052,1.181.031,1.718.094.6.293,1.158.352,1.667a16.62,16.62,0,0,1,.225,1.695,3.717,3.717,0,0,0,.171,1.418,3.548,3.548,0,0,0,.606,1.353,1.534,1.534,0,0,0,1.359.248,1.835,1.835,0,0,0,1.261-.408c.405-.461.789-1.069,1.146-.464.279.474.521.9.7,1.28.239.51.109,1.077.281,1.441.221.468.625.655,1,.962a3.789,3.789,0,0,0,1.213.562c.376.128.686.755,1.233.878.589.133,1.185.248,1.754.341a17.3,17.3,0,0,0,1.805-.166,11.893,11.893,0,0,0,1.751-.007,9.969,9.969,0,0,0,1.753-.2,7.4,7.4,0,0,0,1.614-.7,7.032,7.032,0,0,0,1.566-.865c.331-.305.38-.89.676-1.272.278-.36.8-.562,1.048-.975.232-.4.257-.913.453-1.345a13.19,13.19,0,0,0,.629-1.251c.146-.441.021-.957.133-1.41s.618-.824.7-1.279-.269-.993-.211-1.449c.059-.475.225-.916.242-1.369.018-.484.32-.968.276-1.412a12.972,12.972,0,0,0-.267-1.8c-.134-.549-.408-1.111-.617-1.7-.192-.54-.575-1.035-.828-1.6-.235-.523-.29-1.171-.591-1.709-.282-.5-.684-.965-1.012-1.484-.31-.489-.694-.953-1.033-1.46-.322-.481-.852-.837-1.2-1.336-.333-.479-.39-1.173-.758-1.658-.354-.465-.683-.981-1.078-1.443-.312-.365-.672-.7-.994-1.07s-.581-.779-.9-1.146-1.012-.408-1.335-.773-.431-.919-.752-1.28-.6-.774-.933-1.128-.7-.69-1.032-1.037-.687-.7-1.015-1.047c-.346-.361-.747-.65-1.07-.992-.349-.37-.827-.59-1.149-.926-.357-.372-.445-.966-.763-1.288-.377-.382-.9-.542-1.217-.837-.441-.416-.583-1.034-.872-1.236-.273-.19-.945-.169-1.477-.587-.358-.281-.828-.526-1.278-.879-.381-.3-.565-.912-1-1.247-.392-.3-.731-.722-1.165-1.03-.411-.294-1-.36-1.432-.662s-.734-.747-1.157-1.05-.973-.425-1.392-.728-.683-.838-1.1-1.128-.881-.581-1.311-.846c-.455-.28-1.041-.307-1.478-.543-.48-.258-.867-.647-1.31-.846a12.3,12.3,0,0,0-1.494-.414c-.431-.138-.9-.358-1.439-.527-.455-.143-.877-.511-1.393-.674-.467-.148-1.021-.1-1.527-.261-.471-.153-.875-.559-1.371-.724-.476-.16-1.1.1-1.6-.068s-.956-.354-1.446-.514-1-.241-1.485-.4-.908-.527-1.392-.683-1.059-.074-1.539-.231c-.5-.161-.97-.386-1.444-.551-.5-.172-.968-.382-1.435-.545-.5-.177-.863-.72-1.324-.87-.641-.208-1.167-.148-1.527-.262-.638-.2-1.011-.16-1.5-.313-.349-.109-.707-.475-1.39-.7" fill="#fff3d9"/>
          <path id="Path_3769" data-name="Path 3769" d="M7712.935,5542.981c.5.135.978.228,1.427.375.491.16.9.433,1.339.61.477.192,1.032.14,1.452.354.456.233.78.653,1.186.9.433.265.805.563,1.192.847.4.3,1,.34,1.361.66s.582.821.939,1.162.852.526,1.208.876.731.643,1.093.993.382,1.05.744,1.482c.328.392.891.622,1.219,1.063.311.419.626.853.934,1.3s.436.984.725,1.433.909.7,1.175,1.154.114,1.165.352,1.628c.253.49.777.829.987,1.3.231.516.242,1.089.407,1.556a12.254,12.254,0,0,1,.6,1.484c.092.515.1,1.1.2,1.692.1.541.088,1.125.19,1.7s.484,1.072.579,1.627c.1.576-.052,1.181.031,1.718.094.6.293,1.158.352,1.667a16.62,16.62,0,0,1,.225,1.695,3.717,3.717,0,0,0,.171,1.418,3.548,3.548,0,0,0,.606,1.353,1.534,1.534,0,0,0,1.359.248,1.835,1.835,0,0,0,1.261-.408c.405-.461.789-1.069,1.146-.464.279.474.521.9.7,1.28.239.51.109,1.077.281,1.441.221.468.625.655,1,.962a3.789,3.789,0,0,0,1.213.562c.376.128.686.755,1.233.878.589.133,1.185.248,1.754.341a17.3,17.3,0,0,0,1.805-.166,11.893,11.893,0,0,0,1.751-.007,9.969,9.969,0,0,0,1.753-.2,7.4,7.4,0,0,0,1.614-.7,7.032,7.032,0,0,0,1.566-.865c.331-.305.38-.89.676-1.272.278-.36.8-.562,1.048-.975.232-.4.257-.913.453-1.345a13.19,13.19,0,0,0,.629-1.251c.146-.441.021-.957.133-1.41s.618-.824.7-1.279-.269-.993-.211-1.449c.059-.475.225-.916.242-1.369.018-.484.32-.968.276-1.412a12.972,12.972,0,0,0-.267-1.8c-.134-.549-.408-1.111-.617-1.7-.192-.54-.575-1.035-.828-1.6-.235-.523-.29-1.171-.591-1.709-.282-.5-.684-.965-1.012-1.484-.31-.489-.694-.953-1.033-1.46-.322-.481-.852-.837-1.2-1.336-.333-.479-.39-1.173-.758-1.658-.354-.465-.683-.981-1.078-1.443-.312-.365-.672-.7-.994-1.07s-.581-.779-.9-1.146-1.012-.408-1.335-.773-.431-.919-.752-1.28-.6-.774-.933-1.128-.7-.69-1.032-1.037-.687-.7-1.015-1.047c-.346-.361-.747-.65-1.07-.992-.349-.37-.827-.59-1.149-.926-.357-.372-.445-.966-.763-1.288-.377-.382-.9-.542-1.217-.837-.441-.416-.583-1.034-.872-1.236-.273-.19-.945-.169-1.477-.587-.358-.281-.828-.526-1.278-.879-.381-.3-.565-.912-1-1.247-.392-.3-.731-.722-1.165-1.03-.411-.294-1-.36-1.432-.662s-.734-.747-1.157-1.05-.973-.425-1.392-.728-.683-.838-1.1-1.128-.881-.581-1.311-.846c-.455-.28-1.041-.307-1.478-.543-.48-.258-.867-.647-1.31-.846a12.3,12.3,0,0,0-1.494-.414c-.431-.138-.9-.358-1.439-.527-.455-.143-.877-.511-1.393-.674-.467-.148-1.021-.1-1.527-.261-.471-.153-.875-.559-1.371-.724-.476-.16-1.1.1-1.6-.068s-.956-.354-1.446-.514-1-.241-1.485-.4-.908-.527-1.392-.683-1.059-.074-1.539-.231c-.5-.161-.97-.386-1.444-.551-.5-.172-.968-.382-1.435-.545-.5-.177-.863-.72-1.324-.87-.641-.208-1.167-.148-1.527-.262-.638-.2-1.011-.16-1.5-.313-.349-.109-.707-.475-1.39-.7" fill="none" stroke="#bda888" stroke-linecap="round" stroke-linejoin="round" stroke-width="1.664"/>
        </g>
      </g>
      <g id="Group_1169" data-name="Group 1169">
        <g id="Group_1168" data-name="Group 1168">
          <path id="Path_3770" data-name="Path 3770" d="M7670.42,5543.019c-.5.135-.966.251-1.413.4-.49.165-.9.415-1.338.6-.475.2-1.067.069-1.487.284-.456.233-.95.378-1.356.626-.433.264-.748.692-1.135.975-.4.3-.823.562-1.19.882s-.845.547-1.2.893-.435.949-.786,1.3-.816.56-1.178.91-.544.9-.919,1.323c-.342.382-.823.668-1.164,1.1-.323.409-.688.806-1,1.25s-.386,1.011-.662,1.469-.818.761-1.072,1.224-.549.931-.787,1.393c-.253.49-.19,1.116-.4,1.581-.233.515-.349,1.028-.515,1.494a9.55,9.55,0,0,0-.462,1.482c-.092.514-.325,1.056-.427,1.651-.092.541-.02,1.135-.117,1.707s-.64,1.047-.735,1.6c-.1.575-.073,1.161-.161,1.7-.1.6-.172,1.177-.237,1.684a6.494,6.494,0,0,0,.24,1.682,4.451,4.451,0,0,1-.227,1.552c-.177.495-.847.691-1.173,1a1.35,1.35,0,0,1-1.172.474c-.508-.051-1.092-.009-1.374-.318-.4-.441-.5-1.048-.862-.443-.28.476-.542.884-.719,1.263-.238.511-.126,1.073-.3,1.442-.219.473-.673.7-1.047,1.013-.3.25-.55.776-1.116.973-.376.132-.943-.11-1.5.014-.589.132-1.164.228-1.736.314a16.9,16.9,0,0,1-1.754.086,12.667,12.667,0,0,1-1.738-.032,8.924,8.924,0,0,1-1.708-.26,7.173,7.173,0,0,1-1.581-.673,7.056,7.056,0,0,1-1.45-.939,7.391,7.391,0,0,1-.956-.989,10.915,10.915,0,0,1-.74-1.17c-.226-.4-.377-.831-.572-1.263s-.351-.841-.506-1.284-.4-.841-.522-1.291-.035-.939-.12-1.394-.14-.91-.189-1.364c-.05-.474-.23-.916-.237-1.368a12.03,12.03,0,0,1,0-1.386,11.014,11.014,0,0,1,.008-1.82c.138-.545.526-1.063.739-1.648.194-.534.668-.976.921-1.541.234-.523.049-1.271.328-1.819.261-.514.851-.875,1.16-1.4.291-.5.487-1.078.827-1.586.322-.482.515-1.08.877-1.568.347-.468.825-.861,1.206-1.335.366-.456,1.034-.673,1.429-1.135.312-.365.566-.79.884-1.163s.579-.779.9-1.149.6-.766.919-1.134.539-.825.861-1.186.844-.554,1.17-.908.579-.8.908-1.151.5-.876.832-1.22c.345-.362.731-.665,1.054-1.007.349-.369.884-.534,1.207-.869.358-.371.67-.743.989-1.062.379-.38.779-.66,1.093-.952.444-.412.572-1.03.861-1.232a11.944,11.944,0,0,0,1.352-.754c.361-.276.708-.68,1.161-1.029.384-.3.934-.437,1.37-.772.392-.3.877-.522,1.3-.85.4-.311.646-.837,1.065-1.156s.746-.726,1.17-1.03.912-.506,1.342-.792.753-.756,1.185-1.029,1.076-.253,1.506-.517c.455-.28.761-.782,1.192-1.031.472-.273.982-.435,1.417-.651a12.582,12.582,0,0,1,1.376-.756c.431-.139,1.067.17,1.606,0,.457-.14.913-.4,1.43-.564.468-.146.871-.573,1.376-.737.472-.153,1.073.032,1.568-.135.476-.161.867-.6,1.36-.771s.919-.475,1.409-.635,1.067-.029,1.553-.191.955-.381,1.437-.541.983-.307,1.463-.463c.5-.162.952-.431,1.432-.58.5-.155.933-.5,1.406-.647.51-.157,1.056-.122,1.517-.272.641-.209,1.12-.293,1.478-.411.637-.209.9-.516,1.384-.678.347-.115.849-.037,1.532-.259" fill="#fff3d9"/>
          <path id="Path_3771" data-name="Path 3771" d="M7670.42,5543.019c-.5.135-.966.251-1.413.4-.49.165-.9.415-1.338.6-.475.2-1.067.069-1.487.284-.456.233-.95.378-1.356.626-.433.264-.748.692-1.135.975-.4.3-.823.562-1.19.882s-.845.547-1.2.893-.435.949-.786,1.3-.816.56-1.178.91-.544.9-.919,1.323c-.342.382-.823.668-1.164,1.1-.323.409-.688.806-1,1.25s-.386,1.011-.662,1.469-.818.761-1.072,1.224-.549.931-.787,1.393c-.253.49-.19,1.116-.4,1.581-.233.515-.349,1.028-.515,1.494a9.55,9.55,0,0,0-.462,1.482c-.092.514-.325,1.056-.427,1.651-.092.541-.02,1.135-.117,1.707s-.64,1.047-.735,1.6c-.1.575-.073,1.161-.161,1.7-.1.6-.172,1.177-.237,1.684a6.494,6.494,0,0,0,.24,1.682,4.451,4.451,0,0,1-.227,1.552c-.177.495-.847.691-1.173,1a1.35,1.35,0,0,1-1.172.474c-.508-.051-1.092-.009-1.374-.318-.4-.441-.5-1.048-.862-.443-.28.476-.542.884-.719,1.263-.238.511-.126,1.073-.3,1.442-.219.473-.673.7-1.047,1.013-.3.25-.55.776-1.116.973-.376.132-.943-.11-1.5.014-.589.132-1.164.228-1.736.314a16.9,16.9,0,0,1-1.754.086,12.667,12.667,0,0,1-1.738-.032,8.924,8.924,0,0,1-1.708-.26,7.173,7.173,0,0,1-1.581-.673,7.056,7.056,0,0,1-1.45-.939,7.391,7.391,0,0,1-.956-.989,10.915,10.915,0,0,1-.74-1.17c-.226-.4-.377-.831-.572-1.263s-.351-.841-.506-1.284-.4-.841-.522-1.291-.035-.939-.12-1.394-.14-.91-.189-1.364c-.05-.474-.23-.916-.237-1.368a12.03,12.03,0,0,1,0-1.386,11.014,11.014,0,0,1,.008-1.82c.138-.545.526-1.063.739-1.648.194-.534.668-.976.921-1.541.234-.523.049-1.271.328-1.819.261-.514.851-.875,1.16-1.4.291-.5.487-1.078.827-1.586.322-.482.515-1.08.877-1.568.347-.468.825-.861,1.206-1.335.366-.456,1.034-.673,1.429-1.135.312-.365.566-.79.884-1.163s.579-.779.9-1.149.6-.766.919-1.134.539-.825.861-1.186.844-.554,1.17-.908.579-.8.908-1.151.5-.876.832-1.22c.345-.362.731-.665,1.054-1.007.349-.369.884-.534,1.207-.869.358-.371.67-.743.989-1.062.379-.38.779-.66,1.093-.952.444-.412.572-1.03.861-1.232a11.944,11.944,0,0,0,1.352-.754c.361-.276.708-.68,1.161-1.029.384-.3.934-.437,1.37-.772.392-.3.877-.522,1.3-.85.4-.311.646-.837,1.065-1.156s.746-.726,1.17-1.03.912-.506,1.342-.792.753-.756,1.185-1.029,1.076-.253,1.506-.517c.455-.28.761-.782,1.192-1.031.472-.273.982-.435,1.417-.651a12.582,12.582,0,0,1,1.376-.756c.431-.139,1.067.17,1.606,0,.457-.14.913-.4,1.43-.564.468-.146.871-.573,1.376-.737.472-.153,1.073.032,1.568-.135.476-.161.867-.6,1.36-.771s.919-.475,1.409-.635,1.067-.029,1.553-.191.955-.381,1.437-.541.983-.307,1.463-.463c.5-.162.952-.431,1.432-.58.5-.155.933-.5,1.406-.647.51-.157,1.056-.122,1.517-.272.641-.209,1.12-.293,1.478-.411.637-.209.9-.516,1.384-.678.347-.115.849-.037,1.532-.259" fill="none" stroke="#bda888" stroke-linecap="round" stroke-linejoin="round" stroke-width="1.664"/>
        </g>
      </g>
      <g id="Group_1170" data-name="Group 1170">
        <path id="Path_3772" data-name="Path 3772" d="M7735.489,5504.046c-.2.6-.522,1.169-.75,1.751s-.581,1.134-.843,1.7-.681,1.072-.981,1.621-.355,1.258-.685,1.792-.872.946-1.233,1.459-.673,1.078-1.065,1.568-.892.9-1.329,1.354-.685,1.109-1.147,1.537-1.343.388-1.811.807-.783,1-1.265,1.4-1,.743-1.507,1.121-.79,1.061-1.315,1.409-1.189.472-1.721.81-1.191.448-1.737.762-.958.863-1.524,1.141-1.065.72-1.649.957-1.2.4-1.792.612-1.233.276-1.826.487-1.356-.093-1.951.112-1.081.693-1.683.877-1.171.445-1.784.594-1.182.481-1.8.59-1.21.415-1.833.505-1.368-.706-1.991-.615-1.2.436-1.82.521-1.251-.008-1.877.059-1.19.708-1.818.745-1.256.026-1.885.043-1.256-.562-1.885-.562-1.258.69-1.886.675-1.251-.182-1.878-.214-1.228-.39-1.855-.438-1.256.022-1.881-.043-1.19-.5-1.811-.592-1.245-.078-1.864-.181-1.377.6-2,.487-1.092-.966-1.708-1.087-1.33.242-1.943.1-1.175-.487-1.782-.647-1.238-.145-1.824-.307-1.1-.619-1.681-.8-1.308.011-1.876-.2-.94-.985-1.5-1.214-1.442.231-2-.019-.818-1.159-1.361-1.431-1.137-.464-1.665-.767-1.024-.671-1.539-1-.956-.775-1.462-1.111-1.184-.438-1.674-.8-.934-.8-1.407-1.178-1.123-.575-1.581-.975-1.07-.677-1.5-1.1-.765-.987-1.178-1.434-.71-1.016-1.108-1.477-.788-.945-1.159-1.427-.744-.976-1.093-1.476-.492-1.139-.821-1.654-.483-1.127-.79-1.653-.615-1.039-.9-1.581-.454-1.115-.706-1.673-.453-1.133-.7-1.694-1.324-.779-1.545-1.35.213-1.375.04-1.964-.68-1.091-.8-1.694-.359-1.188-.451-1.8.284-1.28.19-1.886-.351-1.18-.428-1.788-.263-1.2-.315-1.813.112-1.229.093-1.844-.13-1.217-.127-1.831-.352-1.236-.326-1.851.806-1.173.857-1.786,0-1.219.06-1.831-.531-1.3-.447-1.907.546-1.16.659-1.766.76-1.08.9-1.68-.6-1.4-.448-2,.511-1.135.681-1.726.67-1.051.86-1.619.571-1.061.784-1.621-.162-1.36.073-1.911.613-1.051.872-1.592,1.129-.768,1.41-1.3.557-1.04.86-1.558.06-1.364.39-1.864.951-.8,1.3-1.288.627-1.023.991-1.5.56-1.085.937-1.551,1.161-.582,1.558-1.032.751-.912,1.172-1.34.567-1.13,1.013-1.531.829-.881,1.292-1.264.795-.928,1.265-1.3,1.144-.491,1.629-.842.969-.708,1.469-1.041.952-.739,1.465-1.054,1.185-.347,1.706-.645.831-.982,1.364-1.26,1.092-.523,1.638-.776,1.24-.163,1.793-.4,1.024-.667,1.587-.88,1.173-.283,1.745-.473,1.277.106,1.855-.063,1.025-.753,1.609-.9,1.124-.454,1.714-.582,1.2-.107,1.789-.229,1.155-.346,1.749-.448,1.233.193,1.833.126,1.2.085,1.8.033,1.167-.328,1.77-.36,1.183-.415,1.787-.425,1.217-.179,1.82-.145,1.153.671,1.756.722,1.226-.354,1.829-.312,1.168.387,1.77.43,1.245-.471,1.846-.411,1.213.128,1.811.22,1.114.623,1.706.744,1.07.68,1.659.815,1.191.157,1.78.292,1.32-.356,1.9-.227,1.025.909,1.6,1.055,1.29-.137,1.856.045,1.224.176,1.787.373,1.166.368,1.721.583.9,1.014,1.441,1.251,1.119.438,1.649.713,1.261.211,1.779.5.968.74,1.485,1.035,1.126.475,1.636.783.922.81,1.419,1.138.817.924,1.3,1.28,1.387.2,1.845.58.679,1.071,1.119,1.473,1.149.548,1.577.964.583,1.132.994,1.565.721.97,1.112,1.421.494,1.133.862,1.6,1.322.513,1.668,1,.087,1.387.41,1.892.948.817,1.247,1.337.374,1.158.651,1.69.88.9,1.132,1.447.538,1.082.764,1.639-.164,1.343.043,1.908.779.99.961,1.564.224,1.177.376,1.759.933,1.019,1.056,1.609-.032,1.24.067,1.834-.433,1.275-.352,1.873.892,1.1.938,1.705.026,1.208.05,1.81-.027,1.2-.012,1.8.311,1.2.311,1.8-.742,1.188-.762,1.79.623,1.234.579,1.836-.46,1.167-.506,1.768.164,1.225.1,1.825-.172,1.2-.27,1.8-.406,1.149-.524,1.742-.137,1.2-.271,1.789-.051,1.227-.2,1.813-.971.984-1.133,1.566.141,1.289-.035,1.866S7735.679,5503.473,7735.489,5504.046Z" fill="#fff3d9"/>
        <path id="Path_3773" data-name="Path 3773" d="M7735.489,5504.046c-.2.6-.522,1.169-.75,1.751s-.581,1.134-.843,1.7-.681,1.072-.981,1.621-.355,1.258-.685,1.792-.872.946-1.233,1.459-.673,1.078-1.065,1.568-.892.9-1.329,1.354-.685,1.109-1.147,1.537-1.343.388-1.811.807-.783,1-1.265,1.4-1,.743-1.507,1.121-.79,1.061-1.315,1.409-1.189.472-1.721.81-1.191.448-1.737.762-.958.863-1.524,1.141-1.065.72-1.649.957-1.2.4-1.792.612-1.233.276-1.826.487-1.356-.093-1.951.112-1.081.693-1.683.877-1.171.445-1.784.594-1.182.481-1.8.59-1.21.415-1.833.505-1.368-.706-1.991-.615-1.2.436-1.82.521-1.251-.008-1.877.059-1.19.708-1.818.745-1.256.026-1.885.043-1.256-.562-1.885-.562-1.258.69-1.886.675-1.251-.182-1.878-.214-1.228-.39-1.855-.438-1.256.022-1.881-.043-1.19-.5-1.811-.592-1.245-.078-1.864-.181-1.377.6-2,.487-1.092-.966-1.708-1.087-1.33.242-1.943.1-1.175-.487-1.782-.647-1.238-.145-1.824-.307-1.1-.619-1.681-.8-1.308.011-1.876-.2-.94-.985-1.5-1.214-1.442.231-2-.019-.818-1.159-1.361-1.431-1.137-.464-1.665-.767-1.024-.671-1.539-1-.956-.775-1.462-1.111-1.184-.438-1.674-.8-.934-.8-1.407-1.178-1.123-.575-1.581-.975-1.07-.677-1.5-1.1-.765-.987-1.178-1.434-.71-1.016-1.108-1.477-.788-.945-1.159-1.427-.744-.976-1.093-1.476-.492-1.139-.821-1.654-.483-1.127-.79-1.653-.615-1.039-.9-1.581-.454-1.115-.706-1.673-.453-1.133-.7-1.694-1.324-.779-1.545-1.35.213-1.375.04-1.964-.68-1.091-.8-1.694-.359-1.188-.451-1.8.284-1.28.19-1.886-.351-1.18-.428-1.788-.263-1.2-.315-1.813.112-1.229.093-1.844-.13-1.217-.127-1.831-.352-1.236-.326-1.851.806-1.173.857-1.786,0-1.219.06-1.831-.531-1.3-.447-1.907.546-1.16.659-1.766.76-1.08.9-1.68-.6-1.4-.448-2,.511-1.135.681-1.726.67-1.051.86-1.619.571-1.061.784-1.621-.162-1.36.073-1.911.613-1.051.872-1.592,1.129-.768,1.41-1.3.557-1.04.86-1.558.06-1.364.39-1.864.951-.8,1.3-1.288.627-1.023.991-1.5.56-1.085.937-1.551,1.161-.582,1.558-1.032.751-.912,1.172-1.34.567-1.13,1.013-1.531.829-.881,1.292-1.264.795-.928,1.265-1.3,1.144-.491,1.629-.842.969-.708,1.469-1.041.952-.739,1.465-1.054,1.185-.347,1.706-.645.831-.982,1.364-1.26,1.092-.523,1.638-.776,1.24-.163,1.793-.4,1.024-.667,1.587-.88,1.173-.283,1.745-.473,1.277.106,1.855-.063,1.025-.753,1.609-.9,1.124-.454,1.714-.582,1.2-.107,1.789-.229,1.155-.346,1.749-.448,1.233.193,1.833.126,1.2.085,1.8.033,1.167-.328,1.77-.36,1.183-.415,1.787-.425,1.217-.179,1.82-.145,1.153.671,1.756.722,1.226-.354,1.829-.312,1.168.387,1.77.43,1.245-.471,1.846-.411,1.213.128,1.811.22,1.114.623,1.706.744,1.07.68,1.659.815,1.191.157,1.78.292,1.32-.356,1.9-.227,1.025.909,1.6,1.055,1.29-.137,1.856.045,1.224.176,1.787.373,1.166.368,1.721.583.9,1.014,1.441,1.251,1.119.438,1.649.713,1.261.211,1.779.5.968.74,1.485,1.035,1.126.475,1.636.783.922.81,1.419,1.138.817.924,1.3,1.28,1.387.2,1.845.58.679,1.071,1.119,1.473,1.149.548,1.577.964.583,1.132.994,1.565.721.97,1.112,1.421.494,1.133.862,1.6,1.322.513,1.668,1,.087,1.387.41,1.892.948.817,1.247,1.337.374,1.158.651,1.69.88.9,1.132,1.447.538,1.082.764,1.639-.164,1.343.043,1.908.779.99.961,1.564.224,1.177.376,1.759.933,1.019,1.056,1.609-.032,1.24.067,1.834-.433,1.275-.352,1.873.892,1.1.938,1.705.026,1.208.05,1.81-.027,1.2-.012,1.8.311,1.2.311,1.8-.742,1.188-.762,1.79.623,1.234.579,1.836-.46,1.167-.506,1.768.164,1.225.1,1.825-.172,1.2-.27,1.8-.406,1.149-.524,1.742-.137,1.2-.271,1.789-.051,1.227-.2,1.813-.971.984-1.133,1.566.141,1.289-.035,1.866S7735.679,5503.473,7735.489,5504.046Z" fill="none" stroke="#bda888" stroke-linecap="round" stroke-linejoin="round" stroke-width="1.82"/>
      </g>
      <g id="Group_1171" data-name="Group 1171">
        <ellipse id="Ellipse_114" data-name="Ellipse 114" cx="10.615" cy="10.311" rx="10.615" ry="10.311" transform="translate(7657.171 5477.756) rotate(-76.894)" fill="#fff" stroke="#cfb894" stroke-miterlimit="10" stroke-width="1.325"/>
        <ellipse id="Ellipse_115" data-name="Ellipse 115" cx="6.975" cy="7.279" rx="6.975" ry="7.279" transform="translate(7661.138 5474.898) rotate(-76.894)" fill="#333"/>
      </g>
      <g id="Group_1172" data-name="Group 1172">
        <path id="Path_3774" data-name="Path 3774" d="M7721.19,5473.472c-1.33,5.709-7.209,8.577-12.756,7.286a10.619,10.619,0,0,1,4.814-20.677C7718.794,5461.373,7722.519,5467.762,7721.19,5473.472Z" fill="#fff" stroke="#cfb894" stroke-miterlimit="10" stroke-width="1.325"/>
        <ellipse id="Ellipse_116" data-name="Ellipse 116" cx="6.975" cy="7.279" rx="6.975" ry="7.279" transform="translate(7702.366 5475.859) rotate(-76.894)" fill="#333"/>
      </g>
      <path id="Path_3775" data-name="Path 3775" d="M7673.484,5493.7s-.086-.955-.068-2.353a23.84,23.84,0,0,1,.56-5.01c.837-3.542,5.8-7.117,8.438-7.74a63.823,63.823,0,0,1,13.207-2.106c5-.065,7.535,2.4,7.535,2.4s-.664,5.452-2.542,8.125-7.715,6.28-12.4,7.665S7678.067,5495.4,7673.484,5493.7Z" fill="#00532c"/>
      <g id="Group_1173" data-name="Group 1173">
        <path id="Path_3776" data-name="Path 3776" d="M7675.389,5490.127s7.253-3.74,12.13-5.6,11.234-4.576,11.234-4.576" fill="none" stroke="#84b334" stroke-linecap="round" stroke-linejoin="round" stroke-width="1.216"/>
        <path id="Path_3777" data-name="Path 3777" d="M7699.157,5483.2l-4.48-1.418.557-2.747" fill="none" stroke="#84b334" stroke-linecap="round" stroke-linejoin="round" stroke-width="1.216"/>
        <path id="Path_3778" data-name="Path 3778" d="M7690.665,5479.713l-1.421,4.455,6.056,1.778" fill="none" stroke="#84b334" stroke-linecap="round" stroke-linejoin="round" stroke-width="1.216"/>
        <path id="Path_3779" data-name="Path 3779" d="M7685.355,5480.828l-1.366,5.456,5.539,2.538" fill="none" stroke="#84b334" stroke-linecap="round" stroke-linejoin="round" stroke-width="1.216"/>
        <path id="Path_3780" data-name="Path 3780" d="M7679.151,5482.962l-1.27,5.935,6.77,1.779" fill="none" stroke="#84b334" stroke-linecap="round" stroke-linejoin="round" stroke-width="1.216"/>
      </g>
      <g id="Group_1174" data-name="Group 1174">
        <path id="Path_3781" data-name="Path 3781" d="M7686.675,5508.881a29.43,29.43,0,0,1-.3-7.734,72.226,72.226,0,0,0-.069-8.593" fill="none" stroke="#00532c" stroke-linecap="round" stroke-linejoin="round" stroke-width="1.794"/>
      </g>
      <path id="Path_3782" data-name="Path 3782" d="M7695.266,5511.829" fill="#fff3d9" stroke="#000" stroke-linecap="round" stroke-linejoin="round" stroke-width="1.82"/>
      <g id="Group_1175" data-name="Group 1175">
        <path id="Path_3783" data-name="Path 3783" d="M7671.444,5505.892c-.4-6.067,3.18-8.465,5.962-7.8s3.725,2.314,7.642,2.573c5.59.368,7.295-1.607,10.68-2.534s7.124,1.164,7.1,6.765c-.011,2.432-1.486,4.694-3.828,6.456-3.056-1.372-8.139-3.35-12.317-3.5-6.438-.227-11.664,3.921-11.664,3.921l-.032.037A7.738,7.738,0,0,1,7671.444,5505.892Z" fill="#dd801e"/>
        <path id="Path_3784" data-name="Path 3784" d="M7686.683,5507.852c4.178.148,9.2.783,12.317,3.5a19.876,19.876,0,0,1-11.838,3.617c-4.776-.043-9.232-1.078-12.175-3.157l.032-.037S7680.245,5507.625,7686.683,5507.852Z" fill="#eb5a24"/>
      </g>
      <g id="Group_1176" data-name="Group 1176">
        <path id="Path_3785" data-name="Path 3785" d="M7740.958,5629.516s12.188,5.732,25.264,6.676,24.068.342,28.787-1.729l4.719-2.07s-2.237-4.295-12.493-6.829S7759.331,5616.881,7740.958,5629.516Z" fill="#00532c"/>
        <path id="Path_3786" data-name="Path 3786" d="M7751.814,5622.994s1.052-14.183,4.182-14.251a75.522,75.522,0,0,1,13.331.675c7.781,1.236,19.9,2.143,20.2,4.623.756,6.285,3.1,9,1.093,11.621S7751.814,5622.994,7751.814,5622.994Z" fill="#00532c"/>
        <path id="Path_3787" data-name="Path 3787" d="M7792.738,5626.977a62.99,62.99,0,0,1-42.327-2.772l1.831-5.114s11.234,4.045,21.74,4.727a58.873,58.873,0,0,0,17.912-1.68Z" fill="#fcee21"/>
        <path id="Path_3788" data-name="Path 3788" d="M7780.352,5625.95s-1.01-8.353,5.018-10.647,8.869-1.429,8.869-1.429S7793.6,5626.121,7780.352,5625.95Z" fill="#84b334"/>
      </g>
      <circle id="Ellipse_117" data-name="Ellipse 117" cx="10.412" cy="10.412" r="10.412" transform="translate(7706.904 5485.678)" fill="url(#radial-gradient)"/>
      <circle id="Ellipse_118" data-name="Ellipse 118" cx="10.412" cy="10.412" r="10.412" transform="translate(7645.623 5481.215)" fill="url(#radial-gradient-2)"/>
    </g>
  </g>
</svg>
