<svg xmlns="http://www.w3.org/2000/svg" width="119.262" height="111.705" viewBox="0 0 119.262 111.705">
  <g id="Group_1099" data-name="Group 1099" transform="translate(-8609.555 -7410.806)">
    <g id="Group_1093" data-name="Group 1093">
      <path id="Path_3567" data-name="Path 3567" d="M8706.91,7501.61c-.315.582-.258,1.374-.586,1.942s-1.171.83-1.533,1.376-.4,1.337-.807,1.849-.816,1.058-1.269,1.538-1.366.49-1.845.943-.787,1.079-1.283,1.512-.706,1.209-1.22,1.624-1.458.255-1.994.641-.582,1.5-1.144,1.851-1.473.09-2.063.386-.908,1.173-1.513,1.44-1.219.5-1.824.765-1.3.326-1.909.57-1.258.411-1.882.628-1.357.056-1.993.238-1.218.509-1.859.67-1.337.013-1.983.15-1.24.457-1.894.566-1.341-.195-2-.113-1.22.9-1.878.965-1.351-.448-2.011-.407-1.274.786-1.935.811-1.327-.222-1.988-.218-1.3-.571-1.962-.592-1.317.257-1.977.219-1.3-.119-1.963-.177-1.362.371-2.019.294-1.265-.488-1.915-.6-1.259-.4-1.906-.536-1.372.153-2.019.022-1.191-.717-1.834-.859-1.284-.258-1.923-.417-1.3-.2-1.937-.385-1.327-.152-1.957-.346-1.154-.7-1.779-.915-1.273-.333-1.892-.563-1.361-.117-1.979-.35-.936-1.215-1.547-1.463-1.487.137-2.087-.14-1.253-.432-1.812-.736-.795-1.219-1.344-1.542-.994-.856-1.542-1.178-1.595.164-2.146-.158-.91-1-1.448-1.344-.852-1.014-1.362-1.4-1.033-.755-1.53-1.159-1.078-.709-1.557-1.131-.941-.874-1.4-1.314-.73-1.056-1.157-1.532-.913-.893-1.317-1.387-1.082-.78-1.481-1.278-.462-1.265-.846-1.776-.977-.868-1.336-1.4-1.146-.8-1.474-1.353-.225-1.354-.51-1.927-1-.956-1.262-1.542.146-1.46-.1-2.052-.494-1.18-.73-1.777-1.067-.977-1.274-1.584-.122-1.319-.278-1.942-.277-1.257-.391-1.89.124-1.311.04-1.949-.837-1.193-.907-1.832.064-1.306.026-1.947-.051-1.288-.061-1.931-.038-1.288-.023-1.932-.107-1.3-.069-1.938.942-1.205,1.008-1.846-.351-1.322-.257-1.96.145-1.274.245-1.911.744-1.161.869-1.794-.106-1.32.059-1.945-.047-1.359.163-1.97.251-1.285.482-1.889.514-1.174.743-1.778,1.124-.934,1.368-1.53-.011-1.4.254-1.985.556-1.162.841-1.742c.277-.565.652-1.084.934-1.646s.567-1.131.872-1.68.855-.955,1.2-1.481.458-1.214.824-1.728.708-1.054,1.094-1.551.924-.882,1.332-1.361.961-.83,1.387-1.295.932-.843,1.376-1.29,1.042-.711,1.507-1.137.812-.958,1.3-1.364.8-1,1.3-1.385,1.185-.5,1.7-.87.836-1,1.365-1.342.82-1.079,1.362-1.4,1.521.121,2.075-.179.772-1.27,1.348-1.53,1.317-.137,1.9-.374,1.11-.615,1.7-.846,1.115-.647,1.713-.844,1.291-.092,1.9-.266,1.245-.2,1.856-.357,1.193-.39,1.8-.556,1.169-.521,1.785-.664,1.234-.329,1.861-.42,1.3.31,1.928.26,1.239-.219,1.872-.247,1.239-.492,1.872-.515,1.259.741,1.891.747,1.275-.825,1.907-.8,1.223.642,1.854.684,1.3-.569,1.931-.518,1.208.613,1.838.684,1.255.076,1.881.177,1.145.705,1.767.821,1.27,0,1.89.139,1.285,0,1.9.161,1.144.557,1.749.74,1.321-.016,1.924.184,1.2.385,1.8.59,1.178.448,1.77.673,1.207.371,1.794.612,1.121.576,1.705.824,1.14.561,1.713.81.906,1.061,1.472,1.325,1.408-.009,1.96.284.806,1.141,1.345,1.457,1.039.693,1.565,1.027,1.068.659,1.589,1,1.362.24,1.883.588.744,1.137,1.251,1.5,1.547.066,2.026.466.6,1.248,1.052,1.68.756,1.019,1.19,1.469.778,1,1.206,1.454,1.465.383,1.869.861.846.959,1.228,1.455.312,1.344.678,1.853.752,1.013,1.11,1.528.442,1.205.776,1.735.685,1.022.978,1.578.989.909,1.26,1.478.266,1.26.509,1.841.421,1.177.634,1.77,1.119.979,1.282,1.588.017,1.307.151,1.923.413,1.2.545,1.818-.015,1.29.106,1.91.174,1.247.27,1.871.582,1.212.632,1.843-.339,1.287-.322,1.919-.43,1.251-.437,1.884.126,1.251.1,1.883-.092,1.244-.135,1.875.348,1.288.282,1.917-.063,1.266-.157,1.892-.316,1.225-.433,1.848.05,1.3-.088,1.919-.754,1.118-.911,1.732-.54,1.145-.718,1.753-.073,1.287-.269,1.89-.033,1.321-.244,1.918-.737,1.072-.962,1.664-.643,1.1-.883,1.682-.6,1.1-.856,1.682.235,1.507-.05,2.073-1.369.709-1.667,1.268S8707.211,7501.053,8706.91,7501.61Z" fill="#fff3d9"/>
      <path id="Path_3568" data-name="Path 3568" d="M8706.91,7501.61c-.315.582-.258,1.374-.586,1.942s-1.171.83-1.533,1.376-.4,1.337-.807,1.849-.816,1.058-1.269,1.538-1.366.49-1.845.943-.787,1.079-1.283,1.512-.706,1.209-1.22,1.624-1.458.255-1.994.641-.582,1.5-1.144,1.851-1.473.09-2.063.386-.908,1.173-1.513,1.44-1.219.5-1.824.765-1.3.326-1.909.57-1.258.411-1.882.628-1.357.056-1.993.238-1.218.509-1.859.67-1.337.013-1.983.15-1.24.457-1.894.566-1.341-.195-2-.113-1.22.9-1.878.965-1.351-.448-2.011-.407-1.274.786-1.935.811-1.327-.222-1.988-.218-1.3-.571-1.962-.592-1.317.257-1.977.219-1.3-.119-1.963-.177-1.362.371-2.019.294-1.265-.488-1.915-.6-1.259-.4-1.906-.536-1.372.153-2.019.022-1.191-.717-1.834-.859-1.284-.258-1.923-.417-1.3-.2-1.937-.385-1.327-.152-1.957-.346-1.154-.7-1.779-.915-1.273-.333-1.892-.563-1.361-.117-1.979-.35-.936-1.215-1.547-1.463-1.487.137-2.087-.14-1.253-.432-1.812-.736-.795-1.219-1.344-1.542-.994-.856-1.542-1.178-1.595.164-2.146-.158-.91-1-1.448-1.344-.852-1.014-1.362-1.4-1.033-.755-1.53-1.159-1.078-.709-1.557-1.131-.941-.874-1.4-1.314-.73-1.056-1.157-1.532-.913-.893-1.317-1.387-1.082-.78-1.481-1.278-.462-1.265-.846-1.776-.977-.868-1.336-1.4-1.146-.8-1.474-1.353-.225-1.354-.51-1.927-1-.956-1.262-1.542.146-1.46-.1-2.052-.494-1.18-.73-1.777-1.067-.977-1.274-1.584-.122-1.319-.278-1.942-.277-1.257-.391-1.89.124-1.311.04-1.949-.837-1.193-.907-1.832.064-1.306.026-1.947-.051-1.288-.061-1.931-.038-1.288-.023-1.932-.107-1.3-.069-1.938.942-1.205,1.008-1.846-.351-1.322-.257-1.96.145-1.274.245-1.911.744-1.161.869-1.794-.106-1.32.059-1.945-.047-1.359.163-1.97.251-1.285.482-1.889.514-1.174.743-1.778,1.124-.934,1.368-1.53-.011-1.4.254-1.985.556-1.162.841-1.742c.277-.565.652-1.084.934-1.646s.567-1.131.872-1.68.855-.955,1.2-1.481.458-1.214.824-1.728.708-1.054,1.094-1.551.924-.882,1.332-1.361.961-.83,1.387-1.295.932-.843,1.376-1.29,1.042-.711,1.507-1.137.812-.958,1.3-1.364.8-1,1.3-1.385,1.185-.5,1.7-.87.836-1,1.365-1.342.82-1.079,1.362-1.4,1.521.121,2.075-.179.772-1.27,1.348-1.53,1.317-.137,1.9-.374,1.11-.615,1.7-.846,1.115-.647,1.713-.844,1.291-.092,1.9-.266,1.245-.2,1.856-.357,1.193-.39,1.8-.556,1.169-.521,1.785-.664,1.234-.329,1.861-.42,1.3.31,1.928.26,1.239-.219,1.872-.247,1.239-.492,1.872-.515,1.259.741,1.891.747,1.275-.825,1.907-.8,1.223.642,1.854.684,1.3-.569,1.931-.518,1.208.613,1.838.684,1.255.076,1.881.177,1.145.705,1.767.821,1.27,0,1.89.139,1.285,0,1.9.161,1.144.557,1.749.74,1.321-.016,1.924.184,1.2.385,1.8.59,1.178.448,1.77.673,1.207.371,1.794.612,1.121.576,1.705.824,1.14.561,1.713.81.906,1.061,1.472,1.325,1.408-.009,1.96.284.806,1.141,1.345,1.457,1.039.693,1.565,1.027,1.068.659,1.589,1,1.362.24,1.883.588.744,1.137,1.251,1.5,1.547.066,2.026.466.6,1.248,1.052,1.68.756,1.019,1.19,1.469.778,1,1.206,1.454,1.465.383,1.869.861.846.959,1.228,1.455.312,1.344.678,1.853.752,1.013,1.11,1.528.442,1.205.776,1.735.685,1.022.978,1.578.989.909,1.26,1.478.266,1.26.509,1.841.421,1.177.634,1.77,1.119.979,1.282,1.588.017,1.307.151,1.923.413,1.2.545,1.818-.015,1.29.106,1.91.174,1.247.27,1.871.582,1.212.632,1.843-.339,1.287-.322,1.919-.43,1.251-.437,1.884.126,1.251.1,1.883-.092,1.244-.135,1.875.348,1.288.282,1.917-.063,1.266-.157,1.892-.316,1.225-.433,1.848.05,1.3-.088,1.919-.754,1.118-.911,1.732-.54,1.145-.718,1.753-.073,1.287-.269,1.89-.033,1.321-.244,1.918-.737,1.072-.962,1.664-.643,1.1-.883,1.682-.6,1.1-.856,1.682.235,1.507-.05,2.073-1.369.709-1.667,1.268S8707.211,7501.053,8706.91,7501.61Z" fill="none" stroke="#c1a784" stroke-linecap="round" stroke-linejoin="round" stroke-width="1.91"/>
    </g>
    <g id="Group_1094" data-name="Group 1094">
      <ellipse id="Ellipse_110" data-name="Ellipse 110" cx="11.141" cy="10.823" rx="11.141" ry="10.823" transform="matrix(0.394, -0.919, 0.919, 0.394, 8631.333, 7459.32)" fill="#fff" stroke="#d4b78f" stroke-miterlimit="10" stroke-width="1.39"/>
      <ellipse id="Ellipse_111" data-name="Ellipse 111" cx="7.321" cy="7.64" rx="7.321" ry="7.64" transform="matrix(0.394, -0.919, 0.919, 0.394, 8635.343, 7456.989)" fill="#333"/>
    </g>
    <g id="Group_1095" data-name="Group 1095">
      <ellipse id="Ellipse_112" data-name="Ellipse 112" cx="11.141" cy="10.823" rx="11.141" ry="10.823" transform="matrix(0.394, -0.919, 0.919, 0.394, 8673.83, 7468.572)" fill="#fff" stroke="#d4b78f" stroke-miterlimit="10" stroke-width="1.39"/>
      <ellipse id="Ellipse_113" data-name="Ellipse 113" cx="7.321" cy="7.64" rx="7.321" ry="7.64" transform="matrix(0.394, -0.919, 0.919, 0.394, 8677.794, 7466.55)" fill="#333"/>
    </g>
    <path id="Path_3569" data-name="Path 3569" d="M8644.285,7479.589s.087-1,.364-2.444a24.934,24.934,0,0,1,1.5-5.073c1.518-3.5,7.3-6.285,10.146-6.442s8.855-.594,14.035.261,7.342,3.872,7.342,3.872-1.691,5.511-4.125,7.927-9.13,5.066-14.231,5.632S8648.706,7482.2,8644.285,7479.589Z" fill="#00532c"/>
    <g id="Group_1096" data-name="Group 1096">
      <path id="Path_3570" data-name="Path 3570" d="M8646.913,7476.25s8.183-2.527,13.564-3.545,12.452-2.656,12.452-2.656" fill="none" stroke="#80b500" stroke-linecap="round" stroke-linejoin="round" stroke-width="1.277"/>
      <path id="Path_3571" data-name="Path 3571" d="M8672.749,7473.472l-4.368-2.292,1.082-2.736" fill="none" stroke="#80b500" stroke-linecap="round" stroke-linejoin="round" stroke-width="1.277"/>
      <path id="Path_3572" data-name="Path 3572" d="M8664.617,7468.307l-2.291,4.341,5.93,2.954" fill="none" stroke="#80b500" stroke-linecap="round" stroke-linejoin="round" stroke-width="1.277"/>
      <path id="Path_3573" data-name="Path 3573" d="M8658.925,7468.479l-2.417,5.385,5.255,3.644" fill="none" stroke="#80b500" stroke-linecap="round" stroke-linejoin="round" stroke-width="1.277"/>
      <path id="Path_3574" data-name="Path 3574" d="M8652.121,7469.541l-2.406,5.9,6.667,3.087" fill="none" stroke="#80b500" stroke-linecap="round" stroke-linejoin="round" stroke-width="1.277"/>
    </g>
    <g id="Group_1097" data-name="Group 1097">
      <path id="Path_3575" data-name="Path 3575" d="M8656.105,7497.886a30.885,30.885,0,0,1,1.118-8.046,75.8,75.8,0,0,0,1.515-8.892" fill="none" stroke="#00532c" stroke-linecap="round" stroke-linejoin="round" stroke-width="1.883"/>
    </g>
    <path id="Path_3576" data-name="Path 3576" d="M8664.438,7502.516" fill="#fff3d9" stroke="#000" stroke-linecap="round" stroke-linejoin="round" stroke-width="1.91"/>
    <g id="Group_1098" data-name="Group 1098">
      <path id="Path_3577" data-name="Path 3577" d="M8672.934,7420.724s7.48,12,18.471,20.276,21.022,14.012,26.361,14.874l5.341.863s.475-5.06-7.124-13.136S8696.329,7420.051,8672.934,7420.724Z" fill="#00532c"/>
      <path id="Path_3578" data-name="Path 3578" d="M8686.219,7421.158s9.007-11.905,11.806-10.182a79.3,79.3,0,0,1,11.368,8.189c6.155,5.522,16.323,13.226,15.174,15.582-2.914,5.971-2.392,9.7-5.656,10.867S8686.219,7421.158,8686.219,7421.158Z" fill="#00532c"/>
      <path id="Path_3579" data-name="Path 3579" d="M8720.03,7447.981a66.106,66.106,0,0,1-35.737-26.555l4.527-3.466s7.6,9.966,16.474,16.552a61.82,61.82,0,0,0,16.748,8.722Z" fill="#fcee21"/>
      <path id="Path_3580" data-name="Path 3580" d="M8709.694,7440.02s3.867-7.94,10.488-6.528,8.634,3.792,8.634,3.792S8721.275,7447.716,8709.694,7440.02Z" fill="#80b500"/>
    </g>
    <path id="Path_3581" data-name="Path 3581" d="M8675.777,7492.517s-4.974,8.311-19.782,5.984-17.411-12.623-17.411-12.623" fill="none" stroke="#ea4d00" stroke-linecap="round" stroke-linejoin="round" stroke-width="2.491"/>
  </g>
</svg>
